o torus_vhacd64_52
v -0.605463 0.006289 1.092138
v -0.588716 0.131289 1.063131
v -0.542963 0.222796 0.983884
v -0.480463 0.256289 0.875631
v -0.417963 0.222796 0.767378
v -0.372210 0.131289 0.688131
v -0.355463 0.006289 0.659125
v -0.372210 -0.118711 0.688131
v -0.417963 -0.210217 0.767378
v -0.480463 -0.243711 0.875631
v -0.542963 -0.210217 0.983884
v -0.588716 -0.118711 1.063131
v -0.458818 0.006289 1.164455
v -0.446000 0.131289 1.133511
v -0.410982 0.222796 1.048970
v -0.363147 0.256289 0.933485
v -0.315311 0.222796 0.818000
v -0.280293 0.131289 0.733459
v -0.267476 0.006289 0.702515
v -0.280293 -0.118711 0.733459
v -0.315311 -0.210217 0.818000
v -0.363147 -0.243711 0.933485
v -0.410982 -0.210217 1.048970
v -0.446000 -0.118711 1.133511
f 24 13 1
f 12 24 1
f 14 24 13
f 14 13 1
f 4 17 16
f 4 17 5
f 6 4 5
f 6 4 3
f 11 12 24
f 11 8 10
f 2 12 1
f 2 14 1
f 2 14 3
f 22 21 10
f 9 8 10
f 9 21 10
f 9 20 8
f 9 20 21
f 15 14 3
f 15 4 16
f 15 4 3
f 15 14 17
f 15 17 16
f 7 6 8
f 7 20 19
f 7 20 8
f 23 21 24
f 23 22 21
f 23 11 24
f 23 11 10
f 23 22 10
f 18 20 19
f 18 7 19
f 18 7 6
f 18 17 5
f 18 6 5
f 14 21 17
f 14 21 24
f 11 6 8
f 11 6 3
f 2 11 3
f 2 11 12
f 18 21 17
f 18 20 21
