o torus_fine_9
v 1.269537 0.006289 0.009606
v 1.236043 0.131289 0.009606
v 1.144537 0.222796 0.009606
v 1.019537 0.256289 0.009606
v 1.019537 -0.243711 0.009606
v 1.144537 -0.210217 0.009606
v 1.236043 -0.118711 0.009606
v 1.258843 0.006289 -0.153552
v 1.225636 0.131289 -0.149180
v 1.134912 0.222796 -0.137236
v 1.010982 0.256289 -0.120920
v 1.010982 -0.243711 -0.120920
v 1.134912 -0.210217 -0.137236
v 1.225636 -0.118711 -0.149180
v 1.226944 0.006289 -0.313918
v 1.194592 0.131289 -0.305249
v 1.106204 0.222796 -0.281566
v 0.985463 0.256289 -0.249213
v 0.985463 -0.243711 -0.249213
v 1.106204 -0.210217 -0.281566
v 1.194592 -0.118711 -0.305249
v 1.174387 0.006289 -0.468749
v 1.143442 0.131289 -0.455931
v 1.058902 0.222796 -0.420913
v 0.943417 0.256289 -0.373078
v 0.943417 -0.243711 -0.373078
v 1.058902 -0.210217 -0.420913
v 1.143442 -0.118711 -0.455931
v 1.102069 0.006289 -0.615394
v 1.073062 0.131289 -0.598648
v 0.993815 0.222796 -0.552894
v 0.885562 0.256289 -0.490394
v 0.777309 0.222796 -0.427894
v 0.698062 0.131289 -0.382141
v 0.669056 0.006289 -0.365394
v 0.698062 -0.118711 -0.382141
v 0.777309 -0.210217 -0.427894
v 0.885562 -0.243711 -0.490394
v 0.993815 -0.210217 -0.552894
v 1.073062 -0.118711 -0.598648
v 1.258843 0.006289 0.172763
v 1.225636 0.131289 0.168392
v 1.134912 0.222796 0.156448
v 1.010982 0.256289 0.140132
v 0.887051 0.222796 0.123816
v 0.796328 0.131289 0.111872
v 0.763121 0.006289 0.107500
v 0.796328 -0.118711 0.111872
v 0.887051 -0.210217 0.123816
v 1.010982 -0.243711 0.140132
v 1.134912 -0.210217 0.156448
v 1.225636 -0.118711 0.168392
f 22 15 21
f 22 40 29
f 8 15 21
f 14 8 1
f 14 8 21
f 39 40 38
f 36 34 35
f 36 40 38
f 36 37 38
f 49 36 37
f 49 50 38
f 49 37 38
f 51 49 50
f 28 22 21
f 28 22 40
f 16 22 15
f 16 8 15
f 27 28 21
f 27 39 40
f 27 28 40
f 41 42 52
f 41 52 1
f 41 42 1
f 9 16 17
f 9 8 1
f 9 16 8
f 48 49 36
f 48 51 49
f 7 52 1
f 7 14 1
f 33 34 45
f 33 32 45
f 33 32 34
f 25 32 31
f 24 16 17
f 24 25 17
f 24 25 31
f 30 22 29
f 30 40 29
f 30 24 31
f 30 32 31
f 30 32 34
f 26 39 38
f 26 27 39
f 20 12 19
f 20 12 13
f 20 27 21
f 20 26 19
f 20 26 27
f 20 14 21
f 20 14 13
f 2 42 1
f 2 9 1
f 10 9 17
f 47 36 35
f 47 48 36
f 47 34 35
f 6 51 52
f 6 7 52
f 6 14 13
f 6 7 14
f 6 12 5
f 6 12 13
f 6 50 5
f 6 51 50
f 44 43 45
f 44 32 45
f 11 10 17
f 23 16 22
f 23 30 22
f 23 24 16
f 23 30 24
f 3 42 43
f 3 2 42
f 3 2 9
f 3 10 9
f 3 44 4
f 3 44 43
f 3 11 4
f 3 11 10
f 46 47 48
f 46 43 45
f 46 34 45
f 46 47 34
f 18 25 17
f 18 11 17
f 51 42 52
f 51 42 43
f 30 36 40
f 30 36 34
f 26 50 38
f 26 50 5
f 26 12 5
f 26 12 19
f 46 51 43
f 46 48 51
f 18 44 32
f 18 25 32
f 18 44 4
f 18 11 4
