o torus_vhacd64_8
v -0.741415 0.006289 -0.982086
v -0.721025 0.131289 -0.955514
v -0.665320 0.222796 -0.882917
v -0.589225 0.256289 -0.783748
v -0.513129 0.222796 -0.684578
v -0.457424 0.131289 -0.611982
v -0.437034 0.006289 -0.585409
v -0.457424 -0.118711 -0.611982
v -0.513129 -0.210217 -0.684578
v -0.589225 -0.243711 -0.783748
v -0.665320 -0.210217 -0.882917
v -0.721025 -0.118711 -0.955514
v -0.864347 0.006289 -0.874277
v -0.840663 0.131289 -0.850594
v -0.775958 0.222796 -0.785889
v -0.687570 0.256289 -0.697501
v -0.599182 0.222796 -0.609113
v -0.534477 0.131289 -0.544408
v -0.510793 0.006289 -0.520724
v -0.534477 -0.118711 -0.544408
v -0.599182 -0.210217 -0.609113
v -0.687570 -0.243711 -0.697501
v -0.775958 -0.210217 -0.785889
v -0.840663 -0.118711 -0.850594
f 9 12 10
f 2 12 1
f 2 3 4
f 22 9 10
f 22 9 21
f 22 21 13
f 22 23 13
f 24 23 13
f 24 1 13
f 24 12 1
f 11 12 10
f 11 22 10
f 11 22 23
f 11 24 12
f 11 24 23
f 20 9 21
f 20 21 13
f 8 9 12
f 8 20 7
f 8 20 9
f 5 2 4
f 19 20 7
f 19 20 13
f 6 5 2
f 6 8 7
f 14 15 13
f 14 1 13
f 14 2 1
f 14 2 3
f 14 15 3
f 16 5 4
f 16 5 17
f 16 3 4
f 16 15 3
f 16 17 13
f 16 15 13
f 18 19 7
f 18 6 7
f 18 17 13
f 18 19 13
f 18 5 17
f 18 6 5
f 6 8 12
f 6 2 12
