o torus_capsule32_15
v 0.075272 -0.002765 0.015757
v 0.081273 -0.002174 0.014557
v 0.086361 -0.001673 0.011142
v 0.089760 -0.001338 0.006030
v 0.090953 -0.001221 0.000000
v 0.089760 -0.001338 -0.006030
v 0.086361 -0.001673 -0.011142
v 0.081273 -0.002174 -0.014557
v 0.075272 -0.002765 -0.015757
v 0.080955 0.008516 0.012802
v 0.085257 0.009820 0.009798
v 0.088132 0.010692 0.005303
v 0.089141 0.010999 0.000000
v 0.088132 0.010692 -0.005303
v 0.085257 0.009820 -0.009798
v 0.080955 0.008516 -0.012802
v 0.063703 0.008739 -0.011142
v 0.060435 0.007747 -0.006030
v 0.059287 0.007399 -0.000000
v 0.060435 0.007747 0.006030
v 0.063703 0.008739 0.011142
v 0.060774 -0.020999 -0.011142
v 0.057762 -0.019389 -0.006030
v 0.056704 -0.018823 -0.000000
v 0.057762 -0.019389 0.006030
v 0.060774 -0.020999 0.011142
v 0.077739 -0.024146 0.012802
v 0.081703 -0.026265 0.009798
v 0.084352 -0.027681 0.005303
v 0.085282 -0.028178 0.000000
v 0.084352 -0.027681 -0.005303
v 0.081703 -0.026265 -0.009798
v 0.077739 -0.024146 -0.012802
v 0.074365 -0.011973 -0.015757
v 0.074365 -0.011973 0.015757
v 0.080136 -0.013723 0.014557
v 0.085027 -0.015207 0.011142
v 0.088296 -0.016199 0.006030
v 0.089444 -0.016547 0.000000
v 0.088296 -0.016199 -0.006030
v 0.085027 -0.015207 -0.011142
v 0.080136 -0.013723 -0.014557
v 0.072775 -0.022593 -0.013856
v 0.073287 -0.017397 -0.015757
v 0.075272 0.002765 -0.015757
v 0.075784 0.007961 -0.013856
v 0.067498 -0.022073 -0.012802
v 0.067286 -0.016806 -0.014557
v 0.069271 0.003356 -0.014557
v 0.070507 0.008481 -0.012802
v 0.067498 -0.022073 0.012802
v 0.067286 -0.016806 0.014557
v 0.069271 0.003356 0.014557
v 0.070507 0.008481 0.012802
v 0.072775 -0.022593 0.013856
v 0.073287 -0.017397 0.015757
v 0.075272 0.002765 0.015757
v 0.075784 0.007961 0.013856
v 0.079287 -0.017988 0.014557
v 0.081273 0.002174 0.014557
v 0.079595 -0.027542 0.007272
v 0.084375 -0.018489 0.011142
v 0.086361 0.001673 0.011142
v 0.083439 0.011485 0.007272
v 0.087774 -0.018824 0.006030
v 0.089760 0.001338 0.006030
v 0.088968 -0.018941 0.000000
v 0.090953 0.001221 0.000000
v 0.087774 -0.018824 -0.006030
v 0.089760 0.001338 -0.006030
v 0.079595 -0.027542 -0.007272
v 0.084375 -0.018489 -0.011142
v 0.086361 0.001673 -0.011142
v 0.083439 0.011485 -0.007272
v 0.079287 -0.017988 -0.014557
v 0.081273 0.002174 -0.014557
f 67 69 30
f 23 19 24
f 17 21 19
f 17 23 22
f 40 67 69
f 25 19 24
f 25 23 24
f 47 71 43
f 47 71 22
f 47 48 43
f 47 48 22
f 31 71 30
f 31 69 30
f 32 31 71
f 72 31 69
f 72 32 31
f 18 23 19
f 18 17 19
f 18 17 23
f 44 48 43
f 49 17 22
f 49 48 22
f 13 64 74
f 20 21 19
f 20 25 19
f 20 25 21
f 26 25 21
f 26 53 21
f 33 71 43
f 33 32 71
f 33 44 43
f 50 17 74
f 50 46 74
f 50 49 17
f 50 49 46
f 45 49 46
f 16 45 76
f 16 45 46
f 16 46 74
f 68 13 70
f 66 68 13
f 12 64 11
f 12 13 64
f 12 66 13
f 14 13 74
f 14 13 70
f 14 70 73
f 54 53 21
f 54 58 53
f 54 64 21
f 54 58 64
f 10 64 11
f 10 58 64
f 10 60 11
f 52 26 53
f 52 56 55
f 39 38 67
f 39 40 67
f 39 6 5
f 39 6 40
f 65 67 30
f 65 38 67
f 57 58 53
f 57 10 58
f 57 10 60
f 41 6 40
f 41 40 69
f 41 72 69
f 75 33 44
f 75 41 72
f 75 72 32
f 75 33 32
f 15 76 73
f 15 16 76
f 15 14 73
f 15 16 74
f 15 14 74
f 63 60 11
f 63 12 11
f 63 12 66
f 4 39 5
f 4 39 38
f 51 52 55
f 51 52 26
f 29 65 30
f 37 65 38
f 37 4 3
f 37 4 38
f 37 2 3
f 7 41 8
f 7 41 6
f 34 75 44
f 61 51 55
f 61 29 30
f 61 51 26
f 61 71 30
f 59 35 56
f 62 29 65
f 62 37 65
f 62 59 37
f 42 8 9
f 42 34 9
f 42 34 75
f 42 41 8
f 42 75 41
f 36 37 2
f 36 59 37
f 36 59 35
f 36 35 1
f 36 2 1
f 27 56 55
f 27 59 56
f 27 61 55
f 28 61 29
f 28 27 61
f 28 62 29
f 28 62 59
f 28 27 59
f 64 17 21
f 64 17 74
f 26 25 23
f 26 23 22
f 45 8 76
f 45 8 9
f 45 49 48
f 45 44 48
f 68 6 70
f 68 6 5
f 57 52 56
f 57 52 53
f 35 57 56
f 35 57 1
f 2 57 1
f 2 57 60
f 63 2 60
f 63 2 3
f 4 63 3
f 4 63 66
f 4 68 5
f 4 66 68
f 7 8 76
f 7 76 73
f 7 6 70
f 7 70 73
f 34 45 9
f 34 45 44
f 61 26 22
f 61 71 22
