o torus_capsule32_30
v -0.071534 0.038848 0.012802
v -0.075009 0.041699 0.009798
v -0.077331 0.043605 0.005303
v -0.078147 0.044274 0.000000
v -0.077331 0.043605 -0.005303
v -0.075009 0.041699 -0.009798
v -0.071534 0.038848 -0.012802
v -0.055510 0.032452 -0.011142
v -0.052870 0.030285 -0.006030
v -0.051943 0.029524 -0.000000
v -0.052870 0.030285 0.006030
v -0.055510 0.032452 0.011142
v -0.070601 0.026251 0.015757
v -0.075919 0.029093 0.014557
v -0.080427 0.031503 0.011142
v -0.083439 0.033113 0.006030
v -0.084497 0.033679 0.000000
v -0.083439 0.033113 -0.006030
v -0.080427 0.031503 -0.011142
v -0.075919 0.029093 -0.014557
v -0.070601 0.026251 -0.015757
v -0.066969 0.036357 0.013856
v -0.068484 0.031360 0.015757
v -0.074365 0.011973 0.015757
v -0.075881 0.006976 0.013856
v -0.074255 0.033110 0.014557
v -0.080136 0.013723 0.014557
v -0.072692 0.042541 0.007272
v -0.079147 0.034594 0.011142
v -0.085027 0.015207 0.011142
v -0.084076 0.005014 0.007272
v -0.082415 0.035586 0.006030
v -0.088296 0.016199 0.006030
v -0.083563 0.035934 0.000000
v -0.089444 0.016547 0.000000
v -0.082415 0.035586 -0.006030
v -0.088296 0.016199 -0.006030
v -0.072692 0.042541 -0.007272
v -0.079147 0.034594 -0.011142
v -0.085027 0.015207 -0.011142
v -0.084076 0.005014 -0.007272
v -0.074255 0.033110 -0.014557
v -0.080136 0.013723 -0.014557
v -0.066969 0.036357 -0.013856
v -0.068484 0.031360 -0.015757
v -0.074365 0.011973 -0.015757
v -0.075881 0.006976 -0.013856
v -0.061894 0.034818 -0.012802
v -0.062714 0.029610 -0.014557
v -0.068595 0.010223 -0.014557
v -0.070807 0.005437 -0.012802
v -0.061894 0.034818 0.012802
v -0.062714 0.029610 0.014557
v -0.068595 0.010223 0.014557
v -0.070807 0.005437 0.012802
v -0.073287 0.017397 0.015757
v -0.079287 0.017988 0.014557
v -0.084375 0.018489 0.011142
v -0.087774 0.018824 0.006030
v -0.088968 0.018941 0.000000
v -0.087774 0.018824 -0.006030
v -0.084375 0.018489 -0.011142
v -0.079287 0.017988 -0.014557
v -0.073287 0.017397 -0.015757
v -0.064184 0.003857 -0.011142
v -0.060785 0.004192 -0.006030
v -0.059591 0.004309 -0.000000
v -0.060785 0.004192 0.006030
v -0.064184 0.003857 0.011142
v -0.081061 0.007442 0.012802
v -0.085535 0.007001 0.009798
v -0.088524 0.006707 0.005303
v -0.089574 0.006603 0.000000
v -0.088524 0.006707 -0.005303
v -0.085535 0.007001 -0.009798
v -0.081061 0.007442 -0.012802
f 67 69 65
f 31 41 73
f 12 53 52
f 12 53 69
f 50 49 65
f 50 49 46
f 28 38 4
f 28 12 52
f 54 53 69
f 68 67 69
f 68 67 10
f 35 37 73
f 35 33 73
f 43 76 46
f 7 42 6
f 7 38 6
f 34 36 4
f 34 36 17
f 39 42 6
f 55 31 69
f 55 54 69
f 51 41 65
f 51 50 65
f 74 37 73
f 74 41 73
f 66 67 10
f 66 9 10
f 66 67 65
f 66 9 65
f 8 49 48
f 8 38 48
f 8 49 65
f 8 9 65
f 11 9 10
f 11 68 10
f 11 12 69
f 11 68 69
f 5 38 4
f 5 38 6
f 5 36 4
f 5 39 6
f 5 39 36
f 15 14 29
f 15 16 58
f 15 16 29
f 3 28 4
f 71 31 70
f 71 27 70
f 71 30 27
f 59 16 58
f 59 16 17
f 59 30 58
f 59 30 33
f 63 64 46
f 63 43 46
f 40 63 62
f 40 63 43
f 40 74 37
f 40 61 62
f 40 61 37
f 44 38 48
f 44 7 38
f 44 49 48
f 32 16 17
f 32 34 17
f 32 16 29
f 32 3 29
f 32 34 4
f 32 3 4
f 18 36 17
f 18 61 17
f 18 61 62
f 18 39 36
f 60 35 37
f 60 61 37
f 60 61 17
f 60 59 17
f 60 35 33
f 60 59 33
f 25 55 54
f 25 31 70
f 25 55 31
f 47 50 46
f 47 51 50
f 47 76 46
f 47 76 41
f 47 51 41
f 75 76 41
f 75 74 41
f 75 40 74
f 75 43 76
f 75 40 43
f 57 15 58
f 57 15 14
f 57 30 58
f 57 30 27
f 24 54 53
f 24 57 27
f 24 25 54
f 24 27 70
f 24 25 70
f 26 14 29
f 2 1 28
f 2 3 28
f 2 3 29
f 2 26 29
f 2 26 1
f 72 31 73
f 72 71 31
f 72 33 73
f 72 30 33
f 72 71 30
f 20 39 42
f 20 64 21
f 20 63 64
f 45 7 42
f 45 44 7
f 45 20 21
f 45 20 42
f 45 44 49
f 45 49 46
f 19 18 62
f 19 18 39
f 19 20 39
f 19 63 62
f 19 20 63
f 56 24 57
f 56 14 13
f 56 57 14
f 23 14 13
f 23 26 14
f 23 24 53
f 23 26 1
f 22 53 52
f 22 23 53
f 22 23 1
f 22 28 52
f 22 1 28
f 31 41 65
f 31 69 65
f 8 28 38
f 8 28 12
f 11 8 12
f 11 8 9
f 45 64 46
f 45 64 21
f 23 56 24
f 23 56 13
