o torus_vhacd64_41
v 0.644537 0.006289 1.092137
v 0.627790 0.131289 1.063131
v 0.582037 0.222796 0.983884
v 0.519537 0.256289 0.875631
v 0.457037 0.222796 0.767378
v 0.411284 0.131289 0.688131
v 0.394537 0.006289 0.659125
v 0.411284 -0.118711 0.688131
v 0.457037 -0.210217 0.767378
v 0.519537 -0.243711 0.875631
v 0.582037 -0.210217 0.983884
v 0.627790 -0.118711 1.063131
v 0.780488 0.006289 1.001298
v 0.760099 0.131289 0.974725
v 0.704393 0.222796 0.902128
v 0.628298 0.256289 0.802959
v 0.552203 0.222796 0.703790
v 0.496497 0.131289 0.631193
v 0.476108 0.006289 0.604621
v 0.496497 -0.118711 0.631193
v 0.552203 -0.210217 0.703790
v 0.628298 -0.243711 0.802959
v 0.704393 -0.210217 0.902128
v 0.760099 -0.118711 0.974725
f 2 3 4
f 2 1 13
f 9 8 7
f 20 8 7
f 20 9 21
f 20 9 8
f 5 2 7
f 5 2 4
f 16 3 4
f 16 5 4
f 16 5 17
f 23 24 11
f 12 9 10
f 12 11 10
f 12 2 7
f 12 9 7
f 12 2 1
f 12 24 11
f 12 1 13
f 12 24 13
f 19 20 21
f 19 24 21
f 19 20 7
f 18 5 17
f 18 19 7
f 18 19 17
f 15 16 3
f 14 16 17
f 14 19 17
f 14 19 24
f 14 15 16
f 14 24 13
f 14 2 13
f 14 2 3
f 14 15 3
f 22 11 10
f 22 23 11
f 22 9 10
f 22 9 21
f 22 24 21
f 22 23 24
f 6 5 7
f 6 18 7
f 6 18 5
