o torus_vhacd64_43
v 0.497891 0.006289 1.164455
v 0.485074 0.131289 1.133511
v 0.450056 0.222796 1.048970
v 0.402221 0.256289 0.933485
v 0.354385 0.222796 0.818000
v 0.319367 0.131289 0.733459
v 0.306550 0.006289 0.702515
v 0.319367 -0.118711 0.733459
v 0.354385 -0.210217 0.818000
v 0.402221 -0.243711 0.933485
v 0.450056 -0.210217 1.048970
v 0.485074 -0.118711 1.133511
v 0.644537 0.006289 1.092137
v 0.627790 0.131289 1.063131
v 0.582037 0.222796 0.983884
v 0.519537 0.256289 0.875631
v 0.457037 0.222796 0.767378
v 0.411284 0.131289 0.688131
v 0.394537 0.006289 0.659125
v 0.411284 -0.118711 0.688131
v 0.457037 -0.210217 0.767378
v 0.519537 -0.243711 0.875631
v 0.582037 -0.210217 0.983884
v 0.627790 -0.118711 1.063131
f 12 1 13
f 12 11 1
f 23 12 11
f 14 15 13
f 16 3 4
f 16 3 15
f 9 8 21
f 9 11 10
f 9 11 1
f 9 8 1
f 22 11 10
f 22 23 11
f 22 9 10
f 22 9 21
f 24 23 13
f 24 12 13
f 24 23 12
f 2 3 1
f 2 1 13
f 2 14 13
f 2 14 15
f 2 3 15
f 5 16 4
f 5 3 4
f 5 3 1
f 19 8 7
f 6 8 1
f 6 5 1
f 6 8 7
f 6 19 7
f 18 15 13
f 18 16 15
f 18 6 19
f 20 18 19
f 20 8 21
f 20 19 8
f 20 22 21
f 20 22 23
f 20 23 13
f 20 18 13
f 17 5 16
f 17 18 16
f 17 6 5
f 17 18 6
