o torus_capsule32_14
v 0.081061 -0.007442 0.012802
v 0.085535 -0.007001 0.009798
v 0.088524 -0.006707 0.005303
v 0.089574 -0.006603 0.000000
v 0.088524 -0.006707 -0.005303
v 0.085535 -0.007001 -0.009798
v 0.081061 -0.007442 -0.012802
v 0.064184 -0.003857 -0.011142
v 0.060785 -0.004192 -0.006030
v 0.059591 -0.004309 -0.000000
v 0.060785 -0.004192 0.006030
v 0.064184 -0.003857 0.011142
v 0.055510 -0.032452 -0.011142
v 0.052870 -0.030285 -0.006030
v 0.051943 -0.029524 -0.000000
v 0.052870 -0.030285 0.006030
v 0.055510 -0.032452 0.011142
v 0.071534 -0.038848 0.012802
v 0.075009 -0.041699 0.009798
v 0.077331 -0.043605 0.005303
v 0.078147 -0.044274 0.000000
v 0.077331 -0.043605 -0.005303
v 0.075009 -0.041699 -0.009798
v 0.071534 -0.038848 -0.012802
v 0.070601 -0.026251 -0.015757
v 0.070601 -0.026251 0.015757
v 0.075919 -0.029093 0.014557
v 0.080427 -0.031503 0.011142
v 0.083439 -0.033113 0.006030
v 0.084497 -0.033679 0.000000
v 0.083439 -0.033113 -0.006030
v 0.080427 -0.031503 -0.011142
v 0.075919 -0.029093 -0.014557
v 0.066969 -0.036357 -0.013856
v 0.068484 -0.031360 -0.015757
v 0.074365 -0.011973 -0.015757
v 0.075881 -0.006976 -0.013856
v 0.061894 -0.034818 -0.012802
v 0.062714 -0.029610 -0.014557
v 0.068595 -0.010223 -0.014557
v 0.070807 -0.005437 -0.012802
v 0.061894 -0.034818 0.012802
v 0.062714 -0.029610 0.014557
v 0.068595 -0.010223 0.014557
v 0.070807 -0.005437 0.012802
v 0.066969 -0.036357 0.013856
v 0.068484 -0.031360 0.015757
v 0.074365 -0.011973 0.015757
v 0.075881 -0.006976 0.013856
v 0.074255 -0.033110 0.014557
v 0.080136 -0.013723 0.014557
v 0.072692 -0.042541 0.007272
v 0.079147 -0.034594 0.011142
v 0.085027 -0.015207 0.011142
v 0.084076 -0.005014 0.007272
v 0.082415 -0.035586 0.006030
v 0.088296 -0.016199 0.006030
v 0.083563 -0.035934 0.000000
v 0.089444 -0.016547 0.000000
v 0.082415 -0.035586 -0.006030
v 0.088296 -0.016199 -0.006030
v 0.072692 -0.042541 -0.007272
v 0.079147 -0.034594 -0.011142
v 0.085027 -0.015207 -0.011142
v 0.084076 -0.005014 -0.007272
v 0.074255 -0.033110 -0.014557
v 0.080136 -0.013723 -0.014557
v 0.073287 -0.017397 -0.015757
v 0.073287 -0.017397 0.015757
v 0.079287 -0.017988 0.014557
v 0.084375 -0.018489 0.011142
v 0.087774 -0.018824 0.006030
v 0.088968 -0.018941 0.000000
v 0.087774 -0.018824 -0.006030
v 0.084375 -0.018489 -0.011142
v 0.079287 -0.017988 -0.014557
f 10 12 8
f 35 36 39
f 13 39 8
f 13 39 38
f 13 62 38
f 55 65 4
f 40 39 8
f 40 36 39
f 37 40 36
f 52 62 21
f 52 46 42
f 52 17 42
f 11 10 15
f 11 10 12
f 9 10 15
f 9 10 8
f 24 62 23
f 14 9 15
f 14 13 8
f 14 9 8
f 5 65 4
f 5 61 4
f 72 73 30
f 72 73 57
f 31 60 30
f 22 60 21
f 22 62 21
f 22 62 23
f 45 55 12
f 45 55 49
f 68 76 36
f 41 65 8
f 41 37 65
f 41 40 8
f 41 37 40
f 7 37 36
f 7 37 65
f 43 17 42
f 43 46 42
f 43 47 46
f 43 17 12
f 29 72 71
f 29 72 30
f 16 17 12
f 16 11 12
f 16 11 15
f 16 14 15
f 48 69 70
f 48 43 47
f 34 24 35
f 34 39 38
f 34 35 39
f 34 62 38
f 34 24 62
f 66 24 35
f 66 24 23
f 59 57 4
f 59 73 57
f 59 61 4
f 59 73 61
f 74 73 61
f 74 31 75
f 74 73 30
f 74 31 30
f 1 55 49
f 1 2 55
f 1 48 49
f 51 1 2
f 51 48 70
f 51 1 48
f 3 55 4
f 3 2 55
f 3 57 4
f 67 76 36
f 67 7 36
f 58 60 21
f 58 60 30
f 18 47 46
f 18 52 46
f 18 19 52
f 20 52 21
f 20 19 52
f 44 43 12
f 44 48 43
f 44 45 12
f 44 45 49
f 44 48 49
f 33 35 25
f 33 66 35
f 33 68 25
f 33 68 76
f 63 66 23
f 63 22 23
f 63 22 60
f 63 31 60
f 63 33 66
f 54 51 2
f 54 70 71
f 54 51 70
f 54 72 71
f 54 72 57
f 54 3 57
f 54 3 2
f 6 67 7
f 6 5 65
f 6 7 65
f 50 18 47
f 50 18 19
f 56 29 30
f 56 58 30
f 56 58 21
f 56 20 21
f 32 76 75
f 32 33 76
f 32 63 33
f 32 31 75
f 32 63 31
f 64 6 67
f 64 76 75
f 64 67 76
f 64 74 75
f 64 74 61
f 64 5 61
f 64 6 5
f 27 47 26
f 27 50 47
f 27 69 26
f 27 69 70
f 28 70 71
f 28 27 70
f 28 29 71
f 53 27 50
f 53 28 27
f 53 50 19
f 53 20 19
f 53 56 20
f 53 56 29
f 53 28 29
f 55 65 8
f 55 12 8
f 52 13 62
f 52 13 17
f 68 35 36
f 68 35 25
f 16 13 17
f 16 14 13
f 48 69 26
f 48 47 26
