o torus_vhacd64_45
v 0.182694 0.006289 1.248912
v 0.178323 0.131289 1.215705
v 0.166379 0.222796 1.124981
v 0.150063 0.256289 1.001051
v 0.133747 0.222796 0.877120
v 0.121803 0.131289 0.786396
v 0.117431 0.006289 0.753189
v 0.121803 -0.118711 0.786396
v 0.133747 -0.210217 0.877120
v 0.150063 -0.243711 1.001051
v 0.166379 -0.210217 1.124981
v 0.178323 -0.118711 1.215705
v 0.343060 0.006289 1.217013
v 0.334391 0.131289 1.184661
v 0.310708 0.222796 1.096272
v 0.278356 0.256289 0.975532
v 0.246003 0.222796 0.854791
v 0.222320 0.131289 0.766403
v 0.213651 0.006289 0.734050
v 0.222320 -0.118711 0.766403
v 0.246003 -0.210217 0.854791
v 0.278356 -0.243711 0.975532
v 0.310708 -0.210217 1.096272
v 0.334391 -0.118711 1.184661
f 14 1 13
f 11 1 10
f 11 12 1
f 3 4 1
f 16 3 4
f 9 8 21
f 9 8 7
f 9 1 7
f 9 1 10
f 22 9 10
f 22 9 21
f 22 11 10
f 22 11 23
f 24 23 13
f 24 1 13
f 24 12 1
f 24 11 12
f 24 11 23
f 2 14 1
f 2 3 1
f 2 3 14
f 5 16 4
f 5 1 7
f 5 4 1
f 17 5 16
f 15 3 14
f 15 16 3
f 15 14 13
f 15 23 13
f 6 5 7
f 6 17 5
f 19 8 7
f 19 6 7
f 20 22 21
f 20 8 21
f 20 19 8
f 18 17 16
f 18 20 19
f 18 6 17
f 18 19 6
f 15 22 16
f 15 22 23
f 18 22 16
f 18 20 22
