o torus_capsule32_3
v -0.057822 -0.028126 -0.011142
v -0.054554 -0.027134 -0.006030
v -0.053406 -0.026786 -0.000000
v -0.054554 -0.027134 0.006030
v -0.057822 -0.028126 0.011142
v -0.072043 -0.037896 0.012802
v -0.076345 -0.039201 0.009798
v -0.079219 -0.040073 0.005303
v -0.080228 -0.040379 0.000000
v -0.079219 -0.040073 -0.005303
v -0.076345 -0.039201 -0.009798
v -0.072043 -0.037896 -0.012802
v -0.061051 -0.044118 -0.015757
v -0.061051 -0.044118 0.015757
v -0.066368 -0.046961 0.014557
v -0.070877 -0.049370 0.011142
v -0.073889 -0.050980 0.006030
v -0.074947 -0.051546 0.000000
v -0.073889 -0.050980 -0.006030
v -0.070877 -0.049370 -0.011142
v -0.066368 -0.046961 -0.014557
v -0.067435 -0.035484 -0.013856
v -0.064123 -0.039520 -0.015757
v -0.051270 -0.055181 -0.015757
v -0.047958 -0.059217 -0.013856
v -0.063336 -0.032120 -0.012802
v -0.059462 -0.035695 -0.014557
v -0.046609 -0.051355 -0.014557
v -0.043859 -0.055853 -0.012802
v -0.063336 -0.032120 0.012802
v -0.059462 -0.035695 0.014557
v -0.046609 -0.051355 0.014557
v -0.043859 -0.055853 0.012802
v -0.067435 -0.035484 0.013856
v -0.064123 -0.039520 0.015757
v -0.051270 -0.055181 0.015757
v -0.047958 -0.059217 0.013856
v -0.068784 -0.043345 0.014557
v -0.055932 -0.059006 0.014557
v -0.075757 -0.036807 0.007272
v -0.072736 -0.046588 0.011142
v -0.059883 -0.062249 0.011142
v -0.050879 -0.067121 0.007272
v -0.075376 -0.048755 0.006030
v -0.062524 -0.064416 0.006030
v -0.076303 -0.049516 0.000000
v -0.063451 -0.065177 0.000000
v -0.075376 -0.048755 -0.006030
v -0.062524 -0.064416 -0.006030
v -0.075757 -0.036807 -0.007272
v -0.072736 -0.046588 -0.011142
v -0.059883 -0.062249 -0.011142
v -0.050879 -0.067121 -0.007272
v -0.068784 -0.043345 -0.014557
v -0.055932 -0.059006 -0.014557
v -0.055181 -0.051270 -0.015757
v -0.055181 -0.051270 0.015757
v -0.059006 -0.055932 0.014557
v -0.062249 -0.059883 0.011142
v -0.064416 -0.062524 0.006030
v -0.065177 -0.063451 0.000000
v -0.064416 -0.062524 -0.006030
v -0.062249 -0.059883 -0.011142
v -0.059006 -0.055932 -0.014557
v -0.038866 -0.051224 -0.011142
v -0.037256 -0.048212 -0.006030
v -0.036690 -0.047154 -0.000000
v -0.037256 -0.048212 0.006030
v -0.038866 -0.051224 0.011142
v -0.051223 -0.063266 0.012802
v -0.053342 -0.067230 0.009798
v -0.054758 -0.069879 0.005303
v -0.055255 -0.070809 0.000000
v -0.054758 -0.069879 -0.005303
v -0.053342 -0.067230 -0.009798
v -0.051223 -0.063266 -0.012802
f 26 50 22
f 26 50 1
f 68 3 67
f 47 49 73
f 74 49 73
f 21 23 13
f 21 64 13
f 52 74 49
f 52 74 75
f 66 3 67
f 66 2 3
f 66 68 67
f 66 2 1
f 66 65 1
f 28 29 65
f 28 24 25
f 28 29 25
f 12 50 22
f 12 11 50
f 12 23 22
f 10 50 9
f 10 11 50
f 10 11 51
f 39 71 42
f 69 5 68
f 4 2 3
f 4 68 3
f 4 5 68
f 31 5 30
f 31 69 32
f 31 69 5
f 48 10 51
f 48 18 46
f 48 46 9
f 48 10 9
f 53 74 73
f 53 74 75
f 53 29 65
f 53 29 25
f 56 64 13
f 55 52 75
f 27 26 1
f 27 65 1
f 27 28 65
f 27 23 22
f 27 26 22
f 54 21 51
f 54 11 51
f 54 12 11
f 54 21 23
f 54 12 23
f 43 53 73
f 36 32 37
f 70 39 71
f 70 43 37
f 70 43 71
f 70 36 37
f 70 36 39
f 33 32 37
f 33 69 32
f 33 43 69
f 33 43 37
f 35 38 6
f 20 48 51
f 20 21 51
f 20 64 63
f 20 21 64
f 62 20 63
f 44 8 41
f 44 18 46
f 44 46 9
f 44 8 9
f 40 8 9
f 40 50 9
f 40 5 30
f 7 8 41
f 7 38 6
f 7 38 41
f 7 40 6
f 7 40 8
f 76 55 75
f 76 53 25
f 76 53 75
f 76 55 24
f 76 24 25
f 72 43 73
f 72 43 71
f 72 71 42
f 58 57 14
f 34 35 31
f 34 31 30
f 34 35 6
f 34 40 30
f 34 40 6
f 19 20 48
f 19 62 20
f 19 48 18
f 19 62 61
f 19 18 61
f 15 38 41
f 15 58 14
f 15 35 14
f 15 35 38
f 17 18 61
f 17 60 61
f 17 44 18
f 45 47 73
f 45 72 73
f 45 72 42
f 16 17 60
f 16 44 41
f 16 17 44
f 16 15 41
f 16 15 58
f 59 16 60
f 59 16 58
f 69 66 68
f 69 66 65
f 4 5 1
f 4 2 1
f 56 24 23
f 56 23 13
f 55 56 24
f 55 56 64
f 55 64 63
f 55 52 63
f 27 24 23
f 27 28 24
f 43 69 65
f 43 53 65
f 35 36 32
f 35 31 32
f 62 47 49
f 62 47 61
f 62 52 63
f 62 52 49
f 40 5 1
f 40 50 1
f 57 35 36
f 57 35 14
f 58 57 36
f 58 36 39
f 45 47 61
f 45 60 61
f 59 45 60
f 59 45 42
f 59 58 39
f 59 39 42
