v -0.476221 0.136986 -0.586658
v -1.093915 -0.020982 -0.586658
v -1.093915 0.022054 -0.586658
v -0.849688 -0.222137 -0.026314
v -1.007675 0.266346 -0.026314
v -0.605540 -0.222137 -0.586658
v -1.208822 -0.121585 -0.026314
v -0.821021 0.266346 -0.586658
v -0.720447 0.036433 -0.026314
v -0.964595 -0.222137 -0.572288
v -1.194488 0.151365 -0.155649
v -0.461808 -0.107155 -0.572288
v -0.849688 0.237588 -0.026314
v -1.007675 -0.250895 -0.026314
v -1.050835 0.223209 -0.428581
v -1.165741 -0.135913 -0.313562
v -0.619953 0.237588 -0.557917
v -1.237647 0.036433 -0.026314
v -0.749194 -0.121585 -0.026314
v -1.194488 0.022054 -0.342358
v -0.835354 -0.250895 -0.586658
v -1.108249 -0.222137 -0.170020
v -1.050835 0.151365 -0.586658
v -0.433062 -0.035361 -0.572288
v -1.108249 0.237588 -0.026314
v -0.749194 0.136986 -0.026314
v -0.433062 0.036383 -0.572288
v -1.065090 -0.135913 -0.572288
v -1.122661 0.136986 -0.457323
v -0.935849 -0.250895 -0.040684
v -1.079502 0.237588 -0.284985
v -1.237647 -0.006603 -0.112537
v -0.950261 0.266346 -0.026314
v -0.950261 0.237588 -0.586658
v -0.749194 -0.250895 -0.557917
v -1.036422 -0.222137 -0.428581
v -0.749194 0.266346 -0.586658
v -0.504889 0.165744 -0.572288
v -0.979008 -0.250895 -0.284985
v -0.720447 -0.035361 -0.026314
v -0.835354 -0.222137 -0.040684
v -1.108249 -0.222137 -0.026314
v -0.935849 0.266346 -0.385470
v -1.208822 0.136986 -0.026314
v -1.151329 -0.006603 -0.471693
v -0.504889 -0.150292 -0.586658
v -1.165741 0.151365 -0.299410
v -1.194488 -0.135913 -0.170020
v -1.194488 -0.035361 -0.327987
v -0.476221 0.136986 -0.572288
v -1.223234 0.036433 -0.198761
v -1.122661 -0.135913 -0.442952
v -0.993263 -0.193379 -0.586658
v -0.605540 -0.222137 -0.572288
v -0.504889 -0.150292 -0.572288
v -1.108249 0.237588 -0.141279
v -0.749194 -0.135913 -0.040684
v -0.433062 -0.035361 -0.586658
v -0.619953 0.237588 -0.586658
v -1.180075 0.122657 -0.299410
v -1.151329 0.022054 -0.471693
f 60 29 61
f 1 2 3
f 2 1 6
f 4 5 7
f 1 3 8
f 5 4 9
f 5 9 13
f 4 7 14
f 7 5 18
f 9 4 19
f 2 6 21
f 8 3 23
f 19 12 24
f 18 5 25
f 13 9 26
f 9 24 27
f 26 9 27
f 23 3 29
f 15 23 29
f 4 14 30
f 14 21 30
f 7 18 32
f 8 5 33
f 5 13 33
f 13 17 33
f 8 23 34
f 23 15 34
f 15 31 34
f 21 6 35
f 30 21 35
f 10 21 36
f 22 16 36
f 1 8 37
f 8 33 37
f 33 17 37
f 17 13 38
f 13 26 38
f 21 14 39
f 14 22 39
f 36 21 39
f 22 36 39
f 9 19 40
f 24 9 40
f 19 24 40
f 19 4 41
f 4 30 41
f 14 7 42
f 22 14 42
f 7 22 42
f 5 8 43
f 8 34 43
f 34 31 43
f 11 18 44
f 25 11 44
f 18 25 44
f 3 2 45
f 2 28 45
f 6 1 46
f 15 29 47
f 31 15 47
f 22 7 48
f 16 22 48
f 7 32 48
f 48 32 49
f 20 45 49
f 16 48 49
f 27 1 50
f 26 27 50
f 1 38 50
f 38 26 50
f 18 11 51
f 32 18 51
f 49 32 51
f 20 49 51
f 36 16 52
f 28 36 52
f 45 28 52
f 16 49 52
f 49 45 52
f 2 21 53
f 21 10 53
f 28 2 53
f 10 36 53
f 36 28 53
f 35 6 54
f 30 35 54
f 41 30 54
f 6 46 54
f 54 46 55
f 46 12 55
f 41 54 55
f 25 5 56
f 11 25 56
f 5 43 56
f 43 31 56
f 47 11 56
f 31 47 56
f 12 19 57
f 19 41 57
f 55 12 57
f 41 55 57
f 24 12 58
f 1 27 58
f 27 24 58
f 46 1 58
f 12 46 58
f 1 37 59
f 37 17 59
f 38 1 59
f 17 38 59
f 11 47 60
f 47 29 60
f 51 11 60
f 20 51 60
f 29 3 61
f 3 45 61
f 45 20 61
f 20 60 61
