o torus_vhacd64_56
v -0.972155 0.006289 0.770558
v -0.945583 0.131289 0.750168
v -0.872986 0.222796 0.694462
v -0.773816 0.256289 0.618367
v -0.674647 0.222796 0.542272
v -0.602050 0.131289 0.486566
v -0.575478 0.006289 0.466177
v -0.602050 -0.118711 0.486566
v -0.674647 -0.210217 0.542272
v -0.773816 -0.243711 0.618367
v -0.872986 -0.210217 0.694462
v -0.945583 -0.118711 0.750168
v -0.864347 0.006289 0.893489
v -0.840663 0.131289 0.869805
v -0.775958 0.222796 0.805101
v -0.687570 0.256289 0.716712
v -0.599182 0.222796 0.628324
v -0.534477 0.131289 0.563619
v -0.510793 0.006289 0.539936
v -0.534477 -0.118711 0.563619
v -0.599182 -0.210217 0.628324
v -0.687570 -0.243711 0.716712
v -0.775958 -0.210217 0.805101
v -0.840663 -0.118711 0.869805
f 12 13 1
f 3 15 16
f 17 15 19
f 17 15 16
f 23 21 19
f 23 15 19
f 23 15 13
f 14 15 13
f 7 6 19
f 7 8 19
f 7 8 6
f 20 21 19
f 20 8 19
f 20 8 21
f 9 8 21
f 2 12 1
f 2 13 1
f 2 14 13
f 2 3 15
f 2 14 15
f 18 6 19
f 18 17 19
f 18 17 6
f 5 3 6
f 5 17 6
f 5 17 16
f 11 23 12
f 11 9 10
f 11 9 8
f 24 12 13
f 24 23 13
f 24 23 12
f 22 23 21
f 22 9 10
f 22 9 21
f 22 11 10
f 22 11 23
f 4 3 16
f 4 5 16
f 4 5 3
f 11 2 3
f 11 2 12
f 11 8 6
f 11 3 6
