o torus_vhacd64_29
v 1.226944 0.006289 -0.313918
v 1.194592 0.131289 -0.305249
v 1.106204 0.222796 -0.281566
v 0.985463 0.256289 -0.249213
v 0.864722 0.222796 -0.216861
v 0.776334 0.131289 -0.193177
v 0.743981 0.006289 -0.184509
v 0.776334 -0.118711 -0.193177
v 0.864722 -0.210217 -0.216861
v 0.985463 -0.243711 -0.249213
v 1.106204 -0.210217 -0.281566
v 1.194592 -0.118711 -0.305249
f 3 11 7
f 3 11 1
f 2 3 1
f 2 3 4
f 8 6 7
f 9 11 7
f 9 11 10
f 9 8 10
f 9 8 7
f 5 3 7
f 5 3 4
f 5 6 4
f 5 6 7
f 12 2 1
f 12 11 1
f 12 11 10
f 12 6 4
f 12 8 10
f 12 2 4
f 12 8 6
