o torus_fine_12
v 0.497891 0.006289 1.164455
v 0.485074 0.131289 1.133511
v 0.450056 0.222796 1.048970
v 0.402221 0.256289 0.933485
v 0.354385 0.222796 0.818000
v 0.319367 0.131289 0.733459
v 0.306550 0.006289 0.702515
v 0.319367 -0.118711 0.733459
v 0.354385 -0.210217 0.818000
v 0.402221 -0.243711 0.933485
v 0.450056 -0.210217 1.048970
v 0.485074 -0.118711 1.133511
v 0.644537 0.006289 1.092137
v 0.627790 0.131289 1.063131
v 0.582037 0.222796 0.983884
v 0.519537 0.256289 0.875631
v 0.519537 -0.243711 0.875631
v 0.582037 -0.210217 0.983884
v 0.627790 -0.118711 1.063131
v 0.780488 0.006289 1.001298
v 0.760099 0.131289 0.974725
v 0.704393 0.222796 0.902128
v 0.628298 0.256289 0.802959
v 0.628298 -0.243711 0.802959
v 0.704393 -0.210217 0.902128
v 0.760099 -0.118711 0.974725
v 0.903420 0.006289 0.893490
v 0.879736 0.131289 0.869806
v 0.815032 0.222796 0.805101
v 0.726643 0.256289 0.716713
v 0.726643 -0.243711 0.716713
v 0.815032 -0.210217 0.805101
v 0.879736 -0.118711 0.869806
v 1.011229 0.006289 0.770557
v 0.984656 0.131289 0.750168
v 0.912059 0.222796 0.694462
v 0.812890 0.256289 0.618367
v 0.812890 -0.243711 0.618367
v 0.912059 -0.210217 0.694462
v 0.984656 -0.118711 0.750168
v 1.102069 0.006289 0.634606
v 1.073062 0.131289 0.617859
v 0.993815 0.222796 0.572106
v 0.885562 0.256289 0.509606
v 0.885562 -0.243711 0.509606
v 0.993815 -0.210217 0.572106
v 1.073062 -0.118711 0.617859
v 1.174386 0.006289 0.487960
v 1.143442 0.131289 0.475143
v 1.058901 0.222796 0.440125
v 0.943416 0.256289 0.392290
v 0.827931 0.222796 0.344454
v 0.743391 0.131289 0.309436
v 0.712446 0.006289 0.296619
v 0.743391 -0.118711 0.309436
v 0.827931 -0.210217 0.344454
v 0.943416 -0.243711 0.392290
v 1.058901 -0.210217 0.440125
v 1.143442 -0.118711 0.475143
f 9 8 56
f 9 8 1
f 5 3 4
f 5 3 1
f 54 8 7
f 11 9 10
f 11 9 1
f 58 57 56
f 6 8 1
f 6 5 1
f 6 8 7
f 6 5 52
f 6 54 7
f 53 6 52
f 53 6 54
f 12 11 1
f 2 3 1
f 15 2 3
f 15 2 14
f 45 58 46
f 45 58 57
f 18 12 11
f 47 40 46
f 55 53 54
f 55 8 56
f 55 54 8
f 55 53 48
f 55 58 48
f 55 58 56
f 50 51 52
f 50 53 48
f 50 53 52
f 35 36 43
f 35 42 43
f 21 15 14
f 21 20 14
f 13 20 14
f 13 2 1
f 13 2 14
f 13 12 1
f 38 45 46
f 17 11 10
f 17 18 11
f 32 38 31
f 19 18 26
f 19 18 12
f 19 13 12
f 19 20 26
f 19 13 20
f 59 58 46
f 59 47 46
f 59 58 48
f 49 50 48
f 49 42 43
f 49 50 43
f 16 3 4
f 16 15 3
f 29 35 28
f 29 35 36
f 29 21 28
f 44 50 43
f 44 50 51
f 41 47 40
f 41 35 42
f 41 59 48
f 41 59 47
f 41 49 48
f 41 49 42
f 39 38 46
f 39 32 38
f 39 40 46
f 39 32 40
f 33 32 26
f 33 32 40
f 25 18 26
f 25 32 26
f 22 21 15
f 22 29 21
f 37 36 43
f 37 44 43
f 37 29 36
f 37 29 30
f 27 35 28
f 27 21 28
f 27 21 20
f 27 33 40
f 27 20 26
f 27 33 26
f 24 32 31
f 24 25 32
f 24 17 18
f 24 25 18
f 23 29 30
f 23 22 29
f 23 16 15
f 23 22 15
f 34 41 35
f 34 27 35
f 34 41 40
f 34 27 40
f 57 9 56
f 57 9 10
f 51 5 52
f 51 5 4
f 24 57 10
f 24 38 31
f 24 45 57
f 24 38 45
f 24 17 10
f 23 51 4
f 23 16 4
f 23 37 30
f 23 44 51
f 23 37 44
