o torus_fine_15
v -0.605463 0.006289 1.092138
v -0.588716 0.131289 1.063131
v -0.542963 0.222796 0.983884
v -0.480463 0.256289 0.875631
v -0.417963 0.222796 0.767378
v -0.372210 0.131289 0.688131
v -0.355463 0.006289 0.659125
v -0.372210 -0.118711 0.688131
v -0.417963 -0.210217 0.767378
v -0.480463 -0.243711 0.875631
v -0.542963 -0.210217 0.983884
v -0.588716 -0.118711 1.063131
v -0.458818 0.006289 1.164455
v -0.446000 0.131289 1.133511
v -0.410982 0.222796 1.048970
v -0.363147 0.256289 0.933485
v -0.363147 -0.243711 0.933485
v -0.410982 -0.210217 1.048970
v -0.446000 -0.118711 1.133511
v -0.303987 0.006289 1.217013
v -0.295318 0.131289 1.184660
v -0.271635 0.222796 1.096272
v -0.239282 0.256289 0.975531
v -0.239282 -0.243711 0.975531
v -0.271635 -0.210217 1.096272
v -0.295318 -0.118711 1.184660
v -0.143622 0.006289 1.248912
v -0.139250 0.131289 1.215704
v -0.127306 0.222796 1.124981
v -0.110990 0.256289 1.001050
v -0.110990 -0.243711 1.001050
v -0.127306 -0.210217 1.124981
v -0.139250 -0.118711 1.215704
v 0.019537 0.006289 1.259606
v 0.019537 0.131289 1.226112
v 0.019537 0.222796 1.134606
v 0.019537 0.256289 1.009606
v 0.019537 -0.243711 1.009606
v 0.019537 -0.210217 1.134606
v 0.019537 -0.118711 1.226112
v 0.182694 0.006289 1.248912
v 0.178323 0.131289 1.215705
v 0.166379 0.222796 1.124981
v 0.150063 0.256289 1.001051
v 0.133747 0.222796 0.877120
v 0.121803 0.131289 0.786396
v 0.117431 0.006289 0.753189
v 0.121803 -0.118711 0.786396
v 0.133747 -0.210217 0.877120
v 0.150063 -0.243711 1.001051
v 0.166379 -0.210217 1.124981
v 0.178323 -0.118711 1.215705
f 9 49 10
f 5 45 4
f 2 12 1
f 50 49 10
f 52 34 41
f 44 45 4
f 42 34 41
f 42 52 41
f 48 9 49
f 48 50 49
f 48 50 51
f 46 5 45
f 46 48 47
f 46 44 45
f 46 44 43
f 6 3 4
f 6 5 4
f 6 46 5
f 6 7 47
f 6 46 47
f 11 18 10
f 19 11 12
f 19 11 18
f 19 20 13
f 19 12 1
f 19 13 1
f 14 20 13
f 14 13 1
f 14 2 1
f 14 2 3
f 8 11 10
f 8 9 10
f 8 6 7
f 8 48 9
f 8 7 47
f 8 48 47
f 40 32 33
f 40 52 34
f 40 27 33
f 40 34 27
f 26 32 33
f 26 19 20
f 26 27 33
f 26 20 27
f 25 26 32
f 25 19 18
f 25 26 19
f 21 14 20
f 21 27 28
f 21 20 27
f 21 29 28
f 15 3 4
f 15 14 3
f 36 44 43
f 36 42 43
f 39 52 51
f 39 40 52
f 39 40 32
f 39 38 32
f 39 50 51
f 39 38 50
f 24 25 32
f 16 15 4
f 37 36 44
f 37 30 29
f 37 36 29
f 35 36 42
f 35 42 34
f 35 29 28
f 35 36 29
f 35 27 28
f 35 34 27
f 31 38 32
f 31 24 32
f 17 18 10
f 17 25 18
f 17 24 25
f 23 30 29
f 22 23 29
f 22 21 29
f 22 23 16
f 22 16 15
f 22 21 14
f 22 15 14
f 42 52 51
f 42 43 51
f 46 43 51
f 46 48 51
f 11 2 3
f 11 2 12
f 8 11 3
f 8 6 3
f 17 38 50
f 17 50 10
f 17 31 38
f 17 31 24
f 23 16 4
f 23 44 4
f 23 37 44
f 23 37 30
