o torus_vhacd64_36
v 1.102069 0.006289 0.634606
v 1.073062 0.131289 0.617859
v 0.993815 0.222796 0.572106
v 0.885562 0.256289 0.509606
v 0.777309 0.222796 0.447106
v 0.698062 0.131289 0.401353
v 0.669056 0.006289 0.384606
v 0.698062 -0.118711 0.401353
v 0.777309 -0.210217 0.447106
v 0.885562 -0.243711 0.509606
v 0.993815 -0.210217 0.572106
v 1.073062 -0.118711 0.617859
v 1.174386 0.006289 0.487960
v 1.143442 0.131289 0.475143
v 1.058901 0.222796 0.440125
v 0.943416 0.256289 0.392290
v 0.827931 0.222796 0.344454
v 0.743391 0.131289 0.309436
v 0.712446 0.006289 0.296619
v 0.743391 -0.118711 0.309436
v 0.827931 -0.210217 0.344454
v 0.943416 -0.243711 0.392290
v 1.058901 -0.210217 0.440125
v 1.143442 -0.118711 0.475143
f 11 23 10
f 11 8 10
f 9 21 10
f 9 8 10
f 9 8 21
f 22 21 10
f 22 23 10
f 22 23 21
f 24 1 13
f 24 23 13
f 24 11 23
f 15 18 13
f 15 18 17
f 15 3 4
f 20 18 13
f 20 23 13
f 20 23 21
f 20 8 21
f 5 17 4
f 16 17 4
f 16 15 4
f 16 15 17
f 12 2 1
f 12 24 1
f 12 24 11
f 14 15 13
f 14 1 13
f 14 2 1
f 14 2 3
f 14 15 3
f 19 20 18
f 19 8 7
f 19 20 8
f 6 18 17
f 6 5 17
f 6 19 7
f 6 19 18
f 6 8 7
f 6 5 4
f 6 3 4
f 12 2 3
f 12 11 3
f 6 11 3
f 6 11 8
