o torus_vhacd64_37
v 1.011229 0.006289 0.770557
v 0.984656 0.131289 0.750168
v 0.912059 0.222796 0.694462
v 0.812890 0.256289 0.618367
v 0.713721 0.222796 0.542272
v 0.641124 0.131289 0.486566
v 0.614552 0.006289 0.466177
v 0.641124 -0.118711 0.486566
v 0.713721 -0.210217 0.542272
v 0.812890 -0.243711 0.618367
v 0.912059 -0.210217 0.694462
v 0.984656 -0.118711 0.750168
v 1.102069 0.006289 0.634606
v 1.073062 0.131289 0.617859
v 0.993815 0.222796 0.572106
v 0.885562 0.256289 0.509606
v 0.777309 0.222796 0.447106
v 0.698062 0.131289 0.401353
v 0.669056 0.006289 0.384606
v 0.698062 -0.118711 0.401353
v 0.777309 -0.210217 0.447106
v 0.885562 -0.243711 0.509606
v 0.993815 -0.210217 0.572106
v 1.073062 -0.118711 0.617859
f 2 1 13
f 12 2 7
f 12 2 1
f 12 1 13
f 3 2 4
f 9 21 10
f 9 8 21
f 9 8 7
f 9 12 7
f 9 12 10
f 22 21 10
f 22 23 10
f 19 21 13
f 19 17 13
f 19 8 7
f 5 17 4
f 5 2 7
f 5 2 4
f 11 23 10
f 11 12 10
f 11 12 23
f 24 12 13
f 24 12 23
f 24 22 23
f 24 21 13
f 24 22 21
f 15 3 4
f 15 3 2
f 20 8 21
f 20 19 21
f 20 19 8
f 6 19 7
f 6 5 7
f 6 5 17
f 16 17 4
f 16 15 4
f 14 2 13
f 14 15 2
f 14 16 15
f 14 17 13
f 14 16 17
f 18 19 17
f 18 6 17
f 18 6 19
