o torus_vhacd64_63
v -1.230463 0.006289 0.009606
v -1.196970 0.131289 0.009606
v -1.105463 0.222796 0.009606
v -0.980463 0.256289 0.009606
v -0.855463 0.222796 0.009606
v -0.763957 0.131289 0.009606
v -0.730463 0.006289 0.009606
v -0.763957 -0.118711 0.009606
v -0.855463 -0.210217 0.009606
v -0.980463 -0.243711 0.009606
v -1.105463 -0.210217 0.009606
v -1.196970 -0.118711 0.009606
v -1.219769 0.006289 0.172764
v -1.186562 0.131289 0.168392
v -1.095839 0.222796 0.156448
v -0.971908 0.256289 0.140132
v -0.847977 0.222796 0.123816
v -0.757254 0.131289 0.111872
v -0.724047 0.006289 0.107500
v -0.757254 -0.118711 0.111872
v -0.847977 -0.210217 0.123816
v -0.971908 -0.243711 0.140132
v -1.095839 -0.210217 0.156448
v -1.186562 -0.118711 0.168392
f 12 13 1
f 15 16 13
f 14 15 13
f 20 7 19
f 6 17 5
f 18 16 13
f 18 17 16
f 18 20 13
f 18 20 19
f 18 6 17
f 18 6 7
f 18 7 19
f 11 23 10
f 11 23 12
f 24 12 13
f 24 23 13
f 24 23 12
f 22 21 10
f 22 23 10
f 22 23 13
f 22 20 13
f 22 20 21
f 2 13 1
f 2 14 13
f 2 14 15
f 2 3 15
f 4 17 16
f 4 17 5
f 4 15 16
f 4 3 15
f 8 20 7
f 8 20 21
f 9 21 10
f 9 8 21
f 9 12 1
f 9 4 5
f 9 6 5
f 9 11 10
f 9 2 1
f 9 6 7
f 9 11 12
f 9 2 3
f 9 4 3
f 9 8 7
