o torus_vhacd32_8
v 0.343061 0.006289 -1.197802
v 0.334392 0.131289 -1.165449
v 0.310708 0.222796 -1.077061
v 0.278356 0.256289 -0.956320
v 0.246004 0.222796 -0.835579
v 0.222320 0.131289 -0.747191
v 0.213651 0.006289 -0.714839
v 0.222320 -0.118711 -0.747191
v 0.246004 -0.210217 -0.835579
v 0.278356 -0.243711 -0.956320
v 0.310708 -0.210217 -1.077061
v 0.334392 -0.118711 -1.165449
v 0.182694 0.006289 -1.229700
v 0.178323 0.131289 -1.196493
v 0.166379 0.222796 -1.105770
v 0.150063 0.256289 -0.981839
v 0.150063 -0.243711 -0.981839
v 0.166379 -0.210217 -1.105770
v 0.178323 -0.118711 -1.196493
v 0.019537 0.006289 -1.240394
v 0.019537 0.131289 -1.206901
v 0.019537 0.222796 -1.115394
v 0.019537 0.256289 -0.990394
v 0.019537 -0.243711 -0.990394
v 0.019537 -0.210217 -1.115394
v 0.019537 -0.118711 -1.206901
v -0.143621 0.006289 -1.229700
v -0.139249 0.131289 -1.196493
v -0.127305 0.222796 -1.105770
v -0.110989 0.256289 -0.981839
v -0.094674 0.222796 -0.857909
v -0.082730 0.131289 -0.767185
v -0.078358 0.006289 -0.733978
v -0.082730 -0.118711 -0.767185
v -0.094674 -0.210217 -0.857909
v -0.110989 -0.243711 -0.981839
v -0.127305 -0.210217 -1.105770
v -0.139249 -0.118711 -1.196493
f 20 26 27
f 20 21 27
f 38 26 27
f 28 21 27
f 5 9 1
f 13 20 26
f 13 20 21
f 12 11 10
f 12 9 1
f 12 9 10
f 2 3 4
f 2 5 1
f 2 5 4
f 8 7 33
f 6 7 33
f 6 8 7
f 19 13 26
f 19 13 1
f 19 12 1
f 35 38 27
f 14 13 21
f 14 13 1
f 14 2 1
f 31 28 27
f 31 35 27
f 18 11 10
f 18 12 11
f 18 19 12
f 18 25 26
f 18 19 26
f 34 8 9
f 34 35 9
f 34 8 33
f 36 9 10
f 36 35 9
f 15 3 4
f 15 2 3
f 15 14 2
f 15 22 21
f 15 14 21
f 32 6 5
f 32 31 5
f 32 6 33
f 32 34 33
f 29 31 28
f 29 28 21
f 29 22 21
f 37 35 38
f 37 36 35
f 37 38 26
f 37 25 26
f 24 18 25
f 24 37 25
f 24 37 36
f 23 29 22
f 23 15 22
f 17 18 10
f 17 24 18
f 16 15 4
f 16 23 15
f 30 29 31
f 30 23 29
f 30 5 4
f 30 31 5
f 6 8 9
f 6 5 9
f 32 34 35
f 32 31 35
f 17 24 36
f 17 36 10
f 30 16 23
f 30 16 4
