o torus_vhacd64_2
v -1.187871 0.006289 -0.313918
v -1.155518 0.131289 -0.305249
v -1.067130 0.222796 -0.281566
v -0.946389 0.256289 -0.249213
v -0.825648 0.222796 -0.216861
v -0.737260 0.131289 -0.193177
v -0.704908 0.006289 -0.184508
v -0.737260 -0.118711 -0.193177
v -0.825648 -0.210217 -0.216861
v -0.946389 -0.243711 -0.249213
v -1.067130 -0.210217 -0.281566
v -1.155518 -0.118711 -0.305249
f 12 10 7
f 8 10 7
f 2 4 7
f 2 12 1
f 2 12 7
f 6 4 7
f 6 4 5
f 6 8 7
f 11 12 10
f 11 12 1
f 3 4 5
f 3 2 4
f 3 2 1
f 3 11 1
f 9 8 10
f 9 11 10
f 9 6 8
f 9 6 5
f 9 3 5
f 9 3 11
