o torus_vhacd32_6
v -0.143621 0.006289 -1.229700
v -0.139249 0.131289 -1.196493
v -0.127305 0.222796 -1.105770
v -0.110989 0.256289 -0.981839
v -0.094674 0.222796 -0.857909
v -0.082730 0.131289 -0.767185
v -0.078358 0.006289 -0.733978
v -0.082730 -0.118711 -0.767185
v -0.094674 -0.210217 -0.857909
v -0.110989 -0.243711 -0.981839
v -0.127305 -0.210217 -1.105770
v -0.139249 -0.118711 -1.196493
v -0.303987 0.006289 -1.197802
v -0.295318 0.131289 -1.165449
v -0.271634 0.222796 -1.077061
v -0.239282 0.256289 -0.956320
v -0.239282 -0.243711 -0.956320
v -0.271634 -0.210217 -1.077061
v -0.295318 -0.118711 -1.165449
v -0.458818 0.006289 -1.145244
v -0.446000 0.131289 -1.114300
v -0.410982 0.222796 -1.029759
v -0.363147 0.256289 -0.914274
v -0.363147 -0.243711 -0.914274
v -0.410982 -0.210217 -1.029759
v -0.446000 -0.118711 -1.114300
v -0.605463 0.006289 -1.072926
v -0.588716 0.131289 -1.043920
v -0.542963 0.222796 -0.964673
v -0.480463 0.256289 -0.856420
v -0.417963 0.222796 -0.748167
v -0.372210 0.131289 -0.668920
v -0.355463 0.006289 -0.639913
v -0.372210 -0.118711 -0.668920
v -0.417963 -0.210217 -0.748167
v -0.480463 -0.243711 -0.856420
v -0.542963 -0.210217 -0.964673
v -0.588716 -0.118711 -1.043920
f 4 10 7
f 8 10 7
f 36 35 10
f 38 37 27
f 34 8 35
f 34 36 37
f 34 36 35
f 9 35 10
f 9 8 10
f 9 8 35
f 6 4 7
f 12 2 1
f 13 12 1
f 13 14 21
f 13 2 1
f 13 14 2
f 26 38 37
f 33 6 7
f 33 8 7
f 33 34 8
f 33 29 27
f 33 37 27
f 33 34 37
f 5 31 4
f 5 6 4
f 5 6 31
f 28 29 27
f 28 29 21
f 11 12 10
f 3 14 2
f 3 2 4
f 25 24 18
f 25 26 37
f 25 26 18
f 25 36 37
f 25 24 36
f 17 24 18
f 17 11 10
f 17 11 18
f 19 26 18
f 19 11 18
f 19 11 12
f 19 13 12
f 19 26 13
f 20 26 13
f 20 13 21
f 20 38 27
f 20 26 38
f 20 28 27
f 20 28 21
f 32 6 31
f 32 33 6
f 32 33 29
f 15 14 21
f 15 3 14
f 30 32 31
f 30 32 29
f 30 31 4
f 22 29 21
f 22 15 21
f 22 15 23
f 22 30 29
f 22 30 23
f 16 3 4
f 16 15 3
f 16 15 23
f 12 2 4
f 12 4 10
f 17 24 36
f 17 36 10
f 16 30 23
f 16 30 4
