o torus_capsule32_21
v 0.052057 0.062581 0.012802
v 0.055532 0.065433 0.009798
v 0.057854 0.067338 0.005303
v 0.058669 0.068007 0.000000
v 0.057854 0.067338 -0.005303
v 0.055532 0.065433 -0.009798
v 0.052057 0.062581 -0.012802
v 0.042658 0.048112 -0.011142
v 0.040017 0.045946 -0.006030
v 0.039090 0.045185 -0.000000
v 0.040017 0.045946 0.006030
v 0.042658 0.048112 0.011142
v 0.039520 0.064123 0.015757
v 0.043345 0.068784 0.014557
v 0.046588 0.072736 0.011142
v 0.048755 0.075376 0.006030
v 0.049516 0.076303 0.000000
v 0.048755 0.075376 -0.006030
v 0.046588 0.072736 -0.011142
v 0.043345 0.068784 -0.014557
v 0.039520 0.064123 -0.015757
v 0.048723 0.058589 0.013856
v 0.044118 0.061051 0.015757
v 0.026251 0.070601 0.015757
v 0.021646 0.073062 0.013856
v 0.046961 0.066368 0.014557
v 0.029093 0.075919 0.014557
v 0.055905 0.062996 0.007272
v 0.049370 0.070877 0.011142
v 0.031503 0.080427 0.011142
v 0.021320 0.081482 0.007272
v 0.050980 0.073889 0.006030
v 0.033113 0.083439 0.006030
v 0.051546 0.074947 0.000000
v 0.033679 0.084497 0.000000
v 0.050980 0.073889 -0.006030
v 0.033113 0.083439 -0.006030
v 0.055905 0.062996 -0.007272
v 0.049370 0.070877 -0.011142
v 0.031503 0.080427 -0.011142
v 0.021320 0.081482 -0.007272
v 0.046961 0.066368 -0.014557
v 0.029093 0.075919 -0.014557
v 0.048723 0.058589 -0.013856
v 0.044118 0.061051 -0.015757
v 0.026251 0.070601 -0.015757
v 0.021646 0.073062 -0.013856
v 0.046224 0.053913 -0.012802
v 0.041276 0.055733 -0.014557
v 0.023408 0.065283 -0.014557
v 0.019146 0.068386 -0.012802
v 0.046224 0.053913 0.012802
v 0.041276 0.055733 0.014557
v 0.023408 0.065283 0.014557
v 0.019146 0.068386 0.012802
v 0.031360 0.068484 0.015757
v 0.033110 0.074255 0.014557
v 0.034594 0.079147 0.011142
v 0.035586 0.082415 0.006030
v 0.035934 0.083563 0.000000
v 0.035586 0.082415 -0.006030
v 0.034594 0.079147 -0.011142
v 0.033110 0.074255 -0.014557
v 0.031360 0.068484 -0.015757
v 0.023113 0.078052 0.012802
v 0.023554 0.082526 0.009798
v 0.023848 0.085515 0.005303
v 0.023951 0.086564 0.000000
v 0.023848 0.085515 -0.005303
v 0.023554 0.082526 -0.009798
v 0.023113 0.078052 -0.012802
v 0.016305 0.062198 -0.011142
v 0.015970 0.058799 -0.006030
v 0.015852 0.057606 -0.000000
v 0.015970 0.058799 0.006030
v 0.016305 0.062198 0.011142
f 8 38 48
f 8 50 72
f 73 10 74
f 75 10 74
f 75 73 74
f 12 54 76
f 12 8 10
f 51 41 47
f 51 41 72
f 51 50 47
f 51 50 72
f 27 66 30
f 18 61 19
f 18 61 17
f 62 61 19
f 62 43 40
f 46 50 47
f 63 62 43
f 70 43 40
f 9 8 10
f 9 73 10
f 9 73 72
f 9 8 72
f 49 8 48
f 49 8 50
f 39 18 19
f 55 54 25
f 55 54 76
f 11 75 76
f 11 12 76
f 11 75 10
f 11 12 10
f 37 62 40
f 37 62 61
f 31 41 68
f 31 55 76
f 31 55 25
f 24 54 25
f 65 27 66
f 65 31 25
f 65 31 66
f 65 24 25
f 65 24 27
f 2 26 29
f 34 18 17
f 16 59 17
f 16 34 17
f 67 31 68
f 67 31 66
f 67 66 30
f 64 46 43
f 64 63 43
f 71 41 47
f 71 70 41
f 71 70 43
f 71 46 47
f 71 46 43
f 44 49 48
f 44 38 48
f 42 39 19
f 42 6 39
f 5 38 4
f 5 6 38
f 5 6 39
f 53 52 12
f 53 12 54
f 53 52 22
f 69 37 68
f 69 70 40
f 69 37 40
f 69 41 68
f 69 70 41
f 33 67 68
f 33 67 30
f 56 24 27
f 14 26 13
f 14 56 13
f 3 2 29
f 1 2 26
f 7 6 38
f 7 44 38
f 7 42 6
f 20 42 19
f 20 62 19
f 20 63 62
f 20 42 21
f 20 64 21
f 20 64 63
f 45 42 21
f 45 44 49
f 45 7 44
f 45 7 42
f 36 34 18
f 36 39 18
f 36 5 39
f 36 34 4
f 36 5 4
f 23 53 22
f 23 26 13
f 23 1 22
f 23 1 26
f 35 37 61
f 35 33 59
f 35 37 68
f 35 33 68
f 58 27 30
f 58 33 30
f 58 33 59
f 15 26 29
f 15 14 26
f 15 58 14
f 15 16 29
f 15 16 59
f 15 58 59
f 28 3 2
f 28 3 4
f 28 52 12
f 28 38 4
f 28 1 2
f 28 52 22
f 28 1 22
f 32 16 29
f 32 3 29
f 32 16 34
f 32 34 4
f 32 3 4
f 60 59 17
f 60 35 59
f 60 61 17
f 60 35 61
f 57 58 27
f 57 58 14
f 57 56 27
f 57 14 56
f 75 73 72
f 75 76 72
f 31 76 72
f 31 41 72
f 45 64 46
f 45 64 21
f 45 46 50
f 45 49 50
f 23 56 24
f 23 56 13
f 23 24 54
f 23 53 54
f 28 12 8
f 28 8 38
