o torus_vhacd32_7
v 0.182694 0.006289 -1.229700
v 0.178323 0.131289 -1.196493
v 0.166379 0.222796 -1.105770
v 0.150063 0.256289 -0.981839
v 0.133747 0.222796 -0.857909
v 0.121803 0.131289 -0.767185
v 0.117431 0.006289 -0.733978
v 0.121803 -0.118711 -0.767185
v 0.133747 -0.210217 -0.857909
v 0.150063 -0.243711 -0.981839
v 0.166379 -0.210217 -1.105770
v 0.178323 -0.118711 -1.196493
v 0.019537 0.006289 -1.240394
v 0.019537 0.131289 -1.206901
v 0.019537 0.222796 -1.115394
v 0.019537 0.256289 -0.990394
v 0.019537 -0.243711 -0.990394
v 0.019537 -0.210217 -1.115394
v 0.019537 -0.118711 -1.206901
v -0.143621 0.006289 -1.229700
v -0.139249 0.131289 -1.196493
v -0.127305 0.222796 -1.105770
v -0.110989 0.256289 -0.981839
v -0.110989 -0.243711 -0.981839
v -0.127305 -0.210217 -1.105770
v -0.139249 -0.118711 -1.196493
v -0.303987 0.006289 -1.197802
v -0.295318 0.131289 -1.165449
v -0.271634 0.222796 -1.077061
v -0.239282 0.256289 -0.956320
v -0.206930 0.222796 -0.835580
v -0.183246 0.131289 -0.747191
v -0.174577 0.006289 -0.714839
v -0.183246 -0.118711 -0.747191
v -0.206930 -0.210217 -0.835580
v -0.239282 -0.243711 -0.956320
v -0.271634 -0.210217 -1.077061
v -0.295318 -0.118711 -1.165449
f 13 19 1
f 13 14 1
f 12 19 1
f 6 3 4
f 9 36 10
f 20 13 19
f 20 13 14
f 24 25 36
f 11 12 19
f 26 25 19
f 26 25 38
f 26 20 19
f 26 38 27
f 26 20 27
f 37 38 36
f 37 25 36
f 37 25 38
f 2 14 1
f 2 3 14
f 2 12 1
f 21 20 27
f 21 20 14
f 28 29 30
f 28 21 27
f 5 30 4
f 5 6 4
f 8 6 7
f 8 9 10
f 8 11 10
f 18 25 19
f 18 11 19
f 16 3 4
f 22 16 23
f 22 23 30
f 22 29 30
f 22 21 14
f 22 28 29
f 22 28 21
f 34 7 33
f 34 8 7
f 34 8 9
f 17 11 10
f 17 18 11
f 17 24 25
f 17 18 25
f 15 3 14
f 15 22 14
f 15 16 3
f 15 22 16
f 31 5 30
f 31 28 27
f 31 28 30
f 35 9 36
f 35 34 9
f 35 38 36
f 35 38 27
f 35 31 27
f 32 5 6
f 32 31 5
f 32 7 33
f 32 6 7
f 32 34 33
f 2 11 3
f 2 11 12
f 8 11 3
f 8 6 3
f 16 23 30
f 16 30 4
f 17 24 36
f 17 36 10
f 32 35 31
f 32 35 34
