o torus_vhacd64_47
v 0.019537 0.006289 1.259606
v 0.019537 0.131289 1.226112
v 0.019537 0.222796 1.134606
v 0.019537 0.256289 1.009606
v 0.019537 0.222796 0.884606
v 0.019537 0.131289 0.793099
v 0.019537 0.006289 0.759606
v 0.019537 -0.118711 0.793099
v 0.019537 -0.210217 0.884606
v 0.019537 -0.243711 1.009606
v 0.019537 -0.210217 1.134606
v 0.019537 -0.118711 1.226112
v 0.182694 0.006289 1.248912
v 0.178323 0.131289 1.215705
v 0.166379 0.222796 1.124981
v 0.150063 0.256289 1.001051
v 0.133747 0.222796 0.877120
v 0.121803 0.131289 0.786396
v 0.117431 0.006289 0.753189
v 0.121803 -0.118711 0.786396
v 0.133747 -0.210217 0.877120
v 0.150063 -0.243711 1.001051
v 0.166379 -0.210217 1.124981
v 0.178323 -0.118711 1.215705
f 24 13 1
f 16 3 4
f 12 24 1
f 17 16 4
f 14 24 13
f 14 2 3
f 14 2 1
f 14 13 1
f 8 7 19
f 11 12 24
f 11 22 10
f 5 17 4
f 15 16 3
f 15 14 3
f 20 8 19
f 23 11 24
f 23 11 22
f 23 20 22
f 6 5 17
f 6 7 19
f 18 6 19
f 18 6 17
f 18 20 19
f 18 17 16
f 18 15 16
f 21 9 8
f 21 20 8
f 21 20 22
f 21 9 10
f 21 22 10
f 23 15 14
f 23 14 24
f 9 12 1
f 9 2 1
f 9 3 4
f 9 11 10
f 9 6 7
f 9 2 3
f 9 8 7
f 9 11 12
f 9 5 4
f 9 6 5
f 18 23 15
f 18 23 20
