o torus_vhacd64_25
v 1.011229 0.006289 -0.751346
v 0.984656 0.131289 -0.730956
v 0.912059 0.222796 -0.675251
v 0.812890 0.256289 -0.599156
v 0.713721 0.222796 -0.523061
v 0.641124 0.131289 -0.467355
v 0.614552 0.006289 -0.446965
v 0.641124 -0.118711 -0.467355
v 0.713721 -0.210217 -0.523061
v 0.812890 -0.243711 -0.599156
v 0.912059 -0.210217 -0.675251
v 0.984656 -0.118711 -0.730956
f 12 1 7
f 12 10 7
f 2 1 7
f 2 4 7
f 3 2 4
f 3 2 1
f 8 9 10
f 8 10 7
f 11 12 1
f 11 3 1
f 11 12 10
f 6 8 7
f 6 5 4
f 6 4 7
f 11 9 10
f 11 5 4
f 11 9 5
f 11 3 4
f 6 9 5
f 6 8 9
