o torus_vhacd64_42
v 0.644537 0.006289 1.092137
v 0.627790 0.131289 1.063131
v 0.582037 0.222796 0.983884
v 0.519537 0.256289 0.875631
v 0.457037 0.222796 0.767378
v 0.411284 0.131289 0.688131
v 0.394537 0.006289 0.659125
v 0.411284 -0.118711 0.688131
v 0.457037 -0.210217 0.767378
v 0.519537 -0.243711 0.875631
v 0.582037 -0.210217 0.983884
v 0.627790 -0.118711 1.063131
f 12 2 7
f 12 2 1
f 5 2 7
f 5 4 2
f 3 2 1
f 3 4 2
f 9 12 7
f 9 12 10
f 11 12 1
f 11 12 10
f 8 9 7
f 8 9 10
f 8 11 10
f 8 11 1
f 6 3 1
f 6 8 1
f 6 3 4
f 6 5 4
f 6 5 7
f 6 8 7
