o torus_vhacd32_29
v -1.187871 0.006289 0.333129
v -1.155518 0.131289 0.324461
v -1.067130 0.222796 0.300777
v -0.946389 0.256289 0.268425
v -0.825648 0.222796 0.236072
v -0.737260 0.131289 0.212389
v -0.704908 0.006289 0.203720
v -0.737260 -0.118711 0.212389
v -0.825648 -0.210217 0.236072
v -0.946389 -0.243711 0.268425
v -1.067130 -0.210217 0.300777
v -1.155518 -0.118711 0.324461
v -1.135313 0.006289 0.487960
v -1.104369 0.131289 0.475142
v -1.019828 0.222796 0.440124
v -0.904343 0.256289 0.392289
v -0.904343 -0.243711 0.392289
v -1.019828 -0.210217 0.440124
v -1.104369 -0.118711 0.475142
v -1.062995 0.006289 0.634606
v -1.033989 0.131289 0.617859
v -0.954742 0.222796 0.572106
v -0.846489 0.256289 0.509606
v -0.846489 -0.243711 0.509606
v -0.954742 -0.210217 0.572106
v -1.033989 -0.118711 0.617859
v -0.972155 0.006289 0.770558
v -0.945583 0.131289 0.750168
v -0.872986 0.222796 0.694462
v -0.773816 0.256289 0.618367
v -0.674647 0.222796 0.542272
v -0.602050 0.131289 0.486566
v -0.575478 0.006289 0.466177
v -0.602050 -0.118711 0.486566
v -0.674647 -0.210217 0.542272
v -0.773816 -0.243711 0.618367
v -0.872986 -0.210217 0.694462
v -0.945583 -0.118711 0.750168
f 31 5 30
f 31 27 33
f 31 30 27
f 14 13 1
f 14 13 21
f 32 31 33
f 32 31 5
f 32 7 33
f 12 11 1
f 20 26 27
f 20 13 26
f 20 21 27
f 20 13 21
f 38 26 27
f 38 36 27
f 38 36 37
f 25 38 26
f 25 38 37
f 28 21 27
f 28 30 27
f 28 29 30
f 22 14 21
f 22 28 21
f 22 28 29
f 6 7 5
f 6 32 5
f 6 32 7
f 19 12 11
f 19 25 26
f 19 13 26
f 19 13 1
f 19 12 1
f 9 11 10
f 9 36 10
f 9 7 8
f 9 11 1
f 9 5 1
f 9 7 5
f 35 27 33
f 35 36 27
f 35 9 36
f 17 11 10
f 24 36 37
f 24 25 37
f 23 29 30
f 23 22 29
f 3 5 1
f 18 19 11
f 18 19 25
f 18 17 11
f 18 24 17
f 18 24 25
f 34 35 33
f 34 7 33
f 34 7 8
f 34 9 8
f 34 35 9
f 15 22 14
f 15 3 14
f 15 23 22
f 2 14 1
f 2 3 1
f 2 3 14
f 4 3 5
f 4 5 30
f 16 15 3
f 16 4 3
f 16 15 23
f 24 17 10
f 24 36 10
f 16 4 30
f 16 23 30
