o torus_vhacd64_49
v -0.303987 0.006289 1.217013
v -0.295318 0.131289 1.184660
v -0.271635 0.222796 1.096272
v -0.239282 0.256289 0.975531
v -0.206930 0.222796 0.854791
v -0.183246 0.131289 0.766402
v -0.174578 0.006289 0.734050
v -0.183246 -0.118711 0.766402
v -0.206930 -0.210217 0.854791
v -0.239282 -0.243711 0.975531
v -0.271635 -0.210217 1.096272
v -0.295318 -0.118711 1.184660
v -0.143622 0.006289 1.248912
v -0.139250 0.131289 1.215704
v -0.127306 0.222796 1.124981
v -0.110990 0.256289 1.001050
v -0.094674 0.222796 0.877120
v -0.082730 0.131289 0.786396
v -0.078358 0.006289 0.753189
v -0.082730 -0.118711 0.786396
v -0.094674 -0.210217 0.877120
v -0.110990 -0.243711 1.001050
v -0.127306 -0.210217 1.124981
v -0.139250 -0.118711 1.215704
f 2 13 1
f 2 14 13
f 12 13 1
f 12 11 1
f 21 20 19
f 21 17 19
f 21 22 10
f 23 12 11
f 23 21 22
f 23 11 10
f 23 22 10
f 6 7 19
f 6 7 5
f 6 17 5
f 4 17 16
f 4 17 5
f 15 2 14
f 15 17 16
f 15 17 14
f 15 4 16
f 3 11 1
f 3 2 1
f 3 7 11
f 3 7 5
f 3 4 5
f 3 15 2
f 3 15 4
f 8 21 20
f 8 7 19
f 8 20 19
f 24 12 13
f 24 23 12
f 24 23 21
f 24 14 13
f 18 17 19
f 18 6 19
f 18 6 17
f 9 8 7
f 9 11 10
f 9 7 11
f 9 21 10
f 9 8 21
f 24 21 17
f 24 17 14
