o torus_capsule32_25
v -0.007442 0.081061 0.012802
v -0.007001 0.085535 0.009798
v -0.006707 0.088524 0.005303
v -0.006603 0.089574 0.000000
v -0.006707 0.088524 -0.005303
v -0.007001 0.085535 -0.009798
v -0.007442 0.081061 -0.012802
v -0.003857 0.064184 -0.011142
v -0.004192 0.060785 -0.006030
v -0.004309 0.059591 -0.000000
v -0.004192 0.060785 0.006030
v -0.003857 0.064184 0.011142
v -0.017397 0.073287 0.015757
v -0.017988 0.079287 0.014557
v -0.018489 0.084375 0.011142
v -0.018824 0.087774 0.006030
v -0.018941 0.088968 0.000000
v -0.018824 0.087774 -0.006030
v -0.018489 0.084375 -0.011142
v -0.017988 0.079287 -0.014557
v -0.017397 0.073287 -0.015757
v -0.006976 0.075881 0.013856
v -0.011973 0.074365 0.015757
v -0.031360 0.068484 0.015757
v -0.036357 0.066969 0.013856
v -0.013723 0.080136 0.014557
v -0.033110 0.074255 0.014557
v -0.005014 0.084076 0.007272
v -0.015207 0.085027 0.011142
v -0.034594 0.079147 0.011142
v -0.042541 0.072692 0.007272
v -0.016199 0.088296 0.006030
v -0.035586 0.082415 0.006030
v -0.016547 0.089444 0.000000
v -0.035934 0.083563 0.000000
v -0.016199 0.088296 -0.006030
v -0.035586 0.082415 -0.006030
v -0.005014 0.084076 -0.007272
v -0.015207 0.085027 -0.011142
v -0.034594 0.079147 -0.011142
v -0.042541 0.072692 -0.007272
v -0.013723 0.080136 -0.014557
v -0.033110 0.074255 -0.014557
v -0.006976 0.075881 -0.013856
v -0.011973 0.074365 -0.015757
v -0.031360 0.068484 -0.015757
v -0.036357 0.066969 -0.013856
v -0.005437 0.070807 -0.012802
v -0.010223 0.068595 -0.014557
v -0.029610 0.062714 -0.014557
v -0.034818 0.061894 -0.012802
v -0.005437 0.070807 0.012802
v -0.010223 0.068595 0.014557
v -0.029610 0.062714 0.014557
v -0.034818 0.061894 0.012802
v -0.026251 0.070601 0.015757
v -0.029093 0.075919 0.014557
v -0.031503 0.080427 0.011142
v -0.033113 0.083439 0.006030
v -0.033679 0.084497 0.000000
v -0.033113 0.083439 -0.006030
v -0.031503 0.080427 -0.011142
v -0.029093 0.075919 -0.014557
v -0.026251 0.070601 -0.015757
v -0.038848 0.071534 0.012802
v -0.041699 0.075009 0.009798
v -0.043605 0.077331 0.005303
v -0.044274 0.078147 0.000000
v -0.043605 0.077331 -0.005303
v -0.041699 0.075009 -0.009798
v -0.038848 0.071534 -0.012802
v -0.032452 0.055510 -0.011142
v -0.030285 0.052870 -0.006030
v -0.029524 0.051943 -0.000000
v -0.030285 0.052870 0.006030
v -0.032452 0.055510 0.011142
f 67 31 68
f 9 10 8
f 74 9 10
f 41 31 68
f 66 30 67
f 66 31 65
f 66 67 31
f 5 36 4
f 5 38 4
f 48 38 8
f 49 48 8
f 73 74 9
f 73 72 8
f 73 9 8
f 73 74 75
f 23 14 13
f 27 24 65
f 27 66 65
f 27 66 30
f 55 76 31
f 11 74 75
f 11 74 10
f 54 23 53
f 54 23 24
f 54 55 76
f 58 14 15
f 29 14 15
f 29 3 2
f 51 41 72
f 33 30 67
f 33 67 68
f 18 19 61
f 18 17 36
f 18 60 61
f 18 17 60
f 42 45 20
f 42 45 7
f 39 5 36
f 39 18 36
f 39 18 19
f 39 19 20
f 39 42 20
f 44 45 7
f 44 38 7
f 44 48 38
f 44 49 45
f 44 49 48
f 70 41 71
f 21 45 20
f 50 72 8
f 50 49 8
f 50 51 72
f 50 49 45
f 50 46 45
f 26 23 1
f 26 23 14
f 26 29 14
f 26 2 1
f 26 29 2
f 22 53 52
f 22 23 53
f 22 23 1
f 25 31 65
f 25 55 31
f 25 24 65
f 25 54 24
f 25 54 55
f 12 76 75
f 12 11 75
f 12 54 53
f 12 54 76
f 12 53 52
f 12 10 8
f 12 11 10
f 57 58 14
f 57 27 30
f 57 58 30
f 57 56 13
f 57 14 13
f 57 56 24
f 57 27 24
f 28 3 2
f 28 3 4
f 28 12 52
f 28 38 4
f 28 2 1
f 28 22 52
f 28 22 1
f 47 46 71
f 47 41 71
f 47 51 41
f 47 50 46
f 47 50 51
f 35 33 68
f 35 33 60
f 34 36 4
f 34 17 36
f 16 17 60
f 16 29 15
f 6 39 5
f 6 38 7
f 6 5 38
f 6 42 7
f 6 39 42
f 69 41 68
f 69 70 41
f 69 40 70
f 62 19 61
f 62 40 61
f 62 19 20
f 43 46 71
f 43 70 71
f 43 40 70
f 59 33 60
f 59 16 60
f 59 58 30
f 59 33 30
f 59 58 15
f 59 16 15
f 32 34 17
f 32 16 17
f 32 3 4
f 32 34 4
f 32 29 3
f 32 16 29
f 37 40 61
f 37 69 40
f 37 60 61
f 37 35 60
f 37 35 68
f 37 69 68
f 63 62 40
f 63 43 40
f 63 62 20
f 63 64 21
f 63 21 20
f 63 64 46
f 63 43 46
f 41 76 31
f 41 76 72
f 73 76 72
f 73 76 75
f 56 23 24
f 56 23 13
f 28 12 8
f 28 38 8
f 64 21 45
f 64 46 45
