o torus_capsule32_16
v 0.075784 -0.007961 0.013856
v 0.075272 -0.002765 0.015757
v 0.073287 0.017397 0.015757
v 0.072775 0.022593 0.013856
v 0.081273 -0.002174 0.014557
v 0.079287 0.017988 0.014557
v 0.083439 -0.011485 0.007272
v 0.086361 -0.001673 0.011142
v 0.084375 0.018489 0.011142
v 0.079595 0.027542 0.007272
v 0.089760 -0.001338 0.006030
v 0.087774 0.018824 0.006030
v 0.090953 -0.001221 0.000000
v 0.088968 0.018941 0.000000
v 0.089760 -0.001338 -0.006030
v 0.087774 0.018824 -0.006030
v 0.083439 -0.011485 -0.007272
v 0.086361 -0.001673 -0.011142
v 0.084375 0.018489 -0.011142
v 0.079595 0.027542 -0.007272
v 0.081273 -0.002174 -0.014557
v 0.079287 0.017988 -0.014557
v 0.075784 -0.007961 -0.013856
v 0.075272 -0.002765 -0.015757
v 0.073287 0.017397 -0.015757
v 0.072775 0.022593 -0.013856
v 0.070507 -0.008481 -0.012802
v 0.069271 -0.003356 -0.014557
v 0.067286 0.016806 -0.014557
v 0.067498 0.022073 -0.012802
v 0.070507 -0.008481 0.012802
v 0.069271 -0.003356 0.014557
v 0.067286 0.016806 0.014557
v 0.067498 0.022073 0.012802
v 0.074365 0.011973 0.015757
v 0.080136 0.013723 0.014557
v 0.085027 0.015207 0.011142
v 0.088296 0.016199 0.006030
v 0.089444 0.016547 0.000000
v 0.088296 0.016199 -0.006030
v 0.085027 0.015207 -0.011142
v 0.080136 0.013723 -0.014557
v 0.074365 0.011973 -0.015757
v 0.077739 0.024146 0.012802
v 0.081703 0.026265 0.009798
v 0.084352 0.027681 0.005303
v 0.085282 0.028178 0.000000
v 0.084352 0.027681 -0.005303
v 0.081703 0.026265 -0.009798
v 0.077739 0.024146 -0.012802
v 0.060774 0.020999 -0.011142
v 0.057762 0.019389 -0.006030
v 0.056704 0.018823 -0.000000
v 0.057762 0.019389 0.006030
v 0.060774 0.020999 0.011142
v 0.063703 -0.008739 -0.011142
v 0.060435 -0.007747 -0.006030
v 0.059287 -0.007399 -0.000000
v 0.060435 -0.007747 0.006030
v 0.063703 -0.008739 0.011142
v 0.080955 -0.008516 0.012802
v 0.085257 -0.009820 0.009798
v 0.088132 -0.010692 0.005303
v 0.089141 -0.010999 0.000000
v 0.088132 -0.010692 -0.005303
v 0.085257 -0.009820 -0.009798
v 0.080955 -0.008516 -0.012802
v 0.075272 0.002765 -0.015757
v 0.075272 0.002765 0.015757
v 0.081273 0.002174 0.014557
v 0.086361 0.001673 0.011142
v 0.089760 0.001338 0.006030
v 0.090953 0.001221 0.000000
v 0.089760 0.001338 -0.006030
v 0.086361 0.001673 -0.011142
v 0.081273 0.002174 -0.014557
f 52 58 53
f 23 27 17
f 56 27 17
f 56 60 58
f 56 52 51
f 59 60 58
f 30 20 26
f 30 20 51
f 30 29 26
f 30 29 51
f 25 29 26
f 49 22 19
f 57 52 58
f 57 56 58
f 57 56 52
f 28 29 51
f 28 56 51
f 28 56 27
f 28 23 24
f 28 23 27
f 15 65 18
f 66 65 18
f 66 65 17
f 72 38 37
f 62 8 63
f 16 14 40
f 16 14 47
f 54 52 53
f 54 58 53
f 54 59 58
f 54 59 60
f 10 20 47
f 43 25 22
f 50 20 26
f 50 49 20
f 50 49 22
f 50 25 26
f 50 25 22
f 41 16 19
f 41 16 40
f 41 22 19
f 76 41 75
f 12 38 37
f 12 14 38
f 12 14 47
f 39 14 40
f 39 14 38
f 39 72 38
f 39 72 73
f 36 6 37
f 9 6 37
f 9 12 37
f 32 31 60
f 32 1 2
f 32 31 1
f 74 41 40
f 74 41 75
f 74 39 40
f 74 39 73
f 71 72 37
f 11 8 63
f 64 65 17
f 64 11 13
f 64 11 63
f 64 15 13
f 64 15 65
f 7 62 63
f 7 64 63
f 7 64 17
f 7 31 60
f 7 31 1
f 5 62 8
f 48 16 47
f 48 49 19
f 48 16 19
f 48 20 47
f 48 49 20
f 55 54 60
f 55 32 33
f 55 32 60
f 55 34 33
f 55 34 10
f 42 41 22
f 42 76 41
f 42 43 22
f 42 43 68
f 42 76 68
f 21 66 18
f 45 9 6
f 35 36 6
f 35 3 6
f 35 69 36
f 61 5 62
f 61 7 1
f 61 7 62
f 61 1 2
f 61 5 2
f 70 36 37
f 70 71 37
f 70 69 36
f 4 3 33
f 4 34 33
f 4 34 10
f 67 21 24
f 67 23 24
f 67 21 66
f 67 23 17
f 67 66 17
f 46 9 12
f 46 45 9
f 46 12 47
f 46 10 47
f 46 45 10
f 44 3 6
f 44 4 3
f 44 45 6
f 44 45 10
f 44 4 10
f 28 25 29
f 28 25 24
f 43 25 24
f 43 68 24
f 3 32 33
f 3 32 2
f 74 15 18
f 74 75 18
f 74 73 13
f 74 15 13
f 11 71 72
f 11 71 8
f 11 73 13
f 11 72 73
f 7 56 60
f 7 56 17
f 55 54 52
f 55 52 51
f 55 20 51
f 55 10 20
f 21 68 24
f 21 76 68
f 21 75 18
f 21 76 75
f 35 3 2
f 35 69 2
f 70 71 8
f 70 5 8
f 70 69 2
f 70 5 2
