v -0.935788 0.237588 -0.586723
v -0.102689 -0.006603 -1.247513
v -0.102689 0.007726 -1.247513
v 0.026721 -0.020982 -0.730410
v -0.892687 -0.236516 -0.586723
v 0.026721 0.266346 -1.017653
v 0.026721 -0.250895 -1.017653
v -0.634192 -0.006603 -1.075102
v -0.418797 0.223209 -1.060740
v -0.418797 -0.222137 -1.046378
v -0.576796 0.223209 -0.586723
v -0.950191 -0.121585 -0.759134
v -0.591091 -0.222137 -0.586723
v -0.863989 0.151365 -0.845372
v 0.026721 0.136986 -1.218789
v 0.026721 0.194502 -0.816583
v -1.079601 0.050812 -0.601085
v 0.026721 -0.222137 -0.859734
v 0.026721 -0.121585 -1.218789
v -0.447494 0.136986 -1.132616
v -0.404394 -0.006603 -0.586723
v -0.433091 -0.135913 -1.132616
v -0.749091 0.266346 -0.586723
v -0.662889 0.237588 -0.902756
v -0.734688 -0.150292 -0.945778
v -0.878392 -0.006603 -0.888458
v -0.734688 -0.250895 -0.586723
v -0.619789 -0.250895 -0.816647
v 0.026721 0.136986 -0.759134
v -1.050795 -0.135913 -0.586723
v 0.026721 0.237588 -0.859734
v -0.332595 0.022054 -1.204427
v -0.878392 -0.222137 -0.701685
v -0.160085 -0.222137 -1.118189
v -0.131387 0.237588 -1.118189
v -0.375696 0.266346 -0.945778
v 0.026721 -0.121585 -0.759134
v -0.749091 0.136986 -0.960205
v -0.145682 0.151365 -1.204427
v -0.160085 -0.135913 -1.204427
v -0.461897 -0.135913 -0.586723
v -0.447494 0.122657 -0.586723
v -1.036392 0.136986 -0.629810
v -0.978997 0.022054 -0.773496
v -0.691587 -0.222137 -0.888458
v -0.591091 -0.135913 -1.060740
v -0.835292 0.237588 -0.744772
v -0.275092 -0.250895 -0.988864
v -0.792191 0.266346 -0.629810
v 0.026721 -0.222137 -1.118189
v -0.605386 0.151365 -1.046378
v 0.026721 0.266346 -0.960205
v 0.026721 -0.250895 -0.960205
v -0.461897 -0.006603 -1.161340
v -0.806486 -0.135913 -0.902756
v 0.026721 0.237588 -1.118189
v 0.026721 0.036433 -0.730410
v -1.079601 -0.020982 -0.615447
v -0.318192 -0.035361 -1.204427
v -0.763385 -0.006603 -0.988929
v 0.026721 0.036433 -1.247513
v -0.605386 0.036433 -1.089464
v -0.289495 0.151365 -1.175638
v -1.050795 0.136986 -0.586723
f 43 17 64
f 6 4 7
f 1 5 11
f 11 5 13
f 6 7 15
f 4 6 16
f 7 4 18
f 15 7 19
f 11 13 21
f 1 11 23
f 13 5 27
f 18 13 27
f 27 5 28
f 7 27 28
f 4 16 29
f 16 11 29
f 5 1 30
f 16 6 31
f 11 16 31
f 23 11 31
f 3 2 32
f 28 5 33
f 5 30 33
f 30 12 33
f 10 22 34
f 23 6 36
f 9 24 36
f 6 35 36
f 35 9 36
f 18 4 37
f 13 18 37
f 14 24 38
f 26 14 38
f 3 32 39
f 2 19 40
f 19 34 40
f 34 22 40
f 4 21 41
f 21 13 41
f 37 4 41
f 13 37 41
f 11 21 42
f 29 11 42
f 14 26 44
f 26 12 44
f 43 14 44
f 17 43 44
f 10 28 45
f 28 33 45
f 22 10 46
f 10 45 46
f 45 25 46
f 24 14 47
f 43 1 47
f 14 43 47
f 7 28 48
f 28 10 48
f 34 7 48
f 10 34 48
f 1 23 49
f 23 36 49
f 36 24 49
f 47 1 49
f 24 47 49
f 19 7 50
f 7 34 50
f 34 19 50
f 9 20 51
f 24 9 51
f 38 24 51
f 6 23 52
f 31 6 52
f 23 31 52
f 7 18 53
f 27 7 53
f 18 27 53
f 20 32 54
f 46 8 54
f 22 46 54
f 12 26 55
f 33 12 55
f 25 45 55
f 45 33 55
f 46 25 55
f 6 15 56
f 35 6 56
f 15 39 56
f 39 35 56
f 21 4 57
f 4 29 57
f 42 21 57
f 29 42 57
f 12 30 58
f 30 17 58
f 44 12 58
f 17 44 58
f 32 2 59
f 2 40 59
f 40 22 59
f 54 32 59
f 22 54 59
f 26 38 60
f 8 46 60
f 55 26 60
f 46 55 60
f 2 3 61
f 19 2 61
f 15 19 61
f 3 39 61
f 39 15 61
f 51 20 62
f 38 51 62
f 54 8 62
f 20 54 62
f 8 60 62
f 60 38 62
f 20 9 63
f 32 20 63
f 9 35 63
f 39 32 63
f 35 39 63
f 30 1 64
f 17 30 64
f 1 43 64
