o torus_vhacd64_51
v -0.458818 0.006289 1.164455
v -0.446000 0.131289 1.133511
v -0.410982 0.222796 1.048970
v -0.363147 0.256289 0.933485
v -0.315311 0.222796 0.818000
v -0.280293 0.131289 0.733459
v -0.267476 0.006289 0.702515
v -0.280293 -0.118711 0.733459
v -0.315311 -0.210217 0.818000
v -0.363147 -0.243711 0.933485
v -0.410982 -0.210217 1.048970
v -0.446000 -0.118711 1.133511
v -0.303987 0.006289 1.217013
v -0.295318 0.131289 1.184660
v -0.271635 0.222796 1.096272
v -0.239282 0.256289 0.975531
v -0.206930 0.222796 0.854791
v -0.183246 0.131289 0.766402
v -0.174578 0.006289 0.734050
v -0.183246 -0.118711 0.766402
v -0.206930 -0.210217 0.854791
v -0.239282 -0.243711 0.975531
v -0.271635 -0.210217 1.096272
v -0.295318 -0.118711 1.184660
f 12 13 1
f 4 5 16
f 4 15 16
f 18 7 19
f 23 22 10
f 14 15 16
f 3 4 1
f 3 4 15
f 8 7 10
f 17 18 16
f 17 5 16
f 17 18 5
f 6 18 5
f 6 18 7
f 6 7 4
f 6 4 5
f 24 23 22
f 24 14 13
f 24 12 13
f 24 23 12
f 11 23 10
f 11 23 12
f 11 10 1
f 11 12 1
f 2 3 1
f 2 13 1
f 2 14 13
f 2 14 15
f 2 3 15
f 20 18 19
f 20 7 19
f 20 8 7
f 9 22 10
f 9 8 10
f 9 20 8
f 21 20 22
f 21 9 22
f 21 9 20
f 7 4 1
f 7 10 1
f 20 24 22
f 20 18 16
f 20 14 16
f 20 24 14
