o convex_0
v -0.935788 0.237588 -0.586723
v -0.102689 -0.006603 -1.247513
v -0.102689 0.007726 -1.247513
v 0.026721 -0.020982 -0.730410
v -0.892687 -0.236516 -0.586723
v 0.026721 0.266346 -1.017653
v 0.026721 -0.250895 -1.017653
v -0.634192 -0.006603 -1.075102
v -0.418797 0.223209 -1.060740
v -0.418797 -0.222137 -1.046378
v -0.576796 0.223209 -0.586723
v -0.950191 -0.121585 -0.759134
v -0.591091 -0.222137 -0.586723
v -0.863989 0.151365 -0.845372
v 0.026721 0.136986 -1.218789
v 0.026721 0.194502 -0.816583
v -1.079601 0.050812 -0.601085
v 0.026721 -0.222137 -0.859734
v 0.026721 -0.121585 -1.218789
v -0.447494 0.136986 -1.132616
v -0.404394 -0.006603 -0.586723
v -0.433091 -0.135913 -1.132616
v -0.749091 0.266346 -0.586723
v -0.662889 0.237588 -0.902756
v -0.734688 -0.150292 -0.945778
v -0.878392 -0.006603 -0.888458
v -0.734688 -0.250895 -0.586723
v -0.619789 -0.250895 -0.816647
v 0.026721 0.136986 -0.759134
v -1.050795 -0.135913 -0.586723
v 0.026721 0.237588 -0.859734
v -0.332595 0.022054 -1.204427
v -0.878392 -0.222137 -0.701685
v -0.160085 -0.222137 -1.118189
v -0.131387 0.237588 -1.118189
v -0.375696 0.266346 -0.945778
v 0.026721 -0.121585 -0.759134
v -0.749091 0.136986 -0.960205
v -0.145682 0.151365 -1.204427
v -0.160085 -0.135913 -1.204427
v -0.461897 -0.135913 -0.586723
v -0.447494 0.122657 -0.586723
v -1.036392 0.136986 -0.629810
v -0.978997 0.022054 -0.773496
v -0.691587 -0.222137 -0.888458
v -0.591091 -0.135913 -1.060740
v -0.835292 0.237588 -0.744772
v -0.275092 -0.250895 -0.988864
v -0.792191 0.266346 -0.629810
v 0.026721 -0.222137 -1.118189
v -0.605386 0.151365 -1.046378
v 0.026721 0.266346 -0.960205
v 0.026721 -0.250895 -0.960205
v -0.461897 -0.006603 -1.161340
v -0.806486 -0.135913 -0.902756
v 0.026721 0.237588 -1.118189
v 0.026721 0.036433 -0.730410
v -1.079601 -0.020982 -0.615447
v -0.318192 -0.035361 -1.204427
v -0.763385 -0.006603 -0.988929
v 0.026721 0.036433 -1.247513
v -0.605386 0.036433 -1.089464
v -0.289495 0.151365 -1.175638
v -1.050795 0.136986 -0.586723
f 43 17 64 
f 6 4 7 
f 1 5 11 
f 11 5 13 
f 6 7 15 
f 4 6 16 
f 7 4 18 
f 15 7 19 
f 11 13 21 
f 1 11 23 
f 13 5 27 
f 18 13 27 
f 27 5 28 
f 7 27 28 
f 4 16 29 
f 16 11 29 
f 5 1 30 
f 16 6 31 
f 11 16 31 
f 23 11 31 
f 3 2 32 
f 28 5 33 
f 5 30 33 
f 30 12 33 
f 10 22 34 
f 23 6 36 
f 9 24 36 
f 6 35 36 
f 35 9 36 
f 18 4 37 
f 13 18 37 
f 14 24 38 
f 26 14 38 
f 3 32 39 
f 2 19 40 
f 19 34 40 
f 34 22 40 
f 4 21 41 
f 21 13 41 
f 37 4 41 
f 13 37 41 
f 11 21 42 
f 29 11 42 
f 14 26 44 
f 26 12 44 
f 43 14 44 
f 17 43 44 
f 10 28 45 
f 28 33 45 
f 22 10 46 
f 10 45 46 
f 45 25 46 
f 24 14 47 
f 43 1 47 
f 14 43 47 
f 7 28 48 
f 28 10 48 
f 34 7 48 
f 10 34 48 
f 1 23 49 
f 23 36 49 
f 36 24 49 
f 47 1 49 
f 24 47 49 
f 19 7 50 
f 7 34 50 
f 34 19 50 
f 9 20 51 
f 24 9 51 
f 38 24 51 
f 6 23 52 
f 31 6 52 
f 23 31 52 
f 7 18 53 
f 27 7 53 
f 18 27 53 
f 20 32 54 
f 46 8 54 
f 22 46 54 
f 12 26 55 
f 33 12 55 
f 25 45 55 
f 45 33 55 
f 46 25 55 
f 6 15 56 
f 35 6 56 
f 15 39 56 
f 39 35 56 
f 21 4 57 
f 4 29 57 
f 42 21 57 
f 29 42 57 
f 12 30 58 
f 30 17 58 
f 44 12 58 
f 17 44 58 
f 32 2 59 
f 2 40 59 
f 40 22 59 
f 54 32 59 
f 22 54 59 
f 26 38 60 
f 8 46 60 
f 55 26 60 
f 46 55 60 
f 2 3 61 
f 19 2 61 
f 15 19 61 
f 3 39 61 
f 39 15 61 
f 51 20 62 
f 38 51 62 
f 54 8 62 
f 20 54 62 
f 8 60 62 
f 60 38 62 
f 20 9 63 
f 32 20 63 
f 9 35 63 
f 39 32 63 
f 35 39 63 
f 30 1 64 
f 17 30 64 
f 1 43 64 
o convex_1
v -0.476221 0.136986 -0.586658
v -1.093915 -0.020982 -0.586658
v -1.093915 0.022054 -0.586658
v -0.849688 -0.222137 -0.026314
v -1.007675 0.266346 -0.026314
v -0.605540 -0.222137 -0.586658
v -1.208822 -0.121585 -0.026314
v -0.821021 0.266346 -0.586658
v -0.720447 0.036433 -0.026314
v -0.964595 -0.222137 -0.572288
v -1.194488 0.151365 -0.155649
v -0.461808 -0.107155 -0.572288
v -0.849688 0.237588 -0.026314
v -1.007675 -0.250895 -0.026314
v -1.050835 0.223209 -0.428581
v -1.165741 -0.135913 -0.313562
v -0.619953 0.237588 -0.557917
v -1.237647 0.036433 -0.026314
v -0.749194 -0.121585 -0.026314
v -1.194488 0.022054 -0.342358
v -0.835354 -0.250895 -0.586658
v -1.108249 -0.222137 -0.170020
v -1.050835 0.151365 -0.586658
v -0.433062 -0.035361 -0.572288
v -1.108249 0.237588 -0.026314
v -0.749194 0.136986 -0.026314
v -0.433062 0.036383 -0.572288
v -1.065090 -0.135913 -0.572288
v -1.122661 0.136986 -0.457323
v -0.935849 -0.250895 -0.040684
v -1.079502 0.237588 -0.284985
v -1.237647 -0.006603 -0.112537
v -0.950261 0.266346 -0.026314
v -0.950261 0.237588 -0.586658
v -0.749194 -0.250895 -0.557917
v -1.036422 -0.222137 -0.428581
v -0.749194 0.266346 -0.586658
v -0.504889 0.165744 -0.572288
v -0.979008 -0.250895 -0.284985
v -0.720447 -0.035361 -0.026314
v -0.835354 -0.222137 -0.040684
v -1.108249 -0.222137 -0.026314
v -0.935849 0.266346 -0.385470
v -1.208822 0.136986 -0.026314
v -1.151329 -0.006603 -0.471693
v -0.504889 -0.150292 -0.586658
v -1.165741 0.151365 -0.299410
v -1.194488 -0.135913 -0.170020
v -1.194488 -0.035361 -0.327987
v -0.476221 0.136986 -0.572288
v -1.223234 0.036433 -0.198761
v -1.122661 -0.135913 -0.442952
v -0.993263 -0.193379 -0.586658
v -0.605540 -0.222137 -0.572288
v -0.504889 -0.150292 -0.572288
v -1.108249 0.237588 -0.141279
v -0.749194 -0.135913 -0.040684
v -0.433062 -0.035361 -0.586658
v -0.619953 0.237588 -0.586658
v -1.180075 0.122657 -0.299410
v -1.151329 0.022054 -0.471693
f 124 93 125 
f 65 66 67 
f 66 65 70 
f 68 69 71 
f 65 67 72 
f 69 68 73 
f 69 73 77 
f 68 71 78 
f 71 69 82 
f 73 68 83 
f 66 70 85 
f 72 67 87 
f 83 76 88 
f 82 69 89 
f 77 73 90 
f 73 88 91 
f 90 73 91 
f 87 67 93 
f 79 87 93 
f 68 78 94 
f 78 85 94 
f 71 82 96 
f 72 69 97 
f 69 77 97 
f 77 81 97 
f 72 87 98 
f 87 79 98 
f 79 95 98 
f 85 70 99 
f 94 85 99 
f 74 85 100 
f 86 80 100 
f 65 72 101 
f 72 97 101 
f 97 81 101 
f 81 77 102 
f 77 90 102 
f 85 78 103 
f 78 86 103 
f 100 85 103 
f 86 100 103 
f 73 83 104 
f 88 73 104 
f 83 88 104 
f 83 68 105 
f 68 94 105 
f 78 71 106 
f 86 78 106 
f 71 86 106 
f 69 72 107 
f 72 98 107 
f 98 95 107 
f 75 82 108 
f 89 75 108 
f 82 89 108 
f 67 66 109 
f 66 92 109 
f 70 65 110 
f 79 93 111 
f 95 79 111 
f 86 71 112 
f 80 86 112 
f 71 96 112 
f 112 96 113 
f 84 109 113 
f 80 112 113 
f 91 65 114 
f 90 91 114 
f 65 102 114 
f 102 90 114 
f 82 75 115 
f 96 82 115 
f 113 96 115 
f 84 113 115 
f 100 80 116 
f 92 100 116 
f 109 92 116 
f 80 113 116 
f 113 109 116 
f 66 85 117 
f 85 74 117 
f 92 66 117 
f 74 100 117 
f 100 92 117 
f 99 70 118 
f 94 99 118 
f 105 94 118 
f 70 110 118 
f 118 110 119 
f 110 76 119 
f 105 118 119 
f 89 69 120 
f 75 89 120 
f 69 107 120 
f 107 95 120 
f 111 75 120 
f 95 111 120 
f 76 83 121 
f 83 105 121 
f 119 76 121 
f 105 119 121 
f 88 76 122 
f 65 91 122 
f 91 88 122 
f 110 65 122 
f 76 110 122 
f 65 101 123 
f 101 81 123 
f 102 65 123 
f 81 102 123 
f 75 111 124 
f 111 93 124 
f 115 75 124 
f 84 115 124 
f 93 67 125 
f 67 109 125 
f 109 84 125 
f 84 124 125 
o convex_2
v -1.208875 0.136986 0.088792
v -0.576727 0.050812 1.108744
v -0.576727 -0.035361 1.108744
v -0.720403 -0.020982 -0.026314
v -1.108283 -0.222137 0.189343
v -0.576727 0.266346 0.778204
v -0.576727 -0.250895 0.763760
v -0.979033 -0.006603 0.792537
v -0.950311 0.266346 -0.026202
v -0.950311 -0.250895 -0.026202
v -0.892866 0.237588 0.691986
v -0.878505 -0.222137 0.720762
v -1.237598 -0.020982 -0.026202
v -1.151366 -0.006603 0.490995
v -0.576727 0.165744 0.519772
v -0.749190 0.136986 -0.026202
v -1.079561 0.237588 0.304226
v -0.576727 -0.135913 0.490995
v -0.849783 -0.222137 -0.026202
v -0.734764 0.151365 0.979417
v -1.036413 0.151365 0.634433
v -0.591153 -0.135913 1.079968
v -1.122644 -0.135913 0.462330
v -0.591153 0.237588 0.964973
v -1.108283 0.237588 -0.026202
v -0.950311 -0.250895 0.390445
v -1.208875 -0.121585 -0.026202
v -0.935949 0.266346 0.404777
v -0.892866 -0.135913 0.835646
v -0.763551 -0.006603 1.007971
v -0.849783 0.237588 -0.026202
v -1.223237 -0.006603 0.232452
v -1.165727 0.136986 0.347447
v -0.605514 -0.222137 0.964973
v -0.749190 -0.121585 -0.026202
v -0.576727 -0.222137 0.620211
v -0.576727 0.022054 0.433665
v -0.576727 0.237588 0.634433
v -1.194514 -0.135913 0.189343
v -0.864144 0.151365 0.864422
v -1.065200 -0.236516 -0.026202
v -1.050838 -0.135913 0.620211
v -1.036413 -0.222137 0.447997
v -0.720403 -0.250895 0.749539
v -0.619875 0.266346 0.821313
v -1.208875 0.136986 -0.026202
v -0.720403 0.036433 -0.026314
v -0.734764 0.237588 0.864311
v -0.576727 0.136986 1.079968
v -0.806699 -0.135913 0.921864
v -1.079561 0.036433 0.634433
v -1.007690 0.266346 0.060016
v -0.878505 0.007726 0.907420
v -1.050838 0.223209 0.447997
v -0.950311 0.136986 0.778204
v -0.576727 -0.236516 0.921864
v -1.165727 -0.135913 0.333003
v -0.634237 0.022054 1.094300
v -1.122644 0.136986 0.476663
v -1.108283 0.237588 0.160567
v -1.237598 0.022054 0.117457
v -0.691681 -0.222137 0.907531
v -1.194514 0.022054 0.361779
v -1.007690 -0.250895 0.174899
f 130 166 189 
f 127 128 131 
f 131 128 132 
f 131 132 140 
f 140 132 143 
f 135 129 144 
f 132 135 144 
f 135 132 151 
f 138 129 152 
f 131 134 153 
f 142 136 153 
f 134 131 156 
f 129 143 160 
f 144 129 160 
f 144 160 161 
f 143 132 161 
f 132 144 161 
f 160 143 161 
f 143 129 162 
f 140 143 162 
f 131 140 163 
f 140 141 163 
f 156 131 163 
f 141 156 163 
f 152 130 164 
f 138 152 164 
f 157 138 164 
f 129 135 166 
f 130 152 166 
f 152 129 166 
f 139 148 167 
f 154 133 167 
f 137 154 167 
f 130 151 168 
f 151 137 168 
f 137 167 168 
f 167 148 168 
f 151 132 169 
f 137 151 169 
f 149 131 170 
f 131 153 170 
f 153 136 170 
f 126 150 171 
f 171 150 172 
f 129 138 172 
f 141 140 172 
f 150 134 172 
f 134 156 172 
f 156 141 172 
f 162 129 172 
f 140 162 172 
f 138 171 172 
f 145 149 173 
f 136 165 173 
f 165 145 173 
f 149 170 173 
f 170 136 173 
f 127 131 174 
f 131 149 174 
f 149 145 174 
f 154 137 175 
f 147 155 175 
f 167 133 176 
f 139 167 176 
f 134 150 177 
f 153 134 177 
f 142 153 177 
f 133 154 178 
f 155 145 178 
f 145 165 178 
f 154 175 178 
f 175 155 178 
f 136 142 179 
f 146 136 179 
f 142 158 179 
f 136 146 180 
f 165 136 180 
f 176 133 180 
f 146 176 180 
f 133 178 180 
f 178 165 180 
f 132 128 181 
f 128 147 181 
f 147 159 181 
f 169 132 181 
f 148 139 182 
f 164 130 182 
f 157 164 182 
f 130 168 182 
f 168 148 182 
f 128 127 183 
f 147 128 183 
f 145 155 183 
f 155 147 183 
f 127 174 183 
f 174 145 183 
f 176 146 184 
f 139 176 184 
f 146 179 184 
f 179 158 184 
f 150 126 185 
f 126 158 185 
f 158 142 185 
f 177 150 185 
f 142 177 185 
f 138 157 186 
f 158 126 186 
f 126 171 186 
f 171 138 186 
f 159 147 187 
f 137 169 187 
f 175 137 187 
f 147 175 187 
f 181 159 187 
f 169 181 187 
f 182 139 188 
f 157 182 188 
f 139 184 188 
f 184 158 188 
f 186 157 188 
f 158 186 188 
f 151 130 189 
f 135 151 189 
f 166 135 189 
o convex_3
v -0.562257 -0.222137 0.993734
v 0.026660 0.036484 1.266711
v 0.012249 0.036433 1.266790
v -0.576609 0.165744 0.534178
v 0.026660 -0.222137 0.878746
v -0.576609 0.180123 1.051228
v 0.026660 0.237588 0.878904
v -0.576609 -0.107205 0.490939
v 0.026660 0.036484 0.749661
v -0.160156 -0.135913 1.223551
v -0.160156 0.266346 1.022481
v -0.576609 0.266346 0.778329
v -0.576609 -0.222137 0.634674
v 0.026660 -0.250895 1.036894
v -0.576609 -0.020982 1.123055
v 0.026660 0.237588 1.137390
v -0.289327 0.122657 1.209217
v -0.562257 0.036433 0.462192
v 0.026660 -0.121534 0.778329
v -0.404263 0.237588 1.065562
v 0.026660 -0.222137 1.137468
v -0.576609 -0.250895 0.864491
v 0.026660 0.136986 0.778329
v -0.274974 -0.006603 1.238043
v -0.432968 -0.135913 1.151724
v -0.289327 -0.222137 1.108643
v -0.547905 0.237588 0.649008
v 0.026660 0.266346 0.979400
v -0.145745 0.151365 1.223551
v -0.562257 -0.035361 0.462192
v 0.026660 -0.121534 1.237964
v -0.547905 -0.250895 0.778329
v -0.461732 0.022054 1.180471
v -0.576609 0.266346 0.850236
v -0.562257 0.136986 0.505431
v -0.562257 -0.150292 0.534178
v 0.026660 -0.250895 0.979400
v -0.102688 -0.006603 1.266790
v -0.461732 0.151365 1.137468
v -0.131392 0.237588 1.137468
v -0.576609 -0.135913 1.079975
v 0.026660 0.136986 1.237964
v -0.274974 -0.250895 1.008147
v 0.026660 -0.020982 0.749661
v -0.576609 0.237588 0.979400
v -0.576609 0.122657 1.094309
v -0.160156 -0.222137 1.137468
v -0.289327 0.223209 1.123055
v -0.303679 -0.135913 1.194805
v -0.188861 0.036433 1.252377
v -0.562257 -0.107205 0.490939
v -0.461732 -0.064068 1.166136
v -0.375500 0.266346 0.964987
v -0.562257 -0.222137 0.634674
v -0.418616 -0.222137 1.065562
v 0.026660 0.266346 1.036815
v -0.562257 0.165744 0.534178
v -0.562257 -0.135913 1.094309
v -0.289327 0.151365 1.194805
v -0.318031 -0.035361 1.223551
v -0.332384 0.022054 1.223551
v -0.576609 0.036433 0.462192
v -0.562257 0.079520 0.476605
f 207 251 252 
f 191 194 196 
f 195 193 197 
f 196 194 198 
f 193 195 201 
f 195 197 202 
f 194 191 203 
f 195 202 204 
f 191 196 205 
f 198 194 208 
f 203 191 210 
f 204 202 211 
f 196 198 212 
f 198 207 212 
f 193 201 216 
f 216 201 217 
f 201 200 217 
f 205 196 217 
f 196 216 217 
f 207 198 219 
f 210 191 220 
f 203 211 221 
f 211 202 221 
f 200 201 223 
f 201 195 223 
f 202 197 225 
f 194 203 226 
f 203 221 226 
f 191 192 227 
f 220 191 227 
f 199 220 227 
f 209 195 228 
f 222 206 228 
f 200 209 229 
f 211 190 230 
f 204 211 230 
f 192 191 231 
f 191 205 231 
f 218 192 231 
f 205 229 231 
f 229 218 231 
f 211 203 232 
f 198 208 233 
f 219 198 233 
f 208 219 233 
f 195 209 234 
f 223 195 234 
f 195 204 235 
f 204 222 235 
f 228 195 235 
f 222 228 235 
f 203 210 236 
f 220 199 236 
f 210 220 236 
f 232 203 236 
f 215 232 236 
f 209 228 237 
f 229 209 237 
f 218 229 237 
f 214 215 238 
f 236 199 238 
f 215 236 238 
f 192 218 239 
f 218 206 239 
f 227 192 239 
f 213 227 239 
f 208 194 240 
f 197 219 240 
f 219 208 240 
f 194 225 240 
f 225 197 240 
f 222 204 241 
f 214 238 241 
f 209 200 242 
f 200 223 242 
f 234 209 242 
f 223 234 242 
f 221 202 243 
f 225 194 243 
f 202 225 243 
f 194 226 243 
f 226 221 243 
f 190 211 244 
f 215 214 244 
f 211 232 244 
f 232 215 244 
f 217 200 245 
f 205 217 245 
f 200 229 245 
f 229 205 245 
f 196 212 246 
f 193 216 246 
f 216 196 246 
f 224 193 246 
f 212 224 246 
f 230 190 247 
f 204 230 247 
f 241 204 247 
f 214 241 247 
f 190 244 247 
f 244 214 247 
f 206 218 248 
f 228 206 248 
f 218 237 248 
f 237 228 248 
f 199 227 249 
f 227 213 249 
f 238 199 249 
f 222 241 249 
f 241 238 249 
f 206 222 250 
f 239 206 250 
f 213 239 250 
f 249 213 250 
f 222 249 250 
f 197 193 251 
f 219 197 251 
f 207 219 251 
f 193 224 251 
f 251 224 252 
f 212 207 252 
f 224 212 252 
o convex_4
v 0.184806 -0.049740 -1.233119
v 0.572698 0.022054 -0.486158
v 0.572698 -0.020982 -0.486158
v 0.026721 -0.020982 -0.730400
v 0.026721 0.266346 -1.017572
v 0.572698 0.223209 -1.003262
v 0.572698 -0.250895 -0.873949
v 0.026721 -0.250895 -0.960108
v 0.558268 0.237588 -0.658625
v 0.558268 -0.135913 -1.089421
v 0.026721 0.136986 -1.218734
v 0.026721 0.136986 -0.759169
v 0.558268 -0.193379 -0.615471
v 0.026721 -0.222137 -1.118190
v 0.486440 0.093899 -1.146885
v 0.026721 -0.121585 -0.759169
v 0.572698 0.266346 -0.859713
v 0.313979 0.237588 -1.089421
v 0.328408 -0.222137 -1.089421
v 0.026721 0.237588 -0.859713
v 0.558268 0.136986 -0.529312
v 0.026721 -0.121585 -1.218734
v 0.572698 -0.035361 -1.118190
v 0.342785 -0.135913 -1.175654
v 0.026721 -0.222137 -0.859713
v 0.572698 -0.236516 -0.716090
v 0.558268 -0.121585 -0.529312
v 0.313979 0.022054 -1.218734
v 0.328408 0.151365 -1.175654
v 0.026721 0.237588 -1.118190
v 0.572698 -0.222137 -0.988877
v 0.184806 -0.250895 -1.017572
v 0.026721 0.036433 -1.247578
v 0.026721 0.266346 -0.960108
v 0.558268 0.151365 -1.089421
v 0.184806 0.151365 -1.204349
v 0.572698 0.266346 -0.787864
v 0.199182 -0.135913 -1.204349
v 0.558268 0.022054 -0.486158
v 0.500763 -0.006603 -1.161270
v 0.026721 0.036433 -0.730400
v 0.558268 -0.020982 -0.486158
v 0.558268 -0.222137 -0.658625
v 0.543892 -0.250895 -0.787864
v 0.328408 0.266346 -0.974492
v 0.572698 0.165744 -0.558007
v 0.443365 0.237588 -1.046341
v 0.199182 -0.222137 -1.118190
v 0.127301 0.022054 -1.247578
v 0.472118 -0.135913 -1.132500
v 0.357108 -0.035361 -1.204349
v 0.170430 0.237588 -1.118190
v 0.572698 0.050812 -1.118190
v 0.400236 -0.250895 -0.960108
v 0.558268 0.165744 -0.558007
v 0.026721 -0.020982 -1.247578
v 0.457741 -0.222137 -1.046341
v 0.572698 -0.150292 -0.558007
v 0.500763 0.151365 -1.118190
v 0.026721 -0.250895 -1.017572
v 0.328408 0.122657 -1.189965
v 0.199182 0.108278 -1.218734
f 288 313 314 
f 254 255 258 
f 258 255 259 
f 256 257 260 
f 260 257 263 
f 257 256 264 
f 260 263 266 
f 256 260 268 
f 254 258 269 
f 257 264 272 
f 266 263 274 
f 258 259 275 
f 268 260 277 
f 259 255 278 
f 268 277 279 
f 263 257 282 
f 275 259 283 
f 262 275 283 
f 259 260 284 
f 274 263 285 
f 269 257 286 
f 257 272 286 
f 272 261 286 
f 254 269 289 
f 269 286 289 
f 286 261 289 
f 274 253 290 
f 255 254 291 
f 273 264 291 
f 254 273 291 
f 280 267 292 
f 264 256 293 
f 256 291 293 
f 291 264 293 
f 256 268 294 
f 279 255 294 
f 268 279 294 
f 255 291 294 
f 291 256 294 
f 277 260 295 
f 265 277 295 
f 278 295 296 
f 260 259 296 
f 259 278 296 
f 295 260 296 
f 257 269 297 
f 273 254 298 
f 254 289 298 
f 289 261 298 
f 269 258 299 
f 281 270 299 
f 297 269 299 
f 270 297 299 
f 266 274 300 
f 276 271 300 
f 284 266 300 
f 271 284 300 
f 274 290 300 
f 290 276 300 
f 280 253 301 
f 285 263 301 
f 275 262 302 
f 262 283 302 
f 292 275 302 
f 292 302 303 
f 253 280 303 
f 290 253 303 
f 276 290 303 
f 280 292 303 
f 302 276 303 
f 270 281 304 
f 282 257 304 
f 263 282 304 
f 281 288 304 
f 288 263 304 
f 257 297 304 
f 297 270 304 
f 258 275 305 
f 287 258 305 
f 267 287 305 
f 275 292 305 
f 292 267 305 
f 259 284 306 
f 284 271 306 
f 261 272 307 
f 272 264 307 
f 264 273 307 
f 298 261 307 
f 273 298 307 
f 253 274 308 
f 274 285 308 
f 301 253 308 
f 285 301 308 
f 271 276 309 
f 283 259 309 
f 276 302 309 
f 302 283 309 
f 259 306 309 
f 306 271 309 
f 277 265 310 
f 278 255 310 
f 255 279 310 
f 279 277 310 
f 265 295 310 
f 295 278 310 
f 258 287 311 
f 287 267 311 
f 299 258 311 
f 281 299 311 
f 260 266 312 
f 284 260 312 
f 266 284 312 
f 267 280 313 
f 288 281 313 
f 311 267 313 
f 281 311 313 
f 263 288 314 
f 280 301 314 
f 301 263 314 
f 313 280 314 
o convex_5
v 0.572737 -0.020982 -1.118268
v 1.276652 0.036433 0.002422
v 1.276652 -0.020982 0.002422
v 0.759552 0.036433 0.002422
v 0.587139 0.266346 -0.845116
v 0.572737 -0.250895 -0.773372
v 1.104308 -0.006603 -0.644037
v 1.046837 -0.250895 0.002422
v 1.046837 0.266346 0.002422
v 1.003700 -0.222137 -0.572184
v 1.018102 0.208830 -0.600925
v 0.572737 0.237588 -0.643927
v 0.788219 0.136986 -0.960191
v 0.759552 -0.135913 -0.974561
v 0.788219 -0.121585 0.002422
v 0.572737 -0.020982 -0.471918
v 1.204848 -0.135913 -0.313841
v 1.204848 0.151365 -0.299361
v 0.888758 0.237588 0.002422
v 0.601473 -0.222137 -0.974561
v 0.888758 -0.222137 0.002422
v 0.572737 0.237588 -0.974561
v 1.147377 0.237588 -0.141394
v 0.931827 0.237588 -0.672778
v 1.147377 -0.222137 0.002422
v 1.233583 0.022054 -0.342473
v 0.917562 0.007726 -0.888337
v 1.003700 -0.135913 -0.730261
v 1.075573 0.136986 -0.629666
v 0.572737 -0.222137 -0.643927
v 0.845689 -0.250895 -0.629666
v 0.974964 0.266346 -0.385585
v 0.788219 0.136986 0.002422
v 0.572737 0.136986 -0.514921
v 1.247917 0.136986 0.002422
v 1.118642 -0.222137 -0.299361
v 0.587139 0.151365 -1.075046
v 0.673346 0.022054 -1.075046
v 0.917562 -0.222137 -0.701519
v 1.247917 -0.121585 -0.083911
v 1.104308 -0.135913 -0.572184
v 0.989367 0.136986 -0.759002
v 1.075573 0.237588 -0.414216
v 0.773885 0.237588 -0.845116
v 0.572737 0.266346 -0.787743
v 0.572737 -0.135913 -1.075046
v 0.572737 -0.121585 -0.514921
v 1.190446 0.022054 -0.471699
v 1.262319 0.022054 -0.213247
v 0.989367 -0.250895 -0.371214
v 0.759552 -0.020982 0.002422
v 0.989367 0.266346 0.002422
v 0.989367 -0.250895 0.002422
v 1.147377 0.151365 -0.471699
v 0.831356 0.266346 -0.629666
v 1.147377 0.237588 0.002422
v 1.147377 -0.222137 -0.170025
v 0.572737 -0.250895 -0.859596
v 0.730817 -0.222137 -0.888337
v 0.874425 -0.135913 -0.873967
v 0.802621 -0.006603 -0.988822
v 0.630208 -0.135913 -1.060785
v 1.018102 0.022054 -0.773372
v 1.233583 0.151365 -0.155765
f 370 349 378 
f 317 316 318 
f 317 318 322 
f 318 316 323 
f 315 320 326 
f 322 318 329 
f 326 320 330 
f 318 323 333 
f 322 329 335 
f 315 326 336 
f 317 322 339 
f 330 320 344 
f 320 335 344 
f 335 329 344 
f 322 320 345 
f 319 323 346 
f 323 337 346 
f 318 333 347 
f 333 326 347 
f 326 330 348 
f 330 318 348 
f 318 347 348 
f 347 326 348 
f 323 316 349 
f 315 336 351 
f 315 351 352 
f 351 327 352 
f 342 324 353 
f 324 345 353 
f 317 339 354 
f 324 342 355 
f 342 321 355 
f 350 324 355 
f 331 350 355 
f 338 325 356 
f 341 327 356 
f 325 343 356 
f 337 332 357 
f 325 338 357 
f 346 337 357 
f 338 346 357 
f 336 319 358 
f 327 351 358 
f 351 336 358 
f 338 356 358 
f 356 327 358 
f 323 319 359 
f 326 333 359 
f 319 336 359 
f 336 326 359 
f 320 315 360 
f 330 344 361 
f 344 329 361 
f 340 331 362 
f 321 343 362 
f 331 355 362 
f 355 321 362 
f 316 317 363 
f 331 340 363 
f 340 332 363 
f 317 354 363 
f 354 331 363 
f 322 345 364 
f 345 324 364 
f 324 350 364 
f 329 318 365 
f 318 330 365 
f 361 329 365 
f 330 361 365 
f 333 323 366 
f 323 359 366 
f 359 333 366 
f 320 322 367 
f 335 320 367 
f 322 335 367 
f 332 340 368 
f 343 325 368 
f 357 332 368 
f 325 357 368 
f 340 362 368 
f 362 343 368 
f 319 346 369 
f 346 338 369 
f 358 319 369 
f 338 358 369 
f 337 323 370 
f 323 349 370 
f 339 322 371 
f 350 331 371 
f 354 339 371 
f 331 354 371 
f 322 364 371 
f 364 350 371 
f 345 320 372 
f 320 360 372 
f 360 334 372 
f 334 328 373 
f 353 345 373 
f 345 372 373 
f 372 334 373 
f 341 342 374 
f 342 353 374 
f 373 328 374 
f 353 373 374 
f 327 341 375 
f 352 327 375 
f 374 328 375 
f 341 374 375 
f 328 334 376 
f 315 352 376 
f 360 315 376 
f 334 360 376 
f 375 328 376 
f 352 375 376 
f 342 341 377 
f 321 342 377 
f 343 321 377 
f 341 356 377 
f 356 343 377 
f 332 337 378 
f 349 316 378 
f 316 363 378 
f 363 332 378 
f 337 370 378 
o convex_6
v 0.026721 -0.078447 1.252377
v 0.615801 -0.006603 1.123055
v 0.615744 0.122657 1.094309
v 0.601386 -0.035361 0.462192
v 0.026721 0.266346 0.979400
v 0.026721 -0.236516 0.921906
v 0.615801 -0.250895 0.864491
v 0.615744 0.237588 0.649086
v 0.026721 0.093899 0.763995
v 0.170416 0.237588 1.137468
v 0.271037 -0.222137 1.123055
v 0.615801 -0.222137 0.634674
v 0.615744 0.266346 0.850157
v 0.026721 -0.121585 0.778329
v 0.026721 0.136986 1.238043
v 0.601386 0.136986 0.505352
v 0.314169 -0.006603 1.238043
v 0.601386 -0.135913 1.094309
v 0.026721 0.237588 0.878746
v 0.026721 -0.250895 1.036894
v 0.500765 0.151365 1.137468
v 0.601386 -0.150292 0.534178
v 0.342712 -0.135913 1.194805
v 0.615744 0.237588 0.979400
v 0.026721 -0.222137 1.137468
v 0.227905 0.136986 1.223551
v 0.026721 -0.020982 0.749582
v 0.615744 0.036484 0.462271
v 0.615801 -0.222137 0.979400
v 0.026721 -0.222137 0.878746
v 0.586970 -0.250895 0.778329
v 0.141700 -0.006603 1.266790
v 0.026721 0.266346 1.036894
v 0.199190 -0.135913 1.223551
v 0.500765 0.022054 1.180471
v 0.026721 0.136986 0.778329
v 0.314169 0.237588 1.108643
v 0.601386 0.036484 0.462271
v 0.601386 0.266346 0.778329
v 0.601386 -0.107205 0.490939
v 0.457748 -0.222137 1.065562
v 0.314169 -0.250895 1.008147
v 0.371485 0.266346 0.979400
v 0.026721 0.237588 1.137468
v 0.586970 0.237588 0.649008
v 0.500765 -0.064068 1.166136
v 0.357127 0.136986 1.194805
v 0.601386 0.165744 0.534099
v 0.026721 0.036433 1.266790
v 0.026721 -0.250895 0.979400
v 0.026721 -0.121585 1.238043
v 0.026721 0.036433 0.749582
v 0.601386 -0.222137 0.634674
v 0.314169 0.022054 1.238043
v 0.443333 0.237588 1.065562
v 0.199190 -0.222137 1.137468
v 0.184774 0.151365 1.223551
v 0.170416 0.065191 1.252377
v 0.615801 -0.107205 0.490939
v 0.472106 -0.135913 1.151724
v 0.357127 -0.035361 1.223551
v 0.615744 0.180072 1.051228
v 0.601386 0.079570 0.476684
f 416 414 441 
f 379 383 384 
f 384 383 387 
f 380 385 390 
f 380 386 391 
f 384 387 392 
f 383 379 393 
f 387 383 397 
f 379 384 398 
f 380 391 402 
f 379 398 403 
f 382 392 405 
f 392 387 405 
f 394 386 406 
f 385 380 407 
f 380 396 407 
f 384 392 408 
f 390 385 409 
f 385 398 409 
f 391 383 411 
f 383 393 411 
f 410 379 412 
f 380 381 413 
f 381 399 413 
f 387 397 414 
f 397 394 414 
f 406 382 416 
f 387 414 416 
f 391 386 417 
f 383 391 417 
f 392 382 418 
f 408 392 418 
f 400 408 418 
f 401 389 419 
f 385 407 419 
f 407 396 419 
f 398 385 420 
f 385 419 420 
f 419 389 420 
f 402 391 421 
f 391 411 421 
f 411 388 421 
f 388 415 421 
f 393 388 422 
f 388 411 422 
f 411 393 422 
f 397 383 423 
f 383 417 423 
f 417 386 423 
f 396 380 424 
f 380 413 424 
f 413 399 425 
f 399 415 425 
f 386 394 426 
f 394 397 426 
f 423 386 426 
f 397 423 426 
f 393 379 427 
f 379 410 427 
f 398 384 428 
f 409 398 428 
f 379 403 429 
f 412 379 429 
f 382 405 430 
f 405 387 430 
f 416 382 430 
f 387 416 430 
f 400 390 431 
f 384 408 431 
f 408 400 431 
f 390 409 431 
f 428 384 431 
f 409 428 431 
f 410 395 432 
f 395 413 432 
f 425 404 432 
f 413 425 432 
f 415 399 433 
f 402 421 433 
f 421 415 433 
f 389 401 434 
f 403 398 434 
f 401 412 434 
f 398 420 434 
f 420 389 434 
f 429 403 434 
f 412 429 434 
f 388 393 435 
f 415 388 435 
f 404 425 435 
f 425 415 435 
f 393 427 436 
f 427 410 436 
f 410 432 436 
f 432 404 436 
f 435 393 436 
f 404 435 436 
f 386 380 437 
f 380 390 437 
f 390 400 437 
f 406 386 437 
f 382 406 437 
f 418 382 437 
f 400 418 437 
f 401 419 438 
f 419 396 438 
f 396 424 438 
f 438 424 439 
f 395 410 439 
f 412 401 439 
f 410 412 439 
f 413 395 439 
f 424 413 439 
f 401 438 439 
f 381 380 440 
f 399 381 440 
f 380 402 440 
f 433 399 440 
f 402 433 440 
f 394 406 441 
f 414 394 441 
f 406 416 441 
o convex_7
v 0.615801 0.136986 1.079938
v 1.276693 0.007726 0.131832
v 1.276693 -0.006603 0.131832
v 0.759547 -0.020982 0.002422
v 0.615801 -0.250895 0.850032
v 0.989332 0.266346 0.002422
v 1.046843 -0.250895 0.002422
v 1.003693 -0.135913 0.749428
v 1.061204 0.165744 0.634529
v 0.615801 0.266346 0.778234
v 1.247970 0.136986 0.002422
v 0.615801 -0.135913 0.490932
v 1.118651 -0.222137 0.318638
v 0.802631 -0.006603 1.008031
v 0.888801 -0.222137 0.002422
v 1.118651 0.237588 0.304235
v 0.788270 0.136986 0.002422
v 0.630228 -0.135913 1.079938
v 1.190459 0.022054 0.490932
v 0.615801 0.122657 0.476637
v 0.773908 0.237588 0.864435
v 1.247970 -0.121585 0.002422
v 0.917524 -0.222137 0.720622
v 1.204820 -0.135913 0.332932
v 0.974970 0.108278 0.806931
v 1.204820 0.151365 0.318638
v 0.917524 0.266346 0.519738
v 0.888801 0.237588 0.002422
v 1.018055 0.022054 0.792528
v 0.903162 -0.250895 0.562730
v 0.615801 -0.222137 0.620234
v 0.788270 -0.121585 0.002422
v 0.615801 0.237588 0.634529
v 1.147374 0.237588 0.002422
v 1.089928 -0.135913 0.620126
v 0.874439 0.151365 0.893132
v 0.931950 0.237588 0.691924
v 0.730759 -0.222137 0.907535
v 0.845651 -0.135913 0.921938
v 0.630228 0.237588 0.964931
v 1.147374 -0.222137 0.002422
v 0.644589 0.036433 1.108744
v 0.615801 -0.006603 0.433537
v 0.615801 -0.250895 0.763722
v 1.032481 0.266346 0.189336
v 1.233543 -0.135913 0.189336
v 0.773908 0.151365 0.979225
v 0.615801 -0.207758 0.993737
v 1.233543 0.151365 0.174933
v 1.247970 0.022054 0.304235
v 0.917524 -0.006603 0.907535
v 1.104289 0.108278 0.620126
v 0.989332 -0.250895 0.002422
v 1.075566 -0.222137 0.447831
v 1.104289 -0.006603 0.663226
v 0.759547 0.036433 0.002422
v 0.658951 0.266346 0.821226
v 1.276693 0.036433 0.002422
v 1.075566 0.237588 0.433428
v 1.147374 0.151365 0.490932
v 1.032481 -0.250895 0.246840
v 1.176097 -0.064068 0.490932
v 1.233543 -0.035361 0.347335
v 1.147374 -0.222137 0.189336
f 454 502 505 
f 445 447 448 
f 446 442 451 
f 448 447 452 
f 446 451 453 
f 445 448 456 
f 447 445 458 
f 453 451 461 
f 448 452 463 
f 447 451 468 
f 451 447 469 
f 447 458 469 
f 446 448 471 
f 446 453 472 
f 456 472 473 
f 453 445 473 
f 445 456 473 
f 472 453 473 
f 461 451 474 
f 458 461 474 
f 451 469 474 
f 469 458 474 
f 452 447 475 
f 449 464 476 
f 466 450 477 
f 462 477 478 
f 477 450 478 
f 446 471 479 
f 471 464 479 
f 455 459 480 
f 464 449 480 
f 459 479 480 
f 479 464 480 
f 451 442 481 
f 448 463 482 
f 442 459 483 
f 459 455 483 
f 445 453 484 
f 453 461 484 
f 448 446 485 
f 446 472 485 
f 472 456 485 
f 447 468 486 
f 475 447 486 
f 457 475 486 
f 463 444 487 
f 455 477 488 
f 477 462 488 
f 481 442 488 
f 462 481 488 
f 442 483 488 
f 483 455 488 
f 442 446 489 
f 459 442 489 
f 446 479 489 
f 479 459 489 
f 457 467 490 
f 452 475 490 
f 475 457 490 
f 444 443 491 
f 467 460 491 
f 443 490 491 
f 490 467 491 
f 449 470 492 
f 470 466 492 
f 477 455 492 
f 466 477 492 
f 455 480 492 
f 480 449 492 
f 450 466 493 
f 466 470 493 
f 456 448 494 
f 448 485 494 
f 485 456 494 
f 454 465 495 
f 464 471 495 
f 476 464 495 
f 465 476 495 
f 470 449 496 
f 449 476 496 
f 460 493 496 
f 493 470 496 
f 458 445 497 
f 461 458 497 
f 445 484 497 
f 484 461 497 
f 468 451 498 
f 478 468 498 
f 462 478 498 
f 451 481 498 
f 481 462 498 
f 443 444 499 
f 444 463 499 
f 463 452 499 
f 490 443 499 
f 452 490 499 
f 478 450 500 
f 468 478 500 
f 486 468 500 
f 457 486 500 
f 467 457 501 
f 460 467 501 
f 450 493 501 
f 493 460 501 
f 500 450 501 
f 457 500 501 
f 471 448 502 
f 454 495 502 
f 495 471 502 
f 476 465 503 
f 496 476 503 
f 460 496 503 
f 487 444 504 
f 465 487 504 
f 444 491 504 
f 491 460 504 
f 503 465 504 
f 460 503 504 
f 465 454 505 
f 448 482 505 
f 482 463 505 
f 463 487 505 
f 487 465 505 
f 502 448 505 
