o torus_vhacd32_1
v -1.062995 0.006289 -0.615395
v -1.033988 0.131289 -0.598648
v -0.954742 0.222796 -0.552895
v -0.846488 0.256289 -0.490395
v -0.738235 0.222796 -0.427895
v -0.658988 0.131289 -0.382141
v -0.629982 0.006289 -0.365395
v -0.658988 -0.118711 -0.382141
v -0.738235 -0.210217 -0.427895
v -0.846488 -0.243711 -0.490395
v -0.954742 -0.210217 -0.552895
v -1.033988 -0.118711 -0.598648
v -1.135312 0.006289 -0.468749
v -1.104368 0.131289 -0.455931
v -1.019827 0.222796 -0.420913
v -0.904343 0.256289 -0.373078
v -0.904343 -0.243711 -0.373078
v -1.019827 -0.210217 -0.420913
v -1.104368 -0.118711 -0.455931
v -1.187871 0.006289 -0.313918
v -1.155518 0.131289 -0.305249
v -1.067130 0.222796 -0.281566
v -0.946389 0.256289 -0.249213
v -0.946389 -0.243711 -0.249213
v -1.067130 -0.210217 -0.281566
v -1.155518 -0.118711 -0.305249
v -1.219769 0.006289 -0.153552
v -1.186562 0.131289 -0.149180
v -1.095839 0.222796 -0.137236
v -0.971908 0.256289 -0.120921
v -0.847977 0.222796 -0.104605
v -0.757254 0.131289 -0.092661
v -0.724047 0.006289 -0.088289
v -0.757254 -0.118711 -0.092661
v -0.847977 -0.210217 -0.104605
v -0.971908 -0.243711 -0.120921
v -1.095839 -0.210217 -0.137236
v -1.186562 -0.118711 -0.149180
f 34 8 35
f 34 37 35
f 9 35 10
f 9 8 35
f 9 8 7
f 12 11 10
f 36 35 10
f 36 37 35
f 38 37 26
f 38 20 27
f 38 20 26
f 2 3 4
f 2 12 1
f 22 29 21
f 22 30 29
f 28 29 21
f 28 20 27
f 28 20 21
f 28 38 27
f 19 12 11
f 19 18 11
f 19 20 26
f 19 13 20
f 19 13 1
f 19 12 1
f 25 36 37
f 25 37 26
f 25 19 26
f 25 19 18
f 33 8 7
f 33 34 8
f 33 29 37
f 33 34 37
f 33 32 29
f 6 5 7
f 6 33 7
f 6 33 32
f 31 6 5
f 31 6 32
f 31 5 4
f 31 30 4
f 31 32 29
f 31 30 29
f 14 2 3
f 14 22 21
f 14 20 21
f 14 13 20
f 14 13 1
f 14 2 1
f 16 3 4
f 17 25 18
f 17 11 10
f 17 18 11
f 15 14 3
f 15 14 22
f 15 16 3
f 15 16 22
f 23 22 30
f 23 16 22
f 24 25 36
f 24 17 25
f 5 4 10
f 5 9 7
f 5 9 10
f 2 4 10
f 2 12 10
f 28 29 37
f 28 38 37
f 23 16 4
f 23 30 4
f 24 17 10
f 24 36 10
