o torus_vhacd32_14
v 1.258843 0.006289 -0.153552
v 1.225636 0.131289 -0.149180
v 1.134912 0.222796 -0.137236
v 1.010982 0.256289 -0.120920
v 0.887051 0.222796 -0.104605
v 0.796328 0.131289 -0.092661
v 0.763121 0.006289 -0.088289
v 0.796328 -0.118711 -0.092661
v 0.887051 -0.210217 -0.104605
v 1.010982 -0.243711 -0.120920
v 1.134912 -0.210217 -0.137236
v 1.225636 -0.118711 -0.149180
v 1.226944 0.006289 -0.313918
v 1.194592 0.131289 -0.305249
v 1.106204 0.222796 -0.281566
v 0.985463 0.256289 -0.249213
v 0.985463 -0.243711 -0.249213
v 1.106204 -0.210217 -0.281566
v 1.194592 -0.118711 -0.305249
v 1.174387 0.006289 -0.468749
v 1.143442 0.131289 -0.455931
v 1.058902 0.222796 -0.420913
v 0.943417 0.256289 -0.373078
v 0.943417 -0.243711 -0.373078
v 1.058902 -0.210217 -0.420913
v 1.143442 -0.118711 -0.455931
v 1.102069 0.006289 -0.615394
v 1.073062 0.131289 -0.598648
v 0.993815 0.222796 -0.552894
v 0.885562 0.256289 -0.490394
v 0.777309 0.222796 -0.427894
v 0.698062 0.131289 -0.382141
v 0.669056 0.006289 -0.365394
v 0.698062 -0.118711 -0.382141
v 0.777309 -0.210217 -0.427894
v 0.885562 -0.243711 -0.490394
v 0.993815 -0.210217 -0.552894
v 1.073062 -0.118711 -0.598648
f 4 7 10
f 4 5 30
f 31 5 30
f 34 7 33
f 12 19 1
f 38 20 27
f 38 34 36
f 6 4 5
f 6 4 7
f 35 34 36
f 8 7 10
f 8 34 7
f 32 34 33
f 32 7 33
f 32 6 7
f 32 31 5
f 32 6 5
f 32 31 30
f 11 12 10
f 13 14 1
f 13 20 14
f 13 19 1
f 13 20 19
f 26 20 19
f 26 38 20
f 28 20 27
f 28 38 27
f 28 29 30
f 28 32 30
f 23 29 30
f 2 3 4
f 2 12 1
f 2 14 1
f 9 8 10
f 9 36 10
f 9 35 36
f 9 35 34
f 9 8 34
f 37 38 36
f 37 24 36
f 21 20 14
f 21 28 20
f 15 16 23
f 15 2 14
f 15 2 3
f 15 16 4
f 15 3 4
f 18 17 24
f 18 17 10
f 18 11 10
f 18 12 19
f 18 11 12
f 22 23 29
f 22 15 23
f 22 28 29
f 22 21 28
f 22 21 14
f 22 15 14
f 25 37 24
f 25 18 24
f 25 26 38
f 25 37 38
f 25 26 19
f 25 18 19
f 28 32 34
f 28 38 34
f 2 12 10
f 2 4 10
f 17 24 36
f 17 36 10
f 16 23 30
f 16 4 30
