o torus_vhacd64_26
v 1.102069 0.006289 -0.615394
v 1.073062 0.131289 -0.598648
v 0.993815 0.222796 -0.552894
v 0.885562 0.256289 -0.490394
v 0.777309 0.222796 -0.427894
v 0.698062 0.131289 -0.382141
v 0.669056 0.006289 -0.365394
v 0.698062 -0.118711 -0.382141
v 0.777309 -0.210217 -0.427894
v 0.885562 -0.243711 -0.490394
v 0.993815 -0.210217 -0.552894
v 1.073062 -0.118711 -0.598648
v 1.011229 0.006289 -0.751346
v 0.984656 0.131289 -0.730956
v 0.912059 0.222796 -0.675251
v 0.812890 0.256289 -0.599156
v 0.713721 0.222796 -0.523061
v 0.641124 0.131289 -0.467355
v 0.614552 0.006289 -0.446965
v 0.641124 -0.118711 -0.467355
v 0.713721 -0.210217 -0.523061
v 0.812890 -0.243711 -0.599156
v 0.912059 -0.210217 -0.675251
v 0.984656 -0.118711 -0.730956
f 7 5 1
f 7 8 19
f 17 5 16
f 12 13 1
f 14 15 13
f 3 15 16
f 23 15 13
f 9 10 1
f 9 7 1
f 9 7 8
f 9 21 22
f 9 22 10
f 6 7 19
f 6 7 5
f 4 5 16
f 4 3 16
f 4 5 1
f 4 3 1
f 2 14 15
f 2 3 15
f 2 3 1
f 2 13 1
f 2 14 13
f 24 12 13
f 24 23 13
f 24 23 12
f 11 23 22
f 11 22 10
f 11 23 12
f 11 10 1
f 11 12 1
f 20 8 19
f 20 9 8
f 20 9 21
f 18 20 19
f 18 6 19
f 18 17 5
f 18 6 5
f 21 17 16
f 21 15 16
f 21 23 22
f 21 23 15
f 18 21 17
f 18 20 21
