o torus_vhacd32_16
v 1.269537 0.006289 0.009606
v 1.236043 0.131289 0.009606
v 1.144537 0.222796 0.009606
v 1.019537 0.256289 0.009606
v 1.019537 -0.243711 0.009606
v 1.144537 -0.210217 0.009606
v 1.236043 -0.118711 0.009606
v 1.258843 0.006289 -0.153552
v 1.225636 0.131289 -0.149180
v 1.134912 0.222796 -0.137236
v 1.010982 0.256289 -0.120920
v 0.887051 0.222796 -0.104605
v 0.796328 0.131289 -0.092661
v 0.763121 0.006289 -0.088289
v 0.796328 -0.118711 -0.092661
v 0.887051 -0.210217 -0.104605
v 1.010982 -0.243711 -0.120920
v 1.134912 -0.210217 -0.137236
v 1.225636 -0.118711 -0.149180
v 1.226944 0.006289 0.333129
v 1.194592 0.131289 0.324460
v 1.106204 0.222796 0.300777
v 0.985463 0.256289 0.268424
v 0.864722 0.222796 0.236072
v 0.776334 0.131289 0.212389
v 0.743981 0.006289 0.203720
v 0.776334 -0.118711 0.212389
v 0.864722 -0.210217 0.236072
v 0.985463 -0.243711 0.268424
v 1.106204 -0.210217 0.300777
v 1.194592 -0.118711 0.324460
v 1.258843 0.006289 0.172763
v 1.225636 0.131289 0.168392
v 1.134912 0.222796 0.156448
v 1.010982 0.256289 0.140132
v 1.010982 -0.243711 0.140132
v 1.134912 -0.210217 0.156448
v 1.225636 -0.118711 0.168392
f 22 30 20
f 27 25 26
f 36 30 29
f 8 16 12
f 8 19 1
f 8 9 1
f 8 10 12
f 8 10 9
f 8 18 19
f 8 18 16
f 38 32 1
f 33 22 34
f 33 32 1
f 24 22 25
f 24 25 12
f 28 27 30
f 28 30 29
f 28 16 29
f 28 27 16
f 15 27 16
f 15 27 26
f 15 14 26
f 17 18 16
f 17 16 29
f 7 19 1
f 7 38 1
f 6 7 38
f 6 36 5
f 6 17 5
f 6 17 18
f 6 18 19
f 6 7 19
f 31 30 20
f 31 38 30
f 31 32 20
f 31 38 32
f 21 32 20
f 21 33 32
f 21 22 20
f 21 33 22
f 2 9 1
f 2 33 1
f 35 22 34
f 13 15 14
f 13 25 12
f 13 25 26
f 13 14 26
f 37 38 30
f 37 6 38
f 37 36 30
f 37 6 36
f 3 33 34
f 3 2 33
f 3 35 34
f 3 10 9
f 3 2 9
f 23 24 12
f 23 24 22
f 23 35 22
f 11 23 12
f 11 10 12
f 11 3 10
f 4 3 35
f 4 11 3
f 27 22 30
f 27 22 25
f 17 36 29
f 17 36 5
f 13 15 16
f 13 16 12
f 4 11 23
f 4 23 35
