o torus_vhacd64_34
v 1.226944 0.006289 0.333129
v 1.194592 0.131289 0.324460
v 1.106204 0.222796 0.300777
v 0.985463 0.256289 0.268424
v 0.864722 0.222796 0.236072
v 0.776334 0.131289 0.212389
v 0.743981 0.006289 0.203720
v 0.776334 -0.118711 0.212389
v 0.864722 -0.210217 0.236072
v 0.985463 -0.243711 0.268424
v 1.106204 -0.210217 0.300777
v 1.194592 -0.118711 0.324460
v 1.258843 0.006289 0.172763
v 1.225636 0.131289 0.168392
v 1.134912 0.222796 0.156448
v 1.010982 0.256289 0.140132
v 0.887051 0.222796 0.123816
v 0.796328 0.131289 0.111872
v 0.763121 0.006289 0.107500
v 0.796328 -0.118711 0.111872
v 0.887051 -0.210217 0.123816
v 1.010982 -0.243711 0.140132
v 1.134912 -0.210217 0.156448
v 1.225636 -0.118711 0.168392
f 3 11 1
f 9 21 10
f 9 11 10
f 12 1 13
f 12 11 1
f 2 1 13
f 2 3 1
f 8 9 11
f 8 9 21
f 19 21 13
f 19 17 13
f 16 17 13
f 16 3 4
f 16 17 4
f 5 17 4
f 5 3 4
f 22 11 10
f 22 23 11
f 22 21 10
f 22 21 13
f 22 23 13
f 24 12 11
f 24 23 11
f 24 12 13
f 24 23 13
f 18 19 7
f 18 19 17
f 20 8 21
f 20 19 21
f 20 8 7
f 20 19 7
f 15 16 13
f 15 16 3
f 6 5 3
f 6 8 7
f 6 18 7
f 6 5 17
f 6 18 17
f 14 2 3
f 14 15 3
f 14 2 13
f 14 15 13
f 6 8 11
f 6 3 11
