o torus_capsule32_23
v 0.024146 0.077739 0.012802
v 0.026265 0.081703 0.009798
v 0.027681 0.084352 0.005303
v 0.028178 0.085282 0.000000
v 0.027681 0.084352 -0.005303
v 0.026265 0.081703 -0.009798
v 0.024146 0.077739 -0.012802
v 0.020999 0.060774 -0.011142
v 0.019389 0.057762 -0.006030
v 0.018823 0.056704 -0.000000
v 0.019389 0.057762 0.006030
v 0.020999 0.060774 0.011142
v 0.011973 0.074365 0.015757
v 0.013723 0.080136 0.014557
v 0.015207 0.085027 0.011142
v 0.016199 0.088296 0.006030
v 0.016547 0.089444 0.000000
v 0.016199 0.088296 -0.006030
v 0.015207 0.085027 -0.011142
v 0.013723 0.080136 -0.014557
v 0.011973 0.074365 -0.015757
v 0.022593 0.072775 0.013856
v 0.017397 0.073287 0.015757
v -0.002765 0.075272 0.015757
v -0.007961 0.075784 0.013856
v 0.017988 0.079287 0.014557
v -0.002174 0.081273 0.014557
v 0.027542 0.079595 0.007272
v 0.018489 0.084375 0.011142
v -0.001673 0.086361 0.011142
v -0.011485 0.083439 0.007272
v 0.018824 0.087774 0.006030
v -0.001338 0.089760 0.006030
v 0.018941 0.088968 0.000000
v -0.001221 0.090953 0.000000
v 0.018824 0.087774 -0.006030
v -0.001338 0.089760 -0.006030
v 0.027542 0.079595 -0.007272
v 0.018489 0.084375 -0.011142
v -0.001673 0.086361 -0.011142
v -0.011485 0.083439 -0.007272
v 0.017988 0.079287 -0.014557
v -0.002174 0.081273 -0.014557
v 0.022593 0.072775 -0.013856
v 0.017397 0.073287 -0.015757
v -0.002765 0.075272 -0.015757
v -0.007961 0.075784 -0.013856
v 0.022073 0.067498 -0.012802
v 0.016806 0.067286 -0.014557
v -0.003356 0.069271 -0.014557
v -0.008481 0.070507 -0.012802
v 0.022073 0.067498 0.012802
v 0.016806 0.067286 0.014557
v -0.003356 0.069271 0.014557
v -0.008481 0.070507 0.012802
v 0.002765 0.075272 0.015757
v 0.002174 0.081273 0.014557
v 0.001673 0.086361 0.011142
v 0.001338 0.089760 0.006030
v 0.001221 0.090953 0.000000
v 0.001338 0.089760 -0.006030
v 0.001673 0.086361 -0.011142
v 0.002174 0.081273 -0.014557
v 0.002765 0.075272 -0.015757
v -0.008516 0.080955 0.012802
v -0.009820 0.085257 0.009798
v -0.010692 0.088132 0.005303
v -0.010999 0.089141 0.000000
v -0.010692 0.088132 -0.005303
v -0.009820 0.085257 -0.009798
v -0.008516 0.080955 -0.012802
v -0.008739 0.063703 -0.011142
v -0.007747 0.060435 -0.006030
v -0.007399 0.059287 -0.000000
v -0.007747 0.060435 0.006030
v -0.008739 0.063703 0.011142
f 9 74 10
f 11 74 10
f 11 9 10
f 76 11 12
f 76 74 72
f 13 26 23
f 22 53 23
f 29 26 15
f 29 2 26
f 73 74 72
f 73 9 72
f 73 9 74
f 8 9 72
f 8 49 48
f 38 28 4
f 38 8 48
f 50 8 72
f 50 8 49
f 50 47 46
f 43 40 70
f 75 11 74
f 75 76 74
f 75 76 11
f 55 76 31
f 55 25 31
f 54 53 12
f 54 76 12
f 54 55 76
f 54 55 25
f 58 57 15
f 65 25 31
f 52 28 12
f 52 28 22
f 52 53 12
f 52 22 53
f 1 28 2
f 1 28 22
f 1 2 26
f 1 26 23
f 1 22 23
f 3 28 4
f 3 28 2
f 3 29 2
f 5 38 4
f 5 38 6
f 5 36 4
f 5 36 39
f 5 6 39
f 44 49 48
f 44 38 48
f 45 44 49
f 7 45 44
f 7 38 6
f 7 44 38
f 51 41 72
f 51 47 41
f 51 50 72
f 51 50 47
f 71 47 46
f 71 43 46
f 71 43 70
f 71 41 70
f 71 47 41
f 18 61 17
f 60 61 17
f 24 54 25
f 24 65 25
f 24 65 27
f 14 26 15
f 14 57 15
f 14 13 26
f 66 65 31
f 66 30 27
f 66 65 27
f 32 29 15
f 32 16 15
f 32 3 29
f 32 3 4
f 19 18 61
f 19 36 39
f 19 18 36
f 42 7 45
f 42 19 39
f 42 45 21
f 42 6 39
f 42 7 6
f 59 16 17
f 59 60 17
f 59 58 15
f 59 16 15
f 67 30 33
f 67 66 30
f 67 66 31
f 68 67 33
f 68 67 31
f 68 41 31
f 56 14 13
f 56 14 57
f 34 16 17
f 34 32 16
f 34 32 4
f 34 36 4
f 34 18 36
f 34 18 17
f 62 19 63
f 62 19 61
f 20 42 21
f 20 64 21
f 20 63 64
f 20 19 63
f 20 42 19
f 35 68 37
f 35 68 33
f 69 41 70
f 69 68 41
f 69 68 37
f 69 40 37
f 69 40 70
f 76 41 72
f 76 41 31
f 8 11 9
f 8 11 12
f 38 8 12
f 38 28 12
f 45 50 46
f 45 50 49
f 64 45 46
f 64 45 21
f 63 64 46
f 63 43 46
f 24 54 53
f 24 53 23
f 30 58 57
f 30 57 27
f 59 30 58
f 59 30 33
f 56 24 23
f 56 13 23
f 56 57 27
f 56 24 27
f 62 63 43
f 62 43 40
f 62 40 37
f 62 61 37
f 35 61 37
f 35 60 61
f 35 59 33
f 35 59 60
