o torus_vhacd64_4
v -1.062995 0.006289 -0.615395
v -1.033988 0.131289 -0.598648
v -0.954742 0.222796 -0.552895
v -0.846488 0.256289 -0.490395
v -0.738235 0.222796 -0.427895
v -0.658988 0.131289 -0.382141
v -0.629982 0.006289 -0.365395
v -0.658988 -0.118711 -0.382141
v -0.738235 -0.210217 -0.427895
v -0.846488 -0.243711 -0.490395
v -0.954742 -0.210217 -0.552895
v -1.033988 -0.118711 -0.598648
v -1.135312 0.006289 -0.468749
v -1.104368 0.131289 -0.455931
v -1.019827 0.222796 -0.420913
v -0.904343 0.256289 -0.373078
v -0.788858 0.222796 -0.325242
v -0.704317 0.131289 -0.290224
v -0.673373 0.006289 -0.277407
v -0.704317 -0.118711 -0.290224
v -0.788858 -0.210217 -0.325242
v -0.904343 -0.243711 -0.373078
v -1.019827 -0.210217 -0.420913
v -1.104368 -0.118711 -0.455931
f 2 3 4
f 12 2 1
f 12 11 10
f 20 8 21
f 9 21 10
f 9 8 21
f 9 8 7
f 5 17 4
f 16 3 4
f 16 17 4
f 22 11 10
f 22 23 11
f 22 21 10
f 22 23 21
f 15 16 17
f 15 16 3
f 24 23 11
f 24 12 11
f 24 1 13
f 24 12 1
f 24 23 21
f 14 15 17
f 14 24 13
f 14 1 13
f 14 2 1
f 14 2 3
f 14 15 3
f 19 18 20
f 19 8 7
f 19 20 8
f 6 5 7
f 6 19 7
f 6 19 18
f 6 18 17
f 6 5 17
f 12 2 4
f 12 4 10
f 5 4 10
f 5 9 7
f 5 9 10
f 18 20 21
f 18 17 21
f 14 17 21
f 14 24 21
