o torus_vhacd32_21
v 0.343060 0.006289 1.217013
v 0.334391 0.131289 1.184661
v 0.310708 0.222796 1.096272
v 0.278356 0.256289 0.975532
v 0.246003 0.222796 0.854791
v 0.222320 0.131289 0.766403
v 0.213651 0.006289 0.734050
v 0.222320 -0.118711 0.766403
v 0.246003 -0.210217 0.854791
v 0.278356 -0.243711 0.975532
v 0.310708 -0.210217 1.096272
v 0.334391 -0.118711 1.184661
v 0.497891 0.006289 1.164455
v 0.485074 0.131289 1.133511
v 0.450056 0.222796 1.048970
v 0.402221 0.256289 0.933485
v 0.402221 -0.243711 0.933485
v 0.450056 -0.210217 1.048970
v 0.485074 -0.118711 1.133511
v 0.644537 0.006289 1.092137
v 0.627790 0.131289 1.063131
v 0.582037 0.222796 0.983884
v 0.519537 0.256289 0.875631
v 0.519537 -0.243711 0.875631
v 0.582037 -0.210217 0.983884
v 0.627790 -0.118711 1.063131
v 0.780488 0.006289 1.001298
v 0.760099 0.131289 0.974725
v 0.704393 0.222796 0.902128
v 0.628298 0.256289 0.802959
v 0.552203 0.222796 0.703790
v 0.496497 0.131289 0.631193
v 0.476108 0.006289 0.604621
v 0.496497 -0.118711 0.631193
v 0.552203 -0.210217 0.703790
v 0.628298 -0.243711 0.802959
v 0.704393 -0.210217 0.902128
v 0.760099 -0.118711 0.974725
f 8 9 7
f 36 9 10
f 36 9 35
f 5 9 7
f 14 15 2
f 3 15 4
f 3 15 2
f 3 5 2
f 3 5 4
f 28 33 31
f 30 5 4
f 30 5 31
f 30 28 31
f 11 12 9
f 11 9 10
f 6 5 7
f 34 8 7
f 34 33 7
f 34 33 35
f 34 9 35
f 34 8 9
f 13 14 2
f 21 28 27
f 29 30 28
f 38 26 27
f 38 28 27
f 38 36 37
f 38 36 35
f 38 33 35
f 38 28 33
f 18 11 12
f 18 11 10
f 32 33 31
f 32 5 31
f 32 6 5
f 32 33 7
f 32 6 7
f 1 12 2
f 1 13 2
f 1 13 12
f 19 13 12
f 19 18 12
f 20 13 14
f 20 21 14
f 20 21 27
f 20 26 27
f 20 19 26
f 20 19 13
f 16 15 4
f 16 23 15
f 22 23 30
f 22 29 30
f 22 23 15
f 22 14 15
f 22 21 14
f 22 21 28
f 22 29 28
f 25 38 37
f 25 38 26
f 25 18 24
f 25 19 26
f 25 19 18
f 25 36 37
f 25 24 36
f 17 18 10
f 17 18 24
f 5 12 9
f 5 12 2
f 16 23 30
f 16 30 4
f 17 24 36
f 17 36 10
