o torus_vhacd64_54
v -0.741416 0.006289 1.001297
v -0.721026 0.131289 0.974725
v -0.665320 0.222796 0.902128
v -0.589225 0.256289 0.802959
v -0.513130 0.222796 0.703790
v -0.457424 0.131289 0.631193
v -0.437034 0.006289 0.604621
v -0.457424 -0.118711 0.631193
v -0.513130 -0.210217 0.703790
v -0.589225 -0.243711 0.802959
v -0.665320 -0.210217 0.902128
v -0.721026 -0.118711 0.974725
f 4 5 1
f 9 10 1
f 9 5 1
f 3 4 7
f 8 10 7
f 8 9 10
f 11 10 7
f 11 3 7
f 2 4 1
f 2 3 4
f 6 8 7
f 6 4 7
f 6 4 5
f 12 2 1
f 12 10 1
f 12 11 10
f 6 8 9
f 6 9 5
f 12 2 3
f 12 11 3
