o torus_fine_17
v -1.135313 0.006289 0.487960
v -1.104369 0.131289 0.475142
v -1.019828 0.222796 0.440124
v -0.904343 0.256289 0.392289
v -0.788858 0.222796 0.344453
v -0.704317 0.131289 0.309435
v -0.673373 0.006289 0.296618
v -0.704317 -0.118711 0.309435
v -0.788858 -0.210217 0.344453
v -0.904343 -0.243711 0.392289
v -1.019828 -0.210217 0.440124
v -1.104369 -0.118711 0.475142
v -1.062995 0.006289 0.634606
v -1.033989 0.131289 0.617859
v -0.954742 0.222796 0.572106
v -0.846489 0.256289 0.509606
v -0.846489 -0.243711 0.509606
v -0.954742 -0.210217 0.572106
v -1.033989 -0.118711 0.617859
v -0.972155 0.006289 0.770558
v -0.945583 0.131289 0.750168
v -0.872986 0.222796 0.694462
v -0.773816 0.256289 0.618367
v -0.773816 -0.243711 0.618367
v -0.872986 -0.210217 0.694462
v -0.945583 -0.118711 0.750168
v -0.864347 0.006289 0.893489
v -0.840663 0.131289 0.869805
v -0.775958 0.222796 0.805101
v -0.687570 0.256289 0.716712
v -0.687570 -0.243711 0.716712
v -0.775958 -0.210217 0.805101
v -0.840663 -0.118711 0.869805
v -0.741416 0.006289 1.001297
v -0.721026 0.131289 0.974725
v -0.665320 0.222796 0.902128
v -0.589225 0.256289 0.802959
v -0.589225 -0.243711 0.802959
v -0.665320 -0.210217 0.902128
v -0.721026 -0.118711 0.974725
v -0.605463 0.006289 1.092138
v -0.588716 0.131289 1.063131
v -0.542963 0.222796 0.983884
v -0.480463 0.256289 0.875631
v -0.372210 0.131289 0.688131
v -0.355463 0.006289 0.659125
v -0.372210 -0.118711 0.688131
v -0.480463 -0.243711 0.875631
v -0.542963 -0.210217 0.983884
v -0.588716 -0.118711 1.063131
v -0.458818 0.006289 1.164455
v -0.446000 0.131289 1.133511
v -0.410982 0.222796 1.048970
v -0.363147 0.256289 0.933485
v -0.315311 0.222796 0.818000
v -0.315311 -0.210217 0.818000
v -0.363147 -0.243711 0.933485
v -0.410982 -0.210217 1.048970
v -0.446000 -0.118711 1.133511
f 12 2 1
f 46 56 55
f 6 5 55
f 6 46 7
f 47 46 56
f 45 46 55
f 45 6 55
f 45 6 46
f 11 18 12
f 11 9 12
f 11 9 10
f 26 27 33
f 32 26 33
f 58 48 49
f 58 57 48
f 58 57 56
f 41 52 51
f 20 26 27
f 3 2 5
f 53 52 55
f 8 6 7
f 8 9 56
f 8 47 56
f 8 46 7
f 8 47 46
f 19 18 12
f 19 26 18
f 19 12 1
f 19 20 26
f 25 26 18
f 25 32 26
f 59 50 49
f 59 58 49
f 59 41 51
f 59 41 50
f 59 52 51
f 59 58 56
f 13 19 1
f 13 19 20
f 15 3 2
f 42 41 52
f 42 35 41
f 34 35 27
f 34 35 41
f 36 35 29
f 40 50 49
f 40 39 49
f 40 32 33
f 40 39 32
f 40 27 33
f 40 34 27
f 40 41 50
f 40 34 41
f 31 25 32
f 21 20 27
f 43 53 52
f 43 42 52
f 43 42 35
f 43 36 35
f 38 48 49
f 38 39 49
f 38 39 32
f 38 31 32
f 17 11 10
f 17 11 18
f 17 25 18
f 14 15 2
f 14 21 15
f 14 2 1
f 14 13 1
f 14 13 20
f 14 21 20
f 22 21 29
f 22 21 15
f 28 35 29
f 28 21 29
f 28 35 27
f 28 21 27
f 24 31 25
f 24 17 25
f 4 3 5
f 54 53 55
f 30 22 29
f 16 22 15
f 16 15 3
f 16 4 3
f 37 36 29
f 37 30 29
f 37 43 36
f 23 30 22
f 23 16 22
f 44 37 43
f 44 43 53
f 44 54 53
f 9 12 2
f 9 2 5
f 9 57 56
f 9 57 10
f 8 9 5
f 8 6 5
f 59 52 55
f 59 56 55
f 24 57 10
f 24 57 48
f 24 38 48
f 24 38 31
f 24 17 10
f 54 4 5
f 54 5 55
f 44 54 4
f 44 16 4
f 44 23 30
f 44 37 30
f 44 23 16
