o torus_capsule32_13
v 0.048112 -0.042658 -0.011142
v 0.045946 -0.040017 -0.006030
v 0.045185 -0.039090 -0.000000
v 0.045946 -0.040017 0.006030
v 0.048112 -0.042658 0.011142
v 0.062581 -0.052057 0.012802
v 0.065433 -0.055532 0.009798
v 0.067338 -0.057854 0.005303
v 0.068007 -0.058669 0.000000
v 0.067338 -0.057854 -0.005303
v 0.065433 -0.055532 -0.009798
v 0.062581 -0.052057 -0.012802
v 0.064123 -0.039520 -0.015757
v 0.064123 -0.039520 0.015757
v 0.068784 -0.043345 0.014557
v 0.072736 -0.046588 0.011142
v 0.075376 -0.048755 0.006030
v 0.076303 -0.049516 0.000000
v 0.075376 -0.048755 -0.006030
v 0.072736 -0.046588 -0.011142
v 0.068784 -0.043345 -0.014557
v 0.058589 -0.048723 -0.013856
v 0.061051 -0.044118 -0.015757
v 0.070601 -0.026251 -0.015757
v 0.073062 -0.021646 -0.013856
v 0.053913 -0.046224 -0.012802
v 0.055733 -0.041276 -0.014557
v 0.065283 -0.023408 -0.014557
v 0.068386 -0.019146 -0.012802
v 0.053913 -0.046224 0.012802
v 0.055733 -0.041276 0.014557
v 0.065283 -0.023408 0.014557
v 0.068386 -0.019146 0.012802
v 0.058589 -0.048723 0.013856
v 0.061051 -0.044118 0.015757
v 0.070601 -0.026251 0.015757
v 0.073062 -0.021646 0.013856
v 0.066368 -0.046961 0.014557
v 0.075919 -0.029093 0.014557
v 0.062996 -0.055905 0.007272
v 0.070877 -0.049370 0.011142
v 0.080427 -0.031503 0.011142
v 0.081482 -0.021320 0.007272
v 0.073889 -0.050980 0.006030
v 0.083439 -0.033113 0.006030
v 0.074947 -0.051546 0.000000
v 0.084497 -0.033679 0.000000
v 0.073889 -0.050980 -0.006030
v 0.083439 -0.033113 -0.006030
v 0.062996 -0.055905 -0.007272
v 0.070877 -0.049370 -0.011142
v 0.080427 -0.031503 -0.011142
v 0.081482 -0.021320 -0.007272
v 0.066368 -0.046961 -0.014557
v 0.075919 -0.029093 -0.014557
v 0.068484 -0.031360 -0.015757
v 0.068484 -0.031360 0.015757
v 0.074255 -0.033110 0.014557
v 0.079147 -0.034594 0.011142
v 0.082415 -0.035586 0.006030
v 0.083563 -0.035934 0.000000
v 0.082415 -0.035586 -0.006030
v 0.079147 -0.034594 -0.011142
v 0.074255 -0.033110 -0.014557
v 0.062198 -0.016305 -0.011142
v 0.058799 -0.015970 -0.006030
v 0.057606 -0.015852 -0.000000
v 0.058799 -0.015970 0.006030
v 0.062198 -0.016305 0.011142
v 0.078052 -0.023113 0.012802
v 0.082526 -0.023554 0.009798
v 0.085515 -0.023848 0.005303
v 0.086564 -0.023951 0.000000
v 0.085515 -0.023848 -0.005303
v 0.082526 -0.023554 -0.009798
v 0.078052 -0.023113 -0.012802
f 1 27 26
f 1 5 3
f 47 49 73
f 50 1 26
f 19 51 20
f 19 46 18
f 54 51 20
f 25 24 76
f 25 53 76
f 28 1 65
f 28 1 27
f 28 25 24
f 74 49 73
f 74 53 73
f 40 50 9
f 40 5 30
f 34 40 30
f 66 67 3
f 31 5 30
f 31 34 30
f 10 50 9
f 62 19 20
f 62 47 49
f 62 19 18
f 23 54 13
f 23 54 12
f 43 53 73
f 29 53 65
f 29 25 53
f 29 28 65
f 29 28 25
f 52 74 49
f 55 24 76
f 56 55 24
f 56 55 64
f 21 54 13
f 21 56 13
f 21 56 64
f 21 54 20
f 8 40 9
f 8 40 7
f 15 38 16
f 15 38 14
f 15 57 14
f 35 38 14
f 35 31 34
f 6 38 7
f 6 40 7
f 6 34 40
f 6 35 34
f 6 35 38
f 4 5 69
f 4 5 3
f 68 66 67
f 68 4 69
f 68 67 3
f 68 4 3
f 2 1 3
f 2 66 3
f 2 66 65
f 2 1 65
f 32 5 69
f 32 31 5
f 61 62 18
f 61 62 47
f 45 47 73
f 48 19 51
f 48 10 51
f 48 19 46
f 48 46 9
f 48 10 9
f 11 12 50
f 11 10 50
f 11 10 51
f 11 54 51
f 11 54 12
f 44 46 9
f 44 8 9
f 22 23 27
f 22 27 26
f 22 23 12
f 22 50 26
f 22 12 50
f 72 43 73
f 72 45 73
f 63 21 20
f 63 21 64
f 63 62 20
f 63 55 64
f 63 55 52
f 63 62 49
f 63 52 49
f 75 52 74
f 75 53 76
f 75 74 53
f 75 55 76
f 75 55 52
f 58 57 39
f 58 15 57
f 33 32 69
f 33 43 69
f 36 57 39
f 36 39 70
f 60 61 47
f 60 45 47
f 60 61 18
f 17 46 18
f 17 44 46
f 17 60 18
f 17 60 16
f 41 38 16
f 41 38 7
f 41 17 16
f 41 17 44
f 41 8 7
f 41 44 8
f 71 43 70
f 71 72 43
f 71 39 70
f 37 36 70
f 37 43 70
f 37 33 43
f 37 36 32
f 37 33 32
f 42 71 39
f 42 72 45
f 42 71 72
f 59 58 39
f 59 42 39
f 59 15 16
f 59 58 15
f 59 60 16
f 59 60 45
f 59 42 45
f 40 50 1
f 40 1 5
f 23 28 24
f 23 28 27
f 43 53 65
f 43 69 65
f 56 23 24
f 56 23 13
f 68 69 65
f 68 66 65
f 36 35 14
f 36 57 14
f 36 35 31
f 36 32 31
