o torus_capsule32_12
v 0.038866 -0.051224 -0.011142
v 0.037256 -0.048212 -0.006030
v 0.036690 -0.047154 -0.000000
v 0.037256 -0.048212 0.006030
v 0.038866 -0.051224 0.011142
v 0.051223 -0.063266 0.012802
v 0.053342 -0.067230 0.009798
v 0.054758 -0.069879 0.005303
v 0.055255 -0.070809 0.000000
v 0.054758 -0.069879 -0.005303
v 0.053342 -0.067230 -0.009798
v 0.051223 -0.063266 -0.012802
v 0.055181 -0.051270 -0.015757
v 0.055181 -0.051270 0.015757
v 0.059006 -0.055932 0.014557
v 0.062249 -0.059883 0.011142
v 0.064416 -0.062524 0.006030
v 0.065177 -0.063451 0.000000
v 0.064416 -0.062524 -0.006030
v 0.062249 -0.059883 -0.011142
v 0.059006 -0.055932 -0.014557
v 0.047958 -0.059217 -0.013856
v 0.051270 -0.055181 -0.015757
v 0.064123 -0.039520 -0.015757
v 0.067435 -0.035484 -0.013856
v 0.043859 -0.055853 -0.012802
v 0.046609 -0.051355 -0.014557
v 0.059462 -0.035695 -0.014557
v 0.063336 -0.032120 -0.012802
v 0.043859 -0.055853 0.012802
v 0.046609 -0.051355 0.014557
v 0.059462 -0.035695 0.014557
v 0.063336 -0.032120 0.012802
v 0.047958 -0.059217 0.013856
v 0.051270 -0.055181 0.015757
v 0.064123 -0.039520 0.015757
v 0.067435 -0.035484 0.013856
v 0.055932 -0.059006 0.014557
v 0.068784 -0.043345 0.014557
v 0.050879 -0.067121 0.007272
v 0.059883 -0.062249 0.011142
v 0.072736 -0.046588 0.011142
v 0.075757 -0.036807 0.007272
v 0.062524 -0.064416 0.006030
v 0.075376 -0.048755 0.006030
v 0.063451 -0.065177 0.000000
v 0.076303 -0.049516 0.000000
v 0.062524 -0.064416 -0.006030
v 0.075376 -0.048755 -0.006030
v 0.050879 -0.067121 -0.007272
v 0.059883 -0.062249 -0.011142
v 0.072736 -0.046588 -0.011142
v 0.075757 -0.036807 -0.007272
v 0.055932 -0.059006 -0.014557
v 0.068784 -0.043345 -0.014557
v 0.061051 -0.044118 -0.015757
v 0.061051 -0.044118 0.015757
v 0.066368 -0.046961 0.014557
v 0.070877 -0.049370 0.011142
v 0.073889 -0.050980 0.006030
v 0.074947 -0.051546 0.000000
v 0.073889 -0.050980 -0.006030
v 0.070877 -0.049370 -0.011142
v 0.066368 -0.046961 -0.014557
v 0.057822 -0.028126 -0.011142
v 0.054554 -0.027134 -0.006030
v 0.053406 -0.026786 -0.000000
v 0.054554 -0.027134 0.006030
v 0.057822 -0.028126 0.011142
v 0.072043 -0.037896 0.012802
v 0.076345 -0.039201 0.009798
v 0.079219 -0.040073 0.005303
v 0.080228 -0.040379 0.000000
v 0.079219 -0.040073 -0.005303
v 0.076345 -0.039201 -0.009798
v 0.072043 -0.037896 -0.012802
f 1 27 26
f 47 49 73
f 50 1 26
f 25 24 76
f 25 53 76
f 28 1 65
f 28 1 27
f 28 25 24
f 74 49 73
f 74 53 73
f 40 50 9
f 40 5 30
f 34 40 30
f 31 5 30
f 31 34 30
f 10 50 9
f 19 62 18
f 23 54 12
f 43 53 73
f 29 53 65
f 29 25 53
f 29 28 65
f 29 28 25
f 52 74 49
f 56 64 24
f 56 21 13
f 56 21 64
f 8 40 9
f 8 40 7
f 15 57 14
f 35 31 34
f 6 38 7
f 6 40 7
f 6 34 40
f 6 35 38
f 6 35 34
f 4 5 69
f 4 67 3
f 68 66 67
f 68 4 69
f 68 4 67
f 2 66 65
f 2 1 65
f 2 4 3
f 2 67 3
f 2 66 67
f 32 5 69
f 32 31 5
f 61 62 18
f 61 47 49
f 61 62 49
f 11 10 51
f 11 54 51
f 11 54 12
f 11 12 50
f 11 10 50
f 44 46 9
f 44 8 9
f 48 46 9
f 48 10 9
f 48 10 51
f 22 23 27
f 22 27 26
f 22 23 12
f 22 50 26
f 22 12 50
f 63 52 64
f 63 21 20
f 63 21 64
f 63 19 20
f 63 19 62
f 63 62 49
f 63 52 49
f 55 52 64
f 55 24 76
f 55 64 24
f 75 52 74
f 75 53 76
f 75 74 53
f 75 55 76
f 75 55 52
f 33 32 69
f 33 43 69
f 36 39 70
f 45 47 73
f 45 61 47
f 58 42 39
f 58 15 57
f 58 36 57
f 58 36 39
f 41 38 7
f 41 8 7
f 41 44 8
f 37 36 70
f 37 43 70
f 37 33 43
f 37 36 32
f 37 33 32
f 60 61 18
f 60 45 61
f 72 43 73
f 72 45 73
f 72 45 42
f 71 39 70
f 71 42 39
f 71 72 42
f 71 43 70
f 71 72 43
f 17 60 18
f 59 45 42
f 59 60 45
f 59 58 42
f 59 17 16
f 59 17 60
f 59 15 16
f 59 58 15
f 40 50 1
f 40 1 5
f 23 28 24
f 23 28 27
f 43 53 65
f 43 69 65
f 21 54 51
f 21 51 20
f 21 23 13
f 21 23 54
f 56 23 24
f 56 23 13
f 35 15 38
f 35 15 14
f 68 69 65
f 68 66 65
f 2 1 5
f 2 4 5
f 48 19 18
f 48 46 18
f 48 51 20
f 48 19 20
f 36 35 14
f 36 57 14
f 36 35 31
f 36 32 31
f 41 15 38
f 41 15 16
f 17 46 18
f 17 44 46
f 17 41 16
f 17 41 44
