o torus_fine_14
v -0.303987 0.006289 1.217013
v -0.295318 0.131289 1.184660
v -0.271635 0.222796 1.096272
v -0.239282 0.256289 0.975531
v -0.206930 0.222796 0.854791
v -0.183246 0.131289 0.766402
v -0.174578 0.006289 0.734050
v -0.183246 -0.118711 0.766402
v -0.206930 -0.210217 0.854791
v -0.239282 -0.243711 0.975531
v -0.271635 -0.210217 1.096272
v -0.295318 -0.118711 1.184660
v -0.143622 0.006289 1.248912
v -0.139250 0.131289 1.215704
v -0.127306 0.222796 1.124981
v -0.110990 0.256289 1.001050
v -0.110990 -0.243711 1.001050
v -0.127306 -0.210217 1.124981
v -0.139250 -0.118711 1.215704
v 0.019537 0.006289 1.259606
v 0.019537 0.131289 1.226112
v 0.019537 0.222796 1.134606
v 0.019537 0.256289 1.009606
v 0.019537 -0.243711 1.009606
v 0.019537 -0.210217 1.134606
v 0.019537 -0.118711 1.226112
v 0.182694 0.006289 1.248912
v 0.178323 0.131289 1.215705
v 0.166379 0.222796 1.124981
v 0.150063 0.256289 1.001051
v 0.150063 -0.243711 1.001051
v 0.166379 -0.210217 1.124981
v 0.178323 -0.118711 1.215705
v 0.343060 0.006289 1.217013
v 0.334391 0.131289 1.184661
v 0.310708 0.222796 1.096272
v 0.278356 0.256289 0.975532
v 0.278356 -0.243711 0.975532
v 0.310708 -0.210217 1.096272
v 0.334391 -0.118711 1.184661
v 0.497891 0.006289 1.164455
v 0.485074 0.131289 1.133511
v 0.450056 0.222796 1.048970
v 0.402221 0.256289 0.933485
v 0.402221 -0.243711 0.933485
v 0.450056 -0.210217 1.048970
v 0.485074 -0.118711 1.133511
v 0.644537 0.006289 1.092137
v 0.627790 0.131289 1.063131
v 0.582037 0.222796 0.983884
v 0.519537 0.256289 0.875631
v 0.457037 0.222796 0.767378
v 0.411284 0.131289 0.688131
v 0.394537 0.006289 0.659125
v 0.411284 -0.118711 0.688131
v 0.457037 -0.210217 0.767378
v 0.519537 -0.243711 0.875631
v 0.582037 -0.210217 0.983884
v 0.627790 -0.118711 1.063131
f 3 11 1
f 3 11 7
f 55 8 56
f 55 7 54
f 55 8 7
f 9 11 10
f 9 11 7
f 9 8 7
f 9 56 10
f 9 8 56
f 5 3 4
f 5 3 7
f 5 6 7
f 5 52 4
f 5 6 52
f 57 56 10
f 57 55 56
f 51 52 4
f 12 11 1
f 12 13 1
f 12 19 13
f 2 3 1
f 2 13 1
f 2 14 13
f 42 41 48
f 47 41 48
f 27 20 28
f 27 20 33
f 21 14 13
f 21 20 13
f 21 20 28
f 21 22 28
f 26 19 13
f 26 20 13
f 26 20 33
f 26 25 33
f 58 57 46
f 58 47 46
f 58 55 48
f 58 57 55
f 18 11 10
f 18 12 11
f 18 12 19
f 18 26 19
f 18 26 25
f 17 18 10
f 50 51 43
f 50 42 43
f 53 51 52
f 53 55 54
f 53 50 51
f 53 6 52
f 53 55 48
f 53 50 48
f 53 7 54
f 53 6 7
f 15 3 4
f 15 2 3
f 15 2 14
f 15 21 14
f 15 21 22
f 16 15 4
f 35 42 43
f 35 27 28
f 35 27 34
f 35 41 34
f 35 42 41
f 40 47 46
f 40 27 33
f 40 27 34
f 40 41 34
f 40 47 41
f 59 47 48
f 59 58 48
f 59 58 47
f 45 57 46
f 45 38 46
f 32 25 33
f 32 40 33
f 24 18 25
f 24 17 18
f 49 42 48
f 49 50 48
f 49 50 42
f 44 51 43
f 44 37 43
f 29 22 28
f 29 35 28
f 23 15 22
f 23 16 15
f 39 38 46
f 39 32 38
f 39 40 46
f 39 32 40
f 31 32 25
f 31 24 25
f 31 32 38
f 36 37 43
f 36 29 37
f 36 35 43
f 36 29 35
f 30 29 22
f 30 23 22
f 30 29 37
f 31 17 10
f 31 57 10
f 31 45 57
f 31 45 38
f 31 24 17
f 30 16 4
f 30 51 4
f 30 44 51
f 30 44 37
f 30 23 16
