v 0.572737 -0.020982 -1.118268
v 1.276652 0.036433 0.002422
v 1.276652 -0.020982 0.002422
v 0.759552 0.036433 0.002422
v 0.587139 0.266346 -0.845116
v 0.572737 -0.250895 -0.773372
v 1.104308 -0.006603 -0.644037
v 1.046837 -0.250895 0.002422
v 1.046837 0.266346 0.002422
v 1.003700 -0.222137 -0.572184
v 1.018102 0.208830 -0.600925
v 0.572737 0.237588 -0.643927
v 0.788219 0.136986 -0.960191
v 0.759552 -0.135913 -0.974561
v 0.788219 -0.121585 0.002422
v 0.572737 -0.020982 -0.471918
v 1.204848 -0.135913 -0.313841
v 1.204848 0.151365 -0.299361
v 0.888758 0.237588 0.002422
v 0.601473 -0.222137 -0.974561
v 0.888758 -0.222137 0.002422
v 0.572737 0.237588 -0.974561
v 1.147377 0.237588 -0.141394
v 0.931827 0.237588 -0.672778
v 1.147377 -0.222137 0.002422
v 1.233583 0.022054 -0.342473
v 0.917562 0.007726 -0.888337
v 1.003700 -0.135913 -0.730261
v 1.075573 0.136986 -0.629666
v 0.572737 -0.222137 -0.643927
v 0.845689 -0.250895 -0.629666
v 0.974964 0.266346 -0.385585
v 0.788219 0.136986 0.002422
v 0.572737 0.136986 -0.514921
v 1.247917 0.136986 0.002422
v 1.118642 -0.222137 -0.299361
v 0.587139 0.151365 -1.075046
v 0.673346 0.022054 -1.075046
v 0.917562 -0.222137 -0.701519
v 1.247917 -0.121585 -0.083911
v 1.104308 -0.135913 -0.572184
v 0.989367 0.136986 -0.759002
v 1.075573 0.237588 -0.414216
v 0.773885 0.237588 -0.845116
v 0.572737 0.266346 -0.787743
v 0.572737 -0.135913 -1.075046
v 0.572737 -0.121585 -0.514921
v 1.190446 0.022054 -0.471699
v 1.262319 0.022054 -0.213247
v 0.989367 -0.250895 -0.371214
v 0.759552 -0.020982 0.002422
v 0.989367 0.266346 0.002422
v 0.989367 -0.250895 0.002422
v 1.147377 0.151365 -0.471699
v 0.831356 0.266346 -0.629666
v 1.147377 0.237588 0.002422
v 1.147377 -0.222137 -0.170025
v 0.572737 -0.250895 -0.859596
v 0.730817 -0.222137 -0.888337
v 0.874425 -0.135913 -0.873967
v 0.802621 -0.006603 -0.988822
v 0.630208 -0.135913 -1.060785
v 1.018102 0.022054 -0.773372
v 1.233583 0.151365 -0.155765
f 56 35 64
f 3 2 4
f 3 4 8
f 4 2 9
f 1 6 12
f 8 4 15
f 12 6 16
f 4 9 19
f 8 15 21
f 1 12 22
f 3 8 25
f 16 6 30
f 6 21 30
f 21 15 30
f 8 6 31
f 5 9 32
f 9 23 32
f 4 19 33
f 19 12 33
f 12 16 34
f 16 4 34
f 4 33 34
f 33 12 34
f 9 2 35
f 1 22 37
f 1 37 38
f 37 13 38
f 28 10 39
f 10 31 39
f 3 25 40
f 10 28 41
f 28 7 41
f 36 10 41
f 17 36 41
f 24 11 42
f 27 13 42
f 11 29 42
f 23 18 43
f 11 24 43
f 32 23 43
f 24 32 43
f 22 5 44
f 13 37 44
f 37 22 44
f 24 42 44
f 42 13 44
f 9 5 45
f 12 19 45
f 5 22 45
f 22 12 45
f 6 1 46
f 16 30 47
f 30 15 47
f 26 17 48
f 7 29 48
f 17 41 48
f 41 7 48
f 2 3 49
f 17 26 49
f 26 18 49
f 3 40 49
f 40 17 49
f 8 31 50
f 31 10 50
f 10 36 50
f 15 4 51
f 4 16 51
f 47 15 51
f 16 47 51
f 19 9 52
f 9 45 52
f 45 19 52
f 6 8 53
f 21 6 53
f 8 21 53
f 18 26 54
f 29 11 54
f 43 18 54
f 11 43 54
f 26 48 54
f 48 29 54
f 5 32 55
f 32 24 55
f 44 5 55
f 24 44 55
f 23 9 56
f 9 35 56
f 25 8 57
f 36 17 57
f 40 25 57
f 17 40 57
f 8 50 57
f 50 36 57
f 31 6 58
f 6 46 58
f 46 20 58
f 20 14 59
f 39 31 59
f 31 58 59
f 58 20 59
f 27 28 60
f 28 39 60
f 59 14 60
f 39 59 60
f 13 27 61
f 38 13 61
f 60 14 61
f 27 60 61
f 14 20 62
f 1 38 62
f 46 1 62
f 20 46 62
f 61 14 62
f 38 61 62
f 28 27 63
f 7 28 63
f 29 7 63
f 27 42 63
f 42 29 63
f 18 23 64
f 35 2 64
f 2 49 64
f 49 18 64
f 23 56 64
