o torus_fine_19
v -1.187871 0.006289 -0.313918
v -1.155518 0.131289 -0.305249
v -1.067130 0.222796 -0.281566
v -0.946389 0.256289 -0.249213
v -0.825648 0.222796 -0.216861
v -0.737260 0.131289 -0.193177
v -0.704908 0.006289 -0.184508
v -0.737260 -0.118711 -0.193177
v -0.825648 -0.210217 -0.216861
v -0.946389 -0.243711 -0.249213
v -1.067130 -0.210217 -0.281566
v -1.155518 -0.118711 -0.305249
v -1.219769 0.006289 -0.153552
v -1.186562 0.131289 -0.149180
v -1.095839 0.222796 -0.137236
v -0.971908 0.256289 -0.120921
v -0.971908 -0.243711 -0.120921
v -1.095839 -0.210217 -0.137236
v -1.186562 -0.118711 -0.149180
v -1.230463 0.006289 0.009606
v -1.196970 0.131289 0.009606
v -1.105463 0.222796 0.009606
v -0.980463 0.256289 0.009606
v -0.980463 -0.243711 0.009606
v -1.105463 -0.210217 0.009606
v -1.196970 -0.118711 0.009606
v -1.219769 0.006289 0.172764
v -1.186562 0.131289 0.168392
v -1.095839 0.222796 0.156448
v -0.971908 0.256289 0.140132
v -0.971908 -0.243711 0.140132
v -1.095839 -0.210217 0.156448
v -1.186562 -0.118711 0.168392
v -1.187871 0.006289 0.333129
v -1.155518 0.131289 0.324461
v -1.067130 0.222796 0.300777
v -0.946389 0.256289 0.268425
v -0.946389 -0.243711 0.268425
v -1.067130 -0.210217 0.300777
v -1.155518 -0.118711 0.324461
v -1.135313 0.006289 0.487960
v -1.104369 0.131289 0.475142
v -1.019828 0.222796 0.440124
v -0.904343 0.256289 0.392289
v -0.904343 -0.243711 0.392289
v -1.019828 -0.210217 0.440124
v -1.104369 -0.118711 0.475142
v -1.062995 0.006289 0.634606
v -1.033989 0.131289 0.617859
v -0.954742 0.222796 0.572106
v -0.846489 0.256289 0.509606
v -0.738235 0.222796 0.447106
v -0.658989 0.131289 0.401352
v -0.629982 0.006289 0.384606
v -0.658989 -0.118711 0.401352
v -0.738235 -0.210217 0.447106
v -0.846489 -0.243711 0.509606
v -0.954742 -0.210217 0.572106
v -1.033989 -0.118711 0.617859
f 3 2 1
f 55 56 54
f 48 56 58
f 9 56 10
f 5 3 4
f 57 56 58
f 57 56 10
f 13 26 20
f 18 26 25
f 18 17 24
f 18 24 25
f 11 3 1
f 11 12 1
f 11 9 10
f 11 18 12
f 11 17 10
f 11 18 17
f 8 7 54
f 8 55 54
f 8 55 56
f 8 9 56
f 16 3 4
f 21 13 20
f 32 24 25
f 32 26 25
f 32 40 39
f 46 57 58
f 38 32 39
f 19 18 26
f 19 18 12
f 19 13 26
f 19 12 1
f 19 13 1
f 47 46 58
f 47 40 39
f 47 46 39
f 6 8 7
f 6 7 54
f 6 53 54
f 52 6 5
f 52 6 53
f 52 51 4
f 52 5 4
f 52 53 54
f 52 51 50
f 52 56 54
f 52 48 56
f 52 48 50
f 14 21 13
f 14 2 1
f 14 13 1
f 15 14 21
f 15 3 2
f 15 14 2
f 15 16 23
f 15 16 3
f 29 21 28
f 37 29 36
f 43 51 50
f 43 42 50
f 43 42 36
f 49 48 50
f 49 42 50
f 35 42 36
f 35 29 28
f 35 29 36
f 33 32 26
f 33 32 40
f 31 32 24
f 31 38 32
f 45 46 39
f 45 38 39
f 45 46 57
f 59 48 58
f 59 47 58
f 22 15 21
f 22 29 21
f 22 15 23
f 22 29 23
f 30 29 23
f 30 37 29
f 44 43 51
f 44 37 36
f 44 43 36
f 34 35 28
f 34 33 40
f 34 47 40
f 34 35 42
f 27 34 28
f 27 21 20
f 27 21 28
f 27 34 33
f 27 26 20
f 27 33 26
f 41 34 42
f 41 49 48
f 41 49 42
f 41 34 47
f 41 59 48
f 41 59 47
f 11 5 9
f 11 5 3
f 6 5 9
f 6 8 9
f 45 17 24
f 45 17 10
f 45 57 10
f 45 31 24
f 45 31 38
f 44 16 23
f 44 16 4
f 44 51 4
f 44 30 23
f 44 30 37
