o torus_vhacd64_22
v 0.780489 0.006289 -0.982086
v 0.760099 0.131289 -0.955514
v 0.704394 0.222796 -0.882917
v 0.628298 0.256289 -0.783747
v 0.552203 0.222796 -0.684578
v 0.496498 0.131289 -0.611982
v 0.476108 0.006289 -0.585409
v 0.496498 -0.118711 -0.611982
v 0.552203 -0.210217 -0.684578
v 0.628298 -0.243711 -0.783747
v 0.704394 -0.210217 -0.882917
v 0.760099 -0.118711 -0.955514
v 0.644537 0.006289 -1.072926
v 0.627790 0.131289 -1.043920
v 0.582037 0.222796 -0.964673
v 0.519537 0.256289 -0.856420
v 0.457037 0.222796 -0.748167
v 0.411284 0.131289 -0.668920
v 0.394537 0.006289 -0.639913
v 0.411284 -0.118711 -0.668920
v 0.457037 -0.210217 -0.748167
v 0.519537 -0.243711 -0.856420
v 0.582037 -0.210217 -0.964673
v 0.627790 -0.118711 -1.043920
f 17 5 16
f 4 5 16
f 9 7 8
f 9 21 22
f 9 22 10
f 3 7 5
f 3 4 5
f 3 15 16
f 3 4 16
f 6 7 5
f 20 7 19
f 20 7 8
f 20 9 8
f 20 9 21
f 2 3 1
f 11 23 22
f 11 22 10
f 11 12 1
f 11 9 10
f 11 9 7
f 11 3 1
f 11 3 7
f 24 21 22
f 24 23 22
f 24 13 1
f 24 12 1
f 24 11 12
f 24 11 23
f 18 20 19
f 18 7 19
f 18 6 7
f 18 17 5
f 18 6 5
f 14 17 16
f 14 15 16
f 14 24 13
f 14 13 1
f 14 2 1
f 14 3 15
f 14 2 3
f 18 20 21
f 18 21 17
f 14 21 17
f 14 24 21
