o torus_vhacd32_19
v 0.780488 0.006289 1.001298
v 0.760099 0.131289 0.974725
v 0.704393 0.222796 0.902128
v 0.628298 0.256289 0.802959
v 0.552203 0.222796 0.703790
v 0.496497 0.131289 0.631193
v 0.476108 0.006289 0.604621
v 0.496497 -0.118711 0.631193
v 0.552203 -0.210217 0.703790
v 0.628298 -0.243711 0.802959
v 0.704393 -0.210217 0.902128
v 0.760099 -0.118711 0.974725
v 0.903420 0.006289 0.893490
v 0.879736 0.131289 0.869806
v 0.815032 0.222796 0.805101
v 0.726643 0.256289 0.716713
v 0.726643 -0.243711 0.716713
v 0.815032 -0.210217 0.805101
v 0.879736 -0.118711 0.869806
v 1.011229 0.006289 0.770557
v 0.984656 0.131289 0.750168
v 0.912059 0.222796 0.694462
v 0.812890 0.256289 0.618367
v 0.812890 -0.243711 0.618367
v 0.912059 -0.210217 0.694462
v 0.984656 -0.118711 0.750168
v 1.102069 0.006289 0.634606
v 1.073062 0.131289 0.617859
v 0.993815 0.222796 0.572106
v 0.885562 0.256289 0.509606
v 0.777309 0.222796 0.447106
v 0.698062 0.131289 0.401353
v 0.669056 0.006289 0.384606
v 0.698062 -0.118711 0.401353
v 0.777309 -0.210217 0.447106
v 0.885562 -0.243711 0.509606
v 0.993815 -0.210217 0.572106
v 1.073062 -0.118711 0.617859
f 8 1 10
f 12 13 1
f 9 35 10
f 9 8 10
f 9 8 35
f 3 4 1
f 33 35 27
f 33 31 27
f 33 8 7
f 30 31 4
f 6 8 7
f 6 33 7
f 6 4 1
f 6 8 1
f 20 26 27
f 20 13 26
f 20 21 27
f 20 13 21
f 36 35 10
f 25 37 26
f 38 26 27
f 38 37 26
f 38 36 37
f 38 35 27
f 38 36 35
f 2 3 1
f 2 13 1
f 34 8 35
f 34 33 35
f 34 33 8
f 5 31 4
f 5 6 4
f 5 6 31
f 32 33 31
f 32 6 31
f 32 6 33
f 11 1 10
f 11 12 1
f 24 36 37
f 24 25 37
f 28 21 27
f 28 31 27
f 28 30 31
f 14 13 21
f 14 2 13
f 19 13 26
f 19 12 13
f 29 22 21
f 29 28 21
f 29 28 30
f 29 23 30
f 29 23 22
f 15 22 21
f 15 14 21
f 15 2 3
f 15 14 2
f 15 16 4
f 15 3 4
f 15 23 16
f 15 23 22
f 18 11 12
f 18 19 12
f 18 25 26
f 18 19 26
f 18 24 17
f 18 24 25
f 18 17 10
f 18 11 10
f 24 17 10
f 24 36 10
f 23 16 4
f 23 30 4
