o torus_fine_16
v -0.575478 0.006289 0.466177
v -0.864347 0.006289 0.893489
v -0.840663 0.131289 0.869805
v -0.775958 0.222796 0.805101
v -0.687570 0.256289 0.716712
v -0.599182 0.222796 0.628324
v -0.534477 0.131289 0.563619
v -0.534477 -0.118711 0.563619
v -0.599182 -0.210217 0.628324
v -0.687570 -0.243711 0.716712
v -0.775958 -0.210217 0.805101
v -0.840663 -0.118711 0.869805
v -0.741416 0.006289 1.001297
v -0.721026 0.131289 0.974725
v -0.665320 0.222796 0.902128
v -0.589225 0.256289 0.802959
v -0.589225 -0.243711 0.802959
v -0.665320 -0.210217 0.902128
v -0.721026 -0.118711 0.974725
v -0.605463 0.006289 1.092138
v -0.588716 0.131289 1.063131
v -0.542963 0.222796 0.983884
v -0.480463 0.256289 0.875631
v -0.480463 -0.243711 0.875631
v -0.542963 -0.210217 0.983884
v -0.588716 -0.118711 1.063131
v -0.458818 0.006289 1.164455
v -0.446000 0.131289 1.133511
v -0.410982 0.222796 1.048970
v -0.363147 0.256289 0.933485
v -0.363147 -0.243711 0.933485
v -0.410982 -0.210217 1.048970
v -0.446000 -0.118711 1.133511
v -0.303987 0.006289 1.217013
v -0.295318 0.131289 1.184660
v -0.271635 0.222796 1.096272
v -0.239282 0.256289 0.975531
v -0.239282 -0.243711 0.975531
v -0.271635 -0.210217 1.096272
v -0.295318 -0.118711 1.184660
v -0.143622 0.006289 1.248912
v -0.139250 0.131289 1.215704
v -0.127306 0.222796 1.124981
v -0.110990 0.256289 1.001050
v -0.094674 0.222796 0.877120
v -0.082730 0.131289 0.786396
v -0.078358 0.006289 0.753189
v -0.082730 -0.118711 0.786396
v -0.094674 -0.210217 0.877120
v -0.110990 -0.243711 1.001050
v -0.127306 -0.210217 1.124981
v -0.139250 -0.118711 1.215704
f 11 1 10
f 27 20 33
f 17 11 10
f 52 40 41
f 48 1 47
f 48 49 47
f 9 1 10
f 9 50 10
f 9 49 50
f 9 48 49
f 46 1 47
f 3 1 2
f 34 40 33
f 34 27 33
f 34 40 41
f 12 19 2
f 12 19 11
f 12 1 2
f 12 11 1
f 39 40 33
f 39 32 33
f 26 20 33
f 26 19 20
f 18 19 11
f 18 17 11
f 31 39 32
f 51 49 50
f 51 52 49
f 51 52 40
f 51 39 40
f 8 48 1
f 8 9 1
f 8 9 48
f 7 46 1
f 6 5 44
f 6 7 46
f 6 5 1
f 6 7 1
f 4 5 1
f 4 3 1
f 13 19 2
f 13 19 20
f 28 27 20
f 28 34 27
f 25 32 33
f 25 26 33
f 25 18 17
f 25 26 19
f 25 18 19
f 38 31 39
f 38 51 50
f 38 51 39
f 45 6 44
f 45 6 46
f 45 46 47
f 45 49 47
f 21 28 20
f 35 34 41
f 35 28 34
f 24 25 17
f 24 31 32
f 24 25 32
f 16 4 5
f 14 3 2
f 14 13 2
f 14 4 3
f 14 13 20
f 14 21 20
f 22 21 28
f 22 14 21
f 22 16 23
f 42 35 41
f 42 52 41
f 15 14 4
f 15 22 14
f 15 16 4
f 15 22 16
f 36 30 37
f 36 35 28
f 29 36 30
f 29 30 23
f 29 22 23
f 29 22 28
f 29 36 28
f 43 44 37
f 43 36 37
f 43 42 45
f 43 45 44
f 43 42 35
f 43 36 35
f 24 17 10
f 24 50 10
f 24 38 50
f 24 38 31
f 30 5 44
f 30 44 37
f 30 16 5
f 30 16 23
f 42 45 49
f 42 52 49
