o torus_vhacd32_4
v -0.605463 0.006289 -1.072926
v -0.588716 0.131289 -1.043920
v -0.542963 0.222796 -0.964673
v -0.480463 0.256289 -0.856420
v -0.417963 0.222796 -0.748167
v -0.372210 0.131289 -0.668920
v -0.355463 0.006289 -0.639913
v -0.372210 -0.118711 -0.668920
v -0.417963 -0.210217 -0.748167
v -0.480463 -0.243711 -0.856420
v -0.542963 -0.210217 -0.964673
v -0.588716 -0.118711 -1.043920
v -0.741415 0.006289 -0.982086
v -0.721025 0.131289 -0.955514
v -0.665320 0.222796 -0.882917
v -0.589225 0.256289 -0.783748
v -0.589225 -0.243711 -0.783748
v -0.665320 -0.210217 -0.882917
v -0.721025 -0.118711 -0.955514
v -0.864347 0.006289 -0.874277
v -0.840663 0.131289 -0.850594
v -0.775958 0.222796 -0.785889
v -0.687570 0.256289 -0.697501
v -0.687570 -0.243711 -0.697501
v -0.775958 -0.210217 -0.785889
v -0.840663 -0.118711 -0.850594
v -0.972155 0.006289 -0.751346
v -0.945583 0.131289 -0.730956
v -0.872986 0.222796 -0.675251
v -0.773816 0.256289 -0.599156
v -0.674647 0.222796 -0.523061
v -0.602050 0.131289 -0.467355
v -0.575478 0.006289 -0.446965
v -0.602050 -0.118711 -0.467355
v -0.674647 -0.210217 -0.523061
v -0.773816 -0.243711 -0.599156
v -0.872986 -0.210217 -0.675251
v -0.945583 -0.118711 -0.730956
f 36 37 35
f 34 8 7
f 34 37 35
f 9 36 10
f 9 36 35
f 9 34 35
f 9 34 8
f 5 2 4
f 17 11 10
f 13 2 1
f 13 2 14
f 12 11 10
f 12 9 10
f 12 2 1
f 12 13 1
f 33 34 7
f 33 38 37
f 33 34 37
f 6 8 7
f 30 29 31
f 30 5 4
f 30 5 31
f 21 13 14
f 21 22 29
f 28 38 27
f 28 21 27
f 28 21 29
f 28 33 38
f 28 33 29
f 24 36 37
f 18 17 11
f 18 12 11
f 18 24 17
f 20 21 27
f 20 21 13
f 32 29 31
f 32 33 29
f 32 6 5
f 32 5 31
f 32 33 7
f 32 6 7
f 23 30 29
f 23 22 29
f 15 2 14
f 15 21 14
f 15 21 22
f 15 23 16
f 15 23 22
f 25 24 37
f 25 18 24
f 19 18 12
f 19 12 13
f 3 2 4
f 3 15 2
f 3 16 4
f 3 15 16
f 26 25 18
f 26 19 18
f 26 38 37
f 26 25 37
f 26 38 27
f 26 20 27
f 26 20 13
f 26 19 13
f 12 5 9
f 12 5 2
f 6 5 9
f 6 9 8
f 24 17 10
f 24 36 10
f 23 16 4
f 23 30 4
