o torus_capsule32_1
v -0.081061 -0.007442 0.012802
v -0.085535 -0.007001 0.009798
v -0.088524 -0.006707 0.005303
v -0.089574 -0.006603 0.000000
v -0.088524 -0.006707 -0.005303
v -0.085535 -0.007001 -0.009798
v -0.081061 -0.007442 -0.012802
v -0.064184 -0.003857 -0.011142
v -0.060785 -0.004192 -0.006030
v -0.059591 -0.004309 -0.000000
v -0.060785 -0.004192 0.006030
v -0.064184 -0.003857 0.011142
v -0.073287 -0.017397 -0.015757
v -0.073287 -0.017397 0.015757
v -0.079287 -0.017988 0.014557
v -0.084375 -0.018489 0.011142
v -0.087774 -0.018824 0.006030
v -0.088968 -0.018941 0.000000
v -0.087774 -0.018824 -0.006030
v -0.084375 -0.018489 -0.011142
v -0.079287 -0.017988 -0.014557
v -0.075881 -0.006976 -0.013856
v -0.074365 -0.011973 -0.015757
v -0.068484 -0.031360 -0.015757
v -0.066969 -0.036357 -0.013856
v -0.070807 -0.005437 -0.012802
v -0.068595 -0.010223 -0.014557
v -0.062714 -0.029610 -0.014557
v -0.061894 -0.034818 -0.012802
v -0.070807 -0.005437 0.012802
v -0.068595 -0.010223 0.014557
v -0.062714 -0.029610 0.014557
v -0.061894 -0.034818 0.012802
v -0.075881 -0.006976 0.013856
v -0.074365 -0.011973 0.015757
v -0.068484 -0.031360 0.015757
v -0.066969 -0.036357 0.013856
v -0.080136 -0.013723 0.014557
v -0.074255 -0.033110 0.014557
v -0.084076 -0.005014 0.007272
v -0.085027 -0.015207 0.011142
v -0.079147 -0.034594 0.011142
v -0.072692 -0.042541 0.007272
v -0.088296 -0.016199 0.006030
v -0.082415 -0.035586 0.006030
v -0.089444 -0.016547 0.000000
v -0.083563 -0.035934 0.000000
v -0.088296 -0.016199 -0.006030
v -0.082415 -0.035586 -0.006030
v -0.084076 -0.005014 -0.007272
v -0.085027 -0.015207 -0.011142
v -0.079147 -0.034594 -0.011142
v -0.072692 -0.042541 -0.007272
v -0.080136 -0.013723 -0.014557
v -0.074255 -0.033110 -0.014557
v -0.070601 -0.026251 -0.015757
v -0.070601 -0.026251 0.015757
v -0.075919 -0.029093 0.014557
v -0.080427 -0.031503 0.011142
v -0.083439 -0.033113 0.006030
v -0.084497 -0.033679 0.000000
v -0.083439 -0.033113 -0.006030
v -0.080427 -0.031503 -0.011142
v -0.075919 -0.029093 -0.014557
v -0.055510 -0.032452 -0.011142
v -0.052870 -0.030285 -0.006030
v -0.051943 -0.029524 -0.000000
v -0.052870 -0.030285 0.006030
v -0.055510 -0.032452 0.011142
v -0.071534 -0.038848 0.012802
v -0.075009 -0.041699 0.009798
v -0.077331 -0.043605 0.005303
v -0.078147 -0.044274 0.000000
v -0.077331 -0.043605 -0.005303
v -0.075009 -0.041699 -0.009798
v -0.071534 -0.038848 -0.012802
f 9 10 67
f 9 8 10
f 23 7 22
f 50 7 22
f 28 65 8
f 66 65 8
f 66 9 8
f 66 9 67
f 26 50 22
f 26 50 8
f 54 23 7
f 68 66 67
f 12 8 10
f 46 48 4
f 29 53 25
f 29 53 65
f 29 28 25
f 29 28 65
f 27 28 8
f 27 28 23
f 27 26 8
f 27 23 22
f 27 26 22
f 75 55 52
f 21 23 13
f 21 54 23
f 39 71 42
f 69 12 68
f 69 12 32
f 11 12 10
f 11 12 68
f 11 10 67
f 11 68 67
f 31 12 30
f 31 12 32
f 6 54 7
f 6 50 7
f 62 19 20
f 62 19 61
f 18 19 61
f 18 19 48
f 18 46 48
f 24 28 25
f 24 28 23
f 74 75 52
f 74 53 73
f 74 75 53
f 76 53 25
f 76 75 53
f 76 75 55
f 76 24 25
f 76 24 55
f 64 55 52
f 64 24 56
f 64 24 55
f 64 56 13
f 64 21 13
f 36 32 37
f 70 39 71
f 70 36 37
f 70 36 39
f 33 32 37
f 33 69 32
f 35 38 1
f 35 31 32
f 35 36 32
f 5 48 4
f 5 50 4
f 5 6 50
f 51 6 54
f 51 21 20
f 51 21 54
f 51 19 20
f 51 19 48
f 51 5 48
f 51 5 6
f 63 62 20
f 63 62 52
f 63 64 52
f 63 21 20
f 63 64 21
f 44 3 41
f 44 18 46
f 44 46 4
f 44 3 4
f 40 3 4
f 40 50 4
f 40 12 30
f 2 3 41
f 2 38 41
f 2 38 1
f 2 40 1
f 2 40 3
f 49 62 52
f 49 74 52
f 49 47 61
f 49 62 61
f 49 47 73
f 49 74 73
f 43 70 71
f 43 33 69
f 43 70 37
f 43 33 37
f 43 53 73
f 15 38 41
f 15 35 14
f 15 35 38
f 34 31 30
f 34 35 31
f 34 35 1
f 34 40 30
f 34 40 1
f 72 43 73
f 72 43 71
f 72 71 42
f 16 15 41
f 58 39 42
f 58 57 36
f 58 36 39
f 58 57 14
f 58 15 14
f 45 60 42
f 45 72 42
f 45 47 61
f 45 60 61
f 45 47 73
f 45 72 73
f 17 16 60
f 17 44 18
f 17 44 41
f 17 16 41
f 17 18 61
f 17 60 61
f 59 16 15
f 59 58 15
f 59 58 42
f 59 60 42
f 59 16 60
f 69 68 66
f 69 66 65
f 24 56 13
f 24 23 13
f 40 12 8
f 40 50 8
f 57 35 36
f 57 35 14
f 43 69 65
f 43 53 65
