o torus_fine_5
v 0.644537 0.006289 -1.072926
v 0.627790 0.131289 -1.043920
v 0.582037 0.222796 -0.964673
v 0.519537 0.256289 -0.856420
v 0.457037 0.222796 -0.748167
v 0.411284 0.131289 -0.668920
v 0.394537 0.006289 -0.639913
v 0.411284 -0.118711 -0.668920
v 0.457037 -0.210217 -0.748167
v 0.519537 -0.243711 -0.856420
v 0.582037 -0.210217 -0.964673
v 0.627790 -0.118711 -1.043920
v 0.497891 0.006289 -1.145244
v 0.485074 0.131289 -1.114299
v 0.450056 0.222796 -1.029759
v 0.402221 0.256289 -0.914274
v 0.402221 -0.243711 -0.914274
v 0.450056 -0.210217 -1.029759
v 0.485074 -0.118711 -1.114299
v 0.343061 0.006289 -1.197802
v 0.334392 0.131289 -1.165449
v 0.310708 0.222796 -1.077061
v 0.278356 0.256289 -0.956320
v 0.278356 -0.243711 -0.956320
v 0.310708 -0.210217 -1.077061
v 0.334392 -0.118711 -1.165449
v 0.182694 0.006289 -1.229700
v 0.178323 0.131289 -1.196493
v 0.166379 0.222796 -1.105770
v 0.150063 0.256289 -0.981839
v 0.150063 -0.243711 -0.981839
v 0.166379 -0.210217 -1.105770
v 0.178323 -0.118711 -1.196493
v 0.019537 0.006289 -1.240394
v 0.019537 0.131289 -1.206901
v 0.019537 0.222796 -1.115394
v 0.019537 0.256289 -0.990394
v 0.019537 -0.243711 -0.990394
v 0.019537 -0.210217 -1.115394
v 0.019537 -0.118711 -1.206901
v -0.143621 0.006289 -1.229700
v -0.139249 0.131289 -1.196493
v -0.127305 0.222796 -1.105770
v -0.110989 0.256289 -0.981839
v -0.110989 -0.243711 -0.981839
v -0.127305 -0.210217 -1.105770
v -0.139249 -0.118711 -1.196493
v -0.303987 0.006289 -1.197802
v -0.295318 0.131289 -1.165449
v -0.271634 0.222796 -1.077061
v -0.239282 0.256289 -0.956320
v -0.206930 0.222796 -0.835580
v -0.183246 0.131289 -0.747191
v -0.174577 0.006289 -0.714839
v -0.183246 -0.118711 -0.747191
v -0.206930 -0.210217 -0.835580
v -0.239282 -0.243711 -0.956320
v -0.271634 -0.210217 -1.077061
v -0.295318 -0.118711 -1.165449
f 59 56 48
f 3 7 1
f 52 56 48
f 9 8 10
f 55 8 7
f 55 9 56
f 55 9 8
f 20 27 33
f 40 27 33
f 53 5 52
f 13 12 1
f 11 18 10
f 11 18 12
f 11 12 1
f 11 7 1
f 11 8 10
f 11 8 7
f 26 20 33
f 26 13 20
f 17 18 10
f 47 59 48
f 6 5 4
f 6 3 7
f 6 3 4
f 6 53 7
f 6 53 5
f 54 53 55
f 54 55 7
f 54 53 7
f 19 18 12
f 19 26 18
f 19 13 12
f 19 26 13
f 46 47 40
f 46 47 59
f 34 35 27
f 34 40 27
f 51 50 43
f 51 5 4
f 51 5 52
f 49 50 43
f 49 51 50
f 49 52 48
f 49 51 52
f 32 40 33
f 32 26 33
f 58 46 59
f 41 47 40
f 41 34 40
f 41 47 48
f 41 34 35
f 2 13 1
f 2 14 13
f 2 3 1
f 36 35 43
f 36 29 35
f 21 13 20
f 21 14 13
f 42 35 43
f 42 49 43
f 42 41 35
f 42 49 48
f 42 41 48
f 22 16 23
f 22 29 23
f 22 21 29
f 39 46 40
f 39 32 40
f 25 26 18
f 25 32 26
f 25 17 18
f 57 58 46
f 57 59 56
f 57 58 59
f 57 9 10
f 57 9 56
f 37 36 43
f 37 36 29
f 28 29 35
f 28 21 29
f 28 35 27
f 28 20 27
f 28 21 20
f 15 22 16
f 15 16 4
f 15 3 4
f 15 2 3
f 15 2 14
f 15 21 14
f 15 22 21
f 45 57 46
f 44 51 43
f 44 37 43
f 30 29 23
f 30 37 29
f 38 39 32
f 38 39 46
f 38 45 46
f 31 38 32
f 24 25 17
f 24 25 32
f 24 31 32
f 53 55 56
f 53 52 56
f 30 16 4
f 30 51 4
f 30 16 23
f 30 44 51
f 30 44 37
f 24 57 10
f 24 17 10
f 24 45 57
f 24 38 45
f 24 31 38
