o torus_vhacd32_2
v -0.972155 0.006289 -0.751346
v -0.945583 0.131289 -0.730956
v -0.872986 0.222796 -0.675251
v -0.773816 0.256289 -0.599156
v -0.674647 0.222796 -0.523061
v -0.602050 0.131289 -0.467355
v -0.575478 0.006289 -0.446965
v -0.602050 -0.118711 -0.467355
v -0.674647 -0.210217 -0.523061
v -0.773816 -0.243711 -0.599156
v -0.872986 -0.210217 -0.675251
v -0.945583 -0.118711 -0.730956
v -1.062995 0.006289 -0.615395
v -1.033988 0.131289 -0.598648
v -0.954742 0.222796 -0.552895
v -0.846488 0.256289 -0.490395
v -0.846488 -0.243711 -0.490395
v -0.954742 -0.210217 -0.552895
v -1.033988 -0.118711 -0.598648
v -1.135312 0.006289 -0.468749
v -1.104368 0.131289 -0.455931
v -1.019827 0.222796 -0.420913
v -0.904343 0.256289 -0.373078
v -0.904343 -0.243711 -0.373078
v -1.019827 -0.210217 -0.420913
v -1.104368 -0.118711 -0.455931
v -1.187871 0.006289 -0.313918
v -1.155518 0.131289 -0.305249
v -1.067130 0.222796 -0.281566
v -0.946389 0.256289 -0.249213
v -0.825648 0.222796 -0.216861
v -0.737260 0.131289 -0.193177
v -0.704908 0.006289 -0.184508
v -0.737260 -0.118711 -0.193177
v -0.825648 -0.210217 -0.216861
v -0.946389 -0.243711 -0.249213
v -1.067130 -0.210217 -0.281566
v -1.155518 -0.118711 -0.305249
f 1 4 10
f 36 35 10
f 38 36 37
f 34 8 7
f 34 8 35
f 34 36 35
f 9 35 10
f 9 8 35
f 5 31 4
f 3 1 4
f 24 36 37
f 11 1 10
f 11 12 1
f 6 8 7
f 6 32 7
f 6 5 31
f 6 32 31
f 2 3 1
f 26 38 37
f 26 38 27
f 25 24 37
f 25 26 37
f 18 11 12
f 18 19 12
f 18 26 19
f 18 25 26
f 18 17 10
f 18 11 10
f 18 17 24
f 18 25 24
f 33 34 7
f 33 32 7
f 33 34 36
f 33 38 36
f 15 2 14
f 15 2 3
f 15 3 4
f 21 15 14
f 28 21 27
f 28 21 29
f 28 38 27
f 28 33 38
f 13 26 19
f 13 12 1
f 13 19 12
f 13 21 14
f 13 2 1
f 13 2 14
f 22 21 29
f 22 21 15
f 22 23 29
f 22 23 15
f 20 26 27
f 20 13 26
f 20 21 27
f 20 13 21
f 16 15 4
f 16 23 15
f 30 23 29
f 30 28 29
f 30 31 4
f 30 32 31
f 30 33 32
f 30 28 33
f 5 9 10
f 5 4 10
f 6 5 9
f 6 9 8
f 17 24 36
f 17 36 10
f 30 16 23
f 30 16 4
