o torus_vhacd64_39
v 0.903420 0.006289 0.893490
v 0.879736 0.131289 0.869806
v 0.815032 0.222796 0.805101
v 0.726643 0.256289 0.716713
v 0.638255 0.222796 0.628325
v 0.573550 0.131289 0.563620
v 0.549867 0.006289 0.539936
v 0.573550 -0.118711 0.563620
v 0.638255 -0.210217 0.628325
v 0.726643 -0.243711 0.716713
v 0.815032 -0.210217 0.805101
v 0.879736 -0.118711 0.869806
v 1.011229 0.006289 0.770557
v 0.984656 0.131289 0.750168
v 0.912059 0.222796 0.694462
v 0.812890 0.256289 0.618367
v 0.713721 0.222796 0.542272
v 0.641124 0.131289 0.486566
v 0.614552 0.006289 0.466177
v 0.641124 -0.118711 0.486566
v 0.713721 -0.210217 0.542272
v 0.812890 -0.243711 0.618367
v 0.912059 -0.210217 0.694462
v 0.984656 -0.118711 0.750168
f 12 11 10
f 2 3 4
f 9 21 10
f 22 11 10
f 22 23 11
f 22 21 10
f 22 23 13
f 24 12 11
f 24 23 11
f 24 23 13
f 24 12 1
f 24 1 13
f 20 18 13
f 20 22 13
f 20 22 21
f 20 8 7
f 20 9 8
f 20 9 21
f 5 17 4
f 5 18 17
f 14 15 13
f 14 2 1
f 14 1 13
f 14 2 3
f 14 15 3
f 16 18 13
f 16 15 13
f 16 18 17
f 16 17 4
f 16 3 4
f 16 15 3
f 19 18 7
f 19 20 7
f 19 20 18
f 6 18 7
f 6 5 18
f 6 8 7
f 6 12 10
f 6 2 4
f 6 9 10
f 6 12 1
f 6 2 1
f 6 9 8
f 6 5 4
