o torus_vhacd64_9
v -0.741415 0.006289 -0.982086
v -0.721025 0.131289 -0.955514
v -0.665320 0.222796 -0.882917
v -0.589225 0.256289 -0.783748
v -0.513129 0.222796 -0.684578
v -0.457424 0.131289 -0.611982
v -0.437034 0.006289 -0.585409
v -0.457424 -0.118711 -0.611982
v -0.513129 -0.210217 -0.684578
v -0.589225 -0.243711 -0.783748
v -0.665320 -0.210217 -0.882917
v -0.721025 -0.118711 -0.955514
f 2 12 1
f 4 10 7
f 11 12 1
f 11 12 10
f 3 2 1
f 3 4 2
f 5 4 7
f 5 4 2
f 9 12 10
f 9 8 12
f 9 10 7
f 9 8 7
f 6 5 2
f 6 8 7
f 6 5 7
f 3 4 10
f 3 11 1
f 3 11 10
f 6 8 12
f 6 2 12
