o torus_vhacd64_21
v 0.644537 0.006289 -1.072926
v 0.627790 0.131289 -1.043920
v 0.582037 0.222796 -0.964673
v 0.519537 0.256289 -0.856420
v 0.457037 0.222796 -0.748167
v 0.411284 0.131289 -0.668920
v 0.394537 0.006289 -0.639913
v 0.411284 -0.118711 -0.668920
v 0.457037 -0.210217 -0.748167
v 0.519537 -0.243711 -0.856420
v 0.582037 -0.210217 -0.964673
v 0.627790 -0.118711 -1.043920
v 0.306550 0.006289 -0.683304
f 12 1 13
f 8 7 13
f 2 1 13
f 5 4 13
f 3 7 1
f 3 2 1
f 3 4 13
f 3 2 13
f 11 12 1
f 11 7 1
f 11 10 13
f 11 12 13
f 11 8 10
f 11 8 7
f 9 10 13
f 9 8 13
f 9 8 10
f 6 5 4
f 6 3 7
f 6 3 4
f 6 7 13
f 6 5 13
