o torus_capsule32_19
v 0.072043 0.037896 0.012802
v 0.076345 0.039201 0.009798
v 0.079219 0.040073 0.005303
v 0.080228 0.040379 0.000000
v 0.079219 0.040073 -0.005303
v 0.076345 0.039201 -0.009798
v 0.072043 0.037896 -0.012802
v 0.057822 0.028126 -0.011142
v 0.054554 0.027134 -0.006030
v 0.053406 0.026786 -0.000000
v 0.054554 0.027134 0.006030
v 0.057822 0.028126 0.011142
v 0.061051 0.044118 0.015757
v 0.066368 0.046961 0.014557
v 0.070877 0.049370 0.011142
v 0.073889 0.050980 0.006030
v 0.074947 0.051546 0.000000
v 0.073889 0.050980 -0.006030
v 0.070877 0.049370 -0.011142
v 0.066368 0.046961 -0.014557
v 0.061051 0.044118 -0.015757
v 0.067435 0.035484 0.013856
v 0.064123 0.039520 0.015757
v 0.051270 0.055181 0.015757
v 0.047958 0.059217 0.013856
v 0.068784 0.043345 0.014557
v 0.055932 0.059006 0.014557
v 0.075757 0.036807 0.007272
v 0.072736 0.046588 0.011142
v 0.059883 0.062249 0.011142
v 0.050879 0.067121 0.007272
v 0.075376 0.048755 0.006030
v 0.062524 0.064416 0.006030
v 0.076303 0.049516 0.000000
v 0.063451 0.065177 0.000000
v 0.075376 0.048755 -0.006030
v 0.062524 0.064416 -0.006030
v 0.075757 0.036807 -0.007272
v 0.072736 0.046588 -0.011142
v 0.059883 0.062249 -0.011142
v 0.050879 0.067121 -0.007272
v 0.068784 0.043345 -0.014557
v 0.055932 0.059006 -0.014557
v 0.067435 0.035484 -0.013856
v 0.064123 0.039520 -0.015757
v 0.051270 0.055181 -0.015757
v 0.047958 0.059217 -0.013856
v 0.063336 0.032120 -0.012802
v 0.059462 0.035695 -0.014557
v 0.046609 0.051355 -0.014557
v 0.043859 0.055853 -0.012802
v 0.063336 0.032120 0.012802
v 0.059462 0.035695 0.014557
v 0.046609 0.051355 0.014557
v 0.043859 0.055853 0.012802
v 0.055181 0.051270 0.015757
v 0.059006 0.055932 0.014557
v 0.062249 0.059883 0.011142
v 0.064416 0.062524 0.006030
v 0.065177 0.063451 0.000000
v 0.064416 0.062524 -0.006030
v 0.062249 0.059883 -0.011142
v 0.059006 0.055932 -0.014557
v 0.055181 0.051270 -0.015757
v 0.051223 0.063266 0.012802
v 0.053342 0.067230 0.009798
v 0.054758 0.069879 0.005303
v 0.055255 0.070809 0.000000
v 0.054758 0.069879 -0.005303
v 0.053342 0.067230 -0.009798
v 0.051223 0.063266 -0.012802
v 0.038866 0.051224 -0.011142
v 0.037256 0.048212 -0.006030
v 0.036690 0.047154 -0.000000
v 0.037256 0.048212 0.006030
v 0.038866 0.051224 0.011142
f 8 38 48
f 73 10 74
f 73 8 72
f 75 10 74
f 75 73 74
f 51 41 47
f 51 41 72
f 51 50 47
f 51 50 72
f 18 36 19
f 34 36 4
f 46 50 47
f 70 43 40
f 9 73 10
f 9 73 8
f 49 50 72
f 49 8 72
f 49 8 48
f 11 75 10
f 11 75 12
f 11 9 10
f 23 53 22
f 52 53 22
f 52 53 12
f 76 75 12
f 76 53 12
f 61 18 19
f 61 18 60
f 28 38 4
f 28 52 12
f 28 52 22
f 3 28 4
f 3 28 2
f 33 35 68
f 64 63 21
f 69 70 40
f 69 41 68
f 69 70 41
f 71 41 47
f 71 70 41
f 71 70 43
f 71 46 43
f 71 46 47
f 54 76 53
f 54 24 25
f 7 6 38
f 7 42 6
f 5 38 4
f 5 6 38
f 5 36 4
f 62 61 19
f 62 63 19
f 1 28 22
f 1 28 2
f 1 23 22
f 31 41 68
f 20 63 19
f 20 63 21
f 39 42 6
f 39 36 19
f 39 20 19
f 39 20 42
f 39 5 36
f 39 5 6
f 45 20 21
f 45 20 42
f 45 7 42
f 37 69 40
f 37 35 68
f 37 69 68
f 56 57 13
f 14 23 13
f 14 57 13
f 27 66 30
f 55 54 25
f 55 54 76
f 55 31 76
f 55 31 25
f 67 31 68
f 67 31 66
f 67 33 68
f 67 66 30
f 67 33 30
f 17 16 60
f 17 18 60
f 17 18 36
f 17 34 36
f 59 16 60
f 32 34 4
f 32 3 4
f 32 17 34
f 32 17 16
f 44 45 49
f 44 49 48
f 44 45 7
f 44 38 48
f 44 7 38
f 26 1 23
f 26 14 23
f 26 1 2
f 15 14 57
f 15 59 16
f 15 32 16
f 65 27 24
f 65 24 25
f 65 27 66
f 65 31 25
f 65 31 66
f 58 15 57
f 58 15 59
f 29 26 2
f 29 15 32
f 29 26 14
f 29 15 14
f 29 3 2
f 29 32 3
f 11 9 8
f 11 8 12
f 76 75 73
f 76 73 72
f 28 8 12
f 28 8 38
f 64 63 43
f 64 46 43
f 54 23 24
f 54 23 53
f 62 63 43
f 62 43 40
f 31 76 72
f 31 41 72
f 45 64 46
f 45 64 21
f 45 46 50
f 45 49 50
f 37 62 40
f 37 62 61
f 37 35 60
f 37 61 60
f 56 23 24
f 56 23 13
f 27 56 24
f 27 56 57
f 59 35 60
f 59 33 35
f 58 27 57
f 58 27 30
f 58 59 33
f 58 33 30
