o torus_capsule32_8
v -0.008739 -0.063703 -0.011142
v -0.007747 -0.060435 -0.006030
v -0.007399 -0.059287 -0.000000
v -0.007747 -0.060435 0.006030
v -0.008739 -0.063703 0.011142
v -0.008516 -0.080955 0.012802
v -0.009820 -0.085257 0.009798
v -0.010692 -0.088132 0.005303
v -0.010999 -0.089141 0.000000
v -0.010692 -0.088132 -0.005303
v -0.009820 -0.085257 -0.009798
v -0.008516 -0.080955 -0.012802
v 0.002765 -0.075272 -0.015757
v 0.002765 -0.075272 0.015757
v 0.002174 -0.081273 0.014557
v 0.001673 -0.086361 0.011142
v 0.001338 -0.089760 0.006030
v 0.001221 -0.090953 0.000000
v 0.001338 -0.089760 -0.006030
v 0.001673 -0.086361 -0.011142
v 0.002174 -0.081273 -0.014557
v -0.007961 -0.075784 -0.013856
v -0.002765 -0.075272 -0.015757
v 0.017397 -0.073287 -0.015757
v 0.022593 -0.072775 -0.013856
v -0.008481 -0.070507 -0.012802
v -0.003356 -0.069271 -0.014557
v 0.016806 -0.067286 -0.014557
v 0.022073 -0.067498 -0.012802
v -0.008481 -0.070507 0.012802
v -0.003356 -0.069271 0.014557
v 0.016806 -0.067286 0.014557
v 0.022073 -0.067498 0.012802
v -0.007961 -0.075784 0.013856
v -0.002765 -0.075272 0.015757
v 0.017397 -0.073287 0.015757
v 0.022593 -0.072775 0.013856
v -0.002174 -0.081273 0.014557
v 0.017988 -0.079287 0.014557
v -0.011485 -0.083439 0.007272
v -0.001673 -0.086361 0.011142
v 0.018489 -0.084375 0.011142
v 0.027542 -0.079595 0.007272
v -0.001338 -0.089760 0.006030
v 0.018824 -0.087774 0.006030
v -0.001221 -0.090953 0.000000
v 0.018941 -0.088968 0.000000
v -0.001338 -0.089760 -0.006030
v 0.018824 -0.087774 -0.006030
v -0.011485 -0.083439 -0.007272
v -0.001673 -0.086361 -0.011142
v 0.018489 -0.084375 -0.011142
v 0.027542 -0.079595 -0.007272
v -0.002174 -0.081273 -0.014557
v 0.017988 -0.079287 -0.014557
v 0.011973 -0.074365 -0.015757
v 0.011973 -0.074365 0.015757
v 0.013723 -0.080136 0.014557
v 0.015207 -0.085027 0.011142
v 0.016199 -0.088296 0.006030
v 0.016547 -0.089444 0.000000
v 0.016199 -0.088296 -0.006030
v 0.015207 -0.085027 -0.011142
v 0.013723 -0.080136 -0.014557
v 0.020999 -0.060774 -0.011142
v 0.019389 -0.057762 -0.006030
v 0.018823 -0.056704 -0.000000
v 0.019389 -0.057762 0.006030
v 0.020999 -0.060774 0.011142
v 0.024146 -0.077739 0.012802
v 0.026265 -0.081703 0.009798
v 0.027681 -0.084352 0.005303
v 0.028178 -0.085282 0.000000
v 0.027681 -0.084352 -0.005303
v 0.026265 -0.081703 -0.009798
v 0.024146 -0.077739 -0.012802
f 39 58 59
f 66 3 67
f 66 3 2
f 1 66 2
f 1 66 65
f 1 3 2
f 53 76 25
f 24 76 25
f 47 49 73
f 42 39 59
f 42 71 39
f 68 3 67
f 68 66 67
f 32 37 36
f 26 22 50
f 26 1 50
f 27 1 65
f 27 26 1
f 27 26 22
f 74 49 73
f 74 53 73
f 43 53 73
f 29 53 65
f 29 53 25
f 55 24 76
f 55 56 24
f 5 68 69
f 5 1 3
f 33 43 69
f 33 43 37
f 33 32 69
f 33 32 37
f 70 43 71
f 70 43 37
f 70 71 39
f 70 39 36
f 70 37 36
f 28 27 65
f 28 29 65
f 28 24 25
f 28 29 25
f 23 27 22
f 12 54 11
f 12 50 11
f 12 22 50
f 12 23 54
f 12 23 22
f 64 55 56
f 64 21 13
f 64 56 13
f 52 74 49
f 45 42 59
f 45 60 59
f 45 47 73
f 45 60 47
f 15 58 59
f 15 16 59
f 31 32 69
f 31 5 69
f 4 68 3
f 4 5 3
f 4 5 68
f 30 5 40
f 30 31 5
f 75 52 74
f 75 53 76
f 75 74 53
f 75 55 76
f 75 52 55
f 63 64 55
f 63 52 55
f 63 64 21
f 63 20 21
f 63 52 49
f 63 20 19
f 17 60 59
f 17 16 59
f 61 60 47
f 61 18 19
f 61 17 60
f 61 17 18
f 8 41 44
f 9 8 44
f 9 8 40
f 9 50 40
f 51 54 11
f 72 45 73
f 72 43 73
f 72 43 71
f 72 42 71
f 72 45 42
f 34 6 40
f 34 30 40
f 34 35 6
f 34 35 31
f 34 30 31
f 62 63 49
f 62 63 19
f 62 61 19
f 62 47 49
f 62 61 47
f 7 8 41
f 7 6 40
f 7 8 40
f 46 9 48
f 46 9 44
f 10 50 11
f 10 9 50
f 10 9 48
f 10 51 48
f 10 51 11
f 14 15 58
f 38 35 6
f 38 7 41
f 38 7 6
f 57 14 58
f 57 39 36
f 57 39 58
f 68 66 65
f 68 65 69
f 43 65 69
f 43 53 65
f 5 1 50
f 5 50 40
f 23 54 21
f 23 21 13
f 23 56 13
f 23 56 24
f 23 28 24
f 23 28 27
f 17 16 41
f 17 41 44
f 51 20 19
f 51 19 48
f 51 54 21
f 51 20 21
f 35 31 32
f 35 32 36
f 46 19 48
f 46 18 19
f 46 17 44
f 46 17 18
f 38 14 35
f 38 14 15
f 38 16 41
f 38 15 16
f 57 35 36
f 57 14 35
