o torus_capsule32_11
v 0.028126 -0.057822 -0.011142
v 0.027134 -0.054554 -0.006030
v 0.026786 -0.053406 -0.000000
v 0.027134 -0.054554 0.006030
v 0.028126 -0.057822 0.011142
v 0.037896 -0.072043 0.012802
v 0.039201 -0.076345 0.009798
v 0.040073 -0.079219 0.005303
v 0.040379 -0.080228 0.000000
v 0.040073 -0.079219 -0.005303
v 0.039201 -0.076345 -0.009798
v 0.037896 -0.072043 -0.012802
v 0.044118 -0.061051 -0.015757
v 0.044118 -0.061051 0.015757
v 0.046961 -0.066368 0.014557
v 0.049370 -0.070877 0.011142
v 0.050980 -0.073889 0.006030
v 0.051546 -0.074947 0.000000
v 0.050980 -0.073889 -0.006030
v 0.049370 -0.070877 -0.011142
v 0.046961 -0.066368 -0.014557
v 0.035484 -0.067435 -0.013856
v 0.039520 -0.064123 -0.015757
v 0.055181 -0.051270 -0.015757
v 0.059217 -0.047958 -0.013856
v 0.032120 -0.063336 -0.012802
v 0.035695 -0.059462 -0.014557
v 0.051355 -0.046609 -0.014557
v 0.055853 -0.043859 -0.012802
v 0.032120 -0.063336 0.012802
v 0.035695 -0.059462 0.014557
v 0.051355 -0.046609 0.014557
v 0.055853 -0.043859 0.012802
v 0.035484 -0.067435 0.013856
v 0.039520 -0.064123 0.015757
v 0.055181 -0.051270 0.015757
v 0.059217 -0.047958 0.013856
v 0.043345 -0.068784 0.014557
v 0.059006 -0.055932 0.014557
v 0.036807 -0.075757 0.007272
v 0.046588 -0.072736 0.011142
v 0.062249 -0.059883 0.011142
v 0.067121 -0.050879 0.007272
v 0.048755 -0.075376 0.006030
v 0.064416 -0.062524 0.006030
v 0.049516 -0.076303 0.000000
v 0.065177 -0.063451 0.000000
v 0.048755 -0.075376 -0.006030
v 0.064416 -0.062524 -0.006030
v 0.036807 -0.075757 -0.007272
v 0.046588 -0.072736 -0.011142
v 0.062249 -0.059883 -0.011142
v 0.067121 -0.050879 -0.007272
v 0.043345 -0.068784 -0.014557
v 0.059006 -0.055932 -0.014557
v 0.051270 -0.055181 -0.015757
v 0.051270 -0.055181 0.015757
v 0.055932 -0.059006 0.014557
v 0.059883 -0.062249 0.011142
v 0.062524 -0.064416 0.006030
v 0.063451 -0.065177 0.000000
v 0.062524 -0.064416 -0.006030
v 0.059883 -0.062249 -0.011142
v 0.055932 -0.059006 -0.014557
v 0.051224 -0.038866 -0.011142
v 0.048212 -0.037256 -0.006030
v 0.047154 -0.036690 -0.000000
v 0.048212 -0.037256 0.006030
v 0.051224 -0.038866 0.011142
v 0.063266 -0.051223 0.012802
v 0.067230 -0.053342 0.009798
v 0.069879 -0.054758 0.005303
v 0.070809 -0.055255 0.000000
v 0.069879 -0.054758 -0.005303
v 0.067230 -0.053342 -0.009798
v 0.063266 -0.051223 -0.012802
f 1 27 65
f 1 27 26
f 1 50 26
f 74 53 73
f 43 53 73
f 28 27 65
f 40 50 9
f 40 34 30
f 40 5 30
f 66 1 65
f 66 67 3
f 57 58 14
f 12 50 11
f 10 48 9
f 10 50 9
f 10 50 11
f 46 48 9
f 33 43 69
f 33 43 37
f 56 64 13
f 29 53 65
f 29 28 65
f 75 74 53
f 75 76 53
f 55 76 24
f 55 75 76
f 31 5 30
f 31 34 30
f 31 35 34
f 31 5 69
f 68 66 67
f 68 5 69
f 68 4 5
f 68 67 3
f 68 4 3
f 2 4 3
f 2 66 3
f 2 66 1
f 22 12 23
f 22 23 27
f 22 27 26
f 22 50 26
f 22 12 50
f 54 12 23
f 54 12 11
f 19 62 61
f 17 60 61
f 45 47 73
f 70 43 37
f 70 71 43
f 70 36 37
f 39 70 71
f 39 70 36
f 25 28 24
f 25 29 28
f 25 76 24
f 25 76 53
f 25 29 53
f 52 55 75
f 52 75 74
f 6 35 34
f 6 40 34
f 6 7 40
f 8 40 9
f 8 7 40
f 32 31 69
f 32 33 69
f 32 33 37
f 32 36 37
f 21 23 13
f 21 54 23
f 21 64 13
f 51 54 11
f 51 10 11
f 51 10 48
f 51 21 54
f 18 46 48
f 18 19 48
f 18 19 61
f 18 17 61
f 72 45 73
f 72 43 73
f 72 71 43
f 42 39 71
f 42 72 71
f 42 72 45
f 49 52 74
f 49 47 73
f 49 74 73
f 38 6 35
f 38 6 7
f 44 18 46
f 44 18 17
f 44 46 9
f 44 8 9
f 20 64 63
f 20 21 64
f 20 51 21
f 20 62 63
f 20 19 62
f 20 19 48
f 20 51 48
f 16 58 59
f 16 44 17
f 16 60 59
f 16 17 60
f 15 16 58
f 15 58 14
f 15 35 14
f 15 38 35
f 41 38 7
f 41 16 44
f 41 15 38
f 41 15 16
f 41 8 7
f 41 44 8
f 43 53 65
f 43 69 65
f 28 23 24
f 28 23 27
f 40 1 50
f 40 1 5
f 56 23 24
f 56 23 13
f 55 56 24
f 55 56 64
f 68 69 65
f 68 66 65
f 2 1 5
f 2 4 5
f 36 57 14
f 36 35 14
f 45 60 61
f 45 47 61
f 39 36 57
f 39 57 58
f 52 55 64
f 52 64 63
f 32 36 35
f 32 31 35
f 42 39 58
f 42 58 59
f 42 45 60
f 42 60 59
f 49 52 63
f 49 62 63
f 49 47 61
f 49 62 61
