o torus_vhacd32_22
v 0.019537 0.222796 0.884606
v 0.019537 0.131289 0.793099
v 0.019537 0.006289 0.759606
v 0.019537 -0.118711 0.793099
v 0.019537 -0.210217 0.884606
v 0.182694 0.006289 1.248912
v 0.178323 0.131289 1.215705
v 0.166379 0.222796 1.124981
v 0.150063 0.256289 1.001051
v 0.150063 -0.243711 1.001051
v 0.166379 -0.210217 1.124981
v 0.178323 -0.118711 1.215705
v 0.343060 0.006289 1.217013
v 0.334391 0.131289 1.184661
v 0.310708 0.222796 1.096272
v 0.278356 0.256289 0.975532
v 0.278356 -0.243711 0.975532
v 0.310708 -0.210217 1.096272
v 0.334391 -0.118711 1.184661
v 0.497891 0.006289 1.164455
v 0.485074 0.131289 1.133511
v 0.450056 0.222796 1.048970
v 0.402221 0.256289 0.933485
v 0.402221 -0.243711 0.933485
v 0.450056 -0.210217 1.048970
v 0.485074 -0.118711 1.133511
v 0.644537 0.006289 1.092137
v 0.627790 0.131289 1.063131
v 0.582037 0.222796 0.983884
v 0.519537 0.256289 0.875631
v 0.457037 0.222796 0.767378
v 0.411284 0.131289 0.688131
v 0.394537 0.006289 0.659125
v 0.411284 -0.118711 0.688131
v 0.457037 -0.210217 0.767378
v 0.519537 -0.243711 0.875631
v 0.582037 -0.210217 0.983884
v 0.627790 -0.118711 1.063131
f 31 30 1
f 2 31 1
f 5 36 10
f 5 6 1
f 34 4 33
f 20 26 27
f 12 5 6
f 38 26 27
f 9 30 1
f 3 4 33
f 3 2 33
f 32 34 33
f 32 31 30
f 32 2 33
f 32 2 31
f 32 34 27
f 35 5 4
f 35 34 4
f 35 5 36
f 35 34 36
f 22 23 30
f 37 38 26
f 37 38 27
f 37 34 27
f 37 34 36
f 29 22 30
f 29 32 27
f 29 32 30
f 28 29 27
f 16 22 23
f 16 15 22
f 8 9 1
f 8 16 9
f 8 16 15
f 14 13 6
f 14 8 15
f 14 13 20
f 14 15 22
f 19 20 26
f 19 13 20
f 19 12 6
f 19 13 6
f 25 37 26
f 25 19 26
f 25 19 18
f 25 24 36
f 25 37 36
f 25 24 17
f 25 18 17
f 11 5 10
f 11 12 5
f 11 17 10
f 11 18 17
f 11 19 12
f 11 19 18
f 21 29 22
f 21 28 29
f 21 14 22
f 21 14 20
f 21 20 27
f 21 28 27
f 7 14 6
f 7 14 8
f 7 6 1
f 7 8 1
f 3 5 1
f 3 2 1
f 3 5 4
f 24 17 10
f 24 36 10
f 16 9 30
f 16 23 30
