o torus_capsule32_7
v -0.020999 -0.060774 -0.011142
v -0.019389 -0.057762 -0.006030
v -0.018823 -0.056704 -0.000000
v -0.019389 -0.057762 0.006030
v -0.020999 -0.060774 0.011142
v -0.024146 -0.077739 0.012802
v -0.026265 -0.081703 0.009798
v -0.027681 -0.084352 0.005303
v -0.028178 -0.085282 0.000000
v -0.027681 -0.084352 -0.005303
v -0.026265 -0.081703 -0.009798
v -0.024146 -0.077739 -0.012802
v -0.011973 -0.074365 -0.015757
v -0.011973 -0.074365 0.015757
v -0.013723 -0.080136 0.014557
v -0.015207 -0.085027 0.011142
v -0.016199 -0.088296 0.006030
v -0.016547 -0.089444 0.000000
v -0.016199 -0.088296 -0.006030
v -0.015207 -0.085027 -0.011142
v -0.013723 -0.080136 -0.014557
v -0.022593 -0.072775 -0.013856
v -0.017397 -0.073287 -0.015757
v 0.002765 -0.075272 -0.015757
v 0.007961 -0.075784 -0.013856
v -0.022073 -0.067498 -0.012802
v -0.016806 -0.067286 -0.014557
v 0.003356 -0.069271 -0.014557
v 0.008481 -0.070507 -0.012802
v -0.022073 -0.067498 0.012802
v -0.016806 -0.067286 0.014557
v 0.003356 -0.069271 0.014557
v 0.008481 -0.070507 0.012802
v -0.022593 -0.072775 0.013856
v -0.017397 -0.073287 0.015757
v 0.002765 -0.075272 0.015757
v 0.007961 -0.075784 0.013856
v -0.017988 -0.079287 0.014557
v 0.002174 -0.081273 0.014557
v -0.027542 -0.079595 0.007272
v -0.018489 -0.084375 0.011142
v 0.001673 -0.086361 0.011142
v 0.011485 -0.083439 0.007272
v -0.018824 -0.087774 0.006030
v 0.001338 -0.089760 0.006030
v -0.018941 -0.088968 0.000000
v 0.001221 -0.090953 0.000000
v -0.018824 -0.087774 -0.006030
v 0.001338 -0.089760 -0.006030
v -0.027542 -0.079595 -0.007272
v -0.018489 -0.084375 -0.011142
v 0.001673 -0.086361 -0.011142
v 0.011485 -0.083439 -0.007272
v -0.017988 -0.079287 -0.014557
v 0.002174 -0.081273 -0.014557
v -0.002765 -0.075272 -0.015757
v -0.002765 -0.075272 0.015757
v -0.002174 -0.081273 0.014557
v -0.001673 -0.086361 0.011142
v -0.001338 -0.089760 0.006030
v -0.001221 -0.090953 0.000000
v -0.001338 -0.089760 -0.006030
v -0.001673 -0.086361 -0.011142
v -0.002174 -0.081273 -0.014557
v 0.008739 -0.063703 -0.011142
v 0.007747 -0.060435 -0.006030
v 0.007399 -0.059287 -0.000000
v 0.007747 -0.060435 0.006030
v 0.008739 -0.063703 0.011142
v 0.008516 -0.080955 0.012802
v 0.009820 -0.085257 0.009798
v 0.010692 -0.088132 0.005303
v 0.010999 -0.089141 0.000000
v 0.010692 -0.088132 -0.005303
v 0.009820 -0.085257 -0.009798
v 0.008516 -0.080955 -0.012802
f 66 67 65
f 2 1 65
f 2 66 65
f 2 67 3
f 2 66 67
f 69 67 65
f 34 40 30
f 46 19 18
f 73 53 43
f 50 40 9
f 50 1 26
f 55 52 75
f 27 1 26
f 28 25 24
f 28 1 65
f 28 27 1
f 38 15 16
f 4 67 3
f 4 2 3
f 33 69 43
f 33 37 43
f 62 19 18
f 10 11 51
f 10 50 9
f 10 50 11
f 8 40 9
f 8 40 7
f 74 73 49
f 74 52 49
f 74 52 75
f 74 53 75
f 74 73 53
f 72 73 43
f 17 60 16
f 17 60 18
f 17 46 18
f 47 73 49
f 12 50 11
f 29 53 65
f 29 25 53
f 29 28 65
f 29 28 25
f 76 25 24
f 76 55 24
f 76 55 75
f 76 53 75
f 76 25 53
f 14 57 15
f 14 38 35
f 14 38 15
f 6 34 35
f 6 38 35
f 6 38 7
f 6 40 7
f 6 34 40
f 41 38 16
f 41 38 7
f 41 8 7
f 68 69 67
f 68 4 67
f 68 4 69
f 5 4 69
f 5 40 30
f 48 10 51
f 48 46 19
f 48 46 9
f 48 10 9
f 44 17 46
f 44 46 9
f 44 8 9
f 44 41 8
f 44 17 16
f 44 41 16
f 58 15 16
f 58 57 15
f 59 60 16
f 59 58 16
f 45 42 72
f 45 72 73
f 45 47 73
f 71 42 72
f 71 72 43
f 61 62 18
f 61 60 18
f 22 23 27
f 22 27 26
f 22 12 23
f 22 50 26
f 22 12 50
f 20 62 19
f 20 48 51
f 20 48 19
f 54 12 23
f 54 20 51
f 54 23 13
f 54 11 51
f 54 12 11
f 32 5 69
f 32 33 69
f 32 33 37
f 32 36 37
f 70 37 43
f 70 71 43
f 70 36 37
f 63 20 64
f 63 20 62
f 21 54 13
f 21 56 13
f 21 64 56
f 21 20 64
f 21 54 20
f 31 32 5
f 31 5 30
f 31 34 35
f 31 34 30
f 39 70 36
f 39 71 42
f 39 70 71
f 69 53 65
f 69 53 43
f 23 28 27
f 23 28 24
f 56 23 24
f 56 23 13
f 64 56 24
f 64 55 24
f 36 14 57
f 36 14 35
f 5 4 2
f 5 2 1
f 5 50 1
f 5 50 40
f 45 59 42
f 45 59 60
f 61 47 49
f 61 62 49
f 61 45 60
f 61 45 47
f 63 64 55
f 63 55 52
f 63 62 49
f 63 52 49
f 31 36 35
f 31 32 36
f 39 36 57
f 39 58 57
f 39 59 42
f 39 59 58
