o torus_vhacd32_9
v 0.644537 0.006289 -1.072926
v 0.627790 0.131289 -1.043920
v 0.582037 0.222796 -0.964673
v 0.519537 0.256289 -0.856420
v 0.457037 0.222796 -0.748167
v 0.411284 0.131289 -0.668920
v 0.394537 0.006289 -0.639913
v 0.411284 -0.118711 -0.668920
v 0.457037 -0.210217 -0.748167
v 0.519537 -0.243711 -0.856420
v 0.582037 -0.210217 -0.964673
v 0.627790 -0.118711 -1.043920
v 0.497891 0.006289 -1.145244
v 0.485074 0.131289 -1.114299
v 0.450056 0.222796 -1.029759
v 0.402221 0.256289 -0.914274
v 0.402221 -0.243711 -0.914274
v 0.450056 -0.210217 -1.029759
v 0.485074 -0.118711 -1.114299
v 0.343061 0.006289 -1.197802
v 0.334392 0.131289 -1.165449
v 0.310708 0.222796 -1.077061
v 0.278356 0.256289 -0.956320
v 0.278356 -0.243711 -0.956320
v 0.310708 -0.210217 -1.077061
v 0.334392 -0.118711 -1.165449
v 0.182694 0.006289 -1.229700
v 0.178323 0.131289 -1.196493
v 0.166379 0.222796 -1.105770
v 0.150063 0.256289 -0.981839
v 0.150063 -0.243711 -0.981839
v 0.166379 -0.210217 -1.105770
v 0.178323 -0.118711 -1.196493
v 0.019537 0.222796 -0.865394
v 0.019537 0.131289 -0.773888
v 0.019537 0.006289 -0.740394
v 0.019537 -0.118711 -0.773888
v 0.019537 -0.210217 -0.865394
f 38 27 34
f 21 29 22
f 3 7 1
f 3 7 6
f 28 21 29
f 28 29 34
f 28 27 34
f 28 20 27
f 28 20 21
f 2 3 1
f 5 6 34
f 33 32 26
f 33 20 27
f 33 20 26
f 33 38 27
f 33 32 38
f 31 32 38
f 31 32 24
f 31 38 10
f 9 38 10
f 9 8 10
f 9 8 38
f 35 7 6
f 35 36 7
f 35 6 34
f 37 8 7
f 37 36 7
f 37 8 38
f 13 20 21
f 13 2 1
f 13 12 1
f 13 20 26
f 14 13 21
f 14 13 2
f 30 29 34
f 17 18 10
f 11 18 10
f 11 18 12
f 11 12 1
f 11 7 1
f 11 8 10
f 11 8 7
f 19 18 26
f 19 18 12
f 19 13 26
f 19 13 12
f 25 32 26
f 25 18 26
f 25 32 24
f 25 17 24
f 25 17 18
f 15 21 22
f 15 14 21
f 15 2 3
f 15 14 2
f 4 3 6
f 4 5 6
f 4 15 3
f 4 5 34
f 4 30 34
f 16 4 15
f 16 15 22
f 23 16 22
f 23 29 22
f 23 30 29
f 37 35 34
f 37 38 34
f 37 35 36
f 17 31 24
f 17 31 10
f 23 16 4
f 23 4 30
