o torus_vhacd64_48
v -0.143622 0.006289 1.248912
v -0.139250 0.131289 1.215704
v -0.127306 0.222796 1.124981
v -0.110990 0.256289 1.001050
v -0.094674 0.222796 0.877120
v -0.082730 0.131289 0.786396
v -0.078358 0.006289 0.753189
v -0.082730 -0.118711 0.786396
v -0.094674 -0.210217 0.877120
v -0.110990 -0.243711 1.001050
v -0.127306 -0.210217 1.124981
v -0.139250 -0.118711 1.215704
v 0.019537 0.006289 1.259606
v 0.019537 0.131289 1.226112
v 0.019537 0.222796 1.134606
v 0.019537 0.256289 1.009606
v 0.019537 0.222796 0.884606
v 0.019537 0.131289 0.793099
v 0.019537 0.006289 0.759606
v 0.019537 -0.118711 0.793099
v 0.019537 -0.210217 0.884606
v 0.019537 -0.243711 1.009606
v 0.019537 -0.210217 1.134606
v 0.019537 -0.118711 1.226112
f 24 13 1
f 11 24 23
f 14 13 1
f 3 6 1
f 3 6 4
f 3 14 15
f 8 11 10
f 8 7 6
f 8 6 1
f 8 11 1
f 12 24 1
f 12 11 1
f 12 11 24
f 22 21 10
f 22 11 10
f 22 11 23
f 2 14 1
f 2 3 1
f 2 3 14
f 18 7 19
f 18 7 6
f 16 17 4
f 16 3 4
f 16 3 15
f 5 6 4
f 5 17 4
f 5 18 17
f 5 18 6
f 9 21 10
f 9 8 10
f 20 7 19
f 20 8 7
f 20 9 21
f 20 9 8
f 20 24 13
f 20 16 15
f 20 14 13
f 20 24 23
f 20 22 23
f 20 14 15
f 20 18 19
f 20 22 21
f 20 18 17
f 20 16 17
