o torus_vhacd32_12
v 1.102069 0.006289 -0.615394
v 1.073062 0.131289 -0.598648
v 0.993815 0.222796 -0.552894
v 0.885562 0.256289 -0.490394
v 0.777309 0.222796 -0.427894
v 0.698062 0.131289 -0.382141
v 0.669056 0.006289 -0.365394
v 0.698062 -0.118711 -0.382141
v 0.777309 -0.210217 -0.427894
v 0.885562 -0.243711 -0.490394
v 0.993815 -0.210217 -0.552894
v 1.073062 -0.118711 -0.598648
v 1.011229 0.006289 -0.751346
v 0.984656 0.131289 -0.730956
v 0.912059 0.222796 -0.675251
v 0.812890 0.256289 -0.599156
v 0.812890 -0.243711 -0.599156
v 0.912059 -0.210217 -0.675251
v 0.984656 -0.118711 -0.730956
v 0.903420 0.006289 -0.874278
v 0.879737 0.131289 -0.850594
v 0.815032 0.222796 -0.785889
v 0.726644 0.256289 -0.697501
v 0.726644 -0.243711 -0.697501
v 0.815032 -0.210217 -0.785889
v 0.879737 -0.118711 -0.850594
v 0.780489 0.006289 -0.982086
v 0.760099 0.131289 -0.955514
v 0.704394 0.222796 -0.882917
v 0.628298 0.256289 -0.783747
v 0.552203 0.222796 -0.684578
v 0.496498 0.131289 -0.611982
v 0.476108 0.006289 -0.585409
v 0.496498 -0.118711 -0.611982
v 0.552203 -0.210217 -0.684578
v 0.628298 -0.243711 -0.783747
v 0.704394 -0.210217 -0.882917
v 0.760099 -0.118711 -0.955514
f 7 5 1
f 7 8 33
f 31 5 30
f 13 12 1
f 13 12 19
f 37 24 36
f 14 13 21
f 34 8 33
f 35 34 36
f 35 34 8
f 9 10 1
f 9 7 1
f 9 7 8
f 9 35 8
f 9 36 10
f 9 35 36
f 32 34 33
f 32 31 30
f 20 21 27
f 20 13 21
f 38 37 36
f 38 34 36
f 18 12 19
f 18 17 24
f 28 21 27
f 28 29 21
f 28 38 27
f 28 29 30
f 28 32 30
f 15 14 21
f 6 31 5
f 6 32 31
f 6 7 5
f 6 7 33
f 6 32 33
f 26 38 37
f 26 18 19
f 26 13 19
f 26 20 13
f 26 20 27
f 26 38 27
f 11 18 12
f 11 10 1
f 11 12 1
f 11 17 10
f 11 18 17
f 22 29 21
f 22 15 21
f 4 5 30
f 4 5 1
f 3 4 1
f 25 26 37
f 25 26 18
f 25 37 24
f 25 18 24
f 23 22 15
f 23 29 30
f 23 22 29
f 2 15 14
f 2 3 15
f 2 3 1
f 2 13 1
f 2 14 13
f 16 23 15
f 16 3 15
f 16 3 4
f 17 24 36
f 17 36 10
f 28 38 34
f 28 32 34
f 16 23 30
f 16 4 30
