o torus_vhacd64_55
v -0.864347 0.006289 0.893489
v -0.840663 0.131289 0.869805
v -0.775958 0.222796 0.805101
v -0.687570 0.256289 0.716712
v -0.599182 0.222796 0.628324
v -0.534477 0.131289 0.563619
v -0.510793 0.006289 0.539936
v -0.534477 -0.118711 0.563619
v -0.599182 -0.210217 0.628324
v -0.687570 -0.243711 0.716712
v -0.775958 -0.210217 0.805101
v -0.840663 -0.118711 0.869805
v -0.741416 0.006289 1.001297
v -0.721026 0.131289 0.974725
v -0.665320 0.222796 0.902128
v -0.589225 0.256289 0.802959
v -0.513130 0.222796 0.703790
v -0.457424 0.131289 0.631193
v -0.437034 0.006289 0.604621
v -0.457424 -0.118711 0.631193
v -0.513130 -0.210217 0.703790
v -0.589225 -0.243711 0.802959
v -0.665320 -0.210217 0.902128
v -0.721026 -0.118711 0.974725
f 24 13 1
f 12 24 1
f 15 3 16
f 15 16 19
f 18 16 19
f 18 17 16
f 18 6 19
f 18 6 5
f 18 17 5
f 11 12 10
f 11 12 24
f 11 22 10
f 21 22 10
f 14 24 13
f 14 2 1
f 14 13 1
f 14 15 3
f 14 2 3
f 7 6 8
f 7 8 19
f 7 6 19
f 4 2 3
f 4 3 16
f 4 17 16
f 4 17 5
f 23 11 24
f 23 11 22
f 23 22 19
f 23 15 19
f 9 21 10
f 20 8 19
f 20 22 19
f 20 21 22
f 20 9 8
f 20 9 21
f 23 14 15
f 23 14 24
f 9 6 5
f 9 4 5
f 9 12 1
f 9 12 10
f 9 6 8
f 9 2 1
f 9 4 2
