o torus_vhacd64_30
v 1.258843 0.006289 -0.153552
v 1.225636 0.131289 -0.149180
v 1.134912 0.222796 -0.137236
v 1.010982 0.256289 -0.120920
v 0.887051 0.222796 -0.104605
v 0.796328 0.131289 -0.092661
v 0.763121 0.006289 -0.088289
v 0.796328 -0.118711 -0.092661
v 0.887051 -0.210217 -0.104605
v 1.010982 -0.243711 -0.120920
v 1.134912 -0.210217 -0.137236
v 1.225636 -0.118711 -0.149180
v 1.226944 0.006289 -0.313918
v 1.194592 0.131289 -0.305249
v 1.106204 0.222796 -0.281566
v 0.985463 0.256289 -0.249213
v 0.864722 0.222796 -0.216861
v 0.776334 0.131289 -0.193177
v 0.743981 0.006289 -0.184509
v 0.776334 -0.118711 -0.193177
v 0.864722 -0.210217 -0.216861
v 0.985463 -0.243711 -0.249213
v 1.106204 -0.210217 -0.281566
v 1.194592 -0.118711 -0.305249
f 4 7 10
f 4 5 16
f 4 15 16
f 17 5 16
f 17 15 19
f 17 15 16
f 23 15 19
f 23 15 13
f 23 22 10
f 14 13 1
f 14 15 13
f 6 7 19
f 6 4 5
f 6 4 7
f 2 14 1
f 2 14 15
f 8 7 10
f 8 7 19
f 8 20 19
f 21 23 19
f 21 23 22
f 21 20 19
f 24 13 1
f 24 23 13
f 11 23 10
f 18 17 5
f 18 6 5
f 18 17 19
f 18 6 19
f 3 4 15
f 3 2 15
f 3 2 4
f 9 8 20
f 9 21 20
f 9 8 10
f 9 22 10
f 9 21 22
f 12 24 23
f 12 11 23
f 12 24 1
f 12 2 1
f 12 11 10
f 12 2 4
f 12 4 10
