o torus_vhacd32_3
v -0.741415 0.006289 -0.982086
v -0.721025 0.131289 -0.955514
v -0.665320 0.222796 -0.882917
v -0.589225 0.256289 -0.783748
v -0.513129 0.222796 -0.684578
v -0.457424 0.131289 -0.611982
v -0.437034 0.006289 -0.585409
v -0.457424 -0.118711 -0.611982
v -0.513129 -0.210217 -0.684578
v -0.589225 -0.243711 -0.783748
v -0.665320 -0.210217 -0.882917
v -0.721025 -0.118711 -0.955514
v -0.864347 0.006289 -0.874277
v -0.840663 0.131289 -0.850594
v -0.775958 0.222796 -0.785889
v -0.687570 0.256289 -0.697501
v -0.687570 -0.243711 -0.697501
v -0.775958 -0.210217 -0.785889
v -0.840663 -0.118711 -0.850594
v -0.972155 0.006289 -0.751346
v -0.945583 0.131289 -0.730956
v -0.872986 0.222796 -0.675251
v -0.773816 0.256289 -0.599156
v -0.773816 -0.243711 -0.599156
v -0.872986 -0.210217 -0.675251
v -0.945583 -0.118711 -0.730956
v -1.062995 0.006289 -0.615395
v -1.033988 0.131289 -0.598648
v -0.954742 0.222796 -0.552895
v -0.846488 0.256289 -0.490395
v -0.738235 0.222796 -0.427895
v -0.658988 0.131289 -0.382141
v -0.629982 0.006289 -0.365395
v -0.658988 -0.118711 -0.382141
v -0.738235 -0.210217 -0.427895
v -0.846488 -0.243711 -0.490395
v -0.954742 -0.210217 -0.552895
v -1.033988 -0.118711 -0.598648
f 36 9 10
f 36 9 35
f 38 37 27
f 12 9 10
f 34 9 35
f 34 36 35
f 34 36 37
f 34 37 27
f 20 21 27
f 11 12 10
f 11 17 10
f 26 38 37
f 26 38 27
f 26 20 27
f 8 12 9
f 8 34 7
f 8 34 9
f 32 5 31
f 32 34 27
f 32 29 27
f 2 12 1
f 2 5 4
f 2 3 4
f 30 5 4
f 30 5 31
f 30 32 31
f 30 32 29
f 22 29 21
f 28 21 27
f 28 29 27
f 28 29 21
f 24 36 37
f 25 26 37
f 25 24 17
f 25 24 37
f 33 34 7
f 33 32 7
f 33 32 34
f 6 2 5
f 6 8 7
f 6 32 7
f 6 32 5
f 16 3 4
f 23 30 29
f 23 22 29
f 23 16 22
f 14 2 3
f 14 22 21
f 14 20 21
f 14 13 20
f 14 13 1
f 14 2 1
f 19 11 12
f 19 25 26
f 19 12 1
f 19 13 1
f 19 26 20
f 19 13 20
f 15 14 3
f 15 14 22
f 15 16 3
f 15 16 22
f 18 19 11
f 18 19 25
f 18 11 17
f 18 25 17
f 24 17 10
f 24 36 10
f 6 2 12
f 6 8 12
f 23 16 4
f 23 30 4
