o torus_capsule32_27
v -0.037896 0.072043 0.012802
v -0.039201 0.076345 0.009798
v -0.040073 0.079219 0.005303
v -0.040379 0.080228 0.000000
v -0.040073 0.079219 -0.005303
v -0.039201 0.076345 -0.009798
v -0.037896 0.072043 -0.012802
v -0.028126 0.057822 -0.011142
v -0.027134 0.054554 -0.006030
v -0.026786 0.053406 -0.000000
v -0.027134 0.054554 0.006030
v -0.028126 0.057822 0.011142
v -0.044118 0.061051 0.015757
v -0.046961 0.066368 0.014557
v -0.049370 0.070877 0.011142
v -0.050980 0.073889 0.006030
v -0.051546 0.074947 0.000000
v -0.050980 0.073889 -0.006030
v -0.049370 0.070877 -0.011142
v -0.046961 0.066368 -0.014557
v -0.044118 0.061051 -0.015757
v -0.035484 0.067435 0.013856
v -0.039520 0.064123 0.015757
v -0.055181 0.051270 0.015757
v -0.059217 0.047958 0.013856
v -0.043345 0.068784 0.014557
v -0.059006 0.055932 0.014557
v -0.036807 0.075757 0.007272
v -0.046588 0.072736 0.011142
v -0.062249 0.059883 0.011142
v -0.067121 0.050879 0.007272
v -0.048755 0.075376 0.006030
v -0.064416 0.062524 0.006030
v -0.049516 0.076303 0.000000
v -0.065177 0.063451 0.000000
v -0.048755 0.075376 -0.006030
v -0.064416 0.062524 -0.006030
v -0.036807 0.075757 -0.007272
v -0.046588 0.072736 -0.011142
v -0.062249 0.059883 -0.011142
v -0.067121 0.050879 -0.007272
v -0.043345 0.068784 -0.014557
v -0.059006 0.055932 -0.014557
v -0.035484 0.067435 -0.013856
v -0.039520 0.064123 -0.015757
v -0.055181 0.051270 -0.015757
v -0.059217 0.047958 -0.013856
v -0.032120 0.063336 -0.012802
v -0.035695 0.059462 -0.014557
v -0.051355 0.046609 -0.014557
v -0.055853 0.043859 -0.012802
v -0.032120 0.063336 0.012802
v -0.035695 0.059462 0.014557
v -0.051355 0.046609 0.014557
v -0.055853 0.043859 0.012802
v -0.051270 0.055181 0.015757
v -0.055932 0.059006 0.014557
v -0.059883 0.062249 0.011142
v -0.062524 0.064416 0.006030
v -0.063451 0.065177 0.000000
v -0.062524 0.064416 -0.006030
v -0.059883 0.062249 -0.011142
v -0.055932 0.059006 -0.014557
v -0.051270 0.055181 -0.015757
v -0.063266 0.051223 0.012802
v -0.067230 0.053342 0.009798
v -0.069879 0.054758 0.005303
v -0.070809 0.055255 0.000000
v -0.069879 0.054758 -0.005303
v -0.067230 0.053342 -0.009798
v -0.063266 0.051223 -0.012802
v -0.051224 0.038866 -0.011142
v -0.048212 0.037256 -0.006030
v -0.047154 0.036690 -0.000000
v -0.048212 0.037256 0.006030
v -0.051224 0.038866 0.011142
f 69 41 68
f 31 41 68
f 12 53 52
f 12 53 76
f 50 49 72
f 28 38 4
f 28 12 52
f 54 53 76
f 73 74 10
f 73 9 10
f 32 34 4
f 39 42 6
f 43 71 46
f 7 42 6
f 7 38 6
f 55 31 76
f 55 54 76
f 51 41 72
f 51 50 72
f 70 69 41
f 70 71 41
f 70 43 71
f 8 49 48
f 8 38 48
f 8 49 72
f 8 73 72
f 8 73 9
f 11 9 10
f 5 38 4
f 5 38 6
f 5 39 6
f 15 14 29
f 15 32 29
f 66 31 65
f 66 27 65
f 75 73 74
f 75 11 12
f 75 12 76
f 75 74 10
f 75 11 10
f 17 32 34
f 37 35 68
f 37 69 68
f 59 15 58
f 63 64 21
f 44 38 48
f 44 7 38
f 44 49 48
f 25 55 54
f 25 31 65
f 25 55 31
f 47 50 46
f 47 51 50
f 47 71 46
f 47 71 41
f 47 51 41
f 57 15 58
f 57 15 14
f 57 14 13
f 57 56 13
f 26 14 29
f 3 32 29
f 3 32 4
f 3 28 4
f 67 31 68
f 67 66 31
f 30 66 27
f 30 67 66
f 18 61 60
f 18 17 60
f 40 70 43
f 40 70 69
f 40 37 69
f 16 17 60
f 16 59 60
f 16 17 32
f 16 15 32
f 16 59 15
f 20 39 42
f 20 63 21
f 45 44 49
f 45 20 21
f 45 20 42
f 45 7 42
f 45 44 7
f 24 27 65
f 24 25 65
f 24 25 54
f 23 14 13
f 23 26 14
f 23 26 1
f 2 1 28
f 2 3 28
f 2 3 29
f 2 26 29
f 2 26 1
f 33 35 68
f 33 67 68
f 33 30 67
f 19 61 62
f 19 18 61
f 19 20 39
f 19 63 62
f 19 20 63
f 36 5 39
f 36 19 39
f 36 19 18
f 36 34 4
f 36 5 4
f 36 17 34
f 36 18 17
f 22 23 53
f 22 53 52
f 22 23 1
f 22 28 52
f 22 1 28
f 31 41 72
f 31 76 72
f 8 28 38
f 8 28 12
f 11 8 12
f 11 8 9
f 75 76 72
f 75 73 72
f 37 61 60
f 37 35 60
f 63 43 46
f 63 64 46
f 30 57 27
f 30 57 58
f 40 37 61
f 40 61 62
f 40 63 43
f 40 63 62
f 45 64 46
f 45 64 21
f 45 50 46
f 45 50 49
f 24 57 27
f 24 57 56
f 23 24 56
f 23 56 13
f 23 54 53
f 23 24 54
f 33 35 60
f 33 59 60
f 33 30 58
f 33 59 58
