o torus_capsule32_18
v 0.078052 0.023113 0.012802
v 0.082526 0.023554 0.009798
v 0.085515 0.023848 0.005303
v 0.086564 0.023951 0.000000
v 0.085515 0.023848 -0.005303
v 0.082526 0.023554 -0.009798
v 0.078052 0.023113 -0.012802
v 0.062198 0.016305 -0.011142
v 0.058799 0.015970 -0.006030
v 0.057606 0.015852 -0.000000
v 0.058799 0.015970 0.006030
v 0.062198 0.016305 0.011142
v 0.068484 0.031360 0.015757
v 0.074255 0.033110 0.014557
v 0.079147 0.034594 0.011142
v 0.082415 0.035586 0.006030
v 0.083563 0.035934 0.000000
v 0.082415 0.035586 -0.006030
v 0.079147 0.034594 -0.011142
v 0.074255 0.033110 -0.014557
v 0.068484 0.031360 -0.015757
v 0.073062 0.021646 0.013856
v 0.070601 0.026251 0.015757
v 0.061051 0.044118 0.015757
v 0.058589 0.048723 0.013856
v 0.075919 0.029093 0.014557
v 0.066368 0.046961 0.014557
v 0.081482 0.021320 0.007272
v 0.080427 0.031503 0.011142
v 0.070877 0.049370 0.011142
v 0.062996 0.055905 0.007272
v 0.083439 0.033113 0.006030
v 0.073889 0.050980 0.006030
v 0.084497 0.033679 0.000000
v 0.074947 0.051546 0.000000
v 0.083439 0.033113 -0.006030
v 0.073889 0.050980 -0.006030
v 0.081482 0.021320 -0.007272
v 0.080427 0.031503 -0.011142
v 0.070877 0.049370 -0.011142
v 0.062996 0.055905 -0.007272
v 0.075919 0.029093 -0.014557
v 0.066368 0.046961 -0.014557
v 0.073062 0.021646 -0.013856
v 0.070601 0.026251 -0.015757
v 0.061051 0.044118 -0.015757
v 0.058589 0.048723 -0.013856
v 0.068386 0.019146 -0.012802
v 0.065283 0.023408 -0.014557
v 0.055733 0.041276 -0.014557
v 0.053913 0.046224 -0.012802
v 0.068386 0.019146 0.012802
v 0.065283 0.023408 0.014557
v 0.055733 0.041276 0.014557
v 0.053913 0.046224 0.012802
v 0.064123 0.039520 0.015757
v 0.068784 0.043345 0.014557
v 0.072736 0.046588 0.011142
v 0.075376 0.048755 0.006030
v 0.076303 0.049516 0.000000
v 0.075376 0.048755 -0.006030
v 0.072736 0.046588 -0.011142
v 0.068784 0.043345 -0.014557
v 0.064123 0.039520 -0.015757
v 0.062581 0.052057 0.012802
v 0.065433 0.055532 0.009798
v 0.067338 0.057854 0.005303
v 0.068007 0.058669 0.000000
v 0.067338 0.057854 -0.005303
v 0.065433 0.055532 -0.009798
v 0.062581 0.052057 -0.012802
v 0.048112 0.042658 -0.011142
v 0.045946 0.040017 -0.006030
v 0.045185 0.039090 -0.000000
v 0.045946 0.040017 0.006030
v 0.048112 0.042658 0.011142
f 8 38 48
f 73 72 74
f 73 8 72
f 11 10 74
f 76 72 74
f 51 41 47
f 51 41 72
f 51 50 47
f 51 50 72
f 18 36 19
f 34 36 4
f 34 18 36
f 46 50 47
f 70 43 40
f 49 50 72
f 49 8 72
f 49 8 48
f 9 11 10
f 9 73 8
f 9 10 74
f 9 73 74
f 75 11 12
f 75 76 12
f 75 11 74
f 75 76 74
f 53 76 12
f 53 52 12
f 53 23 22
f 53 52 22
f 61 18 60
f 61 35 60
f 28 38 4
f 28 52 12
f 28 52 22
f 3 28 4
f 3 28 2
f 26 23 13
f 59 35 60
f 64 46 43
f 64 63 43
f 64 63 21
f 69 70 40
f 69 41 68
f 69 70 41
f 71 41 47
f 71 70 41
f 71 70 43
f 71 46 47
f 71 46 43
f 54 55 76
f 54 53 76
f 54 55 25
f 57 56 13
f 7 6 38
f 7 42 6
f 5 38 4
f 5 6 38
f 5 36 4
f 62 18 19
f 62 61 18
f 62 61 40
f 62 63 19
f 62 43 40
f 62 63 43
f 1 28 22
f 1 28 2
f 1 26 2
f 1 23 22
f 1 26 23
f 31 55 25
f 31 55 76
f 31 41 68
f 29 26 2
f 29 3 2
f 17 18 60
f 17 34 18
f 33 35 68
f 33 59 35
f 33 59 30
f 20 63 19
f 20 42 19
f 20 63 21
f 20 42 21
f 39 42 19
f 39 42 6
f 39 36 19
f 39 5 36
f 39 5 6
f 45 42 21
f 45 7 42
f 37 61 40
f 37 69 40
f 37 61 35
f 37 35 68
f 37 69 68
f 24 54 25
f 27 66 30
f 27 24 56
f 27 57 56
f 67 31 68
f 67 31 66
f 67 33 68
f 67 66 30
f 67 33 30
f 58 59 30
f 58 27 30
f 58 27 57
f 14 26 13
f 14 57 13
f 16 58 59
f 16 59 60
f 16 17 60
f 16 17 34
f 44 45 49
f 44 49 48
f 44 45 7
f 44 38 48
f 44 7 38
f 65 27 66
f 65 31 25
f 65 31 66
f 65 24 25
f 65 27 24
f 15 16 58
f 15 29 26
f 15 14 26
f 15 58 57
f 15 14 57
f 32 29 3
f 32 16 34
f 32 15 29
f 32 15 16
f 32 34 4
f 32 3 4
f 9 11 12
f 9 8 12
f 28 8 12
f 28 8 38
f 31 76 72
f 31 41 72
f 45 64 46
f 45 64 21
f 45 46 50
f 45 49 50
f 24 56 13
f 24 23 13
f 24 53 23
f 24 54 53
