o torus_vhacd64_60
v -1.187871 0.006289 0.333129
v -1.155518 0.131289 0.324461
v -1.067130 0.222796 0.300777
v -0.946389 0.256289 0.268425
v -0.825648 0.222796 0.236072
v -0.737260 0.131289 0.212389
v -0.704908 0.006289 0.203720
v -0.737260 -0.118711 0.212389
v -0.825648 -0.210217 0.236072
v -0.946389 -0.243711 0.268425
v -1.067130 -0.210217 0.300777
v -1.155518 -0.118711 0.324461
v -1.135313 0.006289 0.487960
v -1.104369 0.131289 0.475142
v -1.019828 0.222796 0.440124
v -0.904343 0.256289 0.392289
v -0.788858 0.222796 0.344453
v -0.704317 0.131289 0.309435
v -0.673373 0.006289 0.296618
v -0.704317 -0.118711 0.309435
v -0.788858 -0.210217 0.344453
v -0.904343 -0.243711 0.392289
v -1.019828 -0.210217 0.440124
v -1.104369 -0.118711 0.475142
f 24 13 1
f 15 16 13
f 17 5 16
f 22 11 10
f 14 13 1
f 14 15 13
f 3 15 16
f 3 5 1
f 3 14 15
f 7 8 19
f 18 16 19
f 18 17 16
f 18 17 5
f 12 24 1
f 12 11 1
f 12 11 24
f 20 22 19
f 20 8 19
f 23 11 24
f 23 22 11
f 23 22 13
f 23 24 13
f 4 5 16
f 4 3 16
f 4 3 5
f 2 14 1
f 2 3 1
f 2 3 14
f 6 7 19
f 6 18 19
f 6 7 5
f 6 18 5
f 9 20 8
f 9 11 10
f 9 22 10
f 9 7 8
f 9 11 1
f 9 5 1
f 9 7 5
f 21 20 22
f 21 9 22
f 21 9 20
f 22 16 13
f 22 16 19
