o torus_fine_6
v 0.903420 0.006289 -0.874278
v 0.879737 0.131289 -0.850594
v 0.815032 0.222796 -0.785889
v 0.726644 0.256289 -0.697501
v 0.638255 0.222796 -0.609113
v 0.573551 0.131289 -0.544408
v 0.549867 0.006289 -0.520724
v 0.573551 -0.118711 -0.544408
v 0.638255 -0.210217 -0.609113
v 0.726644 -0.243711 -0.697501
v 0.815032 -0.210217 -0.785889
v 0.879737 -0.118711 -0.850594
v 0.780489 0.006289 -0.982086
v 0.760099 0.131289 -0.955514
v 0.704394 0.222796 -0.882917
v 0.628298 0.256289 -0.783747
v 0.628298 -0.243711 -0.783747
v 0.704394 -0.210217 -0.882917
v 0.760099 -0.118711 -0.955514
v 0.644537 0.006289 -1.072926
v 0.627790 0.131289 -1.043920
v 0.582037 0.222796 -0.964673
v 0.519537 0.256289 -0.856420
v 0.519537 -0.243711 -0.856420
v 0.582037 -0.210217 -0.964673
v 0.627790 -0.118711 -1.043920
v 0.497891 0.006289 -1.145244
v 0.485074 0.131289 -1.114299
v 0.450056 0.222796 -1.029759
v 0.402221 0.256289 -0.914274
v 0.402221 -0.243711 -0.914274
v 0.450056 -0.210217 -1.029759
v 0.485074 -0.118711 -1.114299
v 0.343061 0.006289 -1.197802
v 0.334392 0.131289 -1.165449
v 0.310708 0.222796 -1.077061
v 0.278356 0.256289 -0.956320
v 0.278356 -0.243711 -0.956320
v 0.310708 -0.210217 -1.077061
v 0.334392 -0.118711 -1.165449
v 0.182694 0.006289 -1.229700
v 0.178323 0.131289 -1.196493
v 0.166379 0.222796 -1.105770
v 0.150063 0.256289 -0.981839
v 0.133747 0.222796 -0.857909
v 0.121803 0.131289 -0.767185
v 0.117431 0.006289 -0.733978
v 0.121803 -0.118711 -0.767185
v 0.133747 -0.210217 -0.857909
v 0.150063 -0.243711 -0.981839
v 0.166379 -0.210217 -1.105770
v 0.178323 -0.118711 -1.196493
f 49 41 47
f 49 50 41
f 6 46 5
f 48 49 47
f 9 8 10
f 9 50 10
f 9 49 50
f 9 48 8
f 9 48 49
f 51 50 41
f 4 6 5
f 4 44 5
f 7 48 47
f 7 48 8
f 7 46 47
f 7 6 46
f 45 46 5
f 45 44 5
f 45 44 41
f 45 41 47
f 45 46 47
f 29 21 28
f 18 11 10
f 27 21 28
f 12 2 1
f 12 18 11
f 38 51 50
f 24 31 32
f 20 27 26
f 20 27 21
f 19 18 26
f 19 12 18
f 52 51 41
f 52 40 51
f 34 40 27
f 34 42 41
f 34 52 41
f 34 52 40
f 33 26 32
f 33 40 32
f 33 27 26
f 33 40 27
f 39 40 32
f 39 40 51
f 39 38 51
f 39 38 31
f 39 31 32
f 15 2 3
f 15 14 2
f 15 14 21
f 15 4 3
f 13 2 1
f 13 14 2
f 13 14 21
f 13 20 21
f 13 12 1
f 13 19 12
f 13 20 26
f 13 19 26
f 30 23 29
f 35 29 28
f 35 34 42
f 35 27 28
f 35 34 27
f 43 44 41
f 43 42 41
f 43 35 42
f 17 18 10
f 17 24 18
f 25 24 32
f 25 24 18
f 25 26 32
f 25 18 26
f 22 23 29
f 22 15 23
f 22 29 21
f 22 15 21
f 16 15 4
f 16 15 23
f 36 30 29
f 36 35 29
f 36 43 35
f 37 36 30
f 37 43 44
f 37 36 43
f 12 4 3
f 12 8 10
f 12 2 3
f 12 11 10
f 12 7 8
f 12 4 6
f 12 7 6
f 17 38 50
f 17 50 10
f 17 38 31
f 17 24 31
f 37 16 4
f 37 4 44
f 37 30 23
f 37 16 23
