o torus_capsule32_31
v -0.077739 0.024146 0.012802
v -0.081703 0.026265 0.009798
v -0.084352 0.027681 0.005303
v -0.085282 0.028178 0.000000
v -0.084352 0.027681 -0.005303
v -0.081703 0.026265 -0.009798
v -0.077739 0.024146 -0.012802
v -0.060774 0.020999 -0.011142
v -0.057762 0.019389 -0.006030
v -0.056704 0.018823 -0.000000
v -0.057762 0.019389 0.006030
v -0.060774 0.020999 0.011142
v -0.074365 0.011973 0.015757
v -0.080136 0.013723 0.014557
v -0.085027 0.015207 0.011142
v -0.088296 0.016199 0.006030
v -0.089444 0.016547 0.000000
v -0.088296 0.016199 -0.006030
v -0.085027 0.015207 -0.011142
v -0.080136 0.013723 -0.014557
v -0.074365 0.011973 -0.015757
v -0.072775 0.022593 0.013856
v -0.073287 0.017397 0.015757
v -0.075272 -0.002765 0.015757
v -0.075784 -0.007961 0.013856
v -0.079287 0.017988 0.014557
v -0.081273 -0.002174 0.014557
v -0.079595 0.027542 0.007272
v -0.084375 0.018489 0.011142
v -0.086361 -0.001673 0.011142
v -0.083439 -0.011485 0.007272
v -0.087774 0.018824 0.006030
v -0.089760 -0.001338 0.006030
v -0.088968 0.018941 0.000000
v -0.090953 -0.001221 0.000000
v -0.087774 0.018824 -0.006030
v -0.089760 -0.001338 -0.006030
v -0.079595 0.027542 -0.007272
v -0.084375 0.018489 -0.011142
v -0.086361 -0.001673 -0.011142
v -0.083439 -0.011485 -0.007272
v -0.079287 0.017988 -0.014557
v -0.081273 -0.002174 -0.014557
v -0.072775 0.022593 -0.013856
v -0.073287 0.017397 -0.015757
v -0.075272 -0.002765 -0.015757
v -0.075784 -0.007961 -0.013856
v -0.067498 0.022073 -0.012802
v -0.067286 0.016806 -0.014557
v -0.069271 -0.003356 -0.014557
v -0.070507 -0.008481 -0.012802
v -0.067498 0.022073 0.012802
v -0.067286 0.016806 0.014557
v -0.069271 -0.003356 0.014557
v -0.070507 -0.008481 0.012802
v -0.075272 0.002765 -0.015757
v -0.075272 0.002765 0.015757
v -0.081273 0.002174 0.014557
v -0.086361 0.001673 0.011142
v -0.089760 0.001338 0.006030
v -0.090953 0.001221 0.000000
v -0.089760 0.001338 -0.006030
v -0.086361 0.001673 -0.011142
v -0.081273 0.002174 -0.014557
v -0.063703 -0.008739 -0.011142
v -0.060435 -0.007747 -0.006030
v -0.059287 -0.007399 -0.000000
v -0.060435 -0.007747 0.006030
v -0.063703 -0.008739 0.011142
v -0.080955 -0.008516 0.012802
v -0.085257 -0.009820 0.009798
v -0.088132 -0.010692 0.005303
v -0.089141 -0.010999 0.000000
v -0.088132 -0.010692 -0.005303
v -0.085257 -0.009820 -0.009798
v -0.080955 -0.008516 -0.012802
f 66 67 65
f 36 18 19
f 62 18 19
f 50 8 65
f 50 47 46
f 9 8 65
f 9 66 65
f 9 67 10
f 9 66 67
f 69 67 65
f 73 41 31
f 34 36 18
f 34 36 4
f 76 47 46
f 76 41 75
f 76 41 47
f 49 50 8
f 49 8 48
f 49 44 48
f 49 45 44
f 32 16 15
f 32 29 15
f 32 34 16
f 32 34 4
f 53 12 52
f 28 12 52
f 28 1 2
f 51 41 65
f 51 41 47
f 51 50 65
f 51 50 47
f 68 69 67
f 74 40 75
f 74 41 75
f 74 73 41
f 17 34 18
f 17 62 18
f 17 61 62
f 17 34 16
f 42 45 21
f 5 36 4
f 43 76 46
f 43 76 75
f 43 40 75
f 63 62 19
f 63 64 19
f 22 1 23
f 22 53 52
f 22 53 23
f 22 28 52
f 22 28 1
f 26 1 23
f 26 29 2
f 26 1 2
f 26 29 15
f 26 23 13
f 3 28 4
f 3 28 2
f 3 32 4
f 3 29 2
f 3 32 29
f 11 69 12
f 11 68 69
f 11 9 10
f 11 67 10
f 11 68 67
f 37 74 40
f 37 73 35
f 37 74 73
f 33 73 35
f 55 69 31
f 55 25 31
f 59 58 15
f 39 42 19
f 39 42 6
f 39 36 19
f 39 5 36
f 39 5 6
f 20 64 19
f 20 42 19
f 20 42 21
f 20 56 21
f 20 56 64
f 7 42 6
f 7 45 44
f 7 42 45
f 38 5 6
f 38 5 4
f 38 8 48
f 38 28 4
f 38 7 6
f 38 44 48
f 38 7 44
f 14 26 13
f 14 58 15
f 14 26 15
f 60 17 16
f 60 17 61
f 60 16 15
f 60 59 15
f 72 73 31
f 72 33 73
f 72 33 30
f 70 24 27
f 70 24 25
f 70 25 31
f 57 14 13
f 57 14 58
f 54 55 25
f 54 24 25
f 54 55 69
f 54 69 12
f 54 53 12
f 71 30 27
f 71 70 27
f 71 72 30
f 71 72 31
f 71 70 31
f 69 41 31
f 69 41 65
f 49 50 46
f 49 45 46
f 56 45 46
f 56 45 21
f 43 56 46
f 43 56 64
f 63 43 64
f 63 43 40
f 11 12 8
f 11 9 8
f 37 63 40
f 37 63 62
f 37 61 35
f 37 61 62
f 59 58 27
f 59 30 27
f 38 12 8
f 38 28 12
f 60 61 35
f 60 33 35
f 60 59 30
f 60 33 30
f 57 24 23
f 57 23 13
f 57 58 27
f 57 24 27
f 54 24 23
f 54 53 23
