o torus_fine_4
v 0.182694 0.006289 -1.229700
v 0.178323 0.131289 -1.196493
v 0.166379 0.222796 -1.105770
v 0.150063 0.256289 -0.981839
v 0.133747 0.222796 -0.857909
v 0.121803 0.131289 -0.767185
v 0.117431 0.006289 -0.733978
v 0.121803 -0.118711 -0.767185
v 0.133747 -0.210217 -0.857909
v 0.150063 -0.243711 -0.981839
v 0.166379 -0.210217 -1.105770
v 0.178323 -0.118711 -1.196493
v 0.019537 0.006289 -1.240394
v 0.019537 0.131289 -1.206901
v 0.019537 0.222796 -1.115394
v 0.019537 0.256289 -0.990394
v 0.019537 -0.243711 -0.990394
v 0.019537 -0.210217 -1.115394
v 0.019537 -0.118711 -1.206901
v -0.143621 0.006289 -1.229700
v -0.139249 0.131289 -1.196493
v -0.127305 0.222796 -1.105770
v -0.110989 0.256289 -0.981839
v -0.110989 -0.243711 -0.981839
v -0.127305 -0.210217 -1.105770
v -0.139249 -0.118711 -1.196493
v -0.303987 0.006289 -1.197802
v -0.295318 0.131289 -1.165449
v -0.271634 0.222796 -1.077061
v -0.239282 0.256289 -0.956320
v -0.239282 -0.243711 -0.956320
v -0.271634 -0.210217 -1.077061
v -0.295318 -0.118711 -1.165449
v -0.458818 0.006289 -1.145244
v -0.446000 0.131289 -1.114300
v -0.410982 0.222796 -1.029759
v -0.363147 0.256289 -0.914274
v -0.363147 -0.243711 -0.914274
v -0.410982 -0.210217 -1.029759
v -0.446000 -0.118711 -1.114300
v -0.605463 0.006289 -1.072926
v -0.588716 0.131289 -1.043920
v -0.542963 0.222796 -0.964673
v -0.480463 0.256289 -0.856420
v -0.417963 0.222796 -0.748167
v -0.372210 0.131289 -0.668920
v -0.355463 0.006289 -0.639913
v -0.372210 -0.118711 -0.668920
v -0.417963 -0.210217 -0.748167
v -0.480463 -0.243711 -0.856420
v -0.542963 -0.210217 -0.964673
v -0.588716 -0.118711 -1.043920
f 51 47 41
f 43 47 41
f 45 44 4
f 50 49 10
f 52 51 41
f 12 19 1
f 12 19 11
f 16 3 4
f 42 43 41
f 46 45 44
f 46 43 47
f 46 43 44
f 9 49 10
f 8 7 47
f 8 9 10
f 8 9 49
f 8 11 10
f 32 25 33
f 26 25 33
f 26 25 19
f 26 19 20
f 26 27 33
f 26 27 20
f 18 19 11
f 18 25 19
f 2 14 1
f 2 14 3
f 2 12 1
f 15 14 3
f 15 16 3
f 13 14 1
f 13 14 20
f 13 19 1
f 13 19 20
f 35 42 43
f 35 27 28
f 5 45 4
f 48 8 47
f 48 8 49
f 48 50 49
f 48 51 47
f 48 50 51
f 40 52 51
f 40 32 33
f 40 27 33
f 39 50 51
f 39 40 51
f 39 40 32
f 17 18 25
f 17 24 25
f 17 11 10
f 17 18 11
f 21 14 20
f 21 27 28
f 21 27 20
f 29 35 28
f 34 35 27
f 34 40 27
f 34 42 41
f 34 35 42
f 34 52 41
f 34 40 52
f 6 46 45
f 6 5 45
f 6 7 47
f 6 46 47
f 6 8 7
f 6 5 4
f 6 3 4
f 38 39 32
f 38 39 50
f 22 15 16
f 22 30 29
f 22 15 14
f 22 21 14
f 22 21 28
f 22 29 28
f 36 43 44
f 36 35 43
f 36 29 35
f 31 38 32
f 31 32 25
f 31 24 25
f 23 22 16
f 23 22 30
f 37 36 44
f 37 30 29
f 37 36 29
f 2 12 11
f 2 3 11
f 6 3 11
f 6 8 11
f 31 17 10
f 31 50 10
f 31 17 24
f 31 38 50
f 37 16 4
f 37 44 4
f 37 23 16
f 37 23 30
