o torus_vhacd64_13
v -0.303987 0.006289 -1.197802
v -0.295318 0.131289 -1.165449
v -0.271634 0.222796 -1.077061
v -0.239282 0.256289 -0.956320
v -0.206930 0.222796 -0.835580
v -0.183246 0.131289 -0.747191
v -0.174577 0.006289 -0.714839
v -0.183246 -0.118711 -0.747191
v -0.206930 -0.210217 -0.835580
v -0.239282 -0.243711 -0.956320
v -0.271634 -0.210217 -1.077061
v -0.295318 -0.118711 -1.165449
f 9 5 1
f 12 11 1
f 12 11 10
f 12 9 1
f 12 9 10
f 3 11 7
f 3 11 1
f 6 3 7
f 2 5 1
f 2 3 1
f 8 6 7
f 8 9 10
f 8 11 7
f 8 11 10
f 4 2 5
f 4 2 3
f 4 6 5
f 4 6 3
f 8 6 5
f 8 9 5
