o torus_vhacd64_31
v 1.269537 0.006289 0.009606
v 1.236043 0.131289 0.009606
v 1.144537 0.222796 0.009606
v 1.019537 0.256289 0.009606
v 0.894537 0.222796 0.009606
v 0.803031 0.131289 0.009606
v 0.769537 0.006289 0.009606
v 0.803031 -0.118711 0.009606
v 0.894537 -0.210217 0.009606
v 1.019537 -0.243711 0.009606
v 1.144537 -0.210217 0.009606
v 1.236043 -0.118711 0.009606
v 1.258843 0.006289 -0.153552
v 1.225636 0.131289 -0.149180
v 1.134912 0.222796 -0.137236
v 1.010982 0.256289 -0.120920
v 0.887051 0.222796 -0.104605
v 0.796328 0.131289 -0.092661
v 0.763121 0.006289 -0.088289
v 0.796328 -0.118711 -0.092661
v 0.887051 -0.210217 -0.104605
v 1.010982 -0.243711 -0.120920
v 1.134912 -0.210217 -0.137236
v 1.225636 -0.118711 -0.149180
f 17 15 16
f 17 15 13
f 21 17 13
f 21 22 10
f 14 13 1
f 14 15 13
f 3 15 16
f 3 14 15
f 6 17 5
f 23 21 13
f 23 21 22
f 20 7 19
f 4 3 16
f 4 17 16
f 4 17 5
f 2 14 1
f 2 3 14
f 24 23 13
f 24 12 1
f 24 13 1
f 11 22 10
f 11 23 22
f 11 24 12
f 11 24 23
f 18 20 19
f 18 6 17
f 18 6 7
f 18 7 19
f 8 20 7
f 8 20 21
f 9 21 10
f 9 8 21
f 18 20 21
f 18 21 17
f 9 12 1
f 9 11 10
f 9 4 5
f 9 2 1
f 9 6 5
f 9 6 7
f 9 4 3
f 9 2 3
f 9 11 12
f 9 8 7
