o torus_capsule32_26
v -0.023113 0.078052 0.012802
v -0.023554 0.082526 0.009798
v -0.023848 0.085515 0.005303
v -0.023951 0.086564 0.000000
v -0.023848 0.085515 -0.005303
v -0.023554 0.082526 -0.009798
v -0.023113 0.078052 -0.012802
v -0.016305 0.062198 -0.011142
v -0.015970 0.058799 -0.006030
v -0.015852 0.057606 -0.000000
v -0.015970 0.058799 0.006030
v -0.016305 0.062198 0.011142
v -0.031360 0.068484 0.015757
v -0.033110 0.074255 0.014557
v -0.034594 0.079147 0.011142
v -0.035586 0.082415 0.006030
v -0.035934 0.083563 0.000000
v -0.035586 0.082415 -0.006030
v -0.034594 0.079147 -0.011142
v -0.033110 0.074255 -0.014557
v -0.031360 0.068484 -0.015757
v -0.021646 0.073062 0.013856
v -0.026251 0.070601 0.015757
v -0.044118 0.061051 0.015757
v -0.048723 0.058589 0.013856
v -0.029093 0.075919 0.014557
v -0.046961 0.066368 0.014557
v -0.021320 0.081482 0.007272
v -0.031503 0.080427 0.011142
v -0.049370 0.070877 0.011142
v -0.055905 0.062996 0.007272
v -0.033113 0.083439 0.006030
v -0.050980 0.073889 0.006030
v -0.033679 0.084497 0.000000
v -0.051546 0.074947 0.000000
v -0.033113 0.083439 -0.006030
v -0.050980 0.073889 -0.006030
v -0.021320 0.081482 -0.007272
v -0.031503 0.080427 -0.011142
v -0.049370 0.070877 -0.011142
v -0.055905 0.062996 -0.007272
v -0.029093 0.075919 -0.014557
v -0.046961 0.066368 -0.014557
v -0.021646 0.073062 -0.013856
v -0.026251 0.070601 -0.015757
v -0.044118 0.061051 -0.015757
v -0.048723 0.058589 -0.013856
v -0.019146 0.068386 -0.012802
v -0.023408 0.065283 -0.014557
v -0.041276 0.055733 -0.014557
v -0.046224 0.053913 -0.012802
v -0.019146 0.068386 0.012802
v -0.023408 0.065283 0.014557
v -0.041276 0.055733 0.014557
v -0.046224 0.053913 0.012802
v -0.039520 0.064123 0.015757
v -0.043345 0.068784 0.014557
v -0.046588 0.072736 0.011142
v -0.048755 0.075376 0.006030
v -0.049516 0.076303 0.000000
v -0.048755 0.075376 -0.006030
v -0.046588 0.072736 -0.011142
v -0.043345 0.068784 -0.014557
v -0.039520 0.064123 -0.015757
v -0.052057 0.062581 0.012802
v -0.055532 0.065433 0.009798
v -0.057854 0.067338 0.005303
v -0.058669 0.068007 0.000000
v -0.057854 0.067338 -0.005303
v -0.055532 0.065433 -0.009798
v -0.052057 0.062581 -0.012802
v -0.042658 0.048112 -0.011142
v -0.040017 0.045946 -0.006030
v -0.039090 0.045185 -0.000000
v -0.040017 0.045946 0.006030
v -0.042658 0.048112 0.011142
f 74 76 72
f 69 41 68
f 31 41 68
f 9 74 10
f 12 53 52
f 12 53 76
f 50 49 72
f 28 38 4
f 28 12 52
f 54 53 76
f 75 74 76
f 75 12 76
f 61 35 60
f 32 34 4
f 39 42 6
f 43 71 46
f 43 64 46
f 7 42 6
f 7 38 6
f 55 31 76
f 55 54 76
f 51 41 72
f 51 50 72
f 70 69 41
f 70 71 41
f 70 43 71
f 8 49 48
f 8 38 48
f 8 49 72
f 73 74 72
f 73 9 74
f 73 8 72
f 73 8 9
f 11 9 10
f 11 75 12
f 11 74 10
f 11 75 74
f 5 38 4
f 5 38 6
f 5 39 6
f 15 32 29
f 66 31 65
f 66 27 65
f 37 61 35
f 37 35 68
f 37 69 68
f 59 35 60
f 63 43 62
f 63 64 21
f 63 43 64
f 44 38 48
f 44 7 38
f 44 49 48
f 25 55 54
f 25 31 65
f 25 55 31
f 47 50 46
f 47 51 50
f 47 71 46
f 47 71 41
f 47 51 41
f 57 27 58
f 57 15 58
f 57 15 14
f 57 56 27
f 57 14 13
f 57 56 13
f 26 15 29
f 26 15 14
f 26 14 13
f 3 32 29
f 3 32 4
f 3 28 4
f 67 31 68
f 67 66 31
f 30 27 58
f 30 66 27
f 30 59 58
f 30 67 66
f 16 32 34
f 16 17 34
f 16 15 32
f 16 17 60
f 16 59 60
f 16 15 58
f 16 59 58
f 18 61 62
f 18 61 60
f 18 17 60
f 18 17 34
f 40 43 62
f 40 70 43
f 40 61 62
f 40 37 61
f 40 70 69
f 40 37 69
f 20 42 21
f 20 63 21
f 45 7 42
f 45 44 7
f 45 42 21
f 45 44 49
f 24 56 27
f 24 27 65
f 24 25 65
f 24 25 54
f 23 26 13
f 23 26 1
f 2 1 28
f 2 3 28
f 2 3 29
f 2 26 29
f 2 26 1
f 33 59 35
f 33 35 68
f 33 67 68
f 33 30 59
f 33 30 67
f 19 18 62
f 19 63 62
f 19 20 63
f 19 39 42
f 19 20 42
f 36 5 39
f 36 19 39
f 36 19 18
f 36 18 34
f 36 34 4
f 36 5 4
f 22 23 53
f 22 53 52
f 22 23 1
f 22 28 52
f 22 1 28
f 31 41 72
f 31 76 72
f 8 28 38
f 8 28 12
f 11 8 12
f 11 8 9
f 45 64 46
f 45 64 21
f 45 50 46
f 45 50 49
f 23 24 56
f 23 56 13
f 23 54 53
f 23 24 54
