o torus_fine_11
v 0.903420 0.006289 0.893490
v 0.879736 0.131289 0.869806
v 0.815032 0.222796 0.805101
v 0.726643 0.256289 0.716713
v 0.638255 0.222796 0.628325
v 0.573550 0.131289 0.563620
v 0.549867 0.006289 0.539936
v 0.573550 -0.118711 0.563620
v 0.638255 -0.210217 0.628325
v 0.726643 -0.243711 0.716713
v 0.815032 -0.210217 0.805101
v 0.879736 -0.118711 0.869806
v 1.011229 0.006289 0.770557
v 0.984656 0.131289 0.750168
v 0.912059 0.222796 0.694462
v 0.812890 0.256289 0.618367
v 0.812890 -0.243711 0.618367
v 0.912059 -0.210217 0.694462
v 0.984656 -0.118711 0.750168
v 1.102069 0.006289 0.634606
v 1.073062 0.131289 0.617859
v 0.993815 0.222796 0.572106
v 0.885562 0.256289 0.509606
v 0.885562 -0.243711 0.509606
v 0.993815 -0.210217 0.572106
v 1.073062 -0.118711 0.617859
v 1.174386 0.006289 0.487960
v 1.143442 0.131289 0.475143
v 1.058901 0.222796 0.440125
v 0.943416 0.256289 0.392290
v 0.943416 -0.243711 0.392290
v 1.058901 -0.210217 0.440125
v 1.143442 -0.118711 0.475143
v 1.226944 0.006289 0.333129
v 1.194592 0.131289 0.324460
v 1.106204 0.222796 0.300777
v 0.985463 0.256289 0.268424
v 0.985463 -0.243711 0.268424
v 1.106204 -0.210217 0.300777
v 1.194592 -0.118711 0.324460
v 1.258843 0.006289 0.172763
v 1.225636 0.131289 0.168392
v 1.134912 0.222796 0.156448
v 1.010982 0.256289 0.140132
v 0.887051 0.222796 0.123816
v 0.796328 0.131289 0.111872
v 0.763121 0.006289 0.107500
v 0.796328 -0.118711 0.111872
v 0.887051 -0.210217 0.123816
v 1.010982 -0.243711 0.140132
v 1.134912 -0.210217 0.156448
v 1.225636 -0.118711 0.168392
f 9 49 10
f 9 8 49
f 47 49 41
f 47 45 41
f 47 8 7
f 5 45 4
f 12 11 10
f 50 49 10
f 50 49 41
f 50 51 41
f 52 51 41
f 2 3 4
f 46 47 45
f 48 8 49
f 48 47 49
f 48 47 8
f 44 45 4
f 44 45 41
f 44 43 41
f 42 43 41
f 6 8 7
f 6 47 7
f 6 46 47
f 6 5 45
f 6 46 45
f 19 12 11
f 19 12 1
f 39 50 51
f 39 52 51
f 14 2 3
f 14 2 1
f 27 20 33
f 27 20 28
f 36 44 43
f 36 42 43
f 36 29 28
f 30 36 29
f 35 34 41
f 35 42 41
f 35 27 28
f 35 27 34
f 35 36 28
f 35 36 42
f 18 19 11
f 18 19 25
f 26 25 33
f 26 19 25
f 26 20 33
f 26 19 20
f 40 39 33
f 40 39 52
f 40 27 33
f 40 27 34
f 40 52 41
f 40 34 41
f 38 39 50
f 38 31 39
f 32 31 39
f 32 25 33
f 32 39 33
f 32 24 31
f 32 24 25
f 22 29 28
f 13 14 1
f 13 14 20
f 13 19 1
f 13 19 20
f 37 36 44
f 37 30 36
f 17 11 10
f 17 18 11
f 17 18 25
f 17 24 25
f 15 14 3
f 15 22 14
f 21 22 28
f 21 22 14
f 21 20 28
f 21 14 20
f 23 30 29
f 23 22 29
f 16 3 4
f 16 15 3
f 16 15 22
f 16 23 22
f 6 12 10
f 6 5 4
f 6 9 10
f 6 9 8
f 6 2 1
f 6 12 1
f 6 2 4
f 17 38 50
f 17 50 10
f 17 24 31
f 17 38 31
f 16 37 44
f 16 44 4
f 16 37 30
f 16 23 30
