o torus_vhacd32_31
v -1.219769 0.006289 -0.153552
v -1.186562 0.131289 -0.149180
v -1.095839 0.222796 -0.137236
v -0.971908 0.256289 -0.120921
v -0.847977 0.222796 -0.104605
v -0.757254 0.131289 -0.092661
v -0.724047 0.006289 -0.088289
v -0.757254 -0.118711 -0.092661
v -0.847977 -0.210217 -0.104605
v -0.971908 -0.243711 -0.120921
v -1.095839 -0.210217 -0.137236
v -1.186562 -0.118711 -0.149180
v -1.230463 0.006289 0.009606
v -1.196970 0.131289 0.009606
v -1.105463 0.222796 0.009606
v -0.980463 0.256289 0.009606
v -0.980463 -0.243711 0.009606
v -1.105463 -0.210217 0.009606
v -1.196970 -0.118711 0.009606
v -1.219769 0.006289 0.172764
v -1.186562 0.131289 0.168392
v -1.095839 0.222796 0.156448
v -0.971908 0.256289 0.140132
v -0.971908 -0.243711 0.140132
v -1.095839 -0.210217 0.156448
v -1.186562 -0.118711 0.168392
v -1.187871 0.006289 0.333129
v -1.155518 0.131289 0.324461
v -1.067130 0.222796 0.300777
v -0.946389 0.256289 0.268425
v -0.825648 0.222796 0.236072
v -0.737260 0.131289 0.212389
v -0.704908 0.006289 0.203720
v -0.737260 -0.118711 0.212389
v -0.825648 -0.210217 0.236072
v -0.946389 -0.243711 0.268425
v -1.067130 -0.210217 0.300777
v -1.155518 -0.118711 0.324461
f 1 4 10
f 12 1 10
f 8 6 7
f 11 12 10
f 20 27 26
f 2 1 4
f 2 3 4
f 22 28 29
f 5 6 4
f 9 8 10
f 9 36 10
f 9 36 35
f 34 36 35
f 34 7 33
f 34 8 7
f 34 9 35
f 34 9 8
f 38 28 27
f 38 27 26
f 38 36 37
f 30 28 29
f 30 23 22
f 30 22 29
f 30 5 4
f 30 5 31
f 21 20 27
f 21 28 27
f 21 22 28
f 17 11 10
f 17 18 11
f 25 24 36
f 25 36 37
f 25 17 24
f 25 17 18
f 25 38 37
f 25 38 26
f 19 11 12
f 19 18 11
f 19 25 26
f 19 25 18
f 19 20 13
f 19 20 26
f 19 1 13
f 19 12 1
f 32 30 31
f 32 34 33
f 32 7 33
f 32 6 7
f 32 5 6
f 32 5 31
f 16 3 4
f 16 15 3
f 16 23 22
f 16 15 22
f 14 2 3
f 14 15 3
f 14 21 22
f 14 15 22
f 14 1 13
f 14 2 1
f 14 20 13
f 14 21 20
f 8 6 4
f 8 4 10
f 17 24 36
f 17 36 10
f 32 38 36
f 32 34 36
f 32 38 28
f 32 30 28
f 16 30 23
f 16 30 4
