o torus_vhacd32_0
v -1.187871 0.006289 -0.313918
v -1.155518 0.131289 -0.305249
v -1.067130 0.222796 -0.281566
v -0.946389 0.256289 -0.249213
v -0.825648 0.222796 -0.216861
v -0.737260 0.131289 -0.193177
v -0.704908 0.006289 -0.184508
v -0.737260 -0.118711 -0.193177
v -0.825648 -0.210217 -0.216861
v -0.946389 -0.243711 -0.249213
v -1.067130 -0.210217 -0.281566
v -1.155518 -0.118711 -0.305249
v -1.219769 0.006289 -0.153552
v -1.186562 0.131289 -0.149180
v -1.095839 0.222796 -0.137236
v -0.971908 0.256289 -0.120921
v -0.971908 -0.243711 -0.120921
v -1.095839 -0.210217 -0.137236
v -1.186562 -0.118711 -0.149180
v -1.230463 0.006289 0.009606
v -1.196970 0.131289 0.009606
v -1.105463 0.222796 0.009606
v -0.980463 0.256289 0.009606
v -0.980463 -0.243711 0.009606
v -1.105463 -0.210217 0.009606
v -1.196970 -0.118711 0.009606
v -1.219769 0.006289 0.172764
v -1.186562 0.131289 0.168392
v -1.095839 0.222796 0.156448
v -0.971908 0.256289 0.140132
v -0.847977 0.222796 0.123816
v -0.757254 0.131289 0.111872
v -0.724047 0.006289 0.107500
v -0.757254 -0.118711 0.111872
v -0.847977 -0.210217 0.123816
v -0.971908 -0.243711 0.140132
v -1.095839 -0.210217 0.156448
v -1.186562 -0.118711 0.168392
f 13 19 1
f 13 14 1
f 34 8 35
f 9 35 10
f 9 8 35
f 9 11 10
f 3 11 1
f 5 31 4
f 5 3 4
f 12 19 1
f 12 11 1
f 33 8 7
f 33 34 8
f 2 14 1
f 2 3 1
f 6 8 7
f 6 33 7
f 6 5 31
f 21 27 20
f 21 28 27
f 21 13 20
f 21 13 14
f 18 12 19
f 18 12 11
f 26 18 19
f 26 18 25
f 26 13 20
f 26 13 19
f 26 27 20
f 26 38 27
f 36 35 10
f 36 34 35
f 36 34 27
f 32 6 31
f 32 6 33
f 32 33 34
f 32 34 27
f 29 21 28
f 29 28 27
f 16 3 4
f 24 18 25
f 37 26 38
f 37 26 25
f 37 38 27
f 37 36 27
f 37 24 25
f 37 24 36
f 15 21 14
f 15 16 3
f 15 2 14
f 15 2 3
f 15 16 23
f 30 29 23
f 30 31 4
f 30 29 27
f 30 32 27
f 30 32 31
f 17 24 18
f 17 11 10
f 17 18 11
f 22 29 21
f 22 15 21
f 22 29 23
f 22 15 23
f 5 3 11
f 5 9 11
f 6 5 9
f 6 9 8
f 30 16 23
f 30 16 4
f 17 24 36
f 17 36 10
