o torus_fine_13
v 0.182694 0.006289 1.248912
v 0.178323 0.131289 1.215705
v 0.166379 0.222796 1.124981
v 0.150063 0.256289 1.001051
v 0.133747 0.222796 0.877120
v 0.121803 0.131289 0.786396
v 0.117431 0.006289 0.753189
v 0.121803 -0.118711 0.786396
v 0.133747 -0.210217 0.877120
v 0.150063 -0.243711 1.001051
v 0.166379 -0.210217 1.124981
v 0.178323 -0.118711 1.215705
v 0.343060 0.006289 1.217013
v 0.334391 0.131289 1.184661
v 0.310708 0.222796 1.096272
v 0.278356 0.256289 0.975532
v 0.278356 -0.243711 0.975532
v 0.310708 -0.210217 1.096272
v 0.334391 -0.118711 1.184661
v 0.497891 0.006289 1.164455
v 0.485074 0.131289 1.133511
v 0.450056 0.222796 1.048970
v 0.402221 0.256289 0.933485
v 0.402221 -0.243711 0.933485
v 0.450056 -0.210217 1.048970
v 0.485074 -0.118711 1.133511
v 0.644537 0.006289 1.092137
v 0.627790 0.131289 1.063131
v 0.582037 0.222796 0.983884
v 0.519537 0.256289 0.875631
v 0.519537 -0.243711 0.875631
v 0.582037 -0.210217 0.983884
v 0.627790 -0.118711 1.063131
v 0.780488 0.006289 1.001298
v 0.760099 0.131289 0.974725
v 0.704393 0.222796 0.902128
v 0.628298 0.256289 0.802959
v 0.628298 -0.243711 0.802959
v 0.704393 -0.210217 0.902128
v 0.760099 -0.118711 0.974725
v 0.903420 0.006289 0.893490
v 0.879736 0.131289 0.869806
v 0.815032 0.222796 0.805101
v 0.726643 0.256289 0.716713
v 0.638255 0.222796 0.628325
v 0.573550 0.131289 0.563620
v 0.549867 0.006289 0.539936
v 0.573550 -0.118711 0.563620
v 0.638255 -0.210217 0.628325
v 0.726643 -0.243711 0.716713
v 0.815032 -0.210217 0.805101
v 0.879736 -0.118711 0.869806
f 9 8 49
f 9 8 7
f 9 1 7
f 9 1 10
f 50 51 49
f 50 9 10
f 50 9 49
f 52 51 41
f 5 1 7
f 5 1 4
f 47 8 7
f 47 51 49
f 3 1 4
f 40 52 51
f 40 52 41
f 34 40 41
f 6 5 7
f 6 5 45
f 6 47 7
f 48 8 49
f 48 47 49
f 48 47 8
f 2 3 1
f 43 51 41
f 43 47 51
f 43 47 45
f 25 31 24
f 25 17 24
f 19 20 26
f 19 25 26
f 19 12 1
f 27 20 21
f 27 20 26
f 46 47 45
f 46 6 45
f 46 6 47
f 14 2 3
f 14 20 21
f 14 2 1
f 22 14 21
f 44 43 45
f 44 5 4
f 44 5 45
f 35 34 41
f 38 50 51
f 32 25 31
f 32 25 26
f 32 38 31
f 11 17 10
f 11 1 10
f 11 12 1
f 11 19 12
f 13 14 1
f 13 14 20
f 13 19 1
f 13 19 20
f 15 14 3
f 15 22 14
f 16 15 22
f 16 3 4
f 16 15 3
f 28 27 21
f 28 27 34
f 28 35 34
f 42 43 41
f 42 35 41
f 42 35 43
f 39 40 51
f 39 32 40
f 39 38 51
f 39 32 38
f 33 32 26
f 33 32 40
f 33 27 26
f 33 34 40
f 33 27 34
f 18 25 17
f 18 11 17
f 18 19 25
f 18 11 19
f 37 44 43
f 23 16 22
f 23 30 22
f 29 28 35
f 29 30 22
f 29 22 21
f 29 28 21
f 29 37 30
f 36 35 43
f 36 29 35
f 36 37 43
f 36 29 37
f 38 17 10
f 38 50 10
f 38 31 24
f 38 17 24
f 23 16 4
f 23 44 4
f 23 37 44
f 23 37 30
