o torus_vhacd32_26
v -0.599182 0.222796 0.628324
v -0.534477 0.131289 0.563619
v -0.510793 0.006289 0.539936
v -0.534477 -0.118711 0.563619
v -0.599182 -0.210217 0.628324
v -0.741416 0.006289 1.001297
v -0.721026 0.131289 0.974725
v -0.665320 0.222796 0.902128
v -0.589225 0.256289 0.802959
v -0.589225 -0.243711 0.802959
v -0.665320 -0.210217 0.902128
v -0.721026 -0.118711 0.974725
v -0.605463 0.006289 1.092138
v -0.588716 0.131289 1.063131
v -0.542963 0.222796 0.983884
v -0.480463 0.256289 0.875631
v -0.480463 -0.243711 0.875631
v -0.542963 -0.210217 0.983884
v -0.588716 -0.118711 1.063131
v -0.458818 0.006289 1.164455
v -0.446000 0.131289 1.133511
v -0.410982 0.222796 1.048970
v -0.363147 0.256289 0.933485
v -0.363147 -0.243711 0.933485
v -0.410982 -0.210217 1.048970
v -0.446000 -0.118711 1.133511
v -0.303987 0.006289 1.217013
v -0.295318 0.131289 1.184660
v -0.271635 0.222796 1.096272
v -0.239282 0.256289 0.975531
v -0.206930 0.222796 0.854791
v -0.183246 0.131289 0.766402
v -0.174578 0.006289 0.734050
v -0.183246 -0.118711 0.766402
v -0.206930 -0.210217 0.854791
v -0.239282 -0.243711 0.975531
v -0.271635 -0.210217 1.096272
v -0.295318 -0.118711 1.184660
f 13 12 6
f 7 1 6
f 7 13 6
f 7 13 14
f 20 26 27
f 20 13 26
f 38 26 27
f 38 37 26
f 3 2 4
f 31 30 1
f 21 20 27
f 21 13 14
f 21 20 13
f 28 29 30
f 28 38 27
f 28 21 27
f 28 21 29
f 15 7 14
f 15 21 14
f 5 1 6
f 5 12 6
f 19 18 26
f 19 18 12
f 19 13 26
f 19 13 12
f 25 37 26
f 25 18 26
f 25 24 37
f 11 18 10
f 11 18 12
f 11 5 10
f 11 5 12
f 32 2 1
f 32 31 1
f 32 3 33
f 32 3 2
f 32 31 30
f 22 21 29
f 22 15 21
f 9 30 1
f 17 18 10
f 17 25 18
f 17 25 24
f 34 32 33
f 34 3 33
f 34 3 4
f 34 5 4
f 8 7 1
f 8 9 1
f 8 15 7
f 8 9 15
f 16 22 15
f 16 9 15
f 36 24 37
f 36 38 37
f 36 5 10
f 23 16 22
f 23 29 30
f 23 22 29
f 35 36 34
f 35 34 5
f 35 36 5
f 5 2 4
f 5 2 1
f 36 28 38
f 36 28 30
f 36 32 30
f 36 34 32
f 36 17 24
f 36 17 10
f 23 16 9
f 23 9 30
