o torus_vhacd32_28
v -0.673373 0.006289 0.296618
v -1.062995 0.006289 0.634606
v -1.033989 0.131289 0.617859
v -0.954742 0.222796 0.572106
v -0.846489 0.256289 0.509606
v -0.738235 0.222796 0.447106
v -0.658989 0.131289 0.401352
v -0.658989 -0.118711 0.401352
v -0.738235 -0.210217 0.447106
v -0.846489 -0.243711 0.509606
v -0.954742 -0.210217 0.572106
v -1.033989 -0.118711 0.617859
v -0.972155 0.006289 0.770558
v -0.945583 0.131289 0.750168
v -0.872986 0.222796 0.694462
v -0.773816 0.256289 0.618367
v -0.773816 -0.243711 0.618367
v -0.872986 -0.210217 0.694462
v -0.945583 -0.118711 0.750168
v -0.864347 0.006289 0.893489
v -0.840663 0.131289 0.869805
v -0.775958 0.222796 0.805101
v -0.687570 0.256289 0.716712
v -0.687570 -0.243711 0.716712
v -0.775958 -0.210217 0.805101
v -0.840663 -0.118711 0.869805
v -0.741416 0.006289 1.001297
v -0.721026 0.131289 0.974725
v -0.665320 0.222796 0.902128
v -0.589225 0.256289 0.802959
v -0.513130 0.222796 0.703790
v -0.457424 0.131289 0.631193
v -0.437034 0.006289 0.604621
v -0.457424 -0.118711 0.631193
v -0.513130 -0.210217 0.703790
v -0.589225 -0.243711 0.802959
v -0.665320 -0.210217 0.902128
v -0.721026 -0.118711 0.974725
f 12 1 2
f 12 13 2
f 12 13 19
f 34 36 33
f 34 1 33
f 37 36 33
f 37 25 36
f 20 13 19
f 9 1 10
f 9 36 10
f 24 25 36
f 11 12 19
f 11 1 10
f 11 12 1
f 32 30 33
f 32 31 30
f 32 1 33
f 3 1 2
f 3 13 2
f 6 5 1
f 6 32 31
f 6 31 30
f 6 5 30
f 38 20 27
f 38 37 25
f 29 30 33
f 29 37 33
f 8 34 1
f 8 9 1
f 8 9 34
f 35 34 36
f 35 9 36
f 35 9 34
f 18 25 19
f 18 11 19
f 18 17 24
f 18 24 25
f 18 17 10
f 18 11 10
f 4 5 1
f 4 3 1
f 14 20 13
f 14 3 13
f 14 4 3
f 7 32 1
f 7 6 1
f 7 6 32
f 26 25 19
f 26 38 25
f 26 20 19
f 26 38 20
f 28 38 27
f 28 20 27
f 15 14 4
f 15 4 5
f 21 14 20
f 21 28 20
f 22 15 23
f 22 29 30
f 22 23 30
f 22 28 29
f 22 21 28
f 22 15 14
f 22 21 14
f 16 15 5
f 16 15 23
f 17 24 36
f 17 36 10
f 28 29 37
f 28 38 37
f 16 23 30
f 16 5 30
