v -1.208875 0.136986 0.088792
v -0.576727 0.050812 1.108744
v -0.576727 -0.035361 1.108744
v -0.720403 -0.020982 -0.026314
v -1.108283 -0.222137 0.189343
v -0.576727 0.266346 0.778204
v -0.576727 -0.250895 0.763760
v -0.979033 -0.006603 0.792537
v -0.950311 0.266346 -0.026202
v -0.950311 -0.250895 -0.026202
v -0.892866 0.237588 0.691986
v -0.878505 -0.222137 0.720762
v -1.237598 -0.020982 -0.026202
v -1.151366 -0.006603 0.490995
v -0.576727 0.165744 0.519772
v -0.749190 0.136986 -0.026202
v -1.079561 0.237588 0.304226
v -0.576727 -0.135913 0.490995
v -0.849783 -0.222137 -0.026202
v -0.734764 0.151365 0.979417
v -1.036413 0.151365 0.634433
v -0.591153 -0.135913 1.079968
v -1.122644 -0.135913 0.462330
v -0.591153 0.237588 0.964973
v -1.108283 0.237588 -0.026202
v -0.950311 -0.250895 0.390445
v -1.208875 -0.121585 -0.026202
v -0.935949 0.266346 0.404777
v -0.892866 -0.135913 0.835646
v -0.763551 -0.006603 1.007971
v -0.849783 0.237588 -0.026202
v -1.223237 -0.006603 0.232452
v -1.165727 0.136986 0.347447
v -0.605514 -0.222137 0.964973
v -0.749190 -0.121585 -0.026202
v -0.576727 -0.222137 0.620211
v -0.576727 0.022054 0.433665
v -0.576727 0.237588 0.634433
v -1.194514 -0.135913 0.189343
v -0.864144 0.151365 0.864422
v -1.065200 -0.236516 -0.026202
v -1.050838 -0.135913 0.620211
v -1.036413 -0.222137 0.447997
v -0.720403 -0.250895 0.749539
v -0.619875 0.266346 0.821313
v -1.208875 0.136986 -0.026202
v -0.720403 0.036433 -0.026314
v -0.734764 0.237588 0.864311
v -0.576727 0.136986 1.079968
v -0.806699 -0.135913 0.921864
v -1.079561 0.036433 0.634433
v -1.007690 0.266346 0.060016
v -0.878505 0.007726 0.907420
v -1.050838 0.223209 0.447997
v -0.950311 0.136986 0.778204
v -0.576727 -0.236516 0.921864
v -1.165727 -0.135913 0.333003
v -0.634237 0.022054 1.094300
v -1.122644 0.136986 0.476663
v -1.108283 0.237588 0.160567
v -1.237598 0.022054 0.117457
v -0.691681 -0.222137 0.907531
v -1.194514 0.022054 0.361779
v -1.007690 -0.250895 0.174899
f 5 41 64
f 2 3 6
f 6 3 7
f 6 7 15
f 15 7 18
f 10 4 19
f 7 10 19
f 10 7 26
f 13 4 27
f 6 9 28
f 17 11 28
f 9 6 31
f 4 18 35
f 19 4 35
f 19 35 36
f 18 7 36
f 7 19 36
f 35 18 36
f 18 4 37
f 15 18 37
f 6 15 38
f 15 16 38
f 31 6 38
f 16 31 38
f 27 5 39
f 13 27 39
f 32 13 39
f 4 10 41
f 5 27 41
f 27 4 41
f 14 23 42
f 29 8 42
f 12 29 42
f 5 26 43
f 26 12 43
f 12 42 43
f 42 23 43
f 26 7 44
f 12 26 44
f 24 6 45
f 6 28 45
f 28 11 45
f 1 25 46
f 46 25 47
f 4 13 47
f 16 15 47
f 25 9 47
f 9 31 47
f 31 16 47
f 37 4 47
f 15 37 47
f 13 46 47
f 20 24 48
f 11 40 48
f 40 20 48
f 24 45 48
f 45 11 48
f 2 6 49
f 6 24 49
f 24 20 49
f 29 12 50
f 22 30 50
f 42 8 51
f 14 42 51
f 9 25 52
f 28 9 52
f 17 28 52
f 8 29 53
f 30 20 53
f 20 40 53
f 29 50 53
f 50 30 53
f 11 17 54
f 21 11 54
f 17 33 54
f 11 21 55
f 40 11 55
f 51 8 55
f 21 51 55
f 8 53 55
f 53 40 55
f 7 3 56
f 3 22 56
f 22 34 56
f 44 7 56
f 23 14 57
f 39 5 57
f 32 39 57
f 5 43 57
f 43 23 57
f 3 2 58
f 22 3 58
f 20 30 58
f 30 22 58
f 2 49 58
f 49 20 58
f 51 21 59
f 14 51 59
f 21 54 59
f 54 33 59
f 25 1 60
f 1 33 60
f 33 17 60
f 52 25 60
f 17 52 60
f 13 32 61
f 33 1 61
f 1 46 61
f 46 13 61
f 34 22 62
f 12 44 62
f 50 12 62
f 22 50 62
f 56 34 62
f 44 56 62
f 57 14 63
f 32 57 63
f 14 59 63
f 59 33 63
f 61 32 63
f 33 61 63
f 26 5 64
f 10 26 64
f 41 10 64
