o torus_vhacd64_33
v 1.226944 0.006289 0.333129
v 1.194592 0.131289 0.324460
v 1.106204 0.222796 0.300777
v 0.985463 0.256289 0.268424
v 0.985463 -0.243711 0.268424
v 1.106204 -0.210217 0.300777
v 1.194592 -0.118711 0.324460
v 1.258843 0.006289 0.172763
v 1.225636 0.131289 0.168392
v 1.134912 0.222796 0.156448
v 1.010982 0.256289 0.140132
v 0.887051 0.222796 0.123816
v 0.796328 0.131289 0.111872
v 0.763121 0.006289 0.107500
v 0.796328 -0.118711 0.111872
v 0.887051 -0.210217 0.123816
v 1.010982 -0.243711 0.140132
v 1.134912 -0.210217 0.156448
v 1.225636 -0.118711 0.168392
f 4 5 14
f 7 1 8
f 2 1 8
f 3 2 1
f 3 11 4
f 16 8 14
f 16 17 8
f 16 17 5
f 12 8 14
f 12 11 8
f 12 11 4
f 19 7 8
f 18 17 8
f 18 19 8
f 6 3 1
f 6 7 1
f 6 17 5
f 6 18 17
f 6 19 7
f 6 18 19
f 10 11 8
f 10 3 11
f 15 5 14
f 15 16 14
f 15 16 5
f 13 4 14
f 13 12 14
f 13 12 4
f 9 3 2
f 9 10 3
f 9 2 8
f 9 10 8
f 6 3 4
f 6 4 5
