o torus_vhacd32_18
v 1.011229 0.006289 0.770557
v 0.984656 0.131289 0.750168
v 0.912059 0.222796 0.694462
v 0.812890 0.256289 0.618367
v 0.713721 0.222796 0.542272
v 0.641124 0.131289 0.486566
v 0.614552 0.006289 0.466177
v 0.641124 -0.118711 0.486566
v 0.713721 -0.210217 0.542272
v 0.812890 -0.243711 0.618367
v 0.912059 -0.210217 0.694462
v 0.984656 -0.118711 0.750168
v 1.102069 0.006289 0.634606
v 1.073062 0.131289 0.617859
v 0.993815 0.222796 0.572106
v 0.885562 0.256289 0.509606
v 0.885562 -0.243711 0.509606
v 0.993815 -0.210217 0.572106
v 1.073062 -0.118711 0.617859
v 1.174386 0.006289 0.487960
v 1.143442 0.131289 0.475143
v 1.058901 0.222796 0.440125
v 0.943416 0.256289 0.392290
v 0.943416 -0.243711 0.392290
v 1.058901 -0.210217 0.440125
v 1.143442 -0.118711 0.475143
v 1.226944 0.006289 0.333129
v 1.194592 0.131289 0.324460
v 1.106204 0.222796 0.300777
v 0.985463 0.256289 0.268424
v 0.864722 0.222796 0.236072
v 0.776334 0.131289 0.212389
v 0.743981 0.006289 0.203720
v 0.776334 -0.118711 0.212389
v 0.864722 -0.210217 0.236072
v 0.985463 -0.243711 0.268424
v 1.106204 -0.210217 0.300777
v 1.194592 -0.118711 0.324460
f 13 12 1
f 9 35 10
f 9 8 35
f 9 8 7
f 9 12 7
f 9 12 10
f 33 8 7
f 5 31 4
f 20 13 26
f 20 13 21
f 19 13 26
f 19 13 12
f 36 35 10
f 25 37 26
f 38 37 26
f 38 20 27
f 38 20 26
f 38 36 37
f 14 13 21
f 2 3 4
f 2 5 4
f 2 12 1
f 2 12 7
f 2 5 7
f 2 13 1
f 2 14 13
f 30 31 4
f 28 29 21
f 28 20 27
f 28 20 21
f 28 30 29
f 28 38 27
f 34 33 35
f 34 8 35
f 34 33 8
f 6 33 7
f 6 5 7
f 6 5 31
f 24 36 37
f 24 25 37
f 24 17 25
f 18 19 12
f 18 19 26
f 18 25 26
f 18 17 10
f 18 17 25
f 15 3 4
f 15 2 3
f 15 2 14
f 15 14 21
f 32 33 31
f 32 6 31
f 32 6 33
f 11 12 10
f 11 18 10
f 11 18 12
f 22 29 21
f 22 15 21
f 16 15 4
f 16 22 15
f 23 30 29
f 23 22 29
f 23 16 22
f 30 33 31
f 30 33 35
f 30 36 35
f 28 30 36
f 28 38 36
f 24 17 10
f 24 36 10
f 23 16 4
f 23 30 4
