o torus_vhacd64_10
v -0.605463 0.006289 -1.072926
v -0.588716 0.131289 -1.043920
v -0.542963 0.222796 -0.964673
v -0.480463 0.256289 -0.856420
v -0.417963 0.222796 -0.748167
v -0.372210 0.131289 -0.668920
v -0.355463 0.006289 -0.639913
v -0.372210 -0.118711 -0.668920
v -0.417963 -0.210217 -0.748167
v -0.480463 -0.243711 -0.856420
v -0.542963 -0.210217 -0.964673
v -0.588716 -0.118711 -1.043920
v -0.741415 0.006289 -0.982086
v -0.721025 0.131289 -0.955514
v -0.665320 0.222796 -0.882917
v -0.589225 0.256289 -0.783748
v -0.513129 0.222796 -0.684578
v -0.457424 0.131289 -0.611982
v -0.437034 0.006289 -0.585409
v -0.457424 -0.118711 -0.611982
v -0.513129 -0.210217 -0.684578
v -0.589225 -0.243711 -0.783748
v -0.665320 -0.210217 -0.882917
v -0.721025 -0.118711 -0.955514
f 2 3 4
f 2 1 13
f 20 8 21
f 9 21 10
f 9 8 21
f 5 17 4
f 5 2 4
f 16 3 4
f 16 17 4
f 22 11 10
f 22 23 11
f 22 21 10
f 24 23 13
f 12 11 10
f 12 9 10
f 12 2 1
f 12 1 13
f 12 24 13
f 12 23 11
f 12 24 23
f 6 8 7
f 6 5 17
f 6 18 17
f 15 16 3
f 15 2 3
f 19 22 16
f 19 20 21
f 19 22 21
f 19 16 17
f 19 18 17
f 19 8 7
f 19 20 8
f 19 6 7
f 19 6 18
f 14 15 13
f 14 2 13
f 14 15 2
f 12 5 9
f 12 5 2
f 6 5 9
f 6 9 8
f 15 22 23
f 15 23 13
f 15 22 16
