o torus_vhacd64_57
v -1.062995 0.006289 0.634606
v -1.033989 0.131289 0.617859
v -0.954742 0.222796 0.572106
v -0.846489 0.256289 0.509606
v -0.738235 0.222796 0.447106
v -0.658989 0.131289 0.401352
v -0.629982 0.006289 0.384606
v -0.658989 -0.118711 0.401352
v -0.738235 -0.210217 0.447106
v -0.846489 -0.243711 0.509606
v -0.954742 -0.210217 0.572106
v -1.033989 -0.118711 0.617859
v -0.972155 0.006289 0.770558
v -0.945583 0.131289 0.750168
v -0.872986 0.222796 0.694462
v -0.773816 0.256289 0.618367
v -0.674647 0.222796 0.542272
v -0.602050 0.131289 0.486566
v -0.575478 0.006289 0.466177
v -0.602050 -0.118711 0.486566
v -0.674647 -0.210217 0.542272
v -0.773816 -0.243711 0.618367
v -0.872986 -0.210217 0.694462
v -0.945583 -0.118711 0.750168
f 12 13 1
f 8 12 10
f 17 13 19
f 17 16 13
f 21 13 19
f 21 22 13
f 24 12 13
f 24 22 13
f 14 16 13
f 14 15 16
f 14 3 15
f 7 8 6
f 2 12 1
f 2 14 3
f 2 13 1
f 2 14 13
f 18 17 19
f 18 7 19
f 18 7 6
f 5 18 6
f 5 18 17
f 5 17 16
f 20 21 19
f 20 7 19
f 20 7 8
f 9 8 10
f 9 22 10
f 9 21 22
f 9 20 8
f 9 20 21
f 11 12 10
f 11 24 12
f 4 5 6
f 4 2 6
f 4 2 3
f 4 5 16
f 4 15 16
f 4 3 15
f 23 24 22
f 23 11 24
f 23 22 10
f 23 11 10
f 2 8 12
f 2 8 6
