o torus_vhacd64_44
v 0.343060 0.006289 1.217013
v 0.334391 0.131289 1.184661
v 0.310708 0.222796 1.096272
v 0.278356 0.256289 0.975532
v 0.246003 0.222796 0.854791
v 0.222320 0.131289 0.766403
v 0.213651 0.006289 0.734050
v 0.222320 -0.118711 0.766403
v 0.246003 -0.210217 0.854791
v 0.278356 -0.243711 0.975532
v 0.310708 -0.210217 1.096272
v 0.334391 -0.118711 1.184661
v 0.497891 0.006289 1.164455
v 0.485074 0.131289 1.133511
v 0.450056 0.222796 1.048970
v 0.402221 0.256289 0.933485
v 0.354385 0.222796 0.818000
v 0.319367 0.131289 0.733459
v 0.306550 0.006289 0.702515
v 0.319367 -0.118711 0.733459
v 0.354385 -0.210217 0.818000
v 0.402221 -0.243711 0.933485
v 0.450056 -0.210217 1.048970
v 0.485074 -0.118711 1.133511
f 12 1 13
f 2 12 1
f 2 14 15
f 2 1 13
f 2 14 13
f 5 9 7
f 8 9 7
f 22 23 10
f 22 9 10
f 22 9 21
f 24 12 13
f 24 23 12
f 24 14 13
f 24 22 23
f 11 23 10
f 11 23 12
f 11 9 12
f 11 9 10
f 3 15 4
f 3 2 15
f 3 5 2
f 3 5 4
f 20 8 7
f 20 22 21
f 20 9 21
f 20 8 9
f 6 5 7
f 6 18 7
f 6 18 5
f 17 18 5
f 16 17 18
f 16 14 15
f 16 15 4
f 16 5 4
f 16 17 5
f 19 20 22
f 19 16 22
f 19 16 18
f 19 18 7
f 19 20 7
f 5 2 12
f 5 9 12
f 16 24 14
f 16 24 22
