o torus_capsule32_0
v -0.080955 0.008516 0.012802
v -0.085257 0.009820 0.009798
v -0.088132 0.010692 0.005303
v -0.089141 0.010999 0.000000
v -0.088132 0.010692 -0.005303
v -0.085257 0.009820 -0.009798
v -0.080955 0.008516 -0.012802
v -0.063703 0.008739 -0.011142
v -0.060435 0.007747 -0.006030
v -0.059287 0.007399 -0.000000
v -0.060435 0.007747 0.006030
v -0.063703 0.008739 0.011142
v -0.075272 -0.002765 0.015757
v -0.081273 -0.002174 0.014557
v -0.086361 -0.001673 0.011142
v -0.089760 -0.001338 0.006030
v -0.090953 -0.001221 0.000000
v -0.089760 -0.001338 -0.006030
v -0.086361 -0.001673 -0.011142
v -0.081273 -0.002174 -0.014557
v -0.075272 -0.002765 -0.015757
v -0.075784 0.007961 -0.013856
v -0.075272 0.002765 -0.015757
v -0.073287 -0.017397 -0.015757
v -0.072775 -0.022593 -0.013856
v -0.070507 0.008481 -0.012802
v -0.069271 0.003356 -0.014557
v -0.067286 -0.016806 -0.014557
v -0.067498 -0.022073 -0.012802
v -0.070507 0.008481 0.012802
v -0.069271 0.003356 0.014557
v -0.067286 -0.016806 0.014557
v -0.067498 -0.022073 0.012802
v -0.075784 0.007961 0.013856
v -0.075272 0.002765 0.015757
v -0.073287 -0.017397 0.015757
v -0.072775 -0.022593 0.013856
v -0.081273 0.002174 0.014557
v -0.079287 -0.017988 0.014557
v -0.083439 0.011485 0.007272
v -0.086361 0.001673 0.011142
v -0.084375 -0.018489 0.011142
v -0.079595 -0.027542 0.007272
v -0.089760 0.001338 0.006030
v -0.087774 -0.018824 0.006030
v -0.090953 0.001221 0.000000
v -0.088968 -0.018941 0.000000
v -0.089760 0.001338 -0.006030
v -0.087774 -0.018824 -0.006030
v -0.083439 0.011485 -0.007272
v -0.086361 0.001673 -0.011142
v -0.084375 -0.018489 -0.011142
v -0.079595 -0.027542 -0.007272
v -0.081273 0.002174 -0.014557
v -0.079287 -0.017988 -0.014557
v -0.074365 -0.011973 -0.015757
v -0.074365 -0.011973 0.015757
v -0.080136 -0.013723 0.014557
v -0.085027 -0.015207 0.011142
v -0.088296 -0.016199 0.006030
v -0.089444 -0.016547 0.000000
v -0.088296 -0.016199 -0.006030
v -0.085027 -0.015207 -0.011142
v -0.080136 -0.013723 -0.014557
v -0.060774 -0.020999 -0.011142
v -0.057762 -0.019389 -0.006030
v -0.056704 -0.018823 -0.000000
v -0.057762 -0.019389 0.006030
v -0.060774 -0.020999 0.011142
v -0.077739 -0.024146 0.012802
v -0.081703 -0.026265 0.009798
v -0.084352 -0.027681 0.005303
v -0.085282 -0.028178 0.000000
v -0.084352 -0.027681 -0.005303
v -0.081703 -0.026265 -0.009798
v -0.077739 -0.024146 -0.012802
f 9 8 10
f 12 8 10
f 74 49 73
f 74 49 52
f 26 8 50
f 26 22 50
f 47 49 73
f 47 45 73
f 72 45 73
f 68 10 67
f 28 65 29
f 66 10 67
f 66 9 10
f 66 68 67
f 66 9 8
f 66 65 8
f 4 40 50
f 63 49 52
f 43 72 73
f 71 43 72
f 11 12 10
f 11 68 10
f 11 68 12
f 69 68 12
f 69 31 12
f 16 61 17
f 27 65 8
f 27 28 65
f 27 26 8
f 27 26 22
f 27 23 22
f 25 76 24
f 25 28 24
f 25 28 29
f 75 74 52
f 55 76 24
f 55 75 52
f 55 75 76
f 55 63 52
f 55 56 24
f 7 23 22
f 7 23 54
f 7 22 50
f 3 40 2
f 3 4 40
f 3 4 44
f 5 4 50
f 5 4 48
f 5 48 51
f 46 4 44
f 46 4 48
f 20 63 19
f 62 63 49
f 62 47 49
f 62 61 47
f 1 40 2
f 1 34 40
f 38 1 2
f 70 71 39
f 70 36 37
f 70 36 39
f 70 43 37
f 70 71 43
f 57 58 13
f 57 58 39
f 57 36 39
f 30 31 12
f 30 34 31
f 30 40 12
f 30 34 40
f 35 34 31
f 35 1 34
f 35 38 1
f 32 69 31
f 32 36 37
f 60 16 61
f 60 47 45
f 60 61 47
f 53 75 74
f 53 74 73
f 53 43 73
f 53 65 29
f 53 75 76
f 53 25 29
f 53 25 76
f 6 5 51
f 6 7 50
f 6 5 50
f 6 54 51
f 6 7 54
f 64 55 63
f 64 20 63
f 64 55 56
f 64 56 21
f 64 20 21
f 18 63 19
f 18 62 63
f 18 61 17
f 18 62 61
f 33 32 37
f 33 32 69
f 33 69 43
f 33 43 37
f 14 58 13
f 41 3 2
f 41 3 44
f 41 38 2
f 59 15 16
f 59 60 16
f 59 60 45
f 59 58 39
f 59 14 15
f 59 14 58
f 42 59 45
f 42 72 45
f 42 71 72
f 42 71 39
f 42 59 39
f 40 12 8
f 40 8 50
f 56 23 24
f 56 23 21
f 69 66 68
f 69 66 65
f 27 23 24
f 27 28 24
f 46 16 44
f 46 16 17
f 20 54 51
f 20 19 51
f 20 23 21
f 20 23 54
f 35 57 36
f 35 57 13
f 32 35 36
f 32 35 31
f 53 69 65
f 53 69 43
f 18 19 51
f 18 48 51
f 18 46 17
f 18 46 48
f 14 35 13
f 14 35 38
f 41 16 44
f 41 15 16
f 41 14 38
f 41 14 15
