o torus_vhacd64_58
v -1.062995 0.006289 0.634606
v -1.033989 0.131289 0.617859
v -0.954742 0.222796 0.572106
v -0.846489 0.256289 0.509606
v -0.738235 0.222796 0.447106
v -0.658989 0.131289 0.401352
v -0.629982 0.006289 0.384606
v -0.658989 -0.118711 0.401352
v -0.738235 -0.210217 0.447106
v -0.846489 -0.243711 0.509606
v -0.954742 -0.210217 0.572106
v -1.033989 -0.118711 0.617859
f 5 6 7
f 9 5 1
f 9 5 7
f 3 5 1
f 11 9 1
f 11 9 10
f 11 12 1
f 11 12 10
f 8 12 10
f 8 9 10
f 8 6 7
f 8 9 7
f 4 5 6
f 4 3 5
f 2 4 6
f 2 4 3
f 2 12 1
f 2 3 1
f 2 8 12
f 2 8 6
