o torus_vhacd64_35
v 1.174386 0.006289 0.487960
v 1.143442 0.131289 0.475143
v 1.058901 0.222796 0.440125
v 0.943416 0.256289 0.392290
v 0.827931 0.222796 0.344454
v 0.743391 0.131289 0.309436
v 0.712446 0.006289 0.296619
v 0.743391 -0.118711 0.309436
v 0.827931 -0.210217 0.344454
v 0.943416 -0.243711 0.392290
v 1.058901 -0.210217 0.440125
v 1.143442 -0.118711 0.475143
v 1.226944 0.006289 0.333129
v 1.194592 0.131289 0.324460
v 1.106204 0.222796 0.300777
v 0.985463 0.256289 0.268424
v 0.864722 0.222796 0.236072
v 0.776334 0.131289 0.212389
v 0.743981 0.006289 0.203720
v 0.776334 -0.118711 0.212389
v 0.864722 -0.210217 0.236072
v 0.985463 -0.243711 0.268424
v 1.106204 -0.210217 0.300777
v 1.194592 -0.118711 0.324460
f 4 10 7
f 9 10 7
f 23 11 10
f 2 3 4
f 8 9 7
f 5 4 7
f 5 16 4
f 5 16 17
f 22 23 10
f 22 9 10
f 22 9 21
f 24 1 13
f 24 22 23
f 12 11 10
f 12 2 1
f 12 24 1
f 12 23 11
f 12 24 23
f 15 2 3
f 15 3 4
f 15 16 4
f 20 8 7
f 20 19 7
f 20 19 21
f 20 9 21
f 20 8 9
f 18 19 7
f 18 19 17
f 18 5 17
f 14 24 13
f 14 15 16
f 14 15 2
f 14 1 13
f 14 2 1
f 6 5 7
f 6 18 7
f 6 18 5
f 22 16 17
f 22 19 21
f 22 19 17
f 12 2 4
f 12 4 10
f 14 22 16
f 14 24 22
