o torus_vhacd64_14
v -0.143621 0.006289 -1.229700
v -0.139249 0.131289 -1.196493
v -0.127305 0.222796 -1.105770
v -0.110989 0.256289 -0.981839
v -0.094674 0.222796 -0.857909
v -0.082730 0.131289 -0.767185
v -0.078358 0.006289 -0.733978
v -0.082730 -0.118711 -0.767185
v -0.094674 -0.210217 -0.857909
v -0.110989 -0.243711 -0.981839
v -0.127305 -0.210217 -1.105770
v -0.139249 -0.118711 -1.196493
v -0.303987 0.006289 -1.197802
v -0.295318 0.131289 -1.165449
v -0.271634 0.222796 -1.077061
v -0.239282 0.256289 -0.956320
v -0.206930 0.222796 -0.835580
v -0.183246 0.131289 -0.747191
v -0.174577 0.006289 -0.714839
v -0.183246 -0.118711 -0.747191
v -0.206930 -0.210217 -0.835580
v -0.239282 -0.243711 -0.956320
v -0.271634 -0.210217 -1.077061
v -0.295318 -0.118711 -1.165449
f 4 10 7
f 2 1 13
f 8 10 7
f 17 21 13
f 12 2 1
f 12 1 13
f 3 2 4
f 20 8 7
f 9 8 10
f 9 22 10
f 9 22 21
f 9 20 21
f 9 20 8
f 6 4 7
f 11 12 10
f 11 22 10
f 11 22 23
f 24 12 13
f 24 22 23
f 24 11 23
f 24 11 12
f 24 21 13
f 24 22 21
f 18 6 7
f 5 6 4
f 5 18 17
f 5 18 6
f 16 3 4
f 16 15 3
f 16 5 4
f 16 5 17
f 14 3 2
f 14 15 3
f 14 2 13
f 14 16 15
f 14 17 13
f 14 16 17
f 19 18 20
f 19 20 7
f 19 18 7
f 12 2 4
f 12 4 10
f 18 20 21
f 18 17 21
