o torus_vhacd64_24
v 1.011229 0.006289 -0.751346
v 0.984656 0.131289 -0.730956
v 0.912059 0.222796 -0.675251
v 0.812890 0.256289 -0.599156
v 0.713721 0.222796 -0.523061
v 0.641124 0.131289 -0.467355
v 0.614552 0.006289 -0.446965
v 0.641124 -0.118711 -0.467355
v 0.713721 -0.210217 -0.523061
v 0.812890 -0.243711 -0.599156
v 0.912059 -0.210217 -0.675251
v 0.984656 -0.118711 -0.730956
v 0.903420 0.006289 -0.874278
v 0.879737 0.131289 -0.850594
v 0.815032 0.222796 -0.785889
v 0.726644 0.256289 -0.697501
v 0.638255 0.222796 -0.609113
v 0.573551 0.131289 -0.544408
v 0.549867 0.006289 -0.520724
v 0.573551 -0.118711 -0.544408
v 0.638255 -0.210217 -0.609113
v 0.726644 -0.243711 -0.697501
v 0.815032 -0.210217 -0.785889
v 0.879737 -0.118711 -0.850594
f 7 6 19
f 17 15 13
f 17 15 16
f 3 15 16
f 24 13 1
f 14 13 1
f 14 15 13
f 14 3 15
f 8 7 19
f 8 7 10
f 18 6 19
f 18 17 19
f 18 17 6
f 21 17 13
f 21 17 19
f 21 22 10
f 4 7 6
f 4 17 16
f 4 3 16
f 23 24 13
f 23 21 13
f 23 21 22
f 2 14 1
f 2 14 3
f 2 4 3
f 2 7 1
f 2 4 7
f 20 8 19
f 20 21 19
f 20 21 8
f 9 8 10
f 9 21 10
f 9 21 8
f 5 17 6
f 5 4 6
f 5 4 17
f 12 24 1
f 12 7 1
f 12 7 10
f 11 23 24
f 11 12 24
f 11 12 10
f 11 22 10
f 11 23 22
