v -0.562257 -0.222137 0.993734
v 0.026660 0.036484 1.266711
v 0.012249 0.036433 1.266790
v -0.576609 0.165744 0.534178
v 0.026660 -0.222137 0.878746
v -0.576609 0.180123 1.051228
v 0.026660 0.237588 0.878904
v -0.576609 -0.107205 0.490939
v 0.026660 0.036484 0.749661
v -0.160156 -0.135913 1.223551
v -0.160156 0.266346 1.022481
v -0.576609 0.266346 0.778329
v -0.576609 -0.222137 0.634674
v 0.026660 -0.250895 1.036894
v -0.576609 -0.020982 1.123055
v 0.026660 0.237588 1.137390
v -0.289327 0.122657 1.209217
v -0.562257 0.036433 0.462192
v 0.026660 -0.121534 0.778329
v -0.404263 0.237588 1.065562
v 0.026660 -0.222137 1.137468
v -0.576609 -0.250895 0.864491
v 0.026660 0.136986 0.778329
v -0.274974 -0.006603 1.238043
v -0.432968 -0.135913 1.151724
v -0.289327 -0.222137 1.108643
v -0.547905 0.237588 0.649008
v 0.026660 0.266346 0.979400
v -0.145745 0.151365 1.223551
v -0.562257 -0.035361 0.462192
v 0.026660 -0.121534 1.237964
v -0.547905 -0.250895 0.778329
v -0.461732 0.022054 1.180471
v -0.576609 0.266346 0.850236
v -0.562257 0.136986 0.505431
v -0.562257 -0.150292 0.534178
v 0.026660 -0.250895 0.979400
v -0.102688 -0.006603 1.266790
v -0.461732 0.151365 1.137468
v -0.131392 0.237588 1.137468
v -0.576609 -0.135913 1.079975
v 0.026660 0.136986 1.237964
v -0.274974 -0.250895 1.008147
v 0.026660 -0.020982 0.749661
v -0.576609 0.237588 0.979400
v -0.576609 0.122657 1.094309
v -0.160156 -0.222137 1.137468
v -0.289327 0.223209 1.123055
v -0.303679 -0.135913 1.194805
v -0.188861 0.036433 1.252377
v -0.562257 -0.107205 0.490939
v -0.461732 -0.064068 1.166136
v -0.375500 0.266346 0.964987
v -0.562257 -0.222137 0.634674
v -0.418616 -0.222137 1.065562
v 0.026660 0.266346 1.036815
v -0.562257 0.165744 0.534178
v -0.562257 -0.135913 1.094309
v -0.289327 0.151365 1.194805
v -0.318031 -0.035361 1.223551
v -0.332384 0.022054 1.223551
v -0.576609 0.036433 0.462192
v -0.562257 0.079520 0.476605
f 18 62 63
f 2 5 7
f 6 4 8
f 7 5 9
f 4 6 12
f 6 8 13
f 5 2 14
f 6 13 15
f 2 7 16
f 9 5 19
f 14 2 21
f 15 13 22
f 7 9 23
f 9 18 23
f 4 12 27
f 27 12 28
f 12 11 28
f 16 7 28
f 7 27 28
f 18 9 30
f 21 2 31
f 14 22 32
f 22 13 32
f 11 12 34
f 12 6 34
f 13 8 36
f 5 14 37
f 14 32 37
f 2 3 38
f 31 2 38
f 10 31 38
f 20 6 39
f 33 17 39
f 11 20 40
f 22 1 41
f 15 22 41
f 3 2 42
f 2 16 42
f 29 3 42
f 16 40 42
f 40 29 42
f 22 14 43
f 9 19 44
f 30 9 44
f 19 30 44
f 6 20 45
f 34 6 45
f 6 15 46
f 15 33 46
f 39 6 46
f 33 39 46
f 14 21 47
f 31 10 47
f 21 31 47
f 43 14 47
f 26 43 47
f 20 39 48
f 40 20 48
f 29 40 48
f 25 26 49
f 47 10 49
f 26 47 49
f 3 29 50
f 29 17 50
f 38 3 50
f 24 38 50
f 19 5 51
f 8 30 51
f 30 19 51
f 5 36 51
f 36 8 51
f 33 15 52
f 25 49 52
f 20 11 53
f 11 34 53
f 45 20 53
f 34 45 53
f 32 13 54
f 36 5 54
f 13 36 54
f 5 37 54
f 37 32 54
f 1 22 55
f 26 25 55
f 22 43 55
f 43 26 55
f 28 11 56
f 16 28 56
f 11 40 56
f 40 16 56
f 7 23 57
f 4 27 57
f 27 7 57
f 35 4 57
f 23 35 57
f 41 1 58
f 15 41 58
f 52 15 58
f 25 52 58
f 1 55 58
f 55 25 58
f 17 29 59
f 39 17 59
f 29 48 59
f 48 39 59
f 10 38 60
f 38 24 60
f 49 10 60
f 33 52 60
f 52 49 60
f 17 33 61
f 50 17 61
f 24 50 61
f 60 24 61
f 33 60 61
f 8 4 62
f 30 8 62
f 18 30 62
f 4 35 62
f 62 35 63
f 23 18 63
f 35 23 63
