o torus_capsule32_29
v -0.062581 0.052057 0.012802
v -0.065433 0.055532 0.009798
v -0.067338 0.057854 0.005303
v -0.068007 0.058669 0.000000
v -0.067338 0.057854 -0.005303
v -0.065433 0.055532 -0.009798
v -0.062581 0.052057 -0.012802
v -0.048112 0.042658 -0.011142
v -0.045946 0.040017 -0.006030
v -0.045185 0.039090 -0.000000
v -0.045946 0.040017 0.006030
v -0.048112 0.042658 0.011142
v -0.064123 0.039520 0.015757
v -0.068784 0.043345 0.014557
v -0.072736 0.046588 0.011142
v -0.075376 0.048755 0.006030
v -0.076303 0.049516 0.000000
v -0.075376 0.048755 -0.006030
v -0.072736 0.046588 -0.011142
v -0.068784 0.043345 -0.014557
v -0.064123 0.039520 -0.015757
v -0.058589 0.048723 0.013856
v -0.061051 0.044118 0.015757
v -0.070601 0.026251 0.015757
v -0.073062 0.021646 0.013856
v -0.066368 0.046961 0.014557
v -0.075919 0.029093 0.014557
v -0.062996 0.055905 0.007272
v -0.070877 0.049370 0.011142
v -0.080427 0.031503 0.011142
v -0.081482 0.021320 0.007272
v -0.073889 0.050980 0.006030
v -0.083439 0.033113 0.006030
v -0.074947 0.051546 0.000000
v -0.084497 0.033679 0.000000
v -0.073889 0.050980 -0.006030
v -0.083439 0.033113 -0.006030
v -0.062996 0.055905 -0.007272
v -0.070877 0.049370 -0.011142
v -0.080427 0.031503 -0.011142
v -0.081482 0.021320 -0.007272
v -0.066368 0.046961 -0.014557
v -0.075919 0.029093 -0.014557
v -0.058589 0.048723 -0.013856
v -0.061051 0.044118 -0.015757
v -0.070601 0.026251 -0.015757
v -0.073062 0.021646 -0.013856
v -0.053913 0.046224 -0.012802
v -0.055733 0.041276 -0.014557
v -0.065283 0.023408 -0.014557
v -0.068386 0.019146 -0.012802
v -0.053913 0.046224 0.012802
v -0.055733 0.041276 0.014557
v -0.065283 0.023408 0.014557
v -0.068386 0.019146 0.012802
v -0.068484 0.031360 0.015757
v -0.074255 0.033110 0.014557
v -0.079147 0.034594 0.011142
v -0.082415 0.035586 0.006030
v -0.083563 0.035934 0.000000
v -0.082415 0.035586 -0.006030
v -0.079147 0.034594 -0.011142
v -0.074255 0.033110 -0.014557
v -0.068484 0.031360 -0.015757
v -0.078052 0.023113 0.012802
v -0.082526 0.023554 0.009798
v -0.085515 0.023848 0.005303
v -0.086564 0.023951 0.000000
v -0.085515 0.023848 -0.005303
v -0.082526 0.023554 -0.009798
v -0.078052 0.023113 -0.012802
v -0.062198 0.016305 -0.011142
v -0.058799 0.015970 -0.006030
v -0.057606 0.015852 -0.000000
v -0.058799 0.015970 0.006030
v -0.062198 0.016305 0.011142
f 44 49 48
f 69 41 68
f 47 46 71
f 47 41 71
f 50 47 46
f 70 41 71
f 70 69 41
f 31 41 68
f 59 58 15
f 73 9 72
f 73 74 10
f 73 9 10
f 12 11 76
f 12 53 52
f 12 11 10
f 34 36 4
f 8 49 48
f 8 9 72
f 8 9 10
f 8 12 10
f 8 50 72
f 8 50 49
f 45 42 21
f 45 44 49
f 20 42 21
f 20 42 19
f 51 41 72
f 51 47 41
f 51 50 72
f 51 50 47
f 54 12 76
f 54 12 53
f 37 69 68
f 37 35 68
f 60 59 17
f 60 59 35
f 33 59 58
f 33 35 68
f 33 59 35
f 32 34 4
f 1 26 2
f 14 26 13
f 14 58 15
f 14 26 15
f 75 73 74
f 75 11 76
f 75 74 10
f 75 11 10
f 28 12 52
f 28 1 2
f 64 20 21
f 43 46 71
f 43 64 46
f 43 70 71
f 7 6 42
f 7 45 44
f 7 45 42
f 5 36 4
f 39 42 19
f 39 6 42
f 39 5 36
f 39 5 6
f 55 31 76
f 55 54 76
f 30 33 58
f 18 39 19
f 18 39 36
f 18 34 17
f 18 34 36
f 29 26 15
f 29 26 2
f 16 59 15
f 16 29 15
f 16 29 32
f 16 59 17
f 16 34 17
f 16 32 34
f 23 1 26
f 23 26 13
f 56 14 13
f 3 28 4
f 3 28 2
f 3 32 4
f 3 29 2
f 3 29 32
f 63 64 20
f 63 43 64
f 40 43 70
f 40 70 69
f 40 37 69
f 38 7 6
f 38 8 48
f 38 44 48
f 38 7 44
f 38 5 6
f 38 28 4
f 38 5 4
f 25 54 24
f 25 55 54
f 25 65 24
f 25 65 31
f 25 55 31
f 27 56 24
f 27 65 24
f 27 30 58
f 67 33 68
f 67 30 33
f 67 31 68
f 61 18 19
f 61 37 35
f 61 60 35
f 61 60 17
f 61 18 17
f 22 23 1
f 22 28 52
f 22 28 1
f 22 23 53
f 22 53 52
f 57 56 14
f 57 27 56
f 57 14 58
f 57 27 58
f 66 65 31
f 66 67 31
f 66 67 30
f 66 27 65
f 66 27 30
f 62 40 37
f 62 61 37
f 62 61 19
f 62 20 19
f 62 63 20
f 62 63 43
f 62 40 43
f 31 41 72
f 31 76 72
f 45 50 46
f 45 50 49
f 75 76 72
f 75 73 72
f 64 45 46
f 64 45 21
f 23 54 24
f 23 54 53
f 56 23 24
f 56 23 13
f 38 28 12
f 38 8 12
