o torus_vhacd64_17
v 0.182694 0.006289 -1.229700
v 0.178323 0.131289 -1.196493
v 0.166379 0.222796 -1.105770
v 0.150063 0.256289 -0.981839
v 0.133747 0.222796 -0.857909
v 0.121803 0.131289 -0.767185
v 0.117431 0.006289 -0.733978
v 0.121803 -0.118711 -0.767185
v 0.133747 -0.210217 -0.857909
v 0.150063 -0.243711 -0.981839
v 0.166379 -0.210217 -1.105770
v 0.178323 -0.118711 -1.196493
f 9 1 7
f 9 10 1
f 5 1 7
f 2 3 1
f 2 12 1
f 11 10 1
f 11 12 1
f 8 9 7
f 8 9 10
f 8 11 10
f 4 3 1
f 4 5 1
f 6 4 5
f 6 5 7
f 6 8 7
f 6 4 3
f 11 2 12
f 11 2 3
f 6 11 3
f 6 8 11
