o torus_vhacd32_20
v 0.644537 0.006289 1.092137
v 0.627790 0.131289 1.063131
v 0.582037 0.222796 0.983884
v 0.519537 0.256289 0.875631
v 0.457037 0.222796 0.767378
v 0.411284 0.131289 0.688131
v 0.394537 0.006289 0.659125
v 0.411284 -0.118711 0.688131
v 0.457037 -0.210217 0.767378
v 0.519537 -0.243711 0.875631
v 0.582037 -0.210217 0.983884
v 0.627790 -0.118711 1.063131
v 0.780488 0.006289 1.001298
v 0.760099 0.131289 0.974725
v 0.704393 0.222796 0.902128
v 0.628298 0.256289 0.802959
v 0.628298 -0.243711 0.802959
v 0.704393 -0.210217 0.902128
v 0.760099 -0.118711 0.974725
v 0.903420 0.006289 0.893490
v 0.879736 0.131289 0.869806
v 0.815032 0.222796 0.805101
v 0.726643 0.256289 0.716713
v 0.726643 -0.243711 0.716713
v 0.815032 -0.210217 0.805101
v 0.879736 -0.118711 0.869806
v 1.011229 0.006289 0.770557
v 0.984656 0.131289 0.750168
v 0.912059 0.222796 0.694462
v 0.812890 0.256289 0.618367
v 0.713721 0.222796 0.542272
v 0.641124 0.131289 0.486566
v 0.614552 0.006289 0.466177
v 0.641124 -0.118711 0.486566
v 0.713721 -0.210217 0.542272
v 0.812890 -0.243711 0.618367
v 0.912059 -0.210217 0.694462
v 0.984656 -0.118711 0.750168
f 12 2 7
f 9 8 7
f 9 12 7
f 9 12 10
f 36 9 10
f 36 9 35
f 36 37 27
f 11 12 10
f 14 13 2
f 3 2 4
f 3 14 2
f 3 14 15
f 30 32 27
f 30 32 31
f 34 32 27
f 34 36 27
f 34 36 35
f 34 9 35
f 34 9 8
f 34 8 7
f 1 12 2
f 1 13 2
f 1 13 12
f 38 37 27
f 20 14 13
f 20 28 27
f 20 38 27
f 20 38 26
f 19 13 12
f 19 11 12
f 19 20 13
f 19 20 26
f 21 20 14
f 21 20 28
f 29 28 27
f 29 30 27
f 33 32 7
f 33 34 7
f 33 34 32
f 5 32 31
f 5 30 4
f 5 30 31
f 5 2 7
f 5 2 4
f 17 11 10
f 25 19 26
f 25 38 37
f 25 38 26
f 25 24 36
f 25 36 37
f 25 17 24
f 16 3 4
f 16 3 15
f 22 23 30
f 22 29 30
f 22 16 23
f 22 16 15
f 22 14 15
f 22 21 14
f 22 21 28
f 22 29 28
f 6 32 7
f 6 5 7
f 6 5 32
f 18 19 11
f 18 25 19
f 18 17 11
f 18 25 17
f 17 24 36
f 17 36 10
f 16 23 30
f 16 30 4
