o torus_fine_8
v 1.258843 0.006289 -0.153552
v 1.225636 0.131289 -0.149180
v 1.134912 0.222796 -0.137236
v 1.010982 0.256289 -0.120920
v 0.887051 0.222796 -0.104605
v 0.796328 0.131289 -0.092661
v 0.763121 0.006289 -0.088289
v 0.796328 -0.118711 -0.092661
v 0.887051 -0.210217 -0.104605
v 1.010982 -0.243711 -0.120920
v 1.134912 -0.210217 -0.137236
v 1.225636 -0.118711 -0.149180
v 1.226944 0.006289 -0.313918
v 1.194592 0.131289 -0.305249
v 1.106204 0.222796 -0.281566
v 0.985463 0.256289 -0.249213
v 0.985463 -0.243711 -0.249213
v 1.106204 -0.210217 -0.281566
v 1.194592 -0.118711 -0.305249
v 1.174387 0.006289 -0.468749
v 1.143442 0.131289 -0.455931
v 1.058902 0.222796 -0.420913
v 0.943417 0.256289 -0.373078
v 0.943417 -0.243711 -0.373078
v 1.058902 -0.210217 -0.420913
v 1.143442 -0.118711 -0.455931
v 1.102069 0.006289 -0.615394
v 1.073062 0.131289 -0.598648
v 0.993815 0.222796 -0.552894
v 0.885562 0.256289 -0.490394
v 0.885562 -0.243711 -0.490394
v 0.993815 -0.210217 -0.552894
v 1.073062 -0.118711 -0.598648
v 1.011229 0.006289 -0.751346
v 0.984656 0.131289 -0.730956
v 0.912059 0.222796 -0.675251
v 0.812890 0.256289 -0.599156
v 0.812890 -0.243711 -0.599156
v 0.912059 -0.210217 -0.675251
v 0.984656 -0.118711 -0.730956
v 0.903420 0.006289 -0.874278
v 0.879737 0.131289 -0.850594
v 0.815032 0.222796 -0.785889
v 0.726644 0.256289 -0.697501
v 0.638255 0.222796 -0.609113
v 0.638255 -0.210217 -0.609113
v 0.726644 -0.243711 -0.697501
v 0.815032 -0.210217 -0.785889
v 0.879737 -0.118711 -0.850594
v 0.496498 0.131289 -0.611982
v 0.476108 0.006289 -0.585409
v 0.496498 -0.118711 -0.611982
f 4 7 10
f 46 47 10
f 52 46 47
f 6 7 51
f 6 4 5
f 6 4 7
f 48 52 47
f 9 46 10
f 9 52 46
f 12 2 1
f 45 4 5
f 49 52 41
f 49 48 52
f 8 7 10
f 8 9 10
f 8 9 52
f 8 7 51
f 8 52 51
f 34 49 41
f 44 45 4
f 50 6 51
f 50 44 45
f 50 6 5
f 50 45 5
f 50 52 51
f 50 52 41
f 40 34 33
f 40 34 49
f 39 40 33
f 39 49 48
f 39 40 49
f 39 48 47
f 39 38 47
f 11 12 10
f 19 13 20
f 19 12 1
f 19 13 1
f 27 20 33
f 27 34 33
f 3 2 4
f 3 15 4
f 3 15 2
f 14 15 2
f 14 13 20
f 14 2 1
f 14 13 1
f 43 44 36
f 43 50 44
f 32 25 33
f 32 39 33
f 32 24 25
f 32 39 38
f 26 25 33
f 26 19 25
f 26 20 33
f 26 19 20
f 18 19 25
f 18 11 10
f 18 11 12
f 18 19 12
f 18 24 25
f 42 43 36
f 42 34 41
f 42 50 41
f 42 43 50
f 28 27 20
f 28 27 34
f 16 15 4
f 22 14 15
f 37 44 36
f 31 32 38
f 31 32 24
f 17 18 10
f 17 18 24
f 35 42 36
f 35 28 36
f 35 42 34
f 35 28 34
f 29 37 30
f 29 37 36
f 29 28 36
f 29 22 28
f 23 29 30
f 23 29 22
f 23 16 15
f 23 22 15
f 21 22 14
f 21 22 28
f 21 14 20
f 21 28 20
f 12 2 4
f 12 4 10
f 17 38 47
f 17 47 10
f 17 31 38
f 17 31 24
f 23 16 4
f 23 44 4
f 23 37 44
f 23 37 30
