o torus_vhacd64_11
v -0.458818 0.006289 -1.145244
v -0.446000 0.131289 -1.114300
v -0.410982 0.222796 -1.029759
v -0.363147 0.256289 -0.914274
v -0.315311 0.222796 -0.798789
v -0.280293 0.131289 -0.714248
v -0.267476 0.006289 -0.683304
v -0.280293 -0.118711 -0.714248
v -0.315311 -0.210217 -0.798789
v -0.363147 -0.243711 -0.914274
v -0.410982 -0.210217 -1.029759
v -0.446000 -0.118711 -1.114300
v -0.605463 0.006289 -1.072926
v -0.588716 0.131289 -1.043920
v -0.542963 0.222796 -0.964673
v -0.480463 0.256289 -0.856420
v -0.417963 0.222796 -0.748167
v -0.372210 0.131289 -0.668920
v -0.355463 0.006289 -0.639913
v -0.372210 -0.118711 -0.668920
v -0.417963 -0.210217 -0.748167
v -0.480463 -0.243711 -0.856420
v -0.542963 -0.210217 -0.964673
v -0.588716 -0.118711 -1.043920
f 12 2 1
f 20 8 21
f 9 8 21
f 22 9 10
f 22 9 21
f 22 20 21
f 22 20 23
f 5 3 4
f 5 3 2
f 24 23 13
f 24 12 23
f 24 1 13
f 24 12 1
f 19 8 7
f 19 20 8
f 19 23 13
f 19 20 23
f 11 9 12
f 11 9 10
f 11 12 23
f 11 22 10
f 11 22 23
f 15 19 13
f 15 3 2
f 6 8 7
f 6 19 7
f 6 5 17
f 16 3 4
f 16 15 3
f 16 5 4
f 16 5 17
f 14 15 13
f 14 15 2
f 14 1 13
f 14 2 1
f 18 6 17
f 18 6 19
f 18 16 17
f 18 15 19
f 18 16 15
f 5 9 12
f 5 12 2
f 6 5 9
f 6 9 8
