o torus_capsule32_4
v -0.051224 -0.038866 -0.011142
v -0.048212 -0.037256 -0.006030
v -0.047154 -0.036690 -0.000000
v -0.048212 -0.037256 0.006030
v -0.051224 -0.038866 0.011142
v -0.063266 -0.051223 0.012802
v -0.067230 -0.053342 0.009798
v -0.069879 -0.054758 0.005303
v -0.070809 -0.055255 0.000000
v -0.069879 -0.054758 -0.005303
v -0.067230 -0.053342 -0.009798
v -0.063266 -0.051223 -0.012802
v -0.051270 -0.055181 -0.015757
v -0.051270 -0.055181 0.015757
v -0.055932 -0.059006 0.014557
v -0.059883 -0.062249 0.011142
v -0.062524 -0.064416 0.006030
v -0.063451 -0.065177 0.000000
v -0.062524 -0.064416 -0.006030
v -0.059883 -0.062249 -0.011142
v -0.055932 -0.059006 -0.014557
v -0.059217 -0.047958 -0.013856
v -0.055181 -0.051270 -0.015757
v -0.039520 -0.064123 -0.015757
v -0.035484 -0.067435 -0.013856
v -0.055853 -0.043859 -0.012802
v -0.051355 -0.046609 -0.014557
v -0.035695 -0.059462 -0.014557
v -0.032120 -0.063336 -0.012802
v -0.055853 -0.043859 0.012802
v -0.051355 -0.046609 0.014557
v -0.035695 -0.059462 0.014557
v -0.032120 -0.063336 0.012802
v -0.059217 -0.047958 0.013856
v -0.055181 -0.051270 0.015757
v -0.039520 -0.064123 0.015757
v -0.035484 -0.067435 0.013856
v -0.059006 -0.055932 0.014557
v -0.043345 -0.068784 0.014557
v -0.067121 -0.050879 0.007272
v -0.062249 -0.059883 0.011142
v -0.046588 -0.072736 0.011142
v -0.036807 -0.075757 0.007272
v -0.064416 -0.062524 0.006030
v -0.048755 -0.075376 0.006030
v -0.065177 -0.063451 0.000000
v -0.049516 -0.076303 0.000000
v -0.064416 -0.062524 -0.006030
v -0.048755 -0.075376 -0.006030
v -0.067121 -0.050879 -0.007272
v -0.062249 -0.059883 -0.011142
v -0.046588 -0.072736 -0.011142
v -0.036807 -0.075757 -0.007272
v -0.059006 -0.055932 -0.014557
v -0.043345 -0.068784 -0.014557
v -0.044118 -0.061051 -0.015757
v -0.044118 -0.061051 0.015757
v -0.046961 -0.066368 0.014557
v -0.049370 -0.070877 0.011142
v -0.050980 -0.073889 0.006030
v -0.051546 -0.074947 0.000000
v -0.050980 -0.073889 -0.006030
v -0.049370 -0.070877 -0.011142
v -0.046961 -0.066368 -0.014557
v -0.028126 -0.057822 -0.011142
v -0.027134 -0.054554 -0.006030
v -0.026786 -0.053406 -0.000000
v -0.027134 -0.054554 0.006030
v -0.028126 -0.057822 0.011142
v -0.037896 -0.072043 0.012802
v -0.039201 -0.076345 0.009798
v -0.040073 -0.079219 0.005303
v -0.040379 -0.080228 0.000000
v -0.040073 -0.079219 -0.005303
v -0.039201 -0.076345 -0.009798
v -0.037896 -0.072043 -0.012802
f 23 12 22
f 50 12 22
f 28 65 1
f 26 50 22
f 26 50 1
f 54 23 12
f 4 3 67
f 11 54 12
f 11 50 12
f 72 45 73
f 29 53 25
f 29 53 65
f 29 28 25
f 29 28 65
f 2 65 1
f 2 66 65
f 2 4 3
f 2 3 67
f 2 66 67
f 24 28 25
f 27 28 1
f 27 26 1
f 27 23 22
f 27 26 22
f 19 62 18
f 63 64 52
f 63 19 20
f 63 19 62
f 61 62 18
f 21 63 20
f 21 63 64
f 43 53 73
f 43 72 73
f 36 32 37
f 71 43 72
f 76 53 25
f 76 75 53
f 76 24 25
f 74 53 73
f 74 75 53
f 74 75 52
f 56 24 64
f 56 21 13
f 56 21 64
f 48 46 9
f 47 45 73
f 47 61 45
f 40 50 9
f 40 8 9
f 40 8 7
f 40 6 7
f 60 59 45
f 60 61 18
f 60 61 45
f 44 46 9
f 44 8 9
f 70 71 39
f 70 36 37
f 70 36 39
f 70 43 37
f 70 71 43
f 42 71 39
f 42 59 45
f 42 72 45
f 42 71 72
f 55 75 52
f 55 76 75
f 55 64 52
f 55 24 64
f 55 76 24
f 10 48 9
f 10 50 9
f 10 11 50
f 51 11 54
f 51 10 11
f 51 10 48
f 49 74 52
f 49 61 62
f 49 47 61
f 49 74 73
f 49 47 73
f 49 63 52
f 49 63 62
f 34 6 35
f 34 31 35
f 34 31 30
f 34 40 30
f 34 40 6
f 38 6 35
f 38 6 7
f 5 40 30
f 5 31 30
f 5 69 4
f 5 31 32
f 5 69 32
f 68 66 67
f 68 4 67
f 68 69 4
f 33 69 43
f 33 43 37
f 33 32 37
f 33 69 32
f 17 60 59
f 17 60 18
f 15 57 14
f 41 38 7
f 41 8 7
f 41 44 8
f 58 15 57
f 58 57 36
f 58 36 39
f 58 15 59
f 58 42 39
f 58 42 59
f 16 17 59
f 16 15 59
f 27 24 28
f 27 24 23
f 21 54 23
f 21 23 13
f 56 24 23
f 56 23 13
f 48 19 18
f 48 46 18
f 69 43 53
f 69 53 65
f 57 36 35
f 57 35 14
f 51 48 19
f 51 19 20
f 51 21 54
f 51 21 20
f 31 36 35
f 31 36 32
f 5 2 4
f 5 2 1
f 5 50 1
f 5 40 50
f 68 69 65
f 68 66 65
f 17 46 18
f 17 44 46
f 15 35 14
f 15 38 35
f 16 17 44
f 16 41 44
f 16 15 38
f 16 41 38
