o torus_vhacd64_0
v -1.219769 0.006289 -0.153552
v -1.186562 0.131289 -0.149180
v -1.095839 0.222796 -0.137236
v -0.971908 0.256289 -0.120921
v -0.847977 0.222796 -0.104605
v -0.757254 0.131289 -0.092661
v -0.724047 0.006289 -0.088289
v -0.757254 -0.118711 -0.092661
v -0.847977 -0.210217 -0.104605
v -0.971908 -0.243711 -0.120921
v -1.095839 -0.210217 -0.137236
v -1.186562 -0.118711 -0.149180
v -1.230463 0.006289 0.009606
v -1.196970 0.131289 0.009606
v -1.105463 0.222796 0.009606
v -0.980463 0.256289 0.009606
v -0.855463 0.222796 0.009606
v -0.763957 0.131289 0.009606
v -0.730463 0.006289 0.009606
v -0.763957 -0.118711 0.009606
v -0.855463 -0.210217 0.009606
v -0.980463 -0.243711 0.009606
v -1.105463 -0.210217 0.009606
v -1.196970 -0.118711 0.009606
f 1 4 10
f 12 1 10
f 12 11 10
f 2 1 4
f 2 3 4
f 20 9 21
f 8 9 10
f 8 20 9
f 22 11 10
f 22 23 11
f 22 9 10
f 22 9 21
f 24 1 13
f 24 12 1
f 24 12 11
f 24 23 11
f 19 8 7
f 19 8 20
f 6 5 4
f 6 8 7
f 6 19 7
f 14 1 13
f 14 2 1
f 14 2 3
f 14 15 3
f 16 3 4
f 16 15 3
f 16 5 4
f 16 5 17
f 18 6 19
f 18 5 17
f 18 6 5
f 6 8 10
f 6 4 10
f 18 22 21
f 18 20 21
f 18 16 17
f 18 24 13
f 18 14 13
f 18 22 23
f 18 24 23
f 18 19 20
f 18 14 15
f 18 16 15
