o torus_vhacd32_15
v 1.269537 0.006289 0.009606
v 1.236043 0.131289 0.009606
v 1.144537 0.222796 0.009606
v 1.019537 0.256289 0.009606
v 1.019537 -0.243711 0.009606
v 1.144537 -0.210217 0.009606
v 1.236043 -0.118711 0.009606
v 1.258843 0.006289 -0.153552
v 1.225636 0.131289 -0.149180
v 1.134912 0.222796 -0.137236
v 1.010982 0.256289 -0.120920
v 1.010982 -0.243711 -0.120920
v 1.134912 -0.210217 -0.137236
v 1.225636 -0.118711 -0.149180
v 1.226944 0.006289 -0.313918
v 1.194592 0.131289 -0.305249
v 1.106204 0.222796 -0.281566
v 0.985463 0.256289 -0.249213
v 0.864722 0.222796 -0.216861
v 0.776334 0.131289 -0.193177
v 0.743981 0.006289 -0.184509
v 0.776334 -0.118711 -0.193177
v 0.864722 -0.210217 -0.216861
v 0.985463 -0.243711 -0.249213
v 1.106204 -0.210217 -0.281566
v 1.194592 -0.118711 -0.305249
v 1.258843 0.006289 0.172763
v 1.225636 0.131289 0.168392
v 1.134912 0.222796 0.156448
v 1.010982 0.256289 0.140132
v 0.887051 0.222796 0.123816
v 0.796328 0.131289 0.111872
v 0.763121 0.006289 0.107500
v 0.796328 -0.118711 0.111872
v 0.887051 -0.210217 0.123816
v 1.010982 -0.243711 0.140132
v 1.134912 -0.210217 0.156448
v 1.225636 -0.118711 0.168392
f 17 25 21
f 17 25 15
f 23 25 21
f 23 25 24
f 23 35 24
f 12 25 24
f 34 37 35
f 14 8 1
f 19 20 21
f 19 17 21
f 19 20 31
f 9 17 10
f 9 8 1
f 36 37 35
f 36 35 24
f 27 28 38
f 27 38 1
f 27 28 1
f 22 23 35
f 22 34 35
f 22 23 21
f 22 34 21
f 33 34 21
f 7 38 1
f 7 14 1
f 13 14 25
f 13 12 25
f 26 25 15
f 26 14 25
f 26 8 15
f 26 14 8
f 30 29 31
f 16 8 15
f 16 9 8
f 16 17 15
f 16 9 17
f 2 28 1
f 2 9 1
f 32 33 34
f 32 29 31
f 32 20 31
f 32 20 21
f 32 33 21
f 6 37 38
f 6 7 38
f 6 7 14
f 6 13 14
f 6 36 5
f 6 36 37
f 6 12 5
f 6 13 12
f 11 17 10
f 18 19 31
f 18 30 31
f 18 19 17
f 18 11 17
f 3 9 10
f 3 2 9
f 3 30 29
f 3 11 10
f 3 28 29
f 3 2 28
f 4 3 30
f 4 3 11
f 28 37 29
f 28 37 38
f 36 12 24
f 36 12 5
f 32 37 29
f 32 34 37
f 4 18 11
f 4 18 30
