o torus_vhacd64_15
v 0.019537 0.006289 -1.240394
v 0.019537 0.131289 -1.206901
v 0.019537 0.222796 -1.115394
v 0.019537 0.256289 -0.990394
v 0.019537 0.222796 -0.865394
v 0.019537 0.131289 -0.773888
v 0.019537 0.006289 -0.740394
v 0.019537 -0.118711 -0.773888
v 0.019537 -0.210217 -0.865394
v 0.019537 -0.243711 -0.990394
v 0.019537 -0.210217 -1.115394
v 0.019537 -0.118711 -1.206901
v -0.143621 0.006289 -1.229700
v -0.139249 0.131289 -1.196493
v -0.127305 0.222796 -1.105770
v -0.110989 0.256289 -0.981839
v -0.094674 0.222796 -0.857909
v -0.082730 0.131289 -0.767185
v -0.078358 0.006289 -0.733978
v -0.082730 -0.118711 -0.767185
v -0.094674 -0.210217 -0.857909
v -0.110989 -0.243711 -0.981839
v -0.127305 -0.210217 -1.105770
v -0.139249 -0.118711 -1.196493
f 12 1 13
f 2 1 13
f 17 21 13
f 11 23 10
f 11 23 12
f 24 12 13
f 24 23 12
f 24 21 13
f 24 23 21
f 22 23 10
f 22 23 21
f 3 15 4
f 3 2 15
f 14 2 13
f 14 2 15
f 14 17 13
f 14 17 15
f 16 15 4
f 16 17 15
f 5 16 4
f 5 16 17
f 9 22 10
f 9 22 21
f 20 8 7
f 20 7 19
f 20 9 8
f 20 9 21
f 18 7 19
f 18 5 17
f 18 20 19
f 6 18 7
f 6 18 5
f 18 20 21
f 18 17 21
f 6 12 1
f 6 2 1
f 6 5 4
f 6 3 4
f 6 11 10
f 6 8 7
f 6 11 12
f 6 3 2
f 6 9 10
f 6 9 8
