o torus_vhacd32_10
v 0.780489 0.006289 -0.982086
v 0.760099 0.131289 -0.955514
v 0.704394 0.222796 -0.882917
v 0.628298 0.256289 -0.783747
v 0.552203 0.222796 -0.684578
v 0.496498 0.131289 -0.611982
v 0.476108 0.006289 -0.585409
v 0.496498 -0.118711 -0.611982
v 0.552203 -0.210217 -0.684578
v 0.628298 -0.243711 -0.783747
v 0.704394 -0.210217 -0.882917
v 0.760099 -0.118711 -0.955514
v 0.644537 0.006289 -1.072926
v 0.627790 0.131289 -1.043920
v 0.582037 0.222796 -0.964673
v 0.519537 0.256289 -0.856420
v 0.519537 -0.243711 -0.856420
v 0.582037 -0.210217 -0.964673
v 0.627790 -0.118711 -1.043920
v 0.497891 0.006289 -1.145244
v 0.485074 0.131289 -1.114299
v 0.450056 0.222796 -1.029759
v 0.402221 0.256289 -0.914274
v 0.402221 -0.243711 -0.914274
v 0.450056 -0.210217 -1.029759
v 0.485074 -0.118711 -1.114299
v 0.343061 0.006289 -1.197802
v 0.334392 0.131289 -1.165449
v 0.310708 0.222796 -1.077061
v 0.278356 0.256289 -0.956320
v 0.246004 0.222796 -0.835579
v 0.222320 0.131289 -0.747191
v 0.213651 0.006289 -0.714839
v 0.222320 -0.118711 -0.747191
v 0.246004 -0.210217 -0.835579
v 0.278356 -0.243711 -0.956320
v 0.310708 -0.210217 -1.077061
v 0.334392 -0.118711 -1.165449
f 29 37 27
f 29 37 33
f 4 31 30
f 4 31 5
f 35 36 10
f 9 7 8
f 9 35 10
f 3 7 5
f 3 4 5
f 32 7 33
f 32 31 30
f 32 31 5
f 32 29 33
f 32 29 30
f 28 29 27
f 34 9 8
f 34 9 35
f 34 7 33
f 34 7 8
f 34 35 36
f 34 37 33
f 34 37 36
f 2 14 1
f 2 3 1
f 2 3 14
f 22 28 29
f 6 7 5
f 6 32 5
f 6 32 7
f 20 28 27
f 38 37 27
f 38 20 27
f 25 18 19
f 25 38 37
f 11 9 10
f 11 18 19
f 11 9 7
f 11 3 1
f 11 3 7
f 21 22 14
f 21 22 28
f 21 20 14
f 21 20 28
f 15 3 14
f 15 22 14
f 13 19 1
f 13 20 19
f 13 14 1
f 13 20 14
f 17 25 18
f 17 11 10
f 17 11 18
f 26 25 19
f 26 25 38
f 26 20 19
f 26 38 20
f 12 19 1
f 12 11 1
f 12 11 19
f 16 3 4
f 16 15 3
f 16 15 22
f 24 17 25
f 24 37 36
f 24 25 37
f 23 16 22
f 23 29 30
f 23 22 29
f 24 17 10
f 24 36 10
f 23 16 4
f 23 4 30
