o torus_capsule32_22
v 0.038848 0.071534 0.012802
v 0.041699 0.075009 0.009798
v 0.043605 0.077331 0.005303
v 0.044274 0.078147 0.000000
v 0.043605 0.077331 -0.005303
v 0.041699 0.075009 -0.009798
v 0.038848 0.071534 -0.012802
v 0.032452 0.055510 -0.011142
v 0.030285 0.052870 -0.006030
v 0.029524 0.051943 -0.000000
v 0.030285 0.052870 0.006030
v 0.032452 0.055510 0.011142
v 0.026251 0.070601 0.015757
v 0.029093 0.075919 0.014557
v 0.031503 0.080427 0.011142
v 0.033113 0.083439 0.006030
v 0.033679 0.084497 0.000000
v 0.033113 0.083439 -0.006030
v 0.031503 0.080427 -0.011142
v 0.029093 0.075919 -0.014557
v 0.026251 0.070601 -0.015757
v 0.036357 0.066969 0.013856
v 0.031360 0.068484 0.015757
v 0.011973 0.074365 0.015757
v 0.006976 0.075881 0.013856
v 0.033110 0.074255 0.014557
v 0.013723 0.080136 0.014557
v 0.042541 0.072692 0.007272
v 0.034594 0.079147 0.011142
v 0.015207 0.085027 0.011142
v 0.005014 0.084076 0.007272
v 0.035586 0.082415 0.006030
v 0.016199 0.088296 0.006030
v 0.035934 0.083563 0.000000
v 0.016547 0.089444 0.000000
v 0.035586 0.082415 -0.006030
v 0.016199 0.088296 -0.006030
v 0.042541 0.072692 -0.007272
v 0.034594 0.079147 -0.011142
v 0.015207 0.085027 -0.011142
v 0.005014 0.084076 -0.007272
v 0.033110 0.074255 -0.014557
v 0.013723 0.080136 -0.014557
v 0.036357 0.066969 -0.013856
v 0.031360 0.068484 -0.015757
v 0.011973 0.074365 -0.015757
v 0.006976 0.075881 -0.013856
v 0.034818 0.061894 -0.012802
v 0.029610 0.062714 -0.014557
v 0.010223 0.068595 -0.014557
v 0.005437 0.070807 -0.012802
v 0.034818 0.061894 0.012802
v 0.029610 0.062714 0.014557
v 0.010223 0.068595 0.014557
v 0.005437 0.070807 0.012802
v 0.017397 0.073287 0.015757
v 0.017988 0.079287 0.014557
v 0.018489 0.084375 0.011142
v 0.018824 0.087774 0.006030
v 0.018941 0.088968 0.000000
v 0.018824 0.087774 -0.006030
v 0.018489 0.084375 -0.011142
v 0.017988 0.079287 -0.014557
v 0.017397 0.073287 -0.015757
v 0.007442 0.081061 0.012802
v 0.007001 0.085535 0.009798
v 0.006707 0.088524 0.005303
v 0.006603 0.089574 0.000000
v 0.006707 0.088524 -0.005303
v 0.007001 0.085535 -0.009798
v 0.007442 0.081061 -0.012802
v 0.003857 0.064184 -0.011142
v 0.004192 0.060785 -0.006030
v 0.004309 0.059591 -0.000000
v 0.004192 0.060785 0.006030
v 0.003857 0.064184 0.011142
f 74 76 72
f 9 8 72
f 12 53 52
f 12 53 76
f 41 31 68
f 41 47 71
f 41 51 47
f 41 51 72
f 75 74 10
f 75 74 76
f 67 31 68
f 23 14 13
f 23 53 24
f 54 53 76
f 54 53 24
f 69 41 68
f 40 43 63
f 16 59 58
f 16 17 59
f 73 74 10
f 73 9 10
f 73 74 72
f 73 9 72
f 11 9 10
f 11 75 10
f 11 12 76
f 11 75 76
f 28 12 52
f 28 38 4
f 5 38 4
f 15 14 29
f 15 16 58
f 15 16 29
f 56 14 13
f 27 65 24
f 33 67 68
f 55 31 76
f 55 54 76
f 66 67 31
f 66 65 31
f 66 27 65
f 26 14 29
f 26 23 14
f 42 45 7
f 44 45 7
f 44 38 7
f 46 43 63
f 46 47 71
f 46 43 71
f 35 33 68
f 70 43 71
f 70 40 43
f 70 40 69
f 70 41 71
f 70 69 41
f 32 16 29
f 32 16 17
f 3 32 29
f 3 28 4
f 3 32 4
f 34 32 4
f 34 32 17
f 57 15 58
f 57 15 14
f 57 56 14
f 57 56 24
f 57 27 24
f 25 54 24
f 25 55 54
f 25 65 24
f 25 65 31
f 25 55 31
f 30 59 58
f 30 33 59
f 30 66 27
f 30 33 67
f 30 66 67
f 30 57 58
f 30 57 27
f 22 28 52
f 22 53 52
f 22 23 53
f 48 38 8
f 48 44 38
f 64 46 63
f 49 8 72
f 49 46 45
f 49 48 8
f 49 44 45
f 49 48 44
f 60 17 59
f 60 33 59
f 60 35 33
f 37 40 69
f 37 69 68
f 37 35 68
f 37 60 35
f 2 26 29
f 2 3 29
f 2 3 28
f 36 17 18
f 36 34 17
f 36 5 4
f 36 34 4
f 20 19 63
f 20 64 63
f 20 42 45
f 6 42 7
f 6 38 7
f 6 5 38
f 50 49 72
f 50 49 46
f 50 51 72
f 50 51 47
f 50 46 47
f 61 37 60
f 61 17 18
f 61 60 17
f 61 37 40
f 1 2 26
f 1 26 23
f 1 22 23
f 1 22 28
f 1 2 28
f 21 20 45
f 21 20 64
f 39 6 42
f 39 20 42
f 39 20 19
f 39 19 18
f 39 36 18
f 39 36 5
f 39 6 5
f 62 61 40
f 62 40 63
f 62 19 63
f 62 19 18
f 62 61 18
f 41 31 76
f 41 76 72
f 11 12 8
f 11 9 8
f 28 12 8
f 28 38 8
f 56 23 24
f 56 23 13
f 21 64 46
f 21 46 45
