o torus_vhacd64_23
v 0.903420 0.006289 -0.874278
v 0.879737 0.131289 -0.850594
v 0.815032 0.222796 -0.785889
v 0.726644 0.256289 -0.697501
v 0.638255 0.222796 -0.609113
v 0.573551 0.131289 -0.544408
v 0.549867 0.006289 -0.520724
v 0.573551 -0.118711 -0.544408
v 0.638255 -0.210217 -0.609113
v 0.726644 -0.243711 -0.697501
v 0.815032 -0.210217 -0.785889
v 0.879737 -0.118711 -0.850594
v 0.780489 0.006289 -0.982086
v 0.760099 0.131289 -0.955514
v 0.704394 0.222796 -0.882917
v 0.628298 0.256289 -0.783747
v 0.552203 0.222796 -0.684578
v 0.496498 0.131289 -0.611982
v 0.476108 0.006289 -0.585409
v 0.496498 -0.118711 -0.611982
v 0.552203 -0.210217 -0.684578
v 0.628298 -0.243711 -0.783747
v 0.704394 -0.210217 -0.882917
v 0.760099 -0.118711 -0.955514
f 12 13 1
f 5 17 16
f 5 17 6
f 14 15 16
f 7 6 19
f 7 8 19
f 20 8 19
f 9 8 10
f 9 22 10
f 23 11 10
f 23 22 10
f 23 11 12
f 18 17 16
f 18 14 16
f 18 20 19
f 18 6 19
f 18 17 6
f 21 20 22
f 21 9 22
f 21 20 8
f 21 9 8
f 4 5 6
f 4 5 16
f 4 15 16
f 4 3 15
f 2 12 1
f 2 13 1
f 2 14 13
f 2 14 15
f 2 3 15
f 24 12 13
f 24 23 12
f 24 14 13
f 24 23 22
f 24 20 22
f 2 7 6
f 2 8 10
f 2 11 10
f 2 11 12
f 2 7 8
f 2 4 6
f 2 4 3
f 24 18 20
f 24 18 14
