o torus_vhacd64_6
v -0.972155 0.006289 -0.751346
v -0.945583 0.131289 -0.730956
v -0.872986 0.222796 -0.675251
v -0.773816 0.256289 -0.599156
v -0.674647 0.222796 -0.523061
v -0.602050 0.131289 -0.467355
v -0.575478 0.006289 -0.446965
v -0.602050 -0.118711 -0.467355
v -0.674647 -0.210217 -0.523061
v -0.773816 -0.243711 -0.599156
v -0.872986 -0.210217 -0.675251
v -0.945583 -0.118711 -0.730956
v -1.062995 0.006289 -0.615395
v -1.033988 0.131289 -0.598648
v -0.954742 0.222796 -0.552895
v -0.846488 0.256289 -0.490395
v -0.738235 0.222796 -0.427895
v -0.658988 0.131289 -0.382141
v -0.629982 0.006289 -0.365395
v -0.658988 -0.118711 -0.382141
v -0.738235 -0.210217 -0.427895
v -0.846488 -0.243711 -0.490395
v -0.954742 -0.210217 -0.552895
v -1.033988 -0.118711 -0.598648
f 1 4 10
f 12 1 13
f 3 1 4
f 11 1 10
f 11 12 1
f 11 23 10
f 11 23 12
f 2 1 13
f 2 3 1
f 22 21 10
f 22 23 10
f 24 12 13
f 24 23 13
f 24 23 12
f 20 8 7
f 20 22 21
f 20 22 23
f 20 23 13
f 9 21 10
f 9 20 21
f 9 20 8
f 5 17 4
f 14 2 13
f 18 5 17
f 18 20 13
f 6 8 7
f 6 18 7
f 6 18 5
f 16 17 4
f 16 18 17
f 19 20 7
f 19 18 7
f 19 18 20
f 15 16 18
f 15 14 13
f 15 18 13
f 15 2 3
f 15 14 2
f 15 3 4
f 15 16 4
f 5 9 10
f 5 4 10
f 6 5 9
f 6 9 8
