o torus_vhacd32_5
v -0.303987 0.006289 -1.197802
v -0.295318 0.131289 -1.165449
v -0.271634 0.222796 -1.077061
v -0.239282 0.256289 -0.956320
v -0.206930 0.222796 -0.835580
v -0.183246 0.131289 -0.747191
v -0.174577 0.006289 -0.714839
v -0.183246 -0.118711 -0.747191
v -0.206930 -0.210217 -0.835580
v -0.239282 -0.243711 -0.956320
v -0.271634 -0.210217 -1.077061
v -0.295318 -0.118711 -1.165449
v -0.458818 0.006289 -1.145244
v -0.446000 0.131289 -1.114300
v -0.410982 0.222796 -1.029759
v -0.363147 0.256289 -0.914274
v -0.363147 -0.243711 -0.914274
v -0.410982 -0.210217 -1.029759
v -0.446000 -0.118711 -1.114300
v -0.605463 0.006289 -1.072926
v -0.588716 0.131289 -1.043920
v -0.542963 0.222796 -0.964673
v -0.480463 0.256289 -0.856420
v -0.480463 -0.243711 -0.856420
v -0.542963 -0.210217 -0.964673
v -0.588716 -0.118711 -1.043920
v -0.741415 0.006289 -0.982086
v -0.721025 0.131289 -0.955514
v -0.665320 0.222796 -0.882917
v -0.589225 0.256289 -0.783748
v -0.513129 0.222796 -0.684578
v -0.457424 0.131289 -0.611982
v -0.437034 0.006289 -0.585409
v -0.457424 -0.118711 -0.611982
v -0.513129 -0.210217 -0.684578
v -0.589225 -0.243711 -0.783748
v -0.665320 -0.210217 -0.882917
v -0.721025 -0.118711 -0.955514
f 13 19 1
f 13 14 1
f 11 3 1
f 11 3 7
f 11 8 7
f 11 8 10
f 34 8 35
f 9 35 10
f 9 8 10
f 9 8 35
f 2 14 1
f 2 3 1
f 2 3 14
f 6 3 7
f 6 3 4
f 12 19 1
f 12 11 1
f 12 11 19
f 33 34 35
f 33 6 7
f 33 8 7
f 33 34 8
f 5 31 4
f 5 6 4
f 5 6 31
f 30 31 4
f 30 22 29
f 30 33 31
f 28 29 27
f 18 11 19
f 38 37 27
f 36 35 10
f 36 33 35
f 36 30 33
f 32 6 31
f 32 33 31
f 32 33 6
f 15 3 14
f 15 22 14
f 21 20 27
f 21 28 27
f 21 13 14
f 21 20 13
f 21 22 14
f 21 22 29
f 21 28 29
f 25 18 19
f 25 36 37
f 26 20 27
f 26 38 27
f 26 13 19
f 26 20 13
f 26 25 19
f 26 38 37
f 26 25 37
f 17 11 10
f 17 18 11
f 23 30 22
f 23 15 22
f 24 25 36
f 24 25 18
f 24 17 18
f 16 23 15
f 16 3 4
f 16 15 3
f 36 37 27
f 36 29 27
f 36 30 29
f 24 17 10
f 24 36 10
f 16 23 30
f 16 30 4
