o torus_vhacd64_16
v 0.182694 0.006289 -1.229700
v 0.178323 0.131289 -1.196493
v 0.166379 0.222796 -1.105770
v 0.150063 0.256289 -0.981839
v 0.133747 0.222796 -0.857909
v 0.121803 0.131289 -0.767185
v 0.117431 0.006289 -0.733978
v 0.121803 -0.118711 -0.767185
v 0.133747 -0.210217 -0.857909
v 0.150063 -0.243711 -0.981839
v 0.166379 -0.210217 -1.105770
v 0.178323 -0.118711 -1.196493
v 0.019537 0.006289 -1.240394
v 0.019537 0.131289 -1.206901
v 0.019537 0.222796 -1.115394
v 0.019537 0.256289 -0.990394
v 0.019537 0.222796 -0.865394
v 0.019537 0.131289 -0.773888
v 0.019537 0.006289 -0.740394
v 0.019537 -0.118711 -0.773888
v 0.019537 -0.210217 -0.865394
v 0.019537 -0.243711 -0.990394
v 0.019537 -0.210217 -1.115394
v 0.019537 -0.118711 -1.206901
f 24 1 13
f 12 24 1
f 2 12 1
f 6 3 4
f 11 12 24
f 8 6 7
f 8 11 10
f 22 21 10
f 22 11 10
f 19 6 7
f 19 8 7
f 5 17 4
f 5 6 4
f 5 6 17
f 14 1 13
f 14 2 1
f 14 2 3
f 14 15 3
f 16 3 4
f 16 15 3
f 16 17 4
f 9 21 10
f 9 8 10
f 9 8 21
f 23 11 24
f 23 22 11
f 18 6 17
f 18 19 6
f 20 8 21
f 20 19 8
f 11 2 12
f 11 2 3
f 8 11 3
f 8 6 3
f 20 23 24
f 20 24 13
f 20 16 17
f 20 14 13
f 20 22 21
f 20 18 17
f 20 14 15
f 20 16 15
f 20 23 22
f 20 18 19
