o torus_fine_3
v -0.143621 0.006289 -1.229700
v -0.139249 0.131289 -1.196493
v -0.127305 0.222796 -1.105770
v -0.110989 0.256289 -0.981839
v -0.094674 0.222796 -0.857909
v -0.082730 0.131289 -0.767185
v -0.078358 0.006289 -0.733978
v -0.082730 -0.118711 -0.767185
v -0.094674 -0.210217 -0.857909
v -0.110989 -0.243711 -0.981839
v -0.127305 -0.210217 -1.105770
v -0.139249 -0.118711 -1.196493
v -0.303987 0.006289 -1.197802
v -0.295318 0.131289 -1.165449
v -0.271634 0.222796 -1.077061
v -0.239282 0.256289 -0.956320
v -0.239282 -0.243711 -0.956320
v -0.271634 -0.210217 -1.077061
v -0.295318 -0.118711 -1.165449
v -0.458818 0.006289 -1.145244
v -0.446000 0.131289 -1.114300
v -0.410982 0.222796 -1.029759
v -0.363147 0.256289 -0.914274
v -0.363147 -0.243711 -0.914274
v -0.410982 -0.210217 -1.029759
v -0.446000 -0.118711 -1.114300
v -0.605463 0.006289 -1.072926
v -0.588716 0.131289 -1.043920
v -0.542963 0.222796 -0.964673
v -0.480463 0.256289 -0.856420
v -0.480463 -0.243711 -0.856420
v -0.542963 -0.210217 -0.964673
v -0.588716 -0.118711 -1.043920
v -0.741415 0.006289 -0.982086
v -0.721025 0.131289 -0.955514
v -0.665320 0.222796 -0.882917
v -0.589225 0.256289 -0.783748
v -0.589225 -0.243711 -0.783748
v -0.665320 -0.210217 -0.882917
v -0.721025 -0.118711 -0.955514
v -0.864347 0.006289 -0.874277
v -0.840663 0.131289 -0.850594
v -0.775958 0.222796 -0.785889
v -0.687570 0.256289 -0.697501
v -0.599182 0.222796 -0.609113
v -0.534477 0.131289 -0.544408
v -0.510793 0.006289 -0.520724
v -0.534477 -0.118711 -0.544408
v -0.599182 -0.210217 -0.609113
v -0.687570 -0.243711 -0.697501
v -0.775958 -0.210217 -0.785889
v -0.840663 -0.118711 -0.850594
f 4 10 7
f 8 10 7
f 50 49 10
f 50 49 41
f 50 51 41
f 48 8 49
f 48 49 41
f 9 49 10
f 9 8 10
f 9 8 49
f 6 4 7
f 12 2 1
f 14 15 21
f 47 48 41
f 47 6 7
f 47 8 7
f 47 48 8
f 5 45 4
f 5 6 4
f 5 6 45
f 44 45 4
f 44 45 41
f 44 43 41
f 11 12 10
f 3 2 4
f 3 14 2
f 3 14 15
f 52 34 41
f 52 40 34
f 52 51 41
f 13 2 1
f 13 14 2
f 13 12 1
f 13 14 21
f 13 20 21
f 13 20 26
f 33 20 26
f 33 40 34
f 46 45 41
f 46 47 41
f 46 6 45
f 46 47 6
f 28 20 21
f 28 35 34
f 42 43 41
f 42 34 41
f 42 35 34
f 19 13 26
f 19 13 12
f 19 18 26
f 19 11 12
f 19 18 11
f 29 28 21
f 36 37 44
f 36 44 43
f 36 29 37
f 36 42 43
f 36 42 35
f 36 28 35
f 36 29 28
f 27 28 34
f 27 28 20
f 27 33 34
f 27 33 20
f 17 18 24
f 17 11 10
f 17 18 11
f 32 33 26
f 16 23 15
f 16 3 4
f 16 3 15
f 30 29 37
f 22 23 15
f 22 15 21
f 22 29 21
f 22 30 23
f 22 30 29
f 31 32 38
f 25 18 24
f 25 31 24
f 25 31 32
f 25 18 26
f 25 32 26
f 39 32 38
f 39 38 50
f 39 50 51
f 39 52 51
f 39 52 40
f 39 33 40
f 39 32 33
f 12 2 4
f 12 4 10
f 30 37 44
f 30 44 4
f 30 16 4
f 30 16 23
f 31 38 50
f 31 50 10
f 31 17 10
f 31 17 24
