o torus_vhacd64_7
v -0.864347 0.006289 -0.874277
v -0.840663 0.131289 -0.850594
v -0.775958 0.222796 -0.785889
v -0.687570 0.256289 -0.697501
v -0.599182 0.222796 -0.609113
v -0.534477 0.131289 -0.544408
v -0.510793 0.006289 -0.520724
v -0.534477 -0.118711 -0.544408
v -0.599182 -0.210217 -0.609113
v -0.687570 -0.243711 -0.697501
v -0.775958 -0.210217 -0.785889
v -0.840663 -0.118711 -0.850594
v -0.972155 0.006289 -0.751346
v -0.945583 0.131289 -0.730956
v -0.872986 0.222796 -0.675251
v -0.773816 0.256289 -0.599156
v -0.674647 0.222796 -0.523061
v -0.602050 0.131289 -0.467355
v -0.575478 0.006289 -0.446965
v -0.602050 -0.118711 -0.467355
v -0.674647 -0.210217 -0.523061
v -0.773816 -0.243711 -0.599156
v -0.872986 -0.210217 -0.675251
v -0.945583 -0.118711 -0.730956
f 2 1 13
f 12 2 1
f 12 1 13
f 22 21 10
f 22 23 10
f 22 23 21
f 20 8 7
f 20 23 21
f 9 21 10
f 9 20 21
f 9 20 8
f 5 17 4
f 11 23 10
f 11 12 23
f 24 12 13
f 24 12 23
f 16 17 4
f 19 20 7
f 19 20 23
f 19 24 23
f 18 5 17
f 18 19 7
f 6 18 7
f 6 18 5
f 15 16 17
f 15 18 17
f 15 18 19
f 15 3 2
f 15 3 4
f 15 16 4
f 14 19 24
f 14 15 19
f 14 24 13
f 14 2 13
f 14 15 2
f 6 9 10
f 6 8 7
f 6 11 10
f 6 3 4
f 6 12 2
f 6 3 2
f 6 9 8
f 6 5 4
f 6 11 12
