o torus_vhacd64_40
v 0.780488 0.006289 1.001298
v 0.760099 0.131289 0.974725
v 0.704393 0.222796 0.902128
v 0.628298 0.256289 0.802959
v 0.552203 0.222796 0.703790
v 0.496497 0.131289 0.631193
v 0.476108 0.006289 0.604621
v 0.496497 -0.118711 0.631193
v 0.552203 -0.210217 0.703790
v 0.628298 -0.243711 0.802959
v 0.704393 -0.210217 0.902128
v 0.760099 -0.118711 0.974725
v 0.903420 0.006289 0.893490
v 0.879736 0.131289 0.869806
v 0.815032 0.222796 0.805101
v 0.726643 0.256289 0.716713
v 0.638255 0.222796 0.628325
v 0.573550 0.131289 0.563620
v 0.549867 0.006289 0.539936
v 0.573550 -0.118711 0.563620
v 0.638255 -0.210217 0.628325
v 0.726643 -0.243711 0.716713
v 0.815032 -0.210217 0.805101
v 0.879736 -0.118711 0.869806
f 12 1 13
f 8 1 10
f 23 15 13
f 11 1 10
f 11 12 1
f 11 23 10
f 11 23 12
f 14 15 13
f 3 4 1
f 3 15 4
f 9 8 10
f 9 8 21
f 22 23 10
f 22 23 21
f 22 9 10
f 22 9 21
f 24 12 13
f 24 23 13
f 24 23 12
f 2 3 1
f 2 1 13
f 2 14 13
f 2 14 15
f 2 3 15
f 20 8 21
f 6 8 7
f 6 8 1
f 6 4 1
f 6 5 4
f 17 6 5
f 17 6 18
f 19 23 15
f 19 17 15
f 19 17 18
f 19 23 21
f 19 20 21
f 19 6 7
f 19 6 18
f 19 8 7
f 19 20 8
f 16 15 4
f 16 17 15
f 16 5 4
f 16 17 5
