o torus_vhacd64_28
v 1.226944 0.006289 -0.313918
v 1.194592 0.131289 -0.305249
v 1.106204 0.222796 -0.281566
v 0.985463 0.256289 -0.249213
v 0.864722 0.222796 -0.216861
v 0.776334 0.131289 -0.193177
v 0.743981 0.006289 -0.184509
v 0.776334 -0.118711 -0.193177
v 0.864722 -0.210217 -0.216861
v 0.985463 -0.243711 -0.249213
v 1.106204 -0.210217 -0.281566
v 1.194592 -0.118711 -0.305249
v 1.174387 0.006289 -0.468749
v 1.143442 0.131289 -0.455931
v 1.058902 0.222796 -0.420913
v 0.943417 0.256289 -0.373078
v 0.827932 0.222796 -0.325242
v 0.743391 0.131289 -0.290224
v 0.712447 0.006289 -0.277407
v 0.743391 -0.118711 -0.290224
v 0.827932 -0.210217 -0.325242
v 0.943417 -0.243711 -0.373078
v 1.058902 -0.210217 -0.420913
v 1.143442 -0.118711 -0.455931
f 11 22 10
f 2 13 1
f 12 13 1
f 12 11 10
f 12 2 1
f 23 11 22
f 23 12 11
f 14 16 13
f 14 15 16
f 14 2 13
f 14 2 15
f 7 8 6
f 20 22 19
f 20 7 19
f 20 7 8
f 4 17 16
f 18 16 19
f 18 17 16
f 18 7 19
f 18 7 6
f 24 22 13
f 24 23 22
f 24 12 13
f 24 23 12
f 9 8 10
f 9 20 8
f 5 4 6
f 5 4 17
f 5 18 6
f 5 18 17
f 3 15 16
f 3 4 16
f 3 4 2
f 3 2 15
f 21 22 10
f 21 9 10
f 21 20 22
f 21 9 20
f 22 16 13
f 22 16 19
f 4 8 6
f 4 8 10
f 4 12 10
f 4 12 2
