o torus_vhacd32_25
v -0.605463 0.006289 1.092138
v -0.588716 0.131289 1.063131
v -0.542963 0.222796 0.983884
v -0.480463 0.256289 0.875631
v -0.417963 0.222796 0.767378
v -0.372210 0.131289 0.688131
v -0.355463 0.006289 0.659125
v -0.372210 -0.118711 0.688131
v -0.417963 -0.210217 0.767378
v -0.480463 -0.243711 0.875631
v -0.542963 -0.210217 0.983884
v -0.588716 -0.118711 1.063131
v -0.458818 0.006289 1.164455
v -0.446000 0.131289 1.133511
v -0.410982 0.222796 1.048970
v -0.363147 0.256289 0.933485
v -0.363147 -0.243711 0.933485
v -0.410982 -0.210217 1.048970
v -0.446000 -0.118711 1.133511
v -0.303987 0.006289 1.217013
v -0.295318 0.131289 1.184660
v -0.271635 0.222796 1.096272
v -0.239282 0.256289 0.975531
v -0.239282 -0.243711 0.975531
v -0.271635 -0.210217 1.096272
v -0.295318 -0.118711 1.184660
v -0.143622 0.006289 1.248912
v -0.139250 0.131289 1.215704
v -0.127306 0.222796 1.124981
v -0.110990 0.256289 1.001050
v -0.094674 0.222796 0.877120
v -0.082730 0.131289 0.786396
v -0.078358 0.006289 0.753189
v -0.082730 -0.118711 0.786396
v -0.094674 -0.210217 0.877120
v -0.110990 -0.243711 1.001050
v -0.127306 -0.210217 1.124981
v -0.139250 -0.118711 1.215704
f 2 14 1
f 31 5 30
f 12 19 1
f 12 2 1
f 13 19 1
f 13 14 1
f 35 31 33
f 11 12 19
f 11 8 10
f 37 35 36
f 20 13 19
f 20 13 14
f 34 8 33
f 34 35 33
f 9 8 10
f 9 36 10
f 9 35 36
f 9 34 8
f 9 34 35
f 38 37 35
f 38 28 27
f 18 11 19
f 18 11 10
f 29 31 28
f 29 31 30
f 21 22 14
f 21 20 14
f 21 29 28
f 21 29 22
f 21 28 27
f 21 20 27
f 3 2 14
f 7 6 8
f 7 8 33
f 7 6 33
f 32 31 5
f 32 6 5
f 32 31 33
f 32 6 33
f 26 38 37
f 26 20 19
f 26 20 27
f 26 38 27
f 17 18 10
f 15 22 14
f 15 3 14
f 4 3 6
f 4 6 5
f 4 5 30
f 4 15 3
f 25 26 37
f 25 17 18
f 25 18 19
f 25 26 19
f 16 15 22
f 16 4 15
f 24 25 17
f 24 37 36
f 24 25 37
f 23 16 22
f 23 29 30
f 23 29 22
f 38 35 31
f 38 31 28
f 3 11 12
f 3 12 2
f 3 11 8
f 3 6 8
f 24 17 10
f 24 36 10
f 23 16 4
f 23 4 30
