o torus_vhacd32_24
v -0.315311 0.222796 0.818000
v -0.280293 0.131289 0.733459
v -0.267476 0.006289 0.702515
v -0.280293 -0.118711 0.733459
v -0.315311 -0.210217 0.818000
v -0.303987 0.006289 1.217013
v -0.295318 0.131289 1.184660
v -0.271635 0.222796 1.096272
v -0.239282 0.256289 0.975531
v -0.239282 -0.243711 0.975531
v -0.271635 -0.210217 1.096272
v -0.295318 -0.118711 1.184660
v -0.143622 0.006289 1.248912
v -0.139250 0.131289 1.215704
v -0.127306 0.222796 1.124981
v -0.110990 0.256289 1.001050
v -0.110990 -0.243711 1.001050
v -0.127306 -0.210217 1.124981
v -0.139250 -0.118711 1.215704
v 0.019537 0.006289 1.259606
v 0.019537 0.131289 1.226112
v 0.019537 0.222796 1.134606
v 0.019537 0.256289 1.009606
v 0.019537 -0.243711 1.009606
v 0.019537 -0.210217 1.134606
v 0.019537 -0.118711 1.226112
v 0.182694 0.006289 1.248912
v 0.178323 0.131289 1.215705
v 0.166379 0.222796 1.124981
v 0.150063 0.256289 1.001051
v 0.133747 0.222796 0.877120
v 0.121803 0.131289 0.786396
v 0.117431 0.006289 0.753189
v 0.121803 -0.118711 0.786396
v 0.133747 -0.210217 0.877120
v 0.150063 -0.243711 1.001051
v 0.166379 -0.210217 1.124981
v 0.178323 -0.118711 1.215705
f 2 3 1
f 2 32 1
f 5 36 10
f 5 3 1
f 5 6 1
f 31 32 1
f 30 29 32
f 30 31 32
f 30 31 1
f 30 9 1
f 8 9 1
f 38 28 27
f 38 26 25
f 11 5 10
f 24 25 36
f 33 34 32
f 33 2 3
f 33 2 32
f 4 5 3
f 4 34 5
f 4 33 3
f 4 33 34
f 35 5 36
f 35 34 36
f 35 34 5
f 7 6 1
f 7 8 1
f 22 28 29
f 22 28 21
f 22 30 29
f 13 7 6
f 37 25 36
f 37 38 25
f 37 34 36
f 12 5 6
f 12 11 5
f 12 13 6
f 19 13 26
f 19 12 13
f 14 13 21
f 14 13 7
f 20 13 26
f 20 38 27
f 20 38 26
f 20 13 21
f 20 28 27
f 20 28 21
f 18 17 24
f 18 24 25
f 18 17 10
f 18 11 10
f 18 26 25
f 18 19 26
f 18 12 11
f 18 19 12
f 15 7 8
f 15 14 7
f 15 22 21
f 15 14 21
f 15 8 9
f 15 16 9
f 23 22 30
f 23 15 22
f 23 15 16
f 37 34 32
f 37 29 32
f 37 28 29
f 37 38 28
f 17 24 36
f 17 36 10
f 23 16 9
f 23 30 9
