o torus_vhacd64_3
v -1.135312 0.006289 -0.468749
v -1.104368 0.131289 -0.455931
v -1.019827 0.222796 -0.420913
v -0.904343 0.256289 -0.373078
v -0.788858 0.222796 -0.325242
v -0.704317 0.131289 -0.290224
v -0.673373 0.006289 -0.277407
v -0.704317 -0.118711 -0.290224
v -0.788858 -0.210217 -0.325242
v -0.904343 -0.243711 -0.373078
v -1.019827 -0.210217 -0.420913
v -1.104368 -0.118711 -0.455931
v -1.187871 0.006289 -0.313918
v -1.155518 0.131289 -0.305249
v -1.067130 0.222796 -0.281566
v -0.946389 0.256289 -0.249213
v -0.825648 0.222796 -0.216861
v -0.737260 0.131289 -0.193177
v -0.704908 0.006289 -0.184508
v -0.737260 -0.118711 -0.193177
v -0.825648 -0.210217 -0.216861
v -0.946389 -0.243711 -0.249213
v -1.067130 -0.210217 -0.281566
v -1.155518 -0.118711 -0.305249
f 1 10 7
f 4 1 7
f 12 1 13
f 3 4 1
f 8 10 7
f 11 1 10
f 11 12 1
f 11 23 10
f 11 23 12
f 2 1 13
f 2 3 1
f 22 23 10
f 24 12 13
f 24 23 12
f 24 22 23
f 20 8 7
f 20 8 21
f 20 22 21
f 9 8 10
f 9 8 21
f 9 22 10
f 9 22 21
f 15 2 3
f 15 3 4
f 6 4 7
f 6 5 4
f 6 18 7
f 6 5 17
f 6 18 17
f 16 15 4
f 16 5 4
f 16 5 17
f 16 18 17
f 19 20 7
f 19 18 7
f 19 20 22
f 19 24 22
f 19 16 18
f 14 16 15
f 14 2 13
f 14 15 2
f 14 19 16
f 14 24 13
f 14 19 24
