v 0.615801 0.136986 1.079938
v 1.276693 0.007726 0.131832
v 1.276693 -0.006603 0.131832
v 0.759547 -0.020982 0.002422
v 0.615801 -0.250895 0.850032
v 0.989332 0.266346 0.002422
v 1.046843 -0.250895 0.002422
v 1.003693 -0.135913 0.749428
v 1.061204 0.165744 0.634529
v 0.615801 0.266346 0.778234
v 1.247970 0.136986 0.002422
v 0.615801 -0.135913 0.490932
v 1.118651 -0.222137 0.318638
v 0.802631 -0.006603 1.008031
v 0.888801 -0.222137 0.002422
v 1.118651 0.237588 0.304235
v 0.788270 0.136986 0.002422
v 0.630228 -0.135913 1.079938
v 1.190459 0.022054 0.490932
v 0.615801 0.122657 0.476637
v 0.773908 0.237588 0.864435
v 1.247970 -0.121585 0.002422
v 0.917524 -0.222137 0.720622
v 1.204820 -0.135913 0.332932
v 0.974970 0.108278 0.806931
v 1.204820 0.151365 0.318638
v 0.917524 0.266346 0.519738
v 0.888801 0.237588 0.002422
v 1.018055 0.022054 0.792528
v 0.903162 -0.250895 0.562730
v 0.615801 -0.222137 0.620234
v 0.788270 -0.121585 0.002422
v 0.615801 0.237588 0.634529
v 1.147374 0.237588 0.002422
v 1.089928 -0.135913 0.620126
v 0.874439 0.151365 0.893132
v 0.931950 0.237588 0.691924
v 0.730759 -0.222137 0.907535
v 0.845651 -0.135913 0.921938
v 0.630228 0.237588 0.964931
v 1.147374 -0.222137 0.002422
v 0.644589 0.036433 1.108744
v 0.615801 -0.006603 0.433537
v 0.615801 -0.250895 0.763722
v 1.032481 0.266346 0.189336
v 1.233543 -0.135913 0.189336
v 0.773908 0.151365 0.979225
v 0.615801 -0.207758 0.993737
v 1.233543 0.151365 0.174933
v 1.247970 0.022054 0.304235
v 0.917524 -0.006603 0.907535
v 1.104289 0.108278 0.620126
v 0.989332 -0.250895 0.002422
v 1.075566 -0.222137 0.447831
v 1.104289 -0.006603 0.663226
v 0.759547 0.036433 0.002422
v 0.658951 0.266346 0.821226
v 1.276693 0.036433 0.002422
v 1.075566 0.237588 0.433428
v 1.147374 0.151365 0.490932
v 1.032481 -0.250895 0.246840
v 1.176097 -0.064068 0.490932
v 1.233543 -0.035361 0.347335
v 1.147374 -0.222137 0.189336
f 13 61 64
f 4 6 7
f 5 1 10
f 7 6 11
f 5 10 12
f 4 7 15
f 6 4 17
f 12 10 20
f 7 11 22
f 6 10 27
f 10 6 28
f 6 17 28
f 5 7 30
f 5 12 31
f 15 31 32
f 12 4 32
f 4 15 32
f 31 12 32
f 20 10 33
f 17 20 33
f 10 28 33
f 28 17 33
f 11 6 34
f 8 23 35
f 25 9 36
f 21 36 37
f 36 9 37
f 5 30 38
f 30 23 38
f 14 18 39
f 23 8 39
f 18 38 39
f 38 23 39
f 10 1 40
f 7 22 41
f 1 18 42
f 18 14 42
f 4 12 43
f 12 20 43
f 7 5 44
f 5 31 44
f 31 15 44
f 6 27 45
f 34 6 45
f 16 34 45
f 22 3 46
f 14 36 47
f 36 21 47
f 40 1 47
f 21 40 47
f 1 42 47
f 42 14 47
f 1 5 48
f 18 1 48
f 5 38 48
f 38 18 48
f 16 26 49
f 11 34 49
f 34 16 49
f 3 2 50
f 26 19 50
f 2 49 50
f 49 26 50
f 8 29 51
f 29 25 51
f 36 14 51
f 25 36 51
f 14 39 51
f 39 8 51
f 9 25 52
f 25 29 52
f 15 7 53
f 7 44 53
f 44 15 53
f 13 24 54
f 23 30 54
f 35 23 54
f 24 35 54
f 29 8 55
f 8 35 55
f 19 52 55
f 52 29 55
f 17 4 56
f 20 17 56
f 4 43 56
f 43 20 56
f 27 10 57
f 37 27 57
f 21 37 57
f 10 40 57
f 40 21 57
f 2 3 58
f 3 22 58
f 22 11 58
f 49 2 58
f 11 49 58
f 37 9 59
f 27 37 59
f 45 27 59
f 16 45 59
f 26 16 60
f 19 26 60
f 9 52 60
f 52 19 60
f 59 9 60
f 16 59 60
f 30 7 61
f 13 54 61
f 54 30 61
f 35 24 62
f 55 35 62
f 19 55 62
f 46 3 63
f 24 46 63
f 3 50 63
f 50 19 63
f 62 24 63
f 19 62 63
f 24 13 64
f 7 41 64
f 41 22 64
f 22 46 64
f 46 24 64
f 61 7 64
