o torus_vhacd32_17
v 1.102069 0.006289 0.634606
v 1.073062 0.131289 0.617859
v 0.993815 0.222796 0.572106
v 0.885562 0.256289 0.509606
v 0.777309 0.222796 0.447106
v 0.698062 0.131289 0.401353
v 0.669056 0.006289 0.384606
v 0.698062 -0.118711 0.401353
v 0.777309 -0.210217 0.447106
v 0.885562 -0.243711 0.509606
v 0.993815 -0.210217 0.572106
v 1.073062 -0.118711 0.617859
v 1.174386 0.006289 0.487960
v 1.143442 0.131289 0.475143
v 1.058901 0.222796 0.440125
v 0.943416 0.256289 0.392290
v 0.943416 -0.243711 0.392290
v 1.058901 -0.210217 0.440125
v 1.143442 -0.118711 0.475143
v 1.226944 0.006289 0.333129
v 1.194592 0.131289 0.324460
v 1.106204 0.222796 0.300777
v 0.985463 0.256289 0.268424
v 0.985463 -0.243711 0.268424
v 1.106204 -0.210217 0.300777
v 1.194592 -0.118711 0.324460
v 1.258843 0.006289 0.172763
v 1.225636 0.131289 0.168392
v 1.134912 0.222796 0.156448
v 1.010982 0.256289 0.140132
v 0.887051 0.222796 0.123816
v 0.796328 0.131289 0.111872
v 0.763121 0.006289 0.107500
v 0.796328 -0.118711 0.111872
v 0.887051 -0.210217 0.123816
v 1.010982 -0.243711 0.140132
v 1.134912 -0.210217 0.156448
v 1.225636 -0.118711 0.168392
f 11 8 10
f 20 26 27
f 20 21 27
f 9 35 10
f 9 8 10
f 9 8 35
f 33 35 27
f 33 31 27
f 33 8 7
f 5 31 4
f 36 35 10
f 36 35 27
f 36 37 27
f 38 26 27
f 38 37 27
f 2 14 1
f 2 14 3
f 32 33 31
f 34 8 35
f 34 33 35
f 34 33 8
f 30 31 4
f 30 31 27
f 30 29 27
f 28 21 27
f 28 29 27
f 6 5 4
f 6 3 4
f 6 8 7
f 6 33 7
f 6 32 33
f 6 5 31
f 6 32 31
f 13 20 26
f 13 19 26
f 13 19 1
f 13 14 1
f 13 20 21
f 13 14 21
f 18 19 11
f 18 11 10
f 22 30 29
f 22 14 21
f 22 28 21
f 22 28 29
f 12 2 1
f 12 19 1
f 12 19 11
f 25 36 37
f 25 38 26
f 25 38 37
f 25 19 26
f 25 18 19
f 15 14 3
f 15 22 14
f 15 3 4
f 16 15 4
f 16 15 22
f 17 18 10
f 17 25 18
f 23 22 30
f 23 16 22
f 24 25 36
f 24 17 25
f 6 3 11
f 6 11 8
f 12 3 11
f 12 2 3
f 23 16 4
f 23 30 4
f 24 17 10
f 24 36 10
