o torus_vhacd32_23
v -0.143622 0.006289 1.248912
v -0.139250 0.131289 1.215704
v -0.127306 0.222796 1.124981
v -0.110990 0.256289 1.001050
v -0.094674 0.222796 0.877120
v -0.082730 0.131289 0.786396
v -0.078358 0.006289 0.753189
v -0.082730 -0.118711 0.786396
v -0.094674 -0.210217 0.877120
v -0.110990 -0.243711 1.001050
v -0.127306 -0.210217 1.124981
v -0.139250 -0.118711 1.215704
v 0.019537 0.006289 1.259606
v 0.019537 0.131289 1.226112
v 0.019537 0.222796 1.134606
v 0.019537 0.256289 1.009606
v 0.019537 -0.243711 1.009606
v 0.019537 -0.210217 1.134606
v 0.019537 -0.118711 1.226112
v 0.182694 0.006289 1.248912
v 0.178323 0.131289 1.215705
v 0.166379 0.222796 1.124981
v 0.150063 0.256289 1.001051
v 0.150063 -0.243711 1.001051
v 0.166379 -0.210217 1.124981
v 0.178323 -0.118711 1.215705
v 0.343060 0.006289 1.217013
v 0.334391 0.131289 1.184661
v 0.310708 0.222796 1.096272
v 0.278356 0.256289 0.975532
v 0.246003 0.222796 0.854791
v 0.222320 0.131289 0.766403
v 0.213651 0.006289 0.734050
v 0.222320 -0.118711 0.766403
v 0.246003 -0.210217 0.854791
v 0.278356 -0.243711 0.975532
v 0.310708 -0.210217 1.096272
v 0.334391 -0.118711 1.184661
f 3 6 1
f 3 6 4
f 7 6 33
f 20 13 26
f 20 38 27
f 20 38 26
f 20 13 21
f 20 28 27
f 20 28 21
f 12 11 1
f 8 11 10
f 8 7 6
f 8 6 1
f 8 11 1
f 8 7 33
f 25 38 26
f 2 3 1
f 22 28 21
f 5 6 4
f 19 12 11
f 19 13 26
f 19 13 1
f 19 12 1
f 35 36 10
f 37 25 38
f 37 25 36
f 37 38 27
f 17 11 10
f 14 2 3
f 14 13 21
f 14 13 1
f 14 2 1
f 16 3 4
f 18 19 11
f 18 17 11
f 18 25 26
f 18 19 26
f 9 8 10
f 9 35 10
f 9 35 8
f 34 35 36
f 34 8 33
f 34 35 8
f 24 25 36
f 24 18 25
f 24 18 17
f 15 14 3
f 15 16 3
f 15 22 21
f 15 14 21
f 31 5 6
f 31 5 4
f 31 30 4
f 29 37 27
f 29 28 27
f 29 22 28
f 29 30 22
f 23 30 22
f 23 15 22
f 23 15 16
f 32 31 30
f 32 34 33
f 32 6 33
f 32 31 6
f 24 17 10
f 24 36 10
f 29 30 36
f 29 37 36
f 23 30 4
f 23 16 4
f 32 30 36
f 32 34 36
