o torus_capsule32_17
v 0.073287 0.017397 0.015757
v 0.079287 0.017988 0.014557
v 0.084375 0.018489 0.011142
v 0.087774 0.018824 0.006030
v 0.088968 0.018941 0.000000
v 0.087774 0.018824 -0.006030
v 0.084375 0.018489 -0.011142
v 0.079287 0.017988 -0.014557
v 0.073287 0.017397 -0.015757
v 0.075881 0.006976 0.013856
v 0.074365 0.011973 0.015757
v 0.068484 0.031360 0.015757
v 0.066969 0.036357 0.013856
v 0.080136 0.013723 0.014557
v 0.074255 0.033110 0.014557
v 0.084076 0.005014 0.007272
v 0.085027 0.015207 0.011142
v 0.079147 0.034594 0.011142
v 0.072692 0.042541 0.007272
v 0.088296 0.016199 0.006030
v 0.082415 0.035586 0.006030
v 0.089444 0.016547 0.000000
v 0.083563 0.035934 0.000000
v 0.088296 0.016199 -0.006030
v 0.082415 0.035586 -0.006030
v 0.084076 0.005014 -0.007272
v 0.085027 0.015207 -0.011142
v 0.079147 0.034594 -0.011142
v 0.072692 0.042541 -0.007272
v 0.080136 0.013723 -0.014557
v 0.074255 0.033110 -0.014557
v 0.075881 0.006976 -0.013856
v 0.074365 0.011973 -0.015757
v 0.068484 0.031360 -0.015757
v 0.066969 0.036357 -0.013856
v 0.070807 0.005437 -0.012802
v 0.068595 0.010223 -0.014557
v 0.062714 0.029610 -0.014557
v 0.061894 0.034818 -0.012802
v 0.070807 0.005437 0.012802
v 0.068595 0.010223 0.014557
v 0.062714 0.029610 0.014557
v 0.061894 0.034818 0.012802
v 0.070601 0.026251 0.015757
v 0.075919 0.029093 0.014557
v 0.080427 0.031503 0.011142
v 0.083439 0.033113 0.006030
v 0.084497 0.033679 0.000000
v 0.083439 0.033113 -0.006030
v 0.080427 0.031503 -0.011142
v 0.075919 0.029093 -0.014557
v 0.070601 0.026251 -0.015757
v 0.071534 0.038848 0.012802
v 0.075009 0.041699 0.009798
v 0.077331 0.043605 0.005303
v 0.078147 0.044274 0.000000
v 0.077331 0.043605 -0.005303
v 0.075009 0.041699 -0.009798
v 0.071534 0.038848 -0.012802
v 0.055510 0.032452 -0.011142
v 0.052870 0.030285 -0.006030
v 0.051943 0.029524 -0.000000
v 0.052870 0.030285 0.006030
v 0.055510 0.032452 0.011142
v 0.064184 0.003857 -0.011142
v 0.060785 0.004192 -0.006030
v 0.059591 0.004309 -0.000000
v 0.060785 0.004192 0.006030
v 0.064184 0.003857 0.011142
v 0.081061 0.007442 0.012802
v 0.085535 0.007001 0.009798
v 0.088524 0.006707 0.005303
v 0.089574 0.006603 0.000000
v 0.088524 0.006707 -0.005303
v 0.085535 0.007001 -0.009798
v 0.081061 0.007442 -0.012802
f 65 26 36
f 65 69 67
f 65 61 60
f 65 38 60
f 68 67 62
f 68 69 67
f 39 29 35
f 39 29 60
f 39 38 35
f 39 38 60
f 22 24 73
f 34 38 35
f 51 34 31
f 51 31 28
f 58 31 28
f 66 65 67
f 66 65 61
f 66 67 62
f 66 61 62
f 37 65 36
f 37 65 38
f 63 68 69
f 63 64 69
f 63 68 62
f 63 61 62
f 41 40 69
f 41 11 10
f 41 40 10
f 49 6 7
f 49 6 48
f 21 23 48
f 21 23 56
f 52 51 9
f 52 51 34
f 57 58 28
f 57 29 56
f 57 58 29
f 59 29 35
f 59 58 29
f 59 58 31
f 59 34 35
f 59 34 31
f 42 43 64
f 42 43 13
f 42 64 69
f 42 41 69
f 42 41 11
f 45 44 1
f 16 40 10
f 16 40 69
f 16 26 73
f 76 75 26
f 76 30 75
f 74 26 73
f 74 75 26
f 74 24 73
f 50 49 7
f 50 49 28
f 50 51 28
f 19 43 13
f 19 43 64
f 19 29 56
f 5 4 48
f 5 6 48
f 5 6 24
f 5 22 24
f 72 16 73
f 72 16 71
f 20 5 22
f 20 5 4
f 20 22 73
f 20 72 73
f 70 14 71
f 70 16 10
f 70 16 71
f 70 11 10
f 70 14 11
f 47 4 48
f 47 21 48
f 47 3 4
f 47 21 18
f 8 50 7
f 8 50 51
f 8 51 9
f 27 30 75
f 27 8 7
f 27 8 30
f 27 6 7
f 27 6 24
f 27 74 24
f 27 74 75
f 33 8 9
f 33 8 30
f 33 76 30
f 33 34 38
f 33 37 38
f 25 49 28
f 25 57 28
f 25 23 48
f 25 49 48
f 25 23 56
f 25 57 56
f 12 42 13
f 12 45 44
f 12 42 11
f 15 54 18
f 15 45 18
f 15 12 45
f 55 19 56
f 55 19 54
f 55 21 56
f 55 54 18
f 55 21 18
f 2 45 1
f 2 11 1
f 2 14 11
f 17 14 71
f 17 2 14
f 17 2 3
f 17 72 71
f 17 20 72
f 17 20 4
f 17 3 4
f 46 47 18
f 46 47 3
f 46 45 18
f 46 2 45
f 46 2 3
f 32 37 36
f 32 33 37
f 32 33 76
f 32 26 36
f 32 76 26
f 53 15 54
f 53 19 13
f 53 19 54
f 53 12 13
f 53 15 12
f 63 64 60
f 63 61 60
f 16 65 69
f 16 65 26
f 19 64 60
f 19 29 60
f 33 52 34
f 33 52 9
f 12 44 1
f 12 11 1
