o torus_vhacd64_12
v -0.303987 0.006289 -1.197802
v -0.295318 0.131289 -1.165449
v -0.271634 0.222796 -1.077061
v -0.239282 0.256289 -0.956320
v -0.206930 0.222796 -0.835580
v -0.183246 0.131289 -0.747191
v -0.174577 0.006289 -0.714839
v -0.183246 -0.118711 -0.747191
v -0.206930 -0.210217 -0.835580
v -0.239282 -0.243711 -0.956320
v -0.271634 -0.210217 -1.077061
v -0.295318 -0.118711 -1.165449
v -0.458818 0.006289 -1.145244
v -0.446000 0.131289 -1.114300
v -0.410982 0.222796 -1.029759
v -0.363147 0.256289 -0.914274
v -0.315311 0.222796 -0.798789
v -0.280293 0.131289 -0.714248
v -0.267476 0.006289 -0.683304
v -0.280293 -0.118711 -0.714248
v -0.315311 -0.210217 -0.798789
v -0.363147 -0.243711 -0.914274
v -0.410982 -0.210217 -1.029759
v -0.446000 -0.118711 -1.114300
f 8 11 7
f 8 11 10
f 12 11 1
f 3 11 1
f 3 11 7
f 20 8 21
f 9 21 10
f 9 8 10
f 9 8 21
f 6 3 7
f 6 3 4
f 22 11 10
f 22 23 11
f 22 21 10
f 22 23 13
f 22 20 21
f 24 12 11
f 24 23 11
f 24 23 13
f 24 1 13
f 24 12 1
f 2 3 1
f 19 6 7
f 19 8 7
f 19 20 8
f 19 22 20
f 5 17 4
f 5 6 4
f 5 6 17
f 16 3 4
f 16 15 3
f 16 17 4
f 16 15 13
f 14 2 3
f 14 15 3
f 14 15 13
f 14 1 13
f 14 2 1
f 18 6 17
f 18 19 6
f 18 16 19
f 18 16 17
f 16 19 22
f 16 22 13
