o torus_fine_18
v -1.219769 0.006289 0.172764
v -1.186562 0.131289 0.168392
v -1.095839 0.222796 0.156448
v -0.971908 0.256289 0.140132
v -0.847977 0.222796 0.123816
v -0.757254 0.131289 0.111872
v -0.724047 0.006289 0.107500
v -0.757254 -0.118711 0.111872
v -0.847977 -0.210217 0.123816
v -0.971908 -0.243711 0.140132
v -1.095839 -0.210217 0.156448
v -1.186562 -0.118711 0.168392
v -1.187871 0.006289 0.333129
v -1.155518 0.131289 0.324461
v -1.067130 0.222796 0.300777
v -0.946389 0.256289 0.268425
v -0.946389 -0.243711 0.268425
v -1.067130 -0.210217 0.300777
v -1.155518 -0.118711 0.324461
v -1.135313 0.006289 0.487960
v -1.104369 0.131289 0.475142
v -1.019828 0.222796 0.440124
v -0.904343 0.256289 0.392289
v -0.904343 -0.243711 0.392289
v -1.019828 -0.210217 0.440124
v -1.104369 -0.118711 0.475142
v -1.062995 0.006289 0.634606
v -1.033989 0.131289 0.617859
v -0.954742 0.222796 0.572106
v -0.846489 0.256289 0.509606
v -0.846489 -0.243711 0.509606
v -0.954742 -0.210217 0.572106
v -1.033989 -0.118711 0.617859
v -0.972155 0.006289 0.770558
v -0.945583 0.131289 0.750168
v -0.872986 0.222796 0.694462
v -0.773816 0.256289 0.618367
v -0.773816 -0.243711 0.618367
v -0.872986 -0.210217 0.694462
v -0.945583 -0.118711 0.750168
v -0.864347 0.006289 0.893489
v -0.840663 0.131289 0.869805
v -0.775958 0.222796 0.805101
v -0.687570 0.256289 0.716712
v -0.599182 0.222796 0.628324
v -0.534477 0.131289 0.563619
v -0.510793 0.006289 0.539936
v -0.534477 -0.118711 0.563619
v -0.599182 -0.210217 0.628324
v -0.687570 -0.243711 0.716712
v -0.775958 -0.210217 0.805101
v -0.840663 -0.118711 0.869805
f 7 6 5
f 7 8 47
f 7 6 47
f 48 8 47
f 49 48 47
f 49 51 47
f 49 51 50
f 17 11 10
f 34 35 41
f 52 51 41
f 45 44 5
f 9 7 10
f 9 7 8
f 9 50 10
f 9 49 50
f 9 48 8
f 9 49 48
f 16 3 15
f 42 35 41
f 12 19 11
f 12 2 1
f 12 2 7
f 12 11 10
f 12 7 10
f 27 20 33
f 27 34 33
f 13 2 1
f 13 12 1
f 13 12 19
f 21 13 20
f 40 52 51
f 40 32 33
f 40 34 33
f 40 34 41
f 40 52 41
f 18 19 11
f 18 17 11
f 46 6 5
f 46 45 5
f 46 6 47
f 46 45 47
f 4 16 3
f 4 7 5
f 4 44 5
f 4 2 7
f 4 2 3
f 43 36 44
f 43 42 35
f 43 36 35
f 43 51 47
f 43 51 41
f 43 42 41
f 43 45 47
f 43 45 44
f 28 27 20
f 28 21 20
f 28 34 35
f 28 27 34
f 14 13 2
f 14 21 13
f 14 21 15
f 14 3 15
f 14 2 3
f 39 40 51
f 39 40 32
f 39 31 32
f 39 51 50
f 26 18 19
f 26 20 33
f 26 32 33
f 26 13 20
f 26 13 19
f 25 31 32
f 25 26 32
f 25 26 18
f 37 36 44
f 37 30 36
f 23 16 15
f 29 36 35
f 29 28 35
f 29 30 36
f 29 28 21
f 38 39 50
f 38 39 31
f 24 25 31
f 24 18 17
f 24 25 18
f 22 21 15
f 22 29 21
f 22 23 15
f 22 23 30
f 22 29 30
f 23 4 16
f 23 4 44
f 23 37 44
f 23 37 30
f 24 17 10
f 24 50 10
f 24 38 50
f 24 38 31
