o torus_capsule32_28
v -0.051223 0.063266 0.012802
v -0.053342 0.067230 0.009798
v -0.054758 0.069879 0.005303
v -0.055255 0.070809 0.000000
v -0.054758 0.069879 -0.005303
v -0.053342 0.067230 -0.009798
v -0.051223 0.063266 -0.012802
v -0.038866 0.051224 -0.011142
v -0.037256 0.048212 -0.006030
v -0.036690 0.047154 -0.000000
v -0.037256 0.048212 0.006030
v -0.038866 0.051224 0.011142
v -0.055181 0.051270 0.015757
v -0.059006 0.055932 0.014557
v -0.062249 0.059883 0.011142
v -0.064416 0.062524 0.006030
v -0.065177 0.063451 0.000000
v -0.064416 0.062524 -0.006030
v -0.062249 0.059883 -0.011142
v -0.059006 0.055932 -0.014557
v -0.055181 0.051270 -0.015757
v -0.047958 0.059217 0.013856
v -0.051270 0.055181 0.015757
v -0.064123 0.039520 0.015757
v -0.067435 0.035484 0.013856
v -0.055932 0.059006 0.014557
v -0.068784 0.043345 0.014557
v -0.050879 0.067121 0.007272
v -0.059883 0.062249 0.011142
v -0.072736 0.046588 0.011142
v -0.075757 0.036807 0.007272
v -0.062524 0.064416 0.006030
v -0.075376 0.048755 0.006030
v -0.063451 0.065177 0.000000
v -0.076303 0.049516 0.000000
v -0.062524 0.064416 -0.006030
v -0.075376 0.048755 -0.006030
v -0.050879 0.067121 -0.007272
v -0.059883 0.062249 -0.011142
v -0.072736 0.046588 -0.011142
v -0.075757 0.036807 -0.007272
v -0.055932 0.059006 -0.014557
v -0.068784 0.043345 -0.014557
v -0.047958 0.059217 -0.013856
v -0.051270 0.055181 -0.015757
v -0.064123 0.039520 -0.015757
v -0.067435 0.035484 -0.013856
v -0.043859 0.055853 -0.012802
v -0.046609 0.051355 -0.014557
v -0.059462 0.035695 -0.014557
v -0.063336 0.032120 -0.012802
v -0.043859 0.055853 0.012802
v -0.046609 0.051355 0.014557
v -0.059462 0.035695 0.014557
v -0.063336 0.032120 0.012802
v -0.061051 0.044118 0.015757
v -0.066368 0.046961 0.014557
v -0.070877 0.049370 0.011142
v -0.073889 0.050980 0.006030
v -0.074947 0.051546 0.000000
v -0.073889 0.050980 -0.006030
v -0.070877 0.049370 -0.011142
v -0.066368 0.046961 -0.014557
v -0.061051 0.044118 -0.015757
v -0.072043 0.037896 0.012802
v -0.076345 0.039201 0.009798
v -0.079219 0.040073 0.005303
v -0.080228 0.040379 0.000000
v -0.079219 0.040073 -0.005303
v -0.076345 0.039201 -0.009798
v -0.072043 0.037896 -0.012802
v -0.057822 0.028126 -0.011142
v -0.054554 0.027134 -0.006030
v -0.053406 0.026786 -0.000000
v -0.054554 0.027134 0.006030
v -0.057822 0.028126 0.011142
f 44 49 48
f 70 41 71
f 11 74 10
f 9 74 10
f 9 11 10
f 47 46 71
f 47 41 71
f 50 47 46
f 31 41 68
f 35 37 68
f 73 9 72
f 73 9 74
f 12 11 76
f 12 53 52
f 69 37 68
f 69 41 68
f 69 70 41
f 34 36 4
f 8 49 48
f 8 9 72
f 8 50 72
f 8 50 49
f 45 44 49
f 51 41 72
f 51 47 41
f 51 50 72
f 51 50 47
f 40 69 70
f 40 69 37
f 43 46 71
f 43 63 46
f 43 40 63
f 43 70 71
f 43 40 70
f 64 63 46
f 20 64 21
f 20 64 63
f 54 12 76
f 54 12 53
f 60 59 17
f 60 35 37
f 33 59 58
f 33 35 68
f 33 60 35
f 33 60 59
f 32 34 4
f 1 26 2
f 14 58 15
f 75 73 74
f 75 11 76
f 75 11 74
f 28 12 52
f 28 1 2
f 7 6 42
f 7 45 42
f 7 45 44
f 5 36 4
f 39 6 42
f 39 5 36
f 39 5 6
f 62 40 63
f 62 20 19
f 62 20 63
f 62 40 37
f 62 18 19
f 55 31 76
f 55 54 76
f 30 33 58
f 61 18 17
f 61 60 17
f 61 60 37
f 61 62 37
f 61 62 18
f 29 26 2
f 16 58 15
f 16 59 58
f 16 59 17
f 23 1 26
f 56 14 13
f 3 28 4
f 3 28 2
f 3 32 4
f 3 29 32
f 3 29 2
f 38 44 48
f 38 7 44
f 38 7 6
f 38 8 48
f 38 5 6
f 38 28 4
f 38 5 4
f 25 54 24
f 25 55 54
f 25 65 24
f 25 65 31
f 25 55 31
f 27 65 24
f 67 33 68
f 67 30 33
f 67 31 68
f 22 23 1
f 22 28 52
f 22 28 1
f 22 23 53
f 22 53 52
f 57 56 24
f 57 27 24
f 57 56 14
f 57 14 58
f 57 30 58
f 57 27 30
f 66 65 31
f 66 67 31
f 66 67 30
f 66 27 65
f 66 27 30
f 31 41 72
f 31 76 72
f 18 34 36
f 18 34 17
f 8 12 11
f 8 9 11
f 45 50 46
f 45 50 49
f 64 45 46
f 64 45 21
f 20 45 21
f 20 45 42
f 75 76 72
f 75 73 72
f 39 20 42
f 39 20 19
f 39 18 36
f 39 18 19
f 29 14 26
f 29 14 15
f 16 29 15
f 16 29 32
f 16 34 17
f 16 32 34
f 23 14 26
f 23 14 13
f 23 54 24
f 23 54 53
f 56 23 13
f 56 23 24
f 38 8 12
f 38 28 12
