o torus_vhacd64_5
v -0.972155 0.006289 -0.751346
v -0.945583 0.131289 -0.730956
v -0.872986 0.222796 -0.675251
v -0.872986 -0.210217 -0.675251
v -0.945583 -0.118711 -0.730956
v -1.062995 0.006289 -0.615395
v -1.033988 0.131289 -0.598648
v -0.954742 0.222796 -0.552895
v -0.846488 0.256289 -0.490395
v -0.738235 0.222796 -0.427895
v -0.658988 0.131289 -0.382141
v -0.629982 0.006289 -0.365395
v -0.658988 -0.118711 -0.382141
v -0.738235 -0.210217 -0.427895
v -0.846488 -0.243711 -0.490395
v -0.954742 -0.210217 -0.552895
v -1.033988 -0.118711 -0.598648
f 4 13 12
f 3 4 12
f 3 4 1
f 16 13 6
f 16 13 15
f 16 4 15
f 5 1 6
f 5 4 1
f 5 16 4
f 14 13 15
f 14 4 15
f 14 4 13
f 11 13 12
f 11 13 6
f 11 3 12
f 2 3 1
f 2 1 6
f 2 7 6
f 17 16 6
f 17 5 6
f 17 5 16
f 8 11 9
f 8 3 9
f 8 7 6
f 8 11 6
f 8 2 7
f 8 2 3
f 10 3 9
f 10 11 9
f 10 11 3
