o torus_capsule32_9
v 0.003857 -0.064184 -0.011142
v 0.004192 -0.060785 -0.006030
v 0.004309 -0.059591 -0.000000
v 0.004192 -0.060785 0.006030
v 0.003857 -0.064184 0.011142
v 0.007442 -0.081061 0.012802
v 0.007001 -0.085535 0.009798
v 0.006707 -0.088524 0.005303
v 0.006603 -0.089574 0.000000
v 0.006707 -0.088524 -0.005303
v 0.007001 -0.085535 -0.009798
v 0.007442 -0.081061 -0.012802
v 0.017397 -0.073287 -0.015757
v 0.017397 -0.073287 0.015757
v 0.017988 -0.079287 0.014557
v 0.018489 -0.084375 0.011142
v 0.018824 -0.087774 0.006030
v 0.018941 -0.088968 0.000000
v 0.018824 -0.087774 -0.006030
v 0.018489 -0.084375 -0.011142
v 0.017988 -0.079287 -0.014557
v 0.006976 -0.075881 -0.013856
v 0.011973 -0.074365 -0.015757
v 0.031360 -0.068484 -0.015757
v 0.036357 -0.066969 -0.013856
v 0.005437 -0.070807 -0.012802
v 0.010223 -0.068595 -0.014557
v 0.029610 -0.062714 -0.014557
v 0.034818 -0.061894 -0.012802
v 0.005437 -0.070807 0.012802
v 0.010223 -0.068595 0.014557
v 0.029610 -0.062714 0.014557
v 0.034818 -0.061894 0.012802
v 0.006976 -0.075881 0.013856
v 0.011973 -0.074365 0.015757
v 0.031360 -0.068484 0.015757
v 0.036357 -0.066969 0.013856
v 0.013723 -0.080136 0.014557
v 0.033110 -0.074255 0.014557
v 0.005014 -0.084076 0.007272
v 0.015207 -0.085027 0.011142
v 0.034594 -0.079147 0.011142
v 0.042541 -0.072692 0.007272
v 0.016199 -0.088296 0.006030
v 0.035586 -0.082415 0.006030
v 0.016547 -0.089444 0.000000
v 0.035934 -0.083563 0.000000
v 0.016199 -0.088296 -0.006030
v 0.035586 -0.082415 -0.006030
v 0.005014 -0.084076 -0.007272
v 0.015207 -0.085027 -0.011142
v 0.034594 -0.079147 -0.011142
v 0.042541 -0.072692 -0.007272
v 0.013723 -0.080136 -0.014557
v 0.033110 -0.074255 -0.014557
v 0.026251 -0.070601 -0.015757
v 0.026251 -0.070601 0.015757
v 0.029093 -0.075919 0.014557
v 0.031503 -0.080427 0.011142
v 0.033113 -0.083439 0.006030
v 0.033679 -0.084497 0.000000
v 0.033113 -0.083439 -0.006030
v 0.031503 -0.080427 -0.011142
v 0.029093 -0.075919 -0.014557
v 0.032452 -0.055510 -0.011142
v 0.030285 -0.052870 -0.006030
v 0.029524 -0.051943 -0.000000
v 0.030285 -0.052870 0.006030
v 0.032452 -0.055510 0.011142
v 0.038848 -0.071534 0.012802
v 0.041699 -0.075009 0.009798
v 0.043605 -0.077331 0.005303
v 0.044274 -0.078147 0.000000
v 0.043605 -0.077331 -0.005303
v 0.041699 -0.075009 -0.009798
v 0.038848 -0.071534 -0.012802
f 15 41 16
f 22 50 12
f 5 32 31
f 5 31 30
f 40 50 9
f 40 5 30
f 53 43 73
f 69 5 68
f 69 5 32
f 72 45 73
f 72 43 73
f 58 15 14
f 47 45 73
f 26 50 1
f 26 22 50
f 10 50 9
f 51 54 21
f 66 67 68
f 66 65 1
f 74 53 73
f 4 67 68
f 4 5 68
f 33 69 43
f 33 69 32
f 42 72 45
f 59 15 16
f 59 58 15
f 59 42 58
f 39 36 70
f 39 58 36
f 39 42 58
f 57 58 14
f 57 58 36
f 61 47 45
f 38 15 41
f 7 38 41
f 7 38 6
f 7 6 40
f 55 24 76
f 25 24 76
f 25 53 76
f 23 54 21
f 23 22 12
f 23 54 12
f 11 54 12
f 11 51 54
f 11 51 10
f 11 50 12
f 11 10 50
f 3 5 1
f 3 4 5
f 3 4 67
f 37 43 70
f 37 33 43
f 37 36 70
f 37 36 32
f 37 33 32
f 71 42 72
f 71 43 70
f 71 72 43
f 71 39 70
f 71 39 42
f 35 15 14
f 35 38 15
f 35 38 6
f 35 32 31
f 35 36 32
f 8 40 9
f 8 7 40
f 8 7 41
f 29 53 65
f 29 25 53
f 13 23 21
f 28 65 1
f 28 23 24
f 28 29 65
f 28 25 24
f 28 29 25
f 48 51 10
f 48 10 9
f 48 46 9
f 48 18 46
f 2 66 1
f 2 3 1
f 2 66 67
f 2 3 67
f 34 31 30
f 34 35 31
f 34 35 6
f 34 40 30
f 34 6 40
f 49 61 62
f 49 61 47
f 49 47 73
f 49 74 73
f 64 63 21
f 64 13 21
f 64 55 24
f 75 55 76
f 75 53 76
f 75 74 53
f 27 28 1
f 27 28 23
f 27 26 1
f 27 26 22
f 27 23 22
f 17 18 61
f 17 41 16
f 19 48 18
f 19 61 62
f 19 18 61
f 19 48 51
f 56 64 24
f 56 64 13
f 52 75 55
f 52 64 55
f 52 64 63
f 52 63 62
f 52 49 62
f 52 49 74
f 52 75 74
f 60 61 45
f 60 17 61
f 60 42 45
f 60 59 42
f 60 59 16
f 60 17 16
f 44 8 41
f 44 17 41
f 44 46 9
f 44 8 9
f 44 18 46
f 44 17 18
f 20 19 51
f 20 51 21
f 20 63 21
f 20 63 62
f 20 19 62
f 40 5 1
f 40 50 1
f 69 53 43
f 69 53 65
f 66 69 65
f 66 69 68
f 35 57 36
f 35 57 14
f 56 13 23
f 56 23 24
