o torus_capsule32_6
v -0.032452 -0.055510 -0.011142
v -0.030285 -0.052870 -0.006030
v -0.029524 -0.051943 -0.000000
v -0.030285 -0.052870 0.006030
v -0.032452 -0.055510 0.011142
v -0.038848 -0.071534 0.012802
v -0.041699 -0.075009 0.009798
v -0.043605 -0.077331 0.005303
v -0.044274 -0.078147 0.000000
v -0.043605 -0.077331 -0.005303
v -0.041699 -0.075009 -0.009798
v -0.038848 -0.071534 -0.012802
v -0.026251 -0.070601 -0.015757
v -0.026251 -0.070601 0.015757
v -0.029093 -0.075919 0.014557
v -0.031503 -0.080427 0.011142
v -0.033113 -0.083439 0.006030
v -0.033679 -0.084497 0.000000
v -0.033113 -0.083439 -0.006030
v -0.031503 -0.080427 -0.011142
v -0.029093 -0.075919 -0.014557
v -0.036357 -0.066969 -0.013856
v -0.031360 -0.068484 -0.015757
v -0.011973 -0.074365 -0.015757
v -0.006976 -0.075881 -0.013856
v -0.034818 -0.061894 -0.012802
v -0.029610 -0.062714 -0.014557
v -0.010223 -0.068595 -0.014557
v -0.005437 -0.070807 -0.012802
v -0.034818 -0.061894 0.012802
v -0.029610 -0.062714 0.014557
v -0.010223 -0.068595 0.014557
v -0.005437 -0.070807 0.012802
v -0.036357 -0.066969 0.013856
v -0.031360 -0.068484 0.015757
v -0.011973 -0.074365 0.015757
v -0.006976 -0.075881 0.013856
v -0.033110 -0.074255 0.014557
v -0.013723 -0.080136 0.014557
v -0.042541 -0.072692 0.007272
v -0.034594 -0.079147 0.011142
v -0.015207 -0.085027 0.011142
v -0.005014 -0.084076 0.007272
v -0.035586 -0.082415 0.006030
v -0.016199 -0.088296 0.006030
v -0.035934 -0.083563 0.000000
v -0.016547 -0.089444 0.000000
v -0.035586 -0.082415 -0.006030
v -0.016199 -0.088296 -0.006030
v -0.042541 -0.072692 -0.007272
v -0.034594 -0.079147 -0.011142
v -0.015207 -0.085027 -0.011142
v -0.005014 -0.084076 -0.007272
v -0.033110 -0.074255 -0.014557
v -0.013723 -0.080136 -0.014557
v -0.017397 -0.073287 -0.015757
v -0.017397 -0.073287 0.015757
v -0.017988 -0.079287 0.014557
v -0.018489 -0.084375 0.011142
v -0.018824 -0.087774 0.006030
v -0.018941 -0.088968 0.000000
v -0.018824 -0.087774 -0.006030
v -0.018489 -0.084375 -0.011142
v -0.017988 -0.079287 -0.014557
v -0.003857 -0.064184 -0.011142
v -0.004192 -0.060785 -0.006030
v -0.004309 -0.059591 -0.000000
v -0.004192 -0.060785 0.006030
v -0.003857 -0.064184 0.011142
v -0.007442 -0.081061 0.012802
v -0.007001 -0.085535 0.009798
v -0.006707 -0.088524 0.005303
v -0.006603 -0.089574 0.000000
v -0.006707 -0.088524 -0.005303
v -0.007001 -0.085535 -0.009798
v -0.007442 -0.081061 -0.012802
f 67 69 65
f 5 40 30
f 53 43 73
f 66 67 65
f 66 67 3
f 68 67 3
f 68 67 69
f 33 43 69
f 71 70 43
f 8 40 9
f 35 15 14
f 31 5 69
f 31 35 36
f 31 5 30
f 74 49 73
f 74 53 73
f 29 53 65
f 48 46 9
f 16 15 41
f 4 5 69
f 4 68 69
f 4 68 3
f 57 15 14
f 39 36 70
f 39 71 70
f 37 36 70
f 37 70 43
f 37 33 43
f 50 40 9
f 50 12 22
f 27 1 65
f 44 8 41
f 44 46 9
f 44 8 9
f 38 15 41
f 38 35 15
f 62 63 19
f 62 61 49
f 55 24 64
f 55 24 76
f 52 74 49
f 52 62 49
f 52 62 63
f 52 63 64
f 52 55 64
f 25 24 76
f 25 53 76
f 25 29 53
f 56 24 64
f 51 48 19
f 23 12 22
f 23 27 22
f 23 27 24
f 18 48 19
f 18 48 46
f 18 62 19
f 18 62 61
f 18 44 46
f 47 49 73
f 47 61 49
f 2 4 3
f 2 66 3
f 2 66 65
f 2 1 65
f 32 31 36
f 32 31 69
f 32 33 69
f 32 37 36
f 32 37 33
f 42 39 71
f 58 16 59
f 58 16 15
f 58 42 59
f 58 42 39
f 58 57 15
f 58 57 36
f 58 39 36
f 10 50 9
f 10 48 9
f 10 51 48
f 26 50 1
f 26 50 22
f 26 27 22
f 26 27 1
f 28 27 65
f 28 27 24
f 28 29 65
f 28 25 24
f 28 25 29
f 17 16 41
f 17 44 41
f 17 16 59
f 17 18 44
f 34 40 30
f 34 31 30
f 34 31 35
f 7 8 41
f 7 38 41
f 7 8 40
f 75 52 74
f 75 53 76
f 75 74 53
f 75 55 76
f 75 52 55
f 20 63 19
f 20 51 19
f 20 63 64
f 54 23 12
f 45 47 73
f 45 47 61
f 11 50 12
f 11 10 50
f 11 10 51
f 11 54 12
f 11 54 51
f 6 7 38
f 6 38 35
f 6 34 35
f 6 34 40
f 6 7 40
f 21 20 51
f 21 54 51
f 21 20 64
f 21 56 13
f 21 56 64
f 21 23 13
f 21 54 23
f 72 45 73
f 72 43 73
f 72 71 43
f 72 42 71
f 72 45 42
f 60 45 61
f 60 18 61
f 60 17 18
f 60 17 59
f 60 42 59
f 60 45 42
f 53 43 69
f 53 69 65
f 57 35 36
f 57 35 14
f 50 1 5
f 50 5 40
f 23 56 13
f 23 56 24
f 2 1 5
f 2 4 5
