o torus_capsule32_10
v 0.016305 -0.062198 -0.011142
v 0.015970 -0.058799 -0.006030
v 0.015852 -0.057606 -0.000000
v 0.015970 -0.058799 0.006030
v 0.016305 -0.062198 0.011142
v 0.023113 -0.078052 0.012802
v 0.023554 -0.082526 0.009798
v 0.023848 -0.085515 0.005303
v 0.023951 -0.086564 0.000000
v 0.023848 -0.085515 -0.005303
v 0.023554 -0.082526 -0.009798
v 0.023113 -0.078052 -0.012802
v 0.031360 -0.068484 -0.015757
v 0.031360 -0.068484 0.015757
v 0.033110 -0.074255 0.014557
v 0.034594 -0.079147 0.011142
v 0.035586 -0.082415 0.006030
v 0.035934 -0.083563 0.000000
v 0.035586 -0.082415 -0.006030
v 0.034594 -0.079147 -0.011142
v 0.033110 -0.074255 -0.014557
v 0.021646 -0.073062 -0.013856
v 0.026251 -0.070601 -0.015757
v 0.044118 -0.061051 -0.015757
v 0.048723 -0.058589 -0.013856
v 0.019146 -0.068386 -0.012802
v 0.023408 -0.065283 -0.014557
v 0.041276 -0.055733 -0.014557
v 0.046224 -0.053913 -0.012802
v 0.019146 -0.068386 0.012802
v 0.023408 -0.065283 0.014557
v 0.041276 -0.055733 0.014557
v 0.046224 -0.053913 0.012802
v 0.021646 -0.073062 0.013856
v 0.026251 -0.070601 0.015757
v 0.044118 -0.061051 0.015757
v 0.048723 -0.058589 0.013856
v 0.029093 -0.075919 0.014557
v 0.046961 -0.066368 0.014557
v 0.021320 -0.081482 0.007272
v 0.031503 -0.080427 0.011142
v 0.049370 -0.070877 0.011142
v 0.055905 -0.062996 0.007272
v 0.033113 -0.083439 0.006030
v 0.050980 -0.073889 0.006030
v 0.033679 -0.084497 0.000000
v 0.051546 -0.074947 0.000000
v 0.033113 -0.083439 -0.006030
v 0.050980 -0.073889 -0.006030
v 0.021320 -0.081482 -0.007272
v 0.031503 -0.080427 -0.011142
v 0.049370 -0.070877 -0.011142
v 0.055905 -0.062996 -0.007272
v 0.029093 -0.075919 -0.014557
v 0.046961 -0.066368 -0.014557
v 0.039520 -0.064123 -0.015757
v 0.039520 -0.064123 0.015757
v 0.043345 -0.068784 0.014557
v 0.046588 -0.072736 0.011142
v 0.048755 -0.075376 0.006030
v 0.049516 -0.076303 0.000000
v 0.048755 -0.075376 -0.006030
v 0.046588 -0.072736 -0.011142
v 0.043345 -0.068784 -0.014557
v 0.042658 -0.048112 -0.011142
v 0.040017 -0.045946 -0.006030
v 0.039090 -0.045185 -0.000000
v 0.040017 -0.045946 0.006030
v 0.042658 -0.048112 0.011142
v 0.052057 -0.062581 0.012802
v 0.055532 -0.065433 0.009798
v 0.057854 -0.067338 0.005303
v 0.058669 -0.068007 0.000000
v 0.057854 -0.067338 -0.005303
v 0.055532 -0.065433 -0.009798
v 0.052057 -0.062581 -0.012802
f 67 69 65
f 1 27 65
f 1 27 26
f 1 50 26
f 74 53 73
f 43 53 73
f 28 27 65
f 40 50 9
f 40 34 30
f 40 5 30
f 66 67 65
f 66 1 65
f 4 67 3
f 57 58 14
f 12 50 11
f 10 48 9
f 10 50 9
f 10 50 11
f 46 48 9
f 62 47 61
f 60 47 61
f 33 43 69
f 33 43 37
f 56 64 13
f 29 53 65
f 29 28 65
f 75 74 53
f 75 76 53
f 55 76 24
f 55 56 24
f 55 56 64
f 55 75 76
f 55 64 63
f 31 5 30
f 31 34 30
f 31 35 34
f 31 5 69
f 2 4 3
f 2 66 1
f 2 67 3
f 2 66 67
f 68 67 69
f 68 4 67
f 68 4 5
f 68 5 69
f 22 12 23
f 22 23 27
f 22 27 26
f 22 50 26
f 22 12 50
f 54 12 23
f 54 23 13
f 54 12 11
f 19 62 63
f 19 46 48
f 19 62 61
f 17 60 61
f 17 60 59
f 45 60 47
f 45 47 73
f 70 43 37
f 70 71 43
f 70 36 37
f 39 58 59
f 39 70 71
f 39 70 36
f 39 36 57
f 39 57 58
f 25 28 24
f 25 29 28
f 25 76 24
f 25 76 53
f 25 29 53
f 52 62 63
f 52 55 63
f 52 55 75
f 52 75 74
f 6 35 34
f 6 40 34
f 6 7 40
f 8 40 9
f 8 7 40
f 32 31 69
f 32 33 69
f 32 33 37
f 32 36 37
f 21 64 13
f 21 54 13
f 51 54 11
f 51 10 11
f 51 10 48
f 18 19 61
f 18 19 46
f 18 17 61
f 18 17 46
f 72 45 73
f 72 43 73
f 72 71 43
f 42 39 59
f 42 39 71
f 42 60 59
f 42 45 60
f 42 72 71
f 42 72 45
f 49 52 74
f 49 52 62
f 49 62 47
f 49 47 73
f 49 74 73
f 38 6 35
f 38 35 14
f 38 6 7
f 44 17 46
f 44 46 9
f 44 8 9
f 20 21 54
f 20 51 54
f 20 64 63
f 20 21 64
f 20 19 63
f 20 19 48
f 20 51 48
f 15 58 14
f 15 38 14
f 16 15 38
f 16 58 59
f 16 15 58
f 16 17 59
f 16 44 17
f 41 38 7
f 41 16 38
f 41 16 44
f 41 8 7
f 41 44 8
f 43 53 65
f 43 69 65
f 28 23 24
f 28 23 27
f 40 1 50
f 40 1 5
f 56 23 24
f 56 23 13
f 2 1 5
f 2 4 5
f 36 57 14
f 36 35 14
f 32 36 35
f 32 31 35
