o torus_vhacd64_27
v 1.174387 0.006289 -0.468749
v 1.143442 0.131289 -0.455931
v 1.058902 0.222796 -0.420913
v 0.943417 0.256289 -0.373078
v 0.827932 0.222796 -0.325242
v 0.743391 0.131289 -0.290224
v 0.712447 0.006289 -0.277407
v 0.743391 -0.118711 -0.290224
v 0.827932 -0.210217 -0.325242
v 0.943417 -0.243711 -0.373078
v 1.058902 -0.210217 -0.420913
v 1.143442 -0.118711 -0.455931
v 1.102069 0.006289 -0.615394
v 1.073062 0.131289 -0.598648
v 0.993815 0.222796 -0.552894
v 0.885562 0.256289 -0.490394
v 0.777309 0.222796 -0.427894
v 0.698062 0.131289 -0.382141
v 0.669056 0.006289 -0.365394
v 0.698062 -0.118711 -0.382141
v 0.777309 -0.210217 -0.427894
v 0.885562 -0.243711 -0.490394
v 0.993815 -0.210217 -0.552894
v 1.073062 -0.118711 -0.598648
f 17 5 16
f 24 12 11
f 24 13 1
f 24 12 1
f 6 7 19
f 6 17 5
f 8 7 19
f 8 6 7
f 2 12 1
f 4 15 16
f 4 3 15
f 4 5 16
f 4 3 5
f 23 24 22
f 23 24 11
f 23 22 10
f 23 11 10
f 18 6 19
f 18 6 17
f 18 17 16
f 20 8 19
f 20 18 19
f 20 24 22
f 9 22 10
f 9 11 10
f 14 2 3
f 14 3 15
f 14 24 13
f 14 13 1
f 14 2 1
f 14 15 16
f 14 18 16
f 21 9 8
f 21 20 8
f 21 20 22
f 21 9 22
f 2 3 11
f 2 12 11
f 9 3 11
f 9 3 5
f 9 6 5
f 9 8 6
f 14 20 18
f 14 20 24
