o torus_vhacd64_53
v -0.741416 0.006289 1.001297
v -0.721026 0.131289 0.974725
v -0.665320 0.222796 0.902128
v -0.589225 0.256289 0.802959
v -0.513130 0.222796 0.703790
v -0.457424 0.131289 0.631193
v -0.437034 0.006289 0.604621
v -0.457424 -0.118711 0.631193
v -0.513130 -0.210217 0.703790
v -0.589225 -0.243711 0.802959
v -0.665320 -0.210217 0.902128
v -0.721026 -0.118711 0.974725
v -0.605463 0.006289 1.092138
v -0.588716 0.131289 1.063131
v -0.542963 0.222796 0.983884
v -0.480463 0.256289 0.875631
v -0.417963 0.222796 0.767378
v -0.372210 0.131289 0.688131
v -0.355463 0.006289 0.659125
v -0.372210 -0.118711 0.688131
v -0.417963 -0.210217 0.767378
v -0.480463 -0.243711 0.875631
v -0.542963 -0.210217 0.983884
v -0.588716 -0.118711 1.063131
f 12 10 1
f 12 13 1
f 17 13 19
f 21 13 19
f 21 22 10
f 24 12 13
f 24 21 13
f 24 21 22
f 14 15 16
f 14 17 13
f 14 17 16
f 6 17 5
f 20 21 19
f 20 21 8
f 9 21 10
f 9 21 8
f 9 10 1
f 9 5 1
f 23 24 12
f 23 24 22
f 23 22 10
f 4 15 16
f 4 3 15
f 4 17 16
f 4 17 5
f 4 5 1
f 2 14 15
f 2 3 15
f 2 13 1
f 2 14 13
f 2 4 1
f 2 4 3
f 7 6 8
f 7 20 19
f 7 20 8
f 18 17 19
f 18 6 17
f 18 7 19
f 18 7 6
f 11 12 10
f 11 23 10
f 11 23 12
f 9 6 8
f 9 6 5
