o torus_vhacd32_27
v -0.972155 0.006289 0.770558
v -0.945583 0.131289 0.750168
v -0.872986 0.222796 0.694462
v -0.773816 0.256289 0.618367
v -0.674647 0.222796 0.542272
v -0.602050 0.131289 0.486566
v -0.575478 0.006289 0.466177
v -0.602050 -0.118711 0.486566
v -0.674647 -0.210217 0.542272
v -0.773816 -0.243711 0.618367
v -0.872986 -0.210217 0.694462
v -0.945583 -0.118711 0.750168
v -0.864347 0.006289 0.893489
v -0.840663 0.131289 0.869805
v -0.775958 0.222796 0.805101
v -0.687570 0.256289 0.716712
v -0.687570 -0.243711 0.716712
v -0.775958 -0.210217 0.805101
v -0.840663 -0.118711 0.869805
v -0.741416 0.006289 1.001297
v -0.721026 0.131289 0.974725
v -0.665320 0.222796 0.902128
v -0.589225 0.256289 0.802959
v -0.589225 -0.243711 0.802959
v -0.665320 -0.210217 0.902128
v -0.721026 -0.118711 0.974725
v -0.605463 0.006289 1.092138
v -0.588716 0.131289 1.063131
v -0.542963 0.222796 0.983884
v -0.480463 0.256289 0.875631
v -0.417963 0.222796 0.767378
v -0.372210 0.131289 0.688131
v -0.355463 0.006289 0.659125
v -0.372210 -0.118711 0.688131
v -0.417963 -0.210217 0.767378
v -0.480463 -0.243711 0.875631
v -0.542963 -0.210217 0.983884
v -0.588716 -0.118711 1.063131
f 31 27 33
f 12 2 1
f 20 26 27
f 20 21 27
f 6 31 5
f 13 12 1
f 13 20 26
f 13 2 1
f 13 20 21
f 34 8 33
f 35 27 33
f 35 34 33
f 35 36 10
f 35 9 10
f 35 34 8
f 35 9 8
f 38 26 27
f 38 35 27
f 38 35 36
f 28 21 27
f 28 29 21
f 28 29 30
f 28 31 27
f 28 31 30
f 7 6 8
f 7 8 33
f 7 6 33
f 32 31 33
f 32 6 33
f 32 6 31
f 19 18 26
f 19 18 12
f 19 13 26
f 19 13 12
f 11 18 12
f 11 9 10
f 11 9 8
f 14 13 21
f 14 13 2
f 14 15 21
f 14 15 2
f 37 38 36
f 37 24 36
f 37 38 26
f 22 29 21
f 22 15 21
f 4 31 30
f 4 31 5
f 17 24 18
f 17 11 10
f 17 11 18
f 25 24 18
f 25 37 24
f 25 18 26
f 25 37 26
f 23 22 15
f 23 29 30
f 23 22 29
f 3 15 2
f 3 6 5
f 3 4 5
f 16 23 15
f 16 3 15
f 16 3 4
f 17 24 36
f 17 36 10
f 3 11 12
f 3 12 2
f 3 6 8
f 3 11 8
f 16 23 30
f 16 4 30
