o torus_vhacd64_50
v -0.267476 0.006289 0.702515
v -0.303987 0.006289 1.217013
v -0.295318 0.131289 1.184660
v -0.271635 0.222796 1.096272
v -0.239282 0.256289 0.975531
v -0.206930 0.222796 0.854791
v -0.183246 0.131289 0.766402
v -0.174578 0.006289 0.734050
v -0.183246 -0.118711 0.766402
v -0.206930 -0.210217 0.854791
v -0.239282 -0.243711 0.975531
v -0.271635 -0.210217 1.096272
v -0.295318 -0.118711 1.184660
f 10 1 11
f 7 1 8
f 12 1 11
f 3 1 2
f 9 10 11
f 9 7 8
f 9 1 8
f 9 10 1
f 13 12 11
f 13 3 2
f 13 1 2
f 13 12 1
f 6 5 7
f 6 7 1
f 6 5 1
f 4 5 3
f 4 3 1
f 4 5 1
f 5 13 11
f 5 9 11
f 5 9 7
f 5 13 3
