o torus_capsule32_24
v 0.008516 0.080955 0.012802
v 0.009820 0.085257 0.009798
v 0.010692 0.088132 0.005303
v 0.010999 0.089141 0.000000
v 0.010692 0.088132 -0.005303
v 0.009820 0.085257 -0.009798
v 0.008516 0.080955 -0.012802
v 0.008739 0.063703 -0.011142
v 0.007747 0.060435 -0.006030
v 0.007399 0.059287 -0.000000
v 0.007747 0.060435 0.006030
v 0.008739 0.063703 0.011142
v -0.002765 0.075272 0.015757
v -0.002174 0.081273 0.014557
v -0.001673 0.086361 0.011142
v -0.001338 0.089760 0.006030
v -0.001221 0.090953 0.000000
v -0.001338 0.089760 -0.006030
v -0.001673 0.086361 -0.011142
v -0.002174 0.081273 -0.014557
v -0.002765 0.075272 -0.015757
v 0.007961 0.075784 0.013856
v 0.002765 0.075272 0.015757
v -0.017397 0.073287 0.015757
v -0.022593 0.072775 0.013856
v 0.002174 0.081273 0.014557
v -0.017988 0.079287 0.014557
v 0.011485 0.083439 0.007272
v 0.001673 0.086361 0.011142
v -0.018489 0.084375 0.011142
v -0.027542 0.079595 0.007272
v 0.001338 0.089760 0.006030
v -0.018824 0.087774 0.006030
v 0.001221 0.090953 0.000000
v -0.018941 0.088968 0.000000
v 0.001338 0.089760 -0.006030
v -0.018824 0.087774 -0.006030
v 0.011485 0.083439 -0.007272
v 0.001673 0.086361 -0.011142
v -0.018489 0.084375 -0.011142
v -0.027542 0.079595 -0.007272
v 0.002174 0.081273 -0.014557
v -0.017988 0.079287 -0.014557
v 0.007961 0.075784 -0.013856
v 0.002765 0.075272 -0.015757
v -0.017397 0.073287 -0.015757
v -0.022593 0.072775 -0.013856
v 0.008481 0.070507 -0.012802
v 0.003356 0.069271 -0.014557
v -0.016806 0.067286 -0.014557
v -0.022073 0.067498 -0.012802
v 0.008481 0.070507 0.012802
v 0.003356 0.069271 0.014557
v -0.016806 0.067286 0.014557
v -0.022073 0.067498 0.012802
v -0.011973 0.074365 0.015757
v -0.013723 0.080136 0.014557
v -0.015207 0.085027 0.011142
v -0.016199 0.088296 0.006030
v -0.016547 0.089444 0.000000
v -0.016199 0.088296 -0.006030
v -0.015207 0.085027 -0.011142
v -0.013723 0.080136 -0.014557
v -0.011973 0.074365 -0.015757
v -0.024146 0.077739 0.012802
v -0.026265 0.081703 0.009798
v -0.027681 0.084352 0.005303
v -0.028178 0.085282 0.000000
v -0.027681 0.084352 -0.005303
v -0.026265 0.081703 -0.009798
v -0.024146 0.077739 -0.012802
v -0.020999 0.060774 -0.011142
v -0.019389 0.057762 -0.006030
v -0.018823 0.056704 -0.000000
v -0.019389 0.057762 0.006030
v -0.020999 0.060774 0.011142
f 4 38 28
f 73 10 74
f 73 10 9
f 8 73 9
f 8 73 72
f 8 10 9
f 41 71 47
f 46 71 47
f 67 66 30
f 75 10 74
f 75 73 74
f 12 75 76
f 12 8 10
f 5 4 36
f 5 38 6
f 5 4 38
f 48 8 38
f 48 44 38
f 51 41 47
f 51 41 72
f 49 8 72
f 49 48 8
f 49 48 44
f 43 46 71
f 43 64 46
f 15 16 58
f 27 30 58
f 27 57 58
f 27 66 30
f 37 35 68
f 17 16 60
f 33 67 30
f 33 30 58
f 33 35 68
f 33 67 68
f 31 67 66
f 31 55 76
f 31 55 25
f 31 41 68
f 31 67 68
f 3 4 28
f 3 2 28
f 3 2 29
f 53 12 76
f 11 75 10
f 11 12 10
f 11 12 75
f 50 49 72
f 50 51 72
f 50 46 47
f 50 51 47
f 45 49 44
f 7 42 6
f 7 38 6
f 7 44 38
f 7 45 42
f 7 45 44
f 70 43 71
f 70 41 71
f 34 4 36
f 59 16 58
f 59 33 58
f 59 16 60
f 59 35 60
f 59 33 35
f 65 31 66
f 65 31 25
f 65 27 66
f 65 25 24
f 65 27 24
f 54 53 76
f 54 55 76
f 54 25 24
f 54 55 25
f 18 17 60
f 63 43 64
f 63 20 21
f 63 64 21
f 39 42 6
f 39 5 36
f 39 5 6
f 40 70 43
f 69 37 68
f 69 40 37
f 69 40 70
f 69 41 68
f 69 70 41
f 32 3 4
f 32 34 4
f 32 3 29
f 52 53 12
f 52 22 53
f 52 12 28
f 52 22 28
f 1 2 28
f 1 22 28
f 56 27 24
f 56 27 57
f 61 18 60
f 61 35 60
f 61 37 35
f 26 2 29
f 26 1 2
f 62 18 19
f 62 61 18
f 62 40 37
f 62 61 37
f 62 19 20
f 62 63 20
f 62 63 43
f 62 40 43
f 14 57 58
f 14 15 58
f 23 1 22
f 23 26 1
f 23 22 53
f 13 56 57
f 13 14 57
f 75 73 72
f 75 72 76
f 12 8 38
f 12 38 28
f 31 72 76
f 31 41 72
f 45 42 20
f 45 20 21
f 45 64 21
f 45 64 46
f 45 50 46
f 45 50 49
f 18 34 17
f 18 34 36
f 39 42 20
f 39 19 20
f 39 18 36
f 39 18 19
f 32 34 17
f 32 17 16
f 32 15 29
f 32 15 16
f 14 15 29
f 14 26 29
f 23 54 53
f 23 54 24
f 13 23 24
f 13 56 24
f 13 14 26
f 13 23 26
