o torus_vhacd64_20
v 0.644537 0.006289 -1.072926
v 0.627790 0.131289 -1.043920
v 0.582037 0.222796 -0.964673
v 0.519537 0.256289 -0.856420
v 0.457037 0.222796 -0.748167
v 0.411284 0.131289 -0.668920
v 0.394537 0.006289 -0.639913
v 0.411284 -0.118711 -0.668920
v 0.457037 -0.210217 -0.748167
v 0.519537 -0.243711 -0.856420
v 0.582037 -0.210217 -0.964673
v 0.627790 -0.118711 -1.043920
v 0.497891 0.006289 -1.145244
v 0.485074 0.131289 -1.114299
v 0.450056 0.222796 -1.029759
v 0.402221 0.256289 -0.914274
v 0.354385 0.222796 -0.798789
v 0.319367 0.131289 -0.714248
v 0.306550 0.006289 -0.683304
v 0.319367 -0.118711 -0.714248
v 0.354385 -0.210217 -0.798789
v 0.402221 -0.243711 -0.914274
v 0.450056 -0.210217 -1.029759
v 0.485074 -0.118711 -1.114299
f 12 13 1
f 17 15 16
f 17 15 13
f 3 7 1
f 3 7 6
f 11 12 1
f 11 7 1
f 20 7 19
f 21 22 10
f 21 9 10
f 21 20 9
f 21 20 13
f 8 9 10
f 8 11 10
f 8 11 7
f 8 20 9
f 8 20 7
f 4 15 16
f 4 3 15
f 4 17 16
f 4 3 6
f 2 3 15
f 2 13 1
f 2 3 1
f 24 12 13
f 18 17 13
f 18 20 13
f 18 20 19
f 18 7 19
f 18 7 6
f 5 4 6
f 5 4 17
f 5 18 6
f 5 18 17
f 14 15 13
f 14 2 13
f 14 2 15
f 23 11 12
f 23 24 12
f 23 22 10
f 23 11 10
f 23 24 13
f 23 21 13
f 23 21 22
