o torus_vhacd64_59
v -1.135313 0.006289 0.487960
v -1.104369 0.131289 0.475142
v -1.019828 0.222796 0.440124
v -0.904343 0.256289 0.392289
v -0.788858 0.222796 0.344453
v -0.704317 0.131289 0.309435
v -0.673373 0.006289 0.296618
v -0.704317 -0.118711 0.309435
v -0.788858 -0.210217 0.344453
v -0.904343 -0.243711 0.392289
v -1.019828 -0.210217 0.440124
v -1.104369 -0.118711 0.475142
v -1.062995 0.006289 0.634606
v -1.033989 0.131289 0.617859
v -0.954742 0.222796 0.572106
v -0.846489 0.256289 0.509606
v -0.738235 0.222796 0.447106
v -0.658989 0.131289 0.401352
v -0.629982 0.006289 0.384606
v -0.658989 -0.118711 0.401352
v -0.738235 -0.210217 0.447106
v -0.846489 -0.243711 0.509606
v -0.954742 -0.210217 0.572106
v -1.033989 -0.118711 0.617859
f 24 13 1
f 14 13 1
f 15 14 13
f 2 14 1
f 2 15 14
f 17 15 16
f 17 15 13
f 12 24 1
f 12 2 1
f 3 2 5
f 3 15 16
f 3 2 15
f 6 17 5
f 20 8 19
f 21 17 19
f 21 17 13
f 21 20 19
f 21 22 10
f 21 9 10
f 21 9 8
f 21 20 8
f 23 12 24
f 23 24 13
f 23 21 13
f 23 21 22
f 4 3 16
f 4 3 5
f 4 17 16
f 4 17 5
f 7 6 8
f 7 8 19
f 7 6 19
f 18 17 19
f 18 6 19
f 18 6 17
f 11 23 12
f 11 9 12
f 11 9 10
f 11 22 10
f 11 23 22
f 9 6 8
f 9 6 5
f 9 2 5
f 9 12 2
