o torus_vhacd64_1
v -1.187871 0.006289 -0.313918
v -1.155518 0.131289 -0.305249
v -1.067130 0.222796 -0.281566
v -0.946389 0.256289 -0.249213
v -0.825648 0.222796 -0.216861
v -0.737260 0.131289 -0.193177
v -0.704908 0.006289 -0.184508
v -0.737260 -0.118711 -0.193177
v -0.825648 -0.210217 -0.216861
v -0.946389 -0.243711 -0.249213
v -1.067130 -0.210217 -0.281566
v -1.155518 -0.118711 -0.305249
v -1.219769 0.006289 -0.153552
v -1.186562 0.131289 -0.149180
v -1.095839 0.222796 -0.137236
v -0.971908 0.256289 -0.120921
v -0.847977 0.222796 -0.104605
v -0.757254 0.131289 -0.092661
v -0.724047 0.006289 -0.088289
v -0.757254 -0.118711 -0.092661
v -0.847977 -0.210217 -0.104605
v -0.971908 -0.243711 -0.120921
v -1.095839 -0.210217 -0.137236
v -1.186562 -0.118711 -0.149180
f 9 21 10
f 9 11 10
f 12 11 1
f 23 12 11
f 14 1 13
f 3 11 1
f 16 3 4
f 16 3 15
f 8 9 21
f 22 11 10
f 22 23 11
f 22 21 10
f 22 23 21
f 24 23 12
f 24 1 13
f 24 12 1
f 24 14 13
f 2 14 1
f 2 3 1
f 2 14 15
f 2 3 15
f 5 3 4
f 19 23 15
f 19 8 7
f 6 8 7
f 6 19 7
f 17 16 15
f 17 6 5
f 17 16 4
f 17 5 4
f 20 23 21
f 20 19 23
f 20 8 21
f 20 19 8
f 18 19 15
f 18 17 15
f 18 6 19
f 18 17 6
f 24 14 15
f 24 23 15
f 5 3 11
f 5 9 11
f 6 5 9
f 6 8 9
