o torus_vhacd64_19
v 0.497891 0.006289 -1.145244
v 0.485074 0.131289 -1.114299
v 0.450056 0.222796 -1.029759
v 0.402221 0.256289 -0.914274
v 0.354385 0.222796 -0.798789
v 0.319367 0.131289 -0.714248
v 0.306550 0.006289 -0.683304
v 0.319367 -0.118711 -0.714248
v 0.354385 -0.210217 -0.798789
v 0.402221 -0.243711 -0.914274
v 0.450056 -0.210217 -1.029759
v 0.485074 -0.118711 -1.114299
v 0.343061 0.006289 -1.197802
v 0.334392 0.131289 -1.165449
v 0.310708 0.222796 -1.077061
v 0.278356 0.256289 -0.956320
v 0.246004 0.222796 -0.835579
v 0.222320 0.131289 -0.747191
v 0.213651 0.006289 -0.714839
v 0.222320 -0.118711 -0.747191
v 0.246004 -0.210217 -0.835579
v 0.278356 -0.243711 -0.956320
v 0.310708 -0.210217 -1.077061
v 0.334392 -0.118711 -1.165449
f 17 5 16
f 12 2 1
f 12 11 10
f 23 15 13
f 23 22 10
f 23 11 10
f 23 15 19
f 8 7 10
f 4 7 10
f 4 5 16
f 4 15 16
f 14 15 13
f 14 13 1
f 14 2 1
f 18 17 16
f 18 15 19
f 18 15 16
f 18 7 19
f 24 23 13
f 24 13 1
f 24 12 1
f 24 12 11
f 24 23 11
f 9 22 10
f 9 8 10
f 20 23 19
f 20 23 22
f 20 7 19
f 20 8 7
f 3 4 2
f 3 4 15
f 3 14 15
f 3 14 2
f 6 17 5
f 6 18 17
f 6 18 7
f 6 4 5
f 6 4 7
f 21 9 8
f 21 20 8
f 21 9 22
f 21 20 22
f 4 12 2
f 4 12 10
