v 0.184806 -0.049740 -1.233119
v 0.572698 0.022054 -0.486158
v 0.572698 -0.020982 -0.486158
v 0.026721 -0.020982 -0.730400
v 0.026721 0.266346 -1.017572
v 0.572698 0.223209 -1.003262
v 0.572698 -0.250895 -0.873949
v 0.026721 -0.250895 -0.960108
v 0.558268 0.237588 -0.658625
v 0.558268 -0.135913 -1.089421
v 0.026721 0.136986 -1.218734
v 0.026721 0.136986 -0.759169
v 0.558268 -0.193379 -0.615471
v 0.026721 -0.222137 -1.118190
v 0.486440 0.093899 -1.146885
v 0.026721 -0.121585 -0.759169
v 0.572698 0.266346 -0.859713
v 0.313979 0.237588 -1.089421
v 0.328408 -0.222137 -1.089421
v 0.026721 0.237588 -0.859713
v 0.558268 0.136986 -0.529312
v 0.026721 -0.121585 -1.218734
v 0.572698 -0.035361 -1.118190
v 0.342785 -0.135913 -1.175654
v 0.026721 -0.222137 -0.859713
v 0.572698 -0.236516 -0.716090
v 0.558268 -0.121585 -0.529312
v 0.313979 0.022054 -1.218734
v 0.328408 0.151365 -1.175654
v 0.026721 0.237588 -1.118190
v 0.572698 -0.222137 -0.988877
v 0.184806 -0.250895 -1.017572
v 0.026721 0.036433 -1.247578
v 0.026721 0.266346 -0.960108
v 0.558268 0.151365 -1.089421
v 0.184806 0.151365 -1.204349
v 0.572698 0.266346 -0.787864
v 0.199182 -0.135913 -1.204349
v 0.558268 0.022054 -0.486158
v 0.500763 -0.006603 -1.161270
v 0.026721 0.036433 -0.730400
v 0.558268 -0.020982 -0.486158
v 0.558268 -0.222137 -0.658625
v 0.543892 -0.250895 -0.787864
v 0.328408 0.266346 -0.974492
v 0.572698 0.165744 -0.558007
v 0.443365 0.237588 -1.046341
v 0.199182 -0.222137 -1.118190
v 0.127301 0.022054 -1.247578
v 0.472118 -0.135913 -1.132500
v 0.357108 -0.035361 -1.204349
v 0.170430 0.237588 -1.118190
v 0.572698 0.050812 -1.118190
v 0.400236 -0.250895 -0.960108
v 0.558268 0.165744 -0.558007
v 0.026721 -0.020982 -1.247578
v 0.457741 -0.222137 -1.046341
v 0.572698 -0.150292 -0.558007
v 0.500763 0.151365 -1.118190
v 0.026721 -0.250895 -1.017572
v 0.328408 0.122657 -1.189965
v 0.199182 0.108278 -1.218734
f 36 61 62
f 2 3 6
f 6 3 7
f 4 5 8
f 8 5 11
f 5 4 12
f 8 11 14
f 4 8 16
f 2 6 17
f 5 12 20
f 14 11 22
f 6 7 23
f 16 8 25
f 7 3 26
f 16 25 27
f 11 5 30
f 23 7 31
f 10 23 31
f 7 8 32
f 22 11 33
f 17 5 34
f 5 20 34
f 20 9 34
f 2 17 37
f 17 34 37
f 34 9 37
f 22 1 38
f 3 2 39
f 21 12 39
f 2 21 39
f 28 15 40
f 12 4 41
f 4 39 41
f 39 12 41
f 4 16 42
f 27 3 42
f 16 27 42
f 3 39 42
f 39 4 42
f 25 8 43
f 13 25 43
f 26 43 44
f 8 7 44
f 7 26 44
f 43 8 44
f 5 17 45
f 21 2 46
f 2 37 46
f 37 9 46
f 17 6 47
f 29 18 47
f 45 17 47
f 18 45 47
f 14 22 48
f 24 19 48
f 32 14 48
f 19 32 48
f 22 38 48
f 38 24 48
f 28 1 49
f 33 11 49
f 23 10 50
f 10 31 50
f 40 23 50
f 40 50 51
f 1 28 51
f 38 1 51
f 24 38 51
f 28 40 51
f 50 24 51
f 18 29 52
f 30 5 52
f 11 30 52
f 29 36 52
f 36 11 52
f 5 45 52
f 45 18 52
f 6 23 53
f 35 6 53
f 15 35 53
f 23 40 53
f 40 15 53
f 7 32 54
f 32 19 54
f 9 20 55
f 20 12 55
f 12 21 55
f 46 9 55
f 21 46 55
f 1 22 56
f 22 33 56
f 49 1 56
f 33 49 56
f 19 24 57
f 31 7 57
f 24 50 57
f 50 31 57
f 7 54 57
f 54 19 57
f 25 13 58
f 26 3 58
f 3 27 58
f 27 25 58
f 13 43 58
f 43 26 58
f 6 35 59
f 35 15 59
f 47 6 59
f 29 47 59
f 8 14 60
f 32 8 60
f 14 32 60
f 15 28 61
f 36 29 61
f 59 15 61
f 29 59 61
f 11 36 62
f 28 49 62
f 49 11 62
f 61 28 62
