o torus_fine_2
v -0.458818 0.006289 -1.145244
v -0.446000 0.131289 -1.114300
v -0.410982 0.222796 -1.029759
v -0.363147 0.256289 -0.914274
v -0.315311 0.222796 -0.798789
v -0.280293 0.131289 -0.714248
v -0.267476 0.006289 -0.683304
v -0.280293 -0.118711 -0.714248
v -0.315311 -0.210217 -0.798789
v -0.363147 -0.243711 -0.914274
v -0.410982 -0.210217 -1.029759
v -0.446000 -0.118711 -1.114300
v -0.605463 0.006289 -1.072926
v -0.588716 0.131289 -1.043920
v -0.542963 0.222796 -0.964673
v -0.480463 0.256289 -0.856420
v -0.480463 -0.243711 -0.856420
v -0.542963 -0.210217 -0.964673
v -0.588716 -0.118711 -1.043920
v -0.741415 0.006289 -0.982086
v -0.721025 0.131289 -0.955514
v -0.665320 0.222796 -0.882917
v -0.589225 0.256289 -0.783748
v -0.589225 -0.243711 -0.783748
v -0.665320 -0.210217 -0.882917
v -0.721025 -0.118711 -0.955514
v -0.864347 0.006289 -0.874277
v -0.840663 0.131289 -0.850594
v -0.775958 0.222796 -0.785889
v -0.687570 0.256289 -0.697501
v -0.687570 -0.243711 -0.697501
v -0.775958 -0.210217 -0.785889
v -0.840663 -0.118711 -0.850594
v -0.972155 0.006289 -0.751346
v -0.945583 0.131289 -0.730956
v -0.872986 0.222796 -0.675251
v -0.773816 0.256289 -0.599156
v -0.773816 -0.243711 -0.599156
v -0.872986 -0.210217 -0.675251
v -0.945583 -0.118711 -0.730956
v -1.062995 0.006289 -0.615395
v -1.033988 0.131289 -0.598648
v -0.954742 0.222796 -0.552895
v -0.846488 0.256289 -0.490395
v -0.846488 -0.243711 -0.490395
v -0.954742 -0.210217 -0.552895
v -1.033988 -0.118711 -0.598648
v -1.135312 0.006289 -0.468749
v -1.104368 0.131289 -0.455931
v -1.019827 0.222796 -0.420913
v -0.904343 0.256289 -0.373078
v -0.788858 0.222796 -0.325242
v -0.704317 0.131289 -0.290224
v -0.673373 0.006289 -0.277407
v -0.704317 -0.118711 -0.290224
v -0.788858 -0.210217 -0.325242
v -0.904343 -0.243711 -0.373078
v -1.019827 -0.210217 -0.420913
v -1.104368 -0.118711 -0.455931
f 14 1 13
f 58 57 46
f 58 57 56
f 59 58 46
f 59 49 48
f 59 58 56
f 33 32 25
f 2 14 1
f 6 8 7
f 50 51 52
f 50 49 52
f 41 59 48
f 41 49 48
f 41 42 49
f 11 9 10
f 19 1 13
f 19 18 25
f 31 32 25
f 20 19 13
f 20 14 13
f 20 21 14
f 47 59 46
f 47 41 59
f 40 47 46
f 40 33 34
f 40 41 34
f 40 47 41
f 3 5 4
f 3 2 5
f 53 54 55
f 35 41 34
f 35 41 42
f 12 11 18
f 12 19 18
f 12 19 1
f 12 2 1
f 12 11 9
f 26 33 25
f 26 19 25
f 26 20 33
f 26 20 19
f 24 31 25
f 24 18 25
f 45 57 46
f 39 31 32
f 39 40 46
f 39 33 32
f 39 40 33
f 27 33 34
f 27 20 33
f 22 30 29
f 22 21 14
f 36 30 29
f 43 44 51
f 43 50 51
f 43 42 49
f 43 50 49
f 43 35 42
f 43 36 35
f 17 24 18
f 17 11 10
f 17 11 18
f 38 39 31
f 38 45 46
f 38 39 46
f 28 35 34
f 28 27 34
f 28 20 21
f 28 27 20
f 28 22 29
f 28 22 21
f 28 36 29
f 28 36 35
f 23 22 30
f 37 36 30
f 37 43 44
f 37 43 36
f 15 23 22
f 15 22 14
f 15 2 14
f 15 3 2
f 16 15 23
f 16 3 4
f 16 15 3
f 9 57 56
f 9 57 10
f 9 55 56
f 9 55 8
f 51 5 52
f 51 5 4
f 59 49 52
f 59 52 56
f 54 55 8
f 54 8 7
f 6 9 8
f 6 5 9
f 53 5 52
f 53 6 5
f 53 54 7
f 53 6 7
f 53 55 56
f 53 52 56
f 12 5 9
f 12 2 5
f 38 57 10
f 38 45 57
f 38 24 31
f 38 17 10
f 38 17 24
f 16 51 4
f 16 44 51
f 16 37 30
f 16 23 30
f 16 37 44
