o torus_fine_1
v -0.864347 0.006289 -0.874277
v -0.840663 0.131289 -0.850594
v -0.775958 0.222796 -0.785889
v -0.687570 0.256289 -0.697501
v -0.599182 0.222796 -0.609113
v -0.534477 0.131289 -0.544408
v -0.510793 0.006289 -0.520724
v -0.534477 -0.118711 -0.544408
v -0.599182 -0.210217 -0.609113
v -0.687570 -0.243711 -0.697501
v -0.775958 -0.210217 -0.785889
v -0.840663 -0.118711 -0.850594
v -0.972155 0.006289 -0.751346
v -0.945583 0.131289 -0.730956
v -0.872986 0.222796 -0.675251
v -0.773816 0.256289 -0.599156
v -0.773816 -0.243711 -0.599156
v -0.872986 -0.210217 -0.675251
v -0.945583 -0.118711 -0.730956
v -1.062995 0.006289 -0.615395
v -1.033988 0.131289 -0.598648
v -0.954742 0.222796 -0.552895
v -0.846488 0.256289 -0.490395
v -0.846488 -0.243711 -0.490395
v -0.954742 -0.210217 -0.552895
v -1.033988 -0.118711 -0.598648
v -1.135312 0.006289 -0.468749
v -1.104368 0.131289 -0.455931
v -1.019827 0.222796 -0.420913
v -0.904343 0.256289 -0.373078
v -0.904343 -0.243711 -0.373078
v -1.019827 -0.210217 -0.420913
v -1.104368 -0.118711 -0.455931
v -1.187871 0.006289 -0.313918
v -1.155518 0.131289 -0.305249
v -1.067130 0.222796 -0.281566
v -0.946389 0.256289 -0.249213
v -0.946389 -0.243711 -0.249213
v -1.067130 -0.210217 -0.281566
v -1.155518 -0.118711 -0.305249
v -1.219769 0.006289 -0.153552
v -1.186562 0.131289 -0.149180
v -1.095839 0.222796 -0.137236
v -0.971908 0.256289 -0.120921
v -0.847977 0.222796 -0.104605
v -0.757254 0.131289 -0.092661
v -0.724047 0.006289 -0.088289
v -0.757254 -0.118711 -0.092661
v -0.847977 -0.210217 -0.104605
v -0.971908 -0.243711 -0.120921
v -1.095839 -0.210217 -0.137236
v -1.186562 -0.118711 -0.149180
f 50 49 10
f 50 51 49
f 48 8 7
f 48 8 49
f 48 51 49
f 9 49 10
f 9 8 49
f 5 45 4
f 12 2 1
f 47 48 7
f 47 48 51
f 47 43 51
f 6 5 45
f 44 45 4
f 44 43 45
f 3 15 4
f 3 15 2
f 14 15 2
f 14 20 21
f 52 34 41
f 52 40 34
f 52 40 51
f 33 20 26
f 33 40 34
f 46 43 45
f 46 47 43
f 46 6 45
f 46 6 7
f 46 47 7
f 28 20 21
f 28 35 34
f 42 35 43
f 42 52 41
f 42 34 41
f 42 35 34
f 19 20 26
f 13 14 20
f 13 19 20
f 13 2 1
f 13 14 2
f 13 12 1
f 13 19 12
f 36 37 44
f 36 44 43
f 36 35 43
f 36 28 35
f 36 29 28
f 27 28 34
f 27 28 20
f 27 33 34
f 27 33 20
f 18 11 12
f 18 19 12
f 18 11 10
f 39 33 40
f 39 32 33
f 39 40 51
f 39 38 50
f 39 50 51
f 39 38 31
f 39 32 31
f 16 15 4
f 30 36 37
f 30 36 29
f 22 16 23
f 22 16 15
f 22 30 23
f 22 30 29
f 22 14 21
f 22 14 15
f 22 28 21
f 22 29 28
f 25 19 26
f 25 18 19
f 25 33 26
f 25 32 33
f 25 24 31
f 25 32 31
f 17 18 10
f 17 25 24
f 17 25 18
f 3 8 7
f 3 9 10
f 3 6 7
f 3 11 10
f 3 9 8
f 3 5 4
f 3 12 2
f 3 6 5
f 3 11 12
f 42 52 51
f 42 43 51
f 30 37 44
f 30 44 4
f 30 16 4
f 30 16 23
f 17 38 50
f 17 50 10
f 17 38 31
f 17 24 31
