o torus_capsule32_5
v -0.042658 -0.048112 -0.011142
v -0.040017 -0.045946 -0.006030
v -0.039090 -0.045185 -0.000000
v -0.040017 -0.045946 0.006030
v -0.042658 -0.048112 0.011142
v -0.052057 -0.062581 0.012802
v -0.055532 -0.065433 0.009798
v -0.057854 -0.067338 0.005303
v -0.058669 -0.068007 0.000000
v -0.057854 -0.067338 -0.005303
v -0.055532 -0.065433 -0.009798
v -0.052057 -0.062581 -0.012802
v -0.039520 -0.064123 -0.015757
v -0.039520 -0.064123 0.015757
v -0.043345 -0.068784 0.014557
v -0.046588 -0.072736 0.011142
v -0.048755 -0.075376 0.006030
v -0.049516 -0.076303 0.000000
v -0.048755 -0.075376 -0.006030
v -0.046588 -0.072736 -0.011142
v -0.043345 -0.068784 -0.014557
v -0.048723 -0.058589 -0.013856
v -0.044118 -0.061051 -0.015757
v -0.026251 -0.070601 -0.015757
v -0.021646 -0.073062 -0.013856
v -0.046224 -0.053913 -0.012802
v -0.041276 -0.055733 -0.014557
v -0.023408 -0.065283 -0.014557
v -0.019146 -0.068386 -0.012802
v -0.046224 -0.053913 0.012802
v -0.041276 -0.055733 0.014557
v -0.023408 -0.065283 0.014557
v -0.019146 -0.068386 0.012802
v -0.048723 -0.058589 0.013856
v -0.044118 -0.061051 0.015757
v -0.026251 -0.070601 0.015757
v -0.021646 -0.073062 0.013856
v -0.046961 -0.066368 0.014557
v -0.029093 -0.075919 0.014557
v -0.055905 -0.062996 0.007272
v -0.049370 -0.070877 0.011142
v -0.031503 -0.080427 0.011142
v -0.021320 -0.081482 0.007272
v -0.050980 -0.073889 0.006030
v -0.033113 -0.083439 0.006030
v -0.051546 -0.074947 0.000000
v -0.033679 -0.084497 0.000000
v -0.050980 -0.073889 -0.006030
v -0.033113 -0.083439 -0.006030
v -0.055905 -0.062996 -0.007272
v -0.049370 -0.070877 -0.011142
v -0.031503 -0.080427 -0.011142
v -0.021320 -0.081482 -0.007272
v -0.046961 -0.066368 -0.014557
v -0.029093 -0.075919 -0.014557
v -0.031360 -0.068484 -0.015757
v -0.031360 -0.068484 0.015757
v -0.033110 -0.074255 0.014557
v -0.034594 -0.079147 0.011142
v -0.035586 -0.082415 0.006030
v -0.035934 -0.083563 0.000000
v -0.035586 -0.082415 -0.006030
v -0.034594 -0.079147 -0.011142
v -0.033110 -0.074255 -0.014557
v -0.016305 -0.062198 -0.011142
v -0.015970 -0.058799 -0.006030
v -0.015852 -0.057606 -0.000000
v -0.015970 -0.058799 0.006030
v -0.016305 -0.062198 0.011142
v -0.023113 -0.078052 0.012802
v -0.023554 -0.082526 0.009798
v -0.023848 -0.085515 0.005303
v -0.023951 -0.086564 0.000000
v -0.023848 -0.085515 -0.005303
v -0.023554 -0.082526 -0.009798
v -0.023113 -0.078052 -0.012802
f 23 12 22
f 50 12 22
f 66 3 67
f 28 65 1
f 26 50 22
f 26 50 1
f 54 23 12
f 54 23 13
f 11 54 12
f 11 50 12
f 72 45 73
f 29 53 25
f 29 53 65
f 29 28 25
f 29 28 65
f 2 65 1
f 2 66 65
f 2 1 3
f 2 66 3
f 24 28 25
f 27 28 1
f 27 26 1
f 27 23 22
f 27 26 22
f 19 62 20
f 19 62 18
f 19 46 18
f 63 62 20
f 61 62 18
f 21 54 20
f 21 63 20
f 21 63 64
f 21 54 13
f 43 53 73
f 43 72 73
f 36 32 37
f 71 43 72
f 76 53 25
f 76 75 53
f 76 24 25
f 74 53 73
f 74 75 53
f 74 75 52
f 56 21 13
f 56 21 64
f 48 19 46
f 48 46 9
f 47 45 73
f 47 61 62
f 40 50 9
f 40 8 9
f 40 8 7
f 40 6 7
f 57 36 39
f 60 59 45
f 60 61 18
f 60 47 45
f 60 47 61
f 44 46 9
f 44 8 9
f 70 71 39
f 70 36 37
f 70 36 39
f 70 43 37
f 70 71 43
f 42 59 39
f 42 71 39
f 42 59 45
f 42 72 45
f 42 71 72
f 55 75 52
f 55 76 75
f 55 63 52
f 55 63 64
f 55 76 24
f 55 56 24
f 55 56 64
f 10 48 9
f 10 50 9
f 10 11 50
f 51 54 20
f 51 11 54
f 51 19 20
f 51 48 19
f 51 10 11
f 51 10 48
f 49 47 62
f 49 74 52
f 49 74 73
f 49 47 73
f 49 63 52
f 49 63 62
f 34 6 35
f 34 31 35
f 34 31 30
f 34 40 30
f 34 40 6
f 38 6 35
f 38 35 14
f 38 6 7
f 5 1 3
f 5 4 3
f 5 40 30
f 5 31 30
f 5 69 4
f 5 31 32
f 5 69 32
f 68 66 67
f 68 69 4
f 68 3 67
f 68 4 3
f 33 69 43
f 33 43 37
f 33 32 37
f 33 69 32
f 17 60 18
f 17 46 18
f 17 44 46
f 16 60 59
f 16 17 60
f 15 57 14
f 15 38 14
f 15 16 38
f 15 16 59
f 41 38 7
f 41 16 38
f 41 8 7
f 41 44 8
f 41 17 44
f 41 16 17
f 58 57 39
f 58 15 57
f 58 59 39
f 58 15 59
f 27 24 28
f 27 24 23
f 56 24 23
f 56 23 13
f 69 43 53
f 69 53 65
f 57 36 35
f 57 35 14
f 31 36 35
f 31 36 32
f 5 40 50
f 5 50 1
f 68 69 65
f 68 66 65
