o torus_vhacd32_30
v -1.219769 0.006289 0.172764
v -1.186562 0.131289 0.168392
v -1.095839 0.222796 0.156448
v -0.971908 0.256289 0.140132
v -0.847977 0.222796 0.123816
v -0.757254 0.131289 0.111872
v -0.724047 0.006289 0.107500
v -0.757254 -0.118711 0.111872
v -0.847977 -0.210217 0.123816
v -0.971908 -0.243711 0.140132
v -1.095839 -0.210217 0.156448
v -1.186562 -0.118711 0.168392
v -1.187871 0.006289 0.333129
v -1.155518 0.131289 0.324461
v -1.067130 0.222796 0.300777
v -0.946389 0.256289 0.268425
v -0.946389 -0.243711 0.268425
v -1.067130 -0.210217 0.300777
v -1.155518 -0.118711 0.324461
v -1.135313 0.006289 0.487960
v -1.104369 0.131289 0.475142
v -1.019828 0.222796 0.440124
v -0.904343 0.256289 0.392289
v -0.904343 -0.243711 0.392289
v -1.019828 -0.210217 0.440124
v -1.104369 -0.118711 0.475142
v -1.062995 0.006289 0.634606
v -1.033989 0.131289 0.617859
v -0.954742 0.222796 0.572106
v -0.846489 0.256289 0.509606
v -0.738235 0.222796 0.447106
v -0.658989 0.131289 0.401352
v -0.629982 0.006289 0.384606
v -0.658989 -0.118711 0.401352
v -0.738235 -0.210217 0.447106
v -0.846489 -0.243711 0.509606
v -0.954742 -0.210217 0.572106
v -1.033989 -0.118711 0.617859
f 31 29 30
f 31 29 27
f 13 2 1
f 28 29 27
f 28 29 21
f 6 31 5
f 7 6 5
f 7 8 33
f 7 6 33
f 19 13 26
f 20 13 26
f 20 13 21
f 20 28 27
f 20 28 21
f 14 13 21
f 14 13 2
f 14 15 21
f 34 8 33
f 35 31 33
f 35 31 27
f 35 34 33
f 35 36 10
f 35 34 8
f 38 20 27
f 38 20 26
f 17 11 10
f 22 29 21
f 22 15 21
f 22 29 30
f 4 31 30
f 4 31 5
f 4 7 5
f 4 7 2
f 32 31 33
f 32 6 33
f 32 6 31
f 9 7 10
f 9 7 8
f 9 35 10
f 9 35 8
f 12 7 2
f 12 2 1
f 12 11 10
f 12 7 10
f 12 19 11
f 12 13 1
f 12 19 13
f 37 35 27
f 37 35 36
f 37 38 27
f 37 38 26
f 23 22 30
f 23 22 15
f 3 4 2
f 3 14 2
f 3 14 15
f 25 37 36
f 25 37 26
f 16 23 15
f 16 3 15
f 16 3 4
f 24 25 36
f 18 17 11
f 18 19 11
f 18 24 17
f 18 24 25
f 18 19 26
f 18 25 26
f 16 23 30
f 16 4 30
f 24 17 10
f 24 36 10
