o torus_vhacd32_13
v 1.226944 0.006289 -0.313918
v 1.194592 0.131289 -0.305249
v 1.106204 0.222796 -0.281566
v 0.985463 0.256289 -0.249213
v 0.864722 0.222796 -0.216861
v 0.776334 0.131289 -0.193177
v 0.743981 0.006289 -0.184509
v 0.776334 -0.118711 -0.193177
v 0.864722 -0.210217 -0.216861
v 0.985463 -0.243711 -0.249213
v 1.106204 -0.210217 -0.281566
v 1.194592 -0.118711 -0.305249
v 1.174387 0.006289 -0.468749
v 1.143442 0.131289 -0.455931
v 1.058902 0.222796 -0.420913
v 0.943417 0.256289 -0.373078
v 0.943417 -0.243711 -0.373078
v 1.058902 -0.210217 -0.420913
v 1.143442 -0.118711 -0.455931
v 1.102069 0.006289 -0.615394
v 1.073062 0.131289 -0.598648
v 0.993815 0.222796 -0.552894
v 0.885562 0.256289 -0.490394
v 0.885562 -0.243711 -0.490394
v 0.993815 -0.210217 -0.552894
v 1.073062 -0.118711 -0.598648
v 1.011229 0.006289 -0.751346
v 0.984656 0.131289 -0.730956
v 0.912059 0.222796 -0.675251
v 0.812890 0.256289 -0.599156
v 0.812890 -0.243711 -0.599156
v 0.912059 -0.210217 -0.675251
v 0.984656 -0.118711 -0.730956
v 0.638255 0.222796 -0.609113
v 0.573551 0.131289 -0.544408
v 0.549867 0.006289 -0.520724
v 0.573551 -0.118711 -0.544408
v 0.638255 -0.210217 -0.609113
f 13 12 1
f 13 12 19
f 6 4 5
f 6 7 36
f 2 12 1
f 2 13 1
f 33 38 27
f 33 32 38
f 31 38 10
f 31 32 38
f 18 12 19
f 37 38 36
f 9 38 10
f 34 4 5
f 34 30 4
f 34 6 5
f 34 38 36
f 34 38 27
f 28 34 27
f 25 31 32
f 11 12 10
f 11 18 12
f 17 11 10
f 17 11 18
f 17 25 18
f 8 9 10
f 8 6 7
f 8 7 36
f 8 37 36
f 8 37 38
f 8 9 38
f 35 6 36
f 35 34 36
f 35 34 6
f 3 2 4
f 3 15 2
f 16 3 4
f 16 3 15
f 21 20 13
f 21 20 27
f 21 28 27
f 29 34 30
f 29 28 34
f 29 21 28
f 26 33 32
f 26 25 32
f 26 18 19
f 26 25 18
f 26 13 19
f 26 20 13
f 26 20 27
f 26 33 27
f 24 25 31
f 24 17 25
f 14 15 2
f 14 21 15
f 14 2 13
f 14 21 13
f 22 29 30
f 22 16 15
f 22 21 15
f 22 29 21
f 23 22 30
f 23 22 16
f 8 2 4
f 8 12 10
f 8 6 4
f 8 2 12
f 24 17 10
f 24 31 10
f 23 16 4
f 23 30 4
