v 0.026721 -0.078447 1.252377
v 0.615801 -0.006603 1.123055
v 0.615744 0.122657 1.094309
v 0.601386 -0.035361 0.462192
v 0.026721 0.266346 0.979400
v 0.026721 -0.236516 0.921906
v 0.615801 -0.250895 0.864491
v 0.615744 0.237588 0.649086
v 0.026721 0.093899 0.763995
v 0.170416 0.237588 1.137468
v 0.271037 -0.222137 1.123055
v 0.615801 -0.222137 0.634674
v 0.615744 0.266346 0.850157
v 0.026721 -0.121585 0.778329
v 0.026721 0.136986 1.238043
v 0.601386 0.136986 0.505352
v 0.314169 -0.006603 1.238043
v 0.601386 -0.135913 1.094309
v 0.026721 0.237588 0.878746
v 0.026721 -0.250895 1.036894
v 0.500765 0.151365 1.137468
v 0.601386 -0.150292 0.534178
v 0.342712 -0.135913 1.194805
v 0.615744 0.237588 0.979400
v 0.026721 -0.222137 1.137468
v 0.227905 0.136986 1.223551
v 0.026721 -0.020982 0.749582
v 0.615744 0.036484 0.462271
v 0.615801 -0.222137 0.979400
v 0.026721 -0.222137 0.878746
v 0.586970 -0.250895 0.778329
v 0.141700 -0.006603 1.266790
v 0.026721 0.266346 1.036894
v 0.199190 -0.135913 1.223551
v 0.500765 0.022054 1.180471
v 0.026721 0.136986 0.778329
v 0.314169 0.237588 1.108643
v 0.601386 0.036484 0.462271
v 0.601386 0.266346 0.778329
v 0.601386 -0.107205 0.490939
v 0.457748 -0.222137 1.065562
v 0.314169 -0.250895 1.008147
v 0.371485 0.266346 0.979400
v 0.026721 0.237588 1.137468
v 0.586970 0.237588 0.649008
v 0.500765 -0.064068 1.166136
v 0.357127 0.136986 1.194805
v 0.601386 0.165744 0.534099
v 0.026721 0.036433 1.266790
v 0.026721 -0.250895 0.979400
v 0.026721 -0.121585 1.238043
v 0.026721 0.036433 0.749582
v 0.601386 -0.222137 0.634674
v 0.314169 0.022054 1.238043
v 0.443333 0.237588 1.065562
v 0.199190 -0.222137 1.137468
v 0.184774 0.151365 1.223551
v 0.170416 0.065191 1.252377
v 0.615801 -0.107205 0.490939
v 0.472106 -0.135913 1.151724
v 0.357127 -0.035361 1.223551
v 0.615744 0.180072 1.051228
v 0.601386 0.079570 0.476684
f 38 36 63
f 1 5 6
f 6 5 9
f 2 7 12
f 2 8 13
f 6 9 14
f 5 1 15
f 9 5 19
f 1 6 20
f 2 13 24
f 1 20 25
f 4 14 27
f 14 9 27
f 16 8 28
f 7 2 29
f 2 18 29
f 6 14 30
f 12 7 31
f 7 20 31
f 13 5 33
f 5 15 33
f 32 1 34
f 2 3 35
f 3 21 35
f 9 19 36
f 19 16 36
f 28 4 38
f 9 36 38
f 13 8 39
f 5 13 39
f 14 4 40
f 30 14 40
f 22 30 40
f 23 11 41
f 7 29 41
f 29 18 41
f 20 7 42
f 7 41 42
f 41 11 42
f 24 13 43
f 13 33 43
f 33 10 43
f 10 37 43
f 15 10 44
f 10 33 44
f 33 15 44
f 19 5 45
f 5 39 45
f 39 8 45
f 18 2 46
f 2 35 46
f 35 21 47
f 21 37 47
f 8 16 48
f 16 19 48
f 45 8 48
f 19 45 48
f 15 1 49
f 1 32 49
f 20 6 50
f 31 20 50
f 1 25 51
f 34 1 51
f 4 27 52
f 27 9 52
f 38 4 52
f 9 38 52
f 22 12 53
f 6 30 53
f 30 22 53
f 12 31 53
f 50 6 53
f 31 50 53
f 32 17 54
f 17 35 54
f 47 26 54
f 35 47 54
f 37 21 55
f 24 43 55
f 43 37 55
f 11 23 56
f 25 20 56
f 23 34 56
f 20 42 56
f 42 11 56
f 51 25 56
f 34 51 56
f 10 15 57
f 37 10 57
f 26 47 57
f 47 37 57
f 15 49 58
f 49 32 58
f 32 54 58
f 54 26 58
f 57 15 58
f 26 57 58
f 8 2 59
f 2 12 59
f 12 22 59
f 28 8 59
f 4 28 59
f 40 4 59
f 22 40 59
f 23 41 60
f 41 18 60
f 18 46 60
f 60 46 61
f 17 32 61
f 34 23 61
f 32 34 61
f 35 17 61
f 46 35 61
f 23 60 61
f 3 2 62
f 21 3 62
f 2 24 62
f 55 21 62
f 24 55 62
f 16 28 63
f 36 16 63
f 28 38 63
