o torus_vhacd32_11
v 1.011229 0.006289 -0.751346
v 0.984656 0.131289 -0.730956
v 0.912059 0.222796 -0.675251
v 0.812890 0.256289 -0.599156
v 0.713721 0.222796 -0.523061
v 0.641124 0.131289 -0.467355
v 0.614552 0.006289 -0.446965
v 0.641124 -0.118711 -0.467355
v 0.713721 -0.210217 -0.523061
v 0.812890 -0.243711 -0.599156
v 0.912059 -0.210217 -0.675251
v 0.984656 -0.118711 -0.730956
v 0.903420 0.006289 -0.874278
v 0.879737 0.131289 -0.850594
v 0.815032 0.222796 -0.785889
v 0.726644 0.256289 -0.697501
v 0.726644 -0.243711 -0.697501
v 0.815032 -0.210217 -0.785889
v 0.879737 -0.118711 -0.850594
v 0.780489 0.006289 -0.982086
v 0.760099 0.131289 -0.955514
v 0.704394 0.222796 -0.882917
v 0.628298 0.256289 -0.783747
v 0.628298 -0.243711 -0.783747
v 0.704394 -0.210217 -0.882917
v 0.760099 -0.118711 -0.955514
v 0.644537 0.006289 -1.072926
v 0.627790 0.131289 -1.043920
v 0.582037 0.222796 -0.964673
v 0.519537 0.256289 -0.856420
v 0.519537 -0.243711 -0.856420
v 0.582037 -0.210217 -0.964673
v 0.627790 -0.118711 -1.043920
v 0.354385 0.222796 -0.798789
v 0.319367 0.131289 -0.714248
v 0.306550 0.006289 -0.683304
v 0.319367 -0.118711 -0.714248
v 0.354385 -0.210217 -0.798789
f 35 7 36
f 35 7 6
f 12 19 1
f 12 7 1
f 12 7 10
f 37 35 36
f 37 7 36
f 8 7 10
f 8 37 7
f 8 37 38
f 13 19 1
f 13 20 19
f 33 20 27
f 33 38 27
f 33 32 38
f 31 38 10
f 31 32 38
f 11 12 19
f 11 12 10
f 9 8 10
f 9 38 10
f 9 8 38
f 4 7 6
f 34 38 27
f 34 35 6
f 28 29 22
f 28 21 22
f 28 34 27
f 28 34 29
f 28 20 27
f 28 21 20
f 14 21 22
f 14 13 1
f 14 13 20
f 14 21 20
f 26 20 19
f 26 33 20
f 17 11 10
f 5 4 6
f 5 34 6
f 5 34 4
f 15 14 22
f 15 14 3
f 2 14 1
f 2 14 3
f 2 4 3
f 2 7 1
f 2 4 7
f 25 33 32
f 25 26 33
f 25 26 19
f 25 31 32
f 30 34 4
f 30 34 29
f 30 29 22
f 30 23 22
f 16 4 3
f 16 15 3
f 16 23 22
f 16 15 22
f 18 17 11
f 18 25 17
f 18 11 19
f 18 25 19
f 24 25 31
f 24 25 17
f 34 37 35
f 34 37 38
f 16 30 23
f 16 30 4
f 24 17 10
f 24 31 10
