o torus_fine_0
v -1.062995 0.006289 -0.615395
v -1.033988 0.131289 -0.598648
v -0.954742 0.222796 -0.552895
v -0.846488 0.256289 -0.490395
v -0.738235 0.222796 -0.427895
v -0.658988 0.131289 -0.382141
v -0.629982 0.006289 -0.365395
v -0.658988 -0.118711 -0.382141
v -0.738235 -0.210217 -0.427895
v -0.846488 -0.243711 -0.490395
v -0.954742 -0.210217 -0.552895
v -1.033988 -0.118711 -0.598648
v -1.135312 0.006289 -0.468749
v -1.104368 0.131289 -0.455931
v -1.019827 0.222796 -0.420913
v -0.904343 0.256289 -0.373078
v -0.904343 -0.243711 -0.373078
v -1.019827 -0.210217 -0.420913
v -1.104368 -0.118711 -0.455931
v -1.187871 0.006289 -0.313918
v -1.155518 0.131289 -0.305249
v -1.067130 0.222796 -0.281566
v -0.946389 0.256289 -0.249213
v -0.946389 -0.243711 -0.249213
v -1.067130 -0.210217 -0.281566
v -1.155518 -0.118711 -0.305249
v -1.219769 0.006289 -0.153552
v -1.186562 0.131289 -0.149180
v -1.095839 0.222796 -0.137236
v -0.971908 0.256289 -0.120921
v -0.971908 -0.243711 -0.120921
v -1.095839 -0.210217 -0.137236
v -1.186562 -0.118711 -0.149180
v -1.230463 0.006289 0.009606
v -1.196970 0.131289 0.009606
v -1.105463 0.222796 0.009606
v -0.980463 0.256289 0.009606
v -0.980463 -0.243711 0.009606
v -1.105463 -0.210217 0.009606
v -1.196970 -0.118711 0.009606
v -1.219769 0.006289 0.172764
v -1.186562 0.131289 0.168392
v -1.095839 0.222796 0.156448
v -0.971908 0.256289 0.140132
v -0.847977 0.222796 0.123816
v -0.757254 0.131289 0.111872
v -0.724047 0.006289 0.107500
v -0.757254 -0.118711 0.111872
v -0.847977 -0.210217 0.123816
v -0.971908 -0.243711 0.140132
v -1.095839 -0.210217 0.156448
v -1.186562 -0.118711 0.168392
f 48 8 49
f 9 49 10
f 9 8 49
f 9 8 7
f 12 11 10
f 47 8 7
f 47 48 8
f 2 3 4
f 2 12 1
f 35 27 34
f 19 12 11
f 19 20 26
f 19 13 20
f 19 12 1
f 19 13 1
f 25 19 26
f 40 27 34
f 6 5 7
f 6 47 7
f 41 35 34
f 41 40 34
f 14 2 3
f 14 22 21
f 14 20 21
f 14 13 20
f 14 2 1
f 14 13 1
f 29 37 36
f 29 35 36
f 29 22 21
f 28 35 27
f 28 20 21
f 28 27 20
f 28 29 21
f 28 29 35
f 18 19 11
f 18 25 19
f 33 40 27
f 33 20 26
f 33 27 20
f 32 31 25
f 32 33 40
f 32 25 26
f 32 33 26
f 45 6 5
f 45 5 4
f 45 44 4
f 52 40 51
f 52 41 51
f 52 41 40
f 15 14 3
f 15 14 22
f 43 44 37
f 43 37 36
f 43 44 41
f 43 35 36
f 30 29 37
f 30 29 22
f 30 23 22
f 17 18 25
f 17 11 10
f 17 18 11
f 50 41 51
f 50 49 10
f 50 48 49
f 50 41 48
f 39 40 51
f 39 32 40
f 46 6 47
f 46 45 6
f 46 47 48
f 46 41 48
f 46 44 41
f 46 45 44
f 16 3 4
f 16 15 3
f 16 23 22
f 16 15 22
f 42 41 35
f 42 43 35
f 42 43 41
f 24 31 25
f 24 17 25
f 38 50 51
f 38 39 51
f 38 32 31
f 38 39 32
f 5 4 10
f 5 9 7
f 5 9 10
f 2 4 10
f 2 12 10
f 16 44 37
f 16 44 4
f 16 30 37
f 16 30 23
f 38 24 31
f 38 17 10
f 38 50 10
f 38 24 17
