o torus_vhacd64_18
v 0.343061 0.006289 -1.197802
v 0.334392 0.131289 -1.165449
v 0.310708 0.222796 -1.077061
v 0.278356 0.256289 -0.956320
v 0.246004 0.222796 -0.835579
v 0.222320 0.131289 -0.747191
v 0.213651 0.006289 -0.714839
v 0.222320 -0.118711 -0.747191
v 0.246004 -0.210217 -0.835579
v 0.278356 -0.243711 -0.956320
v 0.310708 -0.210217 -1.077061
v 0.334392 -0.118711 -1.165449
v 0.182694 0.006289 -1.229700
v 0.178323 0.131289 -1.196493
v 0.166379 0.222796 -1.105770
v 0.150063 0.256289 -0.981839
v 0.133747 0.222796 -0.857909
v 0.121803 0.131289 -0.767185
v 0.117431 0.006289 -0.733978
v 0.121803 -0.118711 -0.767185
v 0.133747 -0.210217 -0.857909
v 0.150063 -0.243711 -0.981839
v 0.166379 -0.210217 -1.105770
v 0.178323 -0.118711 -1.196493
f 15 16 13
f 9 5 1
f 9 22 10
f 17 5 16
f 17 13 19
f 17 16 13
f 21 13 19
f 21 22 13
f 21 9 22
f 23 22 13
f 23 22 10
f 14 13 1
f 14 15 13
f 20 8 19
f 20 21 19
f 20 9 8
f 20 21 9
f 24 13 1
f 24 23 13
f 11 23 10
f 4 15 16
f 4 3 15
f 4 5 16
f 2 14 15
f 2 3 15
f 2 14 1
f 2 4 3
f 2 5 1
f 2 4 5
f 7 6 8
f 7 8 19
f 7 6 19
f 18 6 5
f 18 17 5
f 18 17 19
f 18 6 19
f 12 24 23
f 12 11 23
f 12 24 1
f 12 11 10
f 12 9 1
f 12 9 10
f 6 9 8
f 6 9 5
