o torus_capsule32_20
v 0.063266 0.051223 0.012802
v 0.067230 0.053342 0.009798
v 0.069879 0.054758 0.005303
v 0.070809 0.055255 0.000000
v 0.069879 0.054758 -0.005303
v 0.067230 0.053342 -0.009798
v 0.063266 0.051223 -0.012802
v 0.051224 0.038866 -0.011142
v 0.048212 0.037256 -0.006030
v 0.047154 0.036690 -0.000000
v 0.048212 0.037256 0.006030
v 0.051224 0.038866 0.011142
v 0.051270 0.055181 0.015757
v 0.055932 0.059006 0.014557
v 0.059883 0.062249 0.011142
v 0.062524 0.064416 0.006030
v 0.063451 0.065177 0.000000
v 0.062524 0.064416 -0.006030
v 0.059883 0.062249 -0.011142
v 0.055932 0.059006 -0.014557
v 0.051270 0.055181 -0.015757
v 0.059217 0.047958 0.013856
v 0.055181 0.051270 0.015757
v 0.039520 0.064123 0.015757
v 0.035484 0.067435 0.013856
v 0.059006 0.055932 0.014557
v 0.043345 0.068784 0.014557
v 0.067121 0.050879 0.007272
v 0.062249 0.059883 0.011142
v 0.046588 0.072736 0.011142
v 0.036807 0.075757 0.007272
v 0.064416 0.062524 0.006030
v 0.048755 0.075376 0.006030
v 0.065177 0.063451 0.000000
v 0.049516 0.076303 0.000000
v 0.064416 0.062524 -0.006030
v 0.048755 0.075376 -0.006030
v 0.067121 0.050879 -0.007272
v 0.062249 0.059883 -0.011142
v 0.046588 0.072736 -0.011142
v 0.036807 0.075757 -0.007272
v 0.059006 0.055932 -0.014557
v 0.043345 0.068784 -0.014557
v 0.059217 0.047958 -0.013856
v 0.055181 0.051270 -0.015757
v 0.039520 0.064123 -0.015757
v 0.035484 0.067435 -0.013856
v 0.055853 0.043859 -0.012802
v 0.051355 0.046609 -0.014557
v 0.035695 0.059462 -0.014557
v 0.032120 0.063336 -0.012802
v 0.055853 0.043859 0.012802
v 0.051355 0.046609 0.014557
v 0.035695 0.059462 0.014557
v 0.032120 0.063336 0.012802
v 0.044118 0.061051 0.015757
v 0.046961 0.066368 0.014557
v 0.049370 0.070877 0.011142
v 0.050980 0.073889 0.006030
v 0.051546 0.074947 0.000000
v 0.050980 0.073889 -0.006030
v 0.049370 0.070877 -0.011142
v 0.046961 0.066368 -0.014557
v 0.044118 0.061051 -0.015757
v 0.037896 0.072043 0.012802
v 0.039201 0.076345 0.009798
v 0.040073 0.079219 0.005303
v 0.040379 0.080228 0.000000
v 0.040073 0.079219 -0.005303
v 0.039201 0.076345 -0.009798
v 0.037896 0.072043 -0.012802
v 0.028126 0.057822 -0.011142
v 0.027134 0.054554 -0.006030
v 0.026786 0.053406 -0.000000
v 0.027134 0.054554 0.006030
v 0.028126 0.057822 0.011142
f 8 38 48
f 8 50 72
f 11 10 74
f 51 41 47
f 51 41 72
f 51 50 47
f 51 50 72
f 27 66 30
f 18 61 17
f 62 18 19
f 62 18 61
f 46 50 47
f 63 46 43
f 63 43 40
f 63 62 40
f 70 43 40
f 9 11 10
f 9 10 74
f 9 73 74
f 9 8 72
f 9 73 72
f 49 8 48
f 49 8 50
f 75 11 74
f 75 11 76
f 75 73 74
f 12 11 76
f 12 54 76
f 55 54 25
f 55 54 76
f 37 62 40
f 37 62 61
f 31 41 68
f 31 55 76
f 31 55 25
f 65 27 66
f 65 31 25
f 65 31 66
f 16 59 17
f 67 31 68
f 67 31 66
f 67 66 30
f 64 63 46
f 71 41 47
f 71 70 41
f 71 70 43
f 71 46 47
f 71 46 43
f 44 49 48
f 44 38 48
f 20 62 19
f 20 63 62
f 20 64 21
f 20 64 63
f 5 38 4
f 5 6 38
f 5 36 4
f 5 36 39
f 5 6 39
f 69 37 68
f 69 70 40
f 69 37 40
f 69 41 68
f 69 70 41
f 33 67 68
f 33 67 30
f 24 65 25
f 24 65 27
f 24 54 25
f 14 56 13
f 7 6 38
f 7 44 38
f 53 52 12
f 53 12 54
f 53 52 22
f 60 37 61
f 60 33 59
f 60 61 17
f 60 59 17
f 2 26 29
f 2 1 26
f 57 27 30
f 57 14 56
f 57 24 27
f 57 24 56
f 34 32 4
f 34 36 4
f 45 7 44
f 45 44 49
f 42 6 39
f 42 7 6
f 42 45 7
f 23 53 22
f 23 1 22
f 23 1 26
f 35 33 68
f 35 60 33
f 35 37 68
f 35 60 37
f 3 32 29
f 3 2 29
f 3 32 4
f 58 15 14
f 58 57 14
f 58 57 30
f 58 33 30
f 58 33 59
f 58 15 16
f 58 16 59
f 28 3 2
f 28 3 4
f 28 52 12
f 28 38 4
f 28 2 1
f 28 52 22
f 28 1 22
f 75 73 72
f 75 76 72
f 12 9 11
f 12 9 8
f 31 76 72
f 31 41 72
f 36 39 19
f 36 18 19
f 15 14 26
f 15 26 29
f 15 32 29
f 15 32 16
f 34 32 16
f 34 16 17
f 34 36 18
f 34 18 17
f 45 64 46
f 45 64 21
f 45 46 50
f 45 49 50
f 42 39 19
f 42 20 19
f 42 45 21
f 42 20 21
f 23 14 26
f 23 14 13
f 23 56 13
f 23 24 56
f 23 24 54
f 23 53 54
f 28 12 8
f 28 8 38
