o torus_fine_10
v 1.269537 0.006289 0.009606
v 1.236043 0.131289 0.009606
v 1.144537 0.222796 0.009606
v 1.019537 0.256289 0.009606
v 1.019537 -0.243711 0.009606
v 1.144537 -0.210217 0.009606
v 1.236043 -0.118711 0.009606
v 1.258843 0.006289 -0.153552
v 1.225636 0.131289 -0.149180
v 1.134912 0.222796 -0.137236
v 1.010982 0.256289 -0.120920
v 1.010982 -0.243711 -0.120920
v 1.134912 -0.210217 -0.137236
v 1.225636 -0.118711 -0.149180
v 1.226944 0.006289 -0.313918
v 1.194592 0.131289 -0.305249
v 1.106204 0.222796 -0.281566
v 0.985463 0.256289 -0.249213
v 0.864722 0.222796 -0.216861
v 0.776334 0.131289 -0.193177
v 0.743981 0.006289 -0.184509
v 0.776334 -0.118711 -0.193177
v 0.864722 -0.210217 -0.216861
v 0.985463 -0.243711 -0.249213
v 1.106204 -0.210217 -0.281566
v 1.194592 -0.118711 -0.305249
v 1.102069 0.006289 0.634606
v 1.073062 0.131289 0.617859
v 0.993815 0.222796 0.572106
v 0.885562 0.256289 0.509606
v 0.777309 0.222796 0.447106
v 0.698062 0.131289 0.401353
v 0.669056 0.006289 0.384606
v 0.698062 -0.118711 0.401353
v 0.777309 -0.210217 0.447106
v 0.885562 -0.243711 0.509606
v 0.993815 -0.210217 0.572106
v 1.073062 -0.118711 0.617859
v 1.174386 0.006289 0.487960
v 1.143442 0.131289 0.475143
v 1.058901 0.222796 0.440125
v 0.943416 0.256289 0.392290
v 0.943416 -0.243711 0.392290
v 1.058901 -0.210217 0.440125
v 1.143442 -0.118711 0.475143
v 1.226944 0.006289 0.333129
v 1.194592 0.131289 0.324460
v 1.106204 0.222796 0.300777
v 0.985463 0.256289 0.268424
v 0.985463 -0.243711 0.268424
v 1.106204 -0.210217 0.300777
v 1.194592 -0.118711 0.324460
v 1.258843 0.006289 0.172763
v 1.225636 0.131289 0.168392
v 1.134912 0.222796 0.156448
v 1.010982 0.256289 0.140132
v 1.010982 -0.243711 0.140132
v 1.134912 -0.210217 0.156448
v 1.225636 -0.118711 0.168392
f 39 46 52
f 25 14 26
f 37 34 36
f 32 31 19
f 32 20 19
f 32 34 33
f 35 34 36
f 18 17 19
f 45 39 52
f 45 37 38
f 45 38 27
f 45 39 27
f 13 25 14
f 23 35 34
f 23 35 36
f 8 14 1
f 8 14 26
f 15 25 17
f 15 25 26
f 15 16 17
f 15 8 26
f 15 8 16
f 51 45 52
f 51 57 50
f 51 57 58
f 51 43 50
f 51 59 58
f 51 59 52
f 9 16 17
f 9 8 1
f 9 8 16
f 30 31 19
f 30 18 19
f 30 32 31
f 7 14 1
f 7 59 1
f 24 23 25
f 24 23 36
f 22 23 34
f 44 45 37
f 44 51 45
f 44 51 43
f 44 43 36
f 44 37 36
f 54 3 55
f 56 3 55
f 29 30 32
f 6 59 58
f 6 7 59
f 6 13 14
f 6 7 14
f 6 57 5
f 6 57 58
f 12 6 5
f 12 6 13
f 12 13 25
f 12 24 25
f 21 34 33
f 21 22 34
f 21 32 33
f 21 32 20
f 21 20 19
f 21 22 23
f 21 25 17
f 21 17 19
f 21 23 25
f 10 9 17
f 10 3 9
f 47 39 46
f 53 54 1
f 53 59 1
f 53 47 46
f 53 47 54
f 53 46 52
f 53 59 52
f 2 9 1
f 2 54 1
f 2 3 9
f 2 54 3
f 11 10 3
f 11 18 17
f 11 10 17
f 28 38 27
f 48 54 55
f 48 47 54
f 48 56 55
f 4 56 3
f 4 11 3
f 40 47 39
f 40 39 27
f 40 28 27
f 40 48 47
f 40 28 29
f 41 48 42
f 41 42 30
f 41 29 30
f 41 40 29
f 41 40 48
f 49 48 56
f 49 48 42
f 29 32 34
f 29 37 34
f 12 57 5
f 12 43 36
f 12 57 50
f 12 43 50
f 12 24 36
f 28 29 37
f 28 37 38
f 49 11 18
f 49 30 18
f 49 42 30
f 49 4 56
f 49 4 11
