o torus_vhacd64_62
v -1.219769 0.006289 0.172764
v -1.186562 0.131289 0.168392
v -1.095839 0.222796 0.156448
v -0.971908 0.256289 0.140132
v -0.847977 0.222796 0.123816
v -0.757254 0.131289 0.111872
v -0.724047 0.006289 0.107500
v -0.757254 -0.118711 0.111872
v -0.847977 -0.210217 0.123816
v -0.971908 -0.243711 0.140132
v -1.095839 -0.210217 0.156448
v -1.186562 -0.118711 0.168392
f 4 6 1
f 8 10 1
f 8 6 1
f 8 6 7
f 5 4 7
f 5 6 7
f 5 4 6
f 2 4 7
f 9 10 7
f 9 8 7
f 9 8 10
f 12 2 1
f 12 10 7
f 12 2 7
f 3 4 1
f 3 2 1
f 3 2 4
f 11 10 1
f 11 12 1
f 11 12 10
