o torus_vhacd64_61
v -1.219769 0.006289 0.172764
v -1.186562 0.131289 0.168392
v -1.095839 0.222796 0.156448
v -0.971908 0.256289 0.140132
v -0.847977 0.222796 0.123816
v -0.757254 0.131289 0.111872
v -0.724047 0.006289 0.107500
v -0.757254 -0.118711 0.111872
v -0.847977 -0.210217 0.123816
v -0.971908 -0.243711 0.140132
v -1.095839 -0.210217 0.156448
v -1.186562 -0.118711 0.168392
v -1.187871 0.006289 0.333129
v -1.155518 0.131289 0.324461
v -1.067130 0.222796 0.300777
v -0.946389 0.256289 0.268425
v -0.825648 0.222796 0.236072
v -0.737260 0.131289 0.212389
v -0.704908 0.006289 0.203720
v -0.737260 -0.118711 0.212389
v -0.825648 -0.210217 0.236072
v -0.946389 -0.243711 0.268425
v -1.067130 -0.210217 0.300777
v -1.155518 -0.118711 0.324461
f 22 11 10
f 17 5 16
f 3 15 16
f 18 17 16
f 18 7 19
f 18 17 5
f 4 7 5
f 4 5 16
f 4 3 16
f 12 11 10
f 12 7 10
f 12 24 11
f 12 13 1
f 12 24 13
f 23 24 22
f 23 22 11
f 23 24 11
f 14 24 13
f 14 3 15
f 14 15 16
f 20 18 19
f 20 7 19
f 20 8 7
f 9 22 10
f 9 7 10
f 9 8 7
f 9 20 8
f 6 7 5
f 6 18 5
f 6 18 7
f 2 12 7
f 2 4 7
f 2 4 3
f 2 12 1
f 2 14 3
f 2 13 1
f 2 14 13
f 21 20 22
f 21 9 22
f 21 9 20
f 20 24 22
f 20 18 16
f 20 14 16
f 20 14 24
