o torus_fine_7
v 1.174387 0.006289 -0.468749
v 1.143442 0.131289 -0.455931
v 1.058902 0.222796 -0.420913
v 0.943417 0.256289 -0.373078
v 0.827932 0.222796 -0.325242
v 0.743391 0.131289 -0.290224
v 0.712447 0.006289 -0.277407
v 0.743391 -0.118711 -0.290224
v 0.827932 -0.210217 -0.325242
v 0.943417 -0.243711 -0.373078
v 1.058902 -0.210217 -0.420913
v 1.143442 -0.118711 -0.455931
v 1.102069 0.006289 -0.615394
v 1.073062 0.131289 -0.598648
v 0.993815 0.222796 -0.552894
v 0.885562 0.256289 -0.490394
v 0.885562 -0.243711 -0.490394
v 0.993815 -0.210217 -0.552894
v 1.073062 -0.118711 -0.598648
v 1.011229 0.006289 -0.751346
v 0.984656 0.131289 -0.730956
v 0.912059 0.222796 -0.675251
v 0.812890 0.256289 -0.599156
v 0.812890 -0.243711 -0.599156
v 0.912059 -0.210217 -0.675251
v 0.984656 -0.118711 -0.730956
v 0.903420 0.006289 -0.874278
v 0.879737 0.131289 -0.850594
v 0.815032 0.222796 -0.785889
v 0.726644 0.256289 -0.697501
v 0.726644 -0.243711 -0.697501
v 0.815032 -0.210217 -0.785889
v 0.879737 -0.118711 -0.850594
v 0.780489 0.006289 -0.982086
v 0.760099 0.131289 -0.955514
v 0.704394 0.222796 -0.882917
v 0.628298 0.256289 -0.783747
v 0.628298 -0.243711 -0.783747
v 0.704394 -0.210217 -0.882917
v 0.760099 -0.118711 -0.955514
v 0.644537 0.006289 -1.072926
v 0.627790 0.131289 -1.043920
v 0.582037 0.222796 -0.964673
v 0.519537 0.256289 -0.856420
v 0.519537 -0.243711 -0.856420
v 0.582037 -0.210217 -0.964673
v 0.627790 -0.118711 -1.043920
v 0.497891 0.006289 -1.145244
v 0.485074 0.131289 -1.114299
v 0.450056 0.222796 -1.029759
v 0.402221 0.256289 -0.914274
v 0.354385 0.222796 -0.798789
v 0.319367 0.131289 -0.714248
v 0.306550 0.006289 -0.683304
v 0.319367 -0.118711 -0.714248
v 0.354385 -0.210217 -0.798789
v 0.402221 -0.243711 -0.914274
v 0.450056 -0.210217 -1.029759
v 0.485074 -0.118711 -1.114299
f 53 52 48
f 58 56 57
f 58 56 48
f 11 9 10
f 4 3 5
f 6 8 7
f 55 53 54
f 55 56 48
f 55 53 48
f 45 58 57
f 50 52 48
f 39 31 32
f 12 19 1
f 12 19 11
f 12 2 1
f 25 24 31
f 25 31 32
f 59 58 48
f 42 34 35
f 42 50 43
f 36 42 43
f 36 42 35
f 44 50 43
f 44 36 43
f 38 39 31
f 38 39 45
f 46 45 58
f 46 39 45
f 18 19 11
f 18 25 19
f 18 11 10
f 18 25 24
f 13 19 1
f 13 20 19
f 33 20 27
f 33 25 32
f 33 34 27
f 33 34 40
f 33 39 32
f 33 39 40
f 41 42 48
f 41 42 34
f 49 50 48
f 49 42 48
f 49 42 50
f 14 2 3
f 14 2 1
f 14 13 1
f 14 21 20
f 14 13 20
f 22 14 21
f 22 23 30
f 28 36 35
f 28 22 21
f 28 34 27
f 28 34 35
f 28 20 27
f 28 21 20
f 37 36 30
f 37 44 36
f 51 50 52
f 51 44 50
f 47 39 40
f 47 46 39
f 47 59 58
f 47 46 58
f 47 34 40
f 47 41 34
f 47 59 48
f 47 41 48
f 17 18 10
f 17 18 24
f 26 20 19
f 26 33 20
f 26 25 19
f 26 33 25
f 15 14 3
f 15 22 14
f 15 4 3
f 15 22 23
f 29 28 36
f 29 28 22
f 29 36 30
f 29 22 30
f 16 15 4
f 16 15 23
f 56 57 10
f 56 9 10
f 11 3 5
f 11 9 5
f 6 9 5
f 6 8 9
f 6 52 5
f 6 53 52
f 6 7 54
f 6 53 54
f 55 7 54
f 55 8 7
f 55 56 9
f 55 8 9
f 12 11 3
f 12 2 3
f 51 52 5
f 51 4 5
f 17 57 10
f 17 45 57
f 17 38 31
f 17 24 31
f 17 38 45
f 16 23 30
f 16 51 4
f 16 37 30
f 16 37 44
f 16 51 44
