# https://github.com/mikedh/trimesh
mtllib material.mtl

o ActorShape0_0-Mesh
usemtl material_0
v -0.03500000 -0.00600000 0.32400000
v -0.03493185 -0.00651764 0.32400000
v -0.03273205 -0.00500000 0.32400000
v -0.03473205 -0.00700000 0.32400000
v -0.03241421 -0.00541421 0.32400000
v -0.03293185 -0.00451764 0.32400000
v -0.03300000 -0.00400000 0.32400000
v -0.03500000 0.00900000 0.32400000
v -0.03300000 0.01300000 0.32400000
v -0.03500000 0.01300000 0.32400000
v -0.00258579 -0.00541421 0.32400000
v -0.00026795 -0.00700000 0.32400000
v -0.00226795 -0.00500000 0.32400000
v -0.00006815 -0.00651764 0.32400000
v -0.00206815 -0.00451764 0.32400000
v 0.00000000 -0.00600000 0.32400000
v -0.00200000 -0.00400000 0.32400000
v -0.00200000 -0.00800000 0.32400000
v -0.00148236 -0.00793185 0.32400000
v -0.00300000 -0.00573205 0.32400000
v -0.00100000 -0.00773205 0.32400000
v -0.00058579 -0.00741421 0.32400000
v -0.00200000 0.01300000 0.32400000
v 0.00000000 0.00900000 0.32400000
v -0.00000000 0.01300000 0.32400000
v -0.00348236 -0.00593185 0.32400000
v -0.00400000 -0.00600000 0.32400000
v -0.03300000 -0.00800000 0.32400000
v -0.03441421 -0.00741421 0.32400000
v -0.03400000 -0.00773205 0.32400000
v -0.03200000 -0.00573205 0.32400000
v -0.03351764 -0.00793185 0.32400000
v -0.03151764 -0.00593185 0.32400000
v -0.03100000 -0.00600000 0.32400000
v -0.03500000 -0.00600000 0.00000000
v -0.03500000 0.01000000 0.00000000
v -0.03300000 0.01000000 0.00000000
v -0.03300000 -0.00400000 0.00000000
v -0.03293185 -0.00451764 0.00000000
v -0.03493185 -0.00651764 0.00000000
v -0.03273205 -0.00500000 0.00000000
v -0.03473205 -0.00700000 0.00000000
v -0.03241421 -0.00541421 0.00000000
v -0.03300000 -0.00800000 0.00000000
v -0.03351764 -0.00793185 0.00000000
v -0.03200000 -0.00573205 0.00000000
v -0.03400000 -0.00773205 0.00000000
v -0.03441421 -0.00741421 0.00000000
v -0.03151764 -0.00593185 0.00000000
v -0.03100000 -0.00600000 0.00000000
v -0.00200000 -0.00800000 0.00000000
v 0.00000000 -0.00600000 0.00000000
v -0.00006815 -0.00651764 0.00000000
v -0.00226795 -0.00500000 0.00000000
v -0.00026795 -0.00700000 0.00000000
v -0.00258579 -0.00541421 0.00000000
v -0.00200000 0.01000000 0.00000000
v -0.00000000 0.01000000 0.00000000
v -0.00200000 -0.00400000 0.00000000
v -0.00206815 -0.00451764 0.00000000
v -0.00400000 -0.00600000 0.00000000
v -0.00348236 -0.00593185 0.00000000
v -0.00148236 -0.00793185 0.00000000
v -0.00300000 -0.00573205 0.00000000
v -0.00100000 -0.00773205 0.00000000
v -0.00058579 -0.00741421 0.00000000
v 0.00000000 -0.00600000 0.28900000
v 0.00000000 -0.00600000 0.32400000
v -0.00006815 -0.00651764 0.32400000
v -0.00006815 -0.00651764 0.00000000
v -0.00026795 -0.00700000 0.32400000
v -0.00026795 -0.00700000 0.00000000
v -0.00058579 -0.00741421 0.32400000
v -0.00058579 -0.00741421 0.00000000
v -0.00100000 -0.00773205 0.32400000
v -0.00100000 -0.00773205 0.00000000
v -0.00148236 -0.00793185 0.32400000
v -0.00148236 -0.00793185 0.00000000
v -0.00200000 -0.00800000 0.32400000
v -0.00200000 -0.00800000 0.00000000
v 0.00000000 -0.00600000 0.00000000
v -0.00000000 0.00241481 0.00964705
v -0.00000000 0.00250000 0.00900000
v -0.00000000 0.00250000 0.09900000
v -0.00000000 0.02500000 0.05800000
v -0.00000000 0.04800000 0.05800000
v -0.00000000 -0.00125000 0.00683494
v -0.00000000 -0.00176777 0.00723223
v -0.00000000 0.00176777 0.10076777
v -0.00000000 0.00216506 0.10025000
v -0.00000000 0.04800000 0.26300001
v -0.00000000 0.00176777 0.09723223
v -0.00000000 0.00125000 0.09683494
v 0.00000000 -0.00250000 0.00900000
v -0.00000000 0.00064705 0.09658518
v -0.00000000 0.01200962 0.05050000
v -0.00000000 0.01439340 0.05360660
v -0.00000000 -0.00176777 0.09723223
v -0.00000000 -0.00216506 0.09775000
v -0.00000000 0.02411771 0.26351112
v -0.00000000 0.02050000 0.26500961
v -0.00000000 0.00000000 0.10150000
v -0.00000000 0.00241481 0.09964705
v -0.00000000 -0.00216506 0.01025000
v 0.00000000 -0.00241481 0.00964705
v -0.00000000 0.00241481 0.09835295
v -0.00000000 0.00216506 0.09775000
v -0.00000000 -0.00176777 0.01076777
v -0.00000000 -0.00125000 0.01116506
v -0.00000000 -0.00064705 0.01141481
v -0.00000000 0.00125000 0.01116506
v -0.00000000 0.00176777 0.01076777
v -0.00000000 0.00216506 0.01025000
v -0.00000000 0.01750000 0.05599038
v -0.00000000 0.02111772 0.05748889
v -0.00000000 0.00241481 0.00835295
v -0.00000000 0.00216506 0.00775000
v -0.00000000 0.01000000 0.00000000
v -0.00000000 0.00176777 0.00723223
v -0.00000000 -0.00064705 0.00658518
v -0.00000000 -0.00064705 0.10141481
v -0.00000000 0.01739340 0.26739341
v -0.00000000 0.01500962 0.27050000
v -0.00000000 0.01351111 0.27411771
v -0.00000000 0.00900000 0.28900000
v -0.00000000 0.01300000 0.27800000
v 0.00000000 0.00900000 0.32400000
v -0.00000000 0.01300000 0.32400000
v -0.00000000 0.00000000 0.01150000
v -0.00000000 0.00064705 0.01141481
v -0.00000000 -0.00216506 0.00775000
v 0.00000000 -0.00241481 0.00835295
v 0.00000000 -0.00241481 0.09835295
v 0.00000000 -0.00250000 0.09900000
v 0.00000000 -0.00241481 0.09964705
v -0.00000000 -0.00216506 0.10025000
v -0.00000000 -0.00176777 0.10076777
v -0.00000000 -0.00125000 0.10116506
v -0.00000000 0.02800000 0.26300001
v -0.00000000 0.00064705 0.10141481
v -0.00000000 0.00125000 0.10116506
v -0.00000000 0.01000000 0.04300000
v -0.00000000 0.01051111 0.04688229
v -0.00000000 0.00125000 0.00683494
v -0.00000000 0.00064705 0.00658518
v -0.00000000 0.00000000 0.00650000
v -0.00000000 0.00000000 0.09650000
v -0.00000000 -0.00064705 0.09658518
v -0.00000000 -0.00125000 0.09683494
v -0.00006815 0.04851764 0.05800000
v -0.00006815 0.04851764 0.26300001
v -0.00026795 0.04900000 0.05800000
v -0.00026795 0.04900000 0.26300001
v -0.00058579 0.04941421 0.05800000
v -0.00058579 0.04941421 0.26300001
v -0.00100000 0.04973205 0.05800000
v -0.00100000 0.04973205 0.26300001
v -0.00148236 0.04993185 0.05800000
v -0.00148236 0.04993185 0.26300001
v -0.00200000 0.05000000 0.05800000
v -0.00200000 0.05000000 0.26300001
v -0.03300000 0.05000000 0.26300001
v -0.03300000 0.05000000 0.05800000
v -0.03351764 0.04993185 0.05800000
v -0.03351764 0.04993185 0.26300001
v -0.03400000 0.04973205 0.05800000
v -0.03400000 0.04973205 0.26300001
v -0.03441421 0.04941421 0.05800000
v -0.03441421 0.04941421 0.26300001
v -0.03473205 0.04900000 0.05800000
v -0.03473205 0.04900000 0.26300001
v -0.03493185 0.04851764 0.05800000
v -0.03493185 0.04851764 0.26300001
v -0.03500000 0.04800000 0.05800000
v -0.03500000 0.04800000 0.26300001
v -0.03500000 0.00900000 0.28900000
v -0.03500000 0.00900000 0.32400000
v -0.03500000 0.01300000 0.32400000
v -0.03500000 0.01739340 0.26739341
v -0.03500000 0.02050000 0.26500961
v -0.03500000 0.02411771 0.26351112
v -0.03500000 0.02800000 0.26300001
v -0.03500000 0.01300000 0.27800000
v -0.03500000 0.01351111 0.27411771
v -0.03500000 0.01500962 0.27050000
v -0.03500000 -0.00176777 0.09723223
v -0.03500000 -0.00125000 0.09683494
v -0.03500000 0.00250000 0.00900000
v -0.03500000 -0.00064705 0.09658518
v -0.03500000 -0.00000000 0.09650000
v -0.03500000 -0.00600000 0.00000000
v -0.03500000 -0.00250000 0.00900000
v -0.03500000 -0.00241481 0.00835295
v -0.03500000 -0.00600000 0.28900000
v -0.03500000 -0.00000000 0.10150000
v -0.03500000 -0.00064705 0.10141481
v -0.03500000 -0.00125000 0.10116506
v -0.03500000 -0.00176777 0.10076777
v -0.03500000 -0.00216506 0.10025000
v -0.03500000 -0.00241481 0.09964705
v -0.03500000 -0.00250000 0.09900000
v -0.03500000 -0.00241481 0.00964705
v -0.03500000 0.00216506 0.01025000
v -0.03500000 0.00241481 0.00964705
v -0.03500000 -0.00241481 0.09835295
v -0.03500000 -0.00216506 0.09775000
v -0.03500000 0.00176777 0.01076777
v -0.03500000 0.00125000 0.01116506
v -0.03500000 0.00064705 0.01141481
v -0.03500000 -0.00125000 0.01116506
v -0.03500000 -0.00176777 0.01076777
v -0.03500000 -0.00216506 0.01025000
v -0.03500000 -0.00216506 0.00775000
v -0.03500000 -0.00176777 0.00723223
v -0.03500000 -0.00125000 0.00683494
v -0.03500000 0.00216506 0.00775000
v -0.03500000 0.01000000 0.00000000
v -0.03500000 0.00176777 0.00723223
v -0.03500000 0.00125000 0.00683494
v -0.03500000 0.00216506 0.09775000
v -0.03500000 0.00241481 0.09835295
v -0.03500000 -0.00000000 0.01150000
v -0.03500000 -0.00064705 0.01141481
v -0.03500000 0.02500000 0.05800000
v -0.03500000 0.02111772 0.05748889
v -0.03500000 0.00176777 0.09723223
v -0.03500000 0.00125000 0.09683494
v -0.03500000 0.00216506 0.10025000
v -0.03500000 0.00241481 0.09964705
v -0.03500000 0.00250000 0.09900000
v -0.03500000 0.00176777 0.10076777
v -0.03500000 0.00125000 0.10116506
v -0.03500000 0.00064705 0.10141481
v -0.03500000 -0.00064705 0.00658518
v -0.03500000 -0.00000000 0.00650000
v -0.03500000 0.00064705 0.00658518
v -0.03500000 0.00064705 0.09658518
v -0.03500000 0.01750000 0.05599038
v -0.03500000 0.01439340 0.05360660
v -0.03500000 0.01200962 0.05050000
v -0.03500000 0.00241481 0.00835295
v -0.03500000 0.01000000 0.04300000
v -0.03500000 0.01051111 0.04688229
v -0.03493185 -0.00651764 0.00000000
v -0.03493185 -0.00651764 0.32400000
v -0.03500000 -0.00600000 0.32400000
v -0.03473205 -0.00700000 0.00000000
v -0.03473205 -0.00700000 0.32400000
v -0.03441421 -0.00741421 0.00000000
v -0.03441421 -0.00741421 0.32400000
v -0.03400000 -0.00773205 0.00000000
v -0.03400000 -0.00773205 0.32400000
v -0.03351764 -0.00793185 0.00000000
v -0.03351764 -0.00793185 0.32400000
v -0.03300000 -0.00800000 0.00000000
v -0.03300000 -0.00800000 0.32400000
v -0.00400000 0.04800000 0.26300001
v -0.00400000 0.04800000 0.05800000
v -0.00348236 0.04793185 0.05800000
v -0.00348236 0.04793185 0.26300001
v -0.00300000 0.04773205 0.05800000
v -0.00300000 0.04773205 0.26300001
v -0.00258579 0.04741421 0.05800000
v -0.00258579 0.04741421 0.26300001
v -0.00226795 0.04700000 0.05800000
v -0.00226795 0.04700000 0.26300001
v -0.00206815 0.04651764 0.05800000
v -0.00206815 0.04651764 0.26300001
v -0.00200000 0.04600000 0.05800000
v -0.00200000 0.04600000 0.26300001
v -0.03100000 0.04800000 0.05800000
v -0.03100000 0.04800000 0.26300001
v -0.03300000 0.04600000 0.26300001
v -0.03300000 0.04600000 0.05800000
v -0.03293185 0.04651764 0.05800000
v -0.03293185 0.04651764 0.26300001
v -0.03273205 0.04700000 0.05800000
v -0.03273205 0.04700000 0.26300001
v -0.03241421 0.04741421 0.05800000
v -0.03241421 0.04741421 0.26300001
v -0.03200000 0.04773205 0.05800000
v -0.03200000 0.04773205 0.26300001
v -0.03151764 0.04793185 0.05800000
v -0.03151764 0.04793185 0.26300001
v -0.03300000 -0.00125000 0.00683494
v -0.03300000 -0.00176777 0.00723223
v -0.03300000 -0.00400000 0.00000000
v -0.03300000 -0.00064705 0.00658518
v -0.03300000 -0.00176777 0.09723223
v -0.03300000 -0.00216506 0.09775000
v -0.03300000 0.00176777 0.10076777
v -0.03300000 0.00216506 0.10025000
v -0.03300000 0.02500000 0.05800000
v -0.03300000 -0.00064705 0.10141481
v -0.03300000 -0.00000000 0.10150000
v -0.03300000 -0.00400000 0.32400000
v -0.03300000 0.00216506 0.09775000
v -0.03300000 0.00176777 0.09723223
v -0.03300000 -0.00250000 0.00900000
v -0.03300000 0.00125000 0.09683494
v -0.03300000 0.00064705 0.09658518
v -0.03300000 0.00241481 0.09835295
v -0.03300000 -0.00241481 0.00964705
v -0.03300000 0.00250000 0.09900000
v -0.03300000 -0.00216506 0.01025000
v -0.03300000 -0.00176777 0.01076777
v -0.03300000 0.00241481 0.00835295
v -0.03300000 0.00216506 0.00775000
v -0.03300000 0.01000000 0.00000000
v -0.03300000 0.00176777 0.00723223
v -0.03300000 -0.00216506 0.00775000
v -0.03300000 -0.00241481 0.00835295
v -0.03300000 -0.00241481 0.09835295
v -0.03300000 -0.00250000 0.09900000
v -0.03300000 -0.00241481 0.09964705
v -0.03300000 -0.00216506 0.10025000
v -0.03300000 -0.00176777 0.10076777
v -0.03300000 -0.00125000 0.10116506
v -0.03300000 0.00064705 0.01141481
v -0.03300000 0.00125000 0.01116506
v -0.03300000 0.00176777 0.01076777
v -0.03300000 0.00216506 0.01025000
v -0.03300000 0.01200962 0.05050000
v -0.03300000 0.01439340 0.05360660
v -0.03300000 0.01750000 0.05599038
v -0.03300000 0.02111772 0.05748889
v -0.03300000 0.00125000 0.00683494
v -0.03300000 0.00064705 0.00658518
v -0.03300000 -0.00000000 0.00650000
v -0.03300000 -0.00000000 0.09650000
v -0.03300000 -0.00064705 0.09658518
v -0.03300000 -0.00125000 0.09683494
v -0.03300000 0.02411771 0.26351112
v -0.03300000 0.02050000 0.26500961
v -0.03300000 0.01739340 0.26739341
v -0.03300000 0.01500962 0.27050000
v -0.03300000 0.01351111 0.27411771
v -0.03300000 0.01300000 0.27800000
v -0.03300000 0.01300000 0.32400000
v -0.03300000 -0.00125000 0.01116506
v -0.03300000 -0.00064705 0.01141481
v -0.03300000 -0.00000000 0.01150000
v -0.03300000 0.02800000 0.26300001
v -0.03300000 0.00064705 0.10141481
v -0.03300000 0.00125000 0.10116506
v -0.03300000 0.01051111 0.04688229
v -0.03300000 0.01000000 0.04300000
v -0.03300000 0.00241481 0.00964705
v -0.03300000 0.00250000 0.00900000
v -0.03300000 0.00241481 0.09964705
v -0.03100000 -0.00600000 0.32400000
v -0.03100000 -0.00600000 0.00000000
v -0.03151764 -0.00593185 0.00000000
v -0.03151764 -0.00593185 0.32400000
v -0.03200000 -0.00573205 0.00000000
v -0.03200000 -0.00573205 0.32400000
v -0.03241421 -0.00541421 0.00000000
v -0.03241421 -0.00541421 0.32400000
v -0.03273205 -0.00500000 0.00000000
v -0.03273205 -0.00500000 0.32400000
v -0.03293185 -0.00451764 0.00000000
v -0.03293185 -0.00451764 0.32400000
v -0.00400000 -0.00600000 0.32400000
v -0.00400000 -0.00600000 0.00000000
v -0.00200000 -0.00400000 0.32400000
v -0.00200000 -0.00400000 0.00000000
v -0.00206815 -0.00451764 0.00000000
v -0.00206815 -0.00451764 0.32400000
v -0.00226795 -0.00500000 0.00000000
v -0.00226795 -0.00500000 0.32400000
v -0.00258579 -0.00541421 0.00000000
v -0.00258579 -0.00541421 0.32400000
v -0.00300000 -0.00573205 0.00000000
v -0.00300000 -0.00573205 0.32400000
v -0.00348236 -0.00593185 0.00000000
v -0.00348236 -0.00593185 0.32400000
v -0.00200000 -0.00216506 0.09775000
v -0.00200000 -0.00176777 0.09723223
v -0.00200000 0.00250000 0.00900000
v -0.00200000 -0.00241481 0.09835295
v -0.00200000 -0.00125000 0.09683494
v -0.00200000 -0.00064705 0.09658518
v -0.00200000 0.00000000 0.09650000
v -0.00200000 -0.00250000 0.09900000
v -0.00200000 0.00241481 0.00964705
v -0.00200000 0.00216506 0.01025000
v -0.00200000 -0.00241481 0.00835295
v -0.00200000 -0.00216506 0.00775000
v -0.00200000 -0.00176777 0.00723223
v -0.00200000 -0.00125000 0.00683494
v -0.00200000 0.00216506 0.00775000
v -0.00200000 0.01000000 0.00000000
v -0.00200000 0.00176777 0.00723223
v -0.00200000 0.00125000 0.00683494
v -0.00200000 0.00216506 0.09775000
v -0.00200000 0.00241481 0.09835295
v -0.00200000 0.00176777 0.10076777
v -0.00200000 0.00125000 0.10116506
v -0.00200000 0.00000000 0.10150000
v -0.00200000 -0.00064705 0.10141481
v -0.00200000 -0.00125000 0.10116506
v -0.00200000 -0.00176777 0.10076777
v -0.00200000 0.02500000 0.05800000
v -0.00200000 0.02111772 0.05748889
v -0.00200000 0.00176777 0.09723223
v -0.00200000 0.00125000 0.09683494
v -0.00200000 0.00250000 0.09900000
v -0.00200000 0.00241481 0.09964705
v -0.00200000 0.00216506 0.10025000
v -0.00200000 0.00176777 0.01076777
v -0.00200000 0.00125000 0.01116506
v -0.00200000 0.00064705 0.01141481
v -0.00200000 0.01300000 0.32400000
v -0.00200000 0.01300000 0.27800000
v -0.00200000 0.01351111 0.27411771
v -0.00200000 0.01500962 0.27050000
v -0.00200000 0.01739340 0.26739341
v -0.00200000 0.02050000 0.26500961
v -0.00200000 0.02411771 0.26351112
v -0.00200000 0.00064705 0.10141481
v -0.00200000 -0.00064705 0.00658518
v -0.00200000 0.00000000 0.00650000
v -0.00200000 0.00064705 0.00658518
v -0.00200000 0.00064705 0.09658518
v -0.00200000 0.01750000 0.05599038
v -0.00200000 0.01439340 0.05360660
v -0.00200000 0.01200962 0.05050000
v -0.00200000 0.00000000 0.01150000
v -0.00200000 -0.00064705 0.01141481
v -0.00200000 -0.00125000 0.01116506
v -0.00200000 -0.00216506 0.10025000
v -0.00200000 -0.00241481 0.09964705
v -0.00200000 0.00241481 0.00835295
v -0.00200000 0.01000000 0.04300000
v -0.00200000 0.01051111 0.04688229
v -0.00200000 0.02800000 0.26300001
v -0.00200000 -0.00176777 0.01076777
v -0.00200000 -0.00216506 0.01025000
v -0.00200000 -0.00241481 0.00964705
v -0.00200000 -0.00250000 0.00900000
v -0.03500000 0.01000000 0.00000000
v -0.03500000 0.01000000 0.04300000
v -0.03300000 0.01000000 0.00000000
v -0.03300000 0.01000000 0.04300000
v -0.03500000 0.02500000 0.05800000
v -0.03300000 0.02500000 0.05800000
v -0.03300000 0.02111772 0.05748889
v -0.03500000 0.02111772 0.05748889
v -0.03300000 0.01750000 0.05599038
v -0.03500000 0.01750000 0.05599038
v -0.03300000 0.01439340 0.05360660
v -0.03500000 0.01439340 0.05360660
v -0.03300000 0.01200962 0.05050000
v -0.03500000 0.01200962 0.05050000
v -0.03300000 0.01051111 0.04688229
v -0.03500000 0.01051111 0.04688229
v -0.00200000 0.05000000 0.05800000
v -0.00148236 0.04993185 0.05800000
v -0.00300000 0.04773205 0.05800000
v -0.00100000 0.04973205 0.05800000
v -0.00258579 0.04741421 0.05800000
v -0.03500000 0.04800000 0.05800000
v -0.03493185 0.04851764 0.05800000
v -0.03273205 0.04700000 0.05800000
v -0.03473205 0.04900000 0.05800000
v -0.03241421 0.04741421 0.05800000
v -0.00000000 0.04800000 0.05800000
v -0.00000000 0.02500000 0.05800000
v -0.00200000 0.02500000 0.05800000
v -0.03300000 0.04600000 0.05800000
v -0.03293185 0.04651764 0.05800000
v -0.00058579 0.04941421 0.05800000
v -0.00026795 0.04900000 0.05800000
v -0.00226795 0.04700000 0.05800000
v -0.00006815 0.04851764 0.05800000
v -0.00206815 0.04651764 0.05800000
v -0.00200000 0.04600000 0.05800000
v -0.03300000 0.05000000 0.05800000
v -0.03151764 0.04793185 0.05800000
v -0.03351764 0.04993185 0.05800000
v -0.03200000 0.04773205 0.05800000
v -0.03400000 0.04973205 0.05800000
v -0.03441421 0.04941421 0.05800000
v -0.00348236 0.04793185 0.05800000
v -0.00400000 0.04800000 0.05800000
v -0.03100000 0.04800000 0.05800000
v -0.00000000 0.01000000 0.04300000
v -0.00000000 0.01000000 0.00000000
v -0.00200000 0.01000000 0.04300000
v -0.00200000 0.01000000 0.00000000
v -0.00000000 0.02111772 0.05748889
v -0.00200000 0.02111772 0.05748889
v -0.00000000 0.01750000 0.05599038
v -0.00200000 0.01750000 0.05599038
v -0.00000000 0.01439340 0.05360660
v -0.00200000 0.01439340 0.05360660
v -0.00000000 0.01200962 0.05050000
v -0.00200000 0.01200962 0.05050000
v -0.00000000 0.01051111 0.04688229
v -0.00200000 0.01051111 0.04688229
v -0.00200000 0.00241481 0.00835295
v -0.00000000 0.00250000 0.00900000
v -0.00200000 0.00250000 0.00900000
v -0.00000000 0.00241481 0.00964705
v -0.00200000 0.00241481 0.00964705
v -0.00000000 0.00216506 0.01025000
v -0.00200000 0.00216506 0.01025000
v -0.00000000 0.00176777 0.01076777
v -0.00200000 0.00176777 0.01076777
v -0.00000000 0.00125000 0.01116506
v -0.00200000 0.00125000 0.01116506
v -0.00000000 0.00064705 0.01141481
v -0.00200000 0.00064705 0.01141481
v -0.00000000 0.00000000 0.01150000
v -0.00200000 0.00000000 0.01150000
v -0.00000000 -0.00064705 0.01141481
v -0.00200000 -0.00064705 0.01141481
v -0.00000000 -0.00125000 0.01116506
v -0.00200000 -0.00125000 0.01116506
v -0.00000000 -0.00176777 0.01076777
v -0.00200000 -0.00176777 0.01076777
v -0.00000000 -0.00216506 0.01025000
v -0.00200000 -0.00216506 0.01025000
v 0.00000000 -0.00241481 0.00964705
v -0.00200000 -0.00241481 0.00964705
v 0.00000000 -0.00250000 0.00900000
v -0.00200000 -0.00250000 0.00900000
v 0.00000000 -0.00241481 0.00835295
v -0.00200000 -0.00241481 0.00835295
v -0.00000000 -0.00216506 0.00775000
v -0.00200000 -0.00216506 0.00775000
v -0.00000000 -0.00176777 0.00723223
v -0.00200000 -0.00176777 0.00723223
v -0.00000000 -0.00125000 0.00683494
v -0.00200000 -0.00125000 0.00683494
v -0.00000000 -0.00064705 0.00658518
v -0.00200000 -0.00064705 0.00658518
v -0.00000000 0.00000000 0.00650000
v -0.00200000 0.00000000 0.00650000
v -0.00000000 0.00064705 0.00658518
v -0.00200000 0.00064705 0.00658518
v -0.00000000 0.00125000 0.00683494
v -0.00200000 0.00125000 0.00683494
v -0.00000000 0.00176777 0.00723223
v -0.00200000 0.00176777 0.00723223
v -0.00000000 0.00216506 0.00775000
v -0.00200000 0.00216506 0.00775000
v -0.00000000 0.00241481 0.00835295
v -0.03500000 0.00241481 0.00835295
v -0.03300000 0.00250000 0.00900000
v -0.03500000 0.00250000 0.00900000
v -0.03300000 0.00241481 0.00964705
v -0.03500000 0.00241481 0.00964705
v -0.03300000 0.00216506 0.01025000
v -0.03500000 0.00216506 0.01025000
v -0.03300000 0.00176777 0.01076777
v -0.03500000 0.00176777 0.01076777
v -0.03300000 0.00125000 0.01116506
v -0.03500000 0.00125000 0.01116506
v -0.03300000 0.00064705 0.01141481
v -0.03500000 0.00064705 0.01141481
v -0.03300000 -0.00000000 0.01150000
v -0.03500000 -0.00000000 0.01150000
v -0.03300000 -0.00064705 0.01141481
v -0.03500000 -0.00064705 0.01141481
v -0.03300000 -0.00125000 0.01116506
v -0.03500000 -0.00125000 0.01116506
v -0.03300000 -0.00176777 0.01076777
v -0.03500000 -0.00176777 0.01076777
v -0.03300000 -0.00216506 0.01025000
v -0.03500000 -0.00216506 0.01025000
v -0.03300000 -0.00241481 0.00964705
v -0.03500000 -0.00241481 0.00964705
v -0.03300000 -0.00250000 0.00900000
v -0.03500000 -0.00250000 0.00900000
v -0.03300000 -0.00241481 0.00835295
v -0.03500000 -0.00241481 0.00835295
v -0.03300000 -0.00216506 0.00775000
v -0.03500000 -0.00216506 0.00775000
v -0.03300000 -0.00176777 0.00723223
v -0.03500000 -0.00176777 0.00723223
v -0.03300000 -0.00125000 0.00683494
v -0.03500000 -0.00125000 0.00683494
v -0.03300000 -0.00064705 0.00658518
v -0.03500000 -0.00064705 0.00658518
v -0.03300000 -0.00000000 0.00650000
v -0.03500000 -0.00000000 0.00650000
v -0.03300000 0.00064705 0.00658518
v -0.03500000 0.00064705 0.00658518
v -0.03300000 0.00125000 0.00683494
v -0.03500000 0.00125000 0.00683494
v -0.03300000 0.00176777 0.00723223
v -0.03500000 0.00176777 0.00723223
v -0.03300000 0.00216506 0.00775000
v -0.03500000 0.00216506 0.00775000
v -0.03300000 0.00241481 0.00835295
v -0.00200000 0.00241481 0.09835295
v -0.00000000 0.00250000 0.09900000
v -0.00200000 0.00250000 0.09900000
v -0.00000000 0.00241481 0.09964705
v -0.00200000 0.00241481 0.09964705
v -0.00000000 0.00216506 0.10025000
v -0.00200000 0.00216506 0.10025000
v -0.00000000 0.00176777 0.10076777
v -0.00200000 0.00176777 0.10076777
v -0.00000000 0.00125000 0.10116506
v -0.00200000 0.00125000 0.10116506
v -0.00000000 0.00064705 0.10141481
v -0.00200000 0.00064705 0.10141481
v -0.00000000 0.00000000 0.10150000
v -0.00200000 0.00000000 0.10150000
v -0.00000000 -0.00064705 0.10141481
v -0.00200000 -0.00064705 0.10141481
v -0.00000000 -0.00125000 0.10116506
v -0.00200000 -0.00125000 0.10116506
v -0.00000000 -0.00176777 0.10076777
v -0.00200000 -0.00176777 0.10076777
v -0.00000000 -0.00216506 0.10025000
v -0.00200000 -0.00216506 0.10025000
v 0.00000000 -0.00241481 0.09964705
v -0.00200000 -0.00241481 0.09964705
v 0.00000000 -0.00250000 0.09900000
v -0.00200000 -0.00250000 0.09900000
v 0.00000000 -0.00241481 0.09835295
v -0.00200000 -0.00241481 0.09835295
v -0.00000000 -0.00216506 0.09775000
v -0.00200000 -0.00216506 0.09775000
v -0.00000000 -0.00176777 0.09723223
v -0.00200000 -0.00176777 0.09723223
v -0.00000000 -0.00125000 0.09683494
v -0.00200000 -0.00125000 0.09683494
v -0.00000000 -0.00064705 0.09658518
v -0.00200000 -0.00064705 0.09658518
v -0.00000000 0.00000000 0.09650000
v -0.00200000 0.00000000 0.09650000
v -0.00000000 0.00064705 0.09658518
v -0.00200000 0.00064705 0.09658518
v -0.00000000 0.00125000 0.09683494
v -0.00200000 0.00125000 0.09683494
v -0.00000000 0.00176777 0.09723223
v -0.00200000 0.00176777 0.09723223
v -0.00000000 0.00216506 0.09775000
v -0.00200000 0.00216506 0.09775000
v -0.00000000 0.00241481 0.09835295
v -0.03500000 0.00241481 0.09835295
v -0.03300000 0.00250000 0.09900000
v -0.03500000 0.00250000 0.09900000
v -0.03300000 0.00241481 0.09964705
v -0.03500000 0.00241481 0.09964705
v -0.03300000 0.00216506 0.10025000
v -0.03500000 0.00216506 0.10025000
v -0.03300000 0.00176777 0.10076777
v -0.03500000 0.00176777 0.10076777
v -0.03300000 0.00125000 0.10116506
v -0.03500000 0.00125000 0.10116506
v -0.03300000 0.00064705 0.10141481
v -0.03500000 0.00064705 0.10141481
v -0.03300000 -0.00000000 0.10150000
v -0.03500000 -0.00000000 0.10150000
v -0.03300000 -0.00064705 0.10141481
v -0.03500000 -0.00064705 0.10141481
v -0.03300000 -0.00125000 0.10116506
v -0.03500000 -0.00125000 0.10116506
v -0.03300000 -0.00176777 0.10076777
v -0.03500000 -0.00176777 0.10076777
v -0.03300000 -0.00216506 0.10025000
v -0.03500000 -0.00216506 0.10025000
v -0.03300000 -0.00241481 0.09964705
v -0.03500000 -0.00241481 0.09964705
v -0.03300000 -0.00250000 0.09900000
v -0.03500000 -0.00250000 0.09900000
v -0.03300000 -0.00241481 0.09835295
v -0.03500000 -0.00241481 0.09835295
v -0.03300000 -0.00216506 0.09775000
v -0.03500000 -0.00216506 0.09775000
v -0.03300000 -0.00176777 0.09723223
v -0.03500000 -0.00176777 0.09723223
v -0.03300000 -0.00125000 0.09683494
v -0.03500000 -0.00125000 0.09683494
v -0.03300000 -0.00064705 0.09658518
v -0.03500000 -0.00064705 0.09658518
v -0.03300000 -0.00000000 0.09650000
v -0.03500000 -0.00000000 0.09650000
v -0.03300000 0.00064705 0.09658518
v -0.03500000 0.00064705 0.09658518
v -0.03300000 0.00125000 0.09683494
v -0.03500000 0.00125000 0.09683494
v -0.03300000 0.00176777 0.09723223
v -0.03500000 0.00176777 0.09723223
v -0.03300000 0.00216506 0.09775000
v -0.03500000 0.00216506 0.09775000
v -0.03300000 0.00241481 0.09835295
v -0.03500000 0.04800000 0.26300001
v -0.03500000 0.02800000 0.26300001
v -0.03300000 0.02800000 0.26300001
v -0.00200000 0.02800000 0.26300001
v -0.00000000 0.02800000 0.26300001
v -0.00200000 0.04600000 0.26300001
v -0.00000000 0.04800000 0.26300001
v -0.00206815 0.04651764 0.26300001
v -0.03300000 0.04600000 0.26300001
v -0.03293185 0.04651764 0.26300001
v -0.03493185 0.04851764 0.26300001
v -0.03273205 0.04700000 0.26300001
v -0.03473205 0.04900000 0.26300001
v -0.03241421 0.04741421 0.26300001
v -0.03300000 0.05000000 0.26300001
v -0.03351764 0.04993185 0.26300001
v -0.03200000 0.04773205 0.26300001
v -0.03400000 0.04973205 0.26300001
v -0.03441421 0.04941421 0.26300001
v -0.00026795 0.04900000 0.26300001
v -0.00258579 0.04741421 0.26300001
v -0.00226795 0.04700000 0.26300001
v -0.00006815 0.04851764 0.26300001
v -0.03151764 0.04793185 0.26300001
v -0.03100000 0.04800000 0.26300001
v -0.00200000 0.05000000 0.26300001
v -0.00058579 0.04941421 0.26300001
v -0.00100000 0.04973205 0.26300001
v -0.00300000 0.04773205 0.26300001
v -0.00148236 0.04993185 0.26300001
v -0.00348236 0.04793185 0.26300001
v -0.00400000 0.04800000 0.26300001
v -0.03500000 0.01300000 0.27800000
v -0.03300000 0.01300000 0.27800000
v -0.03300000 0.01351111 0.27411771
v -0.03500000 0.01351111 0.27411771
v -0.03300000 0.01500962 0.27050000
v -0.03500000 0.01500962 0.27050000
v -0.03300000 0.01739340 0.26739341
v -0.03500000 0.01739340 0.26739341
v -0.03300000 0.02050000 0.26500961
v -0.03500000 0.02050000 0.26500961
v -0.03300000 0.02411771 0.26351112
v -0.03500000 0.02411771 0.26351112
v -0.03500000 0.01300000 0.32400000
v -0.03300000 0.01300000 0.32400000
v -0.00200000 0.01300000 0.27800000
v -0.00000000 0.01300000 0.27800000
v -0.00000000 0.01351111 0.27411771
v -0.00200000 0.01351111 0.27411771
v -0.00000000 0.01500962 0.27050000
v -0.00200000 0.01500962 0.27050000
v -0.00000000 0.01739340 0.26739341
v -0.00200000 0.01739340 0.26739341
v -0.00000000 0.02050000 0.26500961
v -0.00200000 0.02050000 0.26500961
v -0.00000000 0.02411771 0.26351112
v -0.00200000 0.02411771 0.26351112
v -0.00000000 0.01300000 0.32400000
v -0.00200000 0.01300000 0.32400000
v 0.02350000 0.00900000 0.41000000
v -0.00000000 0.00900000 0.35400000
v 0.02350000 -0.00800000 0.41000000
v -0.00000000 -0.00800000 0.35400000
v 0.02350000 -0.00800000 0.41000000
v 0.02350000 -0.00176777 0.52723223
v 0.02350000 -0.00125000 0.52683496
v 0.02350000 0.00900000 0.53399998
v 0.02350000 0.00176777 0.53076774
v 0.02350000 0.00125000 0.53116506
v 0.02350000 -0.00064705 0.52658516
v 0.02350000 0.00000000 0.52649999
v 0.02350000 0.00900000 0.41000000
v 0.02350000 0.00064705 0.52658516
v 0.02350000 0.00125000 0.52683496
v 0.02350000 0.00064705 0.53141481
v 0.02350000 0.00000000 0.53149998
v 0.02350000 -0.00800000 0.53399998
v 0.02350000 -0.00064705 0.53141481
v 0.02350000 -0.00125000 0.53116506
v 0.02350000 -0.00176777 0.53076774
v 0.02350000 -0.00216506 0.53025001
v 0.02350000 -0.00241481 0.52964705
v 0.02350000 0.00250000 0.52899998
v 0.02350000 0.00241481 0.52964705
v 0.02350000 0.00216506 0.53025001
v 0.02350000 -0.00250000 0.52899998
v 0.02350000 -0.00241481 0.52835298
v 0.02350000 -0.00216506 0.52775002
v 0.02350000 0.00176777 0.52723223
v 0.02350000 0.00216506 0.52775002
v 0.02350000 0.00241481 0.52835298
v 0.03050000 0.00900000 0.53399998
v 0.02350000 0.00900000 0.53399998
v 0.03050000 -0.00800000 0.53399998
v 0.02350000 -0.00800000 0.53399998
v 0.03050000 -0.00064705 0.52658516
v 0.03050000 -0.00125000 0.52683496
v 0.03050000 -0.00800000 0.41000000
v 0.03050000 -0.00800000 0.53399998
v 0.03050000 -0.00176777 0.53076774
v 0.03050000 -0.00125000 0.53116506
v 0.03050000 0.00900000 0.41000000
v 0.03050000 0.00176777 0.52723223
v 0.03050000 0.00125000 0.52683496
v 0.03050000 0.00064705 0.52658516
v 0.03050000 0.00000000 0.52649999
v 0.03050000 -0.00064705 0.53141481
v 0.03050000 0.00000000 0.53149998
v 0.03050000 0.00900000 0.53399998
v 0.03050000 0.00064705 0.53141481
v 0.03050000 0.00125000 0.53116506
v 0.03050000 -0.00250000 0.52899998
v 0.03050000 -0.00241481 0.52964705
v 0.03050000 -0.00216506 0.53025001
v 0.03050000 0.00176777 0.53076774
v 0.03050000 0.00216506 0.53025001
v 0.03050000 0.00241481 0.52964705
v 0.03050000 -0.00176777 0.52723223
v 0.03050000 -0.00216506 0.52775002
v 0.03050000 -0.00241481 0.52835298
v 0.03050000 0.00250000 0.52899998
v 0.03050000 0.00241481 0.52835298
v 0.03050000 0.00216506 0.52775002
v 0.00700000 0.00900000 0.35400000
v 0.03050000 0.00900000 0.41000000
v 0.00700000 -0.00800000 0.35400000
v 0.03050000 -0.00800000 0.41000000
v 0.00700000 0.00900000 0.28900000
v 0.00700000 0.00900000 0.35400000
v 0.00700000 -0.00800000 0.28900000
v 0.00700000 -0.00800000 0.35400000
v -0.00000000 0.00900000 0.28900000
v 0.00700000 0.00900000 0.28900000
v 0.00000000 -0.00600000 0.28900000
v 0.00700000 -0.00800000 0.28900000
v 0.00000000 -0.00800000 0.28900000
v 0.00000000 -0.00600000 0.28900000
v 0.00000000 -0.00800000 0.28900000
v 0.00000000 -0.00600000 0.32400000
v -0.00000000 -0.00800000 0.35400000
v 0.00000000 0.00900000 0.32400000
v -0.00000000 0.00900000 0.35400000
v 0.02350000 0.00900000 0.53399998
v 0.03050000 0.00900000 0.53399998
v 0.02350000 0.00900000 0.41000000
v 0.03050000 0.00900000 0.41000000
v -0.00000000 0.00900000 0.35400000
v 0.00700000 0.00900000 0.35400000
v 0.00000000 0.00900000 0.32400000
v 0.00700000 0.00900000 0.28900000
v -0.00000000 0.00900000 0.28900000
v 0.00000000 -0.00800000 0.28900000
v 0.00700000 -0.00800000 0.28900000
v -0.00000000 -0.00800000 0.35400000
v 0.00700000 -0.00800000 0.35400000
v 0.02350000 -0.00800000 0.41000000
v 0.03050000 -0.00800000 0.41000000
v 0.02350000 -0.00800000 0.53399998
v 0.03050000 -0.00800000 0.53399998
v -0.03500000 -0.00800000 0.28900000
v -0.03500000 -0.00600000 0.28900000
v -0.03500000 -0.00600000 0.32400000
v -0.03500000 0.00900000 0.32400000
v -0.03500000 0.00900000 0.35400000
v -0.03500000 -0.00800000 0.35400000
v -0.03500000 -0.00800000 0.28900000
v -0.04200000 -0.00800000 0.28900000
v -0.03500000 -0.00600000 0.28900000
v -0.04200000 0.00900000 0.28900000
v -0.03500000 0.00900000 0.28900000
v -0.04200000 0.00900000 0.35400000
v -0.04200000 0.00900000 0.28900000
v -0.04200000 -0.00800000 0.35400000
v -0.04200000 -0.00800000 0.28900000
v -0.06550000 0.00900000 0.41000000
v -0.04200000 0.00900000 0.35400000
v -0.06550000 -0.00800000 0.41000000
v -0.04200000 -0.00800000 0.35400000
v -0.06550000 0.00900000 0.53399998
v -0.06550000 0.00176777 0.53076774
v -0.06550000 0.00125000 0.53116506
v -0.06550000 0.00064705 0.53141481
v -0.06550000 0.00000000 0.53149998
v -0.06550000 -0.00800000 0.53399998
v -0.06550000 -0.00064705 0.53141481
v -0.06550000 -0.00125000 0.53116506
v -0.06550000 -0.00800000 0.41000000
v -0.06550000 -0.00176777 0.52723223
v -0.06550000 -0.00125000 0.52683496
v -0.06550000 -0.00176777 0.53076774
v -0.06550000 -0.00216506 0.53025001
v -0.06550000 -0.00241481 0.52964705
v -0.06550000 -0.00064705 0.52658516
v -0.06550000 0.00000000 0.52649999
v -0.06550000 0.00900000 0.41000000
v -0.06550000 0.00064705 0.52658516
v -0.06550000 0.00125000 0.52683496
v -0.06550000 0.00250000 0.52899998
v -0.06550000 0.00241481 0.52964705
v -0.06550000 0.00216506 0.53025001
v -0.06550000 -0.00250000 0.52899998
v -0.06550000 -0.00241481 0.52835298
v -0.06550000 -0.00216506 0.52775002
v -0.06550000 0.00176777 0.52723223
v -0.06550000 0.00216506 0.52775002
v -0.06550000 0.00241481 0.52835298
v -0.05850000 0.00900000 0.53399998
v -0.06550000 0.00900000 0.53399998
v -0.05850000 -0.00800000 0.53399998
v -0.06550000 -0.00800000 0.53399998
v -0.05850000 -0.00800000 0.53399998
v -0.05850000 -0.00176777 0.53076774
v -0.05850000 -0.00125000 0.53116506
v -0.05850000 -0.00064705 0.52658516
v -0.05850000 -0.00125000 0.52683496
v -0.05850000 -0.00800000 0.41000000
v -0.05850000 -0.00064705 0.53141481
v -0.05850000 0.00000000 0.53149998
v -0.05850000 0.00900000 0.53399998
v -0.05850000 0.00064705 0.53141481
v -0.05850000 0.00125000 0.53116506
v -0.05850000 0.00900000 0.41000000
v -0.05850000 0.00176777 0.52723223
v -0.05850000 0.00125000 0.52683496
v -0.05850000 0.00064705 0.52658516
v -0.05850000 0.00000000 0.52649999
v -0.05850000 -0.00250000 0.52899998
v -0.05850000 -0.00241481 0.52964705
v -0.05850000 -0.00216506 0.53025001
v -0.05850000 0.00176777 0.53076774
v -0.05850000 0.00216506 0.53025001
v -0.05850000 0.00241481 0.52964705
v -0.05850000 -0.00176777 0.52723223
v -0.05850000 -0.00216506 0.52775002
v -0.05850000 -0.00241481 0.52835298
v -0.05850000 0.00250000 0.52899998
v -0.05850000 0.00241481 0.52835298
v -0.05850000 0.00216506 0.52775002
v -0.03500000 0.00900000 0.35400000
v -0.05850000 0.00900000 0.41000000
v -0.03500000 -0.00800000 0.35400000
v -0.05850000 -0.00800000 0.41000000
v -0.03500000 0.00900000 0.28900000
v -0.04200000 0.00900000 0.28900000
v -0.03500000 0.00900000 0.32400000
v -0.04200000 0.00900000 0.35400000
v -0.06550000 0.00900000 0.53399998
v -0.05850000 0.00900000 0.53399998
v -0.06550000 0.00900000 0.41000000
v -0.05850000 0.00900000 0.41000000
v -0.03500000 0.00900000 0.35400000
v -0.04200000 -0.00800000 0.28900000
v -0.03500000 -0.00800000 0.28900000
v -0.04200000 -0.00800000 0.35400000
v -0.03500000 -0.00800000 0.35400000
v -0.06550000 -0.00800000 0.41000000
v -0.05850000 -0.00800000 0.41000000
v -0.06550000 -0.00800000 0.53399998
v -0.05850000 -0.00800000 0.53399998
v -0.06550000 -0.00064705 0.52658516
v -0.05850000 0.00000000 0.52649999
v -0.06550000 0.00000000 0.52649999
v -0.05850000 0.00064705 0.52658516
v -0.06550000 0.00064705 0.52658516
v -0.05850000 0.00125000 0.52683496
v -0.06550000 0.00125000 0.52683496
v -0.05850000 0.00176777 0.52723223
v -0.06550000 0.00176777 0.52723223
v -0.05850000 0.00216506 0.52775002
v -0.06550000 0.00216506 0.52775002
v -0.05850000 0.00241481 0.52835298
v -0.06550000 0.00241481 0.52835298
v -0.05850000 0.00250000 0.52899998
v -0.06550000 0.00250000 0.52899998
v -0.05850000 0.00241481 0.52964705
v -0.06550000 0.00241481 0.52964705
v -0.05850000 0.00216506 0.53025001
v -0.06550000 0.00216506 0.53025001
v -0.05850000 0.00176777 0.53076774
v -0.06550000 0.00176777 0.53076774
v -0.05850000 0.00125000 0.53116506
v -0.06550000 0.00125000 0.53116506
v -0.05850000 0.00064705 0.53141481
v -0.06550000 0.00064705 0.53141481
v -0.05850000 0.00000000 0.53149998
v -0.06550000 0.00000000 0.53149998
v -0.05850000 -0.00064705 0.53141481
v -0.06550000 -0.00064705 0.53141481
v -0.05850000 -0.00125000 0.53116506
v -0.06550000 -0.00125000 0.53116506
v -0.05850000 -0.00176777 0.53076774
v -0.06550000 -0.00176777 0.53076774
v -0.05850000 -0.00216506 0.53025001
v -0.06550000 -0.00216506 0.53025001
v -0.05850000 -0.00241481 0.52964705
v -0.06550000 -0.00241481 0.52964705
v -0.05850000 -0.00250000 0.52899998
v -0.06550000 -0.00250000 0.52899998
v -0.05850000 -0.00241481 0.52835298
v -0.06550000 -0.00241481 0.52835298
v -0.05850000 -0.00216506 0.52775002
v -0.06550000 -0.00216506 0.52775002
v -0.05850000 -0.00176777 0.52723223
v -0.06550000 -0.00176777 0.52723223
v -0.05850000 -0.00125000 0.52683496
v -0.06550000 -0.00125000 0.52683496
v -0.05850000 -0.00064705 0.52658516
v 0.02350000 -0.00064705 0.52658516
v 0.03050000 0.00000000 0.52649999
v 0.02350000 0.00000000 0.52649999
v 0.03050000 0.00064705 0.52658516
v 0.02350000 0.00064705 0.52658516
v 0.03050000 0.00125000 0.52683496
v 0.02350000 0.00125000 0.52683496
v 0.03050000 0.00176777 0.52723223
v 0.02350000 0.00176777 0.52723223
v 0.03050000 0.00216506 0.52775002
v 0.02350000 0.00216506 0.52775002
v 0.03050000 0.00241481 0.52835298
v 0.02350000 0.00241481 0.52835298
v 0.03050000 0.00250000 0.52899998
v 0.02350000 0.00250000 0.52899998
v 0.03050000 0.00241481 0.52964705
v 0.02350000 0.00241481 0.52964705
v 0.03050000 0.00216506 0.53025001
v 0.02350000 0.00216506 0.53025001
v 0.03050000 0.00176777 0.53076774
v 0.02350000 0.00176777 0.53076774
v 0.03050000 0.00125000 0.53116506
v 0.02350000 0.00125000 0.53116506
v 0.03050000 0.00064705 0.53141481
v 0.02350000 0.00064705 0.53141481
v 0.03050000 0.00000000 0.53149998
v 0.02350000 0.00000000 0.53149998
v 0.03050000 -0.00064705 0.53141481
v 0.02350000 -0.00064705 0.53141481
v 0.03050000 -0.00125000 0.53116506
v 0.02350000 -0.00125000 0.53116506
v 0.03050000 -0.00176777 0.53076774
v 0.02350000 -0.00176777 0.53076774
v 0.03050000 -0.00216506 0.53025001
v 0.02350000 -0.00216506 0.53025001
v 0.03050000 -0.00241481 0.52964705
v 0.02350000 -0.00241481 0.52964705
v 0.03050000 -0.00250000 0.52899998
v 0.02350000 -0.00250000 0.52899998
v 0.03050000 -0.00241481 0.52835298
v 0.02350000 -0.00241481 0.52835298
v 0.03050000 -0.00216506 0.52775002
v 0.02350000 -0.00216506 0.52775002
v 0.03050000 -0.00176777 0.52723223
v 0.02350000 -0.00176777 0.52723223
v 0.03050000 -0.00125000 0.52683496
v 0.02350000 -0.00125000 0.52683496
v 0.03050000 -0.00064705 0.52658516
f 1 2 3
f 3 2 4
f 3 4 5
f 3 6 1
f 1 6 7
f 1 7 8
f 8 7 9
f 8 9 10
f 11 12 13
f 13 12 14
f 13 14 15
f 15 14 16
f 15 16 17
f 18 19 20
f 20 19 21
f 20 21 11
f 11 21 22
f 11 22 12
f 17 16 23
f 23 16 24
f 23 24 25
f 20 26 18
f 18 26 27
f 18 27 28
f 4 29 5
f 5 29 30
f 5 30 31
f 31 30 32
f 31 32 33
f 33 32 28
f 33 28 34
f 34 28 27
f 35 36 37
f 37 38 35
f 35 38 39
f 35 39 40
f 40 39 41
f 40 41 42
f 42 41 43
f 44 45 46
f 46 45 47
f 46 47 43
f 43 47 48
f 43 48 42
f 46 49 44
f 44 49 50
f 44 50 51
f 52 53 54
f 54 53 55
f 54 55 56
f 57 58 59
f 59 58 52
f 59 52 60
f 60 52 54
f 50 61 51
f 51 61 62
f 51 62 63
f 63 62 64
f 63 64 65
f 65 64 56
f 65 56 66
f 66 56 55
f 67 68 69
f 70 71 72
f 72 71 73
f 72 73 74
f 74 73 75
f 74 75 76
f 76 75 77
f 76 77 78
f 78 77 79
f 78 79 80
f 81 67 70
f 70 67 69
f 70 69 71
f 82 83 84
f 85 86 84
f 87 88 81
f 89 90 91
f 92 93 94
f 94 93 95
f 96 97 84
f 98 99 81
f 100 101 102
f 91 90 86
f 86 90 103
f 86 103 84
f 104 84 105
f 105 84 106
f 105 106 94
f 94 106 107
f 94 107 92
f 104 108 84
f 84 108 109
f 84 109 110
f 111 112 84
f 84 112 113
f 84 113 82
f 97 114 84
f 84 114 115
f 84 115 85
f 116 117 118
f 118 117 119
f 87 81 120
f 121 102 67
f 101 122 102
f 102 122 123
f 102 123 67
f 67 123 124
f 67 124 125
f 125 124 126
f 125 126 127
f 127 126 128
f 110 129 84
f 84 129 130
f 84 130 111
f 88 131 81
f 81 131 132
f 81 132 94
f 99 133 81
f 81 133 134
f 81 134 67
f 67 134 135
f 67 135 136
f 136 137 67
f 67 137 138
f 67 138 121
f 100 102 139
f 139 102 140
f 139 140 91
f 91 140 141
f 91 141 89
f 116 118 83
f 83 118 142
f 83 142 84
f 84 142 143
f 84 143 96
f 119 144 118
f 118 144 145
f 118 145 81
f 81 145 146
f 81 146 120
f 95 147 94
f 94 147 148
f 94 148 81
f 81 148 149
f 81 149 98
f 91 86 150
f 91 150 151
f 151 150 152
f 151 152 153
f 153 152 154
f 153 154 155
f 155 154 156
f 155 156 157
f 157 156 158
f 157 158 159
f 159 158 160
f 159 160 161
f 161 160 162
f 162 160 163
f 162 163 164
f 162 164 165
f 165 164 166
f 165 166 167
f 167 166 168
f 167 168 169
f 169 168 170
f 169 170 171
f 171 170 172
f 171 172 173
f 173 172 174
f 173 174 175
f 176 177 178
f 179 180 174
f 180 181 174
f 174 181 182
f 174 182 175
f 178 183 176
f 176 183 184
f 176 184 174
f 174 184 185
f 174 185 179
f 186 187 188
f 188 187 189
f 188 189 190
f 191 192 193
f 194 195 196
f 196 197 194
f 194 197 198
f 194 198 199
f 199 200 194
f 194 200 201
f 194 201 191
f 191 201 202
f 191 202 192
f 203 201 204
f 204 201 205
f 204 205 188
f 188 205 206
f 188 206 186
f 203 207 201
f 201 207 208
f 201 208 209
f 210 211 201
f 201 211 212
f 201 212 202
f 193 213 191
f 191 213 214
f 191 214 215
f 216 217 218
f 218 217 219
f 174 220 221
f 209 222 201
f 201 222 223
f 201 223 210
f 174 224 220
f 220 224 225
f 220 225 226
f 226 225 227
f 228 176 229
f 229 176 174
f 229 174 230
f 230 174 221
f 228 231 176
f 176 231 232
f 176 232 194
f 194 232 233
f 194 233 195
f 215 234 191
f 191 234 235
f 191 235 217
f 217 235 236
f 217 236 219
f 227 225 237
f 237 225 238
f 237 238 190
f 190 238 239
f 190 239 240
f 216 241 217
f 217 241 188
f 217 188 242
f 242 188 190
f 242 190 243
f 243 190 240
f 194 191 244
f 245 246 194
f 194 244 245
f 245 244 247
f 245 247 248
f 248 247 249
f 248 249 250
f 250 249 251
f 250 251 252
f 252 251 253
f 252 253 254
f 254 253 255
f 254 255 256
f 79 256 80
f 80 256 255
f 257 258 259
f 257 259 260
f 260 259 261
f 260 261 262
f 262 261 263
f 262 263 264
f 264 263 265
f 264 265 266
f 266 265 267
f 266 267 268
f 268 267 269
f 268 269 270
f 271 258 272
f 272 258 257
f 273 274 275
f 273 275 276
f 276 275 277
f 276 277 278
f 278 277 279
f 278 279 280
f 280 279 281
f 280 281 282
f 282 281 283
f 282 283 284
f 284 283 271
f 284 271 272
f 285 286 287
f 285 287 288
f 289 290 287
f 291 292 273
f 293 274 273
f 294 295 296
f 297 298 299
f 299 298 300
f 299 300 301
f 297 299 302
f 302 299 303
f 302 303 304
f 304 303 305
f 304 305 306
f 307 308 309
f 309 308 310
f 286 311 287
f 287 311 312
f 287 312 299
f 290 313 287
f 287 313 314
f 287 314 296
f 296 314 315
f 296 315 316
f 316 317 296
f 296 317 318
f 296 318 294
f 319 320 273
f 273 320 321
f 273 321 322
f 323 324 273
f 324 325 273
f 273 325 326
f 273 326 293
f 310 327 309
f 309 327 328
f 309 328 287
f 287 328 329
f 287 329 288
f 301 330 299
f 299 330 331
f 299 331 287
f 287 331 332
f 287 332 289
f 333 334 295
f 295 334 335
f 335 336 295
f 295 336 337
f 295 337 296
f 296 337 338
f 296 338 339
f 306 340 304
f 304 340 341
f 304 341 342
f 333 295 343
f 343 295 344
f 343 344 273
f 273 344 345
f 273 345 291
f 323 273 346
f 346 273 322
f 346 322 347
f 347 322 348
f 347 348 309
f 309 348 349
f 309 349 307
f 292 350 273
f 273 350 304
f 273 304 319
f 319 304 342
f 351 352 353
f 351 353 354
f 354 353 355
f 354 355 356
f 356 355 357
f 356 357 358
f 358 357 359
f 358 359 360
f 360 359 361
f 360 361 362
f 362 361 287
f 362 287 296
f 351 363 352
f 352 363 364
f 365 366 367
f 365 367 368
f 368 367 369
f 368 369 370
f 370 369 371
f 370 371 372
f 372 371 373
f 372 373 374
f 374 373 375
f 374 375 376
f 376 375 364
f 376 364 363
f 377 378 379
f 377 379 380
f 378 381 379
f 379 381 382
f 379 382 383
f 380 379 384
f 384 379 385
f 384 385 386
f 387 388 366
f 366 388 389
f 366 389 390
f 391 392 393
f 393 392 394
f 269 395 396
f 397 398 270
f 399 400 365
f 365 400 401
f 365 401 402
f 269 403 395
f 395 403 404
f 395 404 405
f 405 404 406
f 396 407 269
f 269 407 408
f 269 408 270
f 270 408 409
f 270 409 397
f 386 410 384
f 384 410 411
f 384 411 412
f 413 414 365
f 365 414 415
f 365 415 399
f 399 415 416
f 399 416 417
f 417 418 399
f 399 418 419
f 399 419 420
f 390 421 366
f 366 421 422
f 366 422 392
f 392 422 423
f 392 423 394
f 406 404 424
f 424 404 425
f 424 425 383
f 383 425 426
f 383 426 427
f 412 428 384
f 384 428 429
f 384 429 430
f 402 431 365
f 365 431 432
f 365 432 384
f 391 433 392
f 392 433 379
f 392 379 434
f 434 379 383
f 434 383 435
f 435 383 427
f 420 419 398
f 398 419 436
f 398 436 270
f 430 437 384
f 384 437 438
f 384 438 365
f 365 438 439
f 365 439 366
f 366 439 440
f 366 440 387
f 441 442 443
f 443 442 444
f 445 446 447
f 445 447 448
f 448 447 449
f 448 449 450
f 450 449 451
f 450 451 452
f 452 451 453
f 452 453 454
f 454 453 455
f 454 455 456
f 456 455 444
f 456 444 442
f 457 458 459
f 459 458 460
f 459 460 461
f 462 463 464
f 464 463 465
f 464 465 466
f 467 468 469
f 446 445 470
f 470 445 462
f 470 462 471
f 471 462 464
f 460 472 461
f 461 472 473
f 461 473 474
f 474 473 475
f 474 475 476
f 476 475 467
f 476 467 477
f 477 467 469
f 478 479 480
f 480 479 481
f 480 481 482
f 482 481 466
f 482 466 483
f 483 466 465
f 459 484 457
f 457 484 485
f 457 485 478
f 478 485 486
f 478 486 479
f 487 488 489
f 489 488 490
f 469 468 491
f 469 491 492
f 492 491 493
f 492 493 494
f 494 493 495
f 494 495 496
f 496 495 497
f 496 497 498
f 498 497 499
f 498 499 500
f 500 499 487
f 500 487 489
f 501 502 503
f 503 502 504
f 503 504 505
f 505 504 506
f 505 506 507
f 507 506 508
f 507 508 509
f 509 508 510
f 509 510 511
f 511 510 512
f 511 512 513
f 513 512 514
f 513 514 515
f 515 514 516
f 515 516 517
f 517 516 518
f 517 518 519
f 519 518 520
f 519 520 521
f 521 520 522
f 521 522 523
f 523 522 524
f 523 524 525
f 525 524 526
f 525 526 527
f 527 526 528
f 527 528 529
f 529 528 530
f 529 530 531
f 531 530 532
f 531 532 533
f 533 532 534
f 533 534 535
f 535 534 536
f 535 536 537
f 537 536 538
f 537 538 539
f 539 538 540
f 539 540 541
f 541 540 542
f 541 542 543
f 543 542 544
f 543 544 545
f 545 544 546
f 545 546 547
f 547 546 548
f 547 548 501
f 501 548 502
f 549 550 551
f 551 550 552
f 551 552 553
f 553 552 554
f 553 554 555
f 555 554 556
f 555 556 557
f 557 556 558
f 557 558 559
f 559 558 560
f 559 560 561
f 561 560 562
f 561 562 563
f 563 562 564
f 563 564 565
f 565 564 566
f 565 566 567
f 567 566 568
f 567 568 569
f 569 568 570
f 569 570 571
f 571 570 572
f 571 572 573
f 573 572 574
f 573 574 575
f 575 574 576
f 575 576 577
f 577 576 578
f 577 578 579
f 579 578 580
f 579 580 581
f 581 580 582
f 581 582 583
f 583 582 584
f 583 584 585
f 585 584 586
f 585 586 587
f 587 586 588
f 587 588 589
f 589 588 590
f 589 590 591
f 591 590 592
f 591 592 593
f 593 592 594
f 593 594 595
f 595 594 596
f 595 596 549
f 549 596 550
f 597 598 599
f 599 598 600
f 599 600 601
f 601 600 602
f 601 602 603
f 603 602 604
f 603 604 605
f 605 604 606
f 605 606 607
f 607 606 608
f 607 608 609
f 609 608 610
f 609 610 611
f 611 610 612
f 611 612 613
f 613 612 614
f 613 614 615
f 615 614 616
f 615 616 617
f 617 616 618
f 617 618 619
f 619 618 620
f 619 620 621
f 621 620 622
f 621 622 623
f 623 622 624
f 623 624 625
f 625 624 626
f 625 626 627
f 627 626 628
f 627 628 629
f 629 628 630
f 629 630 631
f 631 630 632
f 631 632 633
f 633 632 634
f 633 634 635
f 635 634 636
f 635 636 637
f 637 636 638
f 637 638 639
f 639 638 640
f 639 640 641
f 641 640 642
f 641 642 643
f 643 642 644
f 643 644 597
f 597 644 598
f 645 646 647
f 647 646 648
f 647 648 649
f 649 648 650
f 649 650 651
f 651 650 652
f 651 652 653
f 653 652 654
f 653 654 655
f 655 654 656
f 655 656 657
f 657 656 658
f 657 658 659
f 659 658 660
f 659 660 661
f 661 660 662
f 661 662 663
f 663 662 664
f 663 664 665
f 665 664 666
f 665 666 667
f 667 666 668
f 667 668 669
f 669 668 670
f 669 670 671
f 671 670 672
f 671 672 673
f 673 672 674
f 673 674 675
f 675 674 676
f 675 676 677
f 677 676 678
f 677 678 679
f 679 678 680
f 679 680 681
f 681 680 682
f 681 682 683
f 683 682 684
f 683 684 685
f 685 684 686
f 685 686 687
f 687 686 688
f 687 688 689
f 689 688 690
f 689 690 691
f 691 690 692
f 691 692 645
f 645 692 646
f 693 694 695
f 696 697 698
f 698 697 699
f 698 699 700
f 695 701 693
f 693 701 702
f 693 702 703
f 703 702 704
f 703 704 705
f 705 704 706
f 707 708 709
f 709 708 710
f 709 710 706
f 706 710 711
f 706 711 705
f 712 713 714
f 700 699 714
f 714 699 715
f 714 715 712
f 709 716 707
f 707 716 717
f 707 717 718
f 712 719 713
f 713 719 720
f 713 720 721
f 721 720 722
f 721 722 723
f 723 722 718
f 723 718 724
f 724 718 717
f 725 726 727
f 725 727 728
f 728 727 729
f 728 729 730
f 730 729 731
f 730 731 732
f 732 731 733
f 732 733 734
f 734 733 735
f 734 735 736
f 736 735 695
f 736 695 694
f 725 737 726
f 726 737 738
f 739 740 741
f 739 741 742
f 742 741 743
f 742 743 744
f 744 743 745
f 744 745 746
f 746 745 747
f 746 747 748
f 748 747 749
f 748 749 750
f 750 749 697
f 750 697 696
f 751 740 752
f 752 740 739
f 753 754 755
f 755 754 756
f 757 758 759
f 760 761 762
f 759 763 757
f 757 763 764
f 757 764 765
f 765 764 766
f 765 766 767
f 762 768 760
f 760 768 769
f 760 769 770
f 770 769 771
f 770 771 772
f 772 773 770
f 770 773 774
f 770 774 775
f 776 777 760
f 760 777 778
f 760 778 761
f 775 779 770
f 770 779 780
f 770 780 757
f 757 780 781
f 757 781 758
f 767 782 765
f 765 782 783
f 765 783 760
f 760 783 784
f 760 784 776
f 785 786 787
f 787 786 788
f 789 790 791
f 792 793 794
f 795 796 791
f 791 796 797
f 797 798 791
f 791 798 799
f 791 799 789
f 794 800 792
f 792 800 801
f 792 801 802
f 802 801 803
f 802 803 804
f 805 806 792
f 792 806 807
f 792 807 793
f 804 808 802
f 802 808 809
f 802 809 810
f 790 811 791
f 791 811 812
f 791 812 792
f 792 812 813
f 792 813 805
f 810 814 802
f 802 814 815
f 802 815 795
f 795 815 816
f 795 816 796
f 817 818 819
f 819 818 820
f 821 822 823
f 823 822 824
f 825 826 827
f 827 826 828
f 827 828 829
f 830 831 832
f 832 831 833
f 832 833 834
f 834 833 835
f 836 837 838
f 838 837 839
f 838 839 840
f 840 839 841
f 840 841 842
f 842 841 843
f 842 843 844
f 845 846 847
f 847 846 848
f 847 848 849
f 849 848 850
f 849 850 851
f 851 850 852
f 853 854 855
f 856 857 855
f 855 857 858
f 855 858 853
f 859 860 861
f 861 860 862
f 861 862 863
f 864 865 866
f 866 865 867
f 868 869 870
f 870 869 871
f 872 873 874
f 874 875 872
f 872 875 876
f 872 876 877
f 877 876 878
f 877 878 879
f 880 881 882
f 879 883 877
f 877 883 884
f 877 884 885
f 882 886 880
f 880 886 887
f 880 887 888
f 888 887 889
f 888 889 890
f 891 892 872
f 872 892 893
f 872 893 873
f 885 894 877
f 877 894 895
f 877 895 880
f 880 895 896
f 880 896 881
f 890 897 888
f 888 897 898
f 888 898 872
f 872 898 899
f 872 899 891
f 900 901 902
f 902 901 903
f 904 905 906
f 907 908 909
f 906 910 904
f 904 910 911
f 904 911 912
f 912 911 913
f 912 913 914
f 915 916 909
f 909 916 917
f 917 918 909
f 909 918 919
f 909 919 907
f 920 921 904
f 904 921 922
f 904 922 905
f 914 923 912
f 912 923 924
f 912 924 925
f 908 926 909
f 909 926 927
f 909 927 904
f 904 927 928
f 904 928 920
f 925 929 912
f 912 929 930
f 912 930 915
f 915 930 931
f 915 931 916
f 932 933 934
f 934 933 935
f 936 937 938
f 938 937 939
f 940 941 942
f 942 941 943
f 942 943 939
f 939 943 944
f 939 944 938
f 945 946 947
f 947 946 948
f 947 948 949
f 949 948 950
f 949 950 951
f 951 950 952
f 953 954 955
f 955 954 956
f 955 956 957
f 957 956 958
f 957 958 959
f 959 958 960
f 959 960 961
f 961 960 962
f 961 962 963
f 963 962 964
f 963 964 965
f 965 964 966
f 965 966 967
f 967 966 968
f 967 968 969
f 969 968 970
f 969 970 971
f 971 970 972
f 971 972 973
f 973 972 974
f 973 974 975
f 975 974 976
f 975 976 977
f 977 976 978
f 977 978 979
f 979 978 980
f 979 980 981
f 981 980 982
f 981 982 983
f 983 982 984
f 983 984 985
f 985 984 986
f 985 986 987
f 987 986 988
f 987 988 989
f 989 988 990
f 989 990 991
f 991 990 992
f 991 992 993
f 993 992 994
f 993 994 995
f 995 994 996
f 995 996 997
f 997 996 998
f 997 998 999
f 999 998 1000
f 999 1000 953
f 953 1000 954
f 1001 1002 1003
f 1003 1002 1004
f 1003 1004 1005
f 1005 1004 1006
f 1005 1006 1007
f 1007 1006 1008
f 1007 1008 1009
f 1009 1008 1010
f 1009 1010 1011
f 1011 1010 1012
f 1011 1012 1013
f 1013 1012 1014
f 1013 1014 1015
f 1015 1014 1016
f 1015 1016 1017
f 1017 1016 1018
f 1017 1018 1019
f 1019 1018 1020
f 1019 1020 1021
f 1021 1020 1022
f 1021 1022 1023
f 1023 1022 1024
f 1023 1024 1025
f 1025 1024 1026
f 1025 1026 1027
f 1027 1026 1028
f 1027 1028 1029
f 1029 1028 1030
f 1029 1030 1031
f 1031 1030 1032
f 1031 1032 1033
f 1033 1032 1034
f 1033 1034 1035
f 1035 1034 1036
f 1035 1036 1037
f 1037 1036 1038
f 1037 1038 1039
f 1039 1038 1040
f 1039 1040 1041
f 1041 1040 1042
f 1041 1042 1043
f 1043 1042 1044
f 1043 1044 1045
f 1045 1044 1046
f 1045 1046 1047
f 1047 1046 1048
f 1047 1048 1001
f 1001 1048 1002

