# https://github.com/mikedh/trimesh
mtllib material.mtl

o ActorShape0_0-Mesh
usemtl material_0
v -0.00000000 0.00650000 0.34400001
v -0.00000000 0.00650000 0.00000000
v -0.00006815 0.00701764 0.00000000
v -0.00006815 0.00701764 0.37400001
v -0.00000000 0.00650000 0.37400001
v -0.00026795 0.00750000 0.00000000
v -0.00026795 0.00750000 0.37400001
v -0.00058579 0.00791421 0.00000000
v -0.00058579 0.00791421 0.37400001
v -0.00100000 0.00823205 0.00000000
v -0.00100000 0.00823205 0.37400001
v -0.00148236 0.00843185 0.00000000
v -0.00148236 0.00843185 0.37400001
v -0.00200000 0.00850000 0.00000000
v -0.00200000 0.00850000 0.37400001
v -0.01500000 0.00850000 0.37400001
v -0.01500000 0.00850000 0.00000000
v -0.01700000 0.00650000 0.34400001
v -0.01700000 0.00650000 0.37400001
v -0.01693185 0.00701764 0.37400001
v -0.01693185 0.00701764 0.00000000
v -0.01673205 0.00750000 0.37400001
v -0.01673205 0.00750000 0.00000000
v -0.01641421 0.00791421 0.37400001
v -0.01641421 0.00791421 0.00000000
v -0.01600000 0.00823205 0.37400001
v -0.01600000 0.00823205 0.00000000
v -0.01551764 0.00843185 0.37400001
v -0.01551764 0.00843185 0.00000000
v -0.01700000 0.00650000 0.00000000
v -0.01700000 -0.00650000 0.34400001
v -0.01700000 -0.00125000 0.01116506
v -0.01700000 -0.00176777 0.01076777
v -0.01700000 -0.00241481 0.00835295
v -0.01700000 -0.00216506 0.00775000
v -0.01700000 -0.00650000 0.00000000
v -0.01700000 -0.00176777 0.00723223
v -0.01700000 -0.00125000 0.00683494
v -0.01700000 0.00176777 0.01076777
v -0.01700000 0.00125000 0.01116506
v -0.01700000 0.00125000 0.00683494
v -0.01700000 0.00176777 0.00723223
v -0.01700000 0.00216506 0.00775000
v -0.01700000 0.00241481 0.00835295
v -0.01700000 0.00064705 0.01141481
v -0.01700000 -0.00000000 0.01150000
v -0.01700000 -0.00064705 0.01141481
v -0.01700000 -0.00216506 0.01025000
v -0.01700000 -0.00241481 0.00964705
v -0.01700000 -0.00250000 0.00900000
v -0.01700000 -0.00064705 0.00658518
v -0.01700000 -0.00000000 0.00650000
v -0.01700000 0.00064705 0.00658518
v -0.01700000 0.00250000 0.00900000
v -0.01700000 0.00241481 0.00964705
v -0.01700000 0.00216506 0.01025000
v -0.01693185 -0.00701764 0.00000000
v -0.01693185 -0.00701764 0.37400001
v -0.01700000 -0.00650000 0.37400001
v -0.01673205 -0.00750000 0.00000000
v -0.01673205 -0.00750000 0.37400001
v -0.01641421 -0.00791421 0.00000000
v -0.01641421 -0.00791421 0.37400001
v -0.01600000 -0.00823205 0.00000000
v -0.01600000 -0.00823205 0.37400001
v -0.01551764 -0.00843185 0.00000000
v -0.01551764 -0.00843185 0.37400001
v -0.01500000 -0.00850000 0.00000000
v -0.01500000 -0.00850000 0.37400001
v -0.00200000 -0.00850000 0.37400001
v -0.00200000 -0.00850000 0.00000000
v 0.00000000 -0.00650000 0.34400001
v 0.00000000 -0.00650000 0.37400001
v -0.00006815 -0.00701764 0.37400001
v -0.00006815 -0.00701764 0.00000000
v -0.00026795 -0.00750000 0.37400001
v -0.00026795 -0.00750000 0.00000000
v -0.00058579 -0.00791421 0.37400001
v -0.00058579 -0.00791421 0.00000000
v -0.00100000 -0.00823205 0.37400001
v -0.00100000 -0.00823205 0.00000000
v -0.00148236 -0.00843185 0.37400001
v -0.00148236 -0.00843185 0.00000000
v 0.00000000 -0.00650000 0.00000000
v 0.00000000 0.00241481 0.00835295
v 0.00000000 0.00216506 0.00775000
v 0.00000000 0.00176777 0.00723223
v 0.00000000 0.00125000 0.00683494
v 0.00000000 0.00064705 0.00658518
v 0.00000000 -0.00000000 0.00650000
v 0.00000000 -0.00064705 0.00658518
v 0.00000000 -0.00125000 0.00683494
v 0.00000000 -0.00176777 0.00723223
v 0.00000000 -0.00216506 0.00775000
v 0.00000000 -0.00241481 0.00835295
v 0.00000000 0.00125000 0.01116506
v 0.00000000 0.00176777 0.01076777
v 0.00000000 -0.00125000 0.01116506
v 0.00000000 -0.00064705 0.01141481
v 0.00000000 0.00216506 0.01025000
v 0.00000000 0.00241481 0.00964705
v 0.00000000 0.00250000 0.00900000
v 0.00000000 -0.00250000 0.00900000
v 0.00000000 -0.00241481 0.00964705
v 0.00000000 -0.00216506 0.01025000
v 0.00000000 -0.00176777 0.01076777
v 0.00000000 -0.00000000 0.01150000
v 0.00000000 0.00064705 0.01141481
v -0.00200000 -0.00850000 0.37400001
v -0.00200000 0.00850000 0.37400001
v -0.01500000 -0.00850000 0.37400001
v -0.01700000 0.00650000 0.37400001
v -0.01700000 -0.00650000 0.37400001
v -0.00148236 -0.00843185 0.37400001
v -0.00026795 -0.00750000 0.37400001
v -0.00100000 -0.00823205 0.37400001
v -0.00058579 -0.00791421 0.37400001
v -0.00006815 -0.00701764 0.37400001
v 0.00000000 -0.00650000 0.37400001
v -0.00000000 0.00650000 0.37400001
v -0.00006815 0.00701764 0.37400001
v -0.00100000 0.00823205 0.37400001
v -0.00148236 0.00843185 0.37400001
v -0.00058579 0.00791421 0.37400001
v -0.00026795 0.00750000 0.37400001
v -0.01673205 0.00750000 0.37400001
v -0.01551764 0.00843185 0.37400001
v -0.01641421 0.00791421 0.37400001
v -0.01600000 0.00823205 0.37400001
v -0.01500000 0.00850000 0.37400001
v -0.01693185 0.00701764 0.37400001
v -0.01673205 -0.00750000 0.37400001
v -0.01641421 -0.00791421 0.37400001
v -0.01600000 -0.00823205 0.37400001
v -0.01693185 -0.00701764 0.37400001
v -0.01551764 -0.00843185 0.37400001
v -0.01700000 -0.00650000 0.00000000
v -0.01700000 0.00650000 0.00000000
v -0.01500000 -0.00850000 0.00000000
v -0.01693185 -0.00701764 0.00000000
v -0.01600000 -0.00823205 0.00000000
v -0.01641421 -0.00791421 0.00000000
v -0.01673205 -0.00750000 0.00000000
v -0.00026795 0.00750000 0.00000000
v -0.00200000 0.00850000 0.00000000
v -0.00058579 0.00791421 0.00000000
v -0.00148236 0.00843185 0.00000000
v -0.00100000 0.00823205 0.00000000
v -0.00000000 0.00650000 0.00000000
v 0.00000000 -0.00650000 0.00000000
v -0.00200000 -0.00850000 0.00000000
v -0.00006815 -0.00701764 0.00000000
v -0.00026795 -0.00750000 0.00000000
v -0.01551764 -0.00843185 0.00000000
v -0.00006815 0.00701764 0.00000000
v -0.01500000 0.00850000 0.00000000
v -0.01551764 0.00843185 0.00000000
v -0.01693185 0.00701764 0.00000000
v -0.01673205 0.00750000 0.00000000
v -0.01641421 0.00791421 0.00000000
v -0.01600000 0.00823205 0.00000000
v -0.00058579 -0.00791421 0.00000000
v -0.00100000 -0.00823205 0.00000000
v -0.00148236 -0.00843185 0.00000000
v 0.00000000 0.00850000 0.37400001
v 0.00000000 0.00850000 0.34400001
v -0.00000000 0.00650000 0.37400001
v -0.00000000 0.00650000 0.34400001
v -0.00000000 -0.00850000 0.37400001
v 0.02950000 -0.00850000 0.41400000
v 0.00000000 -0.00650000 0.37400001
v 0.02950000 0.00850000 0.41400000
v -0.00000000 0.00650000 0.37400001
v 0.00000000 0.00850000 0.37400001
v 0.00000000 -0.00650000 0.34400001
v 0.00000000 -0.00850000 0.34400001
v 0.00000000 -0.00650000 0.37400001
v -0.00000000 -0.00850000 0.37400001
v 0.00000000 0.00850000 0.34400001
v 0.00700000 0.00850000 0.34400001
v -0.00000000 0.00650000 0.34400001
v 0.00700000 -0.00850000 0.34400001
v 0.00000000 -0.00650000 0.34400001
v 0.00000000 -0.00850000 0.34400001
v 0.00700000 -0.00850000 0.37400001
v 0.00700000 -0.00850000 0.34400001
v 0.00700000 0.00850000 0.37400001
v 0.00700000 0.00850000 0.34400001
v 0.03650000 -0.00850000 0.41299999
v 0.00700000 -0.00850000 0.37400001
v 0.03650000 0.00850000 0.41299999
v 0.00700000 0.00850000 0.37400001
v 0.03650000 0.00064705 0.53141481
v 0.03650000 0.00125000 0.53116506
v 0.03650000 0.00350000 0.53399998
v 0.03650000 0.00125000 0.52683496
v 0.03650000 0.00064705 0.52658516
v 0.03650000 0.00850000 0.41299999
v 0.03650000 0.00000000 0.52649999
v 0.03650000 -0.00850000 0.41299999
v 0.03650000 -0.00064705 0.52658516
v 0.03650000 -0.00125000 0.52683496
v 0.03650000 -0.00176777 0.52723223
v 0.03650000 -0.00850000 0.52899998
v 0.03650000 -0.00216506 0.52775002
v 0.03650000 -0.00241481 0.52835298
v 0.03650000 -0.00176777 0.53076774
v 0.03650000 -0.00125000 0.53116506
v 0.03650000 -0.00350000 0.53399998
v 0.03650000 -0.00064705 0.53141481
v 0.03650000 0.00000000 0.53149998
v 0.03650000 0.00250000 0.52899998
v 0.03650000 0.00241481 0.52835298
v 0.03650000 0.00850000 0.52899998
v 0.03650000 0.00216506 0.52775002
v 0.03650000 0.00176777 0.52723223
v 0.03650000 -0.00250000 0.52899998
v 0.03650000 -0.00241481 0.52964705
v 0.03650000 -0.00216506 0.53025001
v 0.03650000 0.00176777 0.53076774
v 0.03650000 0.00216506 0.53025001
v 0.03650000 0.00241481 0.52964705
v 0.02950000 -0.00350000 0.53399998
v 0.03650000 -0.00350000 0.53399998
v 0.02950000 0.00350000 0.53399998
v 0.03650000 0.00350000 0.53399998
v 0.02950000 0.00850000 0.52899998
v 0.02950000 0.00850000 0.41400000
v 0.02950000 0.00350000 0.53399998
v 0.02950000 -0.00850000 0.41400000
v 0.02950000 -0.00064705 0.52658516
v 0.02950000 0.00000000 0.52649999
v 0.02950000 -0.00125000 0.52683496
v 0.02950000 0.00064705 0.52658516
v 0.02950000 0.00125000 0.52683496
v 0.02950000 0.00176777 0.52723223
v 0.02950000 0.00241481 0.52964705
v 0.02950000 0.00216506 0.53025001
v 0.02950000 0.00176777 0.53076774
v 0.02950000 0.00125000 0.53116506
v 0.02950000 0.00064705 0.53141481
v 0.02950000 0.00000000 0.53149998
v 0.02950000 -0.00350000 0.53399998
v 0.02950000 -0.00064705 0.53141481
v 0.02950000 -0.00125000 0.53116506
v 0.02950000 -0.00250000 0.52899998
v 0.02950000 -0.00241481 0.52835298
v 0.02950000 -0.00850000 0.52899998
v 0.02950000 -0.00216506 0.52775002
v 0.02950000 -0.00176777 0.52723223
v 0.02950000 0.00216506 0.52775002
v 0.02950000 0.00241481 0.52835298
v 0.02950000 0.00250000 0.52899998
v 0.02950000 -0.00176777 0.53076774
v 0.02950000 -0.00216506 0.53025001
v 0.02950000 -0.00241481 0.52964705
v 0.00000000 -0.00850000 0.34400001
v 0.00700000 -0.00850000 0.34400001
v -0.00000000 -0.00850000 0.37400001
v 0.00700000 -0.00850000 0.37400001
v 0.02950000 -0.00850000 0.41400000
v 0.03650000 -0.00850000 0.41299999
v 0.02950000 -0.00850000 0.52899998
v 0.03650000 -0.00850000 0.52899998
v 0.02950000 0.00850000 0.52899998
v 0.03650000 0.00850000 0.52899998
v 0.02950000 0.00850000 0.41400000
v 0.03650000 0.00850000 0.41299999
v 0.00000000 0.00850000 0.37400001
v 0.00700000 0.00850000 0.37400001
v 0.00000000 0.00850000 0.34400001
v 0.00700000 0.00850000 0.34400001
v -0.01700000 -0.00850000 0.37400001
v -0.01700000 -0.00850000 0.34400001
v -0.01700000 -0.00650000 0.37400001
v -0.01700000 -0.00650000 0.34400001
v -0.01700000 0.00850000 0.37400001
v -0.04650000 0.00850000 0.41400000
v -0.01700000 0.00650000 0.37400001
v -0.04650000 -0.00850000 0.41400000
v -0.01700000 -0.00650000 0.37400001
v -0.01700000 -0.00850000 0.37400001
v -0.04650000 0.00064705 0.53141481
v -0.04650000 0.00125000 0.53116506
v -0.04650000 0.00350000 0.53399998
v -0.04650000 0.00125000 0.52683496
v -0.04650000 0.00064705 0.52658516
v -0.04650000 0.00850000 0.41400000
v -0.04650000 0.00000000 0.52649999
v -0.04650000 -0.00850000 0.41400000
v -0.04650000 -0.00064705 0.52658516
v -0.04650000 -0.00176777 0.53076774
v -0.04650000 -0.00125000 0.53116506
v -0.04650000 -0.00350000 0.53399998
v -0.04650000 -0.00064705 0.53141481
v -0.04650000 0.00000000 0.53149998
v -0.04650000 -0.00125000 0.52683496
v -0.04650000 -0.00176777 0.52723223
v -0.04650000 -0.00850000 0.52899998
v -0.04650000 -0.00216506 0.52775002
v -0.04650000 -0.00241481 0.52835298
v -0.04650000 0.00250000 0.52899998
v -0.04650000 0.00241481 0.52835298
v -0.04650000 0.00850000 0.52899998
v -0.04650000 0.00216506 0.52775002
v -0.04650000 0.00176777 0.52723223
v -0.04650000 -0.00250000 0.52899998
v -0.04650000 -0.00241481 0.52964705
v -0.04650000 -0.00216506 0.53025001
v -0.04650000 0.00176777 0.53076774
v -0.04650000 0.00216506 0.53025001
v -0.04650000 0.00241481 0.52964705
v -0.05350000 -0.00350000 0.53399998
v -0.04650000 -0.00350000 0.53399998
v -0.05350000 0.00350000 0.53399998
v -0.04650000 0.00350000 0.53399998
v -0.05350000 0.00850000 0.52899998
v -0.05350000 0.00850000 0.41299999
v -0.05350000 0.00350000 0.53399998
v -0.05350000 -0.00850000 0.41299999
v -0.05350000 -0.00064705 0.52658516
v -0.05350000 0.00000000 0.52649999
v -0.05350000 -0.00125000 0.52683496
v -0.05350000 0.00064705 0.52658516
v -0.05350000 0.00125000 0.52683496
v -0.05350000 0.00176777 0.52723223
v -0.05350000 0.00241481 0.52964705
v -0.05350000 0.00216506 0.53025001
v -0.05350000 0.00176777 0.53076774
v -0.05350000 0.00125000 0.53116506
v -0.05350000 0.00064705 0.53141481
v -0.05350000 0.00000000 0.53149998
v -0.05350000 -0.00350000 0.53399998
v -0.05350000 -0.00064705 0.53141481
v -0.05350000 -0.00125000 0.53116506
v -0.05350000 -0.00250000 0.52899998
v -0.05350000 -0.00241481 0.52835298
v -0.05350000 -0.00850000 0.52899998
v -0.05350000 -0.00216506 0.52775002
v -0.05350000 -0.00176777 0.52723223
v -0.05350000 0.00216506 0.52775002
v -0.05350000 0.00241481 0.52835298
v -0.05350000 0.00250000 0.52899998
v -0.05350000 -0.00176777 0.53076774
v -0.05350000 -0.00216506 0.53025001
v -0.05350000 -0.00241481 0.52964705
v -0.02400000 -0.00850000 0.37400001
v -0.05350000 -0.00850000 0.41299999
v -0.02400000 0.00850000 0.37400001
v -0.05350000 0.00850000 0.41299999
v -0.02400000 -0.00850000 0.34400001
v -0.02400000 -0.00850000 0.37400001
v -0.02400000 0.00850000 0.34400001
v -0.02400000 0.00850000 0.37400001
v -0.01700000 -0.00850000 0.34400001
v -0.02400000 -0.00850000 0.34400001
v -0.01700000 -0.00650000 0.34400001
v -0.02400000 0.00850000 0.34400001
v -0.01700000 0.00650000 0.34400001
v -0.01700000 0.00850000 0.34400001
v -0.01700000 0.00650000 0.34400001
v -0.01700000 0.00850000 0.34400001
v -0.01700000 0.00650000 0.37400001
v -0.01700000 0.00850000 0.37400001
v -0.04650000 -0.00850000 0.52899998
v -0.05350000 -0.00850000 0.52899998
v -0.04650000 -0.00850000 0.41400000
v -0.05350000 -0.00850000 0.41299999
v -0.01700000 -0.00850000 0.37400001
v -0.02400000 -0.00850000 0.37400001
v -0.01700000 -0.00850000 0.34400001
v -0.02400000 -0.00850000 0.34400001
v -0.01700000 0.00850000 0.34400001
v -0.02400000 0.00850000 0.34400001
v -0.01700000 0.00850000 0.37400001
v -0.02400000 0.00850000 0.37400001
v -0.04650000 0.00850000 0.41400000
v -0.05350000 0.00850000 0.41299999
v -0.04650000 0.00850000 0.52899998
v -0.05350000 0.00850000 0.52899998
v -0.05350000 -0.00064705 0.52658516
v -0.04650000 0.00000000 0.52649999
v -0.05350000 0.00000000 0.52649999
v -0.04650000 0.00064705 0.52658516
v -0.05350000 0.00064705 0.52658516
v -0.04650000 0.00125000 0.52683496
v -0.05350000 0.00125000 0.52683496
v -0.04650000 0.00176777 0.52723223
v -0.05350000 0.00176777 0.52723223
v -0.04650000 0.00216506 0.52775002
v -0.05350000 0.00216506 0.52775002
v -0.04650000 0.00241481 0.52835298
v -0.05350000 0.00241481 0.52835298
v -0.04650000 0.00250000 0.52899998
v -0.05350000 0.00250000 0.52899998
v -0.04650000 0.00241481 0.52964705
v -0.05350000 0.00241481 0.52964705
v -0.04650000 0.00216506 0.53025001
v -0.05350000 0.00216506 0.53025001
v -0.04650000 0.00176777 0.53076774
v -0.05350000 0.00176777 0.53076774
v -0.04650000 0.00125000 0.53116506
v -0.05350000 0.00125000 0.53116506
v -0.04650000 0.00064705 0.53141481
v -0.05350000 0.00064705 0.53141481
v -0.04650000 0.00000000 0.53149998
v -0.05350000 0.00000000 0.53149998
v -0.04650000 -0.00064705 0.53141481
v -0.05350000 -0.00064705 0.53141481
v -0.04650000 -0.00125000 0.53116506
v -0.05350000 -0.00125000 0.53116506
v -0.04650000 -0.00176777 0.53076774
v -0.05350000 -0.00176777 0.53076774
v -0.04650000 -0.00216506 0.53025001
v -0.05350000 -0.00216506 0.53025001
v -0.04650000 -0.00241481 0.52964705
v -0.05350000 -0.00241481 0.52964705
v -0.04650000 -0.00250000 0.52899998
v -0.05350000 -0.00250000 0.52899998
v -0.04650000 -0.00241481 0.52835298
v -0.05350000 -0.00241481 0.52835298
v -0.04650000 -0.00216506 0.52775002
v -0.05350000 -0.00216506 0.52775002
v -0.04650000 -0.00176777 0.52723223
v -0.05350000 -0.00176777 0.52723223
v -0.04650000 -0.00125000 0.52683496
v -0.05350000 -0.00125000 0.52683496
v -0.04650000 -0.00064705 0.52658516
v 0.02950000 -0.00064705 0.52658516
v 0.03650000 0.00000000 0.52649999
v 0.02950000 0.00000000 0.52649999
v 0.03650000 0.00064705 0.52658516
v 0.02950000 0.00064705 0.52658516
v 0.03650000 0.00125000 0.52683496
v 0.02950000 0.00125000 0.52683496
v 0.03650000 0.00176777 0.52723223
v 0.02950000 0.00176777 0.52723223
v 0.03650000 0.00216506 0.52775002
v 0.02950000 0.00216506 0.52775002
v 0.03650000 0.00241481 0.52835298
v 0.02950000 0.00241481 0.52835298
v 0.03650000 0.00250000 0.52899998
v 0.02950000 0.00250000 0.52899998
v 0.03650000 0.00241481 0.52964705
v 0.02950000 0.00241481 0.52964705
v 0.03650000 0.00216506 0.53025001
v 0.02950000 0.00216506 0.53025001
v 0.03650000 0.00176777 0.53076774
v 0.02950000 0.00176777 0.53076774
v 0.03650000 0.00125000 0.53116506
v 0.02950000 0.00125000 0.53116506
v 0.03650000 0.00064705 0.53141481
v 0.02950000 0.00064705 0.53141481
v 0.03650000 0.00000000 0.53149998
v 0.02950000 0.00000000 0.53149998
v 0.03650000 -0.00064705 0.53141481
v 0.02950000 -0.00064705 0.53141481
v 0.03650000 -0.00125000 0.53116506
v 0.02950000 -0.00125000 0.53116506
v 0.03650000 -0.00176777 0.53076774
v 0.02950000 -0.00176777 0.53076774
v 0.03650000 -0.00216506 0.53025001
v 0.02950000 -0.00216506 0.53025001
v 0.03650000 -0.00241481 0.52964705
v 0.02950000 -0.00241481 0.52964705
v 0.03650000 -0.00250000 0.52899998
v 0.02950000 -0.00250000 0.52899998
v 0.03650000 -0.00241481 0.52835298
v 0.02950000 -0.00241481 0.52835298
v 0.03650000 -0.00216506 0.52775002
v 0.02950000 -0.00216506 0.52775002
v 0.03650000 -0.00176777 0.52723223
v 0.02950000 -0.00176777 0.52723223
v 0.03650000 -0.00125000 0.52683496
v 0.02950000 -0.00125000 0.52683496
v 0.03650000 -0.00064705 0.52658516
v -0.01700000 -0.00064705 0.00658518
v 0.00000000 -0.00000000 0.00650000
v -0.01700000 -0.00000000 0.00650000
v 0.00000000 0.00064705 0.00658518
v -0.01700000 0.00064705 0.00658518
v 0.00000000 0.00125000 0.00683494
v -0.01700000 0.00125000 0.00683494
v 0.00000000 0.00176777 0.00723223
v -0.01700000 0.00176777 0.00723223
v 0.00000000 0.00216506 0.00775000
v -0.01700000 0.00216506 0.00775000
v 0.00000000 0.00241481 0.00835295
v -0.01700000 0.00241481 0.00835295
v 0.00000000 0.00250000 0.00900000
v -0.01700000 0.00250000 0.00900000
v 0.00000000 0.00241481 0.00964705
v -0.01700000 0.00241481 0.00964705
v 0.00000000 0.00216506 0.01025000
v -0.01700000 0.00216506 0.01025000
v 0.00000000 0.00176777 0.01076777
v -0.01700000 0.00176777 0.01076777
v 0.00000000 0.00125000 0.01116506
v -0.01700000 0.00125000 0.01116506
v 0.00000000 0.00064705 0.01141481
v -0.01700000 0.00064705 0.01141481
v 0.00000000 -0.00000000 0.01150000
v -0.01700000 -0.00000000 0.01150000
v 0.00000000 -0.00064705 0.01141481
v -0.01700000 -0.00064705 0.01141481
v 0.00000000 -0.00125000 0.01116506
v -0.01700000 -0.00125000 0.01116506
v 0.00000000 -0.00176777 0.01076777
v -0.01700000 -0.00176777 0.01076777
v 0.00000000 -0.00216506 0.01025000
v -0.01700000 -0.00216506 0.01025000
v 0.00000000 -0.00241481 0.00964705
v -0.01700000 -0.00241481 0.00964705
v 0.00000000 -0.00250000 0.00900000
v -0.01700000 -0.00250000 0.00900000
v 0.00000000 -0.00241481 0.00835295
v -0.01700000 -0.00241481 0.00835295
v 0.00000000 -0.00216506 0.00775000
v -0.01700000 -0.00216506 0.00775000
v 0.00000000 -0.00176777 0.00723223
v -0.01700000 -0.00176777 0.00723223
v 0.00000000 -0.00125000 0.00683494
v -0.01700000 -0.00125000 0.00683494
v 0.00000000 -0.00064705 0.00658518
v -0.05350000 0.00850000 0.52899998
v -0.05350000 0.00350000 0.53399998
v -0.04650000 0.00850000 0.52899998
v -0.04650000 0.00350000 0.53399998
v -0.05350000 -0.00350000 0.53399998
v -0.05350000 -0.00850000 0.52899998
v -0.04650000 -0.00350000 0.53399998
v -0.04650000 -0.00850000 0.52899998
v 0.03650000 0.00350000 0.53399998
v 0.03650000 0.00850000 0.52899998
v 0.02950000 0.00350000 0.53399998
v 0.02950000 0.00850000 0.52899998
v 0.03650000 -0.00850000 0.52899998
v 0.03650000 -0.00350000 0.53399998
v 0.02950000 -0.00850000 0.52899998
v 0.02950000 -0.00350000 0.53399998
f 1 2 3
f 4 5 1
f 1 3 4
f 4 3 6
f 4 6 7
f 7 6 8
f 7 8 9
f 9 8 10
f 9 10 11
f 11 10 12
f 11 12 13
f 13 12 14
f 13 14 15
f 16 15 17
f 17 15 14
f 18 19 20
f 21 22 23
f 23 22 24
f 23 24 25
f 25 24 26
f 25 26 27
f 27 26 28
f 27 28 29
f 29 28 16
f 29 16 17
f 30 18 21
f 21 18 20
f 21 20 22
f 31 32 33
f 34 35 36
f 36 35 37
f 36 37 38
f 39 40 18
f 41 42 30
f 30 42 43
f 30 43 44
f 40 45 18
f 18 45 46
f 18 46 31
f 31 46 47
f 31 47 32
f 33 48 31
f 31 48 49
f 31 49 36
f 36 49 50
f 36 50 34
f 38 51 36
f 36 51 52
f 36 52 30
f 30 52 53
f 30 53 41
f 44 54 30
f 30 54 55
f 30 55 18
f 18 55 56
f 18 56 39
f 31 36 57
f 58 59 31
f 31 57 58
f 58 57 60
f 58 60 61
f 61 60 62
f 61 62 63
f 63 62 64
f 63 64 65
f 65 64 66
f 65 66 67
f 67 66 68
f 67 68 69
f 70 69 71
f 71 69 68
f 72 73 74
f 75 76 77
f 77 76 78
f 77 78 79
f 79 78 80
f 79 80 81
f 81 80 82
f 81 82 83
f 83 82 70
f 83 70 71
f 84 72 75
f 75 72 74
f 75 74 76
f 85 86 2
f 2 86 87
f 2 87 88
f 88 89 2
f 2 89 90
f 2 90 84
f 84 90 91
f 84 91 92
f 92 93 84
f 84 93 94
f 84 94 95
f 1 96 97
f 1 98 99
f 97 100 1
f 1 100 101
f 1 101 2
f 2 101 102
f 2 102 85
f 95 103 84
f 84 103 104
f 84 104 72
f 72 104 105
f 72 105 1
f 1 105 106
f 1 106 98
f 99 107 1
f 1 107 108
f 1 108 96
f 109 110 111
f 111 110 112
f 111 112 113
f 109 114 115
f 115 114 116
f 115 116 117
f 115 118 109
f 109 118 119
f 109 119 110
f 110 119 120
f 110 120 121
f 122 123 124
f 124 123 110
f 124 110 125
f 125 110 121
f 126 127 128
f 128 127 129
f 110 130 112
f 112 130 127
f 112 127 131
f 131 127 126
f 132 133 134
f 113 135 111
f 111 135 132
f 111 132 136
f 136 132 134
f 137 138 139
f 137 139 140
f 141 142 143
f 144 145 146
f 146 145 147
f 146 147 148
f 138 149 139
f 139 149 150
f 139 150 151
f 151 150 152
f 151 152 153
f 140 139 143
f 143 139 154
f 143 154 141
f 144 155 145
f 145 155 149
f 145 149 156
f 156 149 138
f 156 138 157
f 157 138 158
f 158 159 157
f 157 159 160
f 157 160 161
f 162 163 153
f 153 163 164
f 153 164 151
f 165 166 167
f 167 166 168
f 169 170 171
f 171 170 172
f 171 172 173
f 173 172 174
f 175 176 177
f 177 176 178
f 179 180 181
f 181 180 182
f 181 182 183
f 183 182 184
f 185 186 187
f 187 186 188
f 189 190 191
f 191 190 192
f 193 194 195
f 196 197 198
f 198 197 199
f 198 199 200
f 200 199 201
f 201 202 200
f 200 202 203
f 200 203 204
f 204 203 205
f 204 205 206
f 207 208 209
f 209 208 210
f 209 210 195
f 195 210 211
f 195 211 193
f 212 213 214
f 214 213 215
f 214 215 198
f 198 215 216
f 198 216 196
f 206 217 204
f 204 217 218
f 204 218 209
f 209 218 219
f 209 219 207
f 194 220 195
f 195 220 221
f 195 221 214
f 214 221 222
f 214 222 212
f 223 224 225
f 225 224 226
f 227 228 229
f 229 228 230
f 231 232 230
f 231 230 233
f 232 234 230
f 230 234 235
f 230 235 236
f 237 238 229
f 229 238 239
f 229 239 240
f 240 241 229
f 229 241 242
f 229 242 243
f 243 242 244
f 243 244 245
f 246 247 248
f 248 247 249
f 248 249 230
f 230 249 250
f 230 250 233
f 236 251 230
f 230 251 252
f 230 252 229
f 229 252 253
f 229 253 237
f 245 254 243
f 243 254 255
f 243 255 248
f 248 255 256
f 248 256 246
f 257 258 259
f 259 258 260
f 259 260 261
f 261 260 262
f 261 262 263
f 263 262 264
f 265 266 267
f 267 266 268
f 267 268 269
f 269 268 270
f 269 270 271
f 271 270 272
f 273 274 275
f 275 274 276
f 277 278 279
f 279 278 280
f 279 280 281
f 281 280 282
f 283 284 285
f 286 287 288
f 288 287 289
f 288 289 290
f 290 289 291
f 292 293 294
f 294 293 295
f 294 295 285
f 285 295 296
f 285 296 283
f 291 297 290
f 290 297 298
f 290 298 299
f 299 298 300
f 299 300 301
f 302 303 304
f 304 303 305
f 304 305 288
f 288 305 306
f 288 306 286
f 301 307 299
f 299 307 308
f 299 308 294
f 294 308 309
f 294 309 292
f 284 310 285
f 285 310 311
f 285 311 304
f 304 311 312
f 304 312 302
f 313 314 315
f 315 314 316
f 317 318 319
f 319 318 320
f 321 322 320
f 321 320 323
f 322 324 320
f 320 324 325
f 320 325 326
f 327 328 319
f 319 328 329
f 319 329 330
f 330 331 319
f 319 331 332
f 319 332 333
f 333 332 334
f 333 334 335
f 336 337 338
f 338 337 339
f 338 339 320
f 320 339 340
f 320 340 323
f 326 341 320
f 320 341 342
f 320 342 319
f 319 342 343
f 319 343 327
f 335 344 333
f 333 344 345
f 333 345 338
f 338 345 346
f 338 346 336
f 347 348 349
f 349 348 350
f 351 352 353
f 353 352 354
f 355 356 357
f 357 356 358
f 357 358 359
f 359 358 360
f 361 362 363
f 363 362 364
f 365 366 367
f 367 366 368
f 367 368 369
f 369 368 370
f 369 370 371
f 371 370 372
f 373 374 375
f 375 374 376
f 375 376 377
f 377 376 378
f 377 378 379
f 379 378 380
f 381 382 383
f 383 382 384
f 383 384 385
f 385 384 386
f 385 386 387
f 387 386 388
f 387 388 389
f 389 388 390
f 389 390 391
f 391 390 392
f 391 392 393
f 393 392 394
f 393 394 395
f 395 394 396
f 395 396 397
f 397 396 398
f 397 398 399
f 399 398 400
f 399 400 401
f 401 400 402
f 401 402 403
f 403 402 404
f 403 404 405
f 405 404 406
f 405 406 407
f 407 406 408
f 407 408 409
f 409 408 410
f 409 410 411
f 411 410 412
f 411 412 413
f 413 412 414
f 413 414 415
f 415 414 416
f 415 416 417
f 417 416 418
f 417 418 419
f 419 418 420
f 419 420 421
f 421 420 422
f 421 422 423
f 423 422 424
f 423 424 425
f 425 424 426
f 425 426 427
f 427 426 428
f 427 428 381
f 381 428 382
f 429 430 431
f 431 430 432
f 431 432 433
f 433 432 434
f 433 434 435
f 435 434 436
f 435 436 437
f 437 436 438
f 437 438 439
f 439 438 440
f 439 440 441
f 441 440 442
f 441 442 443
f 443 442 444
f 443 444 445
f 445 444 446
f 445 446 447
f 447 446 448
f 447 448 449
f 449 448 450
f 449 450 451
f 451 450 452
f 451 452 453
f 453 452 454
f 453 454 455
f 455 454 456
f 455 456 457
f 457 456 458
f 457 458 459
f 459 458 460
f 459 460 461
f 461 460 462
f 461 462 463
f 463 462 464
f 463 464 465
f 465 464 466
f 465 466 467
f 467 466 468
f 467 468 469
f 469 468 470
f 469 470 471
f 471 470 472
f 471 472 473
f 473 472 474
f 473 474 475
f 475 474 476
f 475 476 429
f 429 476 430
f 477 478 479
f 479 478 480
f 479 480 481
f 481 480 482
f 481 482 483
f 483 482 484
f 483 484 485
f 485 484 486
f 485 486 487
f 487 486 488
f 487 488 489
f 489 488 490
f 489 490 491
f 491 490 492
f 491 492 493
f 493 492 494
f 493 494 495
f 495 494 496
f 495 496 497
f 497 496 498
f 497 498 499
f 499 498 500
f 499 500 501
f 501 500 502
f 501 502 503
f 503 502 504
f 503 504 505
f 505 504 506
f 505 506 507
f 507 506 508
f 507 508 509
f 509 508 510
f 509 510 511
f 511 510 512
f 511 512 513
f 513 512 514
f 513 514 515
f 515 514 516
f 515 516 517
f 517 516 518
f 517 518 519
f 519 518 520
f 519 520 521
f 521 520 522
f 521 522 523
f 523 522 524
f 523 524 477
f 477 524 478
f 525 526 527
f 527 526 528
f 529 530 531
f 531 530 532
f 533 534 535
f 535 534 536
f 537 538 539
f 539 538 540

