# https://github.com/mikedh/trimesh
mtllib material.mtl

o ActorShape0_0-Mesh
usemtl material_0
v -0.00176777 0.00176777 0.01300000
v -0.00125000 0.00216506 0.01300000
v 0.00033690 0.02001136 0.01300000
v -0.00064705 0.00241481 0.01300000
v -0.00900000 0.15591374 0.01300000
v -0.00482963 0.12629409 0.01300000
v -0.00433013 0.12750000 0.01300000
v 0.00000000 0.00250000 0.01300000
v 0.00064705 0.00241481 0.01300000
v 0.00867973 0.15670909 0.01300000
v 0.00125000 0.00216506 0.01300000
v 0.00900000 0.00000000 0.01300000
v 0.00176777 0.00176777 0.01300000
v 0.00216506 0.00125000 0.01300000
v -0.00780525 0.19037361 0.01300000
v 0.00816833 0.15900248 0.01300000
v -0.00755550 0.19097658 0.01300000
v -0.00097032 0.19162363 0.01300000
v -0.00500000 0.12500000 0.01300000
v -0.00900000 0.00000000 0.01300000
v -0.00082567 0.02006865 0.01300000
v -0.00241481 0.00064705 0.01300000
v -0.00216506 0.00125000 0.01300000
v -0.00000000 0.13000000 0.01300000
v 0.00221495 0.15591374 0.01300000
v 0.00212976 0.15526669 0.01300000
v 0.00188001 0.15466374 0.01300000
v 0.00148271 0.15414597 0.01300000
v 0.00096495 0.15374868 0.01300000
v -0.00353553 0.12853554 0.01300000
v -0.00250000 0.12933013 0.01300000
v -0.00129409 0.12982963 0.01300000
v 0.00241481 0.00064705 0.01300000
v 0.00250000 0.00000000 0.01300000
v 0.00869333 -0.00232937 0.01300000
v 0.00241481 -0.00064705 0.01300000
v 0.00779423 -0.00450000 0.01300000
v 0.00216506 -0.00125000 0.01300000
v 0.00636396 -0.00636396 0.01300000
v 0.00176777 -0.00176777 0.01300000
v 0.00450000 -0.00779423 0.01300000
v 0.00125000 -0.00216506 0.01300000
v 0.00232937 -0.00869333 0.01300000
v 0.00064705 -0.00241481 0.01300000
v 0.00000000 -0.00900000 0.01300000
v 0.00000000 -0.00250000 0.01300000
v -0.00232937 -0.00869333 0.01300000
v -0.00064705 -0.00241481 0.01300000
v -0.00450000 -0.00779423 0.01300000
v -0.00125000 -0.00216506 0.01300000
v -0.00636396 -0.00636396 0.01300000
v -0.00176777 -0.00176777 0.01300000
v -0.00779423 -0.00450000 0.01300000
v -0.00216506 -0.00125000 0.01300000
v -0.00869333 -0.00232937 0.01300000
v -0.00241481 -0.00064705 0.01300000
v -0.00250000 0.00000000 0.01300000
v 0.00129409 0.12982963 0.01300000
v 0.00250000 0.12933013 0.01300000
v 0.00353553 0.12853554 0.01300000
v 0.00433013 0.12750000 0.01300000
v 0.00482963 0.12629409 0.01300000
v 0.00500000 0.12500000 0.01300000
v -0.00997032 0.18912362 0.01300000
v -0.01061737 0.18920881 0.01300000
v -0.00153505 0.15807880 0.01300000
v 0.00036199 0.15832855 0.01300000
v 0.00096495 0.15807880 0.01300000
v -0.00872032 0.18945856 0.01300000
v -0.00820255 0.18985586 0.01300000
v 0.00036199 0.15349892 0.01300000
v -0.00028505 0.15341374 0.01300000
v -0.00093210 0.15349892 0.01300000
v -0.00153505 0.15374868 0.01300000
v -0.00205282 0.15414597 0.01300000
v -0.00932327 0.18920881 0.01300000
v -0.00093210 0.15832855 0.01300000
v -0.00028505 0.15841374 0.01300000
v 0.00212976 0.15656079 0.01300000
v 0.00849920 0.15787256 0.01300000
v 0.00188001 0.15716374 0.01300000
v 0.00148271 0.15768151 0.01300000
v -0.01122032 0.18945856 0.01300000
v -0.01173809 0.18985586 0.01300000
v -0.01897032 0.19162363 0.01300000
v -0.01213538 0.19037361 0.01300000
v -0.00245012 0.15466374 0.01300000
v -0.00269987 0.15526669 0.01300000
v -0.00278505 0.15591374 0.01300000
v -0.00269987 0.15656079 0.01300000
v -0.00245012 0.15716374 0.01300000
v -0.00205282 0.15768151 0.01300000
v -0.01238513 0.19097658 0.01300000
v -0.01247032 0.19162363 0.01300000
v -0.01866365 0.19395299 0.01300000
v -0.01238513 0.19227067 0.01300000
v -0.01776455 0.19612361 0.01300000
v -0.01213538 0.19287363 0.01300000
v -0.01633428 0.19798759 0.01300000
v -0.01173809 0.19339138 0.01300000
v -0.01447032 0.19941784 0.01300000
v -0.01122032 0.19378868 0.01300000
v -0.01229969 0.20031695 0.01300000
v -0.01061737 0.19403844 0.01300000
v -0.00997032 0.20062362 0.01300000
v -0.00997032 0.19412363 0.01300000
v -0.00764095 0.20031695 0.01300000
v -0.00932327 0.19403844 0.01300000
v -0.00547032 0.19941784 0.01300000
v -0.00872032 0.19378868 0.01300000
v -0.00360636 0.19798759 0.01300000
v -0.00820255 0.19339138 0.01300000
v -0.00217609 0.19612361 0.01300000
v -0.00780525 0.19287363 0.01300000
v -0.00127699 0.19395299 0.01300000
v -0.00755550 0.19227067 0.01300000
v -0.00747032 0.19162363 0.01300000
v -0.00269987 0.15656079 0.00000000
v -0.00278505 0.15591374 0.00000000
v -0.00900000 0.15591374 0.00000000
v -0.00064705 0.00241481 0.00000000
v -0.00125000 0.00216506 0.00000000
v -0.00900000 0.00000000 0.00000000
v -0.00176777 0.00176777 0.00000000
v -0.00216506 0.00125000 0.00000000
v -0.00269987 0.15526669 0.00000000
v -0.00245012 0.15466374 0.00000000
v 0.00900000 0.00000000 0.00000000
v -0.00205282 0.15414597 0.00000000
v -0.01122032 0.18945856 0.00000000
v -0.01061737 0.18920881 0.00000000
v 0.00125000 0.00216506 0.00000000
v 0.00064705 0.00241481 0.00000000
v 0.00000000 0.00250000 0.00000000
v -0.00153505 0.15374868 0.00000000
v -0.00093210 0.15349892 0.00000000
v -0.00028505 0.15341374 0.00000000
v -0.00872032 0.18945856 0.00000000
v -0.00820255 0.18985586 0.00000000
v 0.00816833 0.15900248 0.00000000
v -0.00780525 0.19037361 0.00000000
v -0.00097032 0.19162363 0.00000000
v 0.00036199 0.15349892 0.00000000
v 0.00096495 0.15374868 0.00000000
v 0.00867973 0.15670909 0.00000000
v 0.00849920 0.15787256 0.00000000
v 0.00148271 0.15414597 0.00000000
v 0.00188001 0.15466374 0.00000000
v -0.01247032 0.19162363 0.00000000
v -0.01897032 0.19162363 0.00000000
v -0.01238513 0.19227067 0.00000000
v -0.01866365 0.19395299 0.00000000
v -0.01213538 0.19287363 0.00000000
v -0.01776455 0.19612361 0.00000000
v -0.01173809 0.19339138 0.00000000
v -0.01633428 0.19798759 0.00000000
v -0.01122032 0.19378868 0.00000000
v -0.01447032 0.19941784 0.00000000
v -0.01061737 0.19403844 0.00000000
v -0.01229969 0.20031695 0.00000000
v -0.00997032 0.19412363 0.00000000
v -0.00997032 0.20062362 0.00000000
v -0.00932327 0.19403844 0.00000000
v -0.00764095 0.20031695 0.00000000
v -0.00872032 0.19378868 0.00000000
v -0.00547032 0.19941784 0.00000000
v -0.00820255 0.19339138 0.00000000
v -0.00360636 0.19798759 0.00000000
v -0.00780525 0.19287363 0.00000000
v -0.00217609 0.19612361 0.00000000
v -0.00755550 0.19227067 0.00000000
v -0.00127699 0.19395299 0.00000000
v -0.00747032 0.19162363 0.00000000
v -0.00755550 0.19097658 0.00000000
v -0.00241481 0.00064705 0.00000000
v -0.00250000 0.00000000 0.00000000
v -0.00869333 -0.00232937 0.00000000
v -0.00241481 -0.00064705 0.00000000
v -0.00779423 -0.00450000 0.00000000
v -0.00216506 -0.00125000 0.00000000
v -0.00636396 -0.00636396 0.00000000
v -0.00176777 -0.00176777 0.00000000
v -0.00450000 -0.00779423 0.00000000
v -0.00125000 -0.00216506 0.00000000
v -0.00232937 -0.00869333 0.00000000
v -0.00064705 -0.00241481 0.00000000
v 0.00000000 -0.00900000 0.00000000
v 0.00000000 -0.00250000 0.00000000
v 0.00232937 -0.00869333 0.00000000
v 0.00064705 -0.00241481 0.00000000
v 0.00450000 -0.00779423 0.00000000
v 0.00125000 -0.00216506 0.00000000
v 0.00636396 -0.00636396 0.00000000
v 0.00176777 -0.00176777 0.00000000
v 0.00779423 -0.00450000 0.00000000
v 0.00216506 -0.00125000 0.00000000
v 0.00869333 -0.00232937 0.00000000
v 0.00241481 -0.00064705 0.00000000
v 0.00250000 0.00000000 0.00000000
v 0.00241481 0.00064705 0.00000000
v 0.00216506 0.00125000 0.00000000
v 0.00176777 0.00176777 0.00000000
v 0.00212976 0.15526669 0.00000000
v 0.00221495 0.15591374 0.00000000
v 0.00212976 0.15656079 0.00000000
v 0.00096495 0.15807880 0.00000000
v 0.00148271 0.15768151 0.00000000
v 0.00188001 0.15716374 0.00000000
v 0.00036199 0.15832855 0.00000000
v -0.00028505 0.15841374 0.00000000
v -0.00932327 0.18920881 0.00000000
v -0.00093210 0.15832855 0.00000000
v -0.00997032 0.18912362 0.00000000
v -0.00153505 0.15807880 0.00000000
v -0.00205282 0.15768151 0.00000000
v -0.00245012 0.15716374 0.00000000
v -0.01238513 0.19097658 0.00000000
v -0.01213538 0.19037361 0.00000000
v -0.01173809 0.18985586 0.00000000
v -0.00900000 0.15591374 0.01300000
v -0.01897032 0.19162363 0.01300000
v -0.00900000 0.15591374 0.00000000
v -0.01897032 0.19162363 0.00000000
v -0.00900000 0.00000000 0.01300000
v -0.00900000 0.15591374 0.01300000
v -0.00900000 0.00000000 0.00000000
v -0.00900000 0.15591374 0.00000000
v -0.00869333 -0.00232937 0.00000000
v -0.00869333 -0.00232937 0.01300000
v -0.00779423 -0.00450000 0.00000000
v -0.00779423 -0.00450000 0.01300000
v -0.00636396 -0.00636396 0.00000000
v -0.00636396 -0.00636396 0.01300000
v -0.00450000 -0.00779423 0.00000000
v -0.00450000 -0.00779423 0.01300000
v -0.00232937 -0.00869333 0.00000000
v -0.00232937 -0.00869333 0.01300000
v 0.00000000 -0.00900000 0.00000000
v 0.00000000 -0.00900000 0.01300000
v 0.00232937 -0.00869333 0.00000000
v 0.00232937 -0.00869333 0.01300000
v 0.00450000 -0.00779423 0.00000000
v 0.00450000 -0.00779423 0.01300000
v 0.00636396 -0.00636396 0.00000000
v 0.00636396 -0.00636396 0.01300000
v 0.00779423 -0.00450000 0.00000000
v 0.00779423 -0.00450000 0.01300000
v 0.00869333 -0.00232937 0.00000000
v 0.00869333 -0.00232937 0.01300000
v 0.00900000 0.00000000 0.00000000
v 0.00900000 0.00000000 0.01300000
v 0.00867973 0.15670909 0.01300000
v 0.00867973 0.15670909 0.00000000
v 0.00867973 0.15670909 0.01300000
v 0.00867973 0.15670909 0.00000000
v 0.00849920 0.15787256 0.00000000
v 0.00849920 0.15787256 0.01300000
v 0.00816833 0.15900248 0.00000000
v 0.00816833 0.15900248 0.01300000
v -0.00097032 0.19162363 0.01300000
v 0.00816833 0.15900248 0.01300000
v -0.00097032 0.19162363 0.00000000
v 0.00816833 0.15900248 0.00000000
v -0.00097032 0.19162363 0.01300000
v -0.00097032 0.19162363 0.00000000
v -0.00127699 0.19395299 0.00000000
v -0.00127699 0.19395299 0.01300000
v -0.00217609 0.19612361 0.00000000
v -0.00217609 0.19612361 0.01300000
v -0.00360636 0.19798759 0.00000000
v -0.00360636 0.19798759 0.01300000
v -0.00547032 0.19941784 0.00000000
v -0.00547032 0.19941784 0.01300000
v -0.00764095 0.20031695 0.00000000
v -0.00764095 0.20031695 0.01300000
v -0.00997032 0.20062362 0.00000000
v -0.00997032 0.20062362 0.01300000
v -0.01229969 0.20031695 0.00000000
v -0.01229969 0.20031695 0.01300000
v -0.01447032 0.19941784 0.00000000
v -0.01447032 0.19941784 0.01300000
v -0.01633428 0.19798759 0.00000000
v -0.01633428 0.19798759 0.01300000
v -0.01776455 0.19612361 0.00000000
v -0.01776455 0.19612361 0.01300000
v -0.01866365 0.19395299 0.00000000
v -0.01866365 0.19395299 0.01300000
v -0.01897032 0.19162363 0.00000000
v -0.01897032 0.19162363 0.01300000
v -0.00269987 0.15526669 0.01300000
v -0.00278505 0.15591374 0.00000000
v -0.00278505 0.15591374 0.01300000
v -0.00269987 0.15656079 0.00000000
v -0.00269987 0.15656079 0.01300000
v -0.00245012 0.15716374 0.00000000
v -0.00245012 0.15716374 0.01300000
v -0.00205282 0.15768151 0.00000000
v -0.00205282 0.15768151 0.01300000
v -0.00153505 0.15807880 0.00000000
v -0.00153505 0.15807880 0.01300000
v -0.00093210 0.15832855 0.00000000
v -0.00093210 0.15832855 0.01300000
v -0.00028505 0.15841374 0.00000000
v -0.00028505 0.15841374 0.01300000
v 0.00036199 0.15832855 0.00000000
v 0.00036199 0.15832855 0.01300000
v 0.00096495 0.15807880 0.00000000
v 0.00096495 0.15807880 0.01300000
v 0.00148271 0.15768151 0.00000000
v 0.00148271 0.15768151 0.01300000
v 0.00188001 0.15716374 0.00000000
v 0.00188001 0.15716374 0.01300000
v 0.00212976 0.15656079 0.00000000
v 0.00212976 0.15656079 0.01300000
v 0.00221495 0.15591374 0.00000000
v 0.00221495 0.15591374 0.01300000
v 0.00212976 0.15526669 0.00000000
v 0.00212976 0.15526669 0.01300000
v 0.00188001 0.15466374 0.00000000
v 0.00188001 0.15466374 0.01300000
v 0.00148271 0.15414597 0.00000000
v 0.00148271 0.15414597 0.01300000
v 0.00096495 0.15374868 0.00000000
v 0.00096495 0.15374868 0.01300000
v 0.00036199 0.15349892 0.00000000
v 0.00036199 0.15349892 0.01300000
v -0.00028505 0.15341374 0.00000000
v -0.00028505 0.15341374 0.01300000
v -0.00093210 0.15349892 0.00000000
v -0.00093210 0.15349892 0.01300000
v -0.00153505 0.15374868 0.00000000
v -0.00153505 0.15374868 0.01300000
v -0.00205282 0.15414597 0.00000000
v -0.00205282 0.15414597 0.01300000
v -0.00245012 0.15466374 0.00000000
v -0.00245012 0.15466374 0.01300000
v -0.00269987 0.15526669 0.00000000
v -0.00241481 -0.00064705 0.01300000
v -0.00250000 0.00000000 0.00000000
v -0.00250000 0.00000000 0.01300000
v -0.00241481 0.00064705 0.00000000
v -0.00241481 0.00064705 0.01300000
v -0.00216506 0.00125000 0.00000000
v -0.00216506 0.00125000 0.01300000
v -0.00176777 0.00176777 0.00000000
v -0.00176777 0.00176777 0.01300000
v -0.00125000 0.00216506 0.00000000
v -0.00125000 0.00216506 0.01300000
v -0.00064705 0.00241481 0.00000000
v -0.00064705 0.00241481 0.01300000
v 0.00000000 0.00250000 0.00000000
v 0.00000000 0.00250000 0.01300000
v 0.00064705 0.00241481 0.00000000
v 0.00064705 0.00241481 0.01300000
v 0.00125000 0.00216506 0.00000000
v 0.00125000 0.00216506 0.01300000
v 0.00176777 0.00176777 0.00000000
v 0.00176777 0.00176777 0.01300000
v 0.00216506 0.00125000 0.00000000
v 0.00216506 0.00125000 0.01300000
v 0.00241481 0.00064705 0.00000000
v 0.00241481 0.00064705 0.01300000
v 0.00250000 0.00000000 0.00000000
v 0.00250000 0.00000000 0.01300000
v 0.00241481 -0.00064705 0.00000000
v 0.00241481 -0.00064705 0.01300000
v 0.00216506 -0.00125000 0.00000000
v 0.00216506 -0.00125000 0.01300000
v 0.00176777 -0.00176777 0.00000000
v 0.00176777 -0.00176777 0.01300000
v 0.00125000 -0.00216506 0.00000000
v 0.00125000 -0.00216506 0.01300000
v 0.00064705 -0.00241481 0.00000000
v 0.00064705 -0.00241481 0.01300000
v 0.00000000 -0.00250000 0.00000000
v 0.00000000 -0.00250000 0.01300000
v -0.00064705 -0.00241481 0.00000000
v -0.00064705 -0.00241481 0.01300000
v -0.00125000 -0.00216506 0.00000000
v -0.00125000 -0.00216506 0.01300000
v -0.00176777 -0.00176777 0.00000000
v -0.00176777 -0.00176777 0.01300000
v -0.00216506 -0.00125000 0.00000000
v -0.00216506 -0.00125000 0.01300000
v -0.00241481 -0.00064705 0.00000000
v -0.01238513 0.19097658 0.01300000
v -0.01247032 0.19162363 0.00000000
v -0.01247032 0.19162363 0.01300000
v -0.01238513 0.19227067 0.00000000
v -0.01238513 0.19227067 0.01300000
v -0.01213538 0.19287363 0.00000000
v -0.01213538 0.19287363 0.01300000
v -0.01173809 0.19339138 0.00000000
v -0.01173809 0.19339138 0.01300000
v -0.01122032 0.19378868 0.00000000
v -0.01122032 0.19378868 0.01300000
v -0.01061737 0.19403844 0.00000000
v -0.01061737 0.19403844 0.01300000
v -0.00997032 0.19412363 0.00000000
v -0.00997032 0.19412363 0.01300000
v -0.00932327 0.19403844 0.00000000
v -0.00932327 0.19403844 0.01300000
v -0.00872032 0.19378868 0.00000000
v -0.00872032 0.19378868 0.01300000
v -0.00820255 0.19339138 0.00000000
v -0.00820255 0.19339138 0.01300000
v -0.00780525 0.19287363 0.00000000
v -0.00780525 0.19287363 0.01300000
v -0.00755550 0.19227067 0.00000000
v -0.00755550 0.19227067 0.01300000
v -0.00747032 0.19162363 0.00000000
v -0.00747032 0.19162363 0.01300000
v -0.00755550 0.19097658 0.00000000
v -0.00755550 0.19097658 0.01300000
v -0.00780525 0.19037361 0.00000000
v -0.00780525 0.19037361 0.01300000
v -0.00820255 0.18985586 0.00000000
v -0.00820255 0.18985586 0.01300000
v -0.00872032 0.18945856 0.00000000
v -0.00872032 0.18945856 0.01300000
v -0.00932327 0.18920881 0.00000000
v -0.00932327 0.18920881 0.01300000
v -0.00997032 0.18912362 0.00000000
v -0.00997032 0.18912362 0.01300000
v -0.01061737 0.18920881 0.00000000
v -0.01061737 0.18920881 0.01300000
v -0.01122032 0.18945856 0.00000000
v -0.01122032 0.18945856 0.01300000
v -0.01173809 0.18985586 0.00000000
v -0.01173809 0.18985586 0.01300000
v -0.01213538 0.19037361 0.00000000
v -0.01213538 0.19037361 0.01300000
v -0.01238513 0.19097658 0.00000000
v 0.00500000 0.12500000 0.00500000
v 0.00500000 0.12500000 0.01300000
v 0.00482963 0.12629409 0.01300000
v 0.00482963 0.12629409 0.00500000
v 0.00433013 0.12750000 0.01300000
v 0.00433013 0.12750000 0.00500000
v 0.00353553 0.12853554 0.01300000
v 0.00353553 0.12853554 0.00500000
v 0.00250000 0.12933013 0.01300000
v 0.00250000 0.12933013 0.00500000
v 0.00129409 0.12982963 0.01300000
v 0.00129409 0.12982963 0.00500000
v -0.00000000 0.13000000 0.01300000
v -0.00000000 0.13000000 0.00500000
v -0.00129409 0.12982963 0.01300000
v -0.00129409 0.12982963 0.00500000
v -0.00250000 0.12933013 0.01300000
v -0.00250000 0.12933013 0.00500000
v -0.00353553 0.12853554 0.01300000
v -0.00353553 0.12853554 0.00500000
v -0.00433013 0.12750000 0.01300000
v -0.00433013 0.12750000 0.00500000
v -0.00482963 0.12629409 0.01300000
v -0.00482963 0.12629409 0.00500000
v -0.00500000 0.12500000 0.01300000
v -0.00500000 0.12500000 0.00500000
v 0.00500000 0.12500000 0.00500000
v 0.00033690 0.02001136 0.00500000
v 0.00500000 0.12500000 0.01300000
v 0.00033690 0.02001136 0.01300000
v 0.00033690 0.02001136 0.00500000
v -0.00082567 0.02006865 0.00500000
v 0.00033690 0.02001136 0.01300000
v -0.00082567 0.02006865 0.01300000
v -0.00082567 0.02006865 0.00500000
v -0.00500000 0.12500000 0.00500000
v -0.00082567 0.02006865 0.01300000
v -0.00500000 0.12500000 0.01300000
v -0.00082567 0.02006865 0.00500000
v 0.00033690 0.02001136 0.00500000
v -0.00500000 0.12500000 0.00500000
v 0.00500000 0.12500000 0.00500000
v 0.00482963 0.12629409 0.00500000
v 0.00250000 0.12933013 0.00500000
v 0.00129409 0.12982963 0.00500000
v -0.00000000 0.13000000 0.00500000
v 0.00433013 0.12750000 0.00500000
v 0.00353553 0.12853554 0.00500000
v -0.00250000 0.12933013 0.00500000
v -0.00353553 0.12853554 0.00500000
v -0.00433013 0.12750000 0.00500000
v -0.00129409 0.12982963 0.00500000
v -0.00482963 0.12629409 0.00500000
f 1 2 3
f 3 2 4
f 5 6 7
f 4 8 3
f 3 8 9
f 3 9 10
f 10 9 11
f 10 11 12
f 12 11 13
f 12 13 14
f 15 16 17
f 17 16 18
f 6 5 19
f 19 5 20
f 19 20 21
f 21 20 22
f 21 22 3
f 3 22 23
f 3 23 1
f 24 25 26
f 26 27 24
f 24 27 28
f 24 28 29
f 7 30 5
f 5 30 31
f 5 31 32
f 14 33 12
f 12 33 34
f 12 34 35
f 35 34 36
f 35 36 37
f 37 36 38
f 37 38 39
f 39 38 40
f 39 40 41
f 41 40 42
f 41 42 43
f 43 42 44
f 43 44 45
f 45 44 46
f 45 46 47
f 47 46 48
f 47 48 49
f 49 48 50
f 49 50 51
f 51 50 52
f 51 52 53
f 53 52 54
f 53 54 55
f 55 54 56
f 55 56 20
f 20 56 57
f 20 57 22
f 58 59 10
f 10 59 60
f 10 60 61
f 61 62 10
f 10 62 63
f 10 63 3
f 64 65 66
f 67 68 69
f 69 68 16
f 69 16 70
f 70 16 15
f 29 71 24
f 24 71 72
f 24 72 32
f 32 72 73
f 32 73 5
f 5 73 74
f 5 74 75
f 64 66 76
f 76 66 77
f 76 77 69
f 69 77 78
f 69 78 67
f 24 58 25
f 25 58 10
f 25 10 79
f 79 10 80
f 79 80 81
f 81 80 16
f 81 16 82
f 82 16 68
f 65 83 5
f 5 83 84
f 5 84 85
f 85 84 86
f 75 87 5
f 5 87 88
f 5 88 89
f 89 90 5
f 5 90 91
f 5 91 65
f 65 91 92
f 65 92 66
f 86 93 85
f 85 93 94
f 85 94 95
f 95 94 96
f 95 96 97
f 97 96 98
f 97 98 99
f 99 98 100
f 99 100 101
f 101 100 102
f 101 102 103
f 103 102 104
f 103 104 105
f 105 104 106
f 105 106 107
f 107 106 108
f 107 108 109
f 109 108 110
f 109 110 111
f 111 110 112
f 111 112 113
f 113 112 114
f 113 114 115
f 115 114 116
f 115 116 18
f 18 116 117
f 18 117 17
f 118 119 120
f 121 122 120
f 120 122 123
f 123 122 124
f 123 124 125
f 119 126 120
f 120 126 127
f 120 127 128
f 128 127 129
f 130 131 120
f 132 133 120
f 120 133 134
f 120 134 121
f 129 135 128
f 128 135 136
f 128 136 137
f 138 139 140
f 140 139 141
f 140 141 142
f 137 143 128
f 128 143 144
f 128 144 145
f 145 144 146
f 146 144 140
f 140 144 147
f 140 147 148
f 149 150 151
f 151 150 152
f 151 152 153
f 153 152 154
f 153 154 155
f 155 154 156
f 155 156 157
f 157 156 158
f 157 158 159
f 159 158 160
f 159 160 161
f 161 160 162
f 161 162 163
f 163 162 164
f 163 164 165
f 165 164 166
f 165 166 167
f 167 166 168
f 167 168 169
f 169 168 170
f 169 170 171
f 171 170 172
f 171 172 173
f 173 172 142
f 173 142 174
f 174 142 141
f 125 175 123
f 123 175 176
f 123 176 177
f 177 176 178
f 177 178 179
f 179 178 180
f 179 180 181
f 181 180 182
f 181 182 183
f 183 182 184
f 183 184 185
f 185 184 186
f 185 186 187
f 187 186 188
f 187 188 189
f 189 188 190
f 189 190 191
f 191 190 192
f 191 192 193
f 193 192 194
f 193 194 195
f 195 194 196
f 195 196 197
f 197 196 198
f 197 198 128
f 128 198 199
f 199 200 128
f 128 200 201
f 128 201 120
f 120 201 202
f 120 202 132
f 148 203 140
f 140 203 204
f 140 204 205
f 206 138 207
f 207 138 140
f 207 140 208
f 208 140 205
f 206 209 138
f 138 209 210
f 138 210 211
f 211 210 212
f 211 212 213
f 213 212 214
f 213 214 131
f 131 214 215
f 131 215 120
f 120 215 216
f 120 216 118
f 149 217 150
f 150 217 218
f 150 218 120
f 120 218 219
f 120 219 130
f 220 221 222
f 222 221 223
f 224 225 226
f 226 225 227
f 224 226 228
f 224 228 229
f 229 228 230
f 229 230 231
f 231 230 232
f 231 232 233
f 233 232 234
f 233 234 235
f 235 234 236
f 235 236 237
f 237 236 238
f 237 238 239
f 239 238 240
f 239 240 241
f 241 240 242
f 241 242 243
f 243 242 244
f 243 244 245
f 245 244 246
f 245 246 247
f 247 246 248
f 247 248 249
f 249 248 250
f 249 250 251
f 252 251 253
f 253 251 250
f 254 255 256
f 254 256 257
f 257 256 258
f 257 258 259
f 260 261 262
f 262 261 263
f 264 265 266
f 264 266 267
f 267 266 268
f 267 268 269
f 269 268 270
f 269 270 271
f 271 270 272
f 271 272 273
f 273 272 274
f 273 274 275
f 275 274 276
f 275 276 277
f 277 276 278
f 277 278 279
f 279 278 280
f 279 280 281
f 281 280 282
f 281 282 283
f 283 282 284
f 283 284 285
f 285 284 286
f 285 286 287
f 287 286 288
f 287 288 289
f 290 291 292
f 292 291 293
f 292 293 294
f 294 293 295
f 294 295 296
f 296 295 297
f 296 297 298
f 298 297 299
f 298 299 300
f 300 299 301
f 300 301 302
f 302 301 303
f 302 303 304
f 304 303 305
f 304 305 306
f 306 305 307
f 306 307 308
f 308 307 309
f 308 309 310
f 310 309 311
f 310 311 312
f 312 311 313
f 312 313 314
f 314 313 315
f 314 315 316
f 316 315 317
f 316 317 318
f 318 317 319
f 318 319 320
f 320 319 321
f 320 321 322
f 322 321 323
f 322 323 324
f 324 323 325
f 324 325 326
f 326 325 327
f 326 327 328
f 328 327 329
f 328 329 330
f 330 329 331
f 330 331 332
f 332 331 333
f 332 333 334
f 334 333 335
f 334 335 336
f 336 335 337
f 336 337 290
f 290 337 291
f 338 339 340
f 340 339 341
f 340 341 342
f 342 341 343
f 342 343 344
f 344 343 345
f 344 345 346
f 346 345 347
f 346 347 348
f 348 347 349
f 348 349 350
f 350 349 351
f 350 351 352
f 352 351 353
f 352 353 354
f 354 353 355
f 354 355 356
f 356 355 357
f 356 357 358
f 358 357 359
f 358 359 360
f 360 359 361
f 360 361 362
f 362 361 363
f 362 363 364
f 364 363 365
f 364 365 366
f 366 365 367
f 366 367 368
f 368 367 369
f 368 369 370
f 370 369 371
f 370 371 372
f 372 371 373
f 372 373 374
f 374 373 375
f 374 375 376
f 376 375 377
f 376 377 378
f 378 377 379
f 378 379 380
f 380 379 381
f 380 381 382
f 382 381 383
f 382 383 384
f 384 383 385
f 384 385 338
f 338 385 339
f 386 387 388
f 388 387 389
f 388 389 390
f 390 389 391
f 390 391 392
f 392 391 393
f 392 393 394
f 394 393 395
f 394 395 396
f 396 395 397
f 396 397 398
f 398 397 399
f 398 399 400
f 400 399 401
f 400 401 402
f 402 401 403
f 402 403 404
f 404 403 405
f 404 405 406
f 406 405 407
f 406 407 408
f 408 407 409
f 408 409 410
f 410 409 411
f 410 411 412
f 412 411 413
f 412 413 414
f 414 413 415
f 414 415 416
f 416 415 417
f 416 417 418
f 418 417 419
f 418 419 420
f 420 419 421
f 420 421 422
f 422 421 423
f 422 423 424
f 424 423 425
f 424 425 426
f 426 425 427
f 426 427 428
f 428 427 429
f 428 429 430
f 430 429 431
f 430 431 432
f 432 431 433
f 432 433 386
f 386 433 387
f 434 435 436
f 434 436 437
f 437 436 438
f 437 438 439
f 439 438 440
f 439 440 441
f 441 440 442
f 441 442 443
f 443 442 444
f 443 444 445
f 445 444 446
f 445 446 447
f 447 446 448
f 447 448 449
f 449 448 450
f 449 450 451
f 451 450 452
f 451 452 453
f 453 452 454
f 453 454 455
f 455 454 456
f 455 456 457
f 457 456 458
f 457 458 459
f 460 461 462
f 462 461 463
f 464 465 466
f 466 465 467
f 468 469 470
f 470 469 471
f 472 473 474
f 474 473 475
f 474 475 476
f 477 478 474
f 474 478 479
f 476 480 474
f 474 480 481
f 474 481 477
f 482 483 484
f 479 485 474
f 474 485 482
f 474 482 486
f 486 482 484

