# https://github.com/mikedh/trimesh
mtllib material.mtl

o ActorShape0_0-Mesh
usemtl material_0
v 0.00865926 0.03199745 0.00000000
v 0.00900000 0.03458564 0.00000000
v 0.00900000 0.00000000 0.00000000
v 0.00176777 0.00176777 0.00000000
v 0.00125000 0.00216506 0.00000000
v -0.00100000 0.02458564 0.00000000
v 0.00766025 0.02958564 0.00000000
v 0.00158819 0.02492638 0.00000000
v 0.00400000 0.02592538 0.00000000
v 0.00607107 0.02751457 0.00000000
v -0.00176777 0.00176777 0.00000000
v -0.00874066 0.03212097 0.00000000
v -0.00125000 0.00216506 0.00000000
v -0.00797610 0.02997569 0.00000000
v -0.00064705 0.00241481 0.00000000
v -0.00674597 0.02805904 0.00000000
v -0.00216506 0.00125000 0.00000000
v -0.00900000 0.00000000 0.00000000
v -0.00900000 0.03438359 0.00000000
v -0.00241481 0.00064705 0.00000000
v -0.00250000 0.00000000 0.00000000
v -0.00869333 -0.00232937 0.00000000
v -0.00241481 -0.00064705 0.00000000
v -0.00779423 -0.00450000 0.00000000
v -0.00216506 -0.00125000 0.00000000
v -0.00636396 -0.00636396 0.00000000
v -0.00176777 -0.00176777 0.00000000
v -0.00450000 -0.00779423 0.00000000
v -0.00125000 -0.00216506 0.00000000
v -0.00232937 -0.00869333 0.00000000
v -0.00064705 -0.00241481 0.00000000
v 0.00000000 -0.00900000 0.00000000
v 0.00000000 -0.00250000 0.00000000
v 0.00232937 -0.00869333 0.00000000
v 0.00064705 -0.00241481 0.00000000
v 0.00450000 -0.00779423 0.00000000
v 0.00125000 -0.00216506 0.00000000
v 0.00636396 -0.00636396 0.00000000
v 0.00176777 -0.00176777 0.00000000
v 0.00779423 -0.00450000 0.00000000
v 0.00216506 -0.00125000 0.00000000
v 0.00869333 -0.00232937 0.00000000
v 0.00241481 -0.00064705 0.00000000
v 0.00250000 0.00000000 0.00000000
v 0.00241481 0.00064705 0.00000000
v 0.00064705 0.00241481 0.00000000
v -0.00000000 0.00250000 0.00000000
v -0.00316505 0.02529226 0.00000000
v -0.00511407 0.02647043 0.00000000
v 0.00216506 0.00125000 0.00000000
v -0.00241481 -0.00064705 0.00500000
v -0.00250000 0.00000000 0.00000000
v -0.00250000 -0.00000000 0.00500000
v -0.00241481 0.00064705 0.00000000
v -0.00241481 0.00064705 0.00500000
v -0.00216506 0.00125000 0.00000000
v -0.00216506 0.00125000 0.00500000
v -0.00176777 0.00176777 0.00000000
v -0.00176777 0.00176777 0.00500000
v -0.00125000 0.00216506 0.00000000
v -0.00125000 0.00216506 0.00500000
v -0.00064705 0.00241481 0.00000000
v -0.00064705 0.00241481 0.00500000
v -0.00000000 0.00250000 0.00000000
v -0.00000000 0.00250000 0.00500000
v 0.00064705 0.00241481 0.00000000
v 0.00064705 0.00241481 0.00500000
v 0.00125000 0.00216506 0.00000000
v 0.00125000 0.00216506 0.00500000
v 0.00176777 0.00176777 0.00000000
v 0.00176777 0.00176777 0.00500000
v 0.00216506 0.00125000 0.00000000
v 0.00216506 0.00125000 0.00500000
v 0.00241481 0.00064705 0.00000000
v 0.00241481 0.00064705 0.00500000
v 0.00250000 0.00000000 0.00000000
v 0.00250000 0.00000000 0.00500000
v 0.00241481 -0.00064705 0.00000000
v 0.00241481 -0.00064705 0.00500000
v 0.00216506 -0.00125000 0.00000000
v 0.00216506 -0.00125000 0.00500000
v 0.00176777 -0.00176777 0.00000000
v 0.00176777 -0.00176777 0.00500000
v 0.00125000 -0.00216506 0.00000000
v 0.00125000 -0.00216506 0.00500000
v 0.00064705 -0.00241481 0.00000000
v 0.00064705 -0.00241481 0.00500000
v 0.00000000 -0.00250000 0.00000000
v 0.00000000 -0.00250000 0.00500000
v -0.00064705 -0.00241481 0.00000000
v -0.00064705 -0.00241481 0.00500000
v -0.00125000 -0.00216506 0.00000000
v -0.00125000 -0.00216506 0.00500000
v -0.00176777 -0.00176777 0.00000000
v -0.00176777 -0.00176777 0.00500000
v -0.00216506 -0.00125000 0.00000000
v -0.00216506 -0.00125000 0.00500000
v -0.00241481 -0.00064705 0.00000000
v 0.00900000 0.15591399 0.01300000
v 0.00241481 0.15526696 0.01300000
v 0.00216506 0.15466399 0.01300000
v 0.00900000 0.00000000 0.01300000
v -0.00064705 0.15349919 0.01300000
v -0.00482963 0.06629410 0.01300000
v -0.00433013 0.06750000 0.01300000
v -0.00129409 0.06982963 0.01300000
v -0.00000000 0.15341400 0.01300000
v -0.00000000 0.07000000 0.01300000
v 0.00064705 0.15349919 0.01300000
v -0.00900000 0.15591399 0.01300000
v -0.00900000 0.00000000 0.01300000
v -0.00125000 0.15374893 0.01300000
v -0.00216506 0.15466399 0.01300000
v -0.00241481 0.15526696 0.01300000
v -0.00869333 0.15824337 0.01300000
v 0.00125000 0.15374893 0.01300000
v 0.00129409 0.06982963 0.01300000
v 0.00250000 0.06933013 0.01300000
v 0.00353553 0.06853554 0.01300000
v 0.00433013 0.06750000 0.01300000
v 0.00482963 0.06629410 0.01300000
v -0.00353553 0.06853554 0.01300000
v -0.00250000 0.06933013 0.01300000
v -0.00176777 0.15414624 0.01300000
v 0.00500000 0.06500000 0.01300000
v 0.00500000 -0.00748332 0.01300000
v 0.00636396 -0.00636396 0.01300000
v -0.00500000 0.06500000 0.01300000
v -0.00500000 -0.00748332 0.01300000
v -0.00636396 -0.00636396 0.01300000
v -0.00869333 -0.00232937 0.01300000
v -0.00779423 -0.00450000 0.01300000
v -0.00250000 0.15591399 0.01300000
v -0.00241481 0.15656105 0.01300000
v -0.00779423 0.16041400 0.01300000
v -0.00216506 0.15716401 0.01300000
v -0.00636396 0.16227797 0.01300000
v -0.00176777 0.15768176 0.01300000
v -0.00450000 0.16370822 0.01300000
v -0.00125000 0.15807906 0.01300000
v -0.00232937 0.16460733 0.01300000
v -0.00064705 0.15832882 0.01300000
v -0.00000000 0.16491400 0.01300000
v -0.00000000 0.15841401 0.01300000
v 0.00232937 0.16460733 0.01300000
v 0.00064705 0.15832882 0.01300000
v 0.00450000 0.16370822 0.01300000
v 0.00125000 0.15807906 0.01300000
v 0.00636396 0.16227797 0.01300000
v 0.00176777 0.15768176 0.01300000
v 0.00779423 0.16041400 0.01300000
v 0.00216506 0.15716401 0.01300000
v 0.00869333 0.15824337 0.01300000
v 0.00241481 0.15656105 0.01300000
v 0.00250000 0.15591399 0.01300000
v 0.00779423 -0.00450000 0.01300000
v 0.00869333 -0.00232937 0.01300000
v 0.00176777 0.15414624 0.01300000
v 0.00900000 0.15591399 0.01300000
v 0.00900000 0.15591399 -0.01200000
v 0.00869333 0.15824337 -0.01200000
v 0.00869333 0.15824337 0.01300000
v 0.00779423 0.16041400 -0.01200000
v 0.00779423 0.16041400 0.01300000
v 0.00636396 0.16227797 -0.01200000
v 0.00636396 0.16227797 0.01300000
v 0.00450000 0.16370822 -0.01200000
v 0.00450000 0.16370822 0.01300000
v 0.00232937 0.16460733 -0.01200000
v 0.00232937 0.16460733 0.01300000
v -0.00000000 0.16491400 -0.01200000
v -0.00000000 0.16491400 0.01300000
v -0.00232937 0.16460733 -0.01200000
v -0.00232937 0.16460733 0.01300000
v -0.00450000 0.16370822 -0.01200000
v -0.00450000 0.16370822 0.01300000
v -0.00636396 0.16227797 -0.01200000
v -0.00636396 0.16227797 0.01300000
v -0.00779423 0.16041400 -0.01200000
v -0.00779423 0.16041400 0.01300000
v -0.00869333 0.15824337 -0.01200000
v -0.00869333 0.15824337 0.01300000
v -0.00900000 0.15591399 -0.01200000
v -0.00900000 0.15591399 0.01300000
v -0.00900000 0.00000000 0.00000000
v -0.00900000 0.00000000 0.01300000
v -0.00900000 0.03438359 0.00000000
v -0.00900000 0.03438359 -0.01200000
v 0.00500000 -0.00748332 0.01300000
v 0.00500000 -0.00748332 0.00500000
v 0.00636396 -0.00636396 0.00000000
v 0.00450000 -0.00779423 0.00000000
v -0.00450000 -0.00779423 0.00500000
v -0.00500000 -0.00748332 0.00500000
v -0.00636396 -0.00636396 0.00000000
v 0.00450000 -0.00779423 0.00500000
v 0.00232937 -0.00869333 0.00500000
v 0.00232937 -0.00869333 0.00000000
v 0.00000000 -0.00900000 0.00500000
v 0.00000000 -0.00900000 0.00000000
v -0.00232937 -0.00869333 0.00500000
v -0.00232937 -0.00869333 0.00000000
v -0.00450000 -0.00779423 0.00000000
v -0.00869333 -0.00232937 0.00000000
v -0.00869333 -0.00232937 0.01300000
v -0.00779423 -0.00450000 0.00000000
v -0.00779423 -0.00450000 0.01300000
v -0.00636396 -0.00636396 0.01300000
v -0.00500000 -0.00748332 0.01300000
v 0.00636396 -0.00636396 0.01300000
v 0.00779423 -0.00450000 0.00000000
v 0.00779423 -0.00450000 0.01300000
v 0.00869333 -0.00232937 0.00000000
v 0.00869333 -0.00232937 0.01300000
v 0.00900000 0.00000000 0.00000000
v 0.00900000 0.00000000 0.01300000
v 0.00900000 0.03458564 0.00000000
v 0.00900000 0.03458564 -0.01200000
v -0.00241481 0.15526696 0.01300000
v -0.00250000 0.15591399 -0.01200000
v -0.00250000 0.15591399 0.01300000
v -0.00241481 0.15656105 -0.01200000
v -0.00241481 0.15656105 0.01300000
v -0.00216506 0.15716401 -0.01200000
v -0.00216506 0.15716401 0.01300000
v -0.00176777 0.15768176 -0.01200000
v -0.00176777 0.15768176 0.01300000
v -0.00125000 0.15807906 -0.01200000
v -0.00125000 0.15807906 0.01300000
v -0.00064705 0.15832882 -0.01200000
v -0.00064705 0.15832882 0.01300000
v -0.00000000 0.15841401 -0.01200000
v -0.00000000 0.15841401 0.01300000
v 0.00064705 0.15832882 -0.01200000
v 0.00064705 0.15832882 0.01300000
v 0.00125000 0.15807906 -0.01200000
v 0.00125000 0.15807906 0.01300000
v 0.00176777 0.15768176 -0.01200000
v 0.00176777 0.15768176 0.01300000
v 0.00216506 0.15716401 -0.01200000
v 0.00216506 0.15716401 0.01300000
v 0.00241481 0.15656105 -0.01200000
v 0.00241481 0.15656105 0.01300000
v 0.00250000 0.15591399 -0.01200000
v 0.00250000 0.15591399 0.01300000
v 0.00241481 0.15526696 -0.01200000
v 0.00241481 0.15526696 0.01300000
v 0.00216506 0.15466399 -0.01200000
v 0.00216506 0.15466399 0.01300000
v 0.00176777 0.15414624 -0.01200000
v 0.00176777 0.15414624 0.01300000
v 0.00125000 0.15374893 -0.01200000
v 0.00125000 0.15374893 0.01300000
v 0.00064705 0.15349919 -0.01200000
v 0.00064705 0.15349919 0.01300000
v -0.00000000 0.15341400 -0.01200000
v -0.00000000 0.15341400 0.01300000
v -0.00064705 0.15349919 -0.01200000
v -0.00064705 0.15349919 0.01300000
v -0.00125000 0.15374893 -0.01200000
v -0.00125000 0.15374893 0.01300000
v -0.00176777 0.15414624 -0.01200000
v -0.00176777 0.15414624 0.01300000
v -0.00216506 0.15466399 -0.01200000
v -0.00216506 0.15466399 0.01300000
v -0.00241481 0.15526696 -0.01200000
v -0.00500000 0.06500000 0.01300000
v -0.00500000 -0.00748332 0.01300000
v -0.00500000 0.06500000 0.00500000
v -0.00500000 -0.00748332 0.00500000
v 0.00500000 0.06500000 0.00500000
v 0.00500000 -0.00748332 0.00500000
v 0.00500000 0.06500000 0.01300000
v 0.00500000 -0.00748332 0.01300000
v 0.00129409 0.06982963 0.00500000
v -0.00000000 0.07000000 0.00500000
v 0.00500000 0.06500000 0.00500000
v 0.00125000 0.00216506 0.00500000
v 0.00176777 0.00176777 0.00500000
v 0.00216506 0.00125000 0.00500000
v 0.00241481 0.00064705 0.00500000
v 0.00500000 -0.00748332 0.00500000
v 0.00250000 0.00000000 0.00500000
v 0.00241481 -0.00064705 0.00500000
v 0.00064705 0.00241481 0.00500000
v -0.00000000 0.00250000 0.00500000
v 0.00433013 0.06750000 0.00500000
v 0.00353553 0.06853554 0.00500000
v 0.00250000 0.06933013 0.00500000
v 0.00482963 0.06629410 0.00500000
v -0.00216506 -0.00125000 0.00500000
v -0.00241481 -0.00064705 0.00500000
v -0.00500000 -0.00748332 0.00500000
v 0.00216506 -0.00125000 0.00500000
v 0.00176777 -0.00176777 0.00500000
v 0.00450000 -0.00779423 0.00500000
v 0.00125000 -0.00216506 0.00500000
v 0.00232937 -0.00869333 0.00500000
v 0.00064705 -0.00241481 0.00500000
v 0.00000000 -0.00900000 0.00500000
v 0.00000000 -0.00250000 0.00500000
v -0.00232937 -0.00869333 0.00500000
v -0.00064705 -0.00241481 0.00500000
v -0.00450000 -0.00779423 0.00500000
v -0.00125000 -0.00216506 0.00500000
v -0.00176777 -0.00176777 0.00500000
v -0.00250000 -0.00000000 0.00500000
v -0.00241481 0.00064705 0.00500000
v -0.00500000 0.06500000 0.00500000
v -0.00216506 0.00125000 0.00500000
v -0.00176777 0.00176777 0.00500000
v -0.00125000 0.00216506 0.00500000
v -0.00064705 0.00241481 0.00500000
v -0.00129409 0.06982963 0.00500000
v -0.00250000 0.06933013 0.00500000
v -0.00353553 0.06853554 0.00500000
v -0.00433013 0.06750000 0.00500000
v -0.00482963 0.06629410 0.00500000
v 0.00482963 0.06629410 0.01300000
v 0.00482963 0.06629410 0.00500000
v 0.00433013 0.06750000 0.01300000
v 0.00433013 0.06750000 0.00500000
v 0.00353553 0.06853554 0.01300000
v 0.00353553 0.06853554 0.00500000
v 0.00250000 0.06933013 0.01300000
v 0.00250000 0.06933013 0.00500000
v 0.00129409 0.06982963 0.01300000
v 0.00129409 0.06982963 0.00500000
v -0.00000000 0.07000000 0.01300000
v -0.00000000 0.07000000 0.00500000
v -0.00129409 0.06982963 0.01300000
v -0.00129409 0.06982963 0.00500000
v -0.00250000 0.06933013 0.01300000
v -0.00250000 0.06933013 0.00500000
v -0.00353553 0.06853554 0.01300000
v -0.00353553 0.06853554 0.00500000
v -0.00433013 0.06750000 0.01300000
v -0.00433013 0.06750000 0.00500000
v -0.00482963 0.06629410 0.01300000
v -0.00482963 0.06629410 0.00500000
v -0.00176777 0.15414624 -0.01200000
v -0.00125000 0.15374893 -0.01200000
v -0.00900000 0.03438359 -0.01200000
v 0.00158819 0.02492638 -0.01200000
v -0.00100000 0.02458564 -0.01200000
v 0.00900000 0.03458564 -0.01200000
v 0.00766025 0.02958564 -0.01200000
v 0.00607107 0.02751457 -0.01200000
v 0.00400000 0.02592538 -0.01200000
v -0.00216506 0.15466399 -0.01200000
v -0.00900000 0.15591399 -0.01200000
v -0.00241481 0.15526696 -0.01200000
v -0.00511407 0.02647043 -0.01200000
v -0.00674597 0.02805904 -0.01200000
v -0.00797610 0.02997569 -0.01200000
v -0.00064705 0.15349919 -0.01200000
v -0.00000000 0.15341400 -0.01200000
v 0.00064705 0.15349919 -0.01200000
v 0.00125000 0.15374893 -0.01200000
v 0.00900000 0.15591399 -0.01200000
v 0.00176777 0.15414624 -0.01200000
v 0.00216506 0.15466399 -0.01200000
v -0.00316505 0.02529226 -0.01200000
v -0.00874066 0.03212097 -0.01200000
v 0.00865926 0.03199745 -0.01200000
v 0.00241481 0.15526696 -0.01200000
v 0.00250000 0.15591399 -0.01200000
v 0.00869333 0.15824337 -0.01200000
v 0.00241481 0.15656105 -0.01200000
v 0.00779423 0.16041400 -0.01200000
v 0.00216506 0.15716401 -0.01200000
v 0.00636396 0.16227797 -0.01200000
v 0.00176777 0.15768176 -0.01200000
v 0.00450000 0.16370822 -0.01200000
v 0.00125000 0.15807906 -0.01200000
v 0.00232937 0.16460733 -0.01200000
v 0.00064705 0.15832882 -0.01200000
v -0.00000000 0.16491400 -0.01200000
v -0.00000000 0.15841401 -0.01200000
v -0.00232937 0.16460733 -0.01200000
v -0.00064705 0.15832882 -0.01200000
v -0.00450000 0.16370822 -0.01200000
v -0.00125000 0.15807906 -0.01200000
v -0.00636396 0.16227797 -0.01200000
v -0.00176777 0.15768176 -0.01200000
v -0.00779423 0.16041400 -0.01200000
v -0.00216506 0.15716401 -0.01200000
v -0.00869333 0.15824337 -0.01200000
v -0.00241481 0.15656105 -0.01200000
v -0.00250000 0.15591399 -0.01200000
v 0.00865926 0.03199745 0.00000000
v 0.00865926 0.03199745 -0.01200000
v 0.00766025 0.02958564 0.00000000
v 0.00766025 0.02958564 -0.01200000
v 0.00607107 0.02751457 0.00000000
v 0.00607107 0.02751457 -0.01200000
v 0.00400000 0.02592538 0.00000000
v 0.00400000 0.02592538 -0.01200000
v 0.00158819 0.02492638 0.00000000
v 0.00158819 0.02492638 -0.01200000
v -0.00100000 0.02458564 0.00000000
v -0.00100000 0.02458564 -0.01200000
v -0.00100000 0.02458564 -0.01200000
v -0.00100000 0.02458564 0.00000000
v -0.00316505 0.02529226 0.00000000
v -0.00316505 0.02529226 -0.01200000
v -0.00511407 0.02647043 0.00000000
v -0.00511407 0.02647043 -0.01200000
v -0.00674597 0.02805904 0.00000000
v -0.00674597 0.02805904 -0.01200000
v -0.00797610 0.02997569 0.00000000
v -0.00797610 0.02997569 -0.01200000
v -0.00874066 0.03212097 0.00000000
v -0.00874066 0.03212097 -0.01200000
f 1 2 3
f 4 5 6
f 1 3 7
f 8 9 3
f 3 9 10
f 3 10 7
f 11 12 13
f 13 12 14
f 13 14 15
f 15 14 16
f 11 17 12
f 12 17 18
f 12 18 19
f 17 20 18
f 18 20 21
f 18 21 22
f 22 21 23
f 22 23 24
f 24 23 25
f 24 25 26
f 26 25 27
f 26 27 28
f 28 27 29
f 28 29 30
f 30 29 31
f 30 31 32
f 32 31 33
f 32 33 34
f 34 33 35
f 34 35 36
f 36 35 37
f 36 37 38
f 38 37 39
f 38 39 40
f 40 39 41
f 40 41 42
f 41 43 42
f 42 43 44
f 42 44 45
f 5 46 6
f 6 46 47
f 6 47 48
f 48 47 15
f 48 15 49
f 49 15 16
f 3 42 8
f 8 42 45
f 8 45 6
f 6 45 50
f 6 50 4
f 51 52 53
f 53 52 54
f 53 54 55
f 55 54 56
f 55 56 57
f 57 56 58
f 57 58 59
f 59 58 60
f 59 60 61
f 61 60 62
f 61 62 63
f 63 62 64
f 63 64 65
f 65 64 66
f 65 66 67
f 67 66 68
f 67 68 69
f 69 68 70
f 69 70 71
f 71 70 72
f 71 72 73
f 73 72 74
f 73 74 75
f 75 74 76
f 75 76 77
f 77 76 78
f 77 78 79
f 79 78 80
f 79 80 81
f 81 80 82
f 81 82 83
f 83 82 84
f 83 84 85
f 85 84 86
f 85 86 87
f 87 86 88
f 87 88 89
f 89 88 90
f 89 90 91
f 91 90 92
f 91 92 93
f 93 92 94
f 93 94 95
f 95 94 96
f 95 96 97
f 97 96 98
f 97 98 51
f 51 98 52
f 99 100 101
f 99 101 102
f 103 104 105
f 103 106 107
f 107 106 108
f 107 108 109
f 110 111 112
f 112 111 103
f 113 114 115
f 109 108 116
f 116 108 117
f 116 117 118
f 118 119 116
f 116 119 120
f 116 120 121
f 105 122 103
f 103 122 123
f 103 123 106
f 110 112 115
f 115 112 124
f 115 124 113
f 125 126 127
f 104 103 128
f 128 103 111
f 128 111 129
f 129 111 130
f 130 111 131
f 130 131 132
f 114 133 115
f 115 133 134
f 115 134 135
f 135 134 136
f 135 136 137
f 137 136 138
f 137 138 139
f 139 138 140
f 139 140 141
f 141 140 142
f 141 142 143
f 143 142 144
f 143 144 145
f 145 144 146
f 145 146 147
f 147 146 148
f 147 148 149
f 149 148 150
f 149 150 151
f 151 150 152
f 151 152 153
f 153 152 154
f 153 154 99
f 99 154 155
f 99 155 100
f 127 156 125
f 125 156 157
f 125 157 102
f 101 158 102
f 102 158 116
f 102 116 125
f 125 116 121
f 159 160 161
f 159 161 162
f 162 161 163
f 162 163 164
f 164 163 165
f 164 165 166
f 166 165 167
f 166 167 168
f 168 167 169
f 168 169 170
f 170 169 171
f 170 171 172
f 172 171 173
f 172 173 174
f 174 173 175
f 174 175 176
f 176 175 177
f 176 177 178
f 178 177 179
f 178 179 180
f 180 179 181
f 180 181 182
f 182 181 183
f 182 183 184
f 185 186 187
f 187 186 184
f 187 184 188
f 188 184 183
f 189 190 191
f 191 190 192
f 193 194 195
f 190 196 192
f 192 196 197
f 192 197 198
f 198 197 199
f 198 199 200
f 200 199 201
f 200 201 202
f 202 201 193
f 202 193 203
f 203 193 195
f 186 185 204
f 186 204 205
f 205 204 206
f 205 206 207
f 207 206 195
f 207 195 208
f 208 195 194
f 208 194 209
f 189 191 210
f 210 191 211
f 210 211 212
f 212 211 213
f 212 213 214
f 214 213 215
f 214 215 216
f 216 215 217
f 218 160 217
f 217 160 159
f 217 159 216
f 219 220 221
f 221 220 222
f 221 222 223
f 223 222 224
f 223 224 225
f 225 224 226
f 225 226 227
f 227 226 228
f 227 228 229
f 229 228 230
f 229 230 231
f 231 230 232
f 231 232 233
f 233 232 234
f 233 234 235
f 235 234 236
f 235 236 237
f 237 236 238
f 237 238 239
f 239 238 240
f 239 240 241
f 241 240 242
f 241 242 243
f 243 242 244
f 243 244 245
f 245 244 246
f 245 246 247
f 247 246 248
f 247 248 249
f 249 248 250
f 249 250 251
f 251 250 252
f 251 252 253
f 253 252 254
f 253 254 255
f 255 254 256
f 255 256 257
f 257 256 258
f 257 258 259
f 259 258 260
f 259 260 261
f 261 260 262
f 261 262 263
f 263 262 264
f 263 264 265
f 265 264 266
f 265 266 219
f 219 266 220
f 267 268 269
f 269 268 270
f 271 272 273
f 273 272 274
f 275 276 277
f 277 278 279
f 279 280 277
f 277 280 281
f 277 281 282
f 282 281 283
f 282 283 284
f 278 277 285
f 285 277 276
f 285 276 286
f 287 288 289
f 275 277 289
f 289 277 290
f 289 290 287
f 291 292 293
f 284 294 282
f 282 294 295
f 282 295 296
f 296 295 297
f 296 297 298
f 298 297 299
f 298 299 300
f 300 299 301
f 300 301 302
f 302 301 303
f 302 303 304
f 304 303 305
f 304 305 293
f 293 305 306
f 293 306 291
f 292 307 293
f 293 307 308
f 293 308 309
f 309 308 310
f 309 310 311
f 311 312 309
f 309 312 313
f 309 313 286
f 286 276 309
f 309 276 314
f 309 314 315
f 315 316 309
f 309 316 317
f 309 317 318
f 271 273 319
f 271 319 320
f 320 319 321
f 320 321 322
f 322 321 323
f 322 323 324
f 324 323 325
f 324 325 326
f 326 325 327
f 326 327 328
f 328 327 329
f 328 329 330
f 330 329 331
f 330 331 332
f 332 331 333
f 332 333 334
f 334 333 335
f 334 335 336
f 336 335 337
f 336 337 338
f 338 337 339
f 338 339 340
f 340 339 267
f 340 267 269
f 341 342 343
f 344 345 346
f 347 348 349
f 341 343 350
f 350 343 351
f 350 351 352
f 353 354 355
f 342 356 343
f 343 356 357
f 343 357 345
f 345 357 358
f 345 358 346
f 346 358 359
f 346 359 360
f 360 359 361
f 360 361 362
f 345 363 343
f 343 363 353
f 343 353 364
f 364 353 355
f 344 346 349
f 349 346 365
f 349 365 347
f 362 366 360
f 360 366 367
f 360 367 368
f 368 367 369
f 368 369 370
f 370 369 371
f 370 371 372
f 372 371 373
f 372 373 374
f 374 373 375
f 374 375 376
f 376 375 377
f 376 377 378
f 378 377 379
f 378 379 380
f 380 379 381
f 380 381 382
f 382 381 383
f 382 383 384
f 384 383 385
f 384 385 386
f 386 385 387
f 386 387 388
f 388 387 389
f 388 389 351
f 351 389 390
f 351 390 352
f 218 217 391
f 218 391 392
f 392 391 393
f 392 393 394
f 394 393 395
f 394 395 396
f 396 395 397
f 396 397 398
f 398 397 399
f 398 399 400
f 400 399 401
f 400 401 402
f 403 404 405
f 403 405 406
f 406 405 407
f 406 407 408
f 408 407 409
f 408 409 410
f 410 409 411
f 410 411 412
f 412 411 413
f 412 413 414
f 414 413 187
f 414 187 188

