# https://github.com/mikedh/trimesh
mtllib material.mtl

o ActorShape0_0-Mesh
usemtl material_0
v 0.03000000 0.09378776 0.03887811
v 0.04800000 0.09378776 0.03887811
v 0.03000000 0.09378776 0.03387811
v 0.04800000 0.09378776 0.03387811
v 0.03770591 0.08361739 0.03887811
v 0.03900000 0.08378776 0.03887811
v 0.03000000 0.09378776 0.03887811
v 0.04800000 0.09378776 0.03887811
v 0.03770591 0.07395814 0.03887811
v 0.00000000 0.01174090 0.03887811
v 0.03900000 0.07378776 0.03887811
v 0.07800000 0.01174090 0.03887811
v 0.04029410 0.07395814 0.03887811
v 0.04150000 0.07445764 0.03887811
v 0.03650000 0.07445764 0.03887811
v 0.03546447 0.07525223 0.03887811
v 0.00000000 0.06378777 0.03887811
v 0.03466987 0.07628776 0.03887811
v 0.00102223 0.07155234 0.03887811
v 0.03417037 0.07749367 0.03887811
v 0.00401924 0.07878776 0.03887811
v 0.03400000 0.07878776 0.03887811
v 0.00878680 0.08500096 0.03887811
v 0.03417037 0.08008186 0.03887811
v 0.01500000 0.08976852 0.03887811
v 0.03466987 0.08128776 0.03887811
v 0.02223543 0.09276554 0.03887811
v 0.03546447 0.08232330 0.03887811
v 0.03650000 0.08311789 0.03887811
v 0.04029410 0.08361739 0.03887811
v 0.04150000 0.08311789 0.03887811
v 0.05576457 0.09276554 0.03887811
v 0.04253553 0.08232330 0.03887811
v 0.06300000 0.08976852 0.03887811
v 0.04333013 0.08128776 0.03887811
v 0.06921320 0.08500096 0.03887811
v 0.04382963 0.08008186 0.03887811
v 0.07398076 0.07878776 0.03887811
v 0.04400000 0.07878776 0.03887811
v 0.07697777 0.07155234 0.03887811
v 0.04382963 0.07749367 0.03887811
v 0.07800000 0.06378777 0.03887811
v 0.04333013 0.07628776 0.03887811
v 0.04253553 0.07525223 0.03887811
v 0.00000000 0.00630839 0.03727381
v 0.00000000 -0.07164475 -0.01316646
v 0.07800000 0.00630839 0.03727381
v 0.07800000 -0.07164475 -0.01316646
v 0.00000000 -0.07621223 -0.20612189
v -0.04750000 -0.07621223 -0.20612189
v -0.04750000 -0.07621223 -0.33512190
v 0.03352627 -0.07621223 -0.06750668
v 0.03533513 -0.07621223 -0.06675743
v 0.00000000 -0.07621223 -0.02156216
v 0.03727627 -0.07621223 -0.06650186
v 0.07800000 -0.07621223 -0.02156216
v 0.03921742 -0.07621223 -0.06675743
v 0.03727627 -0.07621223 -0.08150186
v 0.03533513 -0.07621223 -0.08124631
v 0.03352627 -0.07621223 -0.08049706
v 0.03197297 -0.07621223 -0.07930516
v 0.03003183 -0.07621223 -0.07206073
v 0.03078108 -0.07621223 -0.07025187
v 0.03197297 -0.07621223 -0.06869856
v 0.04102627 -0.07621223 -0.06750668
v 0.04257957 -0.07621223 -0.06869856
v 0.04377146 -0.07621223 -0.07025187
v 0.12549999 -0.07621223 -0.33512190
v 0.12549999 -0.07621223 -0.20612189
v 0.07800000 -0.07621223 -0.20612189
v 0.03921742 -0.07621223 -0.08124631
v 0.04377146 -0.07621223 -0.07775187
v 0.04257957 -0.07621223 -0.07930516
v 0.04102627 -0.07621223 -0.08049706
v 0.03078108 -0.07621223 -0.07775187
v 0.03003183 -0.07621223 -0.07594301
v 0.02977627 -0.07621223 -0.07400186
v 0.04452072 -0.07621223 -0.07206073
v 0.04477627 -0.07621223 -0.07400186
v 0.04452072 -0.07621223 -0.07594301
v 0.03533513 -0.07121224 -0.06675743
v 0.03352627 -0.07121224 -0.06750668
v 0.00000000 -0.07121224 -0.02332687
v 0.03197297 -0.07121224 -0.06869856
v 0.03078108 -0.07121224 -0.07025187
v 0.07800000 -0.07121224 -0.20612189
v 0.04102627 -0.07121224 -0.08049706
v 0.04257957 -0.07121224 -0.07930516
v 0.07800000 -0.07121224 -0.02332687
v 0.03921742 -0.07121224 -0.06675743
v 0.03727627 -0.07121224 -0.06650186
v 0.03078108 -0.07121224 -0.07775187
v 0.03197297 -0.07121224 -0.07930516
v 0.00000000 -0.07121224 -0.20612189
v 0.03352627 -0.07121224 -0.08049706
v 0.03533513 -0.07121224 -0.08124631
v 0.03727627 -0.07121224 -0.08150186
v 0.03921742 -0.07121224 -0.08124631
v 0.04452072 -0.07121224 -0.07206073
v 0.04377146 -0.07121224 -0.07025187
v 0.04257957 -0.07121224 -0.06869856
v 0.04102627 -0.07121224 -0.06750668
v 0.03003183 -0.07121224 -0.07206073
v 0.02977627 -0.07121224 -0.07400186
v 0.03003183 -0.07121224 -0.07594301
v 0.04377146 -0.07121224 -0.07775187
v 0.04452072 -0.07121224 -0.07594301
v 0.04477627 -0.07121224 -0.07400186
v 0.07800000 0.00630839 0.03227381
v 0.07800000 -0.06664475 -0.01493116
v 0.00000000 0.00630839 0.03227381
v 0.00000000 -0.06664475 -0.01493116
v 0.04029410 0.08361739 0.03387811
v 0.03900000 0.08378776 0.03387811
v 0.04800000 0.09378776 0.03387811
v 0.03000000 0.09378776 0.03387811
v 0.03770591 0.08361739 0.03387811
v 0.03650000 0.08311789 0.03387811
v 0.02223543 0.09276554 0.03387811
v 0.03546447 0.08232330 0.03387811
v 0.01500000 0.08976852 0.03387811
v 0.03466987 0.08128776 0.03387811
v 0.00878680 0.08500096 0.03387811
v 0.03417037 0.08008186 0.03387811
v 0.00401924 0.07878776 0.03387811
v 0.03400000 0.07878776 0.03387811
v 0.00102223 0.07155234 0.03387811
v 0.03417037 0.07749367 0.03387811
v 0.00000000 0.06378777 0.03387811
v 0.03466987 0.07628776 0.03387811
v 0.00000000 0.01174090 0.03387811
v 0.03546447 0.07525223 0.03387811
v 0.03650000 0.07445764 0.03387811
v 0.03770591 0.07395814 0.03387811
v 0.07800000 0.01174090 0.03387811
v 0.03900000 0.07378776 0.03387811
v 0.04029410 0.07395814 0.03387811
v 0.04150000 0.07445764 0.03387811
v 0.04253553 0.07525223 0.03387811
v 0.07800000 0.06378777 0.03387811
v 0.04333013 0.07628776 0.03387811
v 0.07697777 0.07155234 0.03387811
v 0.04382963 0.07749367 0.03387811
v 0.07398076 0.07878776 0.03387811
v 0.04400000 0.07878776 0.03387811
v 0.06921320 0.08500096 0.03387811
v 0.04382963 0.08008186 0.03387811
v 0.06300000 0.08976852 0.03387811
v 0.04333013 0.08128776 0.03387811
v 0.05576457 0.09276554 0.03387811
v 0.04253553 0.08232330 0.03387811
v 0.04150000 0.08311789 0.03387811
v 0.07800000 -0.07621223 -0.20612189
v 0.07800000 -0.07121224 -0.20612189
v 0.07800000 -0.07621223 -0.02156216
v 0.07800000 -0.07121224 -0.02332687
v 0.07800000 -0.07590353 -0.01909662
v 0.07800000 -0.07090352 -0.02086133
v 0.07800000 -0.07499646 -0.01678331
v 0.07800000 -0.06999646 -0.01854801
v 0.07800000 -0.07354704 -0.01476505
v 0.07800000 -0.06854704 -0.01652976
v 0.07800000 -0.07164475 -0.01316646
v 0.07800000 -0.06664475 -0.01493116
v 0.07800000 0.00630839 0.03727381
v 0.07800000 0.00630839 0.03227381
v 0.07800000 0.00800506 0.03315407
v 0.07800000 0.00800506 0.03815407
v 0.07800000 0.00983823 0.03369543
v 0.07800000 0.06378777 0.03387811
v 0.07800000 0.06378777 0.03887811
v 0.07800000 0.01174090 0.03387811
v 0.07800000 0.01174090 0.03887811
v 0.07800000 0.00983823 0.03869543
v 0.00000000 -0.07164475 -0.01316646
v 0.00000000 -0.06854704 -0.01652976
v 0.00000000 -0.07354704 -0.01476505
v 0.00000000 -0.06999646 -0.01854801
v 0.00000000 -0.07121224 -0.20612189
v 0.00000000 -0.07621223 -0.20612189
v 0.00000000 -0.07121224 -0.02332687
v 0.00000000 -0.07621223 -0.02156216
v 0.00000000 -0.07090352 -0.02086133
v 0.00000000 -0.07590353 -0.01909662
v 0.00000000 -0.07499646 -0.01678331
v 0.00000000 0.06378777 0.03887811
v 0.00000000 0.06378777 0.03387811
v 0.00000000 0.01174090 0.03887811
v 0.00000000 0.01174090 0.03387811
v 0.00000000 0.00983823 0.03869543
v 0.00000000 0.00983823 0.03369543
v 0.00000000 0.00800506 0.03815407
v 0.00000000 0.00800506 0.03315407
v 0.00000000 0.00630839 0.03727381
v 0.00000000 0.00630839 0.03227381
v 0.00000000 -0.06664475 -0.01493116
v 0.00000000 0.00983823 0.03869543
v 0.07800000 0.00983823 0.03869543
v 0.00000000 0.00800506 0.03815407
v 0.07800000 0.00800506 0.03815407
v 0.07800000 0.00983823 0.03369543
v 0.00000000 0.00983823 0.03369543
v 0.07800000 0.00800506 0.03315407
v 0.00000000 0.00800506 0.03315407
v 0.07800000 -0.06854704 -0.01652976
v 0.00000000 -0.06854704 -0.01652976
v 0.07800000 -0.06999646 -0.01854801
v 0.00000000 -0.06999646 -0.01854801
v 0.07800000 -0.07090352 -0.02086133
v 0.00000000 -0.07090352 -0.02086133
v 0.00000000 -0.07354704 -0.01476505
v 0.07800000 -0.07354704 -0.01476505
v 0.00000000 -0.07499646 -0.01678331
v 0.07800000 -0.07499646 -0.01678331
v 0.00000000 -0.07590353 -0.01909662
v 0.07800000 -0.07590353 -0.01909662
v 0.03533513 -0.07621223 -0.06675743
v 0.03727627 -0.07121224 -0.06650186
v 0.03727627 -0.07621223 -0.06650186
v 0.03921742 -0.07121224 -0.06675743
v 0.03921742 -0.07621223 -0.06675743
v 0.04102627 -0.07121224 -0.06750668
v 0.04102627 -0.07621223 -0.06750668
v 0.04257957 -0.07121224 -0.06869856
v 0.04257957 -0.07621223 -0.06869856
v 0.04377146 -0.07121224 -0.07025187
v 0.04377146 -0.07621223 -0.07025187
v 0.04452072 -0.07121224 -0.07206073
v 0.04452072 -0.07621223 -0.07206073
v 0.04477627 -0.07121224 -0.07400186
v 0.04477627 -0.07621223 -0.07400186
v 0.04452072 -0.07121224 -0.07594301
v 0.04452072 -0.07621223 -0.07594301
v 0.04377146 -0.07121224 -0.07775187
v 0.04377146 -0.07621223 -0.07775187
v 0.04257957 -0.07121224 -0.07930516
v 0.04257957 -0.07621223 -0.07930516
v 0.04102627 -0.07121224 -0.08049706
v 0.04102627 -0.07621223 -0.08049706
v 0.03921742 -0.07121224 -0.08124631
v 0.03921742 -0.07621223 -0.08124631
v 0.03727627 -0.07121224 -0.08150186
v 0.03727627 -0.07621223 -0.08150186
v 0.03533513 -0.07121224 -0.08124631
v 0.03533513 -0.07621223 -0.08124631
v 0.03352627 -0.07121224 -0.08049706
v 0.03352627 -0.07621223 -0.08049706
v 0.03197297 -0.07121224 -0.07930516
v 0.03197297 -0.07621223 -0.07930516
v 0.03078108 -0.07121224 -0.07775187
v 0.03078108 -0.07621223 -0.07775187
v 0.03003183 -0.07121224 -0.07594301
v 0.03003183 -0.07621223 -0.07594301
v 0.02977627 -0.07121224 -0.07400186
v 0.02977627 -0.07621223 -0.07400186
v 0.03003183 -0.07121224 -0.07206073
v 0.03003183 -0.07621223 -0.07206073
v 0.03078108 -0.07121224 -0.07025187
v 0.03078108 -0.07621223 -0.07025187
v 0.03197297 -0.07121224 -0.06869856
v 0.03197297 -0.07621223 -0.06869856
v 0.03352627 -0.07121224 -0.06750668
v 0.03352627 -0.07621223 -0.06750668
v 0.03533513 -0.07121224 -0.06675743
v 0.02223543 0.09276554 0.03387811
v 0.02223543 0.09276554 0.03887811
v 0.01500000 0.08976852 0.03387811
v 0.01500000 0.08976852 0.03887811
v 0.00878680 0.08500096 0.03387811
v 0.00878680 0.08500096 0.03887811
v 0.00401924 0.07878776 0.03387811
v 0.00401924 0.07878776 0.03887811
v 0.00102223 0.07155234 0.03387811
v 0.00102223 0.07155234 0.03887811
v 0.05576457 0.09276554 0.03887811
v 0.05576457 0.09276554 0.03387811
v 0.06300000 0.08976852 0.03887811
v 0.06300000 0.08976852 0.03387811
v 0.06921320 0.08500096 0.03887811
v 0.06921320 0.08500096 0.03387811
v 0.07398076 0.07878776 0.03887811
v 0.07398076 0.07878776 0.03387811
v 0.07697777 0.07155234 0.03887811
v 0.07697777 0.07155234 0.03387811
v 0.07800000 -0.07621223 -0.20612189
v 0.12549999 -0.07621223 -0.20612189
v 0.07800000 -0.07121224 -0.20612189
v 0.12549999 -0.04721224 -0.20612189
v 0.00000000 -0.07121224 -0.20612189
v -0.04750000 -0.04721224 -0.20612189
v 0.00000000 -0.07621223 -0.20612189
v -0.04750000 -0.07621223 -0.20612189
v 0.12549999 0.00424887 -0.30051118
v 0.12549999 -0.00411619 -0.29869148
v 0.12549999 -0.07621223 -0.33512190
v 0.12549999 -0.01213714 -0.29569981
v 0.12549999 -0.01965069 -0.29159710
v 0.12549999 -0.02650388 -0.28646687
v 0.12549999 -0.03255721 -0.28041354
v 0.12549999 -0.03768745 -0.27356035
v 0.12549999 -0.04179016 -0.26604679
v 0.12549999 0.10178776 -0.33512190
v 0.12549999 0.10178776 -0.30112189
v 0.12549999 0.01278776 -0.30112189
v 0.12549999 -0.04478182 -0.25802585
v 0.12549999 -0.04660152 -0.24966078
v 0.12549999 -0.07621223 -0.20612189
v 0.12549999 -0.04721224 -0.24112189
v 0.12549999 -0.04721224 -0.20612189
v -0.04750000 -0.01965069 -0.29159710
v -0.04750000 -0.01213714 -0.29569981
v -0.04750000 -0.07621223 -0.33512190
v -0.04750000 -0.00411619 -0.29869148
v -0.04750000 0.10178776 -0.30112189
v -0.04750000 0.10178776 -0.33512190
v -0.04750000 0.01278776 -0.30112189
v -0.04750000 0.00424887 -0.30051118
v -0.04750000 -0.04660152 -0.24966078
v -0.04750000 -0.04478182 -0.25802585
v -0.04750000 -0.04179016 -0.26604679
v -0.04750000 -0.03768745 -0.27356035
v -0.04750000 -0.03255721 -0.28041354
v -0.04750000 -0.02650388 -0.28646687
v -0.04750000 -0.04721224 -0.24112189
v -0.04750000 -0.07621223 -0.20612189
v -0.04750000 -0.04721224 -0.20612189
v -0.01750000 -0.01721224 -0.24112189
v -0.01750000 -0.01721224 -0.23612189
v 0.09550000 -0.01721224 -0.24112189
v 0.09550000 -0.01721224 -0.23612189
v 0.03770591 0.08361739 -0.27112189
v 0.03900000 0.08378776 -0.27112189
v 0.00250000 0.12178776 -0.27112189
v 0.07550000 0.12178776 -0.27112189
v 0.04382963 0.07749367 -0.27112189
v 0.09550000 0.01278776 -0.27112189
v 0.04400000 0.07878776 -0.27112189
v 0.09550000 0.10178776 -0.27112189
v 0.04382963 0.08008186 -0.27112189
v -0.01750000 0.01278776 -0.27112189
v 0.03650000 0.07445764 -0.27112189
v 0.03546447 0.07525223 -0.27112189
v 0.03650000 0.08311789 -0.27112189
v -0.00062869 0.12154153 -0.27112189
v 0.03546447 0.08232330 -0.27112189
v 0.04333013 0.07628776 -0.27112189
v 0.04253553 0.07525223 -0.27112189
v 0.04150000 0.07445764 -0.27112189
v 0.04029410 0.07395814 -0.27112189
v 0.03900000 0.07378776 -0.27112189
v 0.03770591 0.07395814 -0.27112189
v 0.03466987 0.07628776 -0.27112189
v 0.03417037 0.07749367 -0.27112189
v -0.01750000 0.10178776 -0.27112189
v -0.00368034 0.12080889 -0.27112189
v -0.00657981 0.11960790 -0.27112189
v 0.03466987 0.08128776 -0.27112189
v 0.04029410 0.08361739 -0.27112189
v 0.04150000 0.08311789 -0.27112189
v 0.07862869 0.12154153 -0.27112189
v 0.04253553 0.08232330 -0.27112189
v 0.09168034 0.11354347 -0.27112189
v 0.08964214 0.11592989 -0.27112189
v 0.09332013 0.11086757 -0.27112189
v 0.04333013 0.08128776 -0.27112189
v 0.09452113 0.10796810 -0.27112189
v 0.09525377 0.10491645 -0.27112189
v 0.03400000 0.07878776 -0.27112189
v 0.03417037 0.08008186 -0.27112189
v -0.01725377 0.10491645 -0.27112189
v -0.01652113 0.10796810 -0.27112189
v -0.01532013 0.11086757 -0.27112189
v -0.01368034 0.11354347 -0.27112189
v -0.01164214 0.11592989 -0.27112189
v -0.00925571 0.11796810 -0.27112189
v 0.08725570 0.11796810 -0.27112189
v 0.08457981 0.11960790 -0.27112189
v 0.08168034 0.12080889 -0.27112189
v -0.04688442 0.10960948 -0.33512190
v -0.04688442 0.10960948 -0.30112189
v -0.04642687 0.11151530 -0.33512190
v -0.04642687 0.11151530 -0.30112189
v -0.04505283 0.11723861 -0.33512190
v -0.04505283 0.11723861 -0.30112189
v -0.04355158 0.12086295 -0.33512190
v -0.04355158 0.12086295 -0.30112189
v -0.04205032 0.12448729 -0.33512190
v -0.04205032 0.12448729 -0.30112189
v -0.03897493 0.12950589 -0.33512190
v -0.03897493 0.12950589 -0.30112189
v -0.03795085 0.13117702 -0.33512190
v -0.03795085 0.13117702 -0.30112189
v -0.03285534 0.13714311 -0.33512190
v -0.03285534 0.13714311 -0.30112189
v -0.02688926 0.14223862 -0.33512190
v -0.02688926 0.14223862 -0.30112189
v -0.02521812 0.14326268 -0.33512190
v -0.02521812 0.14326268 -0.30112189
v -0.02019952 0.14633809 -0.33512190
v -0.02019952 0.14633809 -0.30112189
v -0.01657519 0.14783934 -0.33512190
v -0.01657519 0.14783934 -0.30112189
v -0.01295085 0.14934058 -0.33512190
v -0.01295085 0.14934058 -0.30112189
v -0.00722753 0.15071464 -0.33512190
v -0.00722753 0.15071464 -0.30112189
v -0.00532172 0.15117218 -0.33512190
v -0.00532172 0.15117218 -0.30112189
v 0.00250000 0.15178776 -0.33512190
v 0.00250000 0.15178776 -0.30112189
v 0.07550000 0.15178776 -0.33512190
v 0.07550000 0.15178776 -0.30112189
v 0.08332172 0.15117218 -0.33512190
v 0.08332172 0.15117218 -0.30112189
v 0.08522753 0.15071464 -0.33512190
v 0.08522753 0.15071464 -0.30112189
v 0.09095085 0.14934058 -0.33512190
v 0.09095085 0.14934058 -0.30112189
v 0.09457519 0.14783934 -0.33512190
v 0.09457519 0.14783934 -0.30112189
v 0.09819952 0.14633809 -0.33512190
v 0.09819952 0.14633809 -0.30112189
v 0.10321812 0.14326268 -0.33512190
v 0.10321812 0.14326268 -0.30112189
v 0.10488927 0.14223862 -0.33512190
v 0.10488927 0.14223862 -0.30112189
v 0.11085534 0.13714311 -0.33512190
v 0.11085534 0.13714311 -0.30112189
v 0.11595085 0.13117702 -0.33512190
v 0.11595085 0.13117702 -0.30112189
v 0.11697493 0.12950589 -0.33512190
v 0.11697493 0.12950589 -0.30112189
v 0.12005033 0.12448729 -0.33512190
v 0.12005033 0.12448729 -0.30112189
v 0.12155157 0.12086295 -0.33512190
v 0.12155157 0.12086295 -0.30112189
v 0.12305283 0.11723861 -0.33512190
v 0.12305283 0.11723861 -0.30112189
v 0.12442687 0.11151530 -0.33512190
v 0.12442687 0.11151530 -0.30112189
v 0.12488442 0.10960948 -0.33512190
v 0.12488442 0.10960948 -0.30112189
v -0.01750000 0.10178776 -0.36512190
v 0.03400000 0.07878776 -0.36512190
v 0.03417037 0.07749367 -0.36512190
v 0.04029410 0.07395814 -0.36512190
v 0.04150000 0.07445764 -0.36512190
v 0.09550000 -0.04621224 -0.36512190
v 0.04029410 0.08361739 -0.36512190
v 0.03900000 0.08378776 -0.36512190
v 0.07550000 0.12178776 -0.36512190
v 0.00250000 0.12178776 -0.36512190
v -0.01750000 -0.04621224 -0.36512190
v 0.03466987 0.07628776 -0.36512190
v 0.03546447 0.07525223 -0.36512190
v 0.03650000 0.07445764 -0.36512190
v 0.03770591 0.07395814 -0.36512190
v 0.03900000 0.07378776 -0.36512190
v 0.04150000 0.08311789 -0.36512190
v 0.07862869 0.12154153 -0.36512190
v 0.04253553 0.08232330 -0.36512190
v 0.03770591 0.08361739 -0.36512190
v 0.03650000 0.08311789 -0.36512190
v -0.00062869 0.12154153 -0.36512190
v 0.03546447 0.08232330 -0.36512190
v -0.01368034 0.11354347 -0.36512190
v -0.01164214 0.11592989 -0.36512190
v -0.01532013 0.11086757 -0.36512190
v 0.03466987 0.08128776 -0.36512190
v -0.01652113 0.10796810 -0.36512190
v -0.01725377 0.10491645 -0.36512190
v 0.03417037 0.08008186 -0.36512190
v 0.04382963 0.07749367 -0.36512190
v 0.09550000 0.10178776 -0.36512190
v 0.04333013 0.07628776 -0.36512190
v 0.04253553 0.07525223 -0.36512190
v 0.08168034 0.12080889 -0.36512190
v 0.08457981 0.11960790 -0.36512190
v 0.04333013 0.08128776 -0.36512190
v -0.00925571 0.11796810 -0.36512190
v -0.00657981 0.11960790 -0.36512190
v -0.00368034 0.12080889 -0.36512190
v 0.09168034 0.11354347 -0.36512190
v 0.09332013 0.11086757 -0.36512190
v 0.08964214 0.11592989 -0.36512190
v 0.08725570 0.11796810 -0.36512190
v 0.04400000 0.07878776 -0.36512190
v 0.04382963 0.08008186 -0.36512190
v 0.09525377 0.10491645 -0.36512190
v 0.09452113 0.10796810 -0.36512190
v 0.04382963 0.07749367 -0.36512190
v 0.04400000 0.07878776 -0.27112189
v 0.04400000 0.07878776 -0.36512190
v 0.04382963 0.08008186 -0.27112189
v 0.04382963 0.08008186 -0.36512190
v 0.04333013 0.08128776 -0.27112189
v 0.04333013 0.08128776 -0.36512190
v 0.04253553 0.08232330 -0.27112189
v 0.04253553 0.08232330 -0.36512190
v 0.04150000 0.08311789 -0.27112189
v 0.04150000 0.08311789 -0.36512190
v 0.04029410 0.08361739 -0.27112189
v 0.04029410 0.08361739 -0.36512190
v 0.03900000 0.08378776 -0.27112189
v 0.03900000 0.08378776 -0.36512190
v 0.03770591 0.08361739 -0.27112189
v 0.03770591 0.08361739 -0.36512190
v 0.03650000 0.08311789 -0.27112189
v 0.03650000 0.08311789 -0.36512190
v 0.03546447 0.08232330 -0.27112189
v 0.03546447 0.08232330 -0.36512190
v 0.03466987 0.08128776 -0.27112189
v 0.03466987 0.08128776 -0.36512190
v 0.03417037 0.08008186 -0.27112189
v 0.03417037 0.08008186 -0.36512190
v 0.03400000 0.07878776 -0.27112189
v 0.03400000 0.07878776 -0.36512190
v 0.03417037 0.07749367 -0.27112189
v 0.03417037 0.07749367 -0.36512190
v 0.03466987 0.07628776 -0.27112189
v 0.03466987 0.07628776 -0.36512190
v 0.03546447 0.07525223 -0.27112189
v 0.03546447 0.07525223 -0.36512190
v 0.03650000 0.07445764 -0.27112189
v 0.03650000 0.07445764 -0.36512190
v 0.03770591 0.07395814 -0.27112189
v 0.03770591 0.07395814 -0.36512190
v 0.03900000 0.07378776 -0.27112189
v 0.03900000 0.07378776 -0.36512190
v 0.04029410 0.07395814 -0.27112189
v 0.04029410 0.07395814 -0.36512190
v 0.04150000 0.07445764 -0.27112189
v 0.04150000 0.07445764 -0.36512190
v 0.04253553 0.07525223 -0.27112189
v 0.04253553 0.07525223 -0.36512190
v 0.04333013 0.07628776 -0.27112189
v 0.04333013 0.07628776 -0.36512190
v 0.04382963 0.07749367 -0.27112189
v 0.04382963 0.07749367 0.03387811
v 0.04400000 0.07878776 0.03887811
v 0.04400000 0.07878776 0.03387811
v 0.04382963 0.08008186 0.03887811
v 0.04382963 0.08008186 0.03387811
v 0.04333013 0.08128776 0.03887811
v 0.04333013 0.08128776 0.03387811
v 0.04253553 0.08232330 0.03887811
v 0.04253553 0.08232330 0.03387811
v 0.04150000 0.08311789 0.03887811
v 0.04150000 0.08311789 0.03387811
v 0.04029410 0.08361739 0.03887811
v 0.04029410 0.08361739 0.03387811
v 0.03900000 0.08378776 0.03887811
v 0.03900000 0.08378776 0.03387811
v 0.03770591 0.08361739 0.03887811
v 0.03770591 0.08361739 0.03387811
v 0.03650000 0.08311789 0.03887811
v 0.03650000 0.08311789 0.03387811
v 0.03546447 0.08232330 0.03887811
v 0.03546447 0.08232330 0.03387811
v 0.03466987 0.08128776 0.03887811
v 0.03466987 0.08128776 0.03387811
v 0.03417037 0.08008186 0.03887811
v 0.03417037 0.08008186 0.03387811
v 0.03400000 0.07878776 0.03887811
v 0.03400000 0.07878776 0.03387811
v 0.03417037 0.07749367 0.03887811
v 0.03417037 0.07749367 0.03387811
v 0.03466987 0.07628776 0.03887811
v 0.03466987 0.07628776 0.03387811
v 0.03546447 0.07525223 0.03887811
v 0.03546447 0.07525223 0.03387811
v 0.03650000 0.07445764 0.03887811
v 0.03650000 0.07445764 0.03387811
v 0.03770591 0.07395814 0.03887811
v 0.03770591 0.07395814 0.03387811
v 0.03900000 0.07378776 0.03887811
v 0.03900000 0.07378776 0.03387811
v 0.04029410 0.07395814 0.03887811
v 0.04029410 0.07395814 0.03387811
v 0.04150000 0.07445764 0.03887811
v 0.04150000 0.07445764 0.03387811
v 0.04253553 0.07525223 0.03887811
v 0.04253553 0.07525223 0.03387811
v 0.04333013 0.07628776 0.03887811
v 0.04333013 0.07628776 0.03387811
v 0.04382963 0.07749367 0.03887811
v 0.07550000 0.12951507 -0.27226698
v 0.07550000 0.12764047 -0.27169833
v 0.07954425 0.12732218 -0.27169833
v 0.10322730 0.10178776 -0.27226698
v 0.10698050 0.10178776 -0.27340549
v 0.10659292 0.10671240 -0.27340549
v 0.07550000 0.13672724 -0.27525437
v 0.07550000 0.13326827 -0.27340549
v 0.08042464 0.13288069 -0.27340549
v 0.11043947 0.10178776 -0.27525437
v 0.11216711 0.10178776 -0.27617779
v 0.11171567 0.10752376 -0.27617779
v 0.07550000 0.14765529 -0.28618240
v 0.07550000 0.14673185 -0.28445479
v 0.08253080 0.14617851 -0.28445479
v 0.12136753 0.10178776 -0.28618240
v 0.12321638 0.10178776 -0.28964138
v 0.12262892 0.10925225 -0.28964138
v 0.07550000 0.15064266 -0.29339460
v 0.07550000 0.14950415 -0.28964138
v 0.08296449 0.14891668 -0.28964138
v 0.12435491 0.10178776 -0.29339460
v 0.12492356 0.10178776 -0.29526919
v 0.12431508 0.10951931 -0.29526919
v 0.12250460 0.11706048 -0.29526919
v 0.11953671 0.12422559 -0.29526919
v 0.11548450 0.13083820 -0.29526919
v 0.11044773 0.13673550 -0.29526919
v 0.10455044 0.14177226 -0.29526919
v 0.09793782 0.14582448 -0.29526919
v 0.09077272 0.14879236 -0.29526919
v 0.07550000 0.15121132 -0.29526919
v 0.08323155 0.15060283 -0.29526919
v 0.09024517 0.14716874 -0.28964138
v 0.09716278 0.14430337 -0.28964138
v 0.10354698 0.14039113 -0.28964138
v 0.10924058 0.13552834 -0.28964138
v 0.11410337 0.12983476 -0.28964138
v 0.11801561 0.12345055 -0.28964138
v 0.12088098 0.11653294 -0.28964138
v 0.08938849 0.14453213 -0.28445479
v 0.09590419 0.14183323 -0.28445479
v 0.10191748 0.13814829 -0.28445479
v 0.10728027 0.13356803 -0.28445479
v 0.11186053 0.12820524 -0.28445479
v 0.11554547 0.12219195 -0.28445479
v 0.11824436 0.11567625 -0.28445479
v 0.11989075 0.10881857 -0.28445479
v 0.12044409 0.10178776 -0.28445479
v 0.07550000 0.14300096 -0.27990869
v 0.08194716 0.14249356 -0.27990869
v 0.08823558 0.14098385 -0.27990869
v 0.09421040 0.13850899 -0.27990869
v 0.09972452 0.13512994 -0.27990869
v 0.10464214 0.13092990 -0.27990869
v 0.10884218 0.12601228 -0.27990869
v 0.11222123 0.12049817 -0.27990869
v 0.11469609 0.11452334 -0.27990869
v 0.11620580 0.10823493 -0.27990869
v 0.11671320 0.10178776 -0.27990869
v 0.07550000 0.13845487 -0.27617779
v 0.08123600 0.13800344 -0.27617779
v 0.08683076 0.13666025 -0.27617779
v 0.09214652 0.13445839 -0.27617779
v 0.09705239 0.13145207 -0.27617779
v 0.10142756 0.12771532 -0.27617779
v 0.10516431 0.12334014 -0.27617779
v 0.10817063 0.11843428 -0.27617779
v 0.11037249 0.11311852 -0.27617779
v 0.08522801 0.13172750 -0.27340549
v 0.08979185 0.12983710 -0.27340549
v 0.09400377 0.12725602 -0.27340549
v 0.09776007 0.12404784 -0.27340549
v 0.10096826 0.12029154 -0.27340549
v 0.10354933 0.11607961 -0.27340549
v 0.10543974 0.11151578 -0.27340549
v 0.08348893 0.12637515 -0.27169833
v 0.08723688 0.12482270 -0.27169833
v 0.09069584 0.12270305 -0.27169833
v 0.09378063 0.12006839 -0.27169833
v 0.09641528 0.11698360 -0.27169833
v 0.09853493 0.11352465 -0.27169833
v 0.10008739 0.10977669 -0.27169833
v 0.10103442 0.10583202 -0.27169833
v 0.10135271 0.10178776 -0.27169833
v 0.00250000 0.12764047 -0.27169833
v 0.00250000 0.12951507 -0.27226698
v 0.00250000 0.13326827 -0.27340549
v 0.00250000 0.13672724 -0.27525437
v 0.00250000 0.13845487 -0.27617779
v 0.00250000 0.14300096 -0.27990869
v 0.00250000 0.14673185 -0.28445479
v 0.00250000 0.14765529 -0.28618240
v 0.00250000 0.14950415 -0.28964138
v 0.00250000 0.15064266 -0.29339460
v 0.00250000 0.15121132 -0.29526919
v 0.10135271 0.01278776 -0.27169833
v 0.10322730 0.01278776 -0.27226698
v 0.10698050 0.01278776 -0.27340549
v 0.11043947 0.01278776 -0.27525437
v 0.11216711 0.01278776 -0.27617779
v 0.11671320 0.01278776 -0.27990869
v 0.12044409 0.01278776 -0.28445479
v 0.12136753 0.01278776 -0.28618240
v 0.12321638 0.01278776 -0.28964138
v 0.12435491 0.01278776 -0.29339460
v 0.12492356 0.01278776 -0.29526919
v -0.02522730 0.10178776 -0.27226698
v -0.02335271 0.10178776 -0.27169833
v -0.02303442 0.10583202 -0.27169833
v -0.00242464 0.13288069 -0.27340549
v -0.03243947 0.10178776 -0.27525437
v -0.02898050 0.10178776 -0.27340549
v -0.02859293 0.10671240 -0.27340549
v -0.00323600 0.13800344 -0.27617779
v -0.04336753 0.10178776 -0.28618240
v -0.04244409 0.10178776 -0.28445479
v -0.04189075 0.10881857 -0.28445479
v -0.00496449 0.14891668 -0.28964138
v -0.04635491 0.10178776 -0.29339460
v -0.04521639 0.10178776 -0.28964138
v -0.04462892 0.10925225 -0.28964138
v -0.00523155 0.15060283 -0.29526919
v -0.01277272 0.14879236 -0.29526919
v -0.01993783 0.14582448 -0.29526919
v -0.02655044 0.14177226 -0.29526919
v -0.03244773 0.13673550 -0.29526919
v -0.03748450 0.13083820 -0.29526919
v -0.04153671 0.12422559 -0.29526919
v -0.04450460 0.11706048 -0.29526919
v -0.04692356 0.10178776 -0.29526919
v -0.04631507 0.10951931 -0.29526919
v -0.04288098 0.11653294 -0.28964138
v -0.04001561 0.12345055 -0.28964138
v -0.03610337 0.12983476 -0.28964138
v -0.03124058 0.13552834 -0.28964138
v -0.02554699 0.14039113 -0.28964138
v -0.01916279 0.14430337 -0.28964138
v -0.01224517 0.14716874 -0.28964138
v -0.04024437 0.11567625 -0.28445479
v -0.03754548 0.12219195 -0.28445479
v -0.03386053 0.12820524 -0.28445479
v -0.02928027 0.13356803 -0.28445479
v -0.02391747 0.13814829 -0.28445479
v -0.01790419 0.14183323 -0.28445479
v -0.01138849 0.14453213 -0.28445479
v -0.00453080 0.14617851 -0.28445479
v -0.03871320 0.10178776 -0.27990869
v -0.03820580 0.10823493 -0.27990869
v -0.03669608 0.11452334 -0.27990869
v -0.03422123 0.12049817 -0.27990869
v -0.03084218 0.12601228 -0.27990869
v -0.02664214 0.13092990 -0.27990869
v -0.02172451 0.13512994 -0.27990869
v -0.01621040 0.13850899 -0.27990869
v -0.01023558 0.14098385 -0.27990869
v -0.00394716 0.14249356 -0.27990869
v -0.03416711 0.10178776 -0.27617779
v -0.03371567 0.10752376 -0.27617779
v -0.03237249 0.11311852 -0.27617779
v -0.03017063 0.11843428 -0.27617779
v -0.02716431 0.12334014 -0.27617779
v -0.02342756 0.12771532 -0.27617779
v -0.01905238 0.13145207 -0.27617779
v -0.01414652 0.13445839 -0.27617779
v -0.00883076 0.13666025 -0.27617779
v -0.02743974 0.11151578 -0.27340549
v -0.02554933 0.11607961 -0.27340549
v -0.02296826 0.12029154 -0.27340549
v -0.01976008 0.12404784 -0.27340549
v -0.01600377 0.12725602 -0.27340549
v -0.01179185 0.12983710 -0.27340549
v -0.00722801 0.13172750 -0.27340549
v -0.02208739 0.10977669 -0.27169833
v -0.02053493 0.11352465 -0.27169833
v -0.01841528 0.11698360 -0.27169833
v -0.01578063 0.12006839 -0.27169833
v -0.01269584 0.12270305 -0.27169833
v -0.00923688 0.12482270 -0.27169833
v -0.00548893 0.12637515 -0.27169833
v -0.00154425 0.12732218 -0.27169833
v 0.10135271 0.00843628 -0.27138710
v 0.12492356 0.00508180 -0.29471803
v 0.12492356 -0.00246729 -0.29307583
v 0.12492356 -0.00970584 -0.29037601
v 0.12492356 -0.01648647 -0.28667349
v 0.12492356 -0.02267117 -0.28204370
v 0.12492356 -0.02813403 -0.27658084
v 0.12492356 -0.03276384 -0.27039611
v 0.12492356 -0.03646635 -0.26361549
v 0.12492356 -0.03916618 -0.25637695
v 0.12492356 -0.04080839 -0.24882786
v 0.12492356 -0.04135953 -0.24112189
v 0.12435491 -0.03948494 -0.24112189
v 0.12321638 -0.03523787 -0.24802694
v 0.12321638 -0.03573174 -0.24112189
v 0.12321638 0.00588272 -0.28914753
v 0.12044409 0.00662085 -0.28401372
v 0.12136753 -0.03227276 -0.24112189
v 0.12044409 -0.03010407 -0.24728881
v 0.12044409 -0.03054513 -0.24112189
v 0.11671320 -0.02560424 -0.24664183
v 0.11671320 -0.02599903 -0.24112189
v 0.11216711 -0.02191133 -0.24611087
v 0.11216711 -0.02226815 -0.24112189
v 0.11043947 -0.02134471 -0.24112189
v 0.10698050 -0.01916725 -0.24571633
v 0.10698050 -0.01949585 -0.24112189
v 0.12321638 -0.00088176 -0.28767601
v 0.12321638 -0.00736796 -0.28525677
v 0.12044409 0.00057948 -0.28269950
v 0.12044409 -0.00521337 -0.28053889
v 0.11671320 0.00186026 -0.27833754
v 0.11671320 -0.00332485 -0.27640361
v 0.11216711 0.00291137 -0.27475780
v 0.11216711 -0.00177499 -0.27300987
v 0.10698050 0.00369242 -0.27209780
v 0.10698050 -0.00062334 -0.27048811
v 0.11671320 0.00726782 -0.27951390
v 0.11216711 0.00779879 -0.27582097
v 0.10698050 0.00819333 -0.27307689
v 0.10135271 0.00417338 -0.27045977
v 0.10135271 0.00008585 -0.26893520
v 0.10322730 -0.01835733 -0.24112189
v 0.10135271 -0.01747745 -0.24547337
v 0.10135271 -0.01778868 -0.24112189
v 0.09550000 -0.01690688 -0.24539134
v 0.10135271 -0.01655012 -0.24973626
v 0.09550000 -0.01599703 -0.24957387
v 0.09550000 -0.01614853 -0.24887744
v 0.12321638 -0.03376636 -0.25479141
v 0.12044409 -0.02878984 -0.25333017
v 0.11671320 -0.02442790 -0.25204939
v 0.11216711 -0.02084814 -0.25099829
v 0.10698050 -0.01818814 -0.25021723
v 0.12321638 -0.03134713 -0.26127762
v 0.12044409 -0.02662922 -0.25912303
v 0.11671320 -0.02249395 -0.25723451
v 0.11216711 -0.01910022 -0.25568464
v 0.10698050 -0.01657845 -0.25453299
v 0.10135271 -0.01502555 -0.25382382
v 0.09550000 -0.01450120 -0.25358436
v 0.10135271 -0.01293478 -0.25765276
v 0.09550000 -0.01244984 -0.25734112
v 0.09550000 -0.01313337 -0.25608933
v 0.12321638 -0.02802944 -0.26735350
v 0.12044409 -0.02366619 -0.26454943
v 0.11671320 -0.01984177 -0.26209161
v 0.11216711 -0.01670315 -0.26007456
v 0.10698050 -0.01437094 -0.25857574
v 0.12321638 -0.02388083 -0.27289540
v 0.12044409 -0.01996105 -0.26949891
v 0.11671320 -0.01652534 -0.26652184
v 0.11216711 -0.01370573 -0.26407862
v 0.10698050 -0.01161057 -0.26226315
v 0.10135271 -0.01032037 -0.26114520
v 0.09550000 -0.00988473 -0.26076773
v 0.10135271 -0.00723555 -0.26423001
v 0.09550000 -0.00685806 -0.26379439
v 0.09550000 -0.00837139 -0.26228106
v 0.12321638 -0.01898575 -0.27779049
v 0.12044409 -0.01558925 -0.27387071
v 0.11671320 -0.01261219 -0.27043501
v 0.11216711 -0.01016898 -0.26761538
v 0.10698050 -0.00835351 -0.26552022
v 0.12321638 -0.01344386 -0.28193909
v 0.12044409 -0.01063977 -0.27757585
v 0.11671320 -0.00818196 -0.27375141
v 0.11216711 -0.00616489 -0.27061281
v 0.10698050 -0.00466608 -0.26828060
v 0.10135271 -0.00374311 -0.26684442
v 0.09550000 -0.00343146 -0.26635951
v 0.09550000 -0.00217968 -0.26704302
v 0.09550000 0.00851832 -0.27081653
v 0.09550000 0.00503222 -0.27005818
v 0.09550000 0.00433578 -0.26990667
v 0.09550000 0.00032531 -0.26841086
v -0.02335271 0.01278776 -0.27169833
v -0.02522730 0.01278776 -0.27226698
v -0.02898050 0.01278776 -0.27340549
v -0.03243947 0.01278776 -0.27525437
v -0.03416711 0.01278776 -0.27617779
v -0.03871320 0.01278776 -0.27990869
v -0.04244409 0.01278776 -0.28445479
v -0.04336753 0.01278776 -0.28618240
v -0.04521639 0.01278776 -0.28964138
v -0.04635491 0.01278776 -0.29339460
v -0.04692356 0.01278776 -0.29526919
v -0.01750000 0.00851832 -0.27081653
v -0.01750000 0.00503222 -0.27005818
v -0.01750000 0.00433578 -0.26990667
v -0.01750000 0.00032531 -0.26841086
v -0.01750000 -0.00217968 -0.26704302
v -0.01750000 -0.00343146 -0.26635951
v -0.01750000 -0.00685806 -0.26379439
v -0.01750000 -0.00837139 -0.26228106
v -0.01750000 -0.00988473 -0.26076773
v -0.01750000 -0.01244984 -0.25734112
v -0.01750000 -0.01313337 -0.25608933
v -0.01750000 -0.01450120 -0.25358436
v -0.01750000 -0.01599703 -0.24957387
v -0.01750000 -0.01614853 -0.24887744
v -0.01750000 -0.01690688 -0.24539134
v 0.10234550 -0.01800369 -0.22927639
v 0.10323170 -0.01832825 -0.22839019
v 0.10913773 -0.02049123 -0.22248416
v 0.11041898 -0.02135424 -0.22120291
v 0.11513712 -0.02453222 -0.21648477
v 0.11657846 -0.02612242 -0.21504344
v 0.11999490 -0.02989173 -0.21162699
v 0.12131672 -0.03230248 -0.21030517
v 0.12327460 -0.03587331 -0.20834729
v 0.12434297 -0.03948743 -0.20727892
v 0.12497560 -0.04162753 -0.20664629
v -0.02335271 -0.01747745 -0.24547337
v -0.02335271 -0.01778868 -0.24112189
v -0.02522730 -0.01835733 -0.24112189
v -0.04692356 -0.04135953 -0.24112189
v -0.04692356 -0.04080839 -0.24882786
v -0.04692356 -0.03916618 -0.25637695
v -0.04692356 -0.03646635 -0.26361549
v -0.04692356 -0.03276384 -0.27039611
v -0.04692356 -0.02813403 -0.27658084
v -0.04692356 -0.02267117 -0.28204370
v -0.04692356 -0.01648647 -0.28667349
v -0.04692356 -0.00970584 -0.29037601
v -0.04692356 -0.00246729 -0.29307583
v -0.04692356 0.00508180 -0.29471803
v -0.04521639 0.00588272 -0.28914753
v -0.04635491 -0.03948494 -0.24112189
v -0.04521639 -0.03523787 -0.24802694
v -0.04521639 -0.03573174 -0.24112189
v -0.04336753 -0.03227276 -0.24112189
v -0.04244409 -0.03010407 -0.24728881
v -0.04244409 0.00662085 -0.28401372
v -0.03871320 0.00726782 -0.27951390
v -0.03416711 0.00779879 -0.27582097
v -0.02898050 0.00819333 -0.27307689
v -0.04521639 -0.03376636 -0.25479141
v -0.04521639 -0.03134713 -0.26127762
v -0.04244409 -0.02878984 -0.25333017
v -0.04244409 -0.02662922 -0.25912303
v -0.03871320 -0.02442790 -0.25204939
v -0.03871320 -0.02249395 -0.25723451
v -0.03416711 -0.02084814 -0.25099829
v -0.03416711 -0.01910022 -0.25568464
v -0.02898050 -0.01818814 -0.25021723
v -0.02898050 -0.01657845 -0.25453299
v -0.03871320 -0.02560424 -0.24664183
v -0.03416711 -0.02191133 -0.24611087
v -0.02898050 -0.01916725 -0.24571633
v -0.02898050 -0.01949585 -0.24112189
v -0.03243947 -0.02134471 -0.24112189
v -0.03416711 -0.02226815 -0.24112189
v -0.03871320 -0.02599903 -0.24112189
v -0.04244409 -0.03054513 -0.24112189
v -0.02335271 -0.01655012 -0.24973626
v -0.02335271 -0.01502555 -0.25382382
v -0.02335271 0.00843628 -0.27138710
v -0.02335271 0.00417338 -0.27045977
v -0.04521639 -0.00088176 -0.28767601
v -0.04244409 0.00057948 -0.28269950
v -0.03871320 0.00186026 -0.27833754
v -0.03416711 0.00291137 -0.27475780
v -0.02898050 0.00369242 -0.27209780
v -0.04521639 -0.00736796 -0.28525677
v -0.04244409 -0.00521337 -0.28053889
v -0.03871320 -0.00332485 -0.27640361
v -0.03416711 -0.00177499 -0.27300987
v -0.02898050 -0.00062334 -0.27048811
v -0.02335271 0.00008585 -0.26893520
v -0.02335271 -0.00374311 -0.26684442
v -0.04521639 -0.01344386 -0.28193909
v -0.04244409 -0.01063977 -0.27757585
v -0.03871320 -0.00818196 -0.27375141
v -0.03416711 -0.00616489 -0.27061281
v -0.02898050 -0.00466608 -0.26828060
v -0.04521639 -0.01898575 -0.27779049
v -0.04244409 -0.01558925 -0.27387071
v -0.03871320 -0.01261219 -0.27043501
v -0.03416711 -0.01016898 -0.26761538
v -0.02898050 -0.00835351 -0.26552022
v -0.02335271 -0.00723555 -0.26423001
v -0.02335271 -0.01032037 -0.26114520
v -0.04521639 -0.02388083 -0.27289540
v -0.04244409 -0.01996105 -0.26949891
v -0.03871320 -0.01652534 -0.26652184
v -0.03416711 -0.01370573 -0.26407862
v -0.02898050 -0.01161057 -0.26226315
v -0.04521639 -0.02802944 -0.26735350
v -0.04244409 -0.02366619 -0.26454943
v -0.03871320 -0.01984177 -0.26209161
v -0.03416711 -0.01670315 -0.26007456
v -0.02898050 -0.01437094 -0.25857574
v -0.02335271 -0.01293478 -0.25765276
v 0.12497560 -0.04162753 -0.20664629
v -0.04697560 -0.04162753 -0.20664629
v 0.12434297 -0.03948743 -0.20727892
v -0.04634297 -0.03948743 -0.20727892
v -0.04527460 -0.03587331 -0.20834729
v 0.12327460 -0.03587331 -0.20834729
v -0.04331671 -0.03230248 -0.21030517
v 0.12131672 -0.03230248 -0.21030517
v 0.11999490 -0.02989173 -0.21162699
v -0.04199490 -0.02989173 -0.21162699
v 0.11657846 -0.02612242 -0.21504344
v -0.03857846 -0.02612242 -0.21504344
v -0.03713712 -0.02453222 -0.21648477
v 0.11513712 -0.02453222 -0.21648477
v -0.03241898 -0.02135424 -0.22120291
v 0.11041898 -0.02135424 -0.22120291
v -0.03113773 -0.02049123 -0.22248416
v 0.10913773 -0.02049123 -0.22248416
v -0.02523170 -0.01832825 -0.22839019
v 0.10323170 -0.01832825 -0.22839019
v 0.10234550 -0.01800369 -0.22927639
v -0.02434549 -0.01800369 -0.22927639
v -0.02434549 -0.01800369 -0.22927639
v -0.02523170 -0.01832825 -0.22839019
v -0.03113773 -0.02049123 -0.22248416
v -0.03241898 -0.02135424 -0.22120291
v -0.03713712 -0.02453222 -0.21648477
v -0.04697560 -0.04162753 -0.20664629
v -0.04634297 -0.03948743 -0.20727892
v -0.04527460 -0.03587331 -0.20834729
v -0.04331671 -0.03230248 -0.21030517
v -0.04199490 -0.02989173 -0.21162699
v -0.03857846 -0.02612242 -0.21504344
v 0.07550000 0.12764047 -0.36454546
v 0.07954425 0.12732218 -0.36454546
v 0.08348893 0.12637515 -0.36454546
v 0.08723688 0.12482270 -0.36454546
v 0.09069584 0.12270305 -0.36454546
v 0.09378063 0.12006839 -0.36454546
v 0.09641528 0.11698360 -0.36454546
v 0.09853493 0.11352465 -0.36454546
v 0.10008739 0.10977669 -0.36454546
v 0.10103442 0.10583202 -0.36454546
v 0.10135271 0.10178776 -0.36454546
v 0.10322730 0.10178776 -0.36397681
v 0.10659292 0.10671240 -0.36283827
v 0.10698050 0.10178776 -0.36283827
v 0.07550000 0.12951507 -0.36397681
v 0.08042464 0.13288069 -0.36283827
v 0.07550000 0.13326827 -0.36283827
v 0.07550000 0.13672724 -0.36098942
v 0.08123600 0.13800344 -0.36006597
v 0.11043947 0.10178776 -0.36098942
v 0.11171567 0.10752376 -0.36006597
v 0.11216711 0.10178776 -0.36006597
v 0.11620580 0.10823493 -0.35633510
v 0.11671320 0.10178776 -0.35633510
v 0.11989075 0.10881857 -0.35178900
v 0.12044409 0.10178776 -0.35178900
v 0.12136753 0.10178776 -0.35006136
v 0.12262892 0.10925225 -0.34660238
v 0.12321638 0.10178776 -0.34660238
v 0.07550000 0.13845487 -0.36006597
v 0.07550000 0.14300096 -0.35633510
v 0.08194716 0.14249356 -0.35633510
v 0.07550000 0.14673185 -0.35178900
v 0.08253080 0.14617851 -0.35178900
v 0.07550000 0.14765529 -0.35006136
v 0.08296449 0.14891668 -0.34660238
v 0.08522801 0.13172750 -0.36283827
v 0.08683076 0.13666025 -0.36006597
v 0.08823558 0.14098385 -0.35633510
v 0.08938849 0.14453213 -0.35178900
v 0.09024517 0.14716874 -0.34660238
v 0.08323155 0.15060283 -0.34097460
v 0.09077272 0.14879236 -0.34097460
v 0.07550000 0.14950415 -0.34660238
v 0.07550000 0.15064266 -0.34284920
v 0.07550000 0.15121132 -0.34097460
v 0.12435491 0.10178776 -0.34284920
v 0.12431508 0.10951931 -0.34097460
v 0.12492356 0.10178776 -0.34097460
v 0.12250460 0.11706048 -0.34097460
v 0.10543974 0.11151578 -0.36283827
v 0.11037249 0.11311852 -0.36006597
v 0.11469609 0.11452334 -0.35633510
v 0.11824436 0.11567625 -0.35178900
v 0.12088098 0.11653294 -0.34660238
v 0.11953671 0.12422559 -0.34097460
v 0.10354933 0.11607961 -0.36283827
v 0.10817063 0.11843428 -0.36006597
v 0.11222123 0.12049817 -0.35633510
v 0.11554547 0.12219195 -0.35178900
v 0.11801561 0.12345055 -0.34660238
v 0.11548450 0.13083820 -0.34097460
v 0.10096826 0.12029154 -0.36283827
v 0.10516431 0.12334014 -0.36006597
v 0.10884218 0.12601228 -0.35633510
v 0.11186053 0.12820524 -0.35178900
v 0.11410337 0.12983476 -0.34660238
v 0.09776007 0.12404784 -0.36283827
v 0.10142756 0.12771532 -0.36006597
v 0.10464214 0.13092990 -0.35633510
v 0.10728027 0.13356803 -0.35178900
v 0.10924058 0.13552834 -0.34660238
v 0.11044773 0.13673550 -0.34097460
v 0.09400377 0.12725602 -0.36283827
v 0.09705239 0.13145207 -0.36006597
v 0.09972452 0.13512994 -0.35633510
v 0.10191748 0.13814829 -0.35178900
v 0.10354698 0.14039113 -0.34660238
v 0.10455044 0.14177226 -0.34097460
v 0.09793782 0.14582448 -0.34097460
v 0.08979185 0.12983710 -0.36283827
v 0.09214652 0.13445839 -0.36006597
v 0.09421040 0.13850899 -0.35633510
v 0.09590419 0.14183323 -0.35178900
v 0.09716278 0.14430337 -0.34660238
v 0.10268066 -0.05339290 -0.36424986
v 0.10324191 -0.05395414 -0.36403695
v 0.10944387 -0.06015610 -0.36168444
v 0.11043218 -0.06114442 -0.36100209
v 0.11539643 -0.06610867 -0.35757479
v 0.12502435 -0.07573658 -0.34044290
v 0.12433826 -0.07505050 -0.34284669
v 0.12338505 -0.07409728 -0.34618643
v 0.12132598 -0.07203823 -0.35003877
v 0.12019230 -0.07090454 -0.35215980
v 0.11659124 -0.06730348 -0.35622573
v 0.00250000 0.12764047 -0.36454546
v 0.00250000 0.12951507 -0.36397681
v 0.00250000 0.13326827 -0.36283827
v 0.00250000 0.13672724 -0.36098942
v 0.00250000 0.13845487 -0.36006597
v 0.00250000 0.14300096 -0.35633510
v 0.00250000 0.14673185 -0.35178900
v 0.00250000 0.14765529 -0.35006136
v 0.00250000 0.14950415 -0.34660238
v 0.00250000 0.15064266 -0.34284920
v 0.00250000 0.15121132 -0.34097460
v -0.02468066 -0.05339290 -0.36424986
v 0.10268066 -0.05339290 -0.36424986
v -0.02524190 -0.05395414 -0.36403695
v 0.10324191 -0.05395414 -0.36403695
v -0.03144386 -0.06015610 -0.36168444
v 0.10944387 -0.06015610 -0.36168444
v -0.03243218 -0.06114442 -0.36100209
v 0.11043218 -0.06114442 -0.36100209
v -0.03739643 -0.06610867 -0.35757479
v 0.11539643 -0.06610867 -0.35757479
v -0.03859124 -0.06730348 -0.35622573
v 0.11659124 -0.06730348 -0.35622573
v 0.12019230 -0.07090454 -0.35215980
v -0.04219230 -0.07090454 -0.35215980
v 0.12132598 -0.07203823 -0.35003877
v -0.04332599 -0.07203823 -0.35003877
v 0.12338505 -0.07409728 -0.34618643
v -0.04538505 -0.07409728 -0.34618643
v 0.12433826 -0.07505050 -0.34284669
v -0.04633826 -0.07505050 -0.34284669
v 0.12502435 -0.07573658 -0.34044290
v -0.04702434 -0.07573658 -0.34044290
v -0.02335271 0.10178776 -0.36454546
v -0.02303442 0.10583202 -0.36454546
v -0.02208739 0.10977669 -0.36454546
v -0.02053493 0.11352465 -0.36454546
v -0.01841528 0.11698360 -0.36454546
v -0.01578063 0.12006839 -0.36454546
v -0.01269584 0.12270305 -0.36454546
v -0.00923688 0.12482270 -0.36454546
v -0.00548893 0.12637515 -0.36454546
v -0.00154425 0.12732218 -0.36454546
v -0.00242464 0.13288069 -0.36283827
v -0.02522730 0.10178776 -0.36397681
v -0.02859293 0.10671240 -0.36283827
v -0.02898050 0.10178776 -0.36283827
v -0.03243947 0.10178776 -0.36098942
v -0.03371567 0.10752376 -0.36006597
v -0.00323600 0.13800344 -0.36006597
v -0.00394716 0.14249356 -0.35633510
v -0.00453080 0.14617851 -0.35178900
v -0.00496449 0.14891668 -0.34660238
v -0.03416711 0.10178776 -0.36006597
v -0.03871320 0.10178776 -0.35633510
v -0.03820580 0.10823493 -0.35633510
v -0.04244409 0.10178776 -0.35178900
v -0.04189075 0.10881857 -0.35178900
v -0.04336753 0.10178776 -0.35006136
v -0.04462892 0.10925225 -0.34660238
v -0.02743974 0.11151578 -0.36283827
v -0.03237249 0.11311852 -0.36006597
v -0.03669608 0.11452334 -0.35633510
v -0.04024437 0.11567625 -0.35178900
v -0.04288098 0.11653294 -0.34660238
v -0.04631507 0.10951931 -0.34097460
v -0.04450460 0.11706048 -0.34097460
v -0.04521639 0.10178776 -0.34660238
v -0.04635491 0.10178776 -0.34284920
v -0.04692356 0.10178776 -0.34097460
v -0.00523155 0.15060283 -0.34097460
v -0.01277272 0.14879236 -0.34097460
v -0.00722801 0.13172750 -0.36283827
v -0.00883076 0.13666025 -0.36006597
v -0.01023558 0.14098385 -0.35633510
v -0.01138849 0.14453213 -0.35178900
v -0.01224517 0.14716874 -0.34660238
v -0.01993783 0.14582448 -0.34097460
v -0.01179185 0.12983710 -0.36283827
v -0.01414652 0.13445839 -0.36006597
v -0.01621040 0.13850899 -0.35633510
v -0.01790419 0.14183323 -0.35178900
v -0.01916279 0.14430337 -0.34660238
v -0.02655044 0.14177226 -0.34097460
v -0.01600377 0.12725602 -0.36283827
v -0.01905238 0.13145207 -0.36006597
v -0.02172451 0.13512994 -0.35633510
v -0.02391747 0.13814829 -0.35178900
v -0.02554699 0.14039113 -0.34660238
v -0.01976008 0.12404784 -0.36283827
v -0.02342756 0.12771532 -0.36006597
v -0.02664214 0.13092990 -0.35633510
v -0.02928027 0.13356803 -0.35178900
v -0.03124058 0.13552834 -0.34660238
v -0.03244773 0.13673550 -0.34097460
v -0.02296826 0.12029154 -0.36283827
v -0.02716431 0.12334014 -0.36006597
v -0.03084218 0.12601228 -0.35633510
v -0.03386053 0.12820524 -0.35178900
v -0.03610337 0.12983476 -0.34660238
v -0.03748450 0.13083820 -0.34097460
v -0.04153671 0.12422559 -0.34097460
v -0.02554933 0.11607961 -0.36283827
v -0.03017063 0.11843428 -0.36006597
v -0.03422123 0.12049817 -0.35633510
v -0.03754548 0.12219195 -0.35178900
v -0.04001561 0.12345055 -0.34660238
v -0.02468066 -0.05339290 -0.36424986
v -0.02524190 -0.05395414 -0.36403695
v -0.03144386 -0.06015610 -0.36168444
v -0.03243218 -0.06114442 -0.36100209
v -0.03739643 -0.06610867 -0.35757479
v -0.03859124 -0.06730348 -0.35622573
v -0.04219230 -0.07090454 -0.35215980
v -0.04332599 -0.07203823 -0.35003877
v -0.04538505 -0.07409728 -0.34618643
v -0.04633826 -0.07505050 -0.34284669
v -0.04702434 -0.07573658 -0.34044290
f 1 2 3
f 3 2 4
f 5 6 7
f 7 6 8
f 9 10 11
f 11 10 12
f 11 12 13
f 13 12 14
f 9 15 10
f 10 15 16
f 10 16 17
f 17 16 18
f 17 18 19
f 19 18 20
f 19 20 21
f 21 20 22
f 21 22 23
f 23 22 24
f 23 24 25
f 25 24 26
f 25 26 27
f 27 26 28
f 27 28 7
f 7 28 29
f 7 29 5
f 6 30 8
f 8 30 31
f 8 31 32
f 32 31 33
f 32 33 34
f 34 33 35
f 34 35 36
f 36 35 37
f 36 37 38
f 38 37 39
f 38 39 40
f 40 39 41
f 40 41 42
f 42 41 43
f 42 43 12
f 12 43 44
f 12 44 14
f 45 46 47
f 47 46 48
f 49 50 51
f 52 53 54
f 54 53 55
f 54 55 56
f 56 55 57
f 58 59 49
f 49 59 60
f 49 60 61
f 62 63 54
f 54 63 64
f 54 64 52
f 57 65 56
f 56 65 66
f 56 66 67
f 68 69 51
f 51 69 70
f 51 70 49
f 49 70 71
f 49 71 58
f 72 73 70
f 70 73 74
f 70 74 71
f 61 75 49
f 49 75 76
f 49 76 54
f 54 76 77
f 54 77 62
f 67 78 56
f 56 78 79
f 56 79 70
f 70 79 80
f 70 80 72
f 81 82 83
f 83 82 84
f 83 84 85
f 86 87 88
f 89 90 83
f 83 90 91
f 83 91 81
f 92 93 94
f 94 93 95
f 95 96 94
f 94 96 97
f 94 97 86
f 86 97 98
f 86 98 87
f 99 100 89
f 100 101 89
f 89 101 102
f 89 102 90
f 85 103 83
f 83 103 104
f 83 104 94
f 94 104 105
f 94 105 92
f 88 106 86
f 86 106 107
f 86 107 89
f 89 107 108
f 89 108 99
f 109 110 111
f 111 110 112
f 113 114 115
f 115 114 116
f 114 117 116
f 116 117 118
f 116 118 119
f 119 118 120
f 119 120 121
f 121 120 122
f 121 122 123
f 123 122 124
f 123 124 125
f 125 124 126
f 125 126 127
f 127 126 128
f 127 128 129
f 129 128 130
f 129 130 131
f 131 130 132
f 132 133 131
f 131 133 134
f 131 134 135
f 135 134 136
f 135 136 137
f 137 138 135
f 135 138 139
f 135 139 140
f 140 139 141
f 140 141 142
f 142 141 143
f 142 143 144
f 144 143 145
f 144 145 146
f 146 145 147
f 146 147 148
f 148 147 149
f 148 149 150
f 150 149 151
f 150 151 115
f 115 151 152
f 115 152 113
f 153 154 155
f 155 154 156
f 155 156 157
f 157 156 158
f 157 158 159
f 159 158 160
f 159 160 161
f 161 160 162
f 161 162 163
f 163 162 164
f 163 164 165
f 164 166 165
f 165 166 167
f 165 167 168
f 168 167 169
f 170 171 172
f 172 171 173
f 172 173 169
f 169 173 174
f 169 174 168
f 175 176 177
f 177 176 178
f 179 180 181
f 181 180 182
f 181 182 183
f 183 182 184
f 183 184 178
f 178 184 185
f 178 185 177
f 186 187 188
f 188 187 189
f 188 189 190
f 190 189 191
f 190 191 192
f 192 191 193
f 192 193 194
f 194 193 195
f 194 195 175
f 175 195 196
f 175 196 176
f 12 10 197
f 12 197 198
f 198 197 199
f 198 199 200
f 200 199 45
f 200 45 47
f 131 135 201
f 131 201 202
f 202 201 203
f 202 203 204
f 204 203 109
f 204 109 111
f 112 110 205
f 112 205 206
f 206 205 207
f 206 207 208
f 208 207 209
f 208 209 210
f 210 209 89
f 210 89 83
f 48 46 211
f 48 211 212
f 212 211 213
f 212 213 214
f 214 213 215
f 214 215 216
f 216 215 54
f 216 54 56
f 217 218 219
f 219 218 220
f 219 220 221
f 221 220 222
f 221 222 223
f 223 222 224
f 223 224 225
f 225 224 226
f 225 226 227
f 227 226 228
f 227 228 229
f 229 228 230
f 229 230 231
f 231 230 232
f 231 232 233
f 233 232 234
f 233 234 235
f 235 234 236
f 235 236 237
f 237 236 238
f 237 238 239
f 239 238 240
f 239 240 241
f 241 240 242
f 241 242 243
f 243 242 244
f 243 244 245
f 245 244 246
f 245 246 247
f 247 246 248
f 247 248 249
f 249 248 250
f 249 250 251
f 251 250 252
f 251 252 253
f 253 252 254
f 253 254 255
f 255 254 256
f 255 256 257
f 257 256 258
f 257 258 259
f 259 258 260
f 259 260 261
f 261 260 262
f 261 262 263
f 263 262 264
f 263 264 217
f 217 264 218
f 1 3 265
f 1 265 266
f 266 265 267
f 266 267 268
f 268 267 269
f 268 269 270
f 270 269 271
f 270 271 272
f 272 271 273
f 272 273 274
f 274 273 187
f 274 187 186
f 4 2 275
f 4 275 276
f 276 275 277
f 276 277 278
f 278 277 279
f 278 279 280
f 280 279 281
f 280 281 282
f 282 281 283
f 282 283 284
f 284 283 171
f 284 171 170
f 285 286 287
f 287 286 288
f 287 288 289
f 289 288 290
f 289 290 291
f 291 290 292
f 293 294 295
f 294 296 295
f 295 296 297
f 295 297 298
f 298 299 295
f 295 299 300
f 295 300 301
f 302 303 295
f 295 303 304
f 295 304 293
f 301 305 295
f 295 305 306
f 295 306 307
f 307 306 308
f 307 308 309
f 310 311 312
f 312 311 313
f 314 315 316
f 316 315 312
f 316 312 317
f 317 312 313
f 318 319 312
f 312 319 320
f 312 320 321
f 321 322 312
f 312 322 323
f 312 323 310
f 318 312 324
f 324 312 325
f 324 325 326
f 327 328 329
f 329 328 330
f 331 332 333
f 333 332 334
f 335 336 337
f 337 336 338
f 337 338 339
f 340 341 342
f 331 333 343
f 343 333 344
f 343 344 345
f 335 346 336
f 336 346 347
f 336 347 348
f 348 349 336
f 336 349 350
f 336 350 340
f 340 350 351
f 340 351 341
f 342 352 340
f 340 352 353
f 340 353 354
f 344 355 345
f 345 355 356
f 345 356 357
f 332 358 334
f 334 358 359
f 334 359 360
f 360 359 361
f 362 363 364
f 364 363 365
f 364 365 366
f 366 365 339
f 366 339 367
f 367 339 338
f 353 368 354
f 354 368 369
f 354 369 370
f 370 369 357
f 370 357 371
f 371 357 372
f 373 372 374
f 374 372 357
f 374 357 375
f 375 357 356
f 363 376 365
f 365 376 377
f 365 377 361
f 361 377 378
f 361 378 360
f 315 314 379
f 379 314 380
f 379 380 381
f 381 380 382
f 381 382 383
f 383 382 384
f 383 384 385
f 385 384 386
f 385 386 387
f 387 386 388
f 387 388 389
f 389 388 390
f 389 390 391
f 391 390 392
f 391 392 393
f 393 392 394
f 393 394 395
f 395 394 396
f 395 396 397
f 397 396 398
f 397 398 399
f 399 398 400
f 399 400 401
f 401 400 402
f 401 402 403
f 403 402 404
f 403 404 405
f 405 404 406
f 405 406 407
f 407 406 408
f 407 408 409
f 409 408 410
f 409 410 411
f 411 410 412
f 411 412 413
f 413 412 414
f 413 414 415
f 415 414 416
f 415 416 417
f 417 416 418
f 417 418 419
f 419 418 420
f 419 420 421
f 421 420 422
f 421 422 423
f 423 422 424
f 423 424 425
f 425 424 426
f 425 426 427
f 427 426 428
f 427 428 429
f 429 428 430
f 429 430 431
f 431 430 432
f 431 432 433
f 433 432 434
f 433 434 435
f 435 434 436
f 435 436 437
f 437 436 438
f 437 438 439
f 439 438 440
f 439 440 441
f 441 440 442
f 441 442 302
f 302 442 303
f 443 444 445
f 446 447 448
f 449 450 451
f 451 450 452
f 443 445 453
f 453 445 454
f 453 454 455
f 455 456 453
f 453 456 457
f 453 457 448
f 448 457 458
f 448 458 446
f 449 451 459
f 459 451 460
f 459 460 461
f 450 462 452
f 452 462 463
f 452 463 464
f 464 463 465
f 466 467 468
f 468 467 469
f 470 468 471
f 471 468 469
f 471 469 443
f 443 469 472
f 443 472 444
f 473 474 475
f 475 474 448
f 475 448 476
f 476 448 447
f 460 477 461
f 461 477 478
f 461 478 479
f 467 480 469
f 469 480 481
f 469 481 465
f 465 481 482
f 465 482 464
f 483 484 485
f 485 484 479
f 485 479 486
f 486 479 478
f 473 487 474
f 474 487 488
f 474 488 489
f 489 488 479
f 489 479 490
f 490 479 484
f 491 492 493
f 493 492 494
f 493 494 495
f 495 494 496
f 495 496 497
f 497 496 498
f 497 498 499
f 499 498 500
f 499 500 501
f 501 500 502
f 501 502 503
f 503 502 504
f 503 504 505
f 505 504 506
f 505 506 507
f 507 506 508
f 507 508 509
f 509 508 510
f 509 510 511
f 511 510 512
f 511 512 513
f 513 512 514
f 513 514 515
f 515 514 516
f 515 516 517
f 517 516 518
f 517 518 519
f 519 518 520
f 519 520 521
f 521 520 522
f 521 522 523
f 523 522 524
f 523 524 525
f 525 524 526
f 525 526 527
f 527 526 528
f 527 528 529
f 529 528 530
f 529 530 531
f 531 530 532
f 531 532 533
f 533 532 534
f 533 534 535
f 535 534 536
f 535 536 537
f 537 536 538
f 537 538 491
f 491 538 492
f 539 540 541
f 541 540 542
f 541 542 543
f 543 542 544
f 543 544 545
f 545 544 546
f 545 546 547
f 547 546 548
f 547 548 549
f 549 548 550
f 549 550 551
f 551 550 552
f 551 552 553
f 553 552 554
f 553 554 555
f 555 554 556
f 555 556 557
f 557 556 558
f 557 558 559
f 559 558 560
f 559 560 561
f 561 560 562
f 561 562 563
f 563 562 564
f 563 564 565
f 565 564 566
f 565 566 567
f 567 566 568
f 567 568 569
f 569 568 570
f 569 570 571
f 571 570 572
f 571 572 573
f 573 572 574
f 573 574 575
f 575 574 576
f 575 576 577
f 577 576 578
f 577 578 579
f 579 578 580
f 579 580 581
f 581 580 582
f 581 582 583
f 583 582 584
f 583 584 585
f 585 584 586
f 585 586 539
f 539 586 540
f 587 588 589
f 590 591 592
f 593 594 595
f 596 597 598
f 599 600 601
f 602 603 604
f 605 606 607
f 608 609 610
f 610 609 303
f 303 442 610
f 610 442 440
f 610 440 611
f 440 438 611
f 611 438 436
f 611 436 612
f 436 434 612
f 612 434 432
f 612 432 613
f 613 432 430
f 613 430 614
f 614 430 428
f 614 428 615
f 428 426 615
f 615 426 424
f 615 424 616
f 424 422 616
f 616 422 420
f 616 420 617
f 412 618 414
f 414 618 619
f 414 619 416
f 416 619 617
f 416 617 418
f 418 617 420
f 618 605 619
f 619 605 607
f 619 607 617
f 617 607 620
f 617 620 616
f 616 620 621
f 616 621 615
f 615 621 622
f 615 622 614
f 614 622 623
f 614 623 613
f 613 623 624
f 613 624 612
f 612 624 625
f 612 625 611
f 611 625 626
f 611 626 610
f 610 626 604
f 610 604 608
f 608 604 603
f 606 599 607
f 607 599 601
f 607 601 620
f 620 601 627
f 620 627 621
f 621 627 628
f 621 628 622
f 622 628 629
f 622 629 623
f 623 629 630
f 623 630 624
f 624 630 631
f 624 631 625
f 625 631 632
f 625 632 626
f 626 632 633
f 626 633 604
f 604 633 634
f 604 634 602
f 602 634 635
f 600 636 601
f 601 636 637
f 601 637 627
f 627 637 638
f 627 638 628
f 628 638 639
f 628 639 629
f 629 639 640
f 629 640 630
f 630 640 641
f 630 641 631
f 631 641 642
f 631 642 632
f 632 642 643
f 632 643 633
f 633 643 644
f 633 644 634
f 634 644 645
f 634 645 635
f 635 645 646
f 636 647 637
f 637 647 648
f 637 648 638
f 638 648 649
f 638 649 639
f 639 649 650
f 639 650 640
f 640 650 651
f 640 651 641
f 641 651 652
f 641 652 642
f 642 652 653
f 642 653 643
f 643 653 654
f 643 654 644
f 644 654 655
f 644 655 645
f 645 655 598
f 645 598 646
f 646 598 597
f 647 593 648
f 648 593 595
f 648 595 649
f 649 595 656
f 649 656 650
f 650 656 657
f 650 657 651
f 651 657 658
f 651 658 652
f 652 658 659
f 652 659 653
f 653 659 660
f 653 660 654
f 654 660 661
f 654 661 655
f 655 661 662
f 655 662 598
f 598 662 592
f 598 592 596
f 596 592 591
f 594 587 595
f 595 587 589
f 595 589 656
f 656 589 663
f 656 663 657
f 657 663 664
f 657 664 658
f 658 664 665
f 658 665 659
f 659 665 666
f 659 666 660
f 660 666 667
f 660 667 661
f 661 667 668
f 661 668 662
f 662 668 669
f 662 669 592
f 592 669 670
f 592 670 590
f 590 670 671
f 588 334 589
f 589 334 360
f 589 360 663
f 663 360 378
f 663 378 664
f 664 378 377
f 664 377 665
f 665 377 376
f 665 376 666
f 666 376 363
f 666 363 667
f 667 363 362
f 667 362 668
f 668 362 364
f 668 364 669
f 669 364 366
f 669 366 670
f 670 366 367
f 670 367 671
f 671 367 338
f 333 334 672
f 672 334 588
f 672 588 673
f 673 588 587
f 673 587 674
f 674 587 594
f 674 594 675
f 675 594 593
f 675 593 676
f 676 593 647
f 676 647 677
f 677 647 636
f 677 636 678
f 678 636 600
f 678 600 679
f 679 600 599
f 679 599 680
f 680 599 606
f 680 606 681
f 681 606 605
f 681 605 682
f 682 605 618
f 682 618 410
f 410 618 412
f 338 336 671
f 671 336 683
f 671 683 590
f 590 683 684
f 590 684 591
f 591 684 685
f 591 685 596
f 596 685 686
f 596 686 597
f 597 686 687
f 597 687 646
f 646 687 688
f 646 688 635
f 635 688 689
f 635 689 602
f 602 689 690
f 602 690 603
f 603 690 691
f 603 691 608
f 608 691 692
f 608 692 609
f 609 692 693
f 609 693 303
f 303 693 304
f 694 695 696
f 673 674 697
f 698 699 700
f 675 676 701
f 702 703 704
f 679 680 705
f 706 707 708
f 681 682 709
f 709 682 410
f 410 408 709
f 709 408 406
f 709 406 710
f 406 404 710
f 710 404 402
f 710 402 711
f 402 400 711
f 711 400 398
f 711 398 712
f 712 398 396
f 712 396 713
f 713 396 394
f 713 394 714
f 394 392 714
f 714 392 390
f 714 390 715
f 390 388 715
f 715 388 386
f 715 386 716
f 314 717 380
f 380 717 718
f 380 718 382
f 382 718 716
f 382 716 384
f 384 716 386
f 717 706 718
f 718 706 708
f 718 708 716
f 716 708 719
f 716 719 715
f 715 719 720
f 715 720 714
f 714 720 721
f 714 721 713
f 713 721 722
f 713 722 712
f 712 722 723
f 712 723 711
f 711 723 724
f 711 724 710
f 710 724 725
f 710 725 709
f 709 725 705
f 709 705 681
f 681 705 680
f 707 702 708
f 708 702 704
f 708 704 719
f 719 704 726
f 719 726 720
f 720 726 727
f 720 727 721
f 721 727 728
f 721 728 722
f 722 728 729
f 722 729 723
f 723 729 730
f 723 730 724
f 724 730 731
f 724 731 725
f 725 731 732
f 725 732 705
f 705 732 733
f 705 733 679
f 679 733 678
f 703 734 704
f 704 734 735
f 704 735 726
f 726 735 736
f 726 736 727
f 727 736 737
f 727 737 728
f 728 737 738
f 728 738 729
f 729 738 739
f 729 739 730
f 730 739 740
f 730 740 731
f 731 740 741
f 731 741 732
f 732 741 742
f 732 742 733
f 733 742 743
f 733 743 678
f 678 743 677
f 734 744 735
f 735 744 745
f 735 745 736
f 736 745 746
f 736 746 737
f 737 746 747
f 737 747 738
f 738 747 748
f 738 748 739
f 739 748 749
f 739 749 740
f 740 749 750
f 740 750 741
f 741 750 751
f 741 751 742
f 742 751 752
f 742 752 743
f 743 752 701
f 743 701 677
f 677 701 676
f 744 698 745
f 745 698 700
f 745 700 746
f 746 700 753
f 746 753 747
f 747 753 754
f 747 754 748
f 748 754 755
f 748 755 749
f 749 755 756
f 749 756 750
f 750 756 757
f 750 757 751
f 751 757 758
f 751 758 752
f 752 758 759
f 752 759 701
f 701 759 697
f 701 697 675
f 675 697 674
f 699 694 700
f 700 694 696
f 700 696 753
f 753 696 760
f 753 760 754
f 754 760 761
f 754 761 755
f 755 761 762
f 755 762 756
f 756 762 763
f 756 763 757
f 757 763 764
f 757 764 758
f 758 764 765
f 758 765 759
f 759 765 766
f 759 766 697
f 697 766 767
f 697 767 673
f 673 767 672
f 695 354 696
f 696 354 370
f 696 370 760
f 760 370 371
f 760 371 761
f 761 371 372
f 761 372 762
f 762 372 373
f 762 373 763
f 763 373 374
f 763 374 764
f 764 374 375
f 764 375 765
f 765 375 356
f 765 356 766
f 766 356 355
f 766 355 767
f 767 355 344
f 767 344 672
f 672 344 333
f 768 683 336
f 683 768 684
f 293 304 693
f 294 293 769
f 296 294 770
f 297 296 771
f 298 297 772
f 299 298 773
f 300 299 774
f 301 300 775
f 305 301 776
f 306 305 777
f 306 778 308
f 308 778 779
f 779 778 780
f 780 778 781
f 780 781 782
f 293 693 769
f 769 693 692
f 769 692 783
f 692 691 783
f 783 691 690
f 783 690 784
f 782 781 785
f 785 781 786
f 785 786 787
f 787 786 788
f 787 788 789
f 789 788 790
f 789 790 791
f 791 790 792
f 792 790 793
f 792 793 794
f 296 770 771
f 771 770 795
f 771 795 796
f 796 795 797
f 796 797 798
f 798 797 799
f 798 799 800
f 800 799 801
f 800 801 802
f 802 801 803
f 802 803 804
f 294 769 770
f 770 769 783
f 770 783 795
f 795 783 784
f 795 784 797
f 797 784 805
f 797 805 799
f 799 805 806
f 799 806 801
f 801 806 807
f 801 807 803
f 685 807 686
f 686 807 806
f 686 806 687
f 687 806 805
f 687 805 688
f 688 805 784
f 688 784 689
f 689 784 690
f 685 684 807
f 807 684 768
f 807 768 803
f 803 768 808
f 803 808 804
f 804 808 809
f 794 793 810
f 810 793 811
f 810 811 812
f 812 811 813
f 812 813 329
f 814 815 816
f 306 777 778
f 778 777 817
f 778 817 781
f 781 817 818
f 781 818 786
f 786 818 819
f 786 819 788
f 788 819 820
f 788 820 790
f 790 820 821
f 790 821 793
f 793 821 814
f 793 814 811
f 811 814 816
f 811 816 813
f 305 776 777
f 777 776 822
f 777 822 817
f 817 822 823
f 817 823 818
f 818 823 824
f 818 824 819
f 819 824 825
f 819 825 820
f 820 825 826
f 820 826 821
f 821 826 827
f 821 827 814
f 814 827 828
f 814 828 815
f 829 830 831
f 301 775 776
f 776 775 832
f 776 832 822
f 822 832 833
f 822 833 823
f 823 833 834
f 823 834 824
f 824 834 835
f 824 835 825
f 825 835 836
f 825 836 826
f 826 836 829
f 826 829 827
f 827 829 831
f 827 831 828
f 300 774 775
f 775 774 837
f 775 837 832
f 832 837 838
f 832 838 833
f 833 838 839
f 833 839 834
f 834 839 840
f 834 840 835
f 835 840 841
f 835 841 836
f 836 841 842
f 836 842 829
f 829 842 843
f 829 843 830
f 844 845 846
f 299 773 774
f 774 773 847
f 774 847 837
f 837 847 848
f 837 848 838
f 838 848 849
f 838 849 839
f 839 849 850
f 839 850 840
f 840 850 851
f 840 851 841
f 841 851 844
f 841 844 842
f 842 844 846
f 842 846 843
f 298 772 773
f 773 772 852
f 773 852 847
f 847 852 853
f 847 853 848
f 848 853 854
f 848 854 849
f 849 854 855
f 849 855 850
f 850 855 856
f 850 856 851
f 851 856 857
f 851 857 844
f 844 857 858
f 844 858 845
f 297 771 772
f 772 771 796
f 772 796 852
f 852 796 798
f 852 798 853
f 853 798 800
f 853 800 854
f 854 800 802
f 854 802 855
f 855 802 804
f 855 804 856
f 856 804 809
f 856 809 857
f 857 809 859
f 857 859 858
f 336 860 768
f 768 860 861
f 768 861 808
f 808 861 862
f 808 862 809
f 809 862 863
f 809 863 859
f 340 354 864
f 864 354 695
f 864 695 865
f 865 695 694
f 865 694 866
f 866 694 699
f 866 699 867
f 867 699 698
f 867 698 868
f 868 698 744
f 868 744 869
f 869 744 734
f 869 734 870
f 870 734 703
f 870 703 871
f 871 703 702
f 871 702 872
f 872 702 707
f 872 707 873
f 873 707 706
f 873 706 874
f 874 706 717
f 874 717 316
f 316 717 314
f 336 340 860
f 860 340 875
f 860 875 861
f 861 875 876
f 861 876 862
f 862 876 877
f 862 877 863
f 863 877 878
f 863 878 859
f 859 878 879
f 859 879 858
f 858 879 880
f 858 880 845
f 845 880 881
f 845 881 846
f 846 881 882
f 846 882 843
f 843 882 883
f 843 883 830
f 830 883 884
f 830 884 831
f 831 884 885
f 831 885 828
f 828 885 886
f 828 886 815
f 815 886 887
f 815 887 816
f 816 887 888
f 816 888 813
f 813 888 889
f 813 889 329
f 329 889 327
f 329 330 812
f 812 330 890
f 812 890 810
f 810 890 891
f 810 891 794
f 794 891 892
f 794 892 792
f 792 892 893
f 792 893 791
f 791 893 894
f 791 894 789
f 789 894 895
f 789 895 787
f 787 895 896
f 787 896 785
f 785 896 897
f 785 897 782
f 782 897 898
f 782 898 780
f 780 898 899
f 780 899 779
f 779 899 900
f 779 900 308
f 308 900 309
f 901 902 327
f 902 901 903
f 318 324 904
f 319 318 905
f 320 319 906
f 321 320 907
f 322 321 908
f 323 322 909
f 310 323 910
f 311 310 911
f 313 311 912
f 317 313 913
f 317 914 316
f 316 914 874
f 874 914 873
f 873 914 915
f 873 915 872
f 318 904 905
f 905 904 916
f 905 916 917
f 916 918 917
f 917 918 919
f 917 919 920
f 872 915 871
f 871 915 921
f 871 921 870
f 870 921 922
f 870 922 869
f 869 922 923
f 869 923 868
f 868 923 867
f 867 923 924
f 867 924 866
f 320 906 907
f 907 906 925
f 907 925 926
f 926 925 927
f 926 927 928
f 928 927 929
f 928 929 930
f 930 929 931
f 930 931 932
f 932 931 933
f 932 933 934
f 319 905 906
f 906 905 917
f 906 917 925
f 925 917 920
f 925 920 927
f 927 920 935
f 927 935 929
f 929 935 936
f 929 936 931
f 931 936 937
f 931 937 933
f 938 937 939
f 939 937 936
f 939 936 940
f 940 936 935
f 940 935 941
f 941 935 920
f 941 920 942
f 942 920 919
f 938 903 937
f 937 903 901
f 937 901 933
f 933 901 943
f 933 943 934
f 934 943 944
f 866 924 865
f 865 924 945
f 865 945 864
f 864 945 875
f 864 875 340
f 946 877 876
f 317 913 914
f 914 913 947
f 914 947 915
f 915 947 948
f 915 948 921
f 921 948 949
f 921 949 922
f 922 949 950
f 922 950 923
f 923 950 951
f 923 951 924
f 924 951 946
f 924 946 945
f 945 946 876
f 945 876 875
f 313 912 913
f 913 912 952
f 913 952 947
f 947 952 953
f 947 953 948
f 948 953 954
f 948 954 949
f 949 954 955
f 949 955 950
f 950 955 956
f 950 956 951
f 951 956 957
f 951 957 946
f 946 957 878
f 946 878 877
f 958 880 879
f 311 911 912
f 912 911 959
f 912 959 952
f 952 959 960
f 952 960 953
f 953 960 961
f 953 961 954
f 954 961 962
f 954 962 955
f 955 962 963
f 955 963 956
f 956 963 958
f 956 958 957
f 957 958 879
f 957 879 878
f 310 910 911
f 911 910 964
f 911 964 959
f 959 964 965
f 959 965 960
f 960 965 966
f 960 966 961
f 961 966 967
f 961 967 962
f 962 967 968
f 962 968 963
f 963 968 969
f 963 969 958
f 958 969 881
f 958 881 880
f 970 883 882
f 323 909 910
f 910 909 971
f 910 971 964
f 964 971 972
f 964 972 965
f 965 972 973
f 965 973 966
f 966 973 974
f 966 974 967
f 967 974 975
f 967 975 968
f 968 975 970
f 968 970 969
f 969 970 882
f 969 882 881
f 322 908 909
f 909 908 976
f 909 976 971
f 971 976 977
f 971 977 972
f 972 977 978
f 972 978 973
f 973 978 979
f 973 979 974
f 974 979 980
f 974 980 975
f 975 980 981
f 975 981 970
f 970 981 884
f 970 884 883
f 321 907 908
f 908 907 926
f 908 926 976
f 976 926 928
f 976 928 977
f 977 928 930
f 977 930 978
f 978 930 932
f 978 932 979
f 979 932 934
f 979 934 980
f 980 934 944
f 980 944 981
f 981 944 885
f 981 885 884
f 327 889 901
f 901 889 888
f 901 888 943
f 943 888 887
f 943 887 944
f 944 887 886
f 944 886 885
f 290 288 982
f 290 982 983
f 983 982 984
f 983 984 985
f 985 984 986
f 986 984 987
f 986 987 988
f 987 989 988
f 988 989 990
f 988 990 991
f 991 990 992
f 991 992 993
f 993 992 994
f 994 992 995
f 994 995 996
f 996 995 997
f 996 997 998
f 998 997 999
f 998 999 1000
f 999 1001 1000
f 1000 1001 1002
f 1000 1002 1003
f 1003 1002 330
f 1003 330 328
f 328 327 1004
f 1004 327 902
f 1004 902 1005
f 1005 902 903
f 1005 903 1006
f 1006 903 938
f 1006 938 1007
f 938 939 1007
f 1007 939 940
f 1007 940 1008
f 1008 940 941
f 324 326 904
f 904 326 1009
f 904 1009 916
f 916 1009 1010
f 916 1010 918
f 918 1010 1011
f 918 1011 919
f 919 1011 1012
f 919 1012 942
f 942 1012 1013
f 942 1013 941
f 941 1013 1014
f 941 1014 1008
f 460 451 1015
f 477 460 1016
f 478 477 1017
f 486 478 1018
f 485 486 1019
f 483 485 1020
f 484 483 1021
f 490 484 1022
f 489 490 1023
f 489 1024 474
f 474 1024 1025
f 1025 1024 1026
f 1026 1024 1027
f 1026 1027 1028
f 460 1015 1016
f 1016 1015 1029
f 1016 1029 1030
f 1029 1031 1030
f 1030 1031 1032
f 1030 1032 1033
f 1028 1027 1034
f 1034 1027 1035
f 1034 1035 1036
f 1036 1035 1037
f 1036 1037 1038
f 1038 1037 1039
f 1038 1039 1040
f 1040 1039 1041
f 1041 1039 1042
f 1041 1042 1043
f 1032 1044 1033
f 1033 1044 1045
f 1033 1045 1046
f 1046 1045 1047
f 1046 1047 1048
f 1048 1047 1049
f 1048 1049 1050
f 477 1016 1017
f 1017 1016 1030
f 1017 1030 1051
f 1051 1030 1033
f 1051 1033 1052
f 1052 1033 1046
f 1052 1046 1053
f 1053 1046 1048
f 1053 1048 1054
f 1054 1048 1050
f 1054 1050 1055
f 1055 1050 1056
f 1055 1056 1057
f 1049 1058 1050
f 1050 1058 1059
f 1050 1059 1056
f 1056 1059 1060
f 1056 1060 411
f 1043 1042 1061
f 1061 1042 1062
f 1061 1062 1063
f 1063 1062 441
f 1063 441 302
f 1064 437 439
f 489 1023 1024
f 1024 1023 1065
f 1024 1065 1027
f 1027 1065 1066
f 1027 1066 1035
f 1035 1066 1067
f 1035 1067 1037
f 1037 1067 1068
f 1037 1068 1039
f 1039 1068 1069
f 1039 1069 1042
f 1042 1069 1064
f 1042 1064 1062
f 1062 1064 439
f 1062 439 441
f 1070 433 435
f 490 1022 1023
f 1023 1022 1071
f 1023 1071 1065
f 1065 1071 1072
f 1065 1072 1066
f 1066 1072 1073
f 1066 1073 1067
f 1067 1073 1074
f 1067 1074 1068
f 1068 1074 1075
f 1068 1075 1069
f 1069 1075 1070
f 1069 1070 1064
f 1064 1070 435
f 1064 435 437
f 1076 429 431
f 484 1021 1022
f 1022 1021 1077
f 1022 1077 1071
f 1071 1077 1078
f 1071 1078 1072
f 1072 1078 1079
f 1072 1079 1073
f 1073 1079 1080
f 1073 1080 1074
f 1074 1080 1081
f 1074 1081 1075
f 1075 1081 1076
f 1075 1076 1070
f 1070 1076 431
f 1070 431 433
f 483 1020 1021
f 1021 1020 1082
f 1021 1082 1077
f 1077 1082 1083
f 1077 1083 1078
f 1078 1083 1084
f 1078 1084 1079
f 1079 1084 1085
f 1079 1085 1080
f 1080 1085 1086
f 1080 1086 1081
f 1081 1086 1087
f 1081 1087 1076
f 1076 1087 427
f 1076 427 429
f 485 1019 1020
f 1020 1019 1088
f 1020 1088 1082
f 1082 1088 1089
f 1082 1089 1083
f 1083 1089 1090
f 1083 1090 1084
f 1084 1090 1091
f 1084 1091 1085
f 1085 1091 1092
f 1085 1092 1086
f 1086 1092 1093
f 1086 1093 1087
f 1087 1093 425
f 1087 425 427
f 1094 421 423
f 486 1018 1019
f 1019 1018 1095
f 1019 1095 1088
f 1088 1095 1096
f 1088 1096 1089
f 1089 1096 1097
f 1089 1097 1090
f 1090 1097 1098
f 1090 1098 1091
f 1091 1098 1099
f 1091 1099 1092
f 1092 1099 1094
f 1092 1094 1093
f 1093 1094 423
f 1093 423 425
f 478 1017 1018
f 1018 1017 1051
f 1018 1051 1095
f 1095 1051 1052
f 1095 1052 1096
f 1096 1052 1053
f 1096 1053 1097
f 1097 1053 1054
f 1097 1054 1098
f 1098 1054 1055
f 1098 1055 1099
f 1099 1055 1057
f 1099 1057 1094
f 1094 1057 419
f 1094 419 421
f 411 413 1056
f 1056 413 415
f 1056 415 1057
f 1057 415 417
f 1057 417 419
f 448 474 1100
f 1100 474 1025
f 1100 1025 1101
f 1101 1025 1026
f 1101 1026 1102
f 1102 1026 1028
f 1102 1028 1103
f 1028 1034 1103
f 1103 1034 1036
f 1103 1036 1104
f 1104 1036 1038
f 302 295 1063
f 1063 295 1105
f 1063 1105 1061
f 1061 1105 1106
f 1061 1106 1043
f 1043 1106 1107
f 1043 1107 1041
f 1041 1107 1108
f 1041 1108 1040
f 1040 1108 1109
f 1040 1109 1038
f 1038 1109 1110
f 1038 1110 1104
f 451 452 1015
f 1015 452 1111
f 1015 1111 1029
f 1029 1111 1112
f 1029 1112 1031
f 1031 1112 1113
f 1031 1113 1032
f 1032 1113 1114
f 1032 1114 1044
f 1044 1114 1115
f 1044 1115 1045
f 1045 1115 1116
f 1045 1116 1047
f 1047 1116 1117
f 1047 1117 1049
f 1049 1117 1118
f 1049 1118 1058
f 1058 1118 1119
f 1058 1119 1059
f 1059 1119 1120
f 1059 1120 1060
f 1060 1120 1121
f 1060 1121 411
f 411 1121 409
f 453 448 1122
f 1122 448 1123
f 1122 1123 1124
f 1124 1123 1125
f 1124 1125 1126
f 1126 1125 1127
f 1126 1127 1128
f 1128 1127 1129
f 1128 1129 1130
f 1130 1129 1131
f 1130 1131 1132
f 1131 1133 1132
f 1132 1133 1134
f 1132 1134 1135
f 1135 1134 1136
f 1135 1136 1137
f 1137 1136 1138
f 1137 1138 1139
f 1139 1138 1140
f 1139 1140 1141
f 1141 1140 1142
f 1141 1142 1143
f 1143 1142 68
f 1143 68 51
f 471 443 1144
f 470 471 1145
f 468 470 1146
f 466 468 1147
f 467 466 1148
f 480 467 1149
f 481 480 1150
f 482 481 1151
f 464 482 1152
f 464 1153 452
f 452 1153 1111
f 1111 1153 1112
f 1112 1153 1154
f 1112 1154 1113
f 471 1144 1145
f 1145 1144 1155
f 1145 1155 1156
f 1155 1157 1156
f 1156 1157 1158
f 1156 1158 1159
f 1113 1154 1114
f 1114 1154 1160
f 1114 1160 1115
f 1115 1160 1161
f 1115 1161 1116
f 1116 1161 1162
f 1116 1162 1117
f 1117 1162 1118
f 1118 1162 1163
f 1118 1163 1119
f 1158 1164 1159
f 1159 1164 1165
f 1159 1165 1166
f 1166 1165 1167
f 1166 1167 1168
f 1168 1167 1169
f 1168 1169 1170
f 470 1145 1146
f 1146 1145 1156
f 1146 1156 1171
f 1171 1156 1159
f 1171 1159 1172
f 1172 1159 1166
f 1172 1166 1173
f 1173 1166 1168
f 1173 1168 1174
f 1174 1168 1170
f 1174 1170 1175
f 1175 1170 1176
f 1175 1176 1177
f 1169 1178 1170
f 1170 1178 1179
f 1170 1179 1176
f 1176 1179 1180
f 1176 1180 315
f 1119 1163 1120
f 1120 1163 1181
f 1120 1181 1121
f 1121 1181 407
f 1121 407 409
f 1182 403 405
f 464 1152 1153
f 1153 1152 1183
f 1153 1183 1154
f 1154 1183 1184
f 1154 1184 1160
f 1160 1184 1185
f 1160 1185 1161
f 1161 1185 1186
f 1161 1186 1162
f 1162 1186 1187
f 1162 1187 1163
f 1163 1187 1182
f 1163 1182 1181
f 1181 1182 405
f 1181 405 407
f 1188 399 401
f 482 1151 1152
f 1152 1151 1189
f 1152 1189 1183
f 1183 1189 1190
f 1183 1190 1184
f 1184 1190 1191
f 1184 1191 1185
f 1185 1191 1192
f 1185 1192 1186
f 1186 1192 1193
f 1186 1193 1187
f 1187 1193 1188
f 1187 1188 1182
f 1182 1188 401
f 1182 401 403
f 1194 395 397
f 481 1150 1151
f 1151 1150 1195
f 1151 1195 1189
f 1189 1195 1196
f 1189 1196 1190
f 1190 1196 1197
f 1190 1197 1191
f 1191 1197 1198
f 1191 1198 1192
f 1192 1198 1199
f 1192 1199 1193
f 1193 1199 1194
f 1193 1194 1188
f 1188 1194 397
f 1188 397 399
f 480 1149 1150
f 1150 1149 1200
f 1150 1200 1195
f 1195 1200 1201
f 1195 1201 1196
f 1196 1201 1202
f 1196 1202 1197
f 1197 1202 1203
f 1197 1203 1198
f 1198 1203 1204
f 1198 1204 1199
f 1199 1204 1205
f 1199 1205 1194
f 1194 1205 393
f 1194 393 395
f 467 1148 1149
f 1149 1148 1206
f 1149 1206 1200
f 1200 1206 1207
f 1200 1207 1201
f 1201 1207 1208
f 1201 1208 1202
f 1202 1208 1209
f 1202 1209 1203
f 1203 1209 1210
f 1203 1210 1204
f 1204 1210 1211
f 1204 1211 1205
f 1205 1211 391
f 1205 391 393
f 1212 387 389
f 466 1147 1148
f 1148 1147 1213
f 1148 1213 1206
f 1206 1213 1214
f 1206 1214 1207
f 1207 1214 1215
f 1207 1215 1208
f 1208 1215 1216
f 1208 1216 1209
f 1209 1216 1217
f 1209 1217 1210
f 1210 1217 1212
f 1210 1212 1211
f 1211 1212 389
f 1211 389 391
f 468 1146 1147
f 1147 1146 1171
f 1147 1171 1213
f 1213 1171 1172
f 1213 1172 1214
f 1214 1172 1173
f 1214 1173 1215
f 1215 1173 1174
f 1215 1174 1216
f 1216 1174 1175
f 1216 1175 1217
f 1217 1175 1177
f 1217 1177 1212
f 1212 1177 385
f 1212 385 387
f 315 379 1176
f 1176 379 381
f 1176 381 1177
f 1177 381 383
f 1177 383 385
f 443 453 1144
f 1144 453 1218
f 1144 1218 1155
f 1155 1218 1219
f 1155 1219 1157
f 1157 1219 1220
f 1157 1220 1158
f 1158 1220 1221
f 1158 1221 1164
f 1164 1221 1222
f 1164 1222 1165
f 1165 1222 1223
f 1165 1223 1167
f 1167 1223 1224
f 1167 1224 1169
f 1169 1224 1225
f 1169 1225 1178
f 1178 1225 1226
f 1178 1226 1179
f 1179 1226 1227
f 1179 1227 1180
f 1180 1227 1228
f 1180 1228 315
f 315 1228 312

