# https://github.com/mikedh/trimesh
mtllib material.mtl

o ActorShape0_0-Mesh
usemtl material_0
v 0.00283942 0.00304028 0.00550000
v 0.00320000 0.00265812 0.00550000
v 0.00322696 0.00262533 0.00000000
v 0.00320000 0.00265812 0.00835000
v 0.00320673 0.00265000 0.00835000
v 0.00321687 0.00263768 0.00852866
v 0.00283942 0.00304028 0.00000000
v 0.00239899 0.00339859 0.00000000
v 0.00239899 0.00339859 0.00550000
v 0.00191387 0.00369360 0.00000000
v 0.00191387 0.00369360 0.00550000
v 0.00139310 0.00391980 0.00000000
v 0.00139310 0.00391980 0.00550000
v 0.00084638 0.00407299 0.00000000
v 0.00084638 0.00407299 0.00550000
v 0.00028389 0.00415030 0.00000000
v 0.00028389 0.00415030 0.00550000
v -0.00028389 0.00415030 0.00000000
v -0.00028389 0.00415030 0.00550000
v -0.00084638 0.00407299 0.00000000
v -0.00084638 0.00407299 0.00550000
v -0.00139310 0.00391980 0.00000000
v -0.00139310 0.00391980 0.00550000
v -0.00191387 0.00369360 0.00000000
v -0.00191387 0.00369360 0.00550000
v -0.00239899 0.00339859 0.00000000
v -0.00239899 0.00339859 0.00550000
v -0.00283942 0.00304028 0.00000000
v -0.00283942 0.00304028 0.00550000
v -0.00320673 0.00265000 0.00835000
v -0.00321687 0.00263768 0.00852472
v -0.00320792 0.00264855 0.00843750
v -0.00321801 0.00263629 0.00861919
v -0.00320000 0.00265812 0.00835000
v -0.00320000 0.00265812 0.00550000
v -0.00322694 0.00262531 0.00869944
v -0.00340293 0.00239284 0.00948879
v -0.00334773 0.00246947 0.00931135
v -0.00344637 0.00232931 0.00961058
v -0.00340300 0.00239274 0.00933339
v -0.00332085 0.00250528 0.00921005
v -0.00330597 0.00252511 0.00915393
v -0.00326754 0.00257465 0.00897745
v -0.00323658 0.00261344 0.00878612
v -0.00323803 0.00261165 0.00879918
v -0.00322696 0.00262533 0.00000000
v -0.00355438 0.00216147 0.00000000
v -0.00367110 0.00195669 0.01013714
v -0.00360006 0.00208450 0.00998626
v -0.00359621 0.00209091 0.00997744
v -0.00381560 0.00165735 0.00000000
v -0.00375277 0.00179429 0.01029908
v -0.00374509 0.00181105 0.01028458
v -0.00346418 0.00230327 0.00966051
v -0.00353028 0.00220062 0.00982641
v -0.00355396 0.00216121 0.00988066
v -0.00400505 0.00112217 0.01074929
v -0.00399481 0.00116066 0.01073230
v -0.00400574 0.00112235 0.00000000
v -0.00393924 0.00133717 0.01063790
v -0.00389894 0.00144881 0.01056754
v -0.00388519 0.00148692 0.01054353
v -0.00381690 0.00165435 0.01042017
v -0.00381554 0.00165732 0.01041760
v -0.00412125 0.00056645 0.00000000
v -0.00412117 0.00056644 0.00869086
v -0.00411950 0.00057907 0.00870671
v -0.00411783 0.00059081 0.00872457
v -0.00411574 0.00060477 0.00875077
v -0.00411031 0.00064103 0.00881878
v -0.00410469 0.00067614 0.00891883
v -0.00410468 0.00067618 0.00891894
v -0.00410371 0.00068203 0.00894242
v -0.00410102 0.00069805 0.00904775
v -0.00410102 0.00069799 0.00910000
v -0.00410104 0.00069794 0.00915372
v -0.00410139 0.00069582 0.00917637
v -0.00410468 0.00067614 0.00928117
v -0.00410469 0.00067613 0.00928123
v -0.00411033 0.00064092 0.00938147
v -0.00411159 0.00063278 0.00939932
v -0.00410783 0.00065011 0.01091727
v -0.00408975 0.00076128 0.01088830
v -0.00412117 0.00056644 0.00950905
v -0.00408441 0.00078941 0.01087969
v -0.00411577 0.00060444 0.00944899
v -0.00411941 0.00057968 0.00949239
v -0.00402059 0.00106374 0.01077509
v -0.00404339 0.00097805 0.01081291
v -0.00412821 0.00051332 0.00957592
v -0.00412108 0.00056643 0.01093847
v -0.00412017 0.00057429 0.01093702
v -0.00412985 0.00049993 0.00958997
v -0.00413044 0.00049464 0.00959460
v -0.00413881 0.00041934 0.00966050
v -0.00414514 0.00034925 0.00970504
v -0.00414693 0.00032946 0.00971762
v -0.00414848 0.00030935 0.00972794
v -0.00415468 0.00021038 0.00976764
v -0.00415581 0.00018080 0.00977455
v -0.00414213 0.00038512 0.01097187
v -0.00415862 0.00010711 0.00979176
v -0.00415374 0.00021875 0.01099016
v -0.00415917 0.00008314 0.00979504
v -0.00415549 0.00019373 0.01099291
v -0.00416000 0.00000000 0.01100000
v -0.00415977 -0.00000000 0.00979861
v -0.00415977 -0.00000006 0.00979861
v -0.00415955 -0.00006104 0.01099930
v -0.00415993 -0.00002334 0.00979961
v -0.00415363 -0.00021878 0.01098998
v -0.00415801 -0.00012873 0.00978806
v -0.00415240 -0.00025131 0.01098806
v -0.00413669 -0.00043974 0.01096326
v -0.00415235 -0.00025225 0.00975297
v -0.00412034 -0.00056633 0.01093725
v -0.00415581 -0.00018068 0.00977450
v -0.00415730 -0.00014994 0.00978375
v -0.00414539 -0.00034831 0.00970719
v -0.00414525 -0.00034999 0.00970620
v -0.00414397 -0.00036481 0.00969742
v -0.00413539 -0.00045178 0.00963469
v -0.00413044 -0.00049356 0.00959354
v -0.00412638 -0.00052782 0.00955979
v -0.00402066 -0.00106379 0.01077521
v -0.00404095 -0.00098809 0.01080890
v -0.00412114 -0.00056644 0.00950788
v -0.00408032 -0.00081032 0.01087307
v -0.00410837 -0.00065032 0.01091815
v -0.00412469 -0.00054085 0.00954439
v -0.00411261 -0.00062614 0.01092497
v -0.00410901 -0.00064933 0.00936149
v -0.00410767 -0.00065775 0.00933951
v -0.00400501 -0.00112216 0.01074923
v -0.00411565 -0.00060572 0.00944975
v -0.00411618 -0.00060223 0.00945682
v -0.00410497 -0.00067424 0.00928064
v -0.00410297 -0.00068648 0.00923691
v -0.00410081 -0.00069928 0.00913172
v -0.00410069 -0.00069995 0.00910795
v -0.00410078 -0.00069944 0.00910004
v -0.00400574 -0.00112235 0.00000000
v -0.00410186 -0.00069305 0.00900158
v -0.00410488 -0.00067487 0.00891911
v -0.00410566 -0.00067021 0.00889798
v -0.00410667 -0.00066398 0.00887834
v -0.00411317 -0.00062244 0.00877974
v -0.00389879 -0.00144858 0.01056718
v -0.00393945 -0.00133652 0.01063828
v -0.00399339 -0.00116553 0.01072993
v -0.00351789 -0.00222038 0.00979652
v -0.00355387 -0.00216116 0.00988004
v -0.00355438 -0.00216147 0.00000000
v -0.00359124 -0.00209967 0.00996675
v -0.00381560 -0.00165735 0.00000000
v -0.00373889 -0.00182381 0.01027255
v -0.00375268 -0.00179391 0.01029866
v -0.00366538 -0.00196739 0.01012536
v -0.00359619 -0.00209084 0.00997734
v -0.00387978 -0.00150096 0.01053394
v -0.00381557 -0.00165734 0.01041771
v -0.00381504 -0.00165863 0.01041675
v -0.00329778 -0.00253580 0.00911957
v -0.00332125 -0.00250464 0.00920984
v -0.00329071 -0.00254496 0.00908870
v -0.00325452 -0.00259108 0.00890570
v -0.00346837 -0.00229696 0.00967154
v -0.00344646 -0.00232907 0.00961045
v -0.00340420 -0.00239102 0.00949259
v -0.00334691 -0.00247059 0.00930848
v -0.00283942 -0.00304028 0.00550000
v -0.00320000 -0.00265812 0.00550000
v -0.00322696 -0.00262533 0.00000000
v -0.00320000 -0.00265812 0.00835000
v -0.00320673 -0.00265000 0.00835000
v -0.00321687 -0.00263768 0.00852866
v -0.00321216 -0.00264341 0.00853677
v -0.00322695 -0.00262532 0.00870732
v -0.00322821 -0.00262378 0.00872184
v -0.00323738 -0.00261239 0.00878591
v 0.00283942 -0.00304028 0.00000000
v 0.00239899 -0.00339859 0.00550000
v 0.00239899 -0.00339859 0.00000000
v 0.00191387 -0.00369360 0.00550000
v 0.00191387 -0.00369360 0.00000000
v 0.00139310 -0.00391980 0.00550000
v 0.00139310 -0.00391980 0.00000000
v 0.00084638 -0.00407299 0.00550000
v 0.00084638 -0.00407299 0.00000000
v 0.00028389 -0.00415030 0.00550000
v 0.00028389 -0.00415030 0.00000000
v -0.00028389 -0.00415030 0.00550000
v -0.00028389 -0.00415030 0.00000000
v -0.00084638 -0.00407299 0.00550000
v -0.00084638 -0.00407299 0.00000000
v -0.00139310 -0.00391980 0.00550000
v -0.00139310 -0.00391980 0.00000000
v -0.00191387 -0.00369360 0.00550000
v -0.00191387 -0.00369360 0.00000000
v -0.00239899 -0.00339859 0.00550000
v -0.00239899 -0.00339859 0.00000000
v -0.00283942 -0.00304028 0.00000000
v 0.00322694 -0.00262531 0.00869930
v 0.00321697 -0.00263756 0.00860651
v 0.00321687 -0.00263768 0.00852465
v 0.00320760 -0.00264895 0.00842469
v 0.00320673 -0.00265000 0.00835000
v 0.00320000 -0.00265812 0.00835000
v 0.00320000 -0.00265812 0.00550000
v 0.00322696 -0.00262533 0.00000000
v 0.00283942 -0.00304028 0.00550000
v 0.00346060 -0.00230865 0.00965102
v 0.00344631 -0.00232948 0.00961068
v 0.00352640 -0.00220683 0.00981711
v 0.00355438 -0.00216147 0.00000000
v 0.00355394 -0.00216120 0.00988049
v 0.00339973 -0.00239738 0.00947919
v 0.00334498 -0.00247320 0.00930172
v 0.00326519 -0.00257763 0.00896509
v 0.00323632 -0.00261378 0.00878665
v 0.00323627 -0.00261384 0.00878617
v 0.00332093 -0.00250517 0.00921002
v 0.00330303 -0.00252895 0.00914178
v 0.00381418 -0.00166061 0.01041516
v 0.00375273 -0.00179413 0.01029891
v 0.00381560 -0.00165735 0.00000000
v 0.00374224 -0.00181693 0.01027906
v 0.00359596 -0.00209157 0.00997722
v 0.00359616 -0.00209121 0.00997765
v 0.00366819 -0.00196214 0.01013116
v 0.00392822 -0.00136920 0.01061887
v 0.00400574 -0.00112235 0.00000000
v 0.00398503 -0.00119378 0.01071588
v 0.00400475 -0.00112208 0.01074873
v 0.00389901 -0.00144890 0.01056769
v 0.00388267 -0.00149349 0.01053906
v 0.00381553 -0.00165732 0.01041760
v 0.00412125 -0.00056645 0.00000000
v 0.00412117 -0.00056644 0.00869086
v 0.00411950 -0.00057907 0.00870671
v 0.00411783 -0.00059081 0.00872457
v 0.00411574 -0.00060477 0.00875077
v 0.00411031 -0.00064103 0.00881878
v 0.00410469 -0.00067614 0.00891883
v 0.00410468 -0.00067618 0.00891894
v 0.00410371 -0.00068203 0.00894242
v 0.00410102 -0.00069805 0.00904775
v 0.00410102 -0.00069799 0.00910000
v 0.00410104 -0.00069794 0.00915372
v 0.00410139 -0.00069582 0.00917637
v 0.00410468 -0.00067614 0.00928117
v 0.00410469 -0.00067613 0.00928123
v 0.00411033 -0.00064092 0.00938147
v 0.00411159 -0.00063278 0.00939932
v 0.00412021 -0.00056631 0.01093705
v 0.00410992 -0.00064356 0.01092067
v 0.00412117 -0.00056644 0.00950905
v 0.00410868 -0.00065047 0.01091867
v 0.00407750 -0.00082438 0.01086851
v 0.00411577 -0.00060444 0.00944899
v 0.00411941 -0.00057968 0.00949239
v 0.00402077 -0.00106385 0.01077540
v 0.00403499 -0.00101214 0.01079910
v 0.00412821 -0.00051332 0.00957592
v 0.00412985 -0.00049993 0.00958997
v 0.00413044 -0.00049464 0.00959460
v 0.00413881 -0.00041934 0.00966050
v 0.00414514 -0.00034925 0.00970504
v 0.00414693 -0.00032946 0.00971762
v 0.00414848 -0.00030935 0.00972794
v 0.00415468 -0.00021038 0.00976764
v 0.00413504 -0.00045501 0.01096065
v 0.00415581 -0.00018080 0.00977455
v 0.00415161 -0.00026401 0.01098682
v 0.00415862 -0.00010711 0.00979176
v 0.00415344 -0.00021875 0.01098968
v 0.00415917 -0.00008314 0.00979504
v 0.00415940 -0.00007048 0.01099906
v 0.00415977 0.00000000 0.00979861
v 0.00415948 0.00000000 0.01099919
v 0.00415977 0.00000006 0.00979861
v 0.00415955 0.00006127 0.01099929
v 0.00415993 0.00002334 0.00979961
v 0.00415363 0.00021878 0.01098998
v 0.00415801 0.00012873 0.00978806
v 0.00415241 0.00025118 0.01098807
v 0.00413672 0.00043945 0.01096331
v 0.00415235 0.00025225 0.00975297
v 0.00412034 0.00056633 0.01093725
v 0.00415581 0.00018068 0.00977450
v 0.00415730 0.00014994 0.00978375
v 0.00414539 0.00034831 0.00970719
v 0.00414525 0.00034999 0.00970620
v 0.00414397 0.00036481 0.00969742
v 0.00413539 0.00045178 0.00963469
v 0.00413044 0.00049356 0.00959354
v 0.00412638 0.00052782 0.00955979
v 0.00402066 0.00106379 0.01077521
v 0.00404095 0.00098809 0.01080890
v 0.00412114 0.00056644 0.00950788
v 0.00408032 0.00081032 0.01087307
v 0.00410836 0.00065032 0.01091814
v 0.00412469 0.00054085 0.00954439
v 0.00411265 0.00062590 0.01092502
v 0.00410901 0.00064933 0.00936149
v 0.00410767 0.00065775 0.00933951
v 0.00400501 0.00112216 0.01074923
v 0.00411565 0.00060572 0.00944975
v 0.00411618 0.00060223 0.00945682
v 0.00410497 0.00067424 0.00928064
v 0.00410297 0.00068648 0.00923691
v 0.00410081 0.00069928 0.00913172
v 0.00410069 0.00069995 0.00910795
v 0.00410078 0.00069944 0.00910004
v 0.00400574 0.00112235 0.00000000
v 0.00410186 0.00069305 0.00900158
v 0.00410488 0.00067487 0.00891911
v 0.00410566 0.00067021 0.00889798
v 0.00410667 0.00066398 0.00887834
v 0.00411317 0.00062244 0.00877974
v 0.00389879 0.00144858 0.01056718
v 0.00393945 0.00133652 0.01063828
v 0.00399339 0.00116553 0.01072993
v 0.00351789 0.00222038 0.00979652
v 0.00355387 0.00216116 0.00988004
v 0.00355438 0.00216147 0.00000000
v 0.00359124 0.00209967 0.00996675
v 0.00381560 0.00165735 0.00000000
v 0.00373889 0.00182381 0.01027255
v 0.00375268 0.00179391 0.01029866
v 0.00366538 0.00196739 0.01012536
v 0.00359619 0.00209084 0.00997734
v 0.00387978 0.00150096 0.01053394
v 0.00381557 0.00165734 0.01041771
v 0.00381504 0.00165863 0.01041675
v 0.00323738 0.00261239 0.00878591
v 0.00322821 0.00262378 0.00872184
v 0.00322695 0.00262532 0.00870732
v 0.00321216 0.00264341 0.00853677
v 0.00329778 0.00253580 0.00911957
v 0.00332125 0.00250464 0.00920984
v 0.00329071 0.00254496 0.00908870
v 0.00325452 0.00259108 0.00890570
v 0.00346837 0.00229696 0.00967154
v 0.00344646 0.00232907 0.00961045
v 0.00340420 0.00239102 0.00949259
v 0.00334691 0.00247059 0.00930848
v 0.00413046 0.00049420 0.00860572
v 0.00413179 0.00048364 0.00859394
v 0.00412125 0.00056645 0.00000000
v 0.00412278 0.00055526 0.00867376
v 0.00411573 0.00060472 0.00875092
v 0.00412123 0.00056662 0.00868897
v 0.00412125 0.00056645 0.00868875
v 0.00414061 0.00040114 0.00852634
v 0.00414228 0.00038353 0.00851442
v 0.00414508 0.00034908 0.00849544
v 0.00414988 0.00029001 0.00846290
v 0.00415565 0.00019031 0.00842637
v 0.00415604 0.00018115 0.00842395
v 0.00415665 0.00016697 0.00842020
v 0.00415953 0.00006220 0.00840277
v 0.00416000 0.00000000 0.00000000
v 0.00416000 0.00000000 0.00840000
v 0.00415864 -0.00010631 0.00840812
v 0.00415364 -0.00022987 0.00843882
v 0.00414705 -0.00032796 0.00848158
v 0.00415581 -0.00018081 0.00842543
v 0.00415471 -0.00020967 0.00843214
v 0.00414514 -0.00034922 0.00849502
v 0.00413894 -0.00041804 0.00853853
v 0.00413732 -0.00043379 0.00855061
v 0.00413043 -0.00049397 0.00860612
v 0.00412830 -0.00051261 0.00862332
v -0.00413046 -0.00049420 0.00860572
v -0.00413179 -0.00048364 0.00859394
v -0.00412125 -0.00056645 0.00000000
v -0.00412278 -0.00055526 0.00867376
v -0.00411573 -0.00060472 0.00875092
v -0.00412123 -0.00056662 0.00868897
v -0.00412125 -0.00056645 0.00868875
v -0.00414061 -0.00040114 0.00852634
v -0.00414228 -0.00038353 0.00851442
v -0.00414508 -0.00034908 0.00849544
v -0.00414988 -0.00029001 0.00846290
v -0.00415565 -0.00019031 0.00842637
v -0.00415604 -0.00018115 0.00842395
v -0.00415665 -0.00016697 0.00842020
v -0.00415953 -0.00006220 0.00840277
v -0.00416000 0.00000000 0.00000000
v -0.00416000 0.00000000 0.00840000
v -0.00415864 0.00010631 0.00840812
v -0.00415364 0.00022987 0.00843882
v -0.00414705 0.00032796 0.00848158
v -0.00415581 0.00018081 0.00842543
v -0.00415471 0.00020967 0.00843214
v -0.00414514 0.00034922 0.00849502
v -0.00413894 0.00041804 0.00853853
v -0.00413732 0.00043379 0.00855061
v -0.00413043 0.00049397 0.00860612
v -0.00412830 0.00051261 0.00862332
v -0.00239899 0.00339859 0.00000000
v -0.00191387 0.00369360 0.00000000
v -0.00139310 0.00391980 0.00000000
v 0.00239899 0.00339859 0.00000000
v 0.00283942 0.00304028 0.00000000
v 0.00322696 0.00262533 0.00000000
v -0.00139310 -0.00391980 0.00000000
v -0.00084638 0.00407299 0.00000000
v 0.00283942 -0.00304028 0.00000000
v 0.00239899 -0.00339859 0.00000000
v 0.00139310 0.00391980 0.00000000
v 0.00322696 -0.00262533 0.00000000
v 0.00191387 0.00369360 0.00000000
v 0.00381560 -0.00165735 0.00000000
v 0.00355438 -0.00216147 0.00000000
v -0.00084638 -0.00407299 0.00000000
v -0.00028389 -0.00415030 0.00000000
v -0.00381560 -0.00165735 0.00000000
v -0.00400574 -0.00112235 0.00000000
v 0.00084638 0.00407299 0.00000000
v 0.00028389 0.00415030 0.00000000
v -0.00028389 0.00415030 0.00000000
v 0.00355438 0.00216147 0.00000000
v 0.00381560 0.00165735 0.00000000
v 0.00400574 0.00112235 0.00000000
v 0.00028389 -0.00415030 0.00000000
v 0.00084638 -0.00407299 0.00000000
v 0.00139310 -0.00391980 0.00000000
v 0.00191387 -0.00369360 0.00000000
v -0.00191387 -0.00369360 0.00000000
v -0.00239899 -0.00339859 0.00000000
v -0.00381560 0.00165735 0.00000000
v -0.00355438 0.00216147 0.00000000
v -0.00322696 0.00262533 0.00000000
v -0.00412125 -0.00056645 0.00000000
v -0.00283942 0.00304028 0.00000000
v 0.00412125 -0.00056645 0.00000000
v 0.00400574 -0.00112235 0.00000000
v 0.00416000 0.00000000 0.00000000
v 0.00412125 0.00056645 0.00000000
v -0.00355438 -0.00216147 0.00000000
v -0.00322696 -0.00262533 0.00000000
v -0.00283942 -0.00304028 0.00000000
v -0.00400574 0.00112235 0.00000000
v -0.00412125 0.00056645 0.00000000
v -0.00416000 0.00000000 0.00000000
v -0.00239899 -0.00339859 0.00550000
v -0.00191387 -0.00369360 0.00550000
v -0.00283942 -0.00304028 0.00550000
v 0.00283942 0.00304028 0.00550000
v 0.00239899 0.00339859 0.00550000
v 0.00084638 0.00407299 0.00550000
v 0.00139310 0.00391980 0.00550000
v 0.00191387 0.00369360 0.00550000
v -0.00320000 0.00265812 0.00550000
v -0.00320000 -0.00265812 0.00550000
v -0.00283942 0.00304028 0.00550000
v -0.00239899 0.00339859 0.00550000
v -0.00139310 0.00391980 0.00550000
v -0.00191387 0.00369360 0.00550000
v -0.00139310 -0.00391980 0.00550000
v -0.00084638 -0.00407299 0.00550000
v -0.00028389 -0.00415030 0.00550000
v 0.00320000 -0.00265812 0.00550000
v 0.00320000 0.00265812 0.00550000
v 0.00283942 -0.00304028 0.00550000
v 0.00239899 -0.00339859 0.00550000
v 0.00191387 -0.00369360 0.00550000
v 0.00028389 -0.00415030 0.00550000
v 0.00139310 -0.00391980 0.00550000
v 0.00084638 -0.00407299 0.00550000
v -0.00084638 0.00407299 0.00550000
v -0.00028389 0.00415030 0.00550000
v 0.00028389 0.00415030 0.00550000
v -0.00320000 0.00179480 0.01029967
v -0.00320000 0.00144941 0.01056849
v -0.00320000 0.00106449 0.01077680
v -0.00320000 -0.00265812 0.00835000
v -0.00320000 -0.00265812 0.00550000
v -0.00320000 -0.00265000 0.00835000
v -0.00320000 0.00265812 0.00550000
v -0.00320000 0.00265000 0.00835000
v -0.00320000 0.00035000 0.00970622
v -0.00320000 0.00049498 0.00959498
v -0.00320000 -0.00060622 0.00945000
v -0.00320000 -0.00049498 0.00959498
v -0.00320000 -0.00144941 0.01056849
v -0.00320000 0.00060622 0.00945000
v -0.00320000 0.00067615 0.00928117
v -0.00320000 0.00070000 0.00910000
v -0.00320000 -0.00049498 0.00860503
v -0.00320000 -0.00060622 0.00875000
v -0.00320000 -0.00067615 0.00891883
v -0.00320000 -0.00261386 0.00878618
v -0.00320000 -0.00070000 0.00910000
v -0.00320000 -0.00106449 0.01077680
v -0.00320000 -0.00035000 0.00970622
v -0.00320000 -0.00065054 0.01091891
v -0.00320000 -0.00018117 0.00977615
v -0.00320000 -0.00021884 0.01099095
v -0.00320000 0.00000000 0.00980000
v -0.00320000 0.00021884 0.01099095
v -0.00320000 0.00018117 0.00977615
v -0.00320000 0.00065054 0.01091891
v -0.00320000 -0.00179480 0.01029967
v -0.00320000 -0.00209122 0.00997766
v -0.00320000 -0.00067615 0.00928117
v -0.00320000 -0.00233060 0.00961126
v -0.00320000 -0.00250642 0.00921045
v -0.00320000 -0.00018117 0.00842385
v -0.00320000 -0.00035000 0.00849378
v -0.00320000 0.00261386 0.00878618
v -0.00320000 0.00250642 0.00921045
v -0.00320000 0.00233060 0.00961126
v -0.00320000 0.00035000 0.00849378
v -0.00320000 0.00018117 0.00842385
v -0.00320000 0.00000000 0.00840000
v -0.00320000 0.00209122 0.00997766
v -0.00320000 0.00067615 0.00891883
v -0.00320000 0.00060622 0.00875000
v -0.00320000 0.00049498 0.00860503
v -0.00320000 0.00265812 0.00835000
v 0.00320000 0.00265000 0.00835000
v 0.00320000 0.00265812 0.00835000
v 0.00320000 0.00265812 0.00550000
v 0.00320000 -0.00265812 0.00550000
v 0.00320000 -0.00265812 0.00835000
v 0.00320000 -0.00265000 0.00835000
v 0.00320000 0.00067615 0.00891883
v 0.00320000 0.00261386 0.00878618
v 0.00320000 0.00070000 0.00910000
v 0.00320000 0.00000000 0.00840000
v 0.00320000 0.00018117 0.00842385
v 0.00320000 0.00060622 0.00945000
v 0.00320000 0.00209122 0.00997766
v 0.00320000 0.00067615 0.00928117
v 0.00320000 0.00233060 0.00961126
v 0.00320000 0.00250642 0.00921045
v 0.00320000 0.00000000 0.00980000
v 0.00320000 0.00021884 0.01099095
v 0.00320000 0.00018117 0.00977615
v 0.00320000 0.00065054 0.01091891
v 0.00320000 0.00035000 0.00970622
v 0.00320000 0.00106449 0.01077680
v 0.00320000 0.00049498 0.00959498
v 0.00320000 0.00144941 0.01056849
v 0.00320000 0.00179480 0.01029967
v 0.00320000 0.00035000 0.00849378
v 0.00320000 0.00049498 0.00860503
v 0.00320000 0.00060622 0.00875000
v 0.00320000 -0.00060622 0.00875000
v 0.00320000 -0.00067615 0.00891883
v 0.00320000 -0.00261386 0.00878618
v 0.00320000 -0.00070000 0.00910000
v 0.00320000 -0.00250642 0.00921045
v 0.00320000 -0.00067615 0.00928117
v 0.00320000 -0.00233060 0.00961126
v 0.00320000 -0.00209122 0.00997766
v 0.00320000 -0.00060622 0.00945000
v 0.00320000 -0.00179480 0.01029967
v 0.00320000 -0.00049498 0.00959498
v 0.00320000 -0.00144941 0.01056849
v 0.00320000 -0.00035000 0.00970622
v 0.00320000 -0.00106449 0.01077680
v 0.00320000 -0.00018117 0.00977615
v 0.00320000 -0.00065054 0.01091891
v 0.00320000 -0.00021884 0.01099095
v 0.00320000 -0.00049498 0.00860503
v 0.00320000 -0.00035000 0.00849378
v 0.00320000 -0.00018117 0.00842385
v 0.00320000 -0.00265000 0.00835000
v 0.00320000 -0.00265812 0.00835000
v 0.00320673 -0.00265000 0.00835000
v 0.00320673 0.00265000 0.00835000
v 0.00320000 0.00265000 0.00835000
v 0.00321216 0.00264341 0.00853677
v 0.00320000 0.00261386 0.00878618
v 0.00322695 0.00262532 0.00870732
v 0.00322821 0.00262378 0.00872184
v 0.00334691 0.00247059 0.00930848
v 0.00332125 0.00250464 0.00920984
v 0.00320000 0.00250642 0.00921045
v 0.00329778 0.00253580 0.00911957
v 0.00329071 0.00254496 0.00908870
v 0.00325452 0.00259108 0.00890570
v 0.00323738 0.00261239 0.00878591
v 0.00340420 0.00239102 0.00949259
v 0.00320000 0.00233060 0.00961126
v 0.00344646 0.00232907 0.00961045
v 0.00320000 0.00209122 0.00997766
v 0.00359619 0.00209084 0.00997734
v 0.00359124 0.00209967 0.00996675
v 0.00355387 0.00216116 0.00988004
v 0.00351789 0.00222038 0.00979652
v 0.00346837 0.00229696 0.00967154
v 0.00366538 0.00196739 0.01012536
v 0.00320000 0.00179480 0.01029967
v 0.00373889 0.00182381 0.01027255
v 0.00387978 0.00150096 0.01053394
v 0.00381557 0.00165734 0.01041771
v 0.00320000 0.00144941 0.01056849
v 0.00381504 0.00165863 0.01041675
v 0.00375268 0.00179391 0.01029866
v 0.00320000 0.00106449 0.01077680
v 0.00402066 0.00106379 0.01077521
v 0.00400501 0.00112216 0.01074923
v 0.00399339 0.00116553 0.01072993
v 0.00393945 0.00133652 0.01063828
v 0.00389879 0.00144858 0.01056718
v 0.00404095 0.00098809 0.01080890
v 0.00320000 0.00065054 0.01091891
v 0.00408032 0.00081032 0.01087307
v 0.00412034 0.00056633 0.01093725
v 0.00413672 0.00043945 0.01096331
v 0.00320000 0.00021884 0.01099095
v 0.00411265 0.00062590 0.01092502
v 0.00410836 0.00065032 0.01091814
v 0.00415955 0.00006127 0.01099929
v 0.00415363 0.00021878 0.01098998
v 0.00415241 0.00025118 0.01098807
v 0.00410992 -0.00064356 0.01092067
v 0.00412021 -0.00056631 0.01093705
v 0.00320000 -0.00065054 0.01091891
v 0.00415161 -0.00026401 0.01098682
v 0.00415344 -0.00021875 0.01098968
v 0.00320000 -0.00021884 0.01099095
v 0.00415940 -0.00007048 0.01099906
v 0.00415948 0.00000000 0.01099919
v 0.00413504 -0.00045501 0.01096065
v 0.00403499 -0.00101214 0.01079910
v 0.00407750 -0.00082438 0.01086851
v 0.00410868 -0.00065047 0.01091867
v 0.00402077 -0.00106385 0.01077540
v 0.00320000 -0.00106449 0.01077680
v 0.00400475 -0.00112208 0.01074873
v 0.00320000 -0.00144941 0.01056849
v 0.00398503 -0.00119378 0.01071588
v 0.00388267 -0.00149349 0.01053906
v 0.00389901 -0.00144890 0.01056769
v 0.00392822 -0.00136920 0.01061887
v 0.00374224 -0.00181693 0.01027906
v 0.00375273 -0.00179413 0.01029891
v 0.00320000 -0.00179480 0.01029967
v 0.00381418 -0.00166061 0.01041516
v 0.00381553 -0.00165732 0.01041760
v 0.00320000 -0.00233060 0.00961126
v 0.00344631 -0.00232948 0.00961068
v 0.00346060 -0.00230865 0.00965102
v 0.00320000 -0.00209122 0.00997766
v 0.00352640 -0.00220683 0.00981711
v 0.00355394 -0.00216120 0.00988049
v 0.00359596 -0.00209157 0.00997722
v 0.00359616 -0.00209121 0.00997765
v 0.00366819 -0.00196214 0.01013116
v 0.00330303 -0.00252895 0.00914178
v 0.00332093 -0.00250517 0.00921002
v 0.00320000 -0.00250642 0.00921045
v 0.00334498 -0.00247320 0.00930172
v 0.00339973 -0.00239738 0.00947919
v 0.00322694 -0.00262531 0.00869930
v 0.00323627 -0.00261384 0.00878617
v 0.00320000 -0.00261386 0.00878618
v 0.00323632 -0.00261378 0.00878665
v 0.00326519 -0.00257763 0.00896509
v 0.00320000 -0.00265000 0.00835000
v 0.00320673 -0.00265000 0.00835000
v 0.00320760 -0.00264895 0.00842469
v 0.00321697 -0.00263756 0.00860651
v 0.00320000 0.00265000 0.00835000
v 0.00320673 0.00265000 0.00835000
v 0.00320000 0.00265812 0.00835000
v -0.00320000 0.00265000 0.00835000
v -0.00320000 0.00265812 0.00835000
v -0.00320673 0.00265000 0.00835000
v -0.00320673 -0.00265000 0.00835000
v -0.00320000 -0.00265000 0.00835000
v -0.00321216 -0.00264341 0.00853677
v -0.00320000 -0.00261386 0.00878618
v -0.00322695 -0.00262532 0.00870732
v -0.00322821 -0.00262378 0.00872184
v -0.00334691 -0.00247059 0.00930848
v -0.00332125 -0.00250464 0.00920984
v -0.00320000 -0.00250642 0.00921045
v -0.00329778 -0.00253580 0.00911957
v -0.00329071 -0.00254496 0.00908870
v -0.00325452 -0.00259108 0.00890570
v -0.00323738 -0.00261239 0.00878591
v -0.00340420 -0.00239102 0.00949259
v -0.00320000 -0.00233060 0.00961126
v -0.00344646 -0.00232907 0.00961045
v -0.00320000 -0.00209122 0.00997766
v -0.00359619 -0.00209084 0.00997734
v -0.00359124 -0.00209967 0.00996675
v -0.00355387 -0.00216116 0.00988004
v -0.00351789 -0.00222038 0.00979652
v -0.00346837 -0.00229696 0.00967154
v -0.00366538 -0.00196739 0.01012536
v -0.00320000 -0.00179480 0.01029967
v -0.00373889 -0.00182381 0.01027255
v -0.00387978 -0.00150096 0.01053394
v -0.00381557 -0.00165734 0.01041771
v -0.00320000 -0.00144941 0.01056849
v -0.00381504 -0.00165863 0.01041675
v -0.00375268 -0.00179391 0.01029866
v -0.00400501 -0.00112216 0.01074923
v -0.00399339 -0.00116553 0.01072993
v -0.00320000 -0.00106449 0.01077680
v -0.00393945 -0.00133652 0.01063828
v -0.00389879 -0.00144858 0.01056718
v -0.00320000 -0.00065054 0.01091891
v -0.00404095 -0.00098809 0.01080890
v -0.00402066 -0.00106379 0.01077521
v -0.00415240 -0.00025131 0.01098806
v -0.00413669 -0.00043974 0.01096326
v -0.00320000 -0.00021884 0.01099095
v -0.00411261 -0.00062614 0.01092497
v -0.00410837 -0.00065032 0.01091815
v -0.00408032 -0.00081032 0.01087307
v -0.00412034 -0.00056633 0.01093725
v -0.00415549 0.00019373 0.01099291
v -0.00416000 0.00000000 0.01100000
v -0.00320000 0.00021884 0.01099095
v -0.00415955 -0.00006104 0.01099930
v -0.00415363 -0.00021878 0.01098998
v -0.00412017 0.00057429 0.01093702
v -0.00412108 0.00056643 0.01093847
v -0.00320000 0.00065054 0.01091891
v -0.00414213 0.00038512 0.01097187
v -0.00415374 0.00021875 0.01099016
v -0.00408441 0.00078941 0.01087969
v -0.00404339 0.00097805 0.01081291
v -0.00320000 0.00106449 0.01077680
v -0.00408975 0.00076128 0.01088830
v -0.00410783 0.00065011 0.01091727
v -0.00393924 0.00133717 0.01063790
v -0.00399481 0.00116066 0.01073230
v -0.00320000 0.00144941 0.01056849
v -0.00400505 0.00112217 0.01074929
v -0.00402059 0.00106374 0.01077509
v -0.00381690 0.00165435 0.01042017
v -0.00388519 0.00148692 0.01054353
v -0.00389894 0.00144881 0.01056754
v -0.00355396 0.00216121 0.00988066
v -0.00359621 0.00209091 0.00997744
v -0.00320000 0.00209122 0.00997766
v -0.00360006 0.00208450 0.00998626
v -0.00320000 0.00179480 0.01029967
v -0.00367110 0.00195669 0.01013714
v -0.00374509 0.00181105 0.01028458
v -0.00375277 0.00179429 0.01029908
v -0.00381554 0.00165732 0.01041760
v -0.00340293 0.00239284 0.00948879
v -0.00344637 0.00232931 0.00961058
v -0.00320000 0.00233060 0.00961126
v -0.00346418 0.00230327 0.00966051
v -0.00353028 0.00220062 0.00982641
v -0.00322694 0.00262531 0.00869944
v -0.00323658 0.00261344 0.00878612
v -0.00320000 0.00261386 0.00878618
v -0.00323803 0.00261165 0.00879918
v -0.00320000 0.00250642 0.00921045
v -0.00326754 0.00257465 0.00897745
v -0.00330597 0.00252511 0.00915393
v -0.00332085 0.00250528 0.00921005
v -0.00334773 0.00246947 0.00931135
v -0.00320000 0.00265000 0.00835000
v -0.00320673 0.00265000 0.00835000
v -0.00320792 0.00264855 0.00843750
v -0.00321801 0.00263629 0.00861919
v -0.00320000 -0.00265000 0.00835000
v -0.00320673 -0.00265000 0.00835000
v -0.00320000 -0.00265812 0.00835000
v 0.00410297 0.00068648 0.00923691
v 0.00410497 0.00067424 0.00928064
v 0.00320000 0.00067615 0.00928117
v 0.00410901 0.00064933 0.00936149
v 0.00411565 0.00060572 0.00944975
v 0.00320000 0.00060622 0.00945000
v 0.00416000 0.00000000 0.00840000
v 0.00320000 0.00000000 0.00840000
v 0.00415864 -0.00010631 0.00840812
v 0.00320000 -0.00018117 0.00842385
v 0.00415581 -0.00018081 0.00842543
v 0.00415471 -0.00020967 0.00843214
v 0.00413894 -0.00041804 0.00853853
v 0.00414514 -0.00034922 0.00849502
v 0.00320000 -0.00035000 0.00849378
v 0.00414705 -0.00032796 0.00848158
v 0.00415364 -0.00022987 0.00843882
v 0.00320000 -0.00049498 0.00860503
v 0.00320000 -0.00060622 0.00875000
v 0.00411574 -0.00060477 0.00875077
v 0.00411783 -0.00059081 0.00872457
v 0.00411950 -0.00057907 0.00870671
v 0.00412117 -0.00056644 0.00869086
v 0.00412830 -0.00051261 0.00862332
v 0.00413043 -0.00049397 0.00860612
v 0.00413732 -0.00043379 0.00855061
v 0.00410371 -0.00068203 0.00894242
v 0.00320000 -0.00067615 0.00891883
v 0.00410102 -0.00069805 0.00904775
v 0.00320000 -0.00070000 0.00910000
v 0.00410102 -0.00069799 0.00910000
v 0.00410468 -0.00067618 0.00891894
v 0.00410469 -0.00067614 0.00891883
v 0.00411031 -0.00064103 0.00881878
v 0.00410469 -0.00067613 0.00928123
v 0.00410468 -0.00067614 0.00928117
v 0.00320000 -0.00067615 0.00928117
v 0.00410139 -0.00069582 0.00917637
v 0.00410104 -0.00069794 0.00915372
v 0.00411033 -0.00064092 0.00938147
v 0.00320000 -0.00060622 0.00945000
v 0.00411159 -0.00063278 0.00939932
v 0.00412985 -0.00049993 0.00958997
v 0.00412821 -0.00051332 0.00957592
v 0.00320000 -0.00049498 0.00959498
v 0.00412117 -0.00056644 0.00950905
v 0.00411941 -0.00057968 0.00949239
v 0.00411577 -0.00060444 0.00944899
v 0.00320000 -0.00035000 0.00970622
v 0.00413881 -0.00041934 0.00966050
v 0.00413044 -0.00049464 0.00959460
v 0.00415468 -0.00021038 0.00976764
v 0.00414848 -0.00030935 0.00972794
v 0.00320000 -0.00018117 0.00977615
v 0.00414693 -0.00032946 0.00971762
v 0.00414514 -0.00034925 0.00970504
v 0.00415917 -0.00008314 0.00979504
v 0.00415862 -0.00010711 0.00979176
v 0.00415581 -0.00018080 0.00977455
v 0.00415730 0.00014994 0.00978375
v 0.00415801 0.00012873 0.00978806
v 0.00320000 0.00018117 0.00977615
v 0.00415993 0.00002334 0.00979961
v 0.00320000 0.00000000 0.00980000
v 0.00415977 0.00000006 0.00979861
v 0.00415977 0.00000000 0.00979861
v 0.00320000 0.00035000 0.00970622
v 0.00415235 0.00025225 0.00975297
v 0.00415581 0.00018068 0.00977450
v 0.00414397 0.00036481 0.00969742
v 0.00414525 0.00034999 0.00970620
v 0.00414539 0.00034831 0.00970719
v 0.00412469 0.00054085 0.00954439
v 0.00320000 0.00049498 0.00959498
v 0.00412114 0.00056644 0.00950788
v 0.00411618 0.00060223 0.00945682
v 0.00412638 0.00052782 0.00955979
v 0.00413044 0.00049356 0.00959354
v 0.00413539 0.00045178 0.00963469
v 0.00410767 0.00065775 0.00933951
v 0.00410081 0.00069928 0.00913172
v 0.00320000 0.00070000 0.00910000
v 0.00410069 0.00069995 0.00910795
v 0.00410566 0.00067021 0.00889798
v 0.00410488 0.00067487 0.00891911
v 0.00320000 0.00067615 0.00891883
v 0.00410186 0.00069305 0.00900158
v 0.00410078 0.00069944 0.00910004
v 0.00410667 0.00066398 0.00887834
v 0.00320000 0.00060622 0.00875000
v 0.00411317 0.00062244 0.00877974
v 0.00412278 0.00055526 0.00867376
v 0.00412125 0.00056645 0.00868875
v 0.00320000 0.00049498 0.00860503
v 0.00412123 0.00056662 0.00868897
v 0.00411573 0.00060472 0.00875092
v 0.00320000 0.00035000 0.00849378
v 0.00414508 0.00034908 0.00849544
v 0.00414228 0.00038353 0.00851442
v 0.00414061 0.00040114 0.00852634
v 0.00413179 0.00048364 0.00859394
v 0.00413046 0.00049420 0.00860572
v 0.00414988 0.00029001 0.00846290
v 0.00320000 0.00018117 0.00842385
v 0.00415565 0.00019031 0.00842637
v 0.00415953 0.00006220 0.00840277
v 0.00415665 0.00016697 0.00842020
v 0.00415604 0.00018115 0.00842395
v -0.00410297 -0.00068648 0.00923691
v -0.00410497 -0.00067424 0.00928064
v -0.00320000 -0.00067615 0.00928117
v -0.00410901 -0.00064933 0.00936149
v -0.00411565 -0.00060572 0.00944975
v -0.00320000 -0.00060622 0.00945000
v -0.00416000 0.00000000 0.00840000
v -0.00320000 0.00000000 0.00840000
v -0.00415864 0.00010631 0.00840812
v -0.00320000 0.00018117 0.00842385
v -0.00415581 0.00018081 0.00842543
v -0.00415471 0.00020967 0.00843214
v -0.00413894 0.00041804 0.00853853
v -0.00414514 0.00034922 0.00849502
v -0.00320000 0.00035000 0.00849378
v -0.00414705 0.00032796 0.00848158
v -0.00415364 0.00022987 0.00843882
v -0.00320000 0.00049498 0.00860503
v -0.00320000 0.00060622 0.00875000
v -0.00411574 0.00060477 0.00875077
v -0.00411783 0.00059081 0.00872457
v -0.00411950 0.00057907 0.00870671
v -0.00412117 0.00056644 0.00869086
v -0.00412830 0.00051261 0.00862332
v -0.00413043 0.00049397 0.00860612
v -0.00413732 0.00043379 0.00855061
v -0.00410371 0.00068203 0.00894242
v -0.00320000 0.00067615 0.00891883
v -0.00410102 0.00069805 0.00904775
v -0.00320000 0.00070000 0.00910000
v -0.00410102 0.00069799 0.00910000
v -0.00410468 0.00067618 0.00891894
v -0.00410469 0.00067614 0.00891883
v -0.00411031 0.00064103 0.00881878
v -0.00410469 0.00067613 0.00928123
v -0.00410468 0.00067614 0.00928117
v -0.00320000 0.00067615 0.00928117
v -0.00410139 0.00069582 0.00917637
v -0.00410104 0.00069794 0.00915372
v -0.00411033 0.00064092 0.00938147
v -0.00320000 0.00060622 0.00945000
v -0.00411159 0.00063278 0.00939932
v -0.00412985 0.00049993 0.00958997
v -0.00412821 0.00051332 0.00957592
v -0.00320000 0.00049498 0.00959498
v -0.00412117 0.00056644 0.00950905
v -0.00411941 0.00057968 0.00949239
v -0.00411577 0.00060444 0.00944899
v -0.00320000 0.00035000 0.00970622
v -0.00413881 0.00041934 0.00966050
v -0.00413044 0.00049464 0.00959460
v -0.00415468 0.00021038 0.00976764
v -0.00414848 0.00030935 0.00972794
v -0.00320000 0.00018117 0.00977615
v -0.00414693 0.00032946 0.00971762
v -0.00414514 0.00034925 0.00970504
v -0.00415917 0.00008314 0.00979504
v -0.00415862 0.00010711 0.00979176
v -0.00415581 0.00018080 0.00977455
v -0.00415730 -0.00014994 0.00978375
v -0.00415801 -0.00012873 0.00978806
v -0.00320000 -0.00018117 0.00977615
v -0.00415993 -0.00002334 0.00979961
v -0.00320000 0.00000000 0.00980000
v -0.00415977 -0.00000006 0.00979861
v -0.00415977 -0.00000000 0.00979861
v -0.00320000 -0.00035000 0.00970622
v -0.00415235 -0.00025225 0.00975297
v -0.00415581 -0.00018068 0.00977450
v -0.00414397 -0.00036481 0.00969742
v -0.00414525 -0.00034999 0.00970620
v -0.00414539 -0.00034831 0.00970719
v -0.00412469 -0.00054085 0.00954439
v -0.00320000 -0.00049498 0.00959498
v -0.00412114 -0.00056644 0.00950788
v -0.00411618 -0.00060223 0.00945682
v -0.00412638 -0.00052782 0.00955979
v -0.00413044 -0.00049356 0.00959354
v -0.00413539 -0.00045178 0.00963469
v -0.00410767 -0.00065775 0.00933951
v -0.00410081 -0.00069928 0.00913172
v -0.00320000 -0.00070000 0.00910000
v -0.00410069 -0.00069995 0.00910795
v -0.00410566 -0.00067021 0.00889798
v -0.00410488 -0.00067487 0.00891911
v -0.00320000 -0.00067615 0.00891883
v -0.00410186 -0.00069305 0.00900158
v -0.00410078 -0.00069944 0.00910004
v -0.00410667 -0.00066398 0.00887834
v -0.00320000 -0.00060622 0.00875000
v -0.00411317 -0.00062244 0.00877974
v -0.00412278 -0.00055526 0.00867376
v -0.00412125 -0.00056645 0.00868875
v -0.00320000 -0.00049498 0.00860503
v -0.00412123 -0.00056662 0.00868897
v -0.00411573 -0.00060472 0.00875092
v -0.00320000 -0.00035000 0.00849378
v -0.00414508 -0.00034908 0.00849544
v -0.00414228 -0.00038353 0.00851442
v -0.00414061 -0.00040114 0.00852634
v -0.00413179 -0.00048364 0.00859394
v -0.00413046 -0.00049420 0.00860572
v -0.00414988 -0.00029001 0.00846290
v -0.00320000 -0.00018117 0.00842385
v -0.00415565 -0.00019031 0.00842637
v -0.00415953 -0.00006220 0.00840277
v -0.00415665 -0.00016697 0.00842020
v -0.00415604 -0.00018115 0.00842395
f 1 2 3
f 4 5 2
f 2 5 6
f 2 6 3
f 3 7 1
f 1 7 8
f 1 8 9
f 9 8 10
f 9 10 11
f 11 10 12
f 11 12 13
f 13 12 14
f 13 14 15
f 15 14 16
f 15 16 17
f 17 16 18
f 17 18 19
f 19 18 20
f 19 20 21
f 21 20 22
f 21 22 23
f 23 22 24
f 23 24 25
f 25 24 26
f 25 26 27
f 27 26 28
f 27 28 29
f 30 31 32
f 32 31 33
f 30 34 35
f 30 35 31
f 31 35 36
f 31 36 33
f 37 38 39
f 39 38 40
f 38 41 40
f 40 41 42
f 40 42 43
f 36 40 44
f 44 40 43
f 44 43 45
f 29 28 35
f 35 28 46
f 35 46 36
f 36 46 47
f 36 47 40
f 48 49 50
f 51 52 53
f 54 39 55
f 55 39 40
f 55 40 56
f 56 40 47
f 56 47 50
f 50 47 51
f 50 51 48
f 48 51 53
f 57 58 59
f 59 58 60
f 59 60 61
f 61 62 59
f 59 62 63
f 59 63 51
f 51 63 64
f 51 64 52
f 65 66 59
f 59 66 67
f 59 67 68
f 68 69 59
f 59 69 70
f 59 70 71
f 71 72 59
f 59 72 73
f 59 73 57
f 57 73 74
f 57 74 75
f 75 76 57
f 57 76 77
f 57 77 78
f 78 79 57
f 57 79 80
f 57 80 81
f 82 83 84
f 84 83 85
f 81 86 57
f 57 86 87
f 57 87 88
f 88 87 84
f 88 84 89
f 89 84 85
f 90 91 84
f 84 91 92
f 84 92 82
f 90 93 91
f 91 93 94
f 91 94 95
f 95 96 91
f 91 96 97
f 91 97 98
f 98 99 91
f 91 99 100
f 91 100 101
f 101 100 102
f 101 102 103
f 103 102 104
f 103 104 105
f 105 104 106
f 104 107 106
f 106 107 108
f 106 108 109
f 109 108 110
f 109 110 111
f 111 110 112
f 111 112 113
f 113 112 114
f 115 116 117
f 117 116 114
f 117 114 118
f 118 114 112
f 115 119 116
f 116 119 120
f 116 120 121
f 121 122 116
f 116 122 123
f 116 123 124
f 125 126 127
f 127 126 128
f 127 128 129
f 124 130 116
f 116 130 127
f 116 127 131
f 131 127 129
f 132 133 134
f 132 134 135
f 125 127 134
f 134 127 136
f 134 136 135
f 133 137 134
f 134 137 138
f 134 138 139
f 140 141 142
f 142 141 143
f 142 143 144
f 144 145 142
f 142 145 146
f 142 146 147
f 142 148 149
f 139 140 134
f 134 140 142
f 134 142 150
f 150 142 149
f 151 152 153
f 153 152 154
f 153 154 155
f 156 157 158
f 158 157 155
f 158 155 159
f 159 155 154
f 148 142 160
f 160 142 155
f 160 155 161
f 161 155 157
f 161 157 162
f 163 164 165
f 165 164 153
f 165 153 166
f 167 151 168
f 168 151 153
f 168 153 169
f 169 153 164
f 169 164 170
f 171 172 173
f 174 175 172
f 172 175 176
f 172 176 173
f 175 177 176
f 176 177 178
f 176 178 173
f 173 178 179
f 173 179 153
f 153 179 180
f 153 180 166
f 181 182 183
f 183 182 184
f 183 184 185
f 185 184 186
f 185 186 187
f 187 186 188
f 187 188 189
f 189 188 190
f 189 190 191
f 191 190 192
f 191 192 193
f 193 192 194
f 193 194 195
f 195 194 196
f 195 196 197
f 197 196 198
f 197 198 199
f 199 198 200
f 199 200 201
f 201 200 171
f 201 171 202
f 202 171 173
f 203 204 205
f 205 204 206
f 207 208 209
f 210 209 181
f 181 209 211
f 181 211 182
f 212 213 214
f 214 213 215
f 214 215 216
f 213 217 218
f 219 220 221
f 213 218 215
f 215 218 222
f 215 222 223
f 206 207 205
f 205 207 209
f 205 209 203
f 203 209 210
f 203 210 221
f 221 210 215
f 221 215 219
f 219 215 223
f 224 225 226
f 226 225 227
f 216 215 228
f 228 215 226
f 228 226 229
f 229 226 227
f 229 227 230
f 231 232 233
f 233 232 234
f 231 235 232
f 232 235 236
f 232 236 226
f 226 236 237
f 226 237 224
f 238 239 232
f 232 239 240
f 232 240 241
f 241 242 232
f 232 242 243
f 232 243 244
f 244 245 232
f 232 245 246
f 232 246 234
f 234 246 247
f 234 247 248
f 248 249 234
f 234 249 250
f 234 250 251
f 251 252 234
f 234 252 253
f 234 253 254
f 255 256 257
f 257 256 258
f 257 258 259
f 254 260 234
f 234 260 261
f 234 261 262
f 262 261 257
f 262 257 263
f 263 257 259
f 257 264 255
f 255 264 265
f 255 265 266
f 266 267 255
f 255 267 268
f 255 268 269
f 269 270 255
f 255 270 271
f 255 271 272
f 272 271 273
f 272 273 274
f 274 273 275
f 274 275 276
f 276 275 277
f 276 277 278
f 278 277 279
f 278 279 280
f 280 279 281
f 280 281 282
f 282 281 283
f 282 283 284
f 284 283 285
f 284 285 286
f 286 285 287
f 288 289 290
f 290 289 287
f 290 287 291
f 291 287 285
f 288 292 289
f 289 292 293
f 289 293 294
f 294 295 289
f 289 295 296
f 289 296 297
f 298 299 300
f 300 299 301
f 300 301 302
f 297 303 289
f 289 303 300
f 289 300 304
f 304 300 302
f 305 306 307
f 305 307 308
f 298 300 307
f 307 300 309
f 307 309 308
f 306 310 307
f 307 310 311
f 307 311 312
f 313 314 315
f 315 314 316
f 315 316 317
f 317 318 315
f 315 318 319
f 315 319 320
f 315 321 322
f 312 313 307
f 307 313 315
f 307 315 323
f 323 315 322
f 324 325 326
f 326 325 327
f 326 327 328
f 329 330 331
f 331 330 328
f 331 328 332
f 332 328 327
f 321 315 333
f 333 315 328
f 333 328 334
f 334 328 330
f 334 330 335
f 336 326 337
f 337 326 3
f 337 3 338
f 338 3 6
f 338 6 339
f 339 6 5
f 340 341 342
f 342 341 326
f 342 326 343
f 343 326 336
f 344 324 345
f 345 324 326
f 345 326 346
f 346 326 341
f 346 341 347
f 348 349 350
f 348 350 351
f 320 352 315
f 315 352 353
f 315 353 350
f 350 353 354
f 350 354 351
f 349 355 350
f 350 355 356
f 350 356 357
f 357 358 350
f 350 358 359
f 350 359 360
f 360 361 350
f 350 361 362
f 350 362 363
f 363 362 364
f 363 364 238
f 238 364 365
f 366 367 238
f 365 368 238
f 238 368 369
f 238 369 366
f 367 370 238
f 238 370 371
f 238 371 372
f 372 373 238
f 238 373 374
f 238 374 239
f 375 376 377
f 375 377 378
f 147 379 142
f 142 379 380
f 142 380 377
f 377 380 381
f 377 381 378
f 376 382 377
f 377 382 383
f 377 383 384
f 384 385 377
f 377 385 386
f 377 386 387
f 387 388 377
f 377 388 389
f 377 389 390
f 390 389 391
f 390 391 65
f 65 391 392
f 393 394 65
f 392 395 65
f 65 395 396
f 65 396 393
f 394 397 65
f 65 397 398
f 65 398 399
f 399 400 65
f 65 400 401
f 65 401 66
f 402 403 404
f 405 406 407
f 408 404 409
f 410 411 412
f 410 412 413
f 413 412 414
f 413 414 405
f 405 407 413
f 413 407 415
f 413 415 416
f 417 408 418
f 418 408 412
f 402 419 420
f 421 412 422
f 422 412 408
f 422 408 423
f 423 408 409
f 407 424 415
f 415 424 425
f 415 425 426
f 427 418 428
f 428 418 412
f 428 412 429
f 429 412 411
f 429 411 430
f 404 408 402
f 402 408 431
f 402 431 432
f 433 434 435
f 420 436 402
f 402 436 435
f 402 435 437
f 438 439 440
f 440 439 415
f 440 415 441
f 441 415 426
f 442 419 443
f 443 419 402
f 443 402 444
f 444 402 432
f 445 433 446
f 446 433 435
f 446 435 447
f 447 435 436
f 448 449 450
f 450 449 451
f 450 451 452
f 453 450 454
f 454 450 452
f 454 452 455
f 456 457 458
f 458 457 450
f 458 450 459
f 459 450 460
f 459 460 461
f 449 462 451
f 451 462 463
f 451 463 464
f 465 466 467
f 467 466 451
f 467 451 468
f 468 451 464
f 468 464 469
f 469 464 470
f 469 470 471
f 471 470 472
f 473 460 474
f 474 460 450
f 474 450 475
f 475 450 453
f 476 477 478
f 479 480 481
f 481 480 482
f 483 484 485
f 486 487 488
f 485 489 483
f 483 489 490
f 483 490 491
f 492 493 481
f 481 493 494
f 481 494 495
f 495 494 496
f 488 487 497
f 497 487 498
f 497 498 499
f 499 498 500
f 499 500 501
f 501 500 502
f 501 502 503
f 503 502 504
f 503 504 505
f 488 506 486
f 486 506 507
f 486 507 508
f 508 507 509
f 508 509 496
f 496 509 510
f 496 510 495
f 482 511 481
f 481 511 512
f 481 512 492
f 483 513 484
f 484 513 514
f 484 514 515
f 516 517 482
f 482 517 518
f 482 518 511
f 505 504 478
f 478 504 484
f 478 484 476
f 476 484 515
f 476 515 519
f 491 520 483
f 483 520 521
f 483 521 522
f 523 483 482
f 482 483 522
f 482 522 516
f 524 525 526
f 527 528 526
f 526 528 529
f 524 530 531
f 531 530 532
f 526 533 534
f 535 536 537
f 537 536 538
f 537 538 532
f 532 538 539
f 532 539 531
f 540 541 542
f 542 541 543
f 542 543 544
f 544 543 545
f 544 545 546
f 546 545 547
f 546 547 535
f 535 547 548
f 535 548 536
f 534 549 526
f 526 549 550
f 526 550 524
f 524 550 551
f 524 551 530
f 552 529 553
f 553 529 554
f 553 554 555
f 555 554 556
f 555 556 557
f 556 558 557
f 557 558 559
f 557 559 560
f 560 559 561
f 560 561 562
f 562 561 563
f 562 563 564
f 564 563 565
f 564 565 566
f 566 565 567
f 566 567 540
f 540 567 568
f 540 568 541
f 552 569 529
f 529 569 570
f 529 570 526
f 526 570 571
f 526 571 533
f 572 573 574
f 575 576 577
f 577 576 578
f 577 578 579
f 579 578 580
f 581 582 583
f 583 582 584
f 584 585 583
f 583 585 586
f 583 586 578
f 578 586 587
f 578 587 580
f 581 583 588
f 588 583 589
f 588 589 590
f 591 592 593
f 593 594 591
f 591 594 595
f 591 595 589
f 589 595 596
f 589 596 590
f 592 591 597
f 597 591 598
f 597 598 599
f 600 601 602
f 602 601 603
f 602 603 598
f 598 603 604
f 598 604 599
f 605 606 607
f 607 608 605
f 605 608 609
f 605 609 602
f 602 609 610
f 602 610 600
f 606 605 611
f 611 605 612
f 611 612 613
f 614 612 615
f 615 612 616
f 614 617 612
f 612 617 618
f 612 618 613
f 619 620 616
f 616 620 621
f 616 621 615
f 622 623 624
f 625 626 627
f 627 626 628
f 627 628 616
f 616 628 629
f 616 629 619
f 624 623 627
f 627 623 630
f 627 630 625
f 631 632 624
f 624 632 633
f 624 633 622
f 631 624 634
f 634 624 635
f 634 635 636
f 636 635 637
f 636 637 638
f 639 640 637
f 637 640 641
f 637 641 638
f 642 643 644
f 644 643 645
f 644 645 637
f 637 645 646
f 637 646 639
f 647 648 649
f 647 649 650
f 650 649 651
f 650 651 652
f 652 653 650
f 650 653 654
f 650 654 644
f 644 654 655
f 644 655 642
f 656 657 658
f 658 657 659
f 658 659 647
f 647 659 660
f 647 660 648
f 661 662 663
f 663 662 664
f 663 664 658
f 658 664 665
f 658 665 656
f 666 667 668
f 666 668 663
f 663 668 669
f 663 669 661
f 670 671 672
f 673 674 675
f 676 677 678
f 678 677 679
f 678 679 680
f 680 679 681
f 682 683 684
f 684 683 685
f 685 686 684
f 684 686 687
f 684 687 679
f 679 687 688
f 679 688 681
f 682 684 689
f 689 684 690
f 689 690 691
f 692 693 694
f 694 695 692
f 692 695 696
f 692 696 690
f 690 696 697
f 690 697 691
f 693 692 698
f 698 692 699
f 698 699 700
f 701 702 703
f 703 702 704
f 703 704 699
f 699 704 705
f 699 705 700
f 706 707 708
f 708 707 709
f 708 709 703
f 703 709 710
f 703 710 701
f 711 712 708
f 708 712 713
f 708 713 706
f 714 715 716
f 717 718 711
f 711 718 719
f 711 719 712
f 716 715 711
f 711 715 720
f 711 720 717
f 721 722 723
f 723 722 724
f 723 724 716
f 716 724 725
f 716 725 714
f 726 727 728
f 728 727 729
f 728 729 723
f 723 729 730
f 723 730 721
f 731 728 732
f 732 728 733
f 731 734 728
f 728 734 735
f 728 735 726
f 736 737 738
f 738 737 739
f 738 739 733
f 733 739 740
f 733 740 732
f 741 742 738
f 738 742 743
f 738 743 736
f 744 745 746
f 746 745 747
f 746 747 748
f 748 747 749
f 749 750 748
f 748 750 751
f 748 751 738
f 738 751 752
f 738 752 741
f 753 754 755
f 755 754 756
f 755 756 746
f 746 756 757
f 746 757 744
f 758 759 760
f 760 759 761
f 760 761 762
f 762 761 763
f 763 764 762
f 762 764 765
f 762 765 755
f 755 765 766
f 755 766 753
f 767 768 769
f 767 769 760
f 760 769 770
f 760 770 758
f 771 772 773
f 774 775 776
f 777 778 779
f 780 781 782
f 782 781 783
f 782 783 784
f 784 783 785
f 786 787 788
f 788 787 789
f 788 789 783
f 783 789 790
f 783 790 785
f 791 792 793
f 793 794 791
f 791 794 795
f 791 795 796
f 796 797 791
f 791 797 798
f 791 798 788
f 788 798 799
f 788 799 786
f 800 801 802
f 802 801 803
f 802 803 804
f 800 805 801
f 801 805 806
f 801 806 792
f 792 806 807
f 792 807 793
f 808 809 810
f 810 809 811
f 810 811 803
f 803 811 812
f 803 812 804
f 808 810 813
f 813 810 814
f 813 814 815
f 816 817 818
f 817 819 818
f 818 819 820
f 818 820 814
f 814 820 821
f 814 821 815
f 822 823 818
f 818 823 824
f 818 824 816
f 825 826 827
f 827 826 828
f 827 828 822
f 822 828 829
f 822 829 823
f 830 831 827
f 827 831 832
f 827 832 825
f 833 834 835
f 835 834 836
f 835 836 837
f 837 836 838
f 837 838 827
f 827 838 839
f 827 839 830
f 840 841 835
f 835 841 842
f 835 842 833
f 843 844 840
f 840 844 845
f 840 845 841
f 846 847 848
f 848 847 779
f 848 779 849
f 849 779 778
f 846 850 847
f 847 850 851
f 847 851 840
f 840 851 852
f 840 852 843
f 776 775 779
f 779 775 853
f 779 853 777
f 774 776 854
f 854 776 855
f 854 855 856
f 857 858 859
f 859 858 860
f 859 860 855
f 855 860 861
f 855 861 856
f 857 859 862
f 862 859 863
f 862 863 864
f 865 866 867
f 867 866 868
f 867 868 863
f 863 868 869
f 863 869 864
f 870 871 872
f 872 873 870
f 870 873 874
f 870 874 867
f 867 874 875
f 867 875 865
f 871 870 876
f 876 870 877
f 876 877 878
f 780 879 781
f 781 879 880
f 781 880 877
f 877 880 881
f 877 881 878
f 882 883 884
f 885 886 887
f 888 889 890
f 890 889 891
f 890 891 892
f 892 891 893
f 894 895 896
f 896 895 897
f 896 897 891
f 891 897 898
f 891 898 893
f 899 900 901
f 901 902 899
f 899 902 903
f 899 903 904
f 904 905 899
f 899 905 906
f 899 906 896
f 896 906 907
f 896 907 894
f 908 909 910
f 910 909 911
f 910 911 912
f 908 913 909
f 909 913 914
f 909 914 900
f 900 914 915
f 900 915 901
f 916 917 918
f 918 917 919
f 918 919 911
f 911 919 920
f 911 920 912
f 916 918 921
f 921 918 922
f 921 922 923
f 924 925 926
f 925 927 926
f 926 927 928
f 926 928 922
f 922 928 929
f 922 929 923
f 930 931 926
f 926 931 932
f 926 932 924
f 933 934 935
f 935 934 936
f 935 936 930
f 930 936 937
f 930 937 931
f 938 939 935
f 935 939 940
f 935 940 933
f 941 942 943
f 943 942 944
f 943 944 945
f 945 944 946
f 945 946 935
f 935 946 947
f 935 947 938
f 948 949 943
f 943 949 950
f 943 950 941
f 951 952 948
f 948 952 953
f 948 953 949
f 954 955 956
f 956 955 887
f 956 887 957
f 957 887 886
f 954 958 955
f 955 958 959
f 955 959 948
f 948 959 960
f 948 960 951
f 884 883 887
f 887 883 961
f 887 961 885
f 882 884 962
f 962 884 963
f 962 963 964
f 965 966 967
f 967 966 968
f 967 968 963
f 963 968 969
f 963 969 964
f 965 967 970
f 970 967 971
f 970 971 972
f 973 974 975
f 975 974 976
f 975 976 971
f 971 976 977
f 971 977 972
f 978 979 980
f 980 981 978
f 978 981 982
f 978 982 975
f 975 982 983
f 975 983 973
f 979 978 984
f 984 978 985
f 984 985 986
f 888 987 889
f 889 987 988
f 889 988 985
f 985 988 989
f 985 989 986

