# https://github.com/mikedh/trimesh
mtllib material.mtl

o ActorShape0_0-Mesh
usemtl material_0
v -0.00160714 0.00191496 0.00135000
v -0.00160714 0.00191496 0.00030000
v -0.00176405 0.00177147 0.00135000
v -0.00176405 0.00177147 0.00030000
v -0.00189866 0.00162061 0.00135000
v -0.00189866 0.00162061 0.00030000
v -0.00196025 0.00155159 0.00135000
v -0.00196025 0.00155159 0.00030000
v -0.00212921 0.00131015 0.00135000
v -0.00212921 0.00131015 0.00030000
v -0.00214221 0.00128593 0.00135000
v -0.00214221 0.00128593 0.00030000
v -0.00226858 0.00105050 0.00135000
v -0.00226858 0.00105050 0.00030000
v -0.00232258 0.00091318 0.00135000
v -0.00232258 0.00091318 0.00030000
v -0.00237643 0.00077626 0.00135000
v -0.00237643 0.00077626 0.00030000
v -0.00244439 0.00051741 0.00135000
v -0.00244439 0.00051741 0.00030000
v -0.00245126 0.00049123 0.00135000
v -0.00245126 0.00049123 0.00030000
v -0.00249204 0.00019938 0.00135000
v -0.00249204 0.00019938 0.00030000
v -0.00249398 0.00010647 0.00135000
v -0.00249398 0.00010647 0.00030000
v -0.00249819 -0.00009525 0.00135000
v -0.00249819 -0.00009525 0.00030000
v -0.00247754 -0.00030727 0.00135000
v -0.00247754 -0.00030727 0.00030000
v -0.00246962 -0.00038855 0.00135000
v -0.00246962 -0.00038855 0.00030000
v -0.00240674 -0.00067645 0.00135000
v -0.00240674 -0.00067645 0.00030000
v -0.00239422 -0.00071267 0.00135000
v -0.00239422 -0.00071267 0.00030000
v -0.00231043 -0.00095495 0.00135000
v -0.00231043 -0.00095495 0.00030000
v -0.00224140 -0.00109752 0.00135000
v -0.00224140 -0.00109752 0.00030000
v -0.00218200 -0.00122019 0.00135000
v -0.00218200 -0.00122019 0.00030000
v -0.00203201 -0.00145479 0.00135000
v -0.00203201 -0.00145479 0.00030000
v -0.00202327 -0.00146847 0.00135000
v -0.00202327 -0.00146847 0.00030000
v -0.00183642 -0.00169634 0.00135000
v -0.00183642 -0.00169634 0.00030000
v -0.00176164 -0.00176828 0.00135000
v -0.00176164 -0.00176828 0.00030000
v -0.00162405 -0.00190065 0.00135000
v -0.00162405 -0.00190065 0.00030000
v -0.00144558 -0.00203579 0.00135000
v -0.00144558 -0.00203579 0.00030000
v -0.00138912 -0.00207855 0.00135000
v -0.00138912 -0.00207855 0.00030000
v -0.00113488 -0.00222757 0.00135000
v -0.00113488 -0.00222757 0.00030000
v -0.00108984 -0.00224726 0.00135000
v -0.00108984 -0.00224726 0.00030000
v -0.00086488 -0.00234563 0.00135000
v -0.00086488 -0.00234563 0.00030000
v -0.00070291 -0.00239472 0.00135000
v -0.00070291 -0.00239472 0.00030000
v -0.00058286 -0.00243111 0.00135000
v -0.00058286 -0.00243111 0.00030000
v -0.00029807 -0.00248185 0.00135000
v -0.00029807 -0.00248185 0.00030000
v -0.00029274 -0.00248280 0.00135000
v -0.00029274 -0.00248280 0.00030000
v 0.00000144 -0.00250000 0.00135000
v 0.00000144 -0.00250000 0.00030000
v 0.00011585 -0.00249318 0.00135000
v 0.00011585 -0.00249318 0.00030000
v 0.00029561 -0.00248246 0.00135000
v 0.00029561 -0.00248246 0.00030000
v 0.00052662 -0.00244102 0.00135000
v 0.00052662 -0.00244102 0.00030000
v 0.00058567 -0.00243043 0.00135000
v 0.00058567 -0.00243043 0.00030000
v 0.00086759 -0.00234463 0.00135000
v 0.00086759 -0.00234463 0.00030000
v 0.00092253 -0.00232053 0.00135000
v 0.00092253 -0.00232053 0.00030000
v 0.00113745 -0.00222625 0.00135000
v 0.00113745 -0.00222625 0.00030000
v 0.00129271 -0.00213501 0.00135000
v 0.00129271 -0.00213501 0.00030000
v 0.00139152 -0.00207694 0.00135000
v 0.00139152 -0.00207694 0.00030000
v 0.00162624 -0.00189877 0.00135000
v 0.00162624 -0.00189877 0.00030000
v 0.00163014 -0.00189502 0.00135000
v 0.00163014 -0.00189502 0.00030000
v 0.00183837 -0.00169422 0.00135000
v 0.00183837 -0.00169422 0.00030000
v 0.00191780 -0.00159712 0.00135000
v 0.00191780 -0.00159712 0.00030000
v 0.00202496 -0.00146613 0.00135000
v 0.00202496 -0.00146613 0.00030000
v 0.00215698 -0.00125911 0.00135000
v 0.00215698 -0.00125911 0.00030000
v 0.00218341 -0.00121766 0.00135000
v 0.00218341 -0.00121766 0.00030000
v 0.00231153 -0.00095228 0.00135000
v 0.00231153 -0.00095228 0.00030000
v 0.00233460 -0.00088532 0.00135000
v 0.00233460 -0.00088532 0.00030000
v 0.00240752 -0.00067367 0.00135000
v 0.00240752 -0.00067367 0.00030000
v 0.00244805 -0.00048710 0.00135000
v 0.00244805 -0.00048710 0.00030000
v 0.00247007 -0.00038569 0.00135000
v 0.00247007 -0.00038569 0.00030000
v 0.00249829 -0.00009236 0.00135000
v 0.00249829 -0.00009236 0.00030000
v 0.00249794 -0.00007613 0.00135000
v 0.00249794 -0.00007613 0.00030000
v 0.00249181 0.00020226 0.00135000
v 0.00249181 0.00020226 0.00030000
v 0.00247279 0.00033721 0.00135000
v 0.00247279 0.00033721 0.00030000
v 0.00245069 0.00049406 0.00135000
v 0.00245069 0.00049406 0.00030000
v 0.00238531 0.00074195 0.00135000
v 0.00238531 0.00074195 0.00030000
v 0.00237553 0.00077900 0.00135000
v 0.00237553 0.00077900 0.00030000
v 0.00226736 0.00105312 0.00135000
v 0.00226736 0.00105312 0.00030000
v 0.00222866 0.00112503 0.00135000
v 0.00222866 0.00112503 0.00030000
v 0.00212769 0.00131261 0.00135000
v 0.00212769 0.00131261 0.00030000
v 0.00201182 0.00147778 0.00135000
v 0.00201182 0.00147778 0.00030000
v 0.00195845 0.00155385 0.00135000
v 0.00195845 0.00155385 0.00030000
v 0.00176201 0.00177351 0.00135000
v 0.00176201 0.00177351 0.00030000
v 0.00174171 0.00179142 0.00135000
v 0.00174171 0.00179142 0.00030000
v 0.00154107 0.00196852 0.00135000
v 0.00154107 0.00196852 0.00030000
v 0.00142008 0.00205223 0.00135000
v 0.00142008 0.00205223 0.00030000
v 0.00129873 0.00213619 0.00135000
v 0.00129873 0.00213619 0.00030000
v 0.00106263 0.00226130 0.00135000
v 0.00106263 0.00226130 0.00030000
v 0.00103834 0.00227417 0.00135000
v 0.00103834 0.00227417 0.00030000
v 0.00076353 0.00238055 0.00135000
v 0.00076353 0.00238055 0.00030000
v 0.00067393 0.00240356 0.00135000
v 0.00067393 0.00240356 0.00030000
v 0.00047810 0.00245386 0.00135000
v 0.00047810 0.00245386 0.00030000
v 0.00026786 0.00248561 0.00135000
v 0.00026786 0.00248561 0.00030000
v 0.00030000 0.00217945 0.00000000
v 0.00056292 0.00032500 0.00000000
v 0.00045962 0.00045962 0.00000000
v -0.00192016 -0.00107376 0.00000000
v -0.00203317 -0.00084036 0.00000000
v -0.00056292 -0.00032500 0.00000000
v -0.00062785 -0.00016823 0.00000000
v -0.00150000 0.00235949 0.00000000
v -0.00016823 0.00062785 0.00000000
v -0.00032500 0.00056292 0.00000000
v -0.00219840 -0.00008382 0.00000000
v -0.00065000 0.00000000 0.00000000
v -0.00217327 -0.00034192 0.00000000
v -0.00211793 -0.00059528 0.00000000
v 0.00217366 -0.00033941 0.00000000
v 0.00062785 -0.00016823 0.00000000
v 0.00065000 -0.00000000 0.00000000
v -0.00219299 0.00017545 0.00000000
v -0.00215711 0.00043228 0.00000000
v -0.00062785 0.00016823 0.00000000
v -0.00178047 -0.00129225 0.00000000
v -0.00045962 -0.00045962 0.00000000
v -0.00161605 -0.00149278 0.00000000
v -0.00016823 -0.00062785 0.00000000
v -0.00051292 -0.00213937 0.00000000
v -0.00076109 -0.00206415 0.00000000
v 0.00062785 0.00016823 0.00000000
v 0.00219279 0.00017798 0.00000000
v 0.00219850 -0.00008128 0.00000000
v -0.00032500 -0.00056292 0.00000000
v 0.00067190 0.00209489 0.00000000
v 0.00091374 0.00200127 0.00000000
v -0.00099870 -0.00196026 0.00000000
v -0.00122242 -0.00182912 0.00000000
v -0.00142916 -0.00167257 0.00000000
v -0.00025761 -0.00218487 0.00000000
v -0.00000000 -0.00065000 0.00000000
v 0.00000127 -0.00220000 0.00000000
v 0.00042073 0.00215940 0.00000000
v -0.00150046 0.00201761 0.00000000
v -0.00150470 0.00198315 0.00000000
v -0.00151107 0.00193140 0.00000000
v 0.00026014 -0.00218457 0.00000000
v 0.00016823 -0.00062785 0.00000000
v 0.00051539 -0.00213878 0.00000000
v 0.00211862 -0.00059283 0.00000000
v 0.00203414 -0.00083801 0.00000000
v 0.00056292 -0.00032500 0.00000000
v 0.00000000 0.00065000 0.00000000
v 0.00013632 0.00235949 0.00000000
v 0.00016199 0.00233004 -0.00000000
v 0.00032500 0.00056292 0.00000000
v 0.00016823 0.00062785 0.00000000
v 0.00029753 0.00218197 0.00000000
v 0.00026922 0.00221113 0.00000000
v -0.00153037 0.00185802 0.00000000
v -0.00151383 0.00192088 0.00000000
v -0.00151273 0.00192506 0.00000000
v -0.00150039 0.00202055 -0.00000000
v -0.00150000 0.00203870 0.00000000
v 0.00076348 -0.00206327 0.00000000
v 0.00032500 -0.00056292 0.00000000
v 0.00100096 -0.00195910 0.00000000
v 0.00114288 0.00187985 0.00000000
v 0.00135615 0.00173230 0.00000000
v 0.00155057 0.00156069 0.00000000
v 0.00199528 0.00092675 0.00000000
v 0.00209047 0.00068552 0.00000000
v 0.00215661 0.00043477 0.00000000
v 0.00016602 0.00232541 -0.00000000
v 0.00020529 0.00228037 -0.00000000
v 0.00022633 0.00225623 -0.00000000
v -0.00157841 0.00172807 0.00000000
v -0.00155964 0.00177703 0.00000000
v -0.00155253 0.00179556 0.00000000
v -0.00179683 0.00127202 0.00000000
v -0.00175393 0.00136278 -0.00000000
v -0.00045962 0.00045962 0.00000000
v 0.00172344 0.00136739 0.00000000
v 0.00187237 0.00115509 0.00000000
v 0.00023071 0.00225121 -0.00000000
v 0.00023413 0.00224728 0.00000000
v -0.00162658 0.00162512 -0.00000000
v -0.00161873 0.00164191 -0.00000000
v -0.00160243 0.00167674 -0.00000000
v -0.00158416 0.00171578 -0.00000000
v -0.00153663 0.00183703 0.00000000
v -0.00153429 0.00184315 0.00000000
v -0.00209126 0.00068311 0.00000000
v -0.00199635 0.00092444 0.00000000
v -0.00056292 0.00032500 0.00000000
v -0.00187370 0.00115293 0.00000000
v -0.00180000 0.00126491 0.00000000
v -0.00171326 0.00144882 0.00000000
v -0.00171059 0.00145420 -0.00000000
v -0.00167299 0.00153000 -0.00000000
v -0.00166726 0.00154155 -0.00000000
v -0.00163960 0.00159730 0.00000000
v 0.00192140 -0.00107154 0.00000000
v 0.00178197 -0.00129019 0.00000000
v 0.00045962 -0.00045962 0.00000000
v 0.00161777 -0.00149091 0.00000000
v 0.00143109 -0.00167092 0.00000000
v 0.00122453 -0.00182771 0.00000000
v 0.00062785 -0.00016823 0.00000000
v 0.00065000 -0.00000000 0.00165000
v 0.00065000 -0.00000000 0.00000000
v 0.00062785 0.00016823 0.00165000
v 0.00062785 0.00016823 0.00000000
v 0.00056292 0.00032500 0.00165000
v 0.00056292 0.00032500 0.00000000
v 0.00045962 0.00045962 0.00165000
v 0.00045962 0.00045962 0.00000000
v 0.00032500 0.00056292 0.00165000
v 0.00032500 0.00056292 0.00000000
v 0.00016823 0.00062785 0.00165000
v 0.00016823 0.00062785 0.00000000
v 0.00000000 0.00065000 0.00165000
v 0.00000000 0.00065000 0.00000000
v -0.00016823 0.00062785 0.00165000
v -0.00016823 0.00062785 0.00000000
v -0.00032500 0.00056292 0.00165000
v -0.00032500 0.00056292 0.00000000
v -0.00045962 0.00045962 0.00165000
v -0.00045962 0.00045962 0.00000000
v -0.00056292 0.00032500 0.00165000
v -0.00056292 0.00032500 0.00000000
v -0.00062785 0.00016823 0.00165000
v -0.00062785 0.00016823 0.00000000
v -0.00065000 0.00000000 0.00165000
v -0.00065000 0.00000000 0.00000000
v -0.00062785 -0.00016823 0.00165000
v -0.00062785 -0.00016823 0.00000000
v -0.00056292 -0.00032500 0.00165000
v -0.00056292 -0.00032500 0.00000000
v -0.00045962 -0.00045962 0.00165000
v -0.00045962 -0.00045962 0.00000000
v -0.00032500 -0.00056292 0.00165000
v -0.00032500 -0.00056292 0.00000000
v -0.00016823 -0.00062785 0.00165000
v -0.00016823 -0.00062785 0.00000000
v -0.00000000 -0.00065000 0.00165000
v -0.00000000 -0.00065000 0.00000000
v 0.00016823 -0.00062785 0.00165000
v 0.00016823 -0.00062785 0.00000000
v 0.00032500 -0.00056292 0.00165000
v 0.00032500 -0.00056292 0.00000000
v 0.00045962 -0.00045962 0.00165000
v 0.00045962 -0.00045962 0.00000000
v 0.00056292 -0.00032500 0.00165000
v 0.00056292 -0.00032500 0.00000000
v 0.00062785 -0.00016823 0.00165000
v 0.00219850 -0.00008128 0.00165000
v 0.00065000 -0.00000000 0.00165000
v 0.00217366 -0.00033941 0.00165000
v 0.00062785 -0.00016823 0.00165000
v 0.00211862 -0.00059283 0.00165000
v -0.00217327 -0.00034192 0.00165000
v -0.00211793 -0.00059528 0.00165000
v -0.00199635 0.00092444 0.00165000
v 0.00203414 -0.00083801 0.00165000
v 0.00056292 -0.00032500 0.00165000
v 0.00192140 -0.00107154 0.00165000
v -0.00161605 -0.00149278 0.00165000
v -0.00062785 -0.00016823 0.00165000
v -0.00065000 0.00000000 0.00165000
v 0.00030000 0.00217945 0.00165000
v -0.00158365 0.00171610 0.00165000
v -0.00160417 0.00167354 0.00165000
v 0.00178197 -0.00129019 0.00165000
v 0.00045962 -0.00045962 0.00165000
v 0.00161777 -0.00149091 0.00165000
v -0.00025761 -0.00218487 0.00165000
v -0.00000000 -0.00065000 0.00165000
v -0.00016823 -0.00062785 0.00165000
v 0.00015557 0.00233712 0.00165000
v 0.00012924 0.00236873 0.00165000
v -0.00150804 0.00194780 0.00165000
v 0.00011580 0.00238869 0.00165000
v 0.00010566 0.00240375 0.00165000
v 0.00006103 0.00247806 0.00165000
v 0.00004918 0.00250192 0.00165000
v 0.00003590 0.00252864 0.00165000
v -0.00150494 0.00198291 0.00165000
v -0.00150100 0.00202745 0.00165000
v -0.00153063 0.00185773 0.00165000
v -0.00151408 0.00192373 0.00165000
v -0.00151396 0.00192420 0.00165000
v -0.00173779 0.00139546 0.00165000
v -0.00179049 0.00128527 0.00165000
v -0.00209126 0.00068311 0.00165000
v -0.00215711 0.00043228 0.00165000
v -0.00187370 0.00115293 0.00165000
v -0.00203317 -0.00084036 0.00165000
v -0.00192016 -0.00107376 0.00165000
v -0.00122242 -0.00182912 0.00165000
v -0.00099870 -0.00196026 0.00165000
v -0.00032500 -0.00056292 0.00165000
v -0.00076109 -0.00206415 0.00165000
v -0.00051292 -0.00213937 0.00165000
v -0.00062785 0.00016823 0.00165000
v -0.00056292 0.00032500 0.00165000
v -0.00045962 0.00045962 0.00165000
v -0.00032500 0.00056292 0.00165000
v 0.00199528 0.00092675 0.00165000
v 0.00056292 0.00032500 0.00165000
v 0.00062785 0.00016823 0.00165000
v 0.00029753 0.00218197 0.00165000
v 0.00026031 0.00222098 0.00165000
v 0.00008801 0.00242995 0.00165000
v 0.00007628 0.00244738 0.00165000
v -0.00153429 0.00184315 0.00165000
v -0.00153683 0.00183660 0.00165000
v -0.00154414 0.00181779 0.00165000
v -0.00156038 0.00177599 0.00165000
v -0.00157622 0.00173523 0.00165000
v -0.00178047 -0.00129225 0.00165000
v -0.00180000 0.00126491 0.00165000
v -0.00179683 0.00127202 0.00165000
v -0.00219299 0.00017545 0.00165000
v -0.00219840 -0.00008382 0.00165000
v 0.00143109 -0.00167092 0.00165000
v 0.00032500 -0.00056292 0.00165000
v 0.00122453 -0.00182771 0.00165000
v 0.00219279 0.00017798 0.00165000
v 0.00215661 0.00043477 0.00165000
v 0.00209047 0.00068552 0.00165000
v 0.00029926 0.00218021 0.00165000
v 0.00022709 0.00225580 0.00165000
v 0.00022179 0.00226135 0.00165000
v 0.00019719 0.00228714 0.00165000
v 0.00019515 0.00228959 0.00165000
v 0.00016126 0.00233028 0.00165000
v -0.00150000 0.00203870 0.00165000
v 0.00002669 0.00255302 0.00165000
v -0.00150000 0.00256912 0.00165000
v 0.00002655 0.00255344 0.00165000
v 0.00002134 0.00256912 0.00165000
v 0.00016823 -0.00062785 0.00165000
v 0.00076348 -0.00206327 0.00165000
v 0.00100096 -0.00195910 0.00165000
v 0.00000127 -0.00220000 0.00165000
v 0.00026014 -0.00218457 0.00165000
v 0.00051539 -0.00213878 0.00165000
v -0.00016823 0.00062785 0.00165000
v 0.00000000 0.00065000 0.00165000
v 0.00042073 0.00215940 0.00165000
v 0.00016823 0.00062785 0.00165000
v -0.00161110 0.00165915 0.00165000
v -0.00164557 0.00158765 0.00165000
v -0.00167336 0.00153000 0.00165000
v -0.00142916 -0.00167257 0.00165000
v -0.00045962 -0.00045962 0.00165000
v -0.00056292 -0.00032500 0.00165000
v 0.00032500 0.00056292 0.00165000
v 0.00091374 0.00200127 0.00165000
v 0.00067190 0.00209489 0.00165000
v 0.00187237 0.00115509 0.00165000
v 0.00172344 0.00136739 0.00165000
v 0.00045962 0.00045962 0.00165000
v 0.00155057 0.00156069 0.00165000
v 0.00135615 0.00173230 0.00165000
v 0.00114288 0.00187985 0.00165000
v -0.00168497 0.00150591 0.00165000
v -0.00169109 0.00149311 0.00165000
v -0.00150000 0.00242467 -0.00000717
v -0.00150000 0.00278181 0.00160251
v -0.00150000 0.00287531 0.00154528
v -0.00150000 0.00314051 -0.00060000
v -0.00150000 0.00378919 0.00026411
v -0.00150000 0.00407406 0.00011914
v -0.00150000 0.00295409 0.00146906
v -0.00150000 0.00301437 0.00137750
v -0.00150000 0.00248673 -0.00002832
v -0.00150000 0.00305325 0.00127500
v -0.00150000 0.00254272 -0.00006246
v -0.00150000 0.00316190 0.00097439
v -0.00150000 0.00332490 0.00069944
v -0.00150000 0.00235949 0.00000000
v -0.00150000 0.00203870 0.00000000
v -0.00150000 0.00207548 0.00005409
v -0.00150000 0.00203870 0.00165000
v -0.00150000 0.00256912 0.00165000
v -0.00150000 0.00205114 0.00163322
v -0.00150000 0.00208758 0.00157444
v -0.00150000 0.01060000 0.00000000
v -0.00150000 0.01060000 -0.00060000
v -0.00150000 0.00469927 0.00000000
v -0.00150000 0.00438104 0.00003005
v -0.00150000 0.00301327 -0.00057168
v -0.00150000 0.00295728 -0.00053754
v -0.00150000 0.00353649 0.00045985
v -0.00150000 0.00291005 -0.00049206
v -0.00150000 0.00258995 -0.00010795
v -0.00150000 0.00213522 0.00020667
v -0.00150000 0.00212786 0.00017614
v -0.00150000 0.00210611 0.00011419
v -0.00150000 0.00214032 0.00141380
v -0.00150000 0.00267808 0.00163798
v -0.00150000 0.00212717 0.00147633
v -0.00150000 0.00211531 0.00151274
v -0.00150000 0.00307533 -0.00059283
v -0.00150000 0.00214377 0.00026982
v -0.00150000 0.00214476 0.00030000
v -0.00150000 0.00214476 0.00135000
v -0.00000000 0.00620000 -0.00005000
v -0.00000000 0.01060000 -0.00005000
v -0.00000000 0.01060000 0.00000000
v -0.00000000 0.00469927 0.00000000
v -0.00000000 0.00438104 0.00003005
v -0.00000000 0.00314051 -0.00060000
v -0.00000000 0.00620000 -0.00055000
v -0.00000000 0.01060000 -0.00060000
v -0.00000000 0.01060000 -0.00055000
v -0.00000000 0.00353649 0.00045985
v -0.00000000 0.00291005 -0.00049206
v -0.00000000 0.00295728 -0.00053754
v -0.00000000 0.00278388 0.00030000
v -0.00000000 0.00277904 0.00022416
v -0.00000000 0.00407406 0.00011914
v -0.00000000 0.00378919 0.00026411
v -0.00000000 0.00307533 -0.00059283
v -0.00000000 0.00301327 -0.00057168
v 0.00000000 0.00301437 0.00137750
v 0.00000000 0.00278180 0.00139977
v 0.00000000 0.00278388 0.00135000
v -0.00000000 0.00272045 0.00003225
v -0.00000000 0.00275018 0.00010230
v -0.00000000 0.00276474 0.00015008
v -0.00000000 0.00268235 -0.00003305
v -0.00000000 0.00265298 -0.00007310
v -0.00000000 0.00260514 -0.00012617
v 0.00000000 0.00277073 0.00147460
v 0.00000000 0.00295409 0.00146906
v 0.00000000 0.00275797 0.00152393
v 0.00000000 0.00287531 0.00154528
v 0.00000000 0.00273144 0.00159462
v 0.00000000 0.00278181 0.00160251
v 0.00000000 0.00271507 0.00162823
v 0.00000000 0.00332490 0.00069944
v 0.00000000 0.00316190 0.00097439
v 0.00000000 0.00305325 0.00127500
v -0.00150000 0.00314051 -0.00060000
v -0.00150000 0.01060000 -0.00060000
v -0.00000000 0.00314051 -0.00060000
v -0.00000000 0.01060000 -0.00060000
v -0.00020000 0.01060000 -0.00030000
v -0.00000000 0.01060000 -0.00055000
v -0.00000000 0.01060000 -0.00060000
v -0.00000000 0.01060000 0.00000000
v -0.00000000 0.01060000 -0.00005000
v -0.00150000 0.01060000 0.00000000
v -0.00150000 0.01060000 -0.00060000
v -0.00000000 0.00469927 0.00000000
v -0.00000000 0.01060000 0.00000000
v -0.00150000 0.00469927 0.00000000
v -0.00150000 0.01060000 0.00000000
v -0.00150000 0.00438104 0.00003005
v -0.00000000 0.00438104 0.00003005
v -0.00150000 0.00407406 0.00011914
v -0.00000000 0.00407406 0.00011914
v -0.00150000 0.00378919 0.00026411
v -0.00000000 0.00378919 0.00026411
v -0.00150000 0.00353649 0.00045985
v -0.00000000 0.00353649 0.00045985
v -0.00150000 0.00332490 0.00069944
v 0.00000000 0.00332490 0.00069944
v -0.00150000 0.00316190 0.00097439
v 0.00000000 0.00316190 0.00097439
v -0.00150000 0.00305325 0.00127500
v 0.00000000 0.00305325 0.00127500
v -0.00195223 0.00154524 0.00142765
v -0.00236671 0.00077308 0.00142765
v -0.00230098 -0.00095105 0.00142765
v -0.00086134 -0.00233604 0.00142765
v 0.00183086 -0.00168729 0.00142765
v 0.00248162 0.00020143 0.00142765
v 0.00244067 0.00049204 0.00142765
v 0.00153477 0.00196047 0.00142765
v 0.00129342 0.00212745 0.00142765
v -0.00224997 -0.00035399 0.00163978
v -0.00227599 -0.00008678 0.00163978
v -0.00234829 -0.00008953 0.00160981
v -0.00206681 0.00095707 0.00163978
v 0.00027009 0.00245915 0.00147231
v 0.00027137 0.00244447 0.00149983
v 0.00047042 0.00241441 0.00150000
v -0.00168981 0.00163809 0.00160777
v -0.00167616 0.00168334 0.00159268
v -0.00170205 0.00170921 0.00156213
v -0.00175684 0.00176423 0.00142765
v -0.00161239 0.00189703 0.00142762
v -0.00161056 0.00190329 0.00141317
v -0.00160800 0.00191202 0.00138190
v -0.00173569 0.00174299 0.00150000
v -0.00162807 0.00184384 0.00149997
v -0.00162555 0.00185235 0.00149161
v -0.00161832 0.00187687 0.00146222
v -0.00161287 0.00189540 0.00143137
v -0.00165451 0.00175525 0.00156212
v -0.00165167 0.00176471 0.00155708
v -0.00163934 0.00180596 0.00153128
v -0.00162901 0.00184069 0.00150307
v -0.00167136 0.00169924 0.00158737
v -0.00165517 0.00175305 0.00156329
v -0.00178590 0.00141359 0.00163978
v -0.00174095 0.00146782 0.00163932
v -0.00184263 0.00145849 0.00160981
v -0.00173428 0.00149032 0.00163721
v -0.00189135 0.00149705 0.00156213
v -0.00169211 0.00163046 0.00160964
v -0.00170860 0.00157581 0.00162302
v -0.00193983 0.00119362 0.00163978
v -0.00179428 0.00128513 0.00164992
v -0.00176279 0.00139413 0.00164622
v -0.00176251 0.00139508 0.00164614
v 0.00029012 0.00225907 0.00163971
v 0.00029030 0.00225747 0.00164020
v 0.00043558 0.00223561 0.00163978
v 0.00029488 0.00221934 0.00164747
v 0.00029990 0.00218021 0.00165000
v 0.00028736 0.00228317 0.00163242
v 0.00044942 0.00230663 0.00160981
v 0.00028348 0.00231891 0.00161732
v 0.00028205 0.00233271 0.00160931
v 0.00027578 0.00239604 0.00156184
v 0.00027793 0.00237356 0.00158235
v 0.00046130 0.00236761 0.00156213
v 0.00028005 0.00235212 0.00159805
v 0.00027166 0.00244121 0.00150596
v 0.00027296 0.00242656 0.00152749
v 0.00027522 0.00240193 0.00155647
v 0.00026841 0.00247897 0.00141230
v 0.00026875 0.00247498 0.00142758
v 0.00047615 0.00244382 0.00142765
v 0.00026895 0.00247253 0.00143696
v 0.00026794 0.00248456 0.00137489
v 0.00140401 0.00179344 0.00163978
v 0.00160529 0.00161577 0.00163978
v 0.00165629 0.00166710 0.00160981
v 0.00103629 -0.00202825 0.00163978
v 0.00079042 -0.00213609 0.00163978
v 0.00081553 -0.00220395 0.00160981
v -0.00078796 -0.00213701 0.00163978
v -0.00103394 -0.00202944 0.00163978
v -0.00106679 -0.00209391 0.00160981
v -0.00210493 -0.00087002 0.00163978
v -0.00219268 -0.00061629 0.00163978
v -0.00226234 -0.00063586 0.00160981
v 0.00118322 0.00194619 0.00163978
v 0.00144861 0.00185041 0.00160981
v 0.00170008 0.00171118 0.00156213
v 0.00126775 -0.00189221 0.00163978
v 0.00106921 -0.00209268 0.00160981
v 0.00083710 -0.00226222 0.00156213
v -0.00053102 -0.00221488 0.00163978
v -0.00081299 -0.00220489 0.00160981
v -0.00109499 -0.00214927 0.00156213
v -0.00198793 -0.00111166 0.00163978
v -0.00217180 -0.00089766 0.00160981
v -0.00232215 -0.00065267 0.00156213
v -0.00240445 0.00019237 0.00156213
v -0.00234251 0.00018741 0.00160981
v -0.00227039 0.00018164 0.00163978
v 0.00094599 0.00207190 0.00163978
v 0.00122081 0.00200802 0.00160981
v 0.00148691 0.00189934 0.00156213
v 0.00173368 0.00174500 0.00150000
v 0.00148160 -0.00172989 0.00163978
v 0.00130803 -0.00195232 0.00160981
v 0.00109748 -0.00214800 0.00156213
v 0.00085364 -0.00230693 0.00150000
v -0.00026670 -0.00226198 0.00163978
v -0.00054789 -0.00228524 0.00160981
v -0.00083448 -0.00226319 0.00156213
v -0.00111664 -0.00219175 0.00150000
v -0.00184331 -0.00133786 0.00163978
v -0.00205108 -0.00114698 0.00160981
v -0.00222922 -0.00092139 0.00156213
v -0.00236805 -0.00066557 0.00150000
v -0.00241185 0.00048333 0.00150000
v -0.00236511 0.00047396 0.00156213
v -0.00230419 0.00046176 0.00160981
v -0.00223324 0.00044754 0.00163978
v 0.00069562 0.00216882 0.00163978
v 0.00097604 0.00213772 0.00160981
v 0.00125308 0.00206111 0.00156213
v 0.00151630 0.00193688 0.00150000
v 0.00175480 0.00176626 0.00142765
v 0.00209348 0.00129150 0.00150000
v 0.00192697 0.00152887 0.00150000
v 0.00188962 0.00149924 0.00156213
v 0.00167487 -0.00154353 0.00163978
v 0.00152867 -0.00178485 0.00160981
v 0.00134261 -0.00200394 0.00156213
v 0.00111917 -0.00219046 0.00150000
v 0.00086404 -0.00233504 0.00142765
v 0.00029086 -0.00244255 0.00150000
v 0.00057625 -0.00239136 0.00150000
v 0.00056508 -0.00234501 0.00156213
v 0.00000132 -0.00227765 0.00163978
v -0.00027518 -0.00233383 0.00160981
v -0.00056237 -0.00234566 0.00156213
v -0.00085097 -0.00230792 0.00150000
v -0.00113024 -0.00221846 0.00142765
v -0.00159794 -0.00187009 0.00150000
v -0.00136678 -0.00204513 0.00150000
v -0.00134029 -0.00200549 0.00156213
v -0.00167308 -0.00154547 0.00163978
v -0.00190187 -0.00138036 0.00160981
v -0.00210531 -0.00117730 0.00156213
v -0.00227328 -0.00093960 0.00150000
v -0.00239690 -0.00067368 0.00142765
v -0.00245802 -0.00009372 0.00150000
v -0.00242992 -0.00038230 0.00150000
v -0.00238282 -0.00037489 0.00156213
v -0.00233823 0.00076378 0.00150000
v -0.00229291 0.00074897 0.00156213
v -0.00223384 0.00072968 0.00160981
v -0.00216507 0.00070721 0.00163978
v 0.00076041 0.00237082 0.00142765
v 0.00103410 0.00226487 0.00142765
v 0.00075125 0.00234228 0.00150000
v 0.00195045 0.00154750 0.00142765
v 0.00211899 0.00130724 0.00142765
v 0.00225809 0.00104881 0.00142765
v 0.00236582 0.00077582 0.00142765
v 0.00223091 0.00103619 0.00150000
v 0.00205291 0.00126647 0.00156213
v 0.00184095 0.00146062 0.00160981
v 0.00206570 0.00095945 0.00163978
v 0.00216425 0.00070972 0.00163978
v 0.00223300 0.00073226 0.00160981
v 0.00230365 0.00046442 0.00160981
v 0.00236456 0.00047670 0.00156213
v 0.00240423 0.00019515 0.00156213
v 0.00245174 0.00019900 0.00150000
v 0.00245813 -0.00009088 0.00150000
v 0.00248808 -0.00009198 0.00142765
v 0.00245997 -0.00038412 0.00142765
v 0.00227018 0.00018427 0.00163978
v 0.00227609 -0.00008415 0.00163978
v 0.00234840 -0.00008682 0.00160981
v 0.00232186 -0.00036255 0.00160981
v 0.00238325 -0.00037214 0.00156213
v 0.00232291 -0.00064999 0.00156213
v 0.00236882 -0.00066284 0.00150000
v 0.00227436 -0.00093697 0.00150000
v 0.00230208 -0.00094839 0.00142765
v 0.00217449 -0.00121269 0.00142765
v 0.00210594 -0.00086758 0.00163978
v 0.00198922 -0.00110936 0.00163978
v 0.00205241 -0.00114460 0.00160981
v 0.00190346 -0.00137816 0.00160981
v 0.00195379 -0.00141460 0.00156213
v 0.00177376 -0.00163467 0.00156213
v 0.00180882 -0.00166698 0.00150000
v 0.00160010 -0.00186824 0.00150000
v 0.00161959 -0.00189101 0.00142765
v 0.00138583 -0.00206845 0.00142765
v 0.00058327 -0.00242049 0.00142765
v 0.00029440 -0.00247231 0.00142765
v 0.00000144 -0.00248978 0.00142765
v -0.00029154 -0.00247265 0.00142765
v 0.00000142 -0.00245981 0.00150000
v 0.00028522 -0.00239521 0.00156213
v 0.00055053 -0.00228461 0.00160981
v 0.00053358 -0.00221426 0.00163978
v 0.00026932 -0.00226167 0.00163978
v 0.00027787 -0.00233351 0.00160981
v 0.00000136 -0.00235000 0.00160981
v 0.00000139 -0.00241213 0.00156213
v -0.00028245 -0.00239554 0.00156213
v -0.00028803 -0.00244289 0.00150000
v -0.00057349 -0.00239202 0.00150000
v -0.00058048 -0.00242116 0.00142765
v -0.00138343 -0.00207005 0.00142765
v -0.00161741 -0.00189288 0.00142765
v -0.00182891 -0.00168941 0.00142765
v -0.00201499 -0.00146246 0.00142765
v -0.00180689 -0.00166907 0.00150000
v -0.00156697 -0.00183385 0.00156213
v -0.00130577 -0.00195383 0.00160981
v -0.00126556 -0.00189368 0.00163978
v -0.00147960 -0.00173160 0.00163978
v -0.00152660 -0.00178661 0.00160981
v -0.00172623 -0.00159456 0.00160981
v -0.00177187 -0.00163672 0.00156213
v -0.00195215 -0.00141686 0.00156213
v -0.00199074 -0.00144486 0.00150000
v -0.00214692 -0.00120057 0.00150000
v -0.00217308 -0.00121520 0.00142765
v -0.00245952 -0.00038696 0.00142765
v -0.00248797 -0.00009486 0.00142765
v -0.00248185 0.00019856 0.00142765
v -0.00244124 0.00048922 0.00142765
v -0.00245197 0.00019617 0.00150000
v -0.00241038 -0.00009190 0.00156213
v -0.00232144 -0.00036524 0.00160981
v 0.00102165 0.00223761 0.00150000
v 0.00073669 0.00229688 0.00156213
v 0.00127785 0.00210184 0.00150000
v 0.00100185 0.00219424 0.00156213
v 0.00071772 0.00223772 0.00160981
v 0.00233734 0.00076648 0.00150000
v 0.00218767 0.00101611 0.00156213
v 0.00200003 0.00123385 0.00160981
v 0.00178427 0.00141565 0.00163978
v 0.00241129 0.00048612 0.00150000
v 0.00229204 0.00075162 0.00156213
v 0.00213132 0.00098993 0.00160981
v 0.00193845 0.00119586 0.00163978
v 0.00239768 -0.00067091 0.00142765
v 0.00243036 -0.00037949 0.00150000
v 0.00241048 -0.00008911 0.00156213
v 0.00234230 0.00019012 0.00160981
v 0.00223273 0.00045012 0.00163978
v 0.00201668 -0.00146013 0.00142765
v 0.00214831 -0.00119809 0.00150000
v 0.00223028 -0.00091881 0.00156213
v 0.00226307 -0.00063325 0.00160981
v 0.00225038 -0.00035139 0.00163978
v 0.00199241 -0.00144256 0.00150000
v 0.00210667 -0.00117487 0.00156213
v 0.00217284 -0.00089514 0.00160981
v 0.00219340 -0.00061375 0.00163978
v 0.00113280 -0.00221715 0.00142765
v 0.00136915 -0.00204355 0.00150000
v 0.00156909 -0.00183204 0.00156213
v 0.00172807 -0.00159257 0.00160981
v 0.00184486 -0.00133573 0.00163978
v -0.00213246 0.00098747 0.00160981
v -0.00218885 0.00101358 0.00156213
v -0.00223211 0.00103361 0.00150000
v -0.00225930 0.00104620 0.00142765
v -0.00212050 0.00130479 0.00142765
v -0.00200145 0.00123154 0.00160981
v -0.00205437 0.00126410 0.00156213
v -0.00209497 0.00128908 0.00150000
v -0.00192873 0.00152664 0.00150000
v 0.00029599 0.00221050 0.00000153
v 0.00029142 0.00224793 0.00000759
v 0.00043350 0.00222492 0.00000752
v 0.00028845 0.00227355 0.00001438
v 0.00028447 0.00230958 0.00002822
v 0.00044562 0.00228716 0.00002971
v 0.00027883 0.00236438 0.00006058
v 0.00027824 0.00237051 0.00006575
v 0.00045650 0.00234299 0.00006545
v 0.00026866 0.00247595 0.00022504
v 0.00026853 0.00247756 0.00023332
v 0.00047667 0.00244647 0.00023324
v 0.00026806 0.00248317 0.00026208
v -0.00165930 0.00173927 0.00007987
v -0.00166948 0.00170548 0.00006581
v -0.00168435 0.00169143 0.00006545
v -0.00174548 0.00145274 0.00000851
v -0.00174864 0.00144199 0.00000774
v -0.00177736 0.00140683 0.00000752
v -0.00176240 0.00139522 0.00000442
v -0.00193056 0.00118791 0.00000752
v -0.00177210 0.00136226 0.00000207
v -0.00169796 0.00161109 0.00003502
v -0.00170507 0.00158749 0.00003015
v -0.00182708 0.00144618 0.00002971
v -0.00172074 0.00153550 0.00001944
v -0.00169373 0.00162511 0.00003864
v -0.00187168 0.00148148 0.00006545
v -0.00167618 0.00168325 0.00005677
v -0.00167555 0.00168534 0.00005743
v -0.00163958 0.00180515 0.00011815
v -0.00164198 0.00179711 0.00011313
v -0.00171787 0.00172509 0.00011295
v -0.00165158 0.00176501 0.00009309
v -0.00162071 0.00186875 0.00017705
v -0.00162267 0.00186214 0.00017000
v -0.00174309 0.00175042 0.00016983
v -0.00162946 0.00183917 0.00014552
v -0.00161042 0.00190375 0.00023807
v -0.00161108 0.00190152 0.00023330
v -0.00175875 0.00176614 0.00023324
v -0.00161467 0.00188926 0.00020709
v -0.00160899 0.00190864 0.00025333
v -0.00160734 0.00191431 0.00028491
v 0.00026928 0.00246860 0.00020115
v 0.00027360 0.00241953 0.00011345
v 0.00027226 0.00243436 0.00013348
v 0.00047242 0.00242470 0.00016983
v 0.00027057 0.00245360 0.00016613
v 0.00027043 0.00245523 0.00016993
v 0.00028090 0.00234371 0.00004653
v 0.00029128 0.00224909 0.00000778
v 0.00076123 0.00237339 0.00023324
v 0.00103522 0.00226733 0.00023324
v 0.00129482 0.00212976 0.00023324
v 0.00153644 0.00196260 0.00023324
v 0.00175670 0.00176817 0.00023324
v 0.00195256 0.00154918 0.00023324
v 0.00212129 0.00130866 0.00023324
v 0.00226054 0.00104995 0.00023324
v 0.00236838 0.00077666 0.00023324
v 0.00244332 0.00049258 0.00023324
v 0.00248431 0.00020165 0.00023324
v 0.00249078 -0.00009208 0.00023324
v 0.00246264 -0.00038453 0.00023324
v 0.00240028 -0.00067164 0.00023324
v 0.00230457 -0.00094942 0.00023324
v 0.00217684 -0.00121400 0.00023324
v 0.00201887 -0.00146172 0.00023324
v 0.00183284 -0.00168912 0.00023324
v 0.00162135 -0.00189306 0.00023324
v 0.00138733 -0.00207069 0.00023324
v 0.00113403 -0.00221955 0.00023324
v 0.00086498 -0.00233758 0.00023324
v 0.00058391 -0.00242312 0.00023324
v 0.00029472 -0.00247499 0.00023324
v 0.00000144 -0.00249248 0.00023324
v -0.00029186 -0.00247533 0.00023324
v -0.00058111 -0.00242379 0.00023324
v -0.00086228 -0.00233857 0.00023324
v -0.00113147 -0.00222086 0.00023324
v -0.00138493 -0.00207229 0.00023324
v -0.00161916 -0.00189493 0.00023324
v -0.00183089 -0.00169124 0.00023324
v -0.00201718 -0.00146405 0.00023324
v -0.00217544 -0.00121652 0.00023324
v -0.00230347 -0.00095208 0.00023324
v -0.00239950 -0.00067441 0.00023324
v -0.00246219 -0.00038738 0.00023324
v -0.00249067 -0.00009496 0.00023324
v -0.00248454 0.00019878 0.00023324
v -0.00244389 0.00048975 0.00023324
v -0.00236928 0.00077392 0.00023324
v -0.00226175 0.00104734 0.00023324
v -0.00212280 0.00130620 0.00023324
v -0.00195435 0.00154692 0.00023324
v -0.00193695 0.00153315 0.00016983
v -0.00210390 0.00129458 0.00016983
v -0.00224162 0.00103802 0.00016983
v -0.00234819 0.00076703 0.00016983
v -0.00242213 0.00048539 0.00016983
v -0.00246242 0.00019701 0.00016983
v -0.00246850 -0.00009412 0.00016983
v -0.00244027 -0.00038393 0.00016983
v -0.00237814 -0.00066841 0.00016983
v -0.00228297 -0.00094360 0.00016983
v -0.00215607 -0.00120569 0.00016983
v -0.00199922 -0.00145102 0.00016983
v -0.00181459 -0.00167619 0.00016983
v -0.00160475 -0.00187806 0.00016983
v -0.00137261 -0.00205385 0.00016983
v -0.00112139 -0.00220109 0.00016983
v -0.00085460 -0.00231776 0.00016983
v -0.00057593 -0.00240222 0.00016983
v -0.00028926 -0.00245330 0.00016983
v 0.00000143 -0.00247029 0.00016983
v 0.00029210 -0.00245296 0.00016983
v 0.00057871 -0.00240155 0.00016983
v 0.00085728 -0.00231677 0.00016983
v 0.00112394 -0.00219980 0.00016983
v 0.00137498 -0.00205226 0.00016983
v 0.00160692 -0.00187621 0.00016983
v 0.00181653 -0.00167409 0.00016983
v 0.00200090 -0.00144870 0.00016983
v 0.00215747 -0.00120319 0.00016983
v 0.00228406 -0.00094097 0.00016983
v 0.00237891 -0.00066566 0.00016983
v 0.00244071 -0.00038111 0.00016983
v 0.00246860 -0.00009126 0.00016983
v 0.00246219 0.00019985 0.00016983
v 0.00242157 0.00048819 0.00016983
v 0.00234730 0.00076975 0.00016983
v 0.00224042 0.00104061 0.00016983
v 0.00210241 0.00129701 0.00016983
v 0.00193518 0.00153539 0.00016983
v 0.00174107 0.00175243 0.00016983
v 0.00152276 0.00194513 0.00016983
v 0.00128330 0.00211080 0.00016983
v 0.00102600 0.00224714 0.00016983
v 0.00075445 0.00235226 0.00016983
v -0.00190893 0.00151097 0.00011295
v -0.00207346 0.00127585 0.00011295
v -0.00220919 0.00102300 0.00011295
v -0.00231422 0.00075593 0.00011295
v -0.00238709 0.00047837 0.00011295
v -0.00242679 0.00019416 0.00011295
v -0.00243278 -0.00009275 0.00011295
v -0.00240497 -0.00037838 0.00011295
v -0.00234373 -0.00065874 0.00011295
v -0.00224994 -0.00092995 0.00011295
v -0.00212488 -0.00118824 0.00011295
v -0.00197030 -0.00143002 0.00011295
v -0.00178834 -0.00165193 0.00011295
v -0.00158153 -0.00185089 0.00011295
v -0.00135275 -0.00202413 0.00011295
v -0.00110517 -0.00216925 0.00011295
v -0.00084224 -0.00228422 0.00011295
v -0.00056760 -0.00236746 0.00011295
v -0.00028508 -0.00241780 0.00011295
v 0.00000141 -0.00243455 0.00011295
v 0.00028787 -0.00241747 0.00011295
v 0.00057034 -0.00236680 0.00011295
v 0.00084488 -0.00228325 0.00011295
v 0.00110768 -0.00216797 0.00011295
v 0.00135509 -0.00202257 0.00011295
v 0.00158367 -0.00184906 0.00011295
v 0.00179024 -0.00164986 0.00011295
v 0.00197195 -0.00142774 0.00011295
v 0.00212625 -0.00118579 0.00011295
v 0.00225101 -0.00092735 0.00011295
v 0.00234449 -0.00065603 0.00011295
v 0.00240540 -0.00037560 0.00011295
v 0.00243289 -0.00008994 0.00011295
v 0.00242657 0.00019696 0.00011295
v 0.00238654 0.00048113 0.00011295
v 0.00231334 0.00075861 0.00011295
v 0.00220800 0.00102555 0.00011295
v 0.00207199 0.00127824 0.00011295
v 0.00190718 0.00151317 0.00011295
v 0.00171588 0.00172708 0.00011295
v 0.00150073 0.00191699 0.00011295
v 0.00126473 0.00208026 0.00011295
v 0.00101116 0.00221463 0.00011295
v 0.00074354 0.00231823 0.00011295
v 0.00046559 0.00238961 0.00011295
v 0.00027601 0.00239357 0.00008520
v -0.00203301 0.00125095 0.00006545
v -0.00216608 0.00100304 0.00006545
v -0.00226906 0.00074118 0.00006545
v -0.00234051 0.00046904 0.00006545
v -0.00237944 0.00019037 0.00006545
v -0.00238531 -0.00009095 0.00006545
v -0.00235804 -0.00037099 0.00006545
v -0.00229800 -0.00064589 0.00006545
v -0.00220604 -0.00091181 0.00006545
v -0.00208342 -0.00116506 0.00006545
v -0.00193185 -0.00140212 0.00006545
v -0.00175344 -0.00161970 0.00006545
v -0.00155067 -0.00181478 0.00006545
v -0.00132635 -0.00198464 0.00006545
v -0.00108361 -0.00212692 0.00006545
v -0.00082580 -0.00223965 0.00006545
v -0.00055653 -0.00232126 0.00006545
v -0.00027951 -0.00237063 0.00006545
v 0.00000138 -0.00238705 0.00006545
v 0.00028225 -0.00237030 0.00006545
v 0.00055921 -0.00232062 0.00006545
v 0.00082839 -0.00223870 0.00006545
v 0.00108606 -0.00212567 0.00006545
v 0.00132865 -0.00198310 0.00006545
v 0.00155277 -0.00181298 0.00006545
v 0.00175531 -0.00161767 0.00006545
v 0.00193347 -0.00139989 0.00006545
v 0.00208476 -0.00116265 0.00006545
v 0.00220709 -0.00090926 0.00006545
v 0.00229875 -0.00064323 0.00006545
v 0.00235847 -0.00036827 0.00006545
v 0.00238542 -0.00008819 0.00006545
v 0.00237922 0.00019312 0.00006545
v 0.00233997 0.00047174 0.00006545
v 0.00226820 0.00074381 0.00006545
v 0.00216492 0.00100554 0.00006545
v 0.00203156 0.00125330 0.00006545
v 0.00186997 0.00148365 0.00006545
v 0.00168240 0.00169338 0.00006545
v 0.00147145 0.00187958 0.00006545
v 0.00124005 0.00203967 0.00006545
v 0.00099143 0.00217142 0.00006545
v 0.00072903 0.00227299 0.00006545
v -0.00198456 0.00122114 0.00002971
v -0.00211446 0.00097914 0.00002971
v -0.00221499 0.00072352 0.00002971
v -0.00228474 0.00045786 0.00002971
v -0.00232274 0.00018583 0.00002971
v -0.00232847 -0.00008878 0.00002971
v -0.00230185 -0.00036215 0.00002971
v -0.00224324 -0.00063050 0.00002971
v -0.00215347 -0.00089008 0.00002971
v -0.00203377 -0.00113730 0.00002971
v -0.00188582 -0.00136871 0.00002971
v -0.00171166 -0.00158110 0.00002971
v -0.00151372 -0.00177153 0.00002971
v -0.00129475 -0.00193734 0.00002971
v -0.00105778 -0.00207624 0.00002971
v -0.00080612 -0.00218628 0.00002971
v -0.00054326 -0.00226595 0.00002971
v -0.00027285 -0.00231413 0.00002971
v 0.00000135 -0.00233016 0.00002971
v 0.00027553 -0.00231382 0.00002971
v 0.00054588 -0.00226532 0.00002971
v 0.00080865 -0.00218535 0.00002971
v 0.00106018 -0.00207501 0.00002971
v 0.00129698 -0.00193585 0.00002971
v 0.00151577 -0.00176978 0.00002971
v 0.00171349 -0.00157912 0.00002971
v 0.00188740 -0.00136653 0.00002971
v 0.00203509 -0.00113494 0.00002971
v 0.00215450 -0.00088759 0.00002971
v 0.00224397 -0.00062790 0.00002971
v 0.00230227 -0.00035949 0.00002971
v 0.00232857 -0.00008609 0.00002971
v 0.00232253 0.00018852 0.00002971
v 0.00228421 0.00046050 0.00002971
v 0.00221415 0.00072608 0.00002971
v 0.00211333 0.00098158 0.00002971
v 0.00198315 0.00122344 0.00002971
v 0.00182541 0.00144829 0.00002971
v 0.00164231 0.00165303 0.00002971
v 0.00143638 0.00183479 0.00002971
v 0.00121050 0.00199107 0.00002971
v 0.00096780 0.00211968 0.00002971
v 0.00071166 0.00221883 0.00002971
v -0.00205693 0.00095249 0.00000752
v -0.00215472 0.00070383 0.00000752
v -0.00222257 0.00044540 0.00000752
v -0.00225954 0.00018077 0.00000752
v -0.00226511 -0.00008636 0.00000752
v -0.00223921 -0.00035230 0.00000752
v -0.00218220 -0.00061334 0.00000752
v -0.00209487 -0.00086586 0.00000752
v -0.00197843 -0.00110635 0.00000752
v -0.00183450 -0.00133146 0.00000752
v -0.00166508 -0.00153808 0.00000752
v -0.00147253 -0.00172332 0.00000752
v -0.00125951 -0.00188462 0.00000752
v -0.00102900 -0.00201974 0.00000752
v -0.00078419 -0.00212679 0.00000752
v -0.00052848 -0.00220429 0.00000752
v -0.00026543 -0.00225116 0.00000752
v 0.00000131 -0.00226676 0.00000752
v 0.00026803 -0.00225085 0.00000752
v 0.00053103 -0.00220368 0.00000752
v 0.00078664 -0.00212588 0.00000752
v 0.00103133 -0.00201855 0.00000752
v 0.00126169 -0.00188317 0.00000752
v 0.00147452 -0.00172162 0.00000752
v 0.00166686 -0.00153615 0.00000752
v 0.00183604 -0.00132934 0.00000752
v 0.00197971 -0.00110406 0.00000752
v 0.00209587 -0.00086344 0.00000752
v 0.00218291 -0.00061082 0.00000752
v 0.00223962 -0.00034971 0.00000752
v 0.00226521 -0.00008374 0.00000752
v 0.00225933 0.00018339 0.00000752
v 0.00222205 0.00044797 0.00000752
v 0.00215390 0.00070632 0.00000752
v 0.00205582 0.00095487 0.00000752
v 0.00192918 0.00119014 0.00000752
v 0.00177574 0.00140888 0.00000752
v 0.00159761 0.00160805 0.00000752
v 0.00139730 0.00178487 0.00000752
v 0.00117756 0.00193689 0.00000752
v 0.00094147 0.00206199 0.00000752
v 0.00069229 0.00215845 0.00000752
v -0.00150000 0.00291005 -0.00049206
v -0.00000000 0.00291005 -0.00049206
v -0.00150000 0.00258995 -0.00010795
v -0.00000000 0.00260514 -0.00012617
v 0.00000093 0.00258995 -0.00010795
v -0.00173779 0.00139546 0.00165000
v -0.00150100 0.00202745 0.00165000
v -0.00150804 0.00194780 0.00165000
v -0.00150494 0.00198291 0.00165000
v -0.00150284 0.00200161 0.00163056
v -0.00150276 0.00201807 0.00160967
v -0.00151132 0.00196993 0.00160546
v -0.00151396 0.00192420 0.00165000
v -0.00153429 0.00184315 0.00165000
v -0.00153063 0.00185773 0.00165000
v -0.00152743 0.00189539 0.00162288
v -0.00151408 0.00192373 0.00165000
v -0.00153683 0.00183660 0.00165000
v -0.00154819 0.00186903 0.00159588
v -0.00156038 0.00177599 0.00165000
v -0.00154414 0.00181779 0.00165000
v -0.00155405 0.00180615 0.00163712
v -0.00155275 0.00181993 0.00162923
v -0.00158299 0.00178550 0.00160842
v -0.00157622 0.00173523 0.00165000
v -0.00159216 0.00172563 0.00163526
v -0.00158365 0.00171610 0.00165000
v -0.00160417 0.00167354 0.00165000
v -0.00161110 0.00165915 0.00165000
v -0.00162955 0.00171089 0.00160852
v -0.00168497 0.00150591 0.00165000
v -0.00169109 0.00149311 0.00165000
v -0.00179683 0.00127202 0.00165000
v -0.00179049 0.00128527 0.00165000
v -0.00167336 0.00153000 0.00165000
v -0.00165888 0.00158201 0.00164309
v -0.00164402 0.00164681 0.00162881
v -0.00164557 0.00158765 0.00165000
v -0.00161696 0.00176767 0.00158362
v -0.00165451 0.00175525 0.00156212
v -0.00161425 0.00178002 0.00157708
v -0.00160472 0.00182385 0.00154960
v -0.00159678 0.00186093 0.00151910
v -0.00159413 0.00187341 0.00150661
v -0.00158859 0.00189971 0.00147438
v -0.00158443 0.00191964 0.00144034
v -0.00150259 0.00205287 0.00155595
v -0.00150246 0.00207935 0.00149943
v -0.00150241 0.00209067 0.00146603
v -0.00150235 0.00210322 0.00140862
v -0.00152526 0.00193946 0.00158132
v -0.00154441 0.00191079 0.00155860
v -0.00152454 0.00195436 0.00156428
v -0.00154315 0.00192488 0.00154328
v -0.00152303 0.00198583 0.00152025
v -0.00154053 0.00195466 0.00150365
v -0.00152191 0.00200977 0.00147369
v -0.00153857 0.00197730 0.00146167
v -0.00152143 0.00202000 0.00144609
v -0.00153775 0.00198697 0.00143677
v -0.00152091 0.00203134 0.00139858
v -0.00153683 0.00199768 0.00139387
v -0.00158102 0.00179857 0.00160132
v -0.00157413 0.00184502 0.00157128
v -0.00156840 0.00188444 0.00153773
v -0.00156649 0.00189773 0.00152394
v -0.00156251 0.00192579 0.00148827
v -0.00155953 0.00194709 0.00145049
v -0.00155827 0.00195618 0.00142809
v -0.00155688 0.00196625 0.00138948
v -0.00150233 0.00210746 0.00135000
v -0.00150754 0.00207992 0.00135000
v -0.00151099 0.00198561 0.00158654
v -0.00151031 0.00201876 0.00153778
v -0.00150980 0.00204397 0.00148634
v -0.00150959 0.00205475 0.00145590
v -0.00150935 0.00206670 0.00140352
v -0.00150928 0.00207074 0.00135000
v -0.00152073 0.00203517 0.00135000
v -0.00152863 0.00201823 0.00135000
v -0.00153653 0.00200130 0.00135000
v -0.00155641 0.00196965 0.00135000
v -0.00156232 0.00196242 0.00135000
v -0.00158267 0.00192814 0.00142018
v -0.00158072 0.00193755 0.00138547
v -0.00158007 0.00194073 0.00135000
v -0.00150233 0.00210746 0.00030000
v -0.00150754 0.00207992 0.00030000
v -0.00150928 0.00207074 0.00030000
v -0.00152073 0.00203517 0.00030000
v -0.00152863 0.00201823 0.00030000
v -0.00153653 0.00200130 0.00030000
v -0.00155641 0.00196965 0.00030000
v -0.00156232 0.00196242 0.00030000
v -0.00158007 0.00194073 0.00030000
v -0.00166948 0.00170548 0.00006581
v -0.00162017 0.00175310 0.00005924
v -0.00160490 0.00182299 0.00009979
v -0.00159042 0.00189099 0.00016382
v -0.00158257 0.00192864 0.00023119
v -0.00158021 0.00194002 0.00028322
v -0.00150929 0.00206984 0.00027468
v -0.00152077 0.00203431 0.00027702
v -0.00153037 0.00185802 0.00000000
v -0.00152748 0.00189438 0.00002629
v -0.00151383 0.00192088 0.00000000
v -0.00153429 0.00184315 0.00000000
v -0.00153663 0.00183703 0.00000000
v -0.00155272 0.00182029 0.00002098
v -0.00155964 0.00177703 0.00000000
v -0.00155560 0.00178991 0.00000429
v -0.00155253 0.00179556 0.00000000
v -0.00157841 0.00172807 0.00000000
v -0.00158416 0.00171578 -0.00000000
v -0.00159456 0.00171026 0.00000913
v -0.00160243 0.00167674 -0.00000000
v -0.00167299 0.00153000 -0.00000000
v -0.00166854 0.00154031 0.00000036
v -0.00166726 0.00154155 -0.00000000
v -0.00171326 0.00144882 0.00000000
v -0.00175393 0.00136278 -0.00000000
v -0.00179683 0.00127202 0.00000000
v -0.00163960 0.00159730 0.00000000
v -0.00165045 0.00161866 0.00001431
v -0.00162658 0.00162512 -0.00000000
v -0.00164711 0.00163327 0.00001774
v -0.00161873 0.00164191 -0.00000000
v -0.00163283 0.00169628 0.00003622
v -0.00158532 0.00177011 0.00003384
v -0.00154827 0.00186807 0.00005337
v -0.00152535 0.00193752 0.00006658
v -0.00151136 0.00196789 0.00004221
v -0.00151273 0.00192506 0.00000000
v -0.00150039 0.00202055 -0.00000000
v -0.00150046 0.00201761 0.00000000
v -0.00150285 0.00199946 0.00001687
v -0.00150470 0.00198315 0.00000000
v -0.00151107 0.00193140 0.00000000
v -0.00150264 0.00204132 0.00007442
v -0.00150233 0.00210651 0.00027227
v -0.00155651 0.00196890 0.00028132
v -0.00153660 0.00200049 0.00027924
v -0.00158148 0.00193390 0.00024813
v -0.00155741 0.00196235 0.00024227
v -0.00153719 0.00199352 0.00023585
v -0.00152111 0.00202694 0.00022897
v -0.00150945 0.00206207 0.00022174
v -0.00150237 0.00209835 0.00021426
v -0.00155819 0.00195671 0.00022344
v -0.00153770 0.00198753 0.00021492
v -0.00152140 0.00202059 0.00020578
v -0.00150958 0.00205538 0.00019617
v -0.00150240 0.00209133 0.00018624
v -0.00158581 0.00191303 0.00019691
v -0.00156052 0.00194002 0.00018535
v -0.00153922 0.00196979 0.00017259
v -0.00152228 0.00200183 0.00015887
v -0.00150997 0.00203560 0.00014440
v -0.00150250 0.00207056 0.00012942
v -0.00156382 0.00191649 0.00014866
v -0.00154140 0.00194478 0.00013183
v -0.00152353 0.00197539 0.00011363
v -0.00151053 0.00200775 0.00009438
v -0.00159712 0.00185930 0.00012936
v -0.00156865 0.00188270 0.00011058
v -0.00154457 0.00190895 0.00008952
v -0.00157426 0.00184411 0.00007804
v -0.00161418 0.00178034 0.00007309
v -0.00158097 0.00179890 0.00004887
v -0.00170507 0.00158749 0.00003015
v -0.00171059 0.00145420 -0.00000000
v 0.00000958 0.00255365 -0.00007131
v 0.00001391 0.00254253 -0.00006271
v -0.00150000 0.00254272 -0.00006246
v 0.00009692 0.00240886 -0.00000409
v 0.00010444 0.00239944 -0.00000331
v 0.00012441 0.00237441 -0.00000124
v 0.00005354 0.00246795 -0.00002029
v 0.00006031 0.00245874 -0.00001777
v -0.00150000 0.00242467 -0.00000717
v 0.00008555 0.00242435 -0.00000834
v 0.00009284 0.00241442 -0.00000562
v 0.00002129 0.00252571 -0.00005093
v 0.00002808 0.00251286 -0.00004359
v -0.00150000 0.00248673 -0.00002832
v 0.00004197 0.00248660 -0.00002857
v 0.00004345 0.00248379 -0.00002696
v 0.00001811 0.00253173 -0.00005438
v 0.00000757 0.00256208 -0.00007981
v -0.00150000 0.00295728 -0.00053754
v -0.00000000 0.00295728 -0.00053754
v -0.00150000 0.00301327 -0.00057168
v -0.00000000 0.00301327 -0.00057168
v -0.00150000 0.00307533 -0.00059283
v -0.00000000 0.00307533 -0.00059283
v 0.00016602 0.00232541 -0.00000000
v 0.00016199 0.00233004 -0.00000000
v 0.00015767 0.00236250 0.00001665
v 0.00008555 0.00242435 -0.00000834
v 0.00006031 0.00245874 -0.00001777
v 0.00005917 0.00247717 -0.00000110
v 0.00002129 0.00252571 -0.00005093
v 0.00002680 0.00251539 -0.00004056
v 0.00002808 0.00251286 -0.00004359
v 0.00000958 0.00255365 -0.00007131
v 0.00000757 0.00256208 -0.00007981
v 0.00000671 0.00260371 -0.00003373
v 0.00000093 0.00258995 -0.00010795
v 0.00001391 0.00254253 -0.00006271
v 0.00002652 0.00255664 0.00000389
v 0.00001811 0.00253173 -0.00005438
v 0.00005354 0.00246795 -0.00002029
v 0.00004345 0.00248379 -0.00002696
v 0.00004197 0.00248660 -0.00002857
v 0.00010242 0.00244456 0.00003256
v 0.00009284 0.00241442 -0.00000562
v 0.00010364 0.00240784 0.00000262
v 0.00009692 0.00240886 -0.00000409
v 0.00010444 0.00239944 -0.00000331
v 0.00013632 0.00235949 0.00000000
v 0.00012441 0.00237441 -0.00000124
v 0.00015637 0.00238590 0.00003188
v 0.00021738 0.00234956 0.00003723
v 0.00022033 0.00231394 0.00001882
v 0.00022363 0.00227649 0.00000518
v 0.00020529 0.00228037 -0.00000000
v 0.00022633 0.00225623 -0.00000000
v 0.00023071 0.00225121 -0.00000000
v 0.00023413 0.00224728 0.00000000
v 0.00026922 0.00221113 0.00000000
v 0.00029753 0.00218197 0.00000000
v 0.00021567 0.00237119 0.00005150
v 0.00020888 0.00246497 0.00016042
v 0.00021027 0.00244470 0.00012654
v 0.00021137 0.00242908 0.00010582
v 0.00021335 0.00240180 0.00007671
v 0.00015460 0.00241906 0.00005889
v 0.00015309 0.00244864 0.00009019
v 0.00015226 0.00246559 0.00011251
v 0.00015120 0.00248761 0.00014906
v 0.00015040 0.00250482 0.00018844
v 0.00020782 0.00248081 0.00019687
v 0.00015001 0.00251326 0.00021536
v 0.00020731 0.00248857 0.00022177
v 0.00026853 0.00247756 0.00023332
v 0.00000666 0.00263015 0.00000201
v 0.00002636 0.00258027 0.00003550
v 0.00000661 0.00266446 0.00006034
v 0.00002616 0.00261094 0.00008719
v 0.00000658 0.00269124 0.00012299
v 0.00002601 0.00263489 0.00014278
v 0.00000656 0.00270436 0.00016575
v 0.00002594 0.00264663 0.00018074
v 0.00000654 0.00271726 0.00023208
v 0.00002587 0.00265816 0.00023965
v 0.00005856 0.00251388 0.00003806
v 0.00010139 0.00247734 0.00006726
v 0.00005821 0.00253491 0.00006596
v 0.00010081 0.00249612 0.00009201
v 0.00005779 0.00256224 0.00011162
v 0.00010009 0.00252052 0.00013255
v 0.00005746 0.00258359 0.00016079
v 0.00009954 0.00253959 0.00017623
v 0.00005730 0.00259405 0.00019439
v 0.00009927 0.00254894 0.00020610
v 0.00005715 0.00260434 0.00024655
v 0.00009901 0.00255813 0.00025247
v 0.00020682 0.00249619 0.00026041
v 0.00014964 0.00252155 0.00025716
v 0.00000653 0.00272162 0.00030000
v 0.00000975 0.00271171 0.00030000
v 0.00002584 0.00266207 0.00030000
v 0.00003625 0.00264400 0.00030000
v 0.00005710 0.00260782 0.00030000
v 0.00007801 0.00258453 0.00030000
v 0.00009893 0.00256124 0.00030000
v 0.00013266 0.00253664 0.00030000
v 0.00020665 0.00249878 0.00030000
v 0.00019715 0.00250303 0.00030000
v 0.00014951 0.00252436 0.00030000
v 0.00020665 0.00249878 0.00135000
v 0.00019715 0.00250303 0.00135000
v 0.00014951 0.00252436 0.00135000
v 0.00013266 0.00253664 0.00135000
v 0.00009893 0.00256124 0.00135000
v 0.00007801 0.00258453 0.00135000
v 0.00005710 0.00260782 0.00135000
v 0.00003625 0.00264400 0.00135000
v 0.00002584 0.00266207 0.00135000
v 0.00000975 0.00271171 0.00135000
v 0.00000653 0.00272162 0.00135000
v 0.00021668 0.00235835 0.00160728
v 0.00021270 0.00241058 0.00156472
v 0.00020848 0.00247083 0.00147756
v 0.00020710 0.00249176 0.00141503
v 0.00020672 0.00249767 0.00137598
v 0.00000245 0.00267780 0.00163675
v 0.00000350 0.00266188 0.00164038
v 0.00000665 0.00264235 0.00162913
v 0.00001335 0.00259808 0.00164916
v 0.00001509 0.00259178 0.00164934
v 0.00002644 0.00256784 0.00163181
v 0.00010566 0.00240375 0.00165000
v 0.00011580 0.00238869 0.00165000
v 0.00015714 0.00237201 0.00162750
v 0.00029753 0.00218197 0.00165000
v 0.00016126 0.00233028 0.00165000
v 0.00019515 0.00228959 0.00165000
v 0.00022273 0.00228647 0.00164171
v 0.00019719 0.00228714 0.00165000
v 0.00022516 0.00225981 0.00164923
v 0.00022179 0.00226135 0.00165000
v 0.00022709 0.00225580 0.00165000
v 0.00003590 0.00252864 0.00165000
v 0.00004918 0.00250192 0.00165000
v 0.00005897 0.00248898 0.00163958
v 0.00006103 0.00247806 0.00165000
v 0.00010208 0.00245511 0.00160724
v 0.00002669 0.00255302 0.00165000
v 0.00005839 0.00252385 0.00159933
v 0.00002655 0.00255344 0.00165000
v 0.00002134 0.00256912 0.00165000
v 0.00000457 0.00264547 0.00164414
v 0.00000716 0.00263152 0.00164562
v 0.00002629 0.00259117 0.00159779
v 0.00000660 0.00267436 0.00156898
v 0.00000654 0.00271974 0.00139458
v 0.00002586 0.00266039 0.00138961
v 0.00005712 0.00260632 0.00138508
v 0.00014957 0.00252315 0.00137812
v 0.00009896 0.00255990 0.00138119
v 0.00014986 0.00251673 0.00142036
v 0.00009916 0.00255278 0.00142806
v 0.00005724 0.00259836 0.00143779
v 0.00002591 0.00265145 0.00144913
v 0.00000655 0.00270976 0.00146158
v 0.00020755 0.00248496 0.00144075
v 0.00015019 0.00250933 0.00144818
v 0.00009939 0.00254459 0.00145892
v 0.00005737 0.00258919 0.00147250
v 0.00002597 0.00264117 0.00148834
v 0.00000657 0.00269826 0.00150574
v 0.00015090 0.00249397 0.00148795
v 0.00009988 0.00252757 0.00150304
v 0.00005766 0.00257013 0.00152216
v 0.00002611 0.00261979 0.00154447
v 0.00020977 0.00245191 0.00151251
v 0.00015188 0.00247342 0.00152569
v 0.00010055 0.00250479 0.00154489
v 0.00005806 0.00254463 0.00156929
v 0.00021084 0.00243648 0.00153481
v 0.00015269 0.00245667 0.00154972
v 0.00010111 0.00248624 0.00157155
v 0.00015411 0.00242858 0.00158191
v 0.00021493 0.00238080 0.00159128
v 0.00015580 0.00239631 0.00161039
v 0.00010325 0.00241937 0.00163882
v 0.00007628 0.00244738 0.00165000
v 0.00008801 0.00242995 0.00165000
v 0.00021951 0.00232367 0.00162672
v 0.00015930 0.00233451 0.00164818
v 0.00012924 0.00236873 0.00165000
v 0.00015557 0.00233712 0.00165000
v 0.00026031 0.00222098 0.00165000
v -0.00000000 0.00620000 -0.00005000
v -0.00020000 0.00620000 -0.00030000
v -0.00000000 0.01060000 -0.00005000
v -0.00020000 0.01060000 -0.00030000
v -0.00020000 0.00620000 -0.00030000
v -0.00000000 0.00620000 -0.00055000
v -0.00020000 0.01060000 -0.00030000
v -0.00000000 0.01060000 -0.00055000
v -0.00000000 0.00620000 -0.00055000
v -0.00020000 0.00620000 -0.00030000
v -0.00000000 0.00620000 -0.00005000
v -0.00150000 0.00278181 0.00160251
v 0.00000000 0.00287531 0.00154528
v -0.00150000 0.00287531 0.00154528
v 0.00000000 0.00295409 0.00146906
v -0.00150000 0.00295409 0.00146906
v 0.00000000 0.00301437 0.00137750
v -0.00150000 0.00301437 0.00137750
v -0.00150000 0.00267808 0.00163798
v 0.00000000 0.00271507 0.00162823
v 0.00000000 0.00278181 0.00160251
v 0.00001509 0.00259178 0.00164934
v 0.00001335 0.00259808 0.00164916
v 0.00000716 0.00263152 0.00164562
v 0.00000457 0.00264547 0.00164414
v 0.00000350 0.00266188 0.00164038
v 0.00000245 0.00267780 0.00163675
f 1 2 3
f 3 2 4
f 3 4 5
f 5 4 6
f 5 6 7
f 7 6 8
f 7 8 9
f 9 8 10
f 9 10 11
f 11 10 12
f 11 12 13
f 13 12 14
f 13 14 15
f 15 14 16
f 15 16 17
f 17 16 18
f 17 18 19
f 19 18 20
f 19 20 21
f 21 20 22
f 21 22 23
f 23 22 24
f 23 24 25
f 25 24 26
f 25 26 27
f 27 26 28
f 27 28 29
f 29 28 30
f 29 30 31
f 31 30 32
f 31 32 33
f 33 32 34
f 33 34 35
f 35 34 36
f 35 36 37
f 37 36 38
f 37 38 39
f 39 38 40
f 39 40 41
f 41 40 42
f 41 42 43
f 43 42 44
f 43 44 45
f 45 44 46
f 45 46 47
f 47 46 48
f 47 48 49
f 49 48 50
f 49 50 51
f 51 50 52
f 51 52 53
f 53 52 54
f 53 54 55
f 55 54 56
f 55 56 57
f 57 56 58
f 57 58 59
f 59 58 60
f 59 60 61
f 61 60 62
f 61 62 63
f 63 62 64
f 63 64 65
f 65 64 66
f 65 66 67
f 67 66 68
f 67 68 69
f 69 68 70
f 69 70 71
f 71 70 72
f 71 72 73
f 73 72 74
f 73 74 75
f 75 74 76
f 75 76 77
f 77 76 78
f 77 78 79
f 79 78 80
f 79 80 81
f 81 80 82
f 81 82 83
f 83 82 84
f 83 84 85
f 85 84 86
f 85 86 87
f 87 86 88
f 87 88 89
f 89 88 90
f 89 90 91
f 91 90 92
f 91 92 93
f 93 92 94
f 93 94 95
f 95 94 96
f 95 96 97
f 97 96 98
f 97 98 99
f 99 98 100
f 99 100 101
f 101 100 102
f 101 102 103
f 103 102 104
f 103 104 105
f 105 104 106
f 105 106 107
f 107 106 108
f 107 108 109
f 109 108 110
f 109 110 111
f 111 110 112
f 111 112 113
f 113 112 114
f 113 114 115
f 115 114 116
f 115 116 117
f 117 116 118
f 117 118 119
f 119 118 120
f 119 120 121
f 121 120 122
f 121 122 123
f 123 122 124
f 123 124 125
f 125 124 126
f 125 126 127
f 127 126 128
f 127 128 129
f 129 128 130
f 129 130 131
f 131 130 132
f 131 132 133
f 133 132 134
f 133 134 135
f 135 134 136
f 135 136 137
f 137 136 138
f 137 138 139
f 139 138 140
f 139 140 141
f 141 140 142
f 141 142 143
f 143 142 144
f 143 144 145
f 145 144 146
f 145 146 147
f 147 146 148
f 147 148 149
f 149 148 150
f 149 150 151
f 151 150 152
f 151 152 153
f 153 152 154
f 153 154 155
f 155 154 156
f 155 156 157
f 157 156 158
f 157 158 159
f 159 158 160
f 161 162 163
f 164 165 166
f 166 165 167
f 168 169 170
f 171 172 173
f 173 172 167
f 173 167 174
f 174 167 165
f 175 176 177
f 171 178 172
f 172 178 179
f 172 179 180
f 164 166 181
f 181 166 182
f 181 182 183
f 184 185 186
f 187 188 177
f 177 188 189
f 177 189 175
f 184 186 190
f 191 192 187
f 186 193 190
f 190 193 194
f 190 194 182
f 182 194 195
f 182 195 183
f 185 184 196
f 196 184 197
f 196 197 198
f 162 161 187
f 187 161 199
f 187 199 191
f 200 170 201
f 201 170 202
f 198 197 203
f 203 197 204
f 203 204 205
f 175 206 176
f 176 206 207
f 176 207 208
f 169 168 209
f 209 168 210
f 209 210 211
f 163 212 161
f 161 212 213
f 161 213 214
f 214 213 209
f 214 209 215
f 216 217 170
f 170 217 218
f 170 218 202
f 200 219 170
f 170 219 220
f 170 220 168
f 205 204 221
f 221 204 222
f 221 222 223
f 192 224 187
f 187 224 225
f 187 225 226
f 227 228 187
f 187 228 229
f 187 229 188
f 211 230 209
f 209 230 231
f 209 231 232
f 233 234 170
f 170 234 235
f 236 237 238
f 226 239 187
f 187 239 240
f 187 240 227
f 232 241 209
f 209 241 242
f 209 242 215
f 238 243 170
f 170 243 244
f 244 245 170
f 170 245 246
f 170 246 233
f 235 247 170
f 170 247 248
f 170 248 216
f 179 249 180
f 180 249 250
f 180 250 251
f 251 250 252
f 251 252 238
f 238 252 253
f 238 253 236
f 237 254 238
f 238 254 255
f 238 255 256
f 256 257 238
f 238 257 258
f 238 258 243
f 207 259 208
f 208 259 260
f 208 260 261
f 260 262 261
f 261 262 263
f 261 263 222
f 222 263 264
f 222 264 223
f 265 266 267
f 267 266 268
f 267 268 269
f 269 268 270
f 269 270 271
f 271 270 272
f 271 272 273
f 273 272 274
f 273 274 275
f 275 274 276
f 275 276 277
f 277 276 278
f 277 278 279
f 279 278 280
f 279 280 281
f 281 280 282
f 281 282 283
f 283 282 284
f 283 284 285
f 285 284 286
f 285 286 287
f 287 286 288
f 287 288 289
f 289 288 290
f 289 290 291
f 291 290 292
f 291 292 293
f 293 292 294
f 293 294 295
f 295 294 296
f 295 296 297
f 297 296 298
f 297 298 299
f 299 298 300
f 299 300 301
f 301 300 302
f 301 302 303
f 303 302 304
f 303 304 305
f 305 304 306
f 305 306 307
f 307 306 308
f 307 308 309
f 309 308 310
f 309 310 311
f 311 310 312
f 311 312 265
f 265 312 266
f 313 314 315
f 315 314 316
f 315 316 317
f 318 319 320
f 317 316 321
f 321 316 322
f 321 322 323
f 324 325 326
f 327 328 329
f 323 322 330
f 330 322 331
f 330 331 332
f 333 334 335
f 336 337 338
f 338 337 339
f 338 339 340
f 341 342 338
f 338 342 343
f 338 343 344
f 344 343 345
f 346 327 347
f 347 327 348
f 349 350 327
f 320 351 352
f 320 319 353
f 353 319 354
f 353 354 355
f 356 357 358
f 358 357 359
f 358 359 335
f 335 359 360
f 335 360 333
f 326 361 324
f 324 361 362
f 324 362 327
f 327 362 363
f 327 363 364
f 365 366 367
f 368 369 338
f 340 370 338
f 338 370 371
f 338 371 341
f 346 372 327
f 327 372 373
f 327 373 374
f 374 375 327
f 327 375 376
f 327 376 328
f 355 377 353
f 353 377 324
f 353 324 378
f 378 324 327
f 378 327 379
f 379 327 350
f 352 380 320
f 320 380 381
f 320 381 318
f 332 331 382
f 382 331 383
f 382 383 384
f 313 385 314
f 314 385 386
f 314 386 367
f 367 386 387
f 367 387 365
f 348 327 338
f 338 327 388
f 338 388 368
f 369 389 338
f 338 389 390
f 338 390 391
f 391 392 338
f 338 392 393
f 338 393 336
f 345 343 394
f 394 343 395
f 394 395 396
f 396 395 397
f 396 397 398
f 399 400 383
f 383 400 401
f 383 401 384
f 333 402 334
f 334 402 403
f 334 403 399
f 399 403 404
f 399 404 400
f 364 405 327
f 327 405 406
f 327 406 407
f 407 406 408
f 329 409 327
f 327 409 410
f 327 410 411
f 356 358 412
f 412 358 413
f 412 413 324
f 324 413 414
f 324 414 325
f 415 416 408
f 408 416 417
f 408 417 407
f 365 418 366
f 366 418 419
f 366 419 420
f 419 421 420
f 420 421 422
f 420 422 415
f 415 422 423
f 415 423 416
f 411 424 327
f 327 424 425
f 327 425 349
f 426 427 428
f 429 430 431
f 428 432 426
f 426 432 433
f 426 433 434
f 434 433 435
f 434 435 436
f 436 435 437
f 436 437 438
f 439 440 441
f 442 443 444
f 444 443 445
f 446 447 448
f 448 447 429
f 448 429 449
f 449 429 431
f 450 451 452
f 452 451 453
f 452 453 438
f 438 453 454
f 438 454 436
f 455 426 456
f 456 426 439
f 456 439 457
f 457 439 441
f 427 458 459
f 459 458 460
f 459 460 443
f 443 460 461
f 443 461 445
f 430 429 452
f 452 429 462
f 452 462 450
f 455 463 426
f 426 463 464
f 426 464 427
f 427 464 465
f 427 465 458
f 466 467 468
f 469 470 471
f 468 469 466
f 466 469 471
f 466 471 472
f 472 471 473
f 472 473 474
f 475 476 477
f 478 479 475
f 470 480 471
f 471 480 481
f 471 481 482
f 482 481 475
f 482 475 483
f 483 475 477
f 484 485 486
f 487 476 488
f 488 476 475
f 488 475 489
f 489 475 479
f 487 490 476
f 476 490 491
f 476 491 492
f 485 484 493
f 493 484 494
f 493 494 495
f 495 494 496
f 495 496 497
f 497 496 498
f 497 498 499
f 475 500 478
f 478 500 501
f 478 501 486
f 486 501 502
f 486 502 484
f 503 504 505
f 505 504 506
f 507 508 509
f 510 511 512
f 512 511 507
f 512 507 513
f 513 507 509
f 514 515 516
f 516 515 517
f 514 516 518
f 514 518 519
f 519 518 520
f 519 520 521
f 521 520 522
f 521 522 523
f 523 522 524
f 523 524 525
f 525 524 526
f 525 526 527
f 527 526 528
f 527 528 529
f 529 528 530
f 529 530 531
f 5 7 532
f 15 17 533
f 35 37 534
f 59 61 535
f 93 95 536
f 117 119 537
f 121 123 538
f 141 143 539
f 145 147 540
f 541 542 543
f 351 320 544
f 545 546 547
f 548 549 550
f 3 551 552
f 552 553 3
f 3 553 554
f 3 554 1
f 555 556 551
f 551 556 557
f 557 558 551
f 551 558 559
f 551 559 552
f 550 560 555
f 555 560 561
f 561 562 555
f 555 562 563
f 555 563 556
f 549 564 550
f 550 564 565
f 550 565 560
f 566 567 568
f 568 567 569
f 548 570 571
f 571 570 568
f 571 568 572
f 572 568 569
f 320 353 573
f 573 353 378
f 573 378 574
f 574 575 566
f 566 575 576
f 566 576 567
f 577 578 579
f 579 578 580
f 579 580 581
f 582 583 584
f 584 583 585
f 586 587 588
f 588 587 589
f 546 590 547
f 547 590 591
f 547 591 592
f 593 594 595
f 595 594 596
f 157 159 597
f 423 422 598
f 598 422 599
f 598 599 600
f 384 401 601
f 601 401 602
f 601 602 603
f 360 359 604
f 604 359 605
f 604 605 606
f 355 354 607
f 607 354 608
f 607 608 609
f 381 542 318
f 318 542 541
f 318 541 319
f 416 423 610
f 610 423 598
f 610 598 611
f 611 598 600
f 611 600 612
f 382 384 613
f 613 384 601
f 613 601 614
f 614 601 603
f 614 603 615
f 333 360 616
f 616 360 604
f 616 604 617
f 617 604 606
f 617 606 618
f 377 355 619
f 619 355 607
f 619 607 620
f 620 607 609
f 620 609 621
f 622 543 623
f 623 543 542
f 623 542 624
f 624 542 381
f 624 381 380
f 417 416 625
f 625 416 610
f 625 610 626
f 626 610 611
f 626 611 627
f 627 611 612
f 627 612 628
f 332 382 629
f 629 382 613
f 629 613 630
f 630 613 614
f 630 614 631
f 631 614 615
f 631 615 632
f 402 333 633
f 633 333 616
f 633 616 634
f 634 616 617
f 634 617 635
f 635 617 618
f 635 618 636
f 324 377 637
f 637 377 619
f 637 619 638
f 638 619 620
f 638 620 639
f 639 620 621
f 639 621 640
f 641 622 642
f 642 622 623
f 642 623 643
f 643 623 624
f 643 624 644
f 644 624 380
f 644 380 352
f 407 417 645
f 645 417 625
f 645 625 646
f 646 625 626
f 646 626 647
f 647 626 627
f 647 627 648
f 648 627 628
f 648 628 649
f 650 651 652
f 330 332 653
f 653 332 629
f 653 629 654
f 654 629 630
f 654 630 655
f 655 630 631
f 655 631 656
f 656 631 632
f 656 632 657
f 658 659 660
f 403 402 661
f 661 402 633
f 661 633 662
f 662 633 634
f 662 634 663
f 663 634 635
f 663 635 664
f 664 635 636
f 664 636 665
f 666 667 668
f 412 324 669
f 669 324 637
f 669 637 670
f 670 637 638
f 670 638 671
f 671 638 639
f 671 639 672
f 672 639 640
f 672 640 673
f 674 675 676
f 533 641 677
f 677 641 642
f 677 642 678
f 678 642 643
f 678 643 679
f 679 643 644
f 679 644 680
f 680 644 352
f 680 352 351
f 596 545 595
f 595 545 547
f 595 547 681
f 149 151 682
f 682 151 681
f 682 681 683
f 683 681 547
f 683 547 588
f 588 547 592
f 588 592 586
f 684 651 685
f 685 651 650
f 685 650 686
f 125 127 687
f 687 127 686
f 687 686 688
f 688 686 650
f 688 650 689
f 689 650 652
f 689 652 690
f 418 365 691
f 691 365 692
f 691 692 693
f 693 692 694
f 693 694 695
f 695 694 696
f 695 696 697
f 697 696 698
f 697 698 699
f 699 698 700
f 386 385 701
f 701 385 702
f 701 702 703
f 703 702 704
f 703 704 705
f 705 704 706
f 705 706 707
f 707 706 708
f 707 708 709
f 709 708 710
f 317 321 711
f 711 321 712
f 711 712 713
f 713 712 714
f 713 714 715
f 715 714 716
f 715 716 717
f 717 716 718
f 717 718 719
f 719 718 720
f 721 659 722
f 722 659 658
f 722 658 723
f 67 69 724
f 724 69 723
f 724 723 725
f 725 723 658
f 725 658 726
f 726 658 660
f 726 660 727
f 400 404 728
f 728 404 729
f 728 729 730
f 730 729 731
f 730 731 732
f 732 731 733
f 732 733 734
f 734 733 735
f 734 735 736
f 736 735 535
f 737 667 738
f 738 667 666
f 738 666 739
f 43 45 740
f 740 45 739
f 740 739 741
f 741 739 666
f 741 666 742
f 742 666 668
f 742 668 743
f 357 356 744
f 744 356 745
f 744 745 746
f 746 745 747
f 746 747 748
f 748 747 749
f 748 749 750
f 750 749 751
f 750 751 752
f 752 751 534
f 753 675 754
f 754 675 674
f 754 674 755
f 19 21 756
f 756 21 755
f 756 755 757
f 757 755 674
f 757 674 758
f 758 674 676
f 758 676 759
f 597 593 157
f 157 593 595
f 157 595 155
f 155 595 681
f 155 681 153
f 153 681 151
f 147 149 540
f 540 149 682
f 540 682 760
f 760 682 683
f 760 683 761
f 761 683 588
f 761 588 583
f 583 588 589
f 583 589 585
f 143 145 539
f 539 145 540
f 539 540 762
f 762 540 760
f 762 760 763
f 763 760 761
f 763 761 764
f 764 761 583
f 764 583 579
f 579 583 582
f 579 582 577
f 139 141 649
f 649 141 539
f 649 539 648
f 648 539 762
f 648 762 647
f 647 762 763
f 647 763 646
f 646 763 764
f 646 764 645
f 645 764 579
f 645 579 407
f 407 579 581
f 407 581 327
f 599 690 600
f 600 690 652
f 600 652 612
f 612 652 651
f 612 651 628
f 628 651 684
f 628 684 649
f 649 684 137
f 649 137 139
f 127 129 686
f 686 129 131
f 686 131 685
f 685 131 133
f 685 133 684
f 684 133 135
f 684 135 137
f 123 125 538
f 538 125 687
f 538 687 765
f 765 687 688
f 765 688 766
f 766 688 689
f 766 689 767
f 767 689 690
f 767 690 768
f 768 690 599
f 768 599 421
f 421 599 422
f 119 121 537
f 537 121 538
f 537 538 769
f 769 538 765
f 769 765 770
f 770 765 766
f 770 766 771
f 771 766 767
f 771 767 772
f 772 767 768
f 772 768 419
f 419 768 421
f 419 418 772
f 772 418 691
f 772 691 771
f 771 691 693
f 771 693 770
f 770 693 695
f 770 695 769
f 769 695 697
f 769 697 537
f 537 697 699
f 537 699 117
f 107 109 773
f 773 109 700
f 773 700 774
f 774 700 698
f 774 698 775
f 775 698 696
f 775 696 776
f 776 696 694
f 776 694 777
f 777 694 692
f 777 692 387
f 387 692 365
f 109 111 700
f 700 111 113
f 700 113 699
f 699 113 115
f 699 115 117
f 387 386 777
f 777 386 701
f 777 701 776
f 776 701 703
f 776 703 775
f 775 703 705
f 775 705 774
f 774 705 707
f 774 707 773
f 773 707 709
f 773 709 107
f 97 99 778
f 778 99 710
f 778 710 779
f 779 710 708
f 779 708 780
f 780 708 706
f 780 706 781
f 781 706 704
f 781 704 782
f 782 704 702
f 782 702 313
f 313 702 385
f 99 101 710
f 710 101 103
f 710 103 709
f 709 103 105
f 709 105 107
f 95 97 536
f 536 97 778
f 536 778 783
f 783 778 779
f 783 779 784
f 784 779 780
f 784 780 785
f 785 780 781
f 785 781 786
f 786 781 782
f 786 782 315
f 315 782 313
f 315 317 786
f 786 317 711
f 786 711 785
f 785 711 713
f 785 713 784
f 784 713 715
f 784 715 783
f 783 715 717
f 783 717 536
f 536 717 719
f 536 719 93
f 83 85 787
f 787 85 720
f 787 720 788
f 788 720 718
f 788 718 789
f 789 718 716
f 789 716 790
f 790 716 714
f 790 714 791
f 791 714 712
f 791 712 323
f 323 712 321
f 85 87 720
f 720 87 89
f 720 89 719
f 719 89 91
f 719 91 93
f 81 83 657
f 657 83 787
f 657 787 656
f 656 787 788
f 656 788 655
f 655 788 789
f 655 789 654
f 654 789 790
f 654 790 653
f 653 790 791
f 653 791 330
f 330 791 323
f 602 727 603
f 603 727 660
f 603 660 615
f 615 660 659
f 615 659 632
f 632 659 721
f 632 721 657
f 657 721 79
f 657 79 81
f 69 71 723
f 723 71 73
f 723 73 722
f 722 73 75
f 722 75 721
f 721 75 77
f 721 77 79
f 65 67 736
f 736 67 724
f 736 724 734
f 734 724 725
f 734 725 732
f 732 725 726
f 732 726 730
f 730 726 727
f 730 727 728
f 728 727 602
f 728 602 400
f 400 602 401
f 535 61 736
f 736 61 63
f 736 63 65
f 57 59 665
f 665 59 535
f 665 535 664
f 664 535 735
f 664 735 663
f 663 735 733
f 663 733 662
f 662 733 731
f 662 731 661
f 661 731 729
f 661 729 403
f 403 729 404
f 605 743 606
f 606 743 668
f 606 668 618
f 618 668 667
f 618 667 636
f 636 667 737
f 636 737 665
f 665 737 55
f 665 55 57
f 45 47 739
f 739 47 49
f 739 49 738
f 738 49 51
f 738 51 737
f 737 51 53
f 737 53 55
f 41 43 752
f 752 43 740
f 752 740 750
f 750 740 741
f 750 741 748
f 748 741 742
f 748 742 746
f 746 742 743
f 746 743 744
f 744 743 605
f 744 605 357
f 357 605 359
f 534 37 752
f 752 37 39
f 752 39 41
f 33 35 673
f 673 35 534
f 673 534 672
f 672 534 751
f 672 751 671
f 671 751 749
f 671 749 670
f 670 749 747
f 670 747 669
f 669 747 745
f 669 745 412
f 412 745 356
f 608 759 609
f 609 759 676
f 609 676 621
f 621 676 675
f 621 675 640
f 640 675 753
f 640 753 673
f 673 753 31
f 673 31 33
f 21 23 755
f 755 23 25
f 755 25 754
f 754 25 27
f 754 27 753
f 753 27 29
f 753 29 31
f 17 19 533
f 533 19 756
f 533 756 641
f 641 756 757
f 641 757 622
f 622 757 758
f 622 758 543
f 543 758 759
f 543 759 541
f 541 759 608
f 541 608 319
f 319 608 354
f 351 544 680
f 680 544 792
f 680 792 679
f 679 792 793
f 679 793 678
f 678 793 794
f 678 794 677
f 677 794 795
f 677 795 533
f 533 795 13
f 533 13 15
f 796 9 11
f 320 573 544
f 544 573 797
f 544 797 792
f 792 797 798
f 792 798 793
f 793 798 799
f 793 799 794
f 794 799 796
f 794 796 795
f 795 796 11
f 795 11 13
f 574 566 573
f 573 566 568
f 573 568 797
f 797 568 570
f 797 570 798
f 798 570 800
f 798 800 799
f 799 800 532
f 799 532 796
f 796 532 7
f 796 7 9
f 548 550 570
f 570 550 555
f 570 555 800
f 800 555 551
f 800 551 532
f 532 551 3
f 532 3 5
f 801 802 803
f 804 805 806
f 807 808 809
f 810 811 812
f 813 160 158
f 814 815 816
f 817 818 819
f 819 818 820
f 819 820 821
f 821 820 822
f 823 824 825
f 825 824 826
f 827 828 829
f 829 828 816
f 829 816 830
f 830 816 815
f 831 832 833
f 833 832 834
f 835 836 837
f 837 836 838
f 839 840 841
f 841 840 842
f 843 4 844
f 844 4 2
f 810 812 845
f 846 847 848
f 848 847 849
f 848 849 850
f 807 809 851
f 804 806 852
f 811 813 812
f 812 813 158
f 812 158 853
f 158 156 853
f 853 156 154
f 853 154 854
f 154 152 854
f 854 152 150
f 854 150 855
f 855 150 148
f 855 148 856
f 856 148 146
f 146 144 856
f 856 144 142
f 856 142 857
f 857 142 140
f 857 140 858
f 140 138 858
f 858 138 136
f 858 136 859
f 859 136 134
f 859 134 860
f 134 132 860
f 860 132 130
f 860 130 861
f 130 128 861
f 861 128 126
f 861 126 862
f 862 126 124
f 862 124 863
f 863 124 122
f 122 120 863
f 863 120 118
f 863 118 864
f 864 118 116
f 864 116 865
f 116 114 865
f 865 114 112
f 865 112 866
f 866 112 110
f 866 110 867
f 110 108 867
f 867 108 106
f 867 106 868
f 106 104 868
f 868 104 102
f 868 102 869
f 869 102 100
f 869 100 870
f 870 100 98
f 98 96 870
f 870 96 94
f 870 94 871
f 871 94 92
f 871 92 872
f 92 90 872
f 872 90 88
f 872 88 873
f 873 88 86
f 873 86 874
f 86 84 874
f 874 84 82
f 874 82 875
f 82 80 875
f 875 80 78
f 875 78 876
f 876 78 76
f 876 76 877
f 76 74 877
f 877 74 72
f 877 72 878
f 72 70 878
f 878 70 68
f 878 68 879
f 68 66 879
f 879 66 64
f 879 64 880
f 880 64 62
f 880 62 881
f 62 60 881
f 881 60 58
f 881 58 882
f 58 56 882
f 882 56 54
f 882 54 883
f 883 54 52
f 883 52 884
f 52 50 884
f 884 50 48
f 884 48 885
f 48 46 885
f 885 46 44
f 885 44 886
f 44 42 886
f 886 42 40
f 886 40 887
f 40 38 887
f 887 38 36
f 887 36 888
f 888 36 34
f 888 34 889
f 34 32 889
f 889 32 30
f 889 30 890
f 890 30 28
f 890 28 891
f 28 26 891
f 891 26 24
f 891 24 892
f 24 22 892
f 892 22 20
f 892 20 893
f 20 18 893
f 893 18 16
f 893 16 894
f 16 14 894
f 894 14 12
f 894 12 895
f 895 12 10
f 895 10 896
f 843 839 4
f 4 839 841
f 4 841 6
f 6 841 896
f 6 896 8
f 8 896 10
f 842 835 841
f 841 835 837
f 841 837 896
f 896 837 897
f 896 897 895
f 895 897 898
f 895 898 894
f 894 898 899
f 894 899 893
f 893 899 900
f 893 900 892
f 892 900 901
f 892 901 891
f 891 901 902
f 891 902 890
f 890 902 903
f 890 903 889
f 889 903 904
f 889 904 888
f 888 904 905
f 888 905 887
f 887 905 906
f 887 906 886
f 886 906 907
f 886 907 885
f 885 907 908
f 885 908 884
f 884 908 909
f 884 909 883
f 883 909 910
f 883 910 882
f 882 910 911
f 882 911 881
f 881 911 912
f 881 912 880
f 880 912 913
f 880 913 879
f 879 913 914
f 879 914 878
f 878 914 915
f 878 915 877
f 877 915 916
f 877 916 876
f 876 916 917
f 876 917 875
f 875 917 918
f 875 918 874
f 874 918 919
f 874 919 873
f 873 919 920
f 873 920 872
f 872 920 921
f 872 921 871
f 871 921 922
f 871 922 870
f 870 922 923
f 870 923 869
f 869 923 924
f 869 924 868
f 868 924 925
f 868 925 867
f 867 925 926
f 867 926 866
f 866 926 927
f 866 927 865
f 865 927 928
f 865 928 864
f 864 928 929
f 864 929 863
f 863 929 930
f 863 930 862
f 862 930 931
f 862 931 861
f 861 931 932
f 861 932 860
f 860 932 933
f 860 933 859
f 859 933 934
f 859 934 858
f 858 934 935
f 858 935 857
f 857 935 936
f 857 936 856
f 856 936 937
f 856 937 855
f 855 937 938
f 855 938 854
f 854 938 939
f 854 939 853
f 853 939 940
f 853 940 812
f 812 940 848
f 812 848 845
f 845 848 850
f 838 831 837
f 837 831 833
f 837 833 897
f 897 833 941
f 897 941 898
f 898 941 942
f 898 942 899
f 899 942 943
f 899 943 900
f 900 943 944
f 900 944 901
f 901 944 945
f 901 945 902
f 902 945 946
f 902 946 903
f 903 946 947
f 903 947 904
f 904 947 948
f 904 948 905
f 905 948 949
f 905 949 906
f 906 949 950
f 906 950 907
f 907 950 951
f 907 951 908
f 908 951 952
f 908 952 909
f 909 952 953
f 909 953 910
f 910 953 954
f 910 954 911
f 911 954 955
f 911 955 912
f 912 955 956
f 912 956 913
f 913 956 957
f 913 957 914
f 914 957 958
f 914 958 915
f 915 958 959
f 915 959 916
f 916 959 960
f 916 960 917
f 917 960 961
f 917 961 918
f 918 961 962
f 918 962 919
f 919 962 963
f 919 963 920
f 920 963 964
f 920 964 921
f 921 964 965
f 921 965 922
f 922 965 966
f 922 966 923
f 923 966 967
f 923 967 924
f 924 967 968
f 924 968 925
f 925 968 969
f 925 969 926
f 926 969 970
f 926 970 927
f 927 970 971
f 927 971 928
f 928 971 972
f 928 972 929
f 929 972 973
f 929 973 930
f 930 973 974
f 930 974 931
f 931 974 975
f 931 975 932
f 932 975 976
f 932 976 933
f 933 976 977
f 933 977 934
f 934 977 978
f 934 978 935
f 935 978 979
f 935 979 936
f 936 979 980
f 936 980 937
f 937 980 981
f 937 981 938
f 938 981 982
f 938 982 939
f 939 982 983
f 939 983 940
f 940 983 984
f 940 984 848
f 848 984 985
f 848 985 846
f 846 985 986
f 834 814 833
f 833 814 816
f 833 816 941
f 941 816 828
f 941 828 942
f 942 828 987
f 942 987 943
f 943 987 988
f 943 988 944
f 944 988 989
f 944 989 945
f 945 989 990
f 945 990 946
f 946 990 991
f 946 991 947
f 947 991 992
f 947 992 948
f 948 992 993
f 948 993 949
f 949 993 994
f 949 994 950
f 950 994 995
f 950 995 951
f 951 995 996
f 951 996 952
f 952 996 997
f 952 997 953
f 953 997 998
f 953 998 954
f 954 998 999
f 954 999 955
f 955 999 1000
f 955 1000 956
f 956 1000 1001
f 956 1001 957
f 957 1001 1002
f 957 1002 958
f 958 1002 1003
f 958 1003 959
f 959 1003 1004
f 959 1004 960
f 960 1004 1005
f 960 1005 961
f 961 1005 1006
f 961 1006 962
f 962 1006 1007
f 962 1007 963
f 963 1007 1008
f 963 1008 964
f 964 1008 1009
f 964 1009 965
f 965 1009 1010
f 965 1010 966
f 966 1010 1011
f 966 1011 967
f 967 1011 1012
f 967 1012 968
f 968 1012 1013
f 968 1013 969
f 969 1013 1014
f 969 1014 970
f 970 1014 1015
f 970 1015 971
f 971 1015 1016
f 971 1016 972
f 972 1016 1017
f 972 1017 973
f 973 1017 1018
f 973 1018 974
f 974 1018 1019
f 974 1019 975
f 975 1019 1020
f 975 1020 976
f 976 1020 1021
f 976 1021 977
f 977 1021 1022
f 977 1022 978
f 978 1022 1023
f 978 1023 979
f 979 1023 1024
f 979 1024 980
f 980 1024 1025
f 980 1025 981
f 981 1025 1026
f 981 1026 982
f 982 1026 1027
f 982 1027 983
f 983 1027 1028
f 983 1028 984
f 984 1028 1029
f 984 1029 985
f 985 1029 809
f 985 809 986
f 986 809 808
f 827 823 828
f 828 823 825
f 828 825 987
f 987 825 1030
f 987 1030 988
f 988 1030 1031
f 988 1031 989
f 989 1031 1032
f 989 1032 990
f 990 1032 1033
f 990 1033 991
f 991 1033 1034
f 991 1034 992
f 992 1034 1035
f 992 1035 993
f 993 1035 1036
f 993 1036 994
f 994 1036 1037
f 994 1037 995
f 995 1037 1038
f 995 1038 996
f 996 1038 1039
f 996 1039 997
f 997 1039 1040
f 997 1040 998
f 998 1040 1041
f 998 1041 999
f 999 1041 1042
f 999 1042 1000
f 1000 1042 1043
f 1000 1043 1001
f 1001 1043 1044
f 1001 1044 1002
f 1002 1044 1045
f 1002 1045 1003
f 1003 1045 1046
f 1003 1046 1004
f 1004 1046 1047
f 1004 1047 1005
f 1005 1047 1048
f 1005 1048 1006
f 1006 1048 1049
f 1006 1049 1007
f 1007 1049 1050
f 1007 1050 1008
f 1008 1050 1051
f 1008 1051 1009
f 1009 1051 1052
f 1009 1052 1010
f 1010 1052 1053
f 1010 1053 1011
f 1011 1053 1054
f 1011 1054 1012
f 1012 1054 1055
f 1012 1055 1013
f 1013 1055 1056
f 1013 1056 1014
f 1014 1056 1057
f 1014 1057 1015
f 1015 1057 1058
f 1015 1058 1016
f 1016 1058 1059
f 1016 1059 1017
f 1017 1059 1060
f 1017 1060 1018
f 1018 1060 1061
f 1018 1061 1019
f 1019 1061 1062
f 1019 1062 1020
f 1020 1062 1063
f 1020 1063 1021
f 1021 1063 1064
f 1021 1064 1022
f 1022 1064 1065
f 1022 1065 1023
f 1023 1065 1066
f 1023 1066 1024
f 1024 1066 1067
f 1024 1067 1025
f 1025 1067 1068
f 1025 1068 1026
f 1026 1068 1069
f 1026 1069 1027
f 1027 1069 1070
f 1027 1070 1028
f 1028 1070 1071
f 1028 1071 1029
f 1029 1071 1072
f 1029 1072 809
f 809 1072 806
f 809 806 851
f 851 806 805
f 826 817 825
f 825 817 819
f 825 819 1030
f 1030 819 821
f 1030 821 1031
f 1031 821 1073
f 1031 1073 1032
f 1032 1073 1074
f 1032 1074 1033
f 1033 1074 1075
f 1033 1075 1034
f 1034 1075 1076
f 1034 1076 1035
f 1035 1076 1077
f 1035 1077 1036
f 1036 1077 1078
f 1036 1078 1037
f 1037 1078 1079
f 1037 1079 1038
f 1038 1079 1080
f 1038 1080 1039
f 1039 1080 1081
f 1039 1081 1040
f 1040 1081 1082
f 1040 1082 1041
f 1041 1082 1083
f 1041 1083 1042
f 1042 1083 1084
f 1042 1084 1043
f 1043 1084 1085
f 1043 1085 1044
f 1044 1085 1086
f 1044 1086 1045
f 1045 1086 1087
f 1045 1087 1046
f 1046 1087 1088
f 1046 1088 1047
f 1047 1088 1089
f 1047 1089 1048
f 1048 1089 1090
f 1048 1090 1049
f 1049 1090 1091
f 1049 1091 1050
f 1050 1091 1092
f 1050 1092 1051
f 1051 1092 1093
f 1051 1093 1052
f 1052 1093 1094
f 1052 1094 1053
f 1053 1094 1095
f 1053 1095 1054
f 1054 1095 1096
f 1054 1096 1055
f 1055 1096 1097
f 1055 1097 1056
f 1056 1097 1098
f 1056 1098 1057
f 1057 1098 1099
f 1057 1099 1058
f 1058 1099 1100
f 1058 1100 1059
f 1059 1100 1101
f 1059 1101 1060
f 1060 1101 1102
f 1060 1102 1061
f 1061 1102 1103
f 1061 1103 1062
f 1062 1103 1104
f 1062 1104 1063
f 1063 1104 1105
f 1063 1105 1064
f 1064 1105 1106
f 1064 1106 1065
f 1065 1106 1107
f 1065 1107 1066
f 1066 1107 1108
f 1066 1108 1067
f 1067 1108 1109
f 1067 1109 1068
f 1068 1109 1110
f 1068 1110 1069
f 1069 1110 1111
f 1069 1111 1070
f 1070 1111 1112
f 1070 1112 1071
f 1071 1112 1113
f 1071 1113 1072
f 1072 1113 1114
f 1072 1114 806
f 806 1114 803
f 806 803 852
f 852 803 802
f 822 253 821
f 821 253 252
f 821 252 1073
f 1073 252 250
f 1073 250 1074
f 1074 250 249
f 1074 249 1075
f 1075 249 179
f 1075 179 1076
f 1076 179 178
f 1076 178 1077
f 1077 178 171
f 1077 171 1078
f 1078 171 173
f 1078 173 1079
f 1079 173 174
f 1079 174 1080
f 1080 174 165
f 1080 165 1081
f 1081 165 164
f 1081 164 1082
f 1082 164 181
f 1082 181 1083
f 1083 181 183
f 1083 183 1084
f 1084 183 195
f 1084 195 1085
f 1085 195 194
f 1085 194 1086
f 1086 194 193
f 1086 193 1087
f 1087 193 186
f 1087 186 1088
f 1088 186 185
f 1088 185 1089
f 1089 185 196
f 1089 196 1090
f 1090 196 198
f 1090 198 1091
f 1091 198 203
f 1091 203 1092
f 1092 203 205
f 1092 205 1093
f 1093 205 221
f 1093 221 1094
f 1094 221 223
f 1094 223 1095
f 1095 223 264
f 1095 264 1096
f 1096 264 263
f 1096 263 1097
f 1097 263 262
f 1097 262 1098
f 1098 262 260
f 1098 260 1099
f 1099 260 259
f 1099 259 1100
f 1100 259 207
f 1100 207 1101
f 1101 207 206
f 1101 206 1102
f 1102 206 175
f 1102 175 1103
f 1103 175 189
f 1103 189 1104
f 1104 189 188
f 1104 188 1105
f 1105 188 229
f 1105 229 1106
f 1106 229 228
f 1106 228 1107
f 1107 228 227
f 1107 227 1108
f 1108 227 240
f 1108 240 1109
f 1109 240 239
f 1109 239 1110
f 1110 239 226
f 1110 226 1111
f 1111 226 225
f 1111 225 1112
f 1112 225 224
f 1112 224 1113
f 1113 224 192
f 1113 192 1114
f 1114 192 191
f 1114 191 803
f 803 191 199
f 803 199 801
f 801 199 161
f 1115 1116 1117
f 1117 1116 1118
f 1117 1118 1119
f 1120 575 574
f 1121 442 444
f 1122 1123 1124
f 1124 1123 1121
f 1124 1121 1125
f 1126 1127 1122
f 1128 1129 1130
f 1130 1129 1131
f 1132 1128 1133
f 1134 1135 1136
f 1136 1135 1132
f 1136 1132 1137
f 1137 1132 1133
f 1134 1138 1139
f 1139 1138 1140
f 1139 1140 1141
f 1141 1140 1142
f 1143 1142 1144
f 572 569 1145
f 1145 569 1146
f 1146 569 567
f 1146 567 1120
f 1120 567 576
f 1120 576 575
f 378 1147 574
f 574 1147 1148
f 574 1148 1120
f 1145 1149 572
f 572 1149 1150
f 572 1150 571
f 571 1150 1151
f 564 549 1151
f 1151 549 548
f 1151 548 571
f 1149 1152 1150
f 1150 1152 1143
f 1150 1143 1151
f 1151 1143 1144
f 1151 1144 564
f 564 1144 1153
f 564 1153 565
f 565 1153 1154
f 1154 1153 1155
f 1154 1155 561
f 561 1155 1156
f 561 1156 562
f 562 1156 1157
f 562 1157 563
f 563 1157 556
f 556 1157 1158
f 556 1158 557
f 557 1158 1159
f 557 1159 558
f 558 1159 1160
f 558 1160 559
f 1121 444 1125
f 1125 444 445
f 1125 445 1161
f 1161 445 461
f 1161 461 1162
f 1162 461 460
f 1162 460 1163
f 1163 460 458
f 1163 458 1164
f 1128 1130 1133
f 1133 1130 1165
f 1133 1165 1166
f 1166 1165 1167
f 1166 1167 1168
f 1168 1167 1169
f 1168 1169 1170
f 1170 1169 1171
f 1170 1171 1172
f 1172 1171 1173
f 1172 1173 1174
f 1174 1173 1175
f 1174 1175 1176
f 1134 1136 1138
f 1138 1136 1137
f 1138 1137 1177
f 1177 1137 1133
f 1177 1133 1178
f 1178 1133 1166
f 1178 1166 1179
f 1179 1166 1168
f 1179 1168 1180
f 1180 1168 1170
f 1180 1170 1181
f 1181 1170 1172
f 1181 1172 1182
f 1182 1172 1174
f 1182 1174 1183
f 1183 1174 1176
f 1183 1176 1184
f 458 465 1164
f 1164 465 1185
f 1164 1185 1186
f 1122 1124 1126
f 1126 1124 1125
f 1126 1125 1187
f 1187 1125 1161
f 1187 1161 1188
f 1188 1161 1162
f 1188 1162 1189
f 1189 1162 1163
f 1189 1163 1190
f 1190 1163 1164
f 1190 1164 1191
f 1191 1164 1186
f 1191 1186 1192
f 1131 1127 1130
f 1130 1127 1126
f 1130 1126 1165
f 1165 1126 1187
f 1165 1187 1167
f 1167 1187 1188
f 1167 1188 1169
f 1169 1188 1189
f 1169 1189 1171
f 1171 1189 1190
f 1171 1190 1173
f 1173 1190 1191
f 1173 1191 1175
f 1175 1191 1192
f 1192 1193 1175
f 1175 1193 1194
f 1175 1194 1176
f 1176 1194 1195
f 1176 1195 1184
f 1184 1195 1196
f 1184 1196 1197
f 1142 1140 1144
f 1144 1140 1138
f 1144 1138 1153
f 1153 1138 1177
f 1153 1177 1155
f 1155 1177 1178
f 1155 1178 1156
f 1156 1178 1179
f 1156 1179 1157
f 1157 1179 1180
f 1157 1180 1158
f 1158 1180 1181
f 1158 1181 1159
f 1159 1181 1182
f 1159 1182 1160
f 1160 1182 1183
f 1160 1183 1198
f 1198 1183 1184
f 1198 1184 1199
f 1199 1184 1197
f 1199 1197 1200
f 559 1160 552
f 552 1160 1198
f 552 1198 553
f 553 1198 1199
f 553 1199 554
f 554 1199 1200
f 554 1200 1
f 465 464 1185
f 1185 464 1201
f 1185 1201 1186
f 1186 1201 1202
f 1186 1202 1192
f 1192 1202 1203
f 1192 1203 1193
f 1193 1203 1204
f 1193 1204 1194
f 1194 1204 1205
f 1194 1205 1195
f 1195 1205 1206
f 1195 1206 1196
f 1196 1206 1207
f 1196 1207 1197
f 1197 1207 1208
f 1197 1208 1200
f 1200 1208 1209
f 1200 1209 1
f 1 1209 2
f 1210 814 1211
f 832 831 1212
f 836 835 1213
f 840 839 1214
f 1215 844 2
f 1216 1217 1204
f 1218 1219 1220
f 1221 1222 1223
f 1224 1225 1226
f 1227 1228 1229
f 1229 1228 1230
f 1231 1232 1233
f 818 817 1234
f 818 1234 820
f 820 1234 1235
f 820 1235 822
f 822 1235 1236
f 822 1236 253
f 1233 1232 1237
f 1237 1232 1238
f 1237 1238 1239
f 1239 1238 1240
f 1239 1240 1241
f 1241 1240 1230
f 1230 1240 1242
f 1230 1242 1229
f 1225 1224 1243
f 1219 1218 1244
f 1245 1246 1247
f 1248 1249 1250
f 1250 1249 1251
f 1250 1251 1246
f 1246 1251 1252
f 1246 1252 1247
f 1253 441 440
f 464 463 1201
f 1201 463 1254
f 1201 1254 1202
f 1202 1254 1216
f 1202 1216 1203
f 1203 1216 1204
f 2 1209 1215
f 1215 1209 1208
f 1215 1208 1255
f 1255 1208 1207
f 1255 1207 1256
f 1256 1207 1206
f 1256 1206 1217
f 1217 1206 1205
f 1217 1205 1204
f 843 844 1257
f 1257 844 1215
f 1257 1215 1258
f 1258 1215 1255
f 1258 1255 1259
f 1259 1255 1256
f 1259 1256 1260
f 1260 1256 1217
f 1260 1217 1261
f 1261 1217 1216
f 1261 1216 1262
f 1262 1216 1254
f 1262 1254 455
f 455 1254 463
f 839 843 1214
f 1214 843 1257
f 1214 1257 1263
f 1263 1257 1258
f 1263 1258 1264
f 1264 1258 1259
f 1264 1259 1265
f 1265 1259 1260
f 1265 1260 1266
f 1266 1260 1261
f 1266 1261 1267
f 1267 1261 1262
f 1267 1262 456
f 456 1262 455
f 842 840 1268
f 1268 840 1214
f 1268 1214 1269
f 1269 1214 1263
f 1269 1263 1270
f 1270 1263 1264
f 1270 1264 1271
f 1271 1264 1265
f 1271 1265 1272
f 1272 1265 1266
f 1272 1266 1273
f 1273 1266 1267
f 1273 1267 457
f 457 1267 456
f 835 842 1213
f 1213 842 1268
f 1213 1268 1274
f 1274 1268 1269
f 1274 1269 1275
f 1275 1269 1270
f 1275 1270 1276
f 1276 1270 1271
f 1276 1271 1277
f 1277 1271 1272
f 1277 1272 1253
f 1253 1272 1273
f 1253 1273 441
f 441 1273 457
f 838 836 1278
f 1278 836 1213
f 1278 1213 1279
f 1279 1213 1274
f 1279 1274 1280
f 1280 1274 1275
f 1280 1275 1245
f 1245 1275 1276
f 1245 1276 1246
f 1246 1276 1277
f 1246 1277 1250
f 1250 1277 1253
f 1250 1253 1248
f 1248 1253 440
f 831 838 1212
f 1212 838 1278
f 1212 1278 1281
f 1281 1278 1279
f 1281 1279 1244
f 1244 1279 1280
f 1244 1280 1219
f 1219 1280 1245
f 1219 1245 1220
f 1220 1245 1247
f 834 832 1282
f 1282 832 1212
f 1282 1212 1283
f 1283 1212 1281
f 1283 1281 1223
f 1223 1281 1244
f 1223 1244 1221
f 1221 1244 1218
f 814 834 1211
f 1211 834 1282
f 1211 1282 1243
f 1243 1282 1283
f 1243 1283 1225
f 1225 1283 1223
f 1225 1223 1226
f 1226 1223 1222
f 830 1210 1242
f 1242 1210 1211
f 1242 1211 1229
f 1229 1211 1243
f 1229 1243 1227
f 1227 1243 1224
f 830 1242 829
f 829 1242 1240
f 829 1240 827
f 827 1240 1238
f 827 1238 823
f 823 1238 1284
f 1284 1238 1232
f 1284 1232 826
f 826 1232 1231
f 826 1231 817
f 817 1231 1285
f 817 1285 1234
f 1286 1287 1288
f 1289 1290 168
f 168 1290 1291
f 168 1291 210
f 1292 1293 1294
f 1294 1293 1295
f 1294 1295 168
f 168 1295 1296
f 168 1296 1289
f 1297 1298 1299
f 1299 1298 1300
f 1299 1300 1294
f 1294 1300 1301
f 1294 1301 1292
f 1288 1287 1299
f 1299 1287 1302
f 1299 1302 1297
f 1117 1119 1288
f 1288 1119 1303
f 1288 1303 1286
f 1116 1115 1304
f 1116 1304 1305
f 1305 1304 1306
f 1305 1306 1307
f 1307 1306 1308
f 1307 1308 1309
f 1309 1308 503
f 1309 503 505
f 1310 1311 1312
f 1313 1314 1315
f 1316 1317 1318
f 1319 1320 1321
f 1322 492 491
f 1319 1321 1323
f 1317 1316 1324
f 1324 1316 1325
f 1324 1325 1323
f 1314 1326 1315
f 1315 1326 1327
f 1315 1327 1328
f 1313 1329 1330
f 1330 1329 1331
f 1330 1331 1332
f 1332 1331 1333
f 1311 1334 1312
f 1312 1334 1335
f 1312 1335 1336
f 1337 1338 1310
f 1310 1338 1339
f 1310 1339 1340
f 1341 804 1342
f 1342 804 852
f 1342 852 1343
f 1343 852 802
f 1343 802 1344
f 1344 802 801
f 1344 801 1345
f 1345 801 161
f 1346 851 1337
f 1337 851 805
f 1337 805 1338
f 1338 805 804
f 1338 804 1339
f 1339 804 1341
f 1339 1341 1340
f 1347 847 1348
f 1348 847 846
f 1348 846 1349
f 1349 846 986
f 1349 986 1350
f 1350 986 808
f 1350 808 1346
f 1346 808 807
f 1346 807 851
f 1310 1312 1337
f 1337 1312 1336
f 1337 1336 1346
f 1346 1336 1351
f 1346 1351 1350
f 1350 1351 1352
f 1350 1352 1349
f 1349 1352 1353
f 1349 1353 1348
f 1348 1353 1354
f 1348 1354 1347
f 1347 1354 1355
f 1347 1355 1356
f 1356 1355 1357
f 1356 1357 1358
f 1359 810 1358
f 1358 810 845
f 1358 845 1356
f 1356 845 850
f 1356 850 1347
f 1347 850 849
f 1347 849 847
f 1323 1321 1324
f 1324 1321 1360
f 1324 1360 1361
f 1361 1360 1362
f 1361 1362 1363
f 1363 1362 1364
f 1363 1364 1365
f 1365 1364 1366
f 1365 1366 1367
f 1367 1366 1368
f 1367 1368 1369
f 1313 1315 1329
f 1329 1315 1370
f 1329 1370 1371
f 1371 1370 1372
f 1371 1372 1373
f 1373 1372 1374
f 1373 1374 1375
f 1375 1374 1376
f 1375 1376 1377
f 1377 1376 1378
f 1377 1378 1379
f 1379 1378 1380
f 1379 1380 1381
f 813 1359 1382
f 1382 1359 1358
f 1382 1358 1383
f 1383 1358 1357
f 478 1368 479
f 479 1368 1366
f 479 1366 489
f 489 1366 1364
f 489 1364 488
f 488 1364 1362
f 488 1362 487
f 487 1362 1360
f 487 1360 490
f 490 1360 1321
f 490 1321 491
f 491 1321 1320
f 491 1320 1322
f 478 1384 1368
f 1368 1384 1385
f 1368 1385 1369
f 1369 1385 1386
f 1369 1386 1387
f 1387 1380 1369
f 1369 1380 1378
f 1369 1378 1367
f 1367 1378 1376
f 1367 1376 1365
f 1365 1376 1374
f 1365 1374 1363
f 1363 1374 1372
f 1363 1372 1361
f 1361 1372 1370
f 1361 1370 1324
f 1324 1370 1315
f 1324 1315 1317
f 1317 1315 1328
f 1317 1328 1318
f 1387 1388 1380
f 1380 1388 1389
f 1380 1389 1381
f 1381 1389 1390
f 1381 1390 1391
f 1391 1383 1381
f 1381 1383 1357
f 1381 1357 1379
f 1379 1357 1355
f 1379 1355 1377
f 1377 1355 1354
f 1377 1354 1375
f 1375 1354 1353
f 1375 1353 1373
f 1373 1353 1352
f 1373 1352 1371
f 1371 1352 1351
f 1371 1351 1329
f 1329 1351 1336
f 1329 1336 1331
f 1331 1336 1335
f 1331 1335 1333
f 160 813 1392
f 1392 813 1382
f 1392 1382 1393
f 1393 1382 1383
f 1393 1383 1394
f 1394 1383 1391
f 159 160 1395
f 1395 160 1392
f 1395 1392 1396
f 1396 1392 1393
f 1396 1393 1397
f 1397 1393 1394
f 1397 1394 1398
f 1398 1394 1391
f 1398 1391 1399
f 1399 1391 1390
f 1399 1390 1400
f 1400 1390 1389
f 1400 1389 1401
f 1401 1389 1388
f 1401 1388 1402
f 1402 1388 1387
f 1402 1387 1403
f 1403 1387 1386
f 1403 1386 1404
f 1404 1386 1385
f 1404 1385 1405
f 1405 1385 1384
f 1405 1384 486
f 486 1384 478
f 585 589 1406
f 586 592 1407
f 546 545 1408
f 594 593 1409
f 1410 597 159
f 1411 1412 1413
f 1414 1415 1416
f 1417 1418 1419
f 580 1420 581
f 581 1420 388
f 581 388 327
f 1421 1422 1423
f 1423 1422 1424
f 1423 1424 1425
f 1425 1424 1426
f 1425 1426 1427
f 1428 1429 1430
f 1430 1429 1431
f 1430 1431 1432
f 1433 1434 1435
f 1435 1434 1416
f 1435 1416 1436
f 1436 1416 1415
f 1412 1437 1413
f 1413 1437 1438
f 1413 1438 1439
f 1440 497 499
f 486 485 1405
f 1405 485 1441
f 1405 1441 1404
f 1404 1441 1442
f 1404 1442 1403
f 1403 1442 1402
f 1402 1442 1443
f 1402 1443 1401
f 1444 1398 1445
f 1445 1398 1399
f 1445 1399 1443
f 1443 1399 1400
f 1443 1400 1401
f 159 1395 1410
f 1410 1395 1396
f 1410 1396 1444
f 1444 1396 1397
f 1444 1397 1398
f 593 597 1409
f 1409 597 1410
f 1409 1410 1446
f 1446 1410 1444
f 1446 1444 1447
f 1447 1444 1445
f 1447 1445 1448
f 1448 1445 1443
f 1448 1443 1449
f 1449 1443 1442
f 1449 1442 1450
f 1450 1442 1441
f 1450 1441 493
f 493 1441 485
f 596 594 1451
f 1451 594 1409
f 1451 1409 1452
f 1452 1409 1446
f 1452 1446 1453
f 1453 1446 1447
f 1453 1447 1454
f 1454 1447 1448
f 1454 1448 1455
f 1455 1448 1449
f 1455 1449 1456
f 1456 1449 1450
f 1456 1450 495
f 495 1450 493
f 545 596 1408
f 1408 596 1451
f 1408 1451 1457
f 1457 1451 1452
f 1457 1452 1458
f 1458 1452 1453
f 1458 1453 1459
f 1459 1453 1454
f 1459 1454 1460
f 1460 1454 1455
f 1460 1455 1440
f 1440 1455 1456
f 1440 1456 497
f 497 1456 495
f 590 546 1461
f 1461 546 1408
f 1461 1408 1462
f 1462 1408 1457
f 1462 1457 1463
f 1463 1457 1458
f 1463 1458 1464
f 1464 1458 1459
f 1464 1459 1439
f 1439 1459 1460
f 1439 1460 1413
f 1413 1460 1440
f 1413 1440 1411
f 1411 1440 499
f 591 590 1465
f 1465 590 1461
f 1465 1461 1466
f 1466 1461 1462
f 1466 1462 1467
f 1467 1462 1463
f 1467 1463 1434
f 1434 1463 1464
f 1434 1464 1416
f 1416 1464 1439
f 1416 1439 1414
f 1414 1439 1438
f 592 591 1407
f 1407 591 1465
f 1407 1465 1468
f 1468 1465 1466
f 1468 1466 1432
f 1432 1466 1467
f 1432 1467 1430
f 1430 1467 1434
f 1430 1434 1428
f 1428 1434 1433
f 587 586 1469
f 1469 586 1407
f 1469 1407 1470
f 1470 1407 1468
f 1470 1468 1471
f 1471 1468 1432
f 1471 1432 1472
f 1472 1432 1431
f 589 587 1406
f 1406 587 1469
f 1406 1469 1419
f 1419 1469 1470
f 1419 1470 1417
f 1417 1470 1471
f 1417 1471 1473
f 1473 1471 1472
f 584 585 1474
f 1474 585 1406
f 1474 1406 1475
f 1475 1406 1419
f 1475 1419 1476
f 1476 1419 1418
f 582 584 1423
f 1423 584 1474
f 1423 1474 1421
f 1421 1474 1475
f 1421 1475 1477
f 1477 1475 1476
f 582 1423 577
f 577 1423 1425
f 577 1425 578
f 578 1425 1427
f 578 1427 580
f 580 1427 1478
f 580 1478 1420
f 1479 1480 1481
f 1481 1480 1482
f 1483 1484 1485
f 1485 1484 1486
f 1487 1488 1489
f 1490 1491 1492
f 1492 1491 1493
f 1492 1493 1494
f 1494 1493 1495
f 1494 1495 1496
f 1496 1495 531
f 1496 531 530
f 1497 1498 1490
f 1490 1498 1499
f 1490 1499 1491
f 398 1500 396
f 396 1500 1501
f 396 1501 1502
f 1502 1503 396
f 396 1503 1504
f 396 1504 1497
f 1497 1504 1505
f 1497 1505 1498

