# https://github.com/mikedh/trimesh
mtllib material.mtl

o ActorShape0_0-Mesh
usemtl material_0
v 0.00064487 0.00008147 0.00802000
v 0.00065000 0.00000000 0.00802000
v 0.00065000 0.00000000 0.00000000
v 0.00064487 -0.00008147 0.00000000
v 0.00064487 0.00008147 0.00000000
v 0.00060436 0.00023928 0.00000000
v 0.00060436 0.00023928 0.00802000
v 0.00052586 0.00038206 0.00000000
v 0.00052586 0.00038206 0.00802000
v 0.00041433 0.00050083 0.00000000
v 0.00041433 0.00050083 0.00802000
v 0.00027676 0.00058814 0.00000000
v 0.00027676 0.00058814 0.00802000
v 0.00012180 0.00063849 0.00000000
v 0.00012180 0.00063849 0.00802000
v -0.00004081 0.00064872 0.00000000
v -0.00004081 0.00064872 0.00802000
v -0.00020086 0.00061819 0.00000000
v -0.00020086 0.00061819 0.00802000
v -0.00034829 0.00054881 0.00000000
v -0.00034829 0.00054881 0.00802000
v -0.00047383 0.00044496 0.00000000
v -0.00047383 0.00044496 0.00802000
v -0.00056960 0.00031314 0.00000000
v -0.00056960 0.00031314 0.00802000
v -0.00062958 0.00016165 0.00000000
v -0.00062958 0.00016165 0.00802000
v -0.00065000 0.00000000 0.00000000
v -0.00065000 0.00000000 0.00802000
v -0.00062958 -0.00016165 0.00000000
v -0.00062958 -0.00016165 0.00802000
v -0.00056960 -0.00031314 0.00000000
v -0.00056960 -0.00031314 0.00802000
v -0.00047383 -0.00044496 0.00000000
v -0.00047383 -0.00044496 0.00802000
v -0.00034829 -0.00054881 0.00000000
v -0.00034829 -0.00054881 0.00802000
v -0.00020086 -0.00061819 0.00000000
v -0.00020086 -0.00061819 0.00802000
v -0.00004081 -0.00064872 0.00000000
v -0.00004081 -0.00064872 0.00802000
v 0.00012180 -0.00063849 0.00000000
v 0.00012180 -0.00063849 0.00802000
v 0.00027676 -0.00058814 0.00000000
v 0.00027676 -0.00058814 0.00802000
v 0.00041433 -0.00050083 0.00000000
v 0.00041433 -0.00050083 0.00802000
v 0.00052586 -0.00038206 0.00000000
v 0.00052586 -0.00038206 0.00802000
v 0.00060436 -0.00023928 0.00000000
v 0.00060436 -0.00023928 0.00802000
v 0.00064487 -0.00008147 0.00802000
v 0.00065000 0.00000000 0.00802000
v -0.00065000 0.00000000 0.00802000
v 0.00064487 -0.00008147 0.00802000
v -0.00062958 -0.00016165 0.00802000
v 0.00060436 -0.00023928 0.00802000
v -0.00056960 -0.00031314 0.00802000
v 0.00052586 -0.00038206 0.00802000
v -0.00047383 -0.00044496 0.00802000
v 0.00041433 -0.00050083 0.00802000
v -0.00034829 -0.00054881 0.00802000
v 0.00027676 -0.00058814 0.00802000
v -0.00020086 -0.00061819 0.00802000
v 0.00012180 -0.00063849 0.00802000
v -0.00004081 -0.00064872 0.00802000
v 0.00064487 0.00008147 0.00802000
v 0.00060436 0.00023928 0.00802000
v -0.00062958 0.00016165 0.00802000
v -0.00034829 0.00054881 0.00802000
v -0.00056960 0.00031314 0.00802000
v -0.00047383 0.00044496 0.00802000
v 0.00052586 0.00038206 0.00802000
v 0.00041433 0.00050083 0.00802000
v -0.00004081 0.00064872 0.00802000
v -0.00020086 0.00061819 0.00802000
v 0.00012180 0.00063849 0.00802000
v 0.00027676 0.00058814 0.00802000
v 0.00065000 0.00000000 0.00000000
v -0.00065000 0.00000000 0.00000000
v 0.00064487 0.00008147 0.00000000
v -0.00062958 0.00016165 0.00000000
v 0.00060436 0.00023928 0.00000000
v -0.00056960 0.00031314 0.00000000
v 0.00052586 0.00038206 0.00000000
v -0.00047383 0.00044496 0.00000000
v 0.00041433 0.00050083 0.00000000
v -0.00034829 0.00054881 0.00000000
v 0.00027676 0.00058814 0.00000000
v -0.00020086 0.00061819 0.00000000
v 0.00012180 0.00063849 0.00000000
v -0.00004081 0.00064872 0.00000000
v 0.00041433 -0.00050083 0.00000000
v 0.00027676 -0.00058814 0.00000000
v 0.00052586 -0.00038206 0.00000000
v 0.00060436 -0.00023928 0.00000000
v 0.00064487 -0.00008147 0.00000000
v -0.00020086 -0.00061819 0.00000000
v -0.00034829 -0.00054881 0.00000000
v -0.00004081 -0.00064872 0.00000000
v -0.00047383 -0.00044496 0.00000000
v -0.00062958 -0.00016165 0.00000000
v -0.00056960 -0.00031314 0.00000000
v 0.00012180 -0.00063849 0.00000000
f 1 2 3
f 3 2 4
f 3 5 1
f 1 5 6
f 1 6 7
f 7 6 8
f 7 8 9
f 9 8 10
f 9 10 11
f 11 10 12
f 11 12 13
f 13 12 14
f 13 14 15
f 15 14 16
f 15 16 17
f 17 16 18
f 17 18 19
f 19 18 20
f 19 20 21
f 21 20 22
f 21 22 23
f 23 22 24
f 23 24 25
f 25 24 26
f 25 26 27
f 27 26 28
f 27 28 29
f 29 28 30
f 29 30 31
f 31 30 32
f 31 32 33
f 33 32 34
f 33 34 35
f 35 34 36
f 35 36 37
f 37 36 38
f 37 38 39
f 39 38 40
f 39 40 41
f 41 40 42
f 41 42 43
f 43 42 44
f 43 44 45
f 45 44 46
f 45 46 47
f 47 46 48
f 47 48 49
f 49 48 50
f 49 50 51
f 51 50 4
f 51 4 52
f 52 4 2
f 53 54 55
f 55 54 56
f 55 56 57
f 57 56 58
f 57 58 59
f 59 58 60
f 59 60 61
f 61 60 62
f 61 62 63
f 63 62 64
f 63 64 65
f 65 64 66
f 53 67 54
f 54 67 68
f 54 68 69
f 69 70 71
f 71 70 72
f 69 68 70
f 70 68 73
f 70 73 74
f 75 76 77
f 77 76 70
f 77 70 78
f 78 70 74
f 79 80 81
f 81 80 82
f 81 82 83
f 83 82 84
f 83 84 85
f 85 84 86
f 85 86 87
f 87 86 88
f 87 88 89
f 89 88 90
f 89 90 91
f 91 90 92
f 93 94 80
f 95 93 96
f 96 93 80
f 96 80 97
f 97 80 79
f 98 99 100
f 100 99 101
f 102 80 103
f 103 80 94
f 103 94 101
f 101 94 104
f 101 104 100

