# https://github.com/mikedh/trimesh
mtllib material.mtl

o ActorShape0_0-Mesh
usemtl material_0
v -0.00063751 0.00012681 0.00500000
v -0.00065000 0.00000000 0.00000000
v -0.00065000 0.00000000 0.00500000
v -0.00063751 -0.00012681 0.00000000
v -0.00063751 -0.00012681 0.00500000
v -0.00060052 -0.00024874 0.00000000
v -0.00060052 -0.00024874 0.00500000
v -0.00054045 -0.00036112 0.00000000
v -0.00054045 -0.00036112 0.00500000
v -0.00045962 -0.00045962 0.00000000
v -0.00045962 -0.00045962 0.00500000
v -0.00036112 -0.00054045 0.00000000
v -0.00036112 -0.00054045 0.00500000
v -0.00024874 -0.00060052 0.00000000
v -0.00024874 -0.00060052 0.00500000
v -0.00012681 -0.00063751 0.00000000
v -0.00012681 -0.00063751 0.00500000
v 0.00000000 -0.00065000 0.00000000
v 0.00000000 -0.00065000 0.00500000
v 0.00012681 -0.00063751 0.00000000
v 0.00012681 -0.00063751 0.00500000
v 0.00024874 -0.00060052 0.00000000
v 0.00024874 -0.00060052 0.00500000
v 0.00036112 -0.00054045 0.00000000
v 0.00036112 -0.00054045 0.00500000
v 0.00045962 -0.00045962 0.00000000
v 0.00045962 -0.00045962 0.00500000
v 0.00054045 -0.00036112 0.00000000
v 0.00054045 -0.00036112 0.00500000
v 0.00060052 -0.00024874 0.00000000
v 0.00060052 -0.00024874 0.00500000
v 0.00063751 -0.00012681 0.00000000
v 0.00063751 -0.00012681 0.00500000
v 0.00065000 0.00000000 0.00000000
v 0.00065000 0.00000000 0.00500000
v 0.00063751 0.00012681 0.00000000
v 0.00063751 0.00012681 0.00500000
v 0.00060052 0.00024874 0.00000000
v 0.00060052 0.00024874 0.00500000
v 0.00054045 0.00036112 0.00000000
v 0.00054045 0.00036112 0.00500000
v 0.00045962 0.00045962 0.00000000
v 0.00045962 0.00045962 0.00500000
v 0.00036112 0.00054045 0.00000000
v 0.00036112 0.00054045 0.00500000
v 0.00024874 0.00060052 0.00000000
v 0.00024874 0.00060052 0.00500000
v 0.00012681 0.00063751 0.00000000
v 0.00012681 0.00063751 0.00500000
v -0.00000000 0.00065000 0.00000000
v -0.00000000 0.00065000 0.00500000
v -0.00012681 0.00063751 0.00000000
v -0.00012681 0.00063751 0.00500000
v -0.00024874 0.00060052 0.00000000
v -0.00024874 0.00060052 0.00500000
v -0.00036112 0.00054045 0.00000000
v -0.00036112 0.00054045 0.00500000
v -0.00045962 0.00045962 0.00000000
v -0.00045962 0.00045962 0.00500000
v -0.00054045 0.00036112 0.00000000
v -0.00054045 0.00036112 0.00500000
v -0.00060052 0.00024874 0.00000000
v -0.00060052 0.00024874 0.00500000
v -0.00063751 0.00012681 0.00000000
v 0.00036112 -0.00054045 0.00500000
v -0.00036112 0.00054045 0.00500000
v -0.00045962 0.00045962 0.00500000
v -0.00045962 -0.00045962 0.00500000
v -0.00036112 -0.00054045 0.00500000
v -0.00054045 -0.00036112 0.00500000
v -0.00024874 -0.00060052 0.00500000
v -0.00012681 -0.00063751 0.00500000
v 0.00000000 -0.00065000 0.00500000
v 0.00012681 -0.00063751 0.00500000
v 0.00024874 -0.00060052 0.00500000
v -0.00060052 -0.00024874 0.00500000
v 0.00045962 -0.00045962 0.00500000
v 0.00054045 -0.00036112 0.00500000
v 0.00024874 0.00060052 0.00500000
v 0.00060052 -0.00024874 0.00500000
v 0.00063751 -0.00012681 0.00500000
v 0.00012681 0.00063751 0.00500000
v -0.00000000 0.00065000 0.00500000
v -0.00012681 0.00063751 0.00500000
v -0.00024874 0.00060052 0.00500000
v -0.00054045 0.00036112 0.00500000
v -0.00060052 0.00024874 0.00500000
v -0.00063751 0.00012681 0.00500000
v -0.00065000 0.00000000 0.00500000
v -0.00063751 -0.00012681 0.00500000
v 0.00065000 0.00000000 0.00500000
v 0.00063751 0.00012681 0.00500000
v 0.00060052 0.00024874 0.00500000
v 0.00054045 0.00036112 0.00500000
v 0.00045962 0.00045962 0.00500000
v 0.00036112 0.00054045 0.00500000
v -0.00036112 0.00054045 0.00000000
v -0.00024874 0.00060052 0.00000000
v 0.00036112 -0.00054045 0.00000000
v -0.00012681 0.00063751 0.00000000
v -0.00000000 0.00065000 0.00000000
v 0.00065000 0.00000000 0.00000000
v 0.00024874 0.00060052 0.00000000
v 0.00036112 0.00054045 0.00000000
v 0.00063751 -0.00012681 0.00000000
v 0.00060052 -0.00024874 0.00000000
v 0.00054045 -0.00036112 0.00000000
v 0.00024874 -0.00060052 0.00000000
v 0.00012681 -0.00063751 0.00000000
v 0.00000000 -0.00065000 0.00000000
v -0.00054045 0.00036112 0.00000000
v -0.00045962 0.00045962 0.00000000
v -0.00063751 -0.00012681 0.00000000
v -0.00060052 -0.00024874 0.00000000
v 0.00045962 0.00045962 0.00000000
v 0.00054045 0.00036112 0.00000000
v 0.00063751 0.00012681 0.00000000
v 0.00060052 0.00024874 0.00000000
v 0.00012681 0.00063751 0.00000000
v 0.00045962 -0.00045962 0.00000000
v -0.00012681 -0.00063751 0.00000000
v -0.00024874 -0.00060052 0.00000000
v -0.00036112 -0.00054045 0.00000000
v -0.00045962 -0.00045962 0.00000000
v -0.00054045 -0.00036112 0.00000000
v -0.00065000 0.00000000 0.00000000
v -0.00063751 0.00012681 0.00000000
v -0.00060052 0.00024874 0.00000000
f 1 2 3
f 3 2 4
f 3 4 5
f 5 4 6
f 5 6 7
f 7 6 8
f 7 8 9
f 9 8 10
f 9 10 11
f 11 10 12
f 11 12 13
f 13 12 14
f 13 14 15
f 15 14 16
f 15 16 17
f 17 16 18
f 17 18 19
f 19 18 20
f 19 20 21
f 21 20 22
f 21 22 23
f 23 22 24
f 23 24 25
f 25 24 26
f 25 26 27
f 27 26 28
f 27 28 29
f 29 28 30
f 29 30 31
f 31 30 32
f 31 32 33
f 33 32 34
f 33 34 35
f 35 34 36
f 35 36 37
f 37 36 38
f 37 38 39
f 39 38 40
f 39 40 41
f 41 40 42
f 41 42 43
f 43 42 44
f 43 44 45
f 45 44 46
f 45 46 47
f 47 46 48
f 47 48 49
f 49 48 50
f 49 50 51
f 51 50 52
f 51 52 53
f 53 52 54
f 53 54 55
f 55 54 56
f 55 56 57
f 57 56 58
f 57 58 59
f 59 58 60
f 59 60 61
f 61 60 62
f 61 62 63
f 63 62 64
f 63 64 1
f 1 64 2
f 65 66 67
f 68 69 70
f 70 69 71
f 71 72 70
f 70 72 73
f 70 73 74
f 74 75 70
f 70 75 65
f 70 65 76
f 77 78 79
f 79 78 80
f 79 80 81
f 77 79 65
f 65 79 82
f 65 82 83
f 83 84 65
f 65 84 85
f 65 85 66
f 67 86 65
f 65 86 87
f 65 87 88
f 88 89 65
f 65 89 90
f 65 90 76
f 81 91 79
f 79 91 92
f 79 92 93
f 93 94 79
f 79 94 95
f 79 95 96
f 97 98 99
f 99 98 100
f 99 100 101
f 102 103 104
f 102 105 103
f 103 105 106
f 103 106 107
f 99 108 97
f 97 108 109
f 97 109 110
f 111 112 113
f 113 112 97
f 113 97 114
f 104 115 102
f 102 115 116
f 102 116 117
f 117 116 118
f 101 119 99
f 99 119 103
f 99 103 120
f 120 103 107
f 110 121 97
f 97 121 122
f 97 122 123
f 123 124 97
f 97 124 125
f 97 125 114
f 126 127 113
f 113 127 128
f 113 128 111

